<svg xmlns="http://www.w3.org/2000/svg" xmlns:xlink="http://www.w3.org/1999/xlink" width="420" height="318.233" viewBox="0 0 420 318.233">
  <defs>
    <clipPath id="clip-path">
      <rect id="Rectángulo_402864" data-name="Rectángulo 402864" width="420" height="318.233" transform="translate(181.967 2354.412)" fill="#f6f0ca"/>
    </clipPath>
    <clipPath id="clip-path-2">
      <rect id="Rectángulo_402863" data-name="Rectángulo 402863" width="477.048" height="396.18" fill="#f7b71b"/>
    </clipPath>
    <clipPath id="clip-path-4">
      <rect id="Rectángulo_402851" data-name="Rectángulo 402851" width="447.078" height="371.625" transform="translate(25.275 24.555)" fill="#f7b71b"/>
    </clipPath>
    <clipPath id="clip-path-5">
      <rect id="Rectángulo_402846" data-name="Rectángulo 402846" width="425.765" height="369.768" transform="translate(46.588 24.555)" fill="#f7b71b"/>
    </clipPath>
    <clipPath id="clip-path-6">
      <rect id="Rectángulo_402847" data-name="Rectángulo 402847" width="39.454" height="39.454" transform="translate(410.456 57.202)" fill="#f7b71b"/>
    </clipPath>
    <clipPath id="clip-path-7">
      <rect id="Rectángulo_402848" data-name="Rectángulo 402848" width="13.718" height="13.718" transform="translate(388.634 43.484)" fill="#f7b71b"/>
    </clipPath>
    <clipPath id="clip-path-8">
      <rect id="Rectángulo_402849" data-name="Rectángulo 402849" width="18.381" height="18.382" transform="translate(142.993 32.732)" fill="#f7b71b"/>
    </clipPath>
    <clipPath id="clip-path-9">
      <rect id="Rectángulo_402850" data-name="Rectángulo 402850" width="41.854" height="41.854" transform="translate(25.275 354.326)" fill="#f7b71b"/>
    </clipPath>
    <clipPath id="clip-path-10">
      <rect id="Rectángulo_402856" data-name="Rectángulo 402856" width="477.048" height="283" transform="translate(0 57.555)" fill="#f7b71b"/>
    </clipPath>
    <clipPath id="clip-path-11">
      <rect id="Rectángulo_402852" data-name="Rectángulo 402852" width="22.044" height="28.261" transform="translate(0 271.263)" fill="#f7b71b"/>
    </clipPath>
    <clipPath id="clip-path-12">
      <rect id="Rectángulo_402853" data-name="Rectángulo 402853" width="42.158" height="34.459" transform="translate(40.621 64.569)" fill="#f7b71b"/>
    </clipPath>
    <clipPath id="clip-path-13">
      <rect id="Rectángulo_402854" data-name="Rectángulo 402854" width="450.358" height="248.484" transform="translate(26.69 92.071)" fill="#f7b71b"/>
    </clipPath>
    <clipPath id="clip-path-14">
      <rect id="Rectángulo_402855" data-name="Rectángulo 402855" width="403.834" height="283" transform="translate(45.562 57.555)" fill="#f7b71b"/>
    </clipPath>
    <clipPath id="clip-path-15">
      <rect id="Rectángulo_402857" data-name="Rectángulo 402857" width="10.198" height="10.199" transform="translate(194.459 28.264)" fill="#f7b71b"/>
    </clipPath>
    <clipPath id="clip-path-16">
      <rect id="Rectángulo_402858" data-name="Rectángulo 402858" width="8.858" height="8.858" transform="translate(427.204 8.125)" fill="#f7b71b"/>
    </clipPath>
    <clipPath id="clip-path-17">
      <rect id="Rectángulo_402859" data-name="Rectángulo 402859" width="8.008" height="8.008" transform="translate(78.775)" fill="#f7b71b"/>
    </clipPath>
    <clipPath id="clip-path-19">
      <rect id="Rectángulo_402861" data-name="Rectángulo 402861" width="383.696" height="118.363" transform="translate(65.193 103.814)" fill="#f7b71b"/>
    </clipPath>
    <clipPath id="clip-path-20">
      <rect id="Rectángulo_402845" data-name="Rectángulo 402845" width="393.559" height="286.352" fill="none"/>
    </clipPath>
    <clipPath id="clip-path-22">
      <rect id="Rectángulo_402841" data-name="Rectángulo 402841" width="372.449" height="114.894" fill="none"/>
    </clipPath>
    <clipPath id="clip-path-23">
      <rect id="Rectángulo_402842" data-name="Rectángulo 402842" width="42.968" height="24.857" fill="none"/>
    </clipPath>
    <clipPath id="clip-path-24">
      <rect id="Rectángulo_402843" data-name="Rectángulo 402843" width="42.742" height="37.079" fill="none"/>
    </clipPath>
  </defs>
  <g id="Enmascarar_grupo_1099767" data-name="Enmascarar grupo 1099767" transform="translate(-181.967 -2354.412)" clip-path="url(#clip-path)">
    <rect id="Rectángulo_35205" data-name="Rectángulo 35205" width="420" height="318.233" transform="translate(181.967 2354.412)" fill="#f6f0ca"/>
    <g id="Grupo_133941" data-name="Grupo 133941" transform="translate(-462.867 -5882.82)">
      <g id="Grupo_133605" data-name="Grupo 133605" transform="translate(649.835 8254.821)">
        <g id="Grupo_1105777" data-name="Grupo 1105777" transform="translate(-50.236 -40.73)">
          <g id="Grupo_1105776" data-name="Grupo 1105776" clip-path="url(#clip-path-2)">
            <g id="Grupo_1105770" data-name="Grupo 1105770">
              <g id="Grupo_1105769" data-name="Grupo 1105769" clip-path="url(#clip-path-2)">
                <g id="Grupo_1105744" data-name="Grupo 1105744" opacity="0.25">
                  <g id="Grupo_1105743" data-name="Grupo 1105743">
                    <g id="Grupo_1105742" data-name="Grupo 1105742" clip-path="url(#clip-path-4)">
                      <g id="Grupo_1105729" data-name="Grupo 1105729" opacity="0.41">
                        <g id="Grupo_1105728" data-name="Grupo 1105728">
                          <g id="Grupo_1105727" data-name="Grupo 1105727" clip-path="url(#clip-path-5)">
                            <path id="Trazado_874517" data-name="Trazado 874517" d="M472.136,260.552a127.066,127.066,0,0,0-.583-21.675c-3.826-33.777-21.155-65.628-46.659-88.1-9.1-8.018-19.452-15.2-25.374-25.784-9.973-17.822-9.217-38.3-21.594-55.9a104.684,104.684,0,0,0-50.811-38.413C266.4,9.639,181.394,43.893,189.048,117.046c.027.263.057.644.089,1.127a26.628,26.628,0,0,1-26.087,28.332c-56.019,1.329-104.239,44.519-114.557,99.228-6.636,35.184,4.23,73.749,29.967,98.639,19.212,18.58,44.989,28.786,70.778,35.8,51.708,14.063,106.122,17.01,159.438,11.633,49.907-5.033,102.55-19.381,134.826-57.777,17.218-20.483,27.082-46.749,28.634-73.476" fill="#f7b71b"/>
                          </g>
                        </g>
                      </g>
                      <g id="Grupo_1105732" data-name="Grupo 1105732" opacity="0.31">
                        <g id="Grupo_1105731" data-name="Grupo 1105731">
                          <g id="Grupo_1105730" data-name="Grupo 1105730" clip-path="url(#clip-path-6)">
                            <path id="Trazado_874518" data-name="Trazado 874518" d="M449.91,76.929A19.727,19.727,0,1,1,430.183,57.2,19.727,19.727,0,0,1,449.91,76.929" fill="#f7b71b"/>
                          </g>
                        </g>
                      </g>
                      <g id="Grupo_1105735" data-name="Grupo 1105735" opacity="0.31">
                        <g id="Grupo_1105734" data-name="Grupo 1105734">
                          <g id="Grupo_1105733" data-name="Grupo 1105733" clip-path="url(#clip-path-7)">
                            <path id="Trazado_874519" data-name="Trazado 874519" d="M402.352,50.343a6.858,6.858,0,1,1-6.859-6.859,6.859,6.859,0,0,1,6.859,6.859" fill="#f7b71b"/>
                          </g>
                        </g>
                      </g>
                      <g id="Grupo_1105738" data-name="Grupo 1105738" opacity="0.31">
                        <g id="Grupo_1105737" data-name="Grupo 1105737">
                          <g id="Grupo_1105736" data-name="Grupo 1105736" clip-path="url(#clip-path-8)">
                            <path id="Trazado_874520" data-name="Trazado 874520" d="M161.374,41.923a9.191,9.191,0,1,1-9.191-9.191,9.191,9.191,0,0,1,9.191,9.191" fill="#f7b71b"/>
                          </g>
                        </g>
                      </g>
                      <g id="Grupo_1105741" data-name="Grupo 1105741" opacity="0.31">
                        <g id="Grupo_1105740" data-name="Grupo 1105740">
                          <g id="Grupo_1105739" data-name="Grupo 1105739" clip-path="url(#clip-path-9)">
                            <path id="Trazado_874521" data-name="Trazado 874521" d="M67.129,375.253A20.927,20.927,0,1,1,46.2,354.326a20.927,20.927,0,0,1,20.928,20.927" fill="#f7b71b"/>
                          </g>
                        </g>
                      </g>
                    </g>
                  </g>
                </g>
                <g id="Grupo_1105759" data-name="Grupo 1105759" opacity="0.25">
                  <g id="Grupo_1105758" data-name="Grupo 1105758">
                    <g id="Grupo_1105757" data-name="Grupo 1105757" clip-path="url(#clip-path-10)">
                      <g id="Grupo_1105747" data-name="Grupo 1105747" opacity="0.47">
                        <g id="Grupo_1105746" data-name="Grupo 1105746">
                          <g id="Grupo_1105745" data-name="Grupo 1105745" clip-path="url(#clip-path-11)">
                            <path id="Trazado_874522" data-name="Trazado 874522" d="M8.434,271.977a11.964,11.964,0,0,0-7.9,14.962c1.951,6.312,10.005,14.234,16.317,12.283s3.6-11.945,4.938-18.415c1.871-9.022-7.045-10.781-13.357-8.83" fill="#f7b71b"/>
                          </g>
                        </g>
                      </g>
                      <g id="Grupo_1105750" data-name="Grupo 1105750" opacity="0.47">
                        <g id="Grupo_1105749" data-name="Grupo 1105749">
                          <g id="Grupo_1105748" data-name="Grupo 1105748" clip-path="url(#clip-path-12)">
                            <path id="Trazado_874523" data-name="Trazado 874523" d="M79.946,74.126a18.12,18.12,0,0,0-24.534-7.4c-8.818,4.731-18.258,19-13.527,27.821s18.8,1.881,28.809,2c13.956.164,13.983-13.6,9.252-22.419" fill="#f7b71b"/>
                          </g>
                        </g>
                      </g>
                      <g id="Grupo_1105753" data-name="Grupo 1105753" opacity="0.47">
                        <g id="Grupo_1105752" data-name="Grupo 1105752">
                          <g id="Grupo_1105751" data-name="Grupo 1105751" clip-path="url(#clip-path-13)">
                            <path id="Trazado_874524" data-name="Trazado 874524" d="M470.1,321.884c6.259-9.954,7.828-22.3,6.525-33.99a112.118,112.118,0,0,0-9.822-34.356c-4.71-10.009-11.528-18.938-13.471-30.088-2.567-14.73,4.157-28.888,5.717-43.338,3.107-28.765-16.332-54.11-40.447-67.8-19.587-11.116-42.55-15.287-65.069-14.99-20.268.267-40.5,3.863-60.14,8.7-18.927,4.659-37.432,10.8-57.271,8.862-16.5-1.611-31.36-8.465-46.726-13.575-36.685-12.2-81.124-13.92-114.67,4.652a92.534,92.534,0,0,0-43.281,52.089c-4.9,15.244-6.348,32.772-2.76,48.2,4.031,17.336,11.478,32.6,9.511,50.865-1.613,14.985-7.118,29.593-6.631,44.792.418,13.064,5.312,26.129,12.92,36.7a16.44,16.44,0,0,0,1.6,1.953h402.62c8.429-4.543,16.3-10.569,21.391-18.672" fill="#f7b71b"/>
                          </g>
                        </g>
                      </g>
                      <g id="Grupo_1105756" data-name="Grupo 1105756" opacity="0.81">
                        <g id="Grupo_1105755" data-name="Grupo 1105755">
                          <g id="Grupo_1105754" data-name="Grupo 1105754" clip-path="url(#clip-path-14)">
                            <path id="Trazado_874525" data-name="Trazado 874525" d="M418.411,311.909c1.426-11.1-1.913-21.414-1.475-32.2.842-20.749,19.9-35.074,26.545-53.726,8.411-23.619,8.007-50.085-2.207-73.1-4.923-11.091-12.114-21.4-21.934-28.529-15.139-10.989-34.975-13.4-53.63-12.006-27.764,2.075-57.061,13.623-84.975,10.473-15.4-1.737-20.108-17.755-28.064-28.321a91.467,91.467,0,0,0-34.8-27.585c-24.952-11.508-54.9-12.6-80.4-2.163-27.226,11.141-50.957,38.347-49.4,69.114.721,14.234,6.652,28.371,3.906,42.357-3.446,17.552-17.211,33.546-27.186,47.847a106.6,106.6,0,0,0-3.71,116.49H408.839a77.482,77.482,0,0,0,9.572-28.647" fill="#f7b71b"/>
                          </g>
                        </g>
                      </g>
                    </g>
                  </g>
                </g>
                <g id="Grupo_1105762" data-name="Grupo 1105762" opacity="0.84">
                  <g id="Grupo_1105761" data-name="Grupo 1105761">
                    <g id="Grupo_1105760" data-name="Grupo 1105760" clip-path="url(#clip-path-15)">
                      <path id="Trazado_874526" data-name="Trazado 874526" d="M204.544,34.428a5.1,5.1,0,1,1-3.921-6.05,5.1,5.1,0,0,1,3.921,6.05" fill="#f7b71b"/>
                    </g>
                  </g>
                </g>
                <g id="Grupo_1105765" data-name="Grupo 1105765" opacity="0.84">
                  <g id="Grupo_1105764" data-name="Grupo 1105764">
                    <g id="Grupo_1105763" data-name="Grupo 1105763" clip-path="url(#clip-path-16)">
                      <path id="Trazado_874527" data-name="Trazado 874527" d="M435.964,13.479a4.428,4.428,0,1,1-3.406-5.255,4.428,4.428,0,0,1,3.406,5.255" fill="#f7b71b"/>
                    </g>
                  </g>
                </g>
                <g id="Grupo_1105768" data-name="Grupo 1105768" opacity="0.58">
                  <g id="Grupo_1105767" data-name="Grupo 1105767">
                    <g id="Grupo_1105766" data-name="Grupo 1105766" clip-path="url(#clip-path-17)">
                      <path id="Trazado_874528" data-name="Trazado 874528" d="M86.695,4.84A4,4,0,1,1,83.616.089,4,4,0,0,1,86.695,4.84" fill="#f7b71b"/>
                    </g>
                  </g>
                </g>
                <path id="Trazado_874529" data-name="Trazado 874529" d="M374.573,15.116a2.119,2.119,0,1,1-1.63-2.514,2.117,2.117,0,0,1,1.63,2.514" fill="#f7b71b"/>
                <path id="Trazado_874530" data-name="Trazado 874530" d="M43.6,47.729a3.044,3.044,0,1,1-2.341-3.613A3.044,3.044,0,0,1,43.6,47.729" fill="#f7b71b"/>
                <path id="Trazado_874531" data-name="Trazado 874531" d="M452.887,115.425a3.044,3.044,0,1,1-2.341-3.613,3.044,3.044,0,0,1,2.341,3.613" fill="#f7b71b"/>
              </g>
            </g>
            <g id="Grupo_1105775" data-name="Grupo 1105775">
              <g id="Grupo_1105774" data-name="Grupo 1105774" clip-path="url(#clip-path-2)">
                <g id="Grupo_1105773" data-name="Grupo 1105773" opacity="0.61">
                  <g id="Grupo_1105772" data-name="Grupo 1105772">
                    <g id="Grupo_1105771" data-name="Grupo 1105771" clip-path="url(#clip-path-19)">
                      <path id="Trazado_874532" data-name="Trazado 874532" d="M391.881,203.523H365.706a1,1,0,1,1,0-2h26.175a1,1,0,0,1,0,2" fill="#f7b71b"/>
                      <path id="Trazado_874533" data-name="Trazado 874533" d="M447.889,203.523h-40.07a1,1,0,0,1,0-2h40.07a1,1,0,0,1,0,2" fill="#f7b71b"/>
                      <path id="Trazado_874534" data-name="Trazado 874534" d="M431.633,212.85H365.706a1,1,0,0,1,0-2h65.927a1,1,0,0,1,0,2" fill="#f7b71b"/>
                      <path id="Trazado_874535" data-name="Trazado 874535" d="M409.388,222.177H365.706a1,1,0,1,1,0-2h43.682a1,1,0,1,1,0,2" fill="#f7b71b"/>
                      <path id="Trazado_874536" data-name="Trazado 874536" d="M133.84,147.776H66.193a1,1,0,0,1,0-2H133.84a1,1,0,1,1,0,2" fill="#f7b71b"/>
                      <path id="Trazado_874537" data-name="Trazado 874537" d="M133.84,126.874H66.193a1,1,0,0,1,0-2H133.84a1,1,0,1,1,0,2" fill="#f7b71b"/>
                      <path id="Trazado_874538" data-name="Trazado 874538" d="M133.84,137.325H97.369a1,1,0,0,1,0-2H133.84a1,1,0,1,1,0,2" fill="#f7b71b"/>
                      <path id="Trazado_874539" data-name="Trazado 874539" d="M133.84,115.79H97.369a1,1,0,0,1,0-2H133.84a1,1,0,0,1,0,2" fill="#f7b71b"/>
                      <path id="Trazado_874540" data-name="Trazado 874540" d="M133.84,105.814h-24.6a1,1,0,0,1,0-2h24.6a1,1,0,0,1,0,2" fill="#f7b71b"/>
                    </g>
                  </g>
                </g>
              </g>
            </g>
          </g>
        </g>
        <g id="Grupo_1105726" data-name="Grupo 1105726" transform="translate(7.59 14.184)">
          <g id="Grupo_1105725" data-name="Grupo 1105725" clip-path="url(#clip-path-20)">
            <g id="Grupo_1105724" data-name="Grupo 1105724">
              <g id="Grupo_1105723" data-name="Grupo 1105723" clip-path="url(#clip-path-20)">
                <g id="Grupo_1105716" data-name="Grupo 1105716" transform="translate(20.423 55.057)" opacity="0.61">
                  <g id="Grupo_1105715" data-name="Grupo 1105715">
                    <g id="Grupo_1105714" data-name="Grupo 1105714" clip-path="url(#clip-path-22)">
                      <path id="Trazado_874388" data-name="Trazado 874388" d="M346.93,156.37H321.523a.971.971,0,1,1,0-1.941H346.93a.971.971,0,0,1,0,1.941" transform="translate(-29.819 -59.584)" fill="#fff"/>
                      <path id="Trazado_874389" data-name="Trazado 874389" d="M402.532,156.37h-38.9a.971.971,0,0,1,0-1.941h38.9a.971.971,0,1,1,0,1.941" transform="translate(-31.054 -59.584)" fill="#fff"/>
                      <path id="Trazado_874390" data-name="Trazado 874390" d="M385.517,165.7H321.523a.971.971,0,1,1,0-1.941h63.994a.971.971,0,0,1,0,1.941" transform="translate(-29.819 -59.858)" fill="#fff"/>
                      <path id="Trazado_874391" data-name="Trazado 874391" d="M363.924,175.025h-42.4a.971.971,0,1,1,0-1.941h42.4a.971.971,0,1,1,0,1.941" transform="translate(-29.819 -60.131)" fill="#fff"/>
                      <path id="Trazado_874392" data-name="Trazado 874392" d="M87.674,100.623H22.01a.971.971,0,0,1,0-1.941H87.674a.971.971,0,1,1,0,1.941" transform="translate(-21.039 -57.95)" fill="#fff"/>
                      <path id="Trazado_874393" data-name="Trazado 874393" d="M87.674,79.722H22.01a.971.971,0,0,1,0-1.941H87.674a.971.971,0,0,1,0,1.941" transform="translate(-21.039 -57.337)" fill="#fff"/>
                      <path id="Trazado_874394" data-name="Trazado 874394" d="M88.588,90.172h-35.4a.971.971,0,1,1,0-1.941h35.4a.971.971,0,1,1,0,1.941" transform="translate(-21.953 -57.644)" fill="#fff"/>
                      <path id="Trazado_874395" data-name="Trazado 874395" d="M88.588,68.637h-35.4a.971.971,0,0,1,0-1.941h35.4a.971.971,0,0,1,0,1.941" transform="translate(-21.953 -57.012)" fill="#fff"/>
                      <path id="Trazado_874396" data-name="Trazado 874396" d="M88.936,58.661H65.061a.971.971,0,1,1,0-1.941H88.936a.971.971,0,1,1,0,1.941" transform="translate(-22.301 -56.72)" fill="#fff"/>
                    </g>
                  </g>
                </g>
                <path id="Trazado_874397" data-name="Trazado 874397" d="M229.1,12.4V4.288C229.1,1.919,231.62,0,234.73,0H356.6c3.109,0,5.63,1.919,5.63,4.288V84.52c0,2.368-2.521,4.288-5.63,4.288H234.73c-3.11,0-5.631-1.92-5.631-4.288V71.642" transform="translate(-6.716)" fill="#fff"/>
                <path id="Trazado_874398" data-name="Trazado 874398" d="M362.212,16.59V4.369c0-2.4-2.533-4.343-5.657-4.343H234.145c-3.125,0-5.656,1.944-5.656,4.343V17.148Z" transform="translate(-6.698 -0.001)" fill="#3887fe"/>
                <path id="Trazado_874399" data-name="Trazado 874399" d="M238.353,11.828a2.587,2.587,0,1,1,2.588-2.588,2.59,2.59,0,0,1-2.588,2.588m0-4.2A1.617,1.617,0,1,0,239.97,9.24a1.618,1.618,0,0,0-1.617-1.616" transform="translate(-6.911 -0.195)" fill="#fff"/>
                <path id="Trazado_874400" data-name="Trazado 874400" d="M246.479,11.828a2.587,2.587,0,1,1,2.587-2.588,2.591,2.591,0,0,1-2.587,2.588m0-4.2A1.617,1.617,0,1,0,248.1,9.24a1.618,1.618,0,0,0-1.616-1.616" transform="translate(-7.149 -0.195)" fill="#fff"/>
                <path id="Trazado_874401" data-name="Trazado 874401" d="M254.451,11.828a2.587,2.587,0,1,1,2.588-2.588,2.59,2.59,0,0,1-2.588,2.588m0-4.2a1.617,1.617,0,1,0,1.617,1.616,1.618,1.618,0,0,0-1.617-1.616" transform="translate(-7.383 -0.195)" fill="#fff"/>
                <line id="Línea_563" data-name="Línea 563" x2="23.071" transform="translate(289.621 39.202)" fill="#f7a9b4"/>
                <path id="Trazado_874402" data-name="Trazado 874402" d="M321.424,40.857H298.352a.485.485,0,1,1,0-.971h23.071a.485.485,0,1,1,0,.971" transform="translate(-8.732 -1.169)" fill="#243762"/>
                <line id="Línea_564" data-name="Línea 564" x2="22.781" transform="translate(289.621 60.159)" fill="#f7a9b4"/>
                <path id="Trazado_874403" data-name="Trazado 874403" d="M321.133,62.447H298.352a.485.485,0,1,1,0-.971h22.781a.485.485,0,1,1,0,.971" transform="translate(-8.732 -1.802)" fill="#243762"/>
                <line id="Línea_565" data-name="Línea 565" x2="17.01" transform="translate(289.621 49.846)" fill="#f7a9b4"/>
                <path id="Trazado_874404" data-name="Trazado 874404" d="M315.363,51.822H298.353a.485.485,0,1,1,0-.971h17.009a.485.485,0,0,1,0,.971" transform="translate(-8.732 -1.491)" fill="#243762"/>
                <line id="Línea_566" data-name="Línea 566" x2="17.01" transform="translate(318.174 49.846)" fill="#f7a9b4"/>
                <path id="Trazado_874405" data-name="Trazado 874405" d="M344.778,51.822h-17.01a.485.485,0,1,1,0-.971h17.01a.485.485,0,1,1,0,.971" transform="translate(-9.594 -1.491)" fill="#243762"/>
                <path id="Trazado_874406" data-name="Trazado 874406" d="M270.118,27.947a25.74,25.74,0,1,1-29.753,30.2l30.2-2.378-.484-27.339s-.075-.507.037-.487" transform="translate(-7.046 -0.819)" fill="#53d0f7"/>
                <path id="Trazado_874407" data-name="Trazado 874407" d="M247.923,35.634a22.325,22.325,0,0,1,19.157-6.3l.512.512.427,23.384-26.244,2.434a22.337,22.337,0,0,1,6.148-20.032" transform="translate(-7.076 -0.853)" fill="#ffa000"/>
                <path id="Trazado_874408" data-name="Trazado 874408" d="M380.164,97.854H324.756a3.236,3.236,0,0,1-3.235-3.235V75.806a3.236,3.236,0,0,1,3.235-3.235h55.408a3.236,3.236,0,0,1,3.235,3.235V94.619a3.235,3.235,0,0,1-3.235,3.235" transform="translate(-9.425 -2.127)" fill="#ffa000"/>
                <path id="Trazado_874409" data-name="Trazado 874409" d="M337,93.111h62.886a3.465,3.465,0,0,1,3.455,3.455V115.83a3.465,3.465,0,0,1-3.455,3.454H337a3.465,3.465,0,0,1-3.455-3.454V96.566A3.465,3.465,0,0,1,337,93.111" transform="translate(-9.777 -2.729)" fill="#fff"/>
                <path id="Trazado_874410" data-name="Trazado 874410" d="M337,93.111h62.886a3.465,3.465,0,0,1,3.455,3.455V115.83a3.465,3.465,0,0,1-3.455,3.454H337a3.465,3.465,0,0,1-3.455-3.454V96.566A3.465,3.465,0,0,1,337,93.111" transform="translate(-9.777 -2.729)" fill="#3887fe"/>
                <path id="Trazado_874411" data-name="Trazado 874411" d="M382.525,109.668a3.135,3.135,0,1,1,3.134-3.135,3.14,3.14,0,0,1-3.134,3.135m0-5.3a2.165,2.165,0,1,0,2.164,2.165,2.167,2.167,0,0,0-2.164-2.165" transform="translate(-11.121 -3.031)" fill="#fff"/>
                <path id="Trazado_874412" data-name="Trazado 874412" d="M369.638,109.668a3.135,3.135,0,1,1,3.135-3.135,3.139,3.139,0,0,1-3.135,3.135m0-5.3a2.165,2.165,0,1,0,2.165,2.165,2.167,2.167,0,0,0-2.165-2.165" transform="translate(-10.743 -3.031)" fill="#fff"/>
                <path id="Trazado_874413" data-name="Trazado 874413" d="M357.624,109.668a3.135,3.135,0,1,1,3.135-3.135,3.139,3.139,0,0,1-3.135,3.135m0-5.3a2.165,2.165,0,1,0,2.165,2.165,2.167,2.167,0,0,0-2.165-2.165" transform="translate(-10.391 -3.031)" fill="#fff"/>
                <path id="Trazado_874414" data-name="Trazado 874414" d="M17.348,74.871H54.162A3.235,3.235,0,0,0,57.4,71.636V60.42a3.236,3.236,0,0,0-3.235-3.235H17.348a3.236,3.236,0,0,0-3.235,3.235V71.636a3.235,3.235,0,0,0,3.235,3.235" transform="translate(-0.414 -1.676)" fill="#ffa000"/>
                <path id="Trazado_874415" data-name="Trazado 874415" d="M46.406,71.553H2.417A2.423,2.423,0,0,0,0,73.969V87.445a2.423,2.423,0,0,0,2.417,2.416H46.406a2.423,2.423,0,0,0,2.416-2.416V73.969a2.423,2.423,0,0,0-2.416-2.416" transform="translate(0 -2.097)" fill="#fff"/>
                <path id="Trazado_874416" data-name="Trazado 874416" d="M46.406,71.553H2.417A2.423,2.423,0,0,0,0,73.969V87.445a2.423,2.423,0,0,0,2.417,2.416H46.406a2.423,2.423,0,0,0,2.416-2.416V73.969a2.423,2.423,0,0,0-2.416-2.416" transform="translate(0 -2.097)" fill="#3887fe"/>
                <path id="Trazado_874417" data-name="Trazado 874417" d="M15.9,83.277a2.339,2.339,0,1,1,2.338-2.339A2.342,2.342,0,0,1,15.9,83.277m0-3.708a1.369,1.369,0,1,0,1.368,1.369A1.371,1.371,0,0,0,15.9,79.569" transform="translate(-0.397 -2.304)" fill="#fff"/>
                <path id="Trazado_874418" data-name="Trazado 874418" d="M24.91,83.277a2.339,2.339,0,1,1,2.338-2.339,2.342,2.342,0,0,1-2.338,2.339m0-3.708a1.369,1.369,0,1,0,1.368,1.369,1.371,1.371,0,0,0-1.368-1.369" transform="translate(-0.662 -2.304)" fill="#fff"/>
                <path id="Trazado_874419" data-name="Trazado 874419" d="M33.313,83.277a2.339,2.339,0,1,1,2.338-2.339,2.342,2.342,0,0,1-2.338,2.339m0-3.708a1.369,1.369,0,1,0,1.368,1.369,1.371,1.371,0,0,0-1.368-1.369" transform="translate(-0.908 -2.304)" fill="#fff"/>
                <path id="Trazado_874420" data-name="Trazado 874420" d="M205.767,22.111H158.719c-2.5,0-4.527,2.79-4.527,6.231V62.479c0,1.037.918,1.546,1.44.8l4.49-6.414a1.9,1.9,0,0,1,1.527-.894l44.117-.071c2.161,0,3.912-2.41,3.912-5.382V27.494c0-2.973-1.751-5.383-3.912-5.383" transform="translate(-4.52 -0.648)" fill="#ffa000"/>
                <path id="Trazado_874421" data-name="Trazado 874421" d="M177.671,35.571h-11.3a.971.971,0,1,1,0-1.941h11.3a.971.971,0,1,1,0,1.941" transform="translate(-4.848 -0.986)" fill="#fff"/>
                <path id="Trazado_874422" data-name="Trazado 874422" d="M202.407,35.571H185.1a.971.971,0,1,1,0-1.941h17.3a.971.971,0,0,1,0,1.941" transform="translate(-5.398 -0.986)" fill="#fff"/>
                <path id="Trazado_874423" data-name="Trazado 874423" d="M194.838,41.281H166.37a.971.971,0,1,1,0-1.941h28.468a.971.971,0,0,1,0,1.941" transform="translate(-4.848 -1.153)" fill="#fff"/>
                <path id="Trazado_874424" data-name="Trazado 874424" d="M185.232,46.992H166.369a.971.971,0,1,1,0-1.941h18.863a.971.971,0,1,1,0,1.941" transform="translate(-4.848 -1.321)" fill="#fff"/>
                <path id="Trazado_874425" data-name="Trazado 874425" d="M276.367,180.079c.071-.052.141-.1.211-.152-.07.05-.14.1-.211.152" transform="translate(-8.101 -5.274)" fill="#a55356"/>
                <path id="Trazado_874426" data-name="Trazado 874426" d="M275.545,180.7l.129-.1-.129.1" transform="translate(-8.077 -5.294)" fill="#a55356"/>
                <path id="Trazado_874427" data-name="Trazado 874427" d="M270.505,185.256l.193-.2-.193.2" transform="translate(-7.929 -5.425)" fill="#a55356"/>
                <path id="Trazado_874428" data-name="Trazado 874428" d="M272.535,183.266l.261-.242c-.087.08-.174.16-.261.242" transform="translate(-7.989 -5.365)" fill="#a55356"/>
                <path id="Trazado_874429" data-name="Trazado 874429" d="M271.529,184.225l.267-.259-.267.259" transform="translate(-7.959 -5.393)" fill="#a55356"/>
                <path id="Trazado_874430" data-name="Trazado 874430" d="M277.924,179.01l.184-.118-.184.118" transform="translate(-8.147 -5.244)" fill="#a55356"/>
                <path id="Trazado_874431" data-name="Trazado 874431" d="M273.544,182.355c.065-.057.132-.117.2-.174-.065.056-.132.116-.2.174" transform="translate(-8.019 -5.34)" fill="#a55356"/>
                <path id="Trazado_874432" data-name="Trazado 874432" d="M277.156,179.52l.218-.149-.218.149" transform="translate(-8.124 -5.258)" fill="#a55356"/>
                <path id="Trazado_874433" data-name="Trazado 874433" d="M281.034,177.316l.228-.1-.228.1" transform="translate(-8.238 -5.195)" fill="#a55356"/>
                <path id="Trazado_874434" data-name="Trazado 874434" d="M278.74,178.507l.053-.033-.053.033" transform="translate(-8.171 -5.232)" fill="#a55356"/>
                <path id="Trazado_874435" data-name="Trazado 874435" d="M282.3,176.825c-.239.077-.525.18-.856.313.329-.133.618-.237.856-.313" transform="translate(-8.25 -5.183)" fill="#a55356"/>
                <path id="Trazado_874436" data-name="Trazado 874436" d="M280.554,177.535c.077-.036.152-.072.226-.1-.074.033-.149.069-.226.1" transform="translate(-8.224 -5.201)" fill="#a55356"/>
                <path id="Trazado_874437" data-name="Trazado 874437" d="M279.435,178.107l.172-.092-.172.092" transform="translate(-8.191 -5.218)" fill="#a55356"/>
                <path id="Trazado_874438" data-name="Trazado 874438" d="M280.02,177.8l.216-.108-.216.108" transform="translate(-8.208 -5.209)" fill="#a55356"/>
                <path id="Trazado_874439" data-name="Trazado 874439" d="M259.029,200.3c.153-.245.307-.485.459-.725-.152.24-.306.48-.459.725" transform="translate(-7.593 -5.85)" fill="#a55356"/>
                <path id="Trazado_874440" data-name="Trazado 874440" d="M261.675,196.26c.122-.18.246-.363.368-.539-.122.176-.246.359-.368.539" transform="translate(-7.671 -5.737)" fill="#a55356"/>
                <path id="Trazado_874441" data-name="Trazado 874441" d="M264.5,192.323c.1-.135.2-.262.3-.4-.1.133-.2.26-.3.4" transform="translate(-7.753 -5.626)" fill="#a55356"/>
                <path id="Trazado_874442" data-name="Trazado 874442" d="M257.715,202.434c.136-.227.272-.445.407-.667-.135.222-.271.44-.407.667" transform="translate(-7.555 -5.915)" fill="#a55356"/>
                <path id="Trazado_874443" data-name="Trazado 874443" d="M265.689,190.784c.121-.153.241-.3.36-.451-.119.149-.239.3-.36.451" transform="translate(-7.788 -5.579)" fill="#a55356"/>
                <path id="Trazado_874444" data-name="Trazado 874444" d="M260.339,198.254c.149-.228.3-.455.446-.679-.148.223-.3.45-.446.679" transform="translate(-7.631 -5.792)" fill="#a55356"/>
                <path id="Trazado_874445" data-name="Trazado 874445" d="M268.063,187.921c.089-.1.18-.209.268-.309-.088.1-.179.207-.268.309" transform="translate(-7.858 -5.5)" fill="#a55356"/>
                <path id="Trazado_874446" data-name="Trazado 874446" d="M266.865,189.33c.116-.141.233-.282.348-.419-.115.138-.232.279-.348.419" transform="translate(-7.823 -5.538)" fill="#a55356"/>
                <path id="Trazado_874447" data-name="Trazado 874447" d="M351.417,184.543a21.384,21.384,0,0,0-1.506-2.531l-.019-.029A18.6,18.6,0,0,0,334.8,173.69l-4.577-.037-10.554-.085c-7.014-.056-14.028-.191-21.043-.2h-.424a42.978,42.978,0,0,0-8.673.687,36.7,36.7,0,0,0-8.115,2.633,39.513,39.513,0,0,0-11.01,7.927,84.343,84.343,0,0,0-11.671,15.3c-.8,1.278-1.595,2.563-2.351,3.871a105.747,105.747,0,0,0,10.341,9.4l-4.007,10.958a20.765,20.765,0,0,0,1.848,18.061l1.066,1.687,3.462,5.479,2.694,41.455h81.26l.468-57.239,21.712-7.645.664-.234Z" transform="translate(-7.516 -5.082)" fill="#ffa000"/>
                <path id="Trazado_874448" data-name="Trazado 874448" d="M312.025,196.679c-11.462,0-20.787-8.913-20.787-19.868v-2.242a.508.508,0,0,1,1.015,0v2.242c0,10.419,8.87,18.9,19.772,18.9s19.771-8.478,19.771-18.9v-2.242a.508.508,0,0,1,1.015,0v2.242c0,10.955-9.325,19.868-20.786,19.868" transform="translate(-8.537 -5.103)" fill="#833742"/>
                <path id="Trazado_874449" data-name="Trazado 874449" d="M298.255,185.866a.512.512,0,0,1-.42-.214,15.891,15.891,0,0,1-2.957-9.233v-1.851a.508.508,0,0,1,1.015,0v1.851a14.963,14.963,0,0,0,2.782,8.69.471.471,0,0,1-.136.674.516.516,0,0,1-.284.083" transform="translate(-8.644 -5.103)" fill="#833742"/>
                <path id="Trazado_874450" data-name="Trazado 874450" d="M312.323,193.343a17.563,17.563,0,0,1-10.75-3.592.47.47,0,0,1-.081-.681.524.524,0,0,1,.713-.077A16.836,16.836,0,0,0,322.43,189a.522.522,0,0,1,.712.077.47.47,0,0,1-.08.681,17.564,17.564,0,0,1-10.741,3.585" transform="translate(-8.835 -5.537)" fill="#833742"/>
                <path id="Trazado_874451" data-name="Trazado 874451" d="M327.649,184.8a.52.52,0,0,1-.251-.063.474.474,0,0,1-.191-.662,14.992,14.992,0,0,0,2.108-7.653v-1.851a.508.508,0,0,1,1.015,0v1.851a15.923,15.923,0,0,1-2.24,8.132.511.511,0,0,1-.441.246" transform="translate(-9.59 -5.103)" fill="#833742"/>
                <path id="Trazado_874452" data-name="Trazado 874452" d="M352.316,128.19a15.248,15.248,0,0,0-8.783-14.013l.007-.519a29.561,29.561,0,0,0-27.665-29.9,19.183,19.183,0,0,0-33.184,6.022c-.447-.043-.9-.069-1.358-.069a14.1,14.1,0,0,0-7.764,25.86,14.341,14.341,0,0,0,5.241,26.794,12.558,12.558,0,0,0,16.41,18.989,29.383,29.383,0,0,0,12.572,3.028l26.075.356a12.557,12.557,0,0,0,9.265-21.223l.021-1.553a15.247,15.247,0,0,0,9.162-13.767" transform="translate(-7.802 -2.245)" fill="#142647"/>
                <path id="Trazado_874453" data-name="Trazado 874453" d="M324.975,132.513a12.147,12.147,0,0,1-8.278-7.738,14.268,14.268,0,0,1-6.729-10.783,19.076,19.076,0,0,1-17.431-.052,14.074,14.074,0,0,1-9.349,4.978l-3.314,15.939a22.362,22.362,0,0,0,2.495,15.713h0a22.631,22.631,0,0,0,16.163,13.145c.213.045.426.078.639.116v10.142a12.507,12.507,0,0,0,25.014,0V152.562a12.371,12.371,0,0,0-.2-2.125,22.759,22.759,0,0,0,1.145-3.43l.563.117a8.759,8.759,0,0,0,7.466-15.246,12.112,12.112,0,0,1-8.188.635" transform="translate(-8.19 -3.34)" fill="#a55356"/>
                <g id="Grupo_1105719" data-name="Grupo 1105719" transform="translate(274.179 142.745)" opacity="0.32">
                  <g id="Grupo_1105718" data-name="Grupo 1105718">
                    <g id="Grupo_1105717" data-name="Grupo 1105717" clip-path="url(#clip-path-23)">
                      <path id="Trazado_874454" data-name="Trazado 874454" d="M323.193,147.674a22.451,22.451,0,0,1-40.734,3.865,22.629,22.629,0,0,0,16.163,13.145c.213.045.426.079.639.117v7.112l18.9-11.935-.721.18a22.561,22.561,0,0,0,7.644-11.627q.194-.7.344-1.423s-1.936-.309-2.235.566" transform="translate(-282.459 -147.056)" fill="#833742"/>
                    </g>
                  </g>
                </g>
                <path id="Trazado_874455" data-name="Trazado 874455" d="M331.381,142.157a.491.491,0,0,1-.306-.107l-3.048-2.466a.485.485,0,0,1-.021-.737l3.891-3.527a.485.485,0,0,1,.652.718l-3.47,3.148,2.607,2.108a.484.484,0,0,1-.3.862" transform="translate(-9.61 -3.963)" fill="#833742"/>
                <path id="Trazado_874456" data-name="Trazado 874456" d="M296.926,153.811a.49.49,0,0,1-.342-.139,2.9,2.9,0,0,0-3.215-.563.485.485,0,1,1-.43-.87,3.862,3.862,0,0,1,4.33.744.485.485,0,0,1-.344.828" transform="translate(-8.579 -4.452)" fill="#833742"/>
                <path id="Trazado_874457" data-name="Trazado 874457" d="M293.075,147.424l1.936.258a7.239,7.239,0,0,0,8.129-6.223l-11.5-1.528L291,144.716a2.412,2.412,0,0,0,2.074,2.708" transform="translate(-8.53 -4.102)" fill="#fff"/>
                <path id="Trazado_874458" data-name="Trazado 874458" d="M301.468,130.946h0a1.02,1.02,0,0,1-.791-1.206l.208-1a1.02,1.02,0,1,1,2,.415l-.208,1a1.02,1.02,0,0,1-1.206.791" transform="translate(-8.813 -3.75)" fill="#142647"/>
                <path id="Trazado_874459" data-name="Trazado 874459" d="M286.471,129.407h0a1.02,1.02,0,0,1-.776-1.216l.22-1a1.02,1.02,0,0,1,1.992.442l-.22.995a1.02,1.02,0,0,1-1.216.776" transform="translate(-8.374 -3.705)" fill="#142647"/>
                <path id="Trazado_874460" data-name="Trazado 874460" d="M292.066,138.766a.982.982,0,0,1-.33-.058l-2.458-.889a1.973,1.973,0,0,1-1.185-2.52l3.755-10.442a.971.971,0,1,1,1.827.657l-3.754,10.442,2.475.926a.971.971,0,0,1-.33,1.884" transform="translate(-8.442 -3.641)" fill="#833742"/>
                <path id="Trazado_874461" data-name="Trazado 874461" d="M308.595,122.9a3.754,3.754,0,0,1-1.507-.412c-.513-.215-1.033-.42-1.492-.581s-.992-.33-1.527-.483a3.754,3.754,0,0,1-1.43-.625c-.335-.306-.327-.839.347-1.261a4.31,4.31,0,0,1,3.526-.1,4.184,4.184,0,0,1,2.644,2.278c.24.745-.1,1.16-.56,1.186" transform="translate(-8.865 -3.492)" fill="#142647"/>
                <path id="Trazado_874462" data-name="Trazado 874462" d="M285.174,119.187a3.76,3.76,0,0,0,1.56-.1c.546-.108,1.1-.2,1.577-.269s1.04-.122,1.594-.165a3.741,3.741,0,0,0,1.526-.324c.39-.231.49-.756-.084-1.306a4.313,4.313,0,0,0-3.432-.811,4.185,4.185,0,0,0-3.049,1.7c-.386.681-.134,1.158.309,1.275" transform="translate(-8.345 -3.405)" fill="#142647"/>
                <path id="Trazado_874463" data-name="Trazado 874463" d="M261.823,223.194l4.007-10.957a105.833,105.833,0,0,1-10.341-9.4l-2.356,5.059-.484-4.855L250.821,179.2s2.116.173,4.007-8.575c1.921-8.883,1.93-14.5-1.247-14.7-1.554-.1-2.573,1.929-3.137,3.551a2.97,2.97,0,0,1-1.308,1.583l-.226-16.66a2.344,2.344,0,1,0-4.687.064l.2,14.522-.213-15.673a2.344,2.344,0,0,0-4.688.064l.084,6.214-.057-4.255a2.344,2.344,0,0,0-4.688.063l.023,1.747a2.082,2.082,0,1,0-4.163.056l.2,14.607c-3.288,11.214,1.487,17.994,1.487,17.994l-2.238,17.442-.071-.008-.274,2.687q-.574,5.646-1.149,11.292-1.117,10.968-2.235,21.936c-.9,8.893-1.748,16.983,3.227,24.889,4.081,6.485,11.433,11.213,18.981,7.339,4.186-2.148,15.958-21.953,15.958-21.953l.136-.488-1.066-1.687a20.765,20.765,0,0,1-1.848-18.061" transform="translate(-6.617 -4.133)" fill="#a55356"/>
                <path id="Trazado_874464" data-name="Trazado 874464" d="M244.9,154.739a.485.485,0,0,1-.485-.479l-.133-9.807a.486.486,0,0,1,.48-.492h.006a.485.485,0,0,1,.485.479l.133,9.807a.485.485,0,0,1-.479.492Z" transform="translate(-7.161 -4.22)" fill="#833742"/>
                <path id="Trazado_874465" data-name="Trazado 874465" d="M240.075,155.4a.485.485,0,0,1-.485-.479l-.134-9.807a.486.486,0,0,1,.48-.492h.006a.485.485,0,0,1,.485.479l.134,9.807a.485.485,0,0,1-.479.492Z" transform="translate(-7.019 -4.239)" fill="#833742"/>
                <path id="Trazado_874466" data-name="Trazado 874466" d="M235.267,157.027a.485.485,0,0,1-.485-.479l-.134-9.807a.487.487,0,0,1,.48-.492.46.46,0,0,1,.49.479l.134,9.807a.486.486,0,0,1-.48.492Z" transform="translate(-6.878 -4.287)" fill="#833742"/>
                <path id="Trazado_874467" data-name="Trazado 874467" d="M244.74,170.349a.485.485,0,0,1-.481-.432,7.84,7.84,0,0,1,5.662-8.829.486.486,0,0,1,.226.944c-.23.055-5.623,1.437-4.923,7.778a.485.485,0,0,1-.429.536l-.054,0" transform="translate(-7.158 -4.722)" fill="#833742"/>
                <path id="Trazado_874468" data-name="Trazado 874468" d="M266.661,215.324a.485.485,0,0,1-.458-.646l6.124-17.493a.485.485,0,1,1,.915.321L267.12,215a.487.487,0,0,1-.458.325" transform="translate(-7.803 -5.771)" fill="#833742"/>
                <path id="Trazado_874469" data-name="Trazado 874469" d="M256.3,228.436a.485.485,0,0,1-.48-.427l-2.231-18.467a.485.485,0,1,1,.963-.116l2.231,18.466a.485.485,0,0,1-.423.54.4.4,0,0,1-.059,0" transform="translate(-7.434 -6.126)" fill="#833742"/>
                <path id="Trazado_874470" data-name="Trazado 874470" d="M300.616,239.122l15.769-1.295a.875.875,0,0,0,.722-.878l2.037-30.368a.958.958,0,0,0-.885-1.113l-25.083,2.059a.961.961,0,0,0-.688,1.255l7.275,29.6a.871.871,0,0,0,.852.737" transform="translate(-8.573 -6.023)" fill="#fff"/>
                <path id="Trazado_874471" data-name="Trazado 874471" d="M300.616,239.122l15.769-1.295a.875.875,0,0,0,.722-.878l2.037-30.368a.958.958,0,0,0-.885-1.113l-25.083,2.059a.961.961,0,0,0-.688,1.255l7.275,29.6a.871.871,0,0,0,.852.737" transform="translate(-8.573 -6.023)" fill="#fff"/>
                <path id="Trazado_874472" data-name="Trazado 874472" d="M298.194,230.844l19.043-1.564a1.761,1.761,0,0,0,1.568-1.635l1.171-12.312a1.815,1.815,0,0,0-1.871-2.048l-23.5,1.93a1.817,1.817,0,0,0-1.507,2.345l3.291,11.946a1.761,1.761,0,0,0,1.808,1.338" transform="translate(-8.59 -6.252)" fill="#2f7ded"/>
                <path id="Trazado_874473" data-name="Trazado 874473" d="M291.65,207.941l28.091-2.306a1.034,1.034,0,0,0,.78-1.5l-.606-1.273a.974.974,0,0,0-.951-.574L291.986,204.5a.967.967,0,0,0-.819.645l-.507,1.365a1.039,1.039,0,0,0,.99,1.428" transform="translate(-8.518 -5.93)" fill="#1a71d8"/>
                <path id="Trazado_874474" data-name="Trazado 874474" d="M294.515,200.788l21.39-1.756a1.7,1.7,0,0,1,1.78,1.615l.134,1.646-24.662,2.025-.135-1.646a1.7,1.7,0,0,1,1.493-1.884" transform="translate(-8.589 -5.834)" fill="#2f7ded"/>
                <path id="Trazado_874475" data-name="Trazado 874475" d="M389.457,254.888l-13.188-27.831-17.837,6.28-31-19.824V213.5l-2.154-1.311c-2.6-1.579-6.432.059-10.506.451l-16.457,3.451-3.226-.051a2.089,2.089,0,0,0-2.116,2.051l0,.165a2.084,2.084,0,0,0,1.492,2.021c-.068.026-.136.054-.2.083l-.338-.006a2.089,2.089,0,0,0-2.116,2.051l0,.166a2.088,2.088,0,0,0,2.05,2.115h.043a2.064,2.064,0,0,0-.548,1.307l-.007.165a2.09,2.09,0,0,0,1.995,2.169l1.053.044c.047.029.082.057.13.085l.062.1a1.85,1.85,0,0,0-1.056,1.487l-.014.148a1.854,1.854,0,0,0,1.664,2.019s20.164,4.321,28.012,4.352l35.794,37.977a16.862,16.862,0,0,0,20.712,2.641,11.816,11.816,0,0,0,1.388-.546c7.526-3.566,10.382-13.3,6.381-21.745" transform="translate(-8.554 -6.2)" fill="#a55356"/>
                <path id="Trazado_874476" data-name="Trazado 874476" d="M303.8,221.046h-.008L294.4,220.9a.486.486,0,0,1-.478-.493.461.461,0,0,1,.493-.478l9.388.149a.485.485,0,0,1-.008.971" transform="translate(-8.616 -6.447)" fill="#833742"/>
                <path id="Trazado_874477" data-name="Trazado 874477" d="M304.3,225.517h-.008l-9.388-.148a.486.486,0,0,1-.478-.493.506.506,0,0,1,.493-.478l9.388.148a.485.485,0,0,1-.008.971" transform="translate(-8.631 -6.578)" fill="#833742"/>
                <path id="Trazado_874478" data-name="Trazado 874478" d="M306.2,229.875h-.022l-9.379-.431a.485.485,0,0,1-.462-.508.457.457,0,0,1,.507-.461l9.379.431a.485.485,0,0,1-.022.97" transform="translate(-8.687 -6.697)" fill="#833742"/>
                <path id="Trazado_874479" data-name="Trazado 874479" d="M378.344,246.678a.478.478,0,0,1-.273-.084l-17.914-12.21a.485.485,0,0,1,.546-.8l17.914,12.21a.485.485,0,0,1-.273.886" transform="translate(-10.551 -6.845)" fill="#833742"/>
                <path id="Trazado_874480" data-name="Trazado 874480" d="M245.452,288.056H288.4a.978.978,0,0,1,.814,1.521l-3.391,5.086H247.275Z" transform="translate(-7.195 -8.444)" fill="#2f4770"/>
                <path id="Trazado_874481" data-name="Trazado 874481" d="M234.87,232.935c-.378-2.209-1.621-3.74-3.039-3.74H153.484c-2.13,0-3.656,3.321-3.04,6.615l10.69,57.26h84Z" transform="translate(-4.406 -6.719)" fill="#233863"/>
                <path id="Trazado_874482" data-name="Trazado 874482" d="M198.589,259.526a5.217,5.217,0,1,1-5.217,5.217,5.223,5.223,0,0,1,5.217-5.217m0-1.941a7.158,7.158,0,1,0,7.159,7.159,7.18,7.18,0,0,0-7.159-7.159" transform="translate(-5.611 -7.551)" fill="#fff"/>
                <path id="Trazado_874483" data-name="Trazado 874483" d="M201.8,67.707l-.116.172a3.294,3.294,0,0,0-.159-1.45,2.437,2.437,0,0,0-1.43-1.5,2.92,2.92,0,0,0-3.548,2.027l-6.666,18.17a14.454,14.454,0,0,0-.224-3.048,12.79,12.79,0,0,0-.7-3.427,4.1,4.1,0,0,0-4.54-2.859,1.384,1.384,0,0,0-.94.517,1.645,1.645,0,0,0-.164.959c.108,3.16.579,6.3.616,9.459a12.241,12.241,0,0,0-2.388,6.706,11.108,11.108,0,0,0-.339,3.837l.831,9.46L172,143.1s-.738.08-.738.083L144.378,155.34l-.463,23.24a51.407,51.407,0,0,0,7.362,3.462c17.555,5.646,28.812,4.289,31.394,3.59,10.963-2.968,17.813-24.033,18.142-33.426q.277-7.871.551-15.743l.964-27.495.07-1.995.248-9.165.48-1.172s11.185-27.8-1.324-28.93" transform="translate(-4.219 -1.899)" fill="#fec29e"/>
                <path id="Trazado_874484" data-name="Trazado 874484" d="M167.07,165.134a.464.464,0,0,1-.119-.016.483.483,0,0,1-.35-.589l4.851-19.107a.478.478,0,0,1,.589-.35.483.483,0,0,1,.35.589l-4.851,19.107a.484.484,0,0,1-.47.366" transform="translate(-4.883 -4.252)" fill="#fb8e77"/>
                <path id="Trazado_874485" data-name="Trazado 874485" d="M203.7,67.814a49.7,49.7,0,0,1-1.2,7.116A25.6,25.6,0,0,1,201.4,78.4a11.7,11.7,0,0,1-1.827,3.244.485.485,0,1,1-.741-.627l.008-.01.007-.008a10.874,10.874,0,0,0,1.747-2.933,24.913,24.913,0,0,0,1.149-3.333,49.135,49.135,0,0,0,1.374-6.974v-.009a.289.289,0,0,1,.575.065" transform="translate(-5.825 -1.979)" fill="#fb8e77"/>
                <path id="Trazado_874486" data-name="Trazado 874486" d="M206.473,68.533a10.091,10.091,0,0,1,.282,3.746,18.731,18.731,0,0,1-.69,3.636,29.282,29.282,0,0,1-1.238,3.475l-.774,1.671-.852,1.632a.486.486,0,0,1-.861-.45l0-.009.012-.021.873-1.571.795-1.609a28.3,28.3,0,0,0,1.286-3.339,18.127,18.127,0,0,0,.753-3.48,9.668,9.668,0,0,0-.156-3.47l-.013-.044a.3.3,0,0,1,.578-.166" transform="translate(-5.93 -2.003)" fill="#fb8e77"/>
                <path id="Trazado_874487" data-name="Trazado 874487" d="M208.893,71.859a28.588,28.588,0,0,1,.067,3.063,23.859,23.859,0,0,1-.271,3.059,14.789,14.789,0,0,1-.753,3.013,8.1,8.1,0,0,1-1.638,2.747.485.485,0,1,1-.7-.668l.01-.011.011-.011a7.231,7.231,0,0,0,1.511-2.375,14,14,0,0,0,.806-2.826,26.926,26.926,0,0,0,.4-5.948v-.011a.283.283,0,0,1,.565-.033" transform="translate(-6.023 -2.099)" fill="#fb8e77"/>
                <path id="Trazado_874488" data-name="Trazado 874488" d="M191.532,95.2a.485.485,0,0,1-.373-.8c2.873-3.448,0-7.767-.029-7.81a.486.486,0,0,1,.8-.546c.033.05,3.307,4.974-.029,8.977a.483.483,0,0,1-.373.175" transform="translate(-5.6 -2.516)" fill="#fb8e77"/>
                <path id="Trazado_874489" data-name="Trazado 874489" d="M138.5,293.009H93.924a1.255,1.255,0,0,1-1.241-1.445l1.123-7.324a1.255,1.255,0,0,0-2.4-.672l-3.6,8.667a1.255,1.255,0,0,1-1.159.774h-50.7a1.255,1.255,0,0,1-1.255-1.255V249.162a1.255,1.255,0,0,1,1.255-1.255H138.5a1.255,1.255,0,0,1,1.255,1.255v42.592a1.255,1.255,0,0,1-1.255,1.255" transform="translate(-1.017 -7.267)" fill="#243762"/>
                <path id="Trazado_874490" data-name="Trazado 874490" d="M167.516,144.267v-1.216a41.424,41.424,0,0,0-41.424-41.424h-20.8c-.437-.016-.872-.033-1.312-.033H57.908A23.392,23.392,0,0,0,36.033,116.7h0l-.07.189-.035.1L16.331,170.393l.851.1,17.178,2.1-.2,71.018L139.1,245.453l1.075-65.794.463-23.241Z" transform="translate(-0.479 -2.978)" fill="#2f7ded"/>
                <path id="Trazado_874491" data-name="Trazado 874491" d="M143.9,181.346a.486.486,0,0,1-.485-.485V143.093a.485.485,0,1,1,.971,0v37.767a.486.486,0,0,1-.485.485" transform="translate(-4.204 -4.18)" fill="#374081"/>
                <path id="Trazado_874492" data-name="Trazado 874492" d="M96.328,123.69c-11.463,0-20.787-8.913-20.787-19.868v-2.242a.508.508,0,0,1,1.015,0v2.242c0,10.419,8.87,18.9,19.772,18.9s19.771-8.478,19.771-18.9v-2.242a.508.508,0,0,1,1.015,0v2.242c0,10.955-9.325,19.868-20.786,19.868" transform="translate(-2.214 -2.963)" fill="#374081"/>
                <path id="Trazado_874493" data-name="Trazado 874493" d="M82.559,112.877a.512.512,0,0,1-.42-.214,15.891,15.891,0,0,1-2.957-9.233v-1.851a.508.508,0,0,1,1.015,0v1.851a14.961,14.961,0,0,0,2.782,8.69.471.471,0,0,1-.136.674.516.516,0,0,1-.284.083" transform="translate(-2.321 -2.963)" fill="#374081"/>
                <path id="Trazado_874494" data-name="Trazado 874494" d="M96.626,120.354a17.563,17.563,0,0,1-10.75-3.592.47.47,0,0,1-.081-.681.526.526,0,0,1,.713-.078,16.834,16.834,0,0,0,20.225.008.521.521,0,0,1,.712.077.471.471,0,0,1-.08.682,17.569,17.569,0,0,1-10.741,3.584" transform="translate(-2.512 -3.397)" fill="#374081"/>
                <path id="Trazado_874495" data-name="Trazado 874495" d="M111.952,111.808a.524.524,0,0,1-.25-.063.474.474,0,0,1-.191-.662,14.992,14.992,0,0,0,2.108-7.653v-1.851a.508.508,0,0,1,1.015,0v1.851a15.935,15.935,0,0,1-2.24,8.132.512.512,0,0,1-.442.246" transform="translate(-3.267 -2.963)" fill="#374081"/>
                <path id="Trazado_874496" data-name="Trazado 874496" d="M63.881,177l-11.621-.451a.486.486,0,0,1-.466-.5.477.477,0,0,1,.5-.467L63.159,176l7.624-26.369a.485.485,0,0,1,.933.269Z" transform="translate(-1.518 -4.376)" fill="#374081"/>
                <path id="Trazado_874497" data-name="Trazado 874497" d="M112.5,181.753l-17.859.213a.988.988,0,0,1-.9-.911l-5.5-33.914a1.081,1.081,0,0,1,.878-1.345l28.406-.338a1.084,1.084,0,0,1,.907,1.338l-5.046,34.04a.983.983,0,0,1-.88.918" transform="translate(-2.586 -4.264)" fill="#fff"/>
                <path id="Trazado_874498" data-name="Trazado 874498" d="M114.339,172.192l-21.567.256a1.989,1.989,0,0,1-1.936-1.672L88.22,157.063a2.05,2.05,0,0,1,1.885-2.5l26.619-.316a2.052,2.052,0,0,1,1.941,2.476L116.23,170.5a1.987,1.987,0,0,1-1.891,1.695" transform="translate(-2.585 -4.522)" fill="#ffb44f"/>
                <path id="Trazado_874499" data-name="Trazado 874499" d="M119.169,145.77l-31.814.379a1.168,1.168,0,0,1-1.036-1.6l.547-1.495a1.1,1.1,0,0,1,1.008-.745l30.555-.363a1.093,1.093,0,0,1,.989.638l.712,1.48a1.172,1.172,0,0,1-.961,1.709" transform="translate(-2.528 -4.161)" fill="#ffb44f"/>
                <path id="Trazado_874500" data-name="Trazado 874500" d="M115.373,138.018l-24.226.288a1.92,1.92,0,0,0-1.829,2l.022,1.865,27.931-.332-.022-1.865a1.921,1.921,0,0,0-1.876-1.96" transform="translate(-2.618 -4.046)" fill="#ffa539"/>
                <path id="Trazado_874501" data-name="Trazado 874501" d="M118.4,162.262l-.024-.22a2.341,2.341,0,0,0-2.576-2.064l-.4.043q-.116-.038-.233-.07a2.337,2.337,0,0,0,1.459-2.414l-.024-.219a2.343,2.343,0,0,0-2.576-2.067l-22.5-1.737c-4.619-.011-9.1-1.447-11.855.6L77.83,155.49h0l-.439.328v.015L51.163,176.3l-29.011-3.676-9.357,38.9c-.076.329-.116.657-.175.986-.03.166-.062.331-.088.5-.059.4-.1.795-.136,1.191-.025.269-.048.538-.06.808-.015.317-.017.632-.017.946,0,.349.008.7.027,1.046.015.24.035.478.057.715.04.421.091.841.159,1.259.026.165.057.328.088.491q.134.715.322,1.42c.029.109.061.216.092.324.143.5.3.99.49,1.477.035.092.073.183.109.276.187.472.391.938.617,1.4.065.133.136.262.2.393.2.39.416.777.649,1.156.15.246.314.482.474.721s.327.489.506.727c.342.462.706.906,1.088,1.337.01.01.017.021.026.031l.007.007a19.226,19.226,0,0,0,10.079,5.97,16.646,16.646,0,0,0,8.078-.15,18.9,18.9,0,0,0,10.749-6.593L82.354,181.5c8.817-.866,31.037-7.855,31.037-7.855a2.08,2.08,0,0,0,1.644-2.429L115,171.02a2.07,2.07,0,0,0-1.339-1.55l.056-.111c.051-.037.088-.072.138-.11l1.2-.163a2.342,2.342,0,0,0,2-2.63l-.03-.218a2.309,2.309,0,0,0-.743-1.395l.055-.006a2.342,2.342,0,0,0,2.066-2.576" transform="translate(-0.361 -4.485)" fill="#fec29e"/>
                <path id="Trazado_874502" data-name="Trazado 874502" d="M107.512,161.647a.485.485,0,0,1-.052-.968L118,159.52a.485.485,0,1,1,.106.965l-10.535,1.159-.054,0" transform="translate(-3.137 -4.676)" fill="#fb8e77"/>
                <path id="Trazado_874503" data-name="Trazado 874503" d="M107.422,166.726a.485.485,0,0,1-.052-.968l10.536-1.159a.485.485,0,1,1,.106.965l-10.535,1.159-.054,0" transform="translate(-3.135 -4.825)" fill="#fb8e77"/>
                <path id="Trazado_874504" data-name="Trazado 874504" d="M105.747,171.822a.485.485,0,0,1-.066-.966l10.5-1.477a.492.492,0,0,1,.548.413.486.486,0,0,1-.414.548l-10.5,1.476a.535.535,0,0,1-.068,0" transform="translate(-3.086 -4.965)" fill="#fb8e77"/>
                <path id="Trazado_874505" data-name="Trazado 874505" d="M32.268,191.572a.485.485,0,0,1-.289-.875l25.1-18.623a.485.485,0,1,1,.578.779l-25.1,18.622a.481.481,0,0,1-.289.1" transform="translate(-0.932 -5.041)" fill="#fb8e77"/>
                <path id="Trazado_874506" data-name="Trazado 874506" d="M138.264,16.9a14.481,14.481,0,0,0-10.807-.478c-.78.257-1.453.75-2.217.525-.712-.212-1.6-1.28-2.257-1.7a13.067,13.067,0,0,0-5.217-2.028c-.436-.063-.875-.1-1.314-.12a13.684,13.684,0,0,0-8.086,2,2.989,2.989,0,0,1-.748-.221A12.6,12.6,0,0,0,86.5,22.251c-.021.15-.025.3-.042.448a9.928,9.928,0,0,0-3.811,19.209l4.34,11.122L90.01,70.779l5.426-13.041h0A1.477,1.477,0,0,0,95.7,57.1l8.479-20.377a10.979,10.979,0,0,1,1.4-.477,13.7,13.7,0,0,0,15.853,3,31.416,31.416,0,0,0,11.4-.2,15.813,15.813,0,0,0,8.722-5.308,12.3,12.3,0,0,0,2.852-5.874c.019-.123.036-.247.05-.371.508-4.331-2.27-8.679-6.188-10.6" transform="translate(-2.235 -0.335)" fill="#441b14"/>
                <path id="Trazado_874507" data-name="Trazado 874507" d="M121.52,39.994a13.7,13.7,0,0,1-15.854-3,10.8,10.8,0,0,0-7.075,5.77c-1.336,2.9-1.41,6.285-1.932,9.394-.242,1.434-.434,2.875-.684,4.308-.088.5-.091,1.608-.451,2.02-4.1,4.678,4.309-5.213-9.436-9.252a7.6,7.6,0,0,0,.106,15.135l1.8.148-.388,4.766a15.594,15.594,0,0,0-.636,2.059L81.31,96.368a15.5,15.5,0,1,0,30.243,6.844l3.12-13.786.8.065a13.357,13.357,0,0,0,14.4-12.229l.073-.9h0l.646-7.945,2.33-28.623a31.405,31.405,0,0,1-11.394.2" transform="translate(-2.322 -1.084)" fill="#fec29e"/>
                <g id="Grupo_1105722" data-name="Grupo 1105722" transform="translate(84.875 63.941)" opacity="0.46">
                  <g id="Grupo_1105721" data-name="Grupo 1105721">
                    <g id="Grupo_1105720" data-name="Grupo 1105720" clip-path="url(#clip-path-24)">
                      <path id="Trazado_874508" data-name="Trazado 874508" d="M116.84,88.544,101.5,87.3a12.376,12.376,0,0,1-11.332-13.34l.648-7.97L88.2,65.872l-.713,8.768a13.357,13.357,0,0,0,9.648,13.925l-.454-.019,15.018,14.4,2.875-12.706,1.141.093a13.356,13.356,0,0,0,14.4-12.229l.074-.9a12.377,12.377,0,0,1-13.34,11.332" transform="translate(-87.439 -65.872)" fill="#fb8e77"/>
                    </g>
                  </g>
                </g>
                <path id="Trazado_874509" data-name="Trazado 874509" d="M114.668,59.615a1.242,1.242,0,1,1-1.138-1.34,1.242,1.242,0,0,1,1.138,1.34" transform="translate(-3.289 -1.708)" fill="#441b14"/>
                <path id="Trazado_874510" data-name="Trazado 874510" d="M127.38,60.331a1.242,1.242,0,1,1-1.138-1.34,1.243,1.243,0,0,1,1.138,1.34" transform="translate(-3.661 -1.729)" fill="#441b14"/>
                <path id="Trazado_874511" data-name="Trazado 874511" d="M115.536,74.07a.49.49,0,0,1-.152-.024c-3.348-1.107-5.489-2.611-6.363-4.471a3.768,3.768,0,0,1-.248-2.82.486.486,0,0,1,.906.35,2.821,2.821,0,0,0,.236,2.088c.528,1.1,1.959,2.669,5.775,3.93a.485.485,0,0,1-.152.946" transform="translate(-3.184 -1.948)" fill="#fb8e77"/>
                <path id="Trazado_874512" data-name="Trazado 874512" d="M119.671,69.034a9.771,9.771,0,0,1-2.153-.261.485.485,0,0,1,.215-.946,8.586,8.586,0,0,0,2.114.235,3.1,3.1,0,0,0,2.4-1.242,3.22,3.22,0,0,0,.56-2.746L120.28,54.021a.486.486,0,0,1,.943-.237l2.526,10.053a4.188,4.188,0,0,1-.729,3.569,4.074,4.074,0,0,1-3.147,1.626l-.2,0" transform="translate(-3.434 -1.566)" fill="#fb8e77"/>
                <path id="Trazado_874513" data-name="Trazado 874513" d="M116.035,83.308a.484.484,0,0,1-.414-.233,2.873,2.873,0,0,0-2.987-1.229.485.485,0,0,1-.211-.947,3.825,3.825,0,0,1,4.026,1.672.486.486,0,0,1-.162.667.478.478,0,0,1-.252.071" transform="translate(-3.284 -2.369)" fill="#fb8e77"/>
                <path id="Trazado_874514" data-name="Trazado 874514" d="M106.532,54.107a4.769,4.769,0,0,0,1.975-.15c.689-.147,1.385-.276,1.995-.367s1.314-.173,2.017-.236a4.733,4.733,0,0,0,1.928-.435c.49-.3.609-.966-.129-1.653a5.463,5.463,0,0,0-4.362-.971,5.3,5.3,0,0,0-3.836,2.2c-.478.869-.15,1.469.413,1.61" transform="translate(-3.104 -1.472)" fill="#441b14"/>
                <path id="Trazado_874515" data-name="Trazado 874515" d="M131.225,54.889a3.568,3.568,0,0,1-1.434-.371c-.488-.2-.983-.385-1.42-.533s-.944-.3-1.453-.44a3.525,3.525,0,0,1-1.361-.575c-.321-.285-.32-.791.313-1.2a4.088,4.088,0,0,1,3.338-.139,3.961,3.961,0,0,1,2.533,2.126c.237.7-.083,1.1-.515,1.131" transform="translate(-3.674 -1.505)" fill="#441b14"/>
                <path id="Trazado_874516" data-name="Trazado 874516" d="M84.322,59.834a.485.485,0,0,1-.165-.942l2.164-.782-1.4-3.72a.485.485,0,0,1,.909-.341l1.745,4.64L84.487,59.8a.466.466,0,0,1-.165.029" transform="translate(-2.458 -1.575)" fill="#fb8e77"/>
              </g>
            </g>
          </g>
        </g>
      </g>
    </g>
  </g>
</svg>
