<svg xmlns="http://www.w3.org/2000/svg" width="79" height="79" viewBox="0 0 79 79">
  <g id="Grupo_1106806" data-name="Grupo 1106806" transform="translate(-307.051 -3876)">
    <rect id="Rectángulo_403533" data-name="Rectángulo 403533" width="79" height="79" rx="39.5" transform="translate(307.051 3876)" fill="#fd5a37"/>
    <g id="correo-electronico" transform="translate(316.051 3865.144)">
      <path id="Trazado_877856" data-name="Trazado 877856" d="M59.069,47.329l-9.415-6.848L34.858,29.72a1.967,1.967,0,0,0-2.314,0L8.334,47.329a1.967,1.967,0,0,0-.81,1.59V82.05a1.967,1.967,0,0,0,1.967,1.967H57.912a1.967,1.967,0,0,0,1.967-1.967V48.919A1.966,1.966,0,0,0,59.069,47.329Z" transform="translate(-6.616 -6.585)" fill="#00aaf0"/>
      <path id="Trazado_877857" data-name="Trazado 877857" d="M9.942,82.05V49.645a1.966,1.966,0,0,1,.81-1.59L34.963,30.445a1.961,1.961,0,0,1,.522-.27l-.626-.456a1.967,1.967,0,0,0-2.314,0L8.334,47.329a1.967,1.967,0,0,0-.81,1.59V82.05a1.967,1.967,0,0,0,1.967,1.967h2.418A1.967,1.967,0,0,1,9.942,82.05Z" transform="translate(-6.616 -6.585)" fill="#009aef"/>
      <path id="Trazado_877858" data-name="Trazado 877858" d="M47.053,320.621,23.828,339.846H72.249L49.024,320.621A1.545,1.545,0,0,0,47.053,320.621Z" transform="translate(-20.954 -262.414)" fill="#5bddfc"/>
      <g id="Grupo_1106805" data-name="Grupo 1106805" transform="translate(0.908 42.335)">
        <path id="Trazado_877859" data-name="Trazado 877859" d="M24.714,476.5l-.887.734h2.417A1.961,1.961,0,0,1,24.714,476.5Z" transform="translate(-21.86 -442.133)" fill="#00c3ff"/>
        <path id="Trazado_877860" data-name="Trazado 877860" d="M238.916,208.119l22.475,18.6a1.967,1.967,0,0,0,1.967-1.967V191.625Z" transform="translate(-211.004 -191.625)" fill="#00c3ff"/>
        <path id="Trazado_877861" data-name="Trazado 877861" d="M7.524,191.625v33.131a1.967,1.967,0,0,0,1.967,1.967l22.475-18.6Z" transform="translate(-7.524 -191.625)" fill="#00c3ff"/>
      </g>
      <path id="Trazado_877862" data-name="Trazado 877862" d="M9.942,193.257l-2.418-1.632h0v33.131a1.967,1.967,0,0,0,1.967,1.967l.887-.734a1.958,1.958,0,0,1-.435-1.233Z" transform="translate(-6.616 -149.29)" fill="#00aaf0"/>
      <path id="Trazado_877863" data-name="Trazado 877863" d="M103.015,86.637a12.294,12.294,0,0,1,4.4-9.435H77.332a1.524,1.524,0,0,0-1.524,1.524V96.563L92.013,107.5l.75-.621a1.545,1.545,0,0,1,1.97,0l.75.621,14.479-9.77A12.322,12.322,0,0,1,103.015,86.637Z" transform="translate(-66.663 -48.67)" fill="#e4eaf8"/>
      <path id="Trazado_877864" data-name="Trazado 877864" d="M78.225,77.2h-.894a1.524,1.524,0,0,0-1.524,1.524V96.564L78.225,98.2Z" transform="translate(-66.663 -48.671)" fill="#d8dce5"/>
      <circle id="Elipse_11665" data-name="Elipse 11665" cx="12.346" cy="12.346" r="12.346" transform="translate(36.304 25.621)" fill="#7ce854"/>
      <path id="Trazado_877865" data-name="Trazado 877865" d="M303.331,65.424a12.346,12.346,0,0,1,11.161-12.289c-.39-.037-.785-.057-1.185-.057a12.345,12.345,0,0,0,0,24.691c.4,0,.795-.02,1.185-.057A12.347,12.347,0,0,1,303.331,65.424Z" transform="translate(-264.656 -27.457)" fill="#5ec62e"/>
      <path id="Trazado_877866" data-name="Trazado 877866" d="M352.945,124.788l-3.568-3.439a1.859,1.859,0,0,1,2.579-2.676l2.156,2.078,4.366-5.051a1.859,1.859,0,0,1,2.812,2.431l-5.649,6.536A1.859,1.859,0,0,1,352.945,124.788Z" transform="translate(-306.731 -81.957)" fill="#e4eaf8"/>
      <path id="Trazado_877867" data-name="Trazado 877867" d="M355.282,146.208l-3.568-3.439a1.857,1.857,0,0,1-.468-1.938,1.857,1.857,0,0,0-1.87,3.1l3.568,3.439a1.859,1.859,0,0,0,2.7-.123l.5-.575A1.855,1.855,0,0,1,355.282,146.208Z" transform="translate(-306.731 -104.541)" fill="#d8dce5"/>
      <path id="Trazado_877868" data-name="Trazado 877868" d="M121.613,232.906h23.233a.907.907,0,0,0,0-1.814H121.613a.907.907,0,0,0,0,1.814Z" transform="translate(-106.145 -183.996)"/>
      <path id="Trazado_877869" data-name="Trazado 877869" d="M357.934,108.246a2.763,2.763,0,0,0-3.9.284l-3.74,4.327-1.466-1.413a2.765,2.765,0,0,0-3.838,3.982l3.569,3.439a2.766,2.766,0,0,0,4.011-.183l5.649-6.536A2.763,2.763,0,0,0,357.934,108.246Zm-1.088,2.714L351.2,117.5a.953.953,0,0,1-1.38.063l-3.568-3.439a.952.952,0,1,1,1.321-1.37l2.156,2.078a.907.907,0,0,0,1.315-.06l4.366-5.051a.952.952,0,1,1,1.44,1.244Z" transform="translate(-302.628 -75.376)"/>
      <path id="Trazado_877870" data-name="Trazado 877870" d="M59.958,36.25a.907.907,0,1,0,1.793-.271,13.222,13.222,0,0,0-21.318-8.348H35.956l-7.182-5.223a2.866,2.866,0,0,0-3.38,0l-7.182,5.223H10.668a2.434,2.434,0,0,0-2.431,2.431v4.825l-7.053,5.13A2.881,2.881,0,0,0,0,42.34V75.471a2.877,2.877,0,0,0,2.873,2.873H25.124a.907.907,0,0,0,0-1.814H5.391l21.286-17.62a.638.638,0,0,1,.814,0l21.286,17.62H29.356a.907.907,0,1,0,0,1.814H51.294a2.878,2.878,0,0,0,2.873-2.873V50a13.232,13.232,0,0,0,7.487-9.482.907.907,0,0,0-1.78-.347,11.415,11.415,0,1,1,.083-3.922Zm-32.874,20.7a2.605,2.605,0,0,0-1.79.751l-5.6-3.778H34.474l-5.6,3.778A2.61,2.61,0,0,0,27.084,56.952Zm-.623-33.078a1.057,1.057,0,0,1,1.247,0l5.165,3.757H21.3Zm-16.41,6.187a.618.618,0,0,1,.617-.617H38.561a13.221,13.221,0,0,0-3.086,7.622H15.467a.907.907,0,0,0,0,1.814H35.475a13.19,13.19,0,0,0,.621,3.2H15.467a.907.907,0,1,0,0,1.814H36.841a13.262,13.262,0,0,0,4.729,5.24L37.161,52.11H17.007l-6.956-4.694ZM2.25,41.483l5.987-4.354v9.064L1.9,41.919A1.061,1.061,0,0,1,2.25,41.483Zm-.436,2.563L23.837,58.908,2.594,76.492a1.062,1.062,0,0,1-.78-1.021Zm50.541,6.633V75.471a1.06,1.06,0,0,1-.78,1.021L30.331,58.908,43.382,50.1A13.245,13.245,0,0,0,52.354,50.679Z"/>
    </g>
  </g>
</svg>
