<svg xmlns="http://www.w3.org/2000/svg" width="90" height="90" viewBox="0 0 90 90">
  <g id="Grupo_1106757" data-name="Grupo 1106757" transform="translate(-597.051 -1502)">
    <g id="Grupo_1106037" data-name="Grupo 1106037" transform="translate(597.051 1502)">
      <g id="Rect치ngulo_400898" data-name="Rect치ngulo 400898" transform="translate(0)" fill="#fff" stroke="#fff" stroke-width="3" opacity="0.859">
        <rect width="90" height="90" rx="45" stroke="none"/>
        <rect x="1.5" y="1.5" width="87" height="87" rx="43.5" fill="none"/>
      </g>
      <g id="Rect치ngulo_400907" data-name="Rect치ngulo 400907" transform="translate(0)" fill="none" stroke="#fff" stroke-width="3">
        <rect width="90" height="90" rx="45" stroke="none"/>
        <rect x="1.5" y="1.5" width="87" height="87" rx="43.5" fill="none"/>
      </g>
    </g>
    <g id="ventas_1_" data-name="ventas (1)" transform="matrix(0.985, -0.174, 0.174, 0.985, 585.445, 1450.582)">
      <path id="Trazado_877714" data-name="Trazado 877714" d="M56.354,85.8v0l-.009,0Zm-.176,45.252v0l-.02-.008Zm-.428-.178c-19.073-7.975-18.948-11.248-37.7-11.248-14.78,0-14.78-22.344,0-22.344,18.633,0,18.794-3.285,37.517-11.153-3.622,2.051-6.354,11.266-6.354,22.325,0,11.241,2.822,20.577,6.533,22.42Z" transform="translate(-5.852 -6.438)" fill="#77cedb" fill-rule="evenodd"/>
      <path id="Trazado_877715" data-name="Trazado 877715" d="M97.15,302.58l4.4,16.934,6.841.6-3.074-16.92a67.449,67.449,0,0,0-8.172-.614Z" transform="translate(-81.949 -189.36)" fill="#77cedb" fill-rule="evenodd"/>
      <ellipse id="Elipse_11659" data-name="Elipse 11659" cx="7.878" cy="22.752" rx="7.878" ry="22.752" transform="translate(43.363 79.263)" fill="#fcb13c"/>
      <path id="Trazado_877716" data-name="Trazado 877716" d="M51.244,123.673c1.66,0,3.274-2.265,4.542-5.926,3-8.673,3-22.8,0-31.467-1.268-3.661-2.882-5.926-4.542-5.926-2.318,0-4.019,4.415-4.542,5.926a41.951,41.951,0,0,0-1.888,9H52a3.464,3.464,0,0,1,2.949,2.262,11.186,11.186,0,0,1,0,8.937A3.464,3.464,0,0,1,52,108.743H44.814a41.93,41.93,0,0,0,1.888,9C47.239,119.3,48.932,123.673,51.244,123.673Zm-30.6-9.065,1.207,5.46,1.724.967-1.131-6.224c-.576-.077-1.175-.144-1.8-.2ZM27.5,130.463a1.095,1.095,0,0,1-1.148,1.379l-6.841-.6v0a1.09,1.09,0,0,1-.961-.812l-4.2-16.131c-.69-.011-1.407-.016-2.155-.016-16.226,0-16.226-24.531,0-24.531,13.484,0,17.115-1.749,25.438-5.755,2.105-1.014,11.352-5.824,13.6-5.824,2.691,0,5.017,2.829,6.6,7.4,3.172,9.162,3.172,23.723,0,32.885-1.584,4.573-3.909,7.4-6.6,7.4-2.405,0-11.441-4.756-13.794-5.89-4.875-2.352-8.109-3.912-12.726-4.795q1.389,7.642,2.779,15.286Zm-3.42-6.643,1.039,5.718-4.654-.408-3.842-14.777q.909.033,1.751.083l1.454,6.58a1.091,1.091,0,0,0,.531.715l0,0Zm13.532-16.98a35.147,35.147,0,0,0,.957,8.543,21.4,21.4,0,0,0,1.061,3.217q-.635-.3-1.234-.6c-6.7-3.235-10.422-5.029-18.416-5.654a7.039,7.039,0,0,1-3.424-1.535,6.8,6.8,0,0,1-2-3.256,1.089,1.089,0,0,0-2.085.633,9.112,9.112,0,0,0,2.279,3.925c-.812-.014-1.662-.022-2.554-.022-13.327,0-13.329-20.157,0-20.157,1.484,0,2.85-.02,4.122-.062a11.665,11.665,0,0,0-2.4,2.882,16.428,16.428,0,0,0-1.977,8.818,1.09,1.09,0,0,0,2.179-.042,14.327,14.327,0,0,1,1.679-7.664,10.229,10.229,0,0,1,5.171-4.276c7.377-.7,11.119-2.507,17.61-5.632q.855-.412,1.784-.856a23.061,23.061,0,0,0-1.481,4.275,49.415,49.415,0,0,0-1.285,11.82,1.089,1.089,0,1,0,2.179-.008,47.123,47.123,0,0,1,1.226-11.283c.722-2.877,1.738-5.184,3.039-6.357a1.073,1.073,0,0,0,.22-.273q.811-.37,1.681-.761a21.89,21.89,0,0,0-1.306,3.058c-3.172,9.162-3.172,23.723,0,32.885a21.932,21.932,0,0,0,1.323,3.091c-1.017-.453-1.969-.889-2.868-1.306q-.021-.03-.047-.061a13.935,13.935,0,0,1-2.365-5.329,33.024,33.024,0,0,1-.9-8,1.089,1.089,0,0,0-2.179-.012Zm26.958,10.652a1.092,1.092,0,0,1,.564-2.11l9.813,2.63a1.092,1.092,0,0,1-.564,2.11Zm-.064-27.629a1.092,1.092,0,0,1-.564-2.11l10.333-2.769a1.092,1.092,0,1,1,.564,2.11Zm1.082,12.957a1.093,1.093,0,1,1,0-2.187H77.022a1.093,1.093,0,1,1,0,2.187Zm-16.506,3.739H44.617a64.418,64.418,0,0,1,0-9.088h4.467l-.037.075a11.186,11.186,0,0,0,0,8.937C49.059,106.508,49.071,106.533,49.084,106.558Zm3.9-8.048a9.1,9.1,0,0,1,0,7.006c-.319.643-.675,1.04-.993,1.04s-.675-.4-.993-1.04a9.1,9.1,0,0,1,0-7.006c.319-.643.675-1.04.993-1.04S52.67,97.868,52.988,98.51Z" transform="translate(0)" fill="#010101" fill-rule="evenodd"/>
    </g>
  </g>
</svg>
