<svg xmlns="http://www.w3.org/2000/svg" xmlns:xlink="http://www.w3.org/1999/xlink" width="295" height="349" viewBox="0 0 295 349">
  <defs>
    <clipPath id="clip-path">
      <rect id="Rectángulo_403450" data-name="Rectángulo 403450" width="295" height="349" rx="23" transform="translate(1125.051 1447)" fill="#01d2b5"/>
    </clipPath>
    <clipPath id="clip-path-2">
      <rect id="Rectángulo_403449" data-name="Rectángulo 403449" width="182.598" height="321.557" fill="none"/>
    </clipPath>
  </defs>
  <g id="Enmascarar_grupo_1099801" data-name="Enmascarar grupo 1099801" transform="translate(-1125.051 -1447)" clip-path="url(#clip-path)">
    <rect id="Rectángulo_402974" data-name="Rectángulo 402974" width="295" height="349" rx="23" transform="translate(1125.051 1447)" fill="#01d2b5"/>
    <g id="Grupo_1106558" data-name="Grupo 1106558" transform="translate(88.84 12645.861)">
      <path id="Trazado_113538" data-name="Trazado 113538" d="M195.495,29.847c-8.913,0-13.313-7.185-16.847-12.961-3.58-5.844-6.005-9.426-10.569-9.426s-6.984,3.582-10.556,9.426c-3.534,5.776-7.934,12.961-16.843,12.961s-13.313-7.185-16.847-12.961c-3.576-5.844-6-9.426-10.561-9.426s-6.98,3.582-10.557,9.426c-3.534,5.776-7.934,12.961-16.843,12.961S72.563,22.662,69.033,16.886c-3.576-5.844-6-9.426-10.552-9.426S51.5,11.043,47.928,16.886C44.394,22.662,40,29.847,31.089,29.847s-13.3-7.185-16.839-12.961c-3.576-5.844-6-9.426-10.552-9.426A3.731,3.731,0,0,1,3.7,0C12.6,0,17,7.189,20.537,12.965c3.572,5.84,6,9.421,10.552,9.421s6.976-3.582,10.552-9.421C45.176,7.189,49.575,0,58.48,0s13.3,7.189,16.835,12.961c3.576,5.844,6,9.426,10.556,9.426s6.98-3.582,10.556-9.426C99.962,7.189,104.362,0,113.271,0s13.309,7.189,16.847,12.961c3.572,5.844,6,9.426,10.561,9.426s6.98-3.582,10.556-9.426C154.765,7.189,159.17,0,168.078,0S181.4,7.189,184.93,12.961c3.58,5.844,6.005,9.426,10.565,9.426s6.989-3.582,10.569-9.426C209.6,7.189,214,0,222.915,0a3.712,3.712,0,0,1,3.694,3.73,3.709,3.709,0,0,1-3.694,3.73c-4.564,0-6.989,3.582-10.569,9.426C208.812,22.662,204.412,29.847,195.495,29.847Z" transform="translate(1149.414 -11088.18) rotate(180)" fill="#017e6d"/>
      <path id="Trazado_126924" data-name="Trazado 126924" d="M195.495,29.847c-8.913,0-13.313-7.185-16.847-12.961-3.58-5.844-6.005-9.426-10.569-9.426s-6.984,3.582-10.556,9.426c-3.534,5.776-7.934,12.961-16.843,12.961s-13.313-7.185-16.847-12.961c-3.576-5.844-6-9.426-10.561-9.426s-6.98,3.582-10.557,9.426c-3.534,5.776-7.934,12.961-16.843,12.961S72.563,22.662,69.033,16.886c-3.576-5.844-6-9.426-10.552-9.426S51.5,11.043,47.928,16.886C44.394,22.662,40,29.847,31.089,29.847s-13.3-7.185-16.839-12.961c-3.576-5.844-6-9.426-10.552-9.426A3.731,3.731,0,0,1,3.7,0C12.6,0,17,7.189,20.537,12.965c3.572,5.84,6,9.421,10.552,9.421s6.976-3.582,10.552-9.421C45.176,7.189,49.575,0,58.48,0s13.3,7.189,16.835,12.961c3.576,5.844,6,9.426,10.556,9.426s6.98-3.582,10.556-9.426C99.962,7.189,104.362,0,113.271,0s13.309,7.189,16.847,12.961c3.572,5.844,6,9.426,10.561,9.426s6.98-3.582,10.556-9.426C154.765,7.189,159.17,0,168.078,0S181.4,7.189,184.93,12.961c3.58,5.844,6.005,9.426,10.565,9.426s6.989-3.582,10.569-9.426C209.6,7.189,214,0,222.915,0a3.712,3.712,0,0,1,3.694,3.73,3.709,3.709,0,0,1-3.694,3.73c-4.564,0-6.989,3.582-10.569,9.426C208.812,22.662,204.412,29.847,195.495,29.847Z" transform="translate(1149.414 -11157.495) rotate(180)" fill="#017e6d"/>
      <path id="Trazado_126938" data-name="Trazado 126938" d="M195.495,29.847c-8.913,0-13.313-7.185-16.847-12.961-3.58-5.844-6.005-9.426-10.569-9.426s-6.984,3.582-10.556,9.426c-3.534,5.776-7.934,12.961-16.843,12.961s-13.313-7.185-16.847-12.961c-3.576-5.844-6-9.426-10.561-9.426s-6.98,3.582-10.557,9.426c-3.534,5.776-7.934,12.961-16.843,12.961S72.563,22.662,69.033,16.886c-3.576-5.844-6-9.426-10.552-9.426S51.5,11.043,47.928,16.886C44.394,22.662,40,29.847,31.089,29.847s-13.3-7.185-16.839-12.961c-3.576-5.844-6-9.426-10.552-9.426A3.731,3.731,0,0,1,3.7,0C12.6,0,17,7.189,20.537,12.965c3.572,5.84,6,9.421,10.552,9.421s6.976-3.582,10.552-9.421C45.176,7.189,49.575,0,58.48,0s13.3,7.189,16.835,12.961c3.576,5.844,6,9.426,10.556,9.426s6.98-3.582,10.556-9.426C99.962,7.189,104.362,0,113.271,0s13.309,7.189,16.847,12.961c3.572,5.844,6,9.426,10.561,9.426s6.98-3.582,10.556-9.426C154.765,7.189,159.17,0,168.078,0S181.4,7.189,184.93,12.961c3.58,5.844,6.005,9.426,10.565,9.426s6.989-3.582,10.569-9.426C209.6,7.189,214,0,222.915,0a3.712,3.712,0,0,1,3.694,3.73,3.709,3.709,0,0,1-3.694,3.73c-4.564,0-6.989,3.582-10.569,9.426C208.812,22.662,204.412,29.847,195.495,29.847Z" transform="translate(1149.414 -11053.521) rotate(180)" fill="#017e6d"/>
      <path id="Trazado_113539" data-name="Trazado 113539" d="M195.495,29.847c-8.913,0-13.313-7.185-16.847-12.961-3.58-5.844-6.005-9.426-10.569-9.426s-6.984,3.582-10.556,9.426c-3.534,5.776-7.934,12.961-16.843,12.961s-13.313-7.185-16.847-12.961c-3.576-5.844-6-9.426-10.561-9.426s-6.98,3.582-10.557,9.426c-3.534,5.776-7.934,12.961-16.843,12.961S72.563,22.662,69.033,16.886c-3.576-5.844-6-9.426-10.552-9.426S51.5,11.043,47.928,16.886C44.394,22.662,40,29.847,31.089,29.847s-13.3-7.185-16.839-12.961c-3.576-5.844-6-9.426-10.552-9.426A3.731,3.731,0,0,1,3.7,0C12.6,0,17,7.189,20.537,12.965c3.572,5.84,6,9.421,10.552,9.421s6.976-3.582,10.552-9.421C45.176,7.189,49.575,0,58.48,0s13.3,7.189,16.835,12.961c3.576,5.844,6,9.426,10.556,9.426s6.98-3.582,10.556-9.426C99.962,7.189,104.362,0,113.271,0s13.309,7.189,16.847,12.961c3.572,5.844,6,9.426,10.561,9.426s6.98-3.582,10.556-9.426C154.765,7.189,159.17,0,168.078,0S181.4,7.189,184.93,12.961c3.58,5.844,6.005,9.426,10.565,9.426s6.989-3.582,10.569-9.426C209.6,7.189,214,0,222.915,0a3.712,3.712,0,0,1,3.694,3.73,3.709,3.709,0,0,1-3.694,3.73c-4.564,0-6.989,3.582-10.569,9.426C208.812,22.662,204.412,29.847,195.495,29.847Z" transform="translate(1149.414 -11122.838) rotate(180)" fill="#017e6d"/>
      <path id="Trazado_126923" data-name="Trazado 126923" d="M195.495,29.847c-8.913,0-13.313-7.185-16.847-12.961-3.58-5.844-6.005-9.426-10.569-9.426s-6.984,3.582-10.556,9.426c-3.534,5.776-7.934,12.961-16.843,12.961s-13.313-7.185-16.847-12.961c-3.576-5.844-6-9.426-10.561-9.426s-6.98,3.582-10.557,9.426c-3.534,5.776-7.934,12.961-16.843,12.961S72.563,22.662,69.033,16.886c-3.576-5.844-6-9.426-10.552-9.426S51.5,11.043,47.928,16.886C44.394,22.662,40,29.847,31.089,29.847s-13.3-7.185-16.839-12.961c-3.576-5.844-6-9.426-10.552-9.426A3.731,3.731,0,0,1,3.7,0C12.6,0,17,7.189,20.537,12.965c3.572,5.84,6,9.421,10.552,9.421s6.976-3.582,10.552-9.421C45.176,7.189,49.575,0,58.48,0s13.3,7.189,16.835,12.961c3.576,5.844,6,9.426,10.556,9.426s6.98-3.582,10.556-9.426C99.962,7.189,104.362,0,113.271,0s13.309,7.189,16.847,12.961c3.572,5.844,6,9.426,10.561,9.426s6.98-3.582,10.556-9.426C154.765,7.189,159.17,0,168.078,0S181.4,7.189,184.93,12.961c3.58,5.844,6.005,9.426,10.565,9.426s6.989-3.582,10.569-9.426C209.6,7.189,214,0,222.915,0a3.712,3.712,0,0,1,3.694,3.73,3.709,3.709,0,0,1-3.694,3.73c-4.564,0-6.989,3.582-10.569,9.426C208.812,22.662,204.412,29.847,195.495,29.847Z" transform="translate(1149.414 -11192.153) rotate(180)" fill="#017e6d"/>
    </g>
    <g id="Grupo_1106559" data-name="Grupo 1106559" transform="translate(427.891 12917.572)">
      <path id="Trazado_113538-2" data-name="Trazado 113538" d="M195.495,29.847c-8.913,0-13.313-7.185-16.847-12.961-3.58-5.844-6.005-9.426-10.569-9.426s-6.984,3.582-10.556,9.426c-3.534,5.776-7.934,12.961-16.843,12.961s-13.313-7.185-16.847-12.961c-3.576-5.844-6-9.426-10.561-9.426s-6.98,3.582-10.557,9.426c-3.534,5.776-7.934,12.961-16.843,12.961S72.563,22.662,69.033,16.886c-3.576-5.844-6-9.426-10.552-9.426S51.5,11.043,47.928,16.886C44.394,22.662,40,29.847,31.089,29.847s-13.3-7.185-16.839-12.961c-3.576-5.844-6-9.426-10.552-9.426A3.731,3.731,0,0,1,3.7,0C12.6,0,17,7.189,20.537,12.965c3.572,5.84,6,9.421,10.552,9.421s6.976-3.582,10.552-9.421C45.176,7.189,49.575,0,58.48,0s13.3,7.189,16.835,12.961c3.576,5.844,6,9.426,10.556,9.426s6.98-3.582,10.556-9.426C99.962,7.189,104.362,0,113.271,0s13.309,7.189,16.847,12.961c3.572,5.844,6,9.426,10.561,9.426s6.98-3.582,10.556-9.426C154.765,7.189,159.17,0,168.078,0S181.4,7.189,184.93,12.961c3.58,5.844,6.005,9.426,10.565,9.426s6.989-3.582,10.569-9.426C209.6,7.189,214,0,222.915,0a3.712,3.712,0,0,1,3.694,3.73,3.709,3.709,0,0,1-3.694,3.73c-4.564,0-6.989,3.582-10.569,9.426C208.812,22.662,204.412,29.847,195.495,29.847Z" transform="translate(1149.414 -11088.18) rotate(180)" fill="#017e6d"/>
      <path id="Trazado_126924-2" data-name="Trazado 126924" d="M195.495,29.847c-8.913,0-13.313-7.185-16.847-12.961-3.58-5.844-6.005-9.426-10.569-9.426s-6.984,3.582-10.556,9.426c-3.534,5.776-7.934,12.961-16.843,12.961s-13.313-7.185-16.847-12.961c-3.576-5.844-6-9.426-10.561-9.426s-6.98,3.582-10.557,9.426c-3.534,5.776-7.934,12.961-16.843,12.961S72.563,22.662,69.033,16.886c-3.576-5.844-6-9.426-10.552-9.426S51.5,11.043,47.928,16.886C44.394,22.662,40,29.847,31.089,29.847s-13.3-7.185-16.839-12.961c-3.576-5.844-6-9.426-10.552-9.426A3.731,3.731,0,0,1,3.7,0C12.6,0,17,7.189,20.537,12.965c3.572,5.84,6,9.421,10.552,9.421s6.976-3.582,10.552-9.421C45.176,7.189,49.575,0,58.48,0s13.3,7.189,16.835,12.961c3.576,5.844,6,9.426,10.556,9.426s6.98-3.582,10.556-9.426C99.962,7.189,104.362,0,113.271,0s13.309,7.189,16.847,12.961c3.572,5.844,6,9.426,10.561,9.426s6.98-3.582,10.556-9.426C154.765,7.189,159.17,0,168.078,0S181.4,7.189,184.93,12.961c3.58,5.844,6.005,9.426,10.565,9.426s6.989-3.582,10.569-9.426C209.6,7.189,214,0,222.915,0a3.712,3.712,0,0,1,3.694,3.73,3.709,3.709,0,0,1-3.694,3.73c-4.564,0-6.989,3.582-10.569,9.426C208.812,22.662,204.412,29.847,195.495,29.847Z" transform="translate(1149.414 -11157.495) rotate(180)" fill="#017e6d"/>
      <path id="Trazado_126938-2" data-name="Trazado 126938" d="M195.495,29.847c-8.913,0-13.313-7.185-16.847-12.961-3.58-5.844-6.005-9.426-10.569-9.426s-6.984,3.582-10.556,9.426c-3.534,5.776-7.934,12.961-16.843,12.961s-13.313-7.185-16.847-12.961c-3.576-5.844-6-9.426-10.561-9.426s-6.98,3.582-10.557,9.426c-3.534,5.776-7.934,12.961-16.843,12.961S72.563,22.662,69.033,16.886c-3.576-5.844-6-9.426-10.552-9.426S51.5,11.043,47.928,16.886C44.394,22.662,40,29.847,31.089,29.847s-13.3-7.185-16.839-12.961c-3.576-5.844-6-9.426-10.552-9.426A3.731,3.731,0,0,1,3.7,0C12.6,0,17,7.189,20.537,12.965c3.572,5.84,6,9.421,10.552,9.421s6.976-3.582,10.552-9.421C45.176,7.189,49.575,0,58.48,0s13.3,7.189,16.835,12.961c3.576,5.844,6,9.426,10.556,9.426s6.98-3.582,10.556-9.426C99.962,7.189,104.362,0,113.271,0s13.309,7.189,16.847,12.961c3.572,5.844,6,9.426,10.561,9.426s6.98-3.582,10.556-9.426C154.765,7.189,159.17,0,168.078,0S181.4,7.189,184.93,12.961c3.58,5.844,6.005,9.426,10.565,9.426s6.989-3.582,10.569-9.426C209.6,7.189,214,0,222.915,0a3.712,3.712,0,0,1,3.694,3.73,3.709,3.709,0,0,1-3.694,3.73c-4.564,0-6.989,3.582-10.569,9.426C208.812,22.662,204.412,29.847,195.495,29.847Z" transform="translate(1149.414 -11053.521) rotate(180)" fill="#017e6d"/>
      <path id="Trazado_113539-2" data-name="Trazado 113539" d="M195.495,29.847c-8.913,0-13.313-7.185-16.847-12.961-3.58-5.844-6.005-9.426-10.569-9.426s-6.984,3.582-10.556,9.426c-3.534,5.776-7.934,12.961-16.843,12.961s-13.313-7.185-16.847-12.961c-3.576-5.844-6-9.426-10.561-9.426s-6.98,3.582-10.557,9.426c-3.534,5.776-7.934,12.961-16.843,12.961S72.563,22.662,69.033,16.886c-3.576-5.844-6-9.426-10.552-9.426S51.5,11.043,47.928,16.886C44.394,22.662,40,29.847,31.089,29.847s-13.3-7.185-16.839-12.961c-3.576-5.844-6-9.426-10.552-9.426A3.731,3.731,0,0,1,3.7,0C12.6,0,17,7.189,20.537,12.965c3.572,5.84,6,9.421,10.552,9.421s6.976-3.582,10.552-9.421C45.176,7.189,49.575,0,58.48,0s13.3,7.189,16.835,12.961c3.576,5.844,6,9.426,10.556,9.426s6.98-3.582,10.556-9.426C99.962,7.189,104.362,0,113.271,0s13.309,7.189,16.847,12.961c3.572,5.844,6,9.426,10.561,9.426s6.98-3.582,10.556-9.426C154.765,7.189,159.17,0,168.078,0S181.4,7.189,184.93,12.961c3.58,5.844,6.005,9.426,10.565,9.426s6.989-3.582,10.569-9.426C209.6,7.189,214,0,222.915,0a3.712,3.712,0,0,1,3.694,3.73,3.709,3.709,0,0,1-3.694,3.73c-4.564,0-6.989,3.582-10.569,9.426C208.812,22.662,204.412,29.847,195.495,29.847Z" transform="translate(1149.414 -11122.838) rotate(180)" fill="#017e6d"/>
      <path id="Trazado_126923-2" data-name="Trazado 126923" d="M195.495,29.847c-8.913,0-13.313-7.185-16.847-12.961-3.58-5.844-6.005-9.426-10.569-9.426s-6.984,3.582-10.556,9.426c-3.534,5.776-7.934,12.961-16.843,12.961s-13.313-7.185-16.847-12.961c-3.576-5.844-6-9.426-10.561-9.426s-6.98,3.582-10.557,9.426c-3.534,5.776-7.934,12.961-16.843,12.961S72.563,22.662,69.033,16.886c-3.576-5.844-6-9.426-10.552-9.426S51.5,11.043,47.928,16.886C44.394,22.662,40,29.847,31.089,29.847s-13.3-7.185-16.839-12.961c-3.576-5.844-6-9.426-10.552-9.426A3.731,3.731,0,0,1,3.7,0C12.6,0,17,7.189,20.537,12.965c3.572,5.84,6,9.421,10.552,9.421s6.976-3.582,10.552-9.421C45.176,7.189,49.575,0,58.48,0s13.3,7.189,16.835,12.961c3.576,5.844,6,9.426,10.556,9.426s6.98-3.582,10.556-9.426C99.962,7.189,104.362,0,113.271,0s13.309,7.189,16.847,12.961c3.572,5.844,6,9.426,10.561,9.426s6.98-3.582,10.556-9.426C154.765,7.189,159.17,0,168.078,0S181.4,7.189,184.93,12.961c3.58,5.844,6.005,9.426,10.565,9.426s6.989-3.582,10.569-9.426C209.6,7.189,214,0,222.915,0a3.712,3.712,0,0,1,3.694,3.73,3.709,3.709,0,0,1-3.694,3.73c-4.564,0-6.989,3.582-10.569,9.426C208.812,22.662,204.412,29.847,195.495,29.847Z" transform="translate(1149.414 -11192.153) rotate(180)" fill="#017e6d"/>
    </g>
    <g id="Grupo_1106553" data-name="Grupo 1106553" transform="translate(1181.051 1475)">
      <g id="Grupo_1106552" data-name="Grupo 1106552" clip-path="url(#clip-path-2)">
        <path id="Trazado_876911" data-name="Trazado 876911" d="M184.556,138.155a.789.789,0,0,1-.75-.484,29.284,29.284,0,0,0,3.534-15.067,19.675,19.675,0,0,0-5.519-13.017,26.109,26.109,0,0,0-4.155-3.449q-3.244-2.224-5.976-3.776-2.169-1.232-4.08-2.517a18.263,18.263,0,0,1-6.873-8.064q-.365-.863-.194.058c.866,4.7,5.089,7.6,9.261,9.906q2.818,1.562,5.628,3.316a21.547,21.547,0,0,1,4.922,4.052,20.7,20.7,0,0,1,4.973,11.158,30.41,30.41,0,0,1-2.521,16.554,65.875,65.875,0,0,0-6.392-3.169q-6.024-2.558-17.376-7.249-.638-.262-2.361-1.092-1.15-.553-2.4-1.01-.556,0-.58.167c-.454-1.023-1.5-1.18-2.4-1.6q-7.187-3.343-14.722-6.5l-1.214-13.088-.515-10.36a30.186,30.186,0,0,0,11.2-16.711q.618-2.3,1.006-4.506a.178.178,0,0,1,.211-.164,8.813,8.813,0,0,0,7.811-3.2c2.974-3.483,4.271-7.412,2.828-11.987-.979-3.108-4.185-4.973-7.225-3.285a12.294,12.294,0,0,0-1.955,1.354.171.171,0,0,1-.276-.106c-.488-2.968-1.228-6.089-3.878-7.668a25.9,25.9,0,0,1-6.229-4.663,39.748,39.748,0,0,1-9.288-17.257,1.671,1.671,0,0,1-.024-.375.759.759,0,0,0-.082-.365.2.2,0,0,0-.252-.113l-2.316.587a6.149,6.149,0,0,0-2.531.29,66.279,66.279,0,0,0-9.421,1.306,11.958,11.958,0,0,0-2.848.952,1.175,1.175,0,0,0-1.027.553,1.7,1.7,0,0,1-.518.467A.975.975,0,0,0,108.727,28a.551.551,0,0,1-.293.13,2.2,2.2,0,0,0-.812.273,13.86,13.86,0,0,0-5.946,7.041c-1.167,3-2.2,6.055-3.476,9.009a6.292,6.292,0,0,0-.5,1.852,1.078,1.078,0,0,0-.194,1.01.187.187,0,0,1-.1.242,3.028,3.028,0,0,0-.863.75q-.208-.218-.406.092a56.815,56.815,0,0,1-9.988,11.915q-.137.123.041.078a2.568,2.568,0,0,0,.89-.426,27.673,27.673,0,0,0,4.663-4.291l.716,1.238a28.629,28.629,0,0,1-6.5,5.935L82.339,64.8l-2.173.771a.35.35,0,0,0-.213.447c0,.009.007.018.011.027q2.507,5.628,8.456,5.645a.265.265,0,0,1,.259.215,39.755,39.755,0,0,0,2.978,9.7A31.825,31.825,0,0,0,98.6,91q.948.887,1.774,1.61l-.345,10.52q-.385,4.939-1.279,11.987-.1.771-.355.921a22.893,22.893,0,0,0-4.151,1.491q-6.635,3.135-13.337,6.123a1.712,1.712,0,0,0-1.075,1.071q-.041-.256-.594-.116a1.076,1.076,0,0,0-.713.164q-.488.262-.634.321-10.458,4.151-21.667,9.346a28.727,28.727,0,0,0-6.628,4.2q-1.2-2.558-2.323-5.2a38.089,38.089,0,0,1-3.063-16.056,16.761,16.761,0,0,1,3.125-9.517A46.94,46.94,0,0,1,58.921,97.024a18.217,18.217,0,0,0,6.686-7.5q.2-.444-.167-.119a20.2,20.2,0,0,1-1.876,1.648c-5.236,3.6-9.111,6.041-12.594,9.926a30.728,30.728,0,0,0-6.12,31.113c1,2.657,2.783,4.656,4.339,6.9a.456.456,0,0,1-.413.481,20.5,20.5,0,0,1-5.574-9.452,33.379,33.379,0,0,1,.15-17.3,31.9,31.9,0,0,1,7.634-13,43.554,43.554,0,0,1,7.037-5.867q2.436-1.637,4.946-3.346c1.607-1.092,3.138-2.152,3.52-4.124.87-4.475-.1-8.705-1.293-13.16a39.283,39.283,0,0,1-1.3-13.979c.13-1.361.235-2.743.474-4.08A53.33,53.33,0,0,1,72.16,35.371q4.117-6.362,7.4-11.85c1-1.665,2.1-3.322,3.21-4.946C91.047,6.4,104.593-1.632,119.547.281c4.482.573,8.814,2.272,11.833,5.567a.307.307,0,0,0,.321.1c8.616-2.169,16.9,4.632,20.883,11.625,3.043,5.338,4.585,11.379,6.938,17.032,1.085,2.6,2.248,5.287,3.111,7.876a88.2,88.2,0,0,1,3.418,13.737,38.454,38.454,0,0,1,.194,7.47,34.825,34.825,0,0,1-2.371,11.673q-1.259,3.053-2.173,5.908a22.366,22.366,0,0,0-.611,2.65c-1.286,7.068,2.3,12.317,8.156,16,2.156,1.354,6.147,3.53,9.142,5.584a21.672,21.672,0,0,1,9.729,19.668,36.323,36.323,0,0,1-3.561,12.983M165.126,55.36a8.654,8.654,0,0,0-.389-1.852q-.218-.651-.154.031c.778,7.917-.877,15.865-2.4,23.3q-.061.3.113.044a7.11,7.11,0,0,0,.713-1.4,36.781,36.781,0,0,0,2.466-12.761,61.559,61.559,0,0,0-.345-7.371" transform="translate(-27.764 0)" fill="#304352"/>
        <path id="Trazado_876912" data-name="Trazado 876912" d="M207.842,139.01a31.454,31.454,0,0,1-4.424,2.968,25.466,25.466,0,0,1-23,1.146,32.028,32.028,0,0,1-7.03-4.421q-.825-.723-1.774-1.61a31.825,31.825,0,0,1-6.945-9.4,39.754,39.754,0,0,1-2.978-9.7.265.265,0,0,0-.259-.215q-5.949-.017-8.456-5.645a.349.349,0,0,1,.174-.463l.028-.011,2.173-.771a3.82,3.82,0,0,0,1.04,1.859,3.567,3.567,0,0,0,3.077,1.064.91.91,0,0,0,.9-1.068,12.808,12.808,0,0,0-1.388-3.8,28.628,28.628,0,0,0,6.5-5.935l.9-1.1q.116-.143.229,0a3.751,3.751,0,0,0,3.237,1.634,10.254,10.254,0,0,0,5.734,3.7,3.394,3.394,0,0,0,1.7-.027,14.838,14.838,0,0,0,5.891-3.005,1.219,1.219,0,0,0-.143-1.122c-2.657-4.213-7.269-4.9-11.959-4.363-.553.065-.9.474-1.487.614a1.085,1.085,0,0,0-.327.136l-1.03.631a.169.169,0,0,1-.28-.085l-.256-.559a.382.382,0,0,1,.031-.4,48.583,48.583,0,0,0,2.736-4.69q.249-.485.2.058a1.379,1.379,0,0,1-.136.484,27.232,27.232,0,0,1-2.589,4.243.238.238,0,0,0,.047.332l.024.016.106.065a.324.324,0,0,0,.42-.082,34.652,34.652,0,0,0,3.022-4.544.386.386,0,0,1,.235-.191,2.5,2.5,0,0,1,.808-.092,29.538,29.538,0,0,1,6.836.9q1.941.532,3.762,1.122c.5.164,1.429.16,1.641-.467,1.006-2.951-6.894-3.96-8.4-4.059q-1.654-.113-3.353-.078a.123.123,0,0,1-.123-.16c2.1-6.6,3.875-13.535,10.032-17.649q4.554-.665,9.046-1.46a23.54,23.54,0,0,0,7.354-2.268l2.316-.587a.2.2,0,0,1,.252.113.759.759,0,0,1,.082.365,1.673,1.673,0,0,0,.024.375,39.749,39.749,0,0,0,9.288,17.257,25.9,25.9,0,0,0,6.229,4.663c2.65,1.579,3.391,4.7,3.878,7.668a.17.17,0,0,0,.276.106,12.292,12.292,0,0,1,1.955-1.354c3.039-1.688,6.246.177,7.225,3.285,1.443,4.574.147,8.5-2.828,11.987a8.813,8.813,0,0,1-7.811,3.2.178.178,0,0,0-.212.164q-.389,2.21-1.006,4.506a30.186,30.186,0,0,1-11.2,16.711m8.265-44.379c-4.393-3.442-11.383-2.862-16.353-1.225a4.885,4.885,0,0,0-1.709.986,1.546,1.546,0,0,0-.222,2.323,1,1,0,0,0,.928.15c1.617-.426,3.752-1.221,5.628-1.583a31.426,31.426,0,0,1,9.213-.31c.928.1,1.767.467,2.695.556a.174.174,0,0,0,.19-.156.2.2,0,0,0,0-.025.921.921,0,0,0-.372-.716m-16.336,9.783a3.924,3.924,0,0,0,1.641,1.33q1.627.682,2.992,1.252a3.937,3.937,0,0,0,2.118.334,5.083,5.083,0,0,0,1.828-.675q.689-.413,1.436-.778a13.608,13.608,0,0,0,2.872-2.067.177.177,0,0,0-.041-.293.225.225,0,0,0-.133-.01,4.439,4.439,0,0,0,4.083-3.05.419.419,0,0,0-.334-.634,5.351,5.351,0,0,0-2.043.362.244.244,0,0,1-.27-.092,1.612,1.612,0,0,0-.686-.515,12.494,12.494,0,0,0-9.776.041,7.713,7.713,0,0,0-4.254,4.107.477.477,0,0,0,.237.63.471.471,0,0,0,.138.038Zm25.3.5q-.655-.331-.031-.71,1.375-.836,2.821-1.675a.872.872,0,0,0,.467-.621.494.494,0,0,0-.414-.564.488.488,0,0,0-.074-.006c-3.442.017-5.679,2.05-5.41,5.622a1.624,1.624,0,0,0,.989,1.4.611.611,0,0,1,.116,1.02A16.243,16.243,0,0,0,222.3,110.5c-.546.546-1.126,2.043-.563,2.831a.415.415,0,0,0,.269.177c2.292.457,4.888-2.521,5.894-4.23a1.689,1.689,0,0,0-.092-2.053,8,8,0,0,0-2.743-2.309m-37.706,15.6q1.218.549,2.34,1.034c1.948.843,3.4-.113,5.124-.9a.28.28,0,0,0,.139-.37.266.266,0,0,0-.026-.046,15.011,15.011,0,0,1-2.63-6.3q-.569-3.34-1.31-7.01a4.965,4.965,0,0,0-.778-1.859.314.314,0,0,0-.549.055,2.17,2.17,0,0,0-.154.6,120.063,120.063,0,0,1-2.415,14.269.462.462,0,0,0,.259.529m-13.621.686q4.046-.235,5.052-3.442c.955-3.032-1.364-5.246-4-6.147-2.664-.907-5.6.887-6.846,3.193-1.453,2.691.652,5.376,3.247,6.12a7.618,7.618,0,0,0,2.545.276m31.195-8.187a4.886,4.886,0,0,0-1.613,2.722,4.4,4.4,0,0,0,1.634,3.943,6.488,6.488,0,0,0,4,1.453,6.173,6.173,0,0,0,3.486-.7,3.871,3.871,0,0,0,1.968-5.226,5.313,5.313,0,0,0-1.62-2.125q-4.148-3.261-7.859-.065m-21.35,15.19a6.616,6.616,0,0,0,4,2.947,12.4,12.4,0,0,0,7.818-.409,4.386,4.386,0,0,0,2.313-2.262q1.552-.61,2.241-.972A8.3,8.3,0,0,0,201.913,126a.6.6,0,0,0-.038-1l-.16-.14a.572.572,0,0,0-.806.053l-.026.032a3.4,3.4,0,0,1-2.35,1.347,50.141,50.141,0,0,1-13.116.194,10.119,10.119,0,0,1-4.448-1.641.576.576,0,0,0-.877.529,1.751,1.751,0,0,0,.976,1.48q1.235.689,2.521,1.347" transform="translate(-100.77 -46.093)" fill="#f7bc9e"/>
        <path id="Trazado_876913" data-name="Trazado 876913" d="M257.373,71.666a23.54,23.54,0,0,1-7.354,2.268q-4.492.795-9.046,1.46,0-.129.055-.16a1.7,1.7,0,0,0,.518-.467,1.175,1.175,0,0,1,1.027-.553q3.524-.352,6.911-.955.037-.007,1.938-.28a12,12,0,0,0,3.421-1.023,6.149,6.149,0,0,1,2.531-.29" transform="translate(-158.774 -47.207)" fill="#e27364"/>
        <path id="Trazado_876914" data-name="Trazado 876914" d="M257.932,72.555a12,12,0,0,1-3.421,1.023q-1.9.273-1.937.28-3.387.6-6.911.955a11.958,11.958,0,0,1,2.848-.952,66.28,66.28,0,0,1,9.421-1.306" transform="translate(-161.864 -47.806)" fill="#f7bc9e"/>
        <path id="Trazado_876915" data-name="Trazado 876915" d="M205.842,81.672c-.036.02-.055.074-.055.16-6.157,4.114-7.931,11.049-10.032,17.649a.126.126,0,0,0,.123.16q1.7-.034,3.353.078c1.511.1,9.411,1.109,8.4,4.059-.212.628-1.139.631-1.641.467q-1.822-.59-3.762-1.122a29.537,29.537,0,0,0-6.836-.9,2.523,2.523,0,0,0-.808.092.387.387,0,0,0-.235.191,34.656,34.656,0,0,1-3.022,4.544.324.324,0,0,1-.42.082l-.106-.065a.236.236,0,0,1-.088-.323.242.242,0,0,1,.016-.025,27.217,27.217,0,0,0,2.589-4.243,1.377,1.377,0,0,0,.136-.484q.048-.542-.2-.058a48.574,48.574,0,0,1-2.736,4.69.382.382,0,0,0-.031.4l.256.559a.169.169,0,0,0,.28.085l1.03-.631a1.094,1.094,0,0,1,.327-.136c.59-.14.935-.549,1.487-.614,4.69-.539,9.3.15,11.959,4.363a1.219,1.219,0,0,1,.143,1.122q-.454.256-.658-.014a10.211,10.211,0,0,0-2.855-2.558q-.178-.105-.1.085c.863,2.129.2,4.595-2.207,5.127a3.4,3.4,0,0,1-3.183-.7,3.557,3.557,0,0,1-.952-3.776q.119-.3.215-.59.075-.222-.157-.208a10.749,10.749,0,0,1-3.49-.123q-.577-.174-.174.276a1.594,1.594,0,0,1,.239,1.811,3.751,3.751,0,0,1-3.237-1.634q-.113-.146-.229,0l-.9,1.1-.716-1.238q2.333-3.056,3.756-5.287a14.567,14.567,0,0,0,1.044-2.081,3.033,3.033,0,0,1,.863-.75.187.187,0,0,0,.1-.242,1.078,1.078,0,0,1,.194-1.01q.743-.037.914-.546,1.3-3.9,3.043-8.5a25.257,25.257,0,0,1,2.992-5.369,15.885,15.885,0,0,1,1.467-1.75q.764-.8,1.508-1.74a2.2,2.2,0,0,1,.812-.273.548.548,0,0,0,.293-.13.976.976,0,0,1,1.289.024m-8.968,25.192a6.315,6.315,0,0,0-1.648-.106h0a6.308,6.308,0,0,0-1.647.112,6.306,6.306,0,0,0,1.648.106h0a6.3,6.3,0,0,0,1.647-.112" transform="translate(-123.589 -53.645)" fill="#253038"/>
        <path id="Trazado_876916" data-name="Trazado 876916" d="M214.945,83.275q-.743.938-1.508,1.74a15.881,15.881,0,0,0-1.467,1.75,25.248,25.248,0,0,0-2.992,5.369q-1.743,4.6-3.043,8.5-.17.508-.914.546a6.294,6.294,0,0,1,.5-1.852c1.279-2.954,2.309-6.007,3.476-9.009a13.86,13.86,0,0,1,5.946-7.041" transform="translate(-135.087 -54.869)" fill="#f7bc9e"/>
        <path id="Trazado_876917" data-name="Trazado 876917" d="M285.6,136.194c4.97-1.637,11.959-2.217,16.353,1.225a.921.921,0,0,1,.372.716.174.174,0,0,1-.166.181h-.025c-.928-.089-1.767-.46-2.695-.556a31.426,31.426,0,0,0-9.213.31c-1.876.362-4.011,1.156-5.628,1.583a1,1,0,0,1-.928-.15,1.546,1.546,0,0,1,.222-2.323,4.885,4.885,0,0,1,1.709-.986" transform="translate(-186.616 -88.88)" fill="#253038"/>
        <path id="Trazado_876918" data-name="Trazado 876918" d="M181.451,141.451a14.568,14.568,0,0,1-1.044,2.081q-1.422,2.231-3.756,5.287a27.675,27.675,0,0,1-4.663,4.291,2.567,2.567,0,0,1-.89.426q-.178.045-.041-.078a56.813,56.813,0,0,0,9.988-11.915q.2-.311.406-.092" transform="translate(-112.669 -93.141)" fill="#f9c3b8"/>
        <path id="Trazado_876919" data-name="Trazado 876919" d="M301.77,158.84a1.555,1.555,0,0,1,.392-1.549.136.136,0,0,0-.1-.229,28.548,28.548,0,0,1-3.643-.246.109.109,0,0,0-.116.154c2.476,5.536-5.952,7.528-6.423,2.207a3.937,3.937,0,0,1,.341-2.094q.089-.178-.089-.085a8.432,8.432,0,0,0-3.073,2.749l-.191-.02a.477.477,0,0,1-.375-.669,7.713,7.713,0,0,1,4.254-4.107,12.494,12.494,0,0,1,9.776-.041,1.611,1.611,0,0,1,.686.515.244.244,0,0,0,.27.092,5.35,5.35,0,0,1,2.043-.362.419.419,0,0,1,.334.634,4.439,4.439,0,0,1-4.083,3.05" transform="translate(-190.056 -101.426)" fill="#253038"/>
        <path id="Trazado_876920" data-name="Trazado 876920" d="M206.829,155.7a6.3,6.3,0,0,1,1.648.106,12.49,12.49,0,0,1-3.3.005,6.33,6.33,0,0,1,1.647-.112" transform="translate(-135.192 -102.592)" fill="#d4c6c2"/>
        <path id="Trazado_876921" data-name="Trazado 876921" d="M396.968,158.1a61.555,61.555,0,0,1,.344,7.371,36.779,36.779,0,0,1-2.466,12.761,7.106,7.106,0,0,1-.713,1.4q-.174.259-.113-.044c1.528-7.44,3.183-15.387,2.4-23.3q-.065-.682.154-.031a8.654,8.654,0,0,1,.389,1.852" transform="translate(-259.606 -102.742)" fill="#01d2b5"/>
        <path id="Trazado_876922" data-name="Trazado 876922" d="M357.527,165.55a8,8,0,0,1,2.743,2.309,1.689,1.689,0,0,1,.092,2.053c-1.006,1.709-3.6,4.687-5.894,4.23a.415.415,0,0,1-.27-.177c-.563-.788.017-2.285.563-2.831a16.259,16.259,0,0,1,1.231-1.115.61.61,0,0,0-.116-1.02,1.624,1.624,0,0,1-.989-1.4c-.269-3.571,1.968-5.6,5.41-5.622a.5.5,0,0,1,.494.5.485.485,0,0,1-.006.074.873.873,0,0,1-.467.621q-1.446.839-2.821,1.675-.624.379.031.709" transform="translate(-233.225 -106.724)" fill="#e27364"/>
        <path id="Trazado_876923" data-name="Trazado 876923" d="M215.011,164.968a14.837,14.837,0,0,1-5.891,3.005,3.394,3.394,0,0,1-1.7.027,10.254,10.254,0,0,1-5.734-3.7,1.594,1.594,0,0,0-.239-1.811q-.4-.45.174-.276a10.749,10.749,0,0,0,3.49.123q.232-.014.157.208-.1.29-.215.59a3.557,3.557,0,0,0,.952,3.776,3.4,3.4,0,0,0,3.183.7c2.4-.532,3.07-3,2.207-5.127q-.078-.191.1-.085a10.21,10.21,0,0,1,2.855,2.558q.2.27.658.014" transform="translate(-132.626 -106.847)" fill="#fff"/>
        <path id="Trazado_876924" data-name="Trazado 876924" d="M302.945,164.405a.225.225,0,0,1,.133.01.177.177,0,0,1,.084.236.175.175,0,0,1-.043.057,13.609,13.609,0,0,1-2.872,2.067q-.747.365-1.436.778a5.083,5.083,0,0,1-1.828.675,3.937,3.937,0,0,1-2.118-.334q-1.365-.57-2.992-1.252a3.924,3.924,0,0,1-1.641-1.33,8.432,8.432,0,0,1,3.073-2.749q.178-.092.089.085a3.937,3.937,0,0,0-.341,2.094c.471,5.321,8.9,3.329,6.423-2.207a.109.109,0,0,1,.116-.153,28.547,28.547,0,0,0,3.643.246.136.136,0,0,1,.1.229,1.555,1.555,0,0,0-.392,1.549" transform="translate(-191.231 -106.991)" fill="#fff"/>
        <path id="Trazado_876925" data-name="Trazado 876925" d="M253.337,188.071a.462.462,0,0,1-.259-.529,120.063,120.063,0,0,0,2.415-14.269,2.168,2.168,0,0,1,.154-.6.314.314,0,0,1,.549-.055,4.965,4.965,0,0,1,.778,1.859q.74,3.67,1.31,7.01a15.01,15.01,0,0,0,2.63,6.3.28.28,0,0,1-.067.39.27.27,0,0,1-.046.026c-1.723.785-3.176,1.74-5.124.9q-1.122-.485-2.34-1.034" transform="translate(-166.742 -113.646)" fill="#e27364"/>
        <path id="Trazado_876926" data-name="Trazado 876926" d="M163.618,184.255a12.808,12.808,0,0,1,1.388,3.8.91.91,0,0,1-.9,1.068,3.567,3.567,0,0,1-3.077-1.064,3.82,3.82,0,0,1-1.04-1.859Z" transform="translate(-105.417 -121.404)" fill="#e27364"/>
        <path id="Trazado_876927" data-name="Trazado 876927" d="M201.826,201.21a7.618,7.618,0,0,1-2.545-.276c-2.6-.744-4.7-3.428-3.247-6.12,1.248-2.306,4.182-4.1,6.846-3.193,2.633.9,4.953,3.114,4,6.147q-1.006,3.207-5.052,3.442" transform="translate(-128.851 -126.099)" fill="#ee9c91"/>
        <path id="Trazado_876928" data-name="Trazado 876928" d="M300.626,195.861a4.887,4.887,0,0,1,1.613-2.722q3.711-3.2,7.859.065a5.313,5.313,0,0,1,1.62,2.125,3.871,3.871,0,0,1-1.968,5.226,6.173,6.173,0,0,1-3.486.7,6.488,6.488,0,0,1-4-1.453,4.4,4.4,0,0,1-1.634-3.943" transform="translate(-198.07 -126.215)" fill="#ee9c91"/>
        <path id="Trazado_876929" data-name="Trazado 876929" d="M250.165,234.271q-2.558.276-5.106.58a9.17,9.17,0,0,1-1.692,0q-.675-.045-1.712-.058a38.3,38.3,0,0,1-5.618-.8q-1.286-.658-2.521-1.347a1.751,1.751,0,0,1-.976-1.48.576.576,0,0,1,.877-.529,10.119,10.119,0,0,0,4.448,1.641,50.141,50.141,0,0,0,13.116-.194,3.4,3.4,0,0,0,2.35-1.347.571.571,0,0,1,.8-.111l.032.026.16.14a.6.6,0,0,1,.038,1,8.3,8.3,0,0,1-1.955,1.511q-.689.362-2.241.972" transform="translate(-153.217 -151.881)" fill="#dd5d44"/>
        <path id="Trazado_876930" data-name="Trazado 876930" d="M242.792,240.725a38.3,38.3,0,0,0,5.618.8q1.037.014,1.712.058a9.17,9.17,0,0,0,1.692,0q2.548-.3,5.106-.58a4.386,4.386,0,0,1-2.313,2.262,12.4,12.4,0,0,1-7.818.409,6.616,6.616,0,0,1-4-2.947" transform="translate(-159.973 -158.611)" fill="#e27364"/>
        <path id="Trazado_876931" data-name="Trazado 876931" d="M51.277,311.066q-.123.457-.409.362c-1.555-2.245-3.339-4.243-4.339-6.9a30.728,30.728,0,0,1,6.12-31.113c3.483-3.885,7.358-6.328,12.594-9.926a20.2,20.2,0,0,0,1.876-1.648q.368-.324.167.119a18.217,18.217,0,0,1-6.686,7.5A46.94,46.94,0,0,0,49.016,280.3a16.761,16.761,0,0,0-3.125,9.517,38.089,38.089,0,0,0,3.063,16.056q1.126,2.637,2.323,5.2" transform="translate(-29.442 -172.434)" fill="#01d2b5"/>
        <path id="Trazado_876932" data-name="Trazado 876932" d="M412.411,314.148a1.065,1.065,0,0,1-1-.846,30.411,30.411,0,0,0,2.521-16.554,20.7,20.7,0,0,0-4.973-11.158,21.548,21.548,0,0,0-4.922-4.052q-2.811-1.753-5.628-3.316c-4.172-2.309-8.395-5.209-9.261-9.906q-.17-.921.194-.058a18.262,18.262,0,0,0,6.873,8.064q1.91,1.286,4.08,2.517,2.732,1.552,5.976,3.776a26.109,26.109,0,0,1,4.155,3.449,19.675,19.675,0,0,1,5.519,13.017,29.283,29.283,0,0,1-3.534,15.067" transform="translate(-256.369 -176.478)" fill="#01d2b5"/>
        <path id="Trazado_876933" data-name="Trazado 876933" d="M212.207,271.495a32.027,32.027,0,0,0,7.03,4.421,25.466,25.466,0,0,0,23-1.146,31.452,31.452,0,0,0,4.424-2.968l.515,10.36A26.806,26.806,0,0,1,236.9,288.25a24.191,24.191,0,0,1-14.835.28,22.057,22.057,0,0,1-8.337-4.547,23.494,23.494,0,0,1-1.866-1.968Z" transform="translate(-139.594 -178.885)" fill="#dd5d44"/>
        <path id="Trazado_876934" data-name="Trazado 876934" d="M202.453,302.335a23.5,23.5,0,0,0,1.866,1.968,22.057,22.057,0,0,0,8.337,4.547,24.191,24.191,0,0,0,14.835-.28,26.806,26.806,0,0,0,10.281-6.089l1.214,13.088q.43,1.9.941,3.578a27.468,27.468,0,0,1,.88,3.578q.583,3.67,1.044,7.351a24.174,24.174,0,0,1-3.022,1.422,46.648,46.648,0,0,1-11.383,3.114,65.671,65.671,0,0,1-9.019.389,48.425,48.425,0,0,1-17.973-4.066,18.96,18.96,0,0,1-2.872-1.559q.723-5.318,1.641-9.135a19.263,19.263,0,0,1,1.48-3.885,2.982,2.982,0,0,0,.116-1.115q.259-.15.355-.921.894-7.047,1.279-11.987" transform="translate(-130.185 -199.205)" fill="#f7bc9e"/>
        <path id="Trazado_876935" data-name="Trazado 876935" d="M147.472,340.175a2.982,2.982,0,0,1-.116,1.115,19.264,19.264,0,0,0-1.48,3.885q-.917,3.817-1.641,9.135-.614,3.609-.883,5.823-.716,5.915-1.317,13.621-1.49,19.061-2.316,32a163.368,163.368,0,0,0-.191,20.637q.406,6.512,1.044,13.129.972,10.046,2.033,20.3-1.406-.682-4.932-2.258c-3.9-1.74-6.983-4.557-10.353-7.975q.119.034.164-.027a.146.146,0,0,0,0-.13q-.529-1.682-.935-3.432-2.292-9.879-4.376-18.99-2.4-10.489-4.162-22.65c-.73-5.059-1.139-9.967-1.4-14.978a1.48,1.48,0,0,1,.631-1.3q2.2-1.685,2.954-2.152,3.357-2.094,6.921-4.421a1.749,1.749,0,0,0,.508-.573.285.285,0,0,1,.3-.143.569.569,0,0,1,.348.191.237.237,0,0,0,.335.016l0,0,.065-.061a.155.155,0,0,0,.014-.211,7.877,7.877,0,0,0-1.542-1.351q-4.343-2.954-8.122-6.007a.9.9,0,0,1-.273-1.023c3.07-7.91,5.543-13.412,10.148-23.482a1.711,1.711,0,0,1,1.074-1.071q6.7-2.988,13.337-6.123a22.892,22.892,0,0,1,4.151-1.491" transform="translate(-76.837 -224.138)" fill="#832916"/>
        <path id="Trazado_876936" data-name="Trazado 876936" d="M318.962,341.135q7.535,3.162,14.722,6.5c.907.423,1.951.58,2.4,1.6q5.438,11.339,9.977,23.052a5.349,5.349,0,0,1,.341,1.474.306.306,0,0,1-.113.28,21.5,21.5,0,0,1-1.723,1.412,84.9,84.9,0,0,0-7.716,5.731q-.273.229.078.266a2.9,2.9,0,0,1,1.231.379q4.851,2.9,9.575,6c.73.478.529,1.245.437,2.169q-1.027,10.257-3.009,20.337a23.5,23.5,0,0,1-3.155-1.034q-4.857-1.971-9.8-3.7a21.8,21.8,0,0,0-4.69-1.15,10.745,10.745,0,0,0-1.477.085,1.694,1.694,0,0,0-1.081.72q-.061-.16-.157-.1a.9.9,0,0,0,.495-1,8.4,8.4,0,0,1-.123-1.095q-.587-13.378-1.405-26.917-.529-8.739-1.658-18.594-.109-.972-.29-1.924-.46-3.68-1.044-7.351a27.449,27.449,0,0,0-.88-3.578q-.512-1.682-.941-3.578" transform="translate(-210.161 -224.77)" fill="#832916"/>
        <path id="Trazado_876937" data-name="Trazado 876937" d="M369.752,364.415q5.4,11.284,9.759,22.687c.218.566.887,2.135.16,2.715-2.729,2.173-5.935,4.158-8.671,6.474a.13.13,0,0,0-.017.183.127.127,0,0,0,.034.029q4.568,2.715,9.057,5.56a10.068,10.068,0,0,1,1.375,1.03c.638.573.4,1.876.341,2.613a153.549,153.549,0,0,1-2.589,18.069q-.178.86-.324,1.876a.18.18,0,0,1-.116.147.517.517,0,0,0-.1.061.912.912,0,0,0-.409-.174q1.982-10.08,3.009-20.337c.092-.924.293-1.692-.437-2.169q-4.724-3.1-9.575-6a2.9,2.9,0,0,0-1.231-.379q-.352-.037-.078-.266a84.887,84.887,0,0,1,7.716-5.731,21.521,21.521,0,0,0,1.723-1.412.306.306,0,0,0,.113-.28,5.35,5.35,0,0,0-.341-1.474q-4.54-11.713-9.977-23.052.024-.17.58-.167" transform="translate(-243.243 -240.109)" fill="#27110d"/>
        <path id="Trazado_876938" data-name="Trazado 876938" d="M155.042,376.934a1.065,1.065,0,0,0,1,.846.789.789,0,0,0,.75.484,29.636,29.636,0,0,1,8.33,9.855,48.225,48.225,0,0,1,2.961,6.832,107.494,107.494,0,0,1,3.667,13.126q.61,2.917,1.532,8.378,1.736,12.447,3.445,24.9,1.985,14.436,3.558,28.919.362,3.332.771,6.778.8,6.693,1.286,13.593a82.112,82.112,0,0,1-.109,14.32A30.572,30.572,0,0,1,175.1,521.6a14.136,14.136,0,0,1-6.641,4.561,5.255,5.255,0,0,1-1.235.239,79.618,79.618,0,0,1-12.9-.113q-.252-.02-1.279-.188a7.429,7.429,0,0,0-1.3-.1.863.863,0,0,0-.546-.273q-2.729-.563-5.5-1.31a1.192,1.192,0,0,1,.113-.9,2.023,2.023,0,0,0,.965-1.528.17.17,0,0,0-.147-.208q-8.074-1.862-16.319-2.964l1.46.027c.027,0,.035-.01.024-.037s-.027-.058-.041-.085a.185.185,0,0,0-.215-.092.092.092,0,0,1-.1-.041q-.055-.088.051-.1c1.006-.089,2.019.044,2.947-.116a45.556,45.556,0,0,0,10.578-2.848,1.008,1.008,0,0,0,.522-1.422,2.762,2.762,0,0,0-2.071-1.242,32.521,32.521,0,0,1,3.5-1.392,21.884,21.884,0,0,0,4.823-2.6.183.183,0,0,0,.065-.075c.014-.03.026-.059.038-.089.036-.093,0-.144-.1-.153l-.194-.02q.522-.314,1-.631c1.115-.754.443-1.917-.723-1.924a52.866,52.866,0,0,0-5.649.256.878.878,0,0,0,.362-.154q.167-.147-.051-.191a3.153,3.153,0,0,0-1.057-.184,12.4,12.4,0,0,1-3.913-.027.076.076,0,0,1-.068-.075.067.067,0,0,1,.068-.085q.764-.055,1.5-.15a.849.849,0,0,0,.512-.246.512.512,0,0,1,.287-.147,9,9,0,0,0,2.3-.737,16.887,16.887,0,0,1,2.1-.785,4.3,4.3,0,0,0,1.228-.57,8.717,8.717,0,0,0,1.054-.856.118.118,0,0,0,0-.17.124.124,0,0,0-.076-.039l-.29-.031c.652-.249,1.914-.8,2.255-1.538a.377.377,0,0,0,.01-.317,1.711,1.711,0,0,0-1.59-1.115q-.917-.075-4.363-.518,1.265-1.224,2.487-2.227.29-.239-.082-.188a.386.386,0,0,1-.181-.055l1.293-.57a.456.456,0,0,0,.252-.263q.614-1.521-.587-1.89a16.328,16.328,0,0,0-2.408-.508q-4.4-.651-8.552-1.242-1.075-.15-3.2-.242a22.768,22.768,0,0,1-3.2-.355,10.152,10.152,0,0,0,1.559-1.706.273.273,0,0,0-.259-.43.309.309,0,0,1-.181-.072q.44.041.471-.106a.565.565,0,0,0-.327-.631,15.761,15.761,0,0,0-3.739-1.129c-4.718-.768-9.265-1.04-13.675.727a67.361,67.361,0,0,0-6.242,2.981,23.243,23.243,0,0,1-2.841,1.3c-1.416.525-2.91.931-4.288,1.542q-.651.29-1.31.566c.009-.084.015-.131.017-.14a.2.2,0,0,0-.151-.232.2.2,0,0,0-.06,0,14.831,14.831,0,0,1-2.855.024.258.258,0,0,1-.239-.2l-.154-.573q-.058-.219-.259-.109a.4.4,0,0,0-.177.362q-.229,3.677-.194,6.253a43.7,43.7,0,0,0,.982,12.781,1.66,1.66,0,0,1-.266,1.259q-.293-.147-.341.174a9.079,9.079,0,0,0,.1,2.3l-.133,2.862a.63.63,0,0,1-.692.675c-1.494.034-3.1-.126-4.462-.072q-1.9.075-3.8.225a.359.359,0,0,1-.232-.037.238.238,0,0,1-.092-.259,76.625,76.625,0,0,1-1.02-28.531.147.147,0,0,0-.124-.169.142.142,0,0,0-.029,0l-.085.007a.264.264,0,0,0-.273.249,76.165,76.165,0,0,0,.375,25.314,17.29,17.29,0,0,0,.938,3.077l.085.181a.253.253,0,0,1-.232.362c-.877-.021-1.7.218-2.538.15a20.412,20.412,0,0,0-2.889-.157q-.822.048-.113.467l1.518.894q.034.348-.027.358a3.043,3.043,0,0,1-1.443-.28,35.444,35.444,0,0,1-3.882-1.341,4.766,4.766,0,0,0-1.91-.362q-2.726.061-5.376.014-8.156-.15-15.353-.321-3.309-.078-6.815-.116-11.13-.126-22.261-.447a1.089,1.089,0,0,0-.737-.164q-.583.024-.744.014a96.565,96.565,0,0,1-11.482-1.051,11.409,11.409,0,0,0-2.453.01q.546-.061.71-.092,1.058-.2.007-.406a7.3,7.3,0,0,1-1.119-.539,15.568,15.568,0,0,0-1.736-.566q.481-.055-.246-.423a1.776,1.776,0,0,1-.375-.246,41.69,41.69,0,0,1-3.305-3.292c-.525-.583-.795-1.422-1.378-2.094a2.5,2.5,0,0,1-.481-.832,3.734,3.734,0,0,0-.471-.911,5.51,5.51,0,0,1-.716-1.279q-.638-1.876-1.19-3.742a1.076,1.076,0,0,0-.194-.286.129.129,0,0,1-.027-.106c.018-.023.035-.045.051-.068a.036.036,0,0,0,0-.017L.141,495.224l-.089-3.657a25.731,25.731,0,0,1-.02-2.9q.314-6.225.665-12.444a.644.644,0,0,0,.249-.433q.092-4.172.5-8.286,1.76-17.7,4.025-35.131.433-3.326.819-6.474l.2-1.77q1.385-10.909,3.517-20.569a90.9,90.9,0,0,1,2.947-10.213,45.132,45.132,0,0,1,4.561-9.63,24.5,24.5,0,0,1,3.5-4.134.456.456,0,0,0,.413-.481q.287.1.409-.362a28.727,28.727,0,0,1,6.628-4.2q11.209-5.195,21.667-9.346.147-.058.634-.321a1.076,1.076,0,0,1,.713-.164q-4.049,8.5-7.614,17.076-1.341,3.223-2.552,6.495c-.334.9.3,1.279.9,1.753q4.12,3.254,8.234,6.12a.317.317,0,0,1,.078.442l-.006.009a1.5,1.5,0,0,1-.389.358C46.7,399.208,43.1,401.2,40,403.8a1.772,1.772,0,0,0-.675,1.211,14.776,14.776,0,0,0,0,2.234q.536,8.364,1.822,16.592,1.593,10.2,3.93,20.487,2.04,8.971,4.11,17.939c.215.928.532,1.808.727,2.746a20.256,20.256,0,0,1-2.163-1.2,17.9,17.9,0,0,0-2.139-1.208q-6.266-2.828-12.536-5.645.1-.068.1-.133.2-18.035-.191-36.2-.15-7.116-.706-12.014a94.792,94.792,0,0,0-7.023-26.252.146.146,0,0,0-.193-.075l-.008,0-.1.048a.246.246,0,0,0-.126.351,91.963,91.963,0,0,1,6.993,26.573q.61,6.307.7,12.9.215,17.182.041,34.534a72.868,72.868,0,0,0-6.887-2.391,39.731,39.731,0,0,0-10.66-1.19c-1.061.01-2.937.136-3.667,1.037q-.621.768.249,1.624a7.508,7.508,0,0,0,2.391,2.1,33.792,33.792,0,0,0,4.6,2.163q4.625,1.678,9.227,3.459a12.305,12.305,0,0,1-2.569.314q-2.016.027-2.562.1a43.73,43.73,0,0,0-16.257,5.164c-.928.532-2.422,1.542-1.808,2.552a1.888,1.888,0,0,0,1.91.781.805.805,0,0,1,.614.075,17.485,17.485,0,0,0,4.373,1.47,10.993,10.993,0,0,0-3.643,2.047,3.583,3.583,0,0,0-.839,1.467q-.259.887.638,1.03.495.078,2.323.191l-.621.092q-.788.119-.048.416a10.879,10.879,0,0,0,3.807.733q1.9.045,3.749.157c-.781.358-3.346,1.8-3.353,2.787a.4.4,0,0,0,.355.437l3,.59a.782.782,0,0,0-.638.1.119.119,0,0,0,.058.211l4.8.7q-.058.1.089.242a5.376,5.376,0,0,0,3.588,1.467q-.515.055-1,.075a3.918,3.918,0,0,0-.986.164,34.569,34.569,0,0,0-6.676,3.026,46.223,46.223,0,0,0-4.523,2.886.256.256,0,0,0-.078.375l.055.089a.153.153,0,0,0,.209.057l.009-.005a58.335,58.335,0,0,1,11.567-6.109,2.473,2.473,0,0,1,1.549-.058,6.5,6.5,0,0,0,1.248.2,9.791,9.791,0,0,1,1.477.218,4.166,4.166,0,0,0,2.347-.2q1.539.143,3.37.211,7.757.29,15.517.478c5.008.123,9.711.57,14.589.8,5.335.249,10.622.706,15.793,1.207a.219.219,0,0,0,.238-.2.258.258,0,0,0,0-.028l-.341-9.64-.341-2.712a.48.48,0,0,1,.546-.536l9.81,1.467.164,12.038a.218.218,0,0,0,.266.246l.106-.007a.169.169,0,0,0,.174-.194L89.645,478.6q-.092-.1-.014-.174a.236.236,0,0,1,.259-.058,7.471,7.471,0,0,0,1.532.375c3.646.423,7.365.965,10.922,1.327q8.405.853,17.3,1.818,6.856.743,13.187,1.385,3.046.307,5.857.679,2.985.4,5.853.788,6.328.856,12.631,1.637,1.675.631,3.316,1.272a40.207,40.207,0,0,1,12.137,7.4.113.113,0,0,0,.153,0l.078-.082a.165.165,0,0,0,0-.232,26.794,26.794,0,0,0-3.466-2.859,42.363,42.363,0,0,0-9.995-5.113,12.639,12.639,0,0,0-2.047-.573q1.992-4.424,3.571-9.029,1.641-4.783,2.241-6.444,1.194-3.285,2.289-6.607c.655-2,1.446-4,2.1-5.935q.928-2.773,1.992-5.5c.539-1.371.986-2.79,1.46-4.179.836-2.47.75-4.649-1.426-6.382a8.587,8.587,0,0,0-2.753-1.562q-8.337-2.545-16.578-5.4a4.56,4.56,0,0,0-2.77-4.864l-1.153-.675q.549-7.873.836-15.732.061-1.736.2-3.421c.239-2.865.423-5.969.812-8.514a75.125,75.125,0,0,1,5.669-20.006.316.316,0,0,0,.007-.252q-.17-.43-.658.082a.454.454,0,0,0-.078.116,61.659,61.659,0,0,0-3.8,11.093,90.78,90.78,0,0,0-2.517,15.776q-.3,4.54-.443,9.084-.184,5.8-.576,11.639a64.4,64.4,0,0,1-10.353-3.623.516.516,0,0,1,.1-.061.18.18,0,0,0,.116-.147q.147-1.017.324-1.876a153.565,153.565,0,0,0,2.589-18.069c.061-.737.3-2.04-.341-2.613a10.061,10.061,0,0,0-1.375-1.03q-4.489-2.845-9.056-5.56a.13.13,0,0,1-.046-.177.125.125,0,0,1,.029-.034c2.736-2.316,5.942-4.3,8.671-6.474.727-.58.058-2.149-.16-2.715q-4.363-11.4-9.759-22.687,1.255.457,2.4,1.01,1.723.829,2.36,1.092,11.352,4.69,17.376,7.249a65.876,65.876,0,0,1,6.392,3.169" transform="translate(0 -240.109)" fill="#983621"/>
        <path id="Trazado_876939" data-name="Trazado 876939" d="M127.952,365.316c-4.6,10.07-7.078,15.572-10.148,23.482a.9.9,0,0,0,.273,1.023q3.78,3.053,8.122,6.007a7.873,7.873,0,0,1,1.542,1.351.155.155,0,0,1-.014.211l-.065.061a.237.237,0,0,1-.335-.011l0,0a.568.568,0,0,0-.348-.191.285.285,0,0,0-.3.143,1.749,1.749,0,0,1-.508.573q-3.565,2.327-6.921,4.421-.751.467-2.954,2.152a1.48,1.48,0,0,0-.631,1.3c.256,5.011.665,9.919,1.4,14.978q1.764,12.161,4.162,22.65,2.084,9.111,4.376,18.99.406,1.75.935,3.432a.146.146,0,0,1,0,.13q-.045.061-.164.027a1.677,1.677,0,0,1-.57-.553c-.194-.938-.512-1.818-.727-2.746q-2.071-8.968-4.11-17.939-2.337-10.288-3.93-20.487-1.286-8.228-1.822-16.592a14.776,14.776,0,0,1,0-2.234,1.772,1.772,0,0,1,.675-1.211c3.094-2.6,6.693-4.588,10.131-6.829a1.5,1.5,0,0,0,.389-.358.318.318,0,0,0-.063-.444l-.009-.006q-4.114-2.865-8.234-6.12c-.6-.474-1.238-.853-.9-1.753q1.211-3.271,2.552-6.495,3.565-8.579,7.614-17.076.553-.14.594.116" transform="translate(-75.881 -240.594)" fill="#27110d"/>
        <path id="Trazado_876940" data-name="Trazado 876940" d="M188.015,381.615a18.994,18.994,0,0,0,2.872,1.559,48.433,48.433,0,0,0,17.973,4.066,65.787,65.787,0,0,0,9.019-.389,46.651,46.651,0,0,0,11.383-3.114,24.287,24.287,0,0,0,3.022-1.422q.181.952.29,1.924,1.129,9.855,1.658,18.594.819,13.539,1.405,26.917a8.4,8.4,0,0,0,.123,1.095.9.9,0,0,1-.495,1,3.856,3.856,0,0,0-2.023,2.248q-4.3-1.76-6.607-2.507-5.509-1.784-11.373-3.67a4.085,4.085,0,0,0-2.248-.007c-3.367.836-3.817,3.206-4.806,6.27q-8.2,25.341-16.066,49.236-.815,2.476-1.559,4.973l-4.2-1.259q-1.061-10.251-2.033-20.3-.638-6.618-1.044-13.129a163.374,163.374,0,0,1,.191-20.637q.825-12.942,2.316-32,.6-7.706,1.317-13.621.27-2.214.883-5.823m3.426,6.183a.324.324,0,0,0-.147-.434l-2.434-1.2a.324.324,0,0,0-.434.147l-.009.018a.324.324,0,0,0,.147.434l2.434,1.2a.324.324,0,0,0,.434-.147Zm40.786-1.182c-.092-.2-.844-.043-1.679.346s-1.437.866-1.345,1.064.844.043,1.679-.346,1.437-.865,1.345-1.064m-39.269,1.4-.14.4a.14.14,0,0,0,.085.177l.955.331a5.574,5.574,0,0,0,2.292.525l.058-.174a5.419,5.419,0,0,0-2.114-1.012h0l-.955-.334a.139.139,0,0,0-.177.085m35.11.335a.317.317,0,0,0-.4-.212l-2.56.773a.318.318,0,0,0-.212.4l.018.059a.317.317,0,0,0,.4.212l2.56-.773a.317.317,0,0,0,.212-.4Zm-30.436,1.087a.126.126,0,0,0-.116.215l.556.529a.127.127,0,0,0,.065.034l2.606.474a.127.127,0,0,0,.146-.1.125.125,0,0,0-.033-.108l-.362-.375a.122.122,0,0,0-.065-.034Zm25.989.338a.276.276,0,0,0-.335-.2l-2.636.652a.276.276,0,0,0-.2.335l.015.06a.276.276,0,0,0,.335.2l2.636-.652a.276.276,0,0,0,.2-.335Zm-18.1,1.264a.218.218,0,0,0-.188-.245l-2.813-.375a.218.218,0,0,0-.245.187l-.026.2a.218.218,0,0,0,.188.245l2.813.376a.219.219,0,0,0,.245-.188Zm13.552-.293a.3.3,0,0,0-.34-.254l-2.586.372a.3.3,0,0,0-.254.34l0,.027a.3.3,0,0,0,.34.254l2.586-.373a.3.3,0,0,0,.254-.34Zm-9.095.476a.211.211,0,0,0-.208-.215l-2.736-.043a.211.211,0,0,0-.215.208l0,.184a.212.212,0,0,0,.208.215h0l2.735.043a.212.212,0,0,0,.215-.208Zm4.632-.012a.259.259,0,0,0-.273-.244l-2.8.156a.26.26,0,0,0-.245.274l.006.1a.259.259,0,0,0,.273.245l2.8-.157a.26.26,0,0,0,.245-.273Z" transform="translate(-120.617 -251.442)" fill="#fff"/>
        <path id="Trazado_876941" data-name="Trazado 876941" d="M199.137,394.878l2.434,1.2a.324.324,0,0,1,.147.434l-.009.018a.324.324,0,0,1-.434.147l-2.434-1.2a.324.324,0,0,1-.147-.434l.009-.018a.324.324,0,0,1,.434-.147" transform="translate(-130.895 -260.159)" fill="#e98a7f"/>
        <path id="Trazado_876942" data-name="Trazado 876942" d="M319.657,396.459c.835-.389,1.587-.544,1.679-.346s-.51.674-1.345,1.064-1.586.544-1.679.346.51-.674,1.345-1.064" transform="translate(-209.726 -260.937)" fill="#e98a7f"/>
        <path id="Trazado_876943" data-name="Trazado 876943" d="M211.787,400.2a.14.14,0,0,1,.177-.085l.955.334a5.468,5.468,0,0,1,2.119,1.013h0l-.058.174a5.561,5.561,0,0,1-2.292-.525l-.955-.331a.14.14,0,0,1-.085-.177Z" transform="translate(-139.447 -263.623)" fill="#dd5d44"/>
        <path id="Trazado_876944" data-name="Trazado 876944" d="M305.9,401.482l2.56-.773a.318.318,0,0,1,.4.212l.018.059a.317.317,0,0,1-.212.4l-2.56.773a.317.317,0,0,1-.4-.212l-.018-.059a.317.317,0,0,1,.212-.4" transform="translate(-201.405 -264.014)" fill="#dd5d44"/>
        <path id="Trazado_876945" data-name="Trazado 876945" d="M225.471,404.538l2.8.631a.127.127,0,0,1,.065.034l.362.375a.126.126,0,0,1,0,.178.125.125,0,0,1-.108.033l-2.606-.474a.127.127,0,0,1-.065-.034l-.556-.529a.126.126,0,0,1,.116-.215" transform="translate(-148.457 -266.543)" fill="#dd5d44"/>
        <path id="Trazado_876946" data-name="Trazado 876946" d="M292.846,405.582l2.636-.652a.277.277,0,0,1,.335.2l.015.06a.277.277,0,0,1-.2.335l-2.636.652a.275.275,0,0,1-.334-.2l-.015-.059a.277.277,0,0,1,.2-.335" transform="translate(-192.815 -266.798)" fill="#e27364"/>
        <path id="Trazado_876947" data-name="Trazado 876947" d="M239.573,407.419l2.813.375a.219.219,0,0,1,.188.245l-.026.2a.218.218,0,0,1-.245.188l-2.813-.375a.219.219,0,0,1-.188-.245l.026-.2a.218.218,0,0,1,.245-.188" transform="translate(-157.672 -268.443)" fill="#dd5d44"/>
        <path id="Trazado_876948" data-name="Trazado 876948" d="M279.553,408l2.586-.373a.3.3,0,0,1,.34.254l0,.027a.3.3,0,0,1-.254.34l-2.586.372a.3.3,0,0,1-.34-.254l0-.027a.3.3,0,0,1,.254-.34" transform="translate(-184.025 -268.582)" fill="#dd5d44"/>
        <path id="Trazado_876949" data-name="Trazado 876949" d="M252.916,409.022l2.735.043a.211.211,0,0,1,.208.215l0,.184a.212.212,0,0,1-.215.208l-2.735-.043a.212.212,0,0,1-.208-.215l0-.184a.212.212,0,0,1,.215-.208" transform="translate(-166.5 -269.5)" fill="#dd5d44"/>
        <path id="Trazado_876950" data-name="Trazado 876950" d="M266.065,409.183l2.8-.157a.26.26,0,0,1,.274.245l.006.1a.259.259,0,0,1-.245.273l-2.8.157a.259.259,0,0,1-.274-.244l-.005-.1a.258.258,0,0,1,.244-.273" transform="translate(-175.146 -269.503)" fill="#dd5d44"/>
        <path id="Trazado_876951" data-name="Trazado 876951" d="M427.888,462.612l-.546-.136q.392-5.836.577-11.639.147-4.544.443-9.084a90.779,90.779,0,0,1,2.517-15.776,61.654,61.654,0,0,1,3.8-11.093.451.451,0,0,1,.078-.116q.488-.512.658-.082a.316.316,0,0,1-.007.252,75.122,75.122,0,0,0-5.669,20.006c-.389,2.545-.573,5.649-.812,8.514q-.14,1.685-.2,3.421-.287,7.859-.836,15.732" transform="translate(-281.571 -273.103)" fill="#4a2112"/>
        <path id="Trazado_876952" data-name="Trazado 876952" d="M80.985,491.426l-.512-.266q.174-17.352-.041-34.534-.085-6.594-.7-12.9a91.962,91.962,0,0,0-6.993-26.573.246.246,0,0,1,.126-.351l.1-.048a.147.147,0,0,1,.2.063l0,.008a94.792,94.792,0,0,1,7.023,26.252q.556,4.9.706,12.014.389,18.168.191,36.2,0,.065-.1.133" transform="translate(-47.91 -274.584)" fill="#27110d"/>
        <path id="Trazado_876953" data-name="Trazado 876953" d="M247.771,523.2a6.288,6.288,0,0,1-.225,1.358q-1.078,3.691-2.248,7.661c-.873,2.951-.273,5.274,2.8,6.283q7.784,2.561,16.81,5.6,6.382,2.145,12.945,4.291c1.453.474,1.961-.215,2.862-.962a.123.123,0,0,0,.019-.173.129.129,0,0,0-.039-.032.609.609,0,0,0-.321-.021,2.2,2.2,0,0,0,1.859-1.3,59.042,59.042,0,0,0,2.016-6.891,21.553,21.553,0,0,1,1.139-3.415q8.241,2.852,16.578,5.4a8.579,8.579,0,0,1,2.753,1.562c2.176,1.733,2.262,3.912,1.426,6.382-.474,1.388-.921,2.807-1.46,4.179q-1.064,2.725-1.992,5.5c-.652,1.938-1.443,3.94-2.1,5.935q-1.095,3.322-2.289,6.607-.6,1.661-2.241,6.444-1.58,4.605-3.571,9.029l-.174.188q-6.3-.781-12.631-1.637-2.869-.389-5.853-.788-2.811-.372-5.857-.679-6.331-.642-13.187-1.385-8.893-.966-17.3-1.818c-3.558-.362-7.276-.9-10.922-1.327a7.488,7.488,0,0,1-1.532-.375.235.235,0,0,0-.259.058q-.078.075.014.174l-.1-.191a.178.178,0,0,0-.246-.1l-.136.051-9.81-1.467a.481.481,0,0,0-.544.407.488.488,0,0,0,0,.128l.341,2.712c-3.022-.942-6.051-1.733-8.971-2.845a.3.3,0,0,1-.14-.092.334.334,0,0,1-.072-.16q.743-2.5,1.559-4.973,7.869-23.895,16.066-49.236c.989-3.063,1.439-5.434,4.806-6.27a4.086,4.086,0,0,1,2.248.007q5.864,1.886,11.373,3.67,2.309.747,6.607,2.507m19.475,46.6a.6.6,0,0,0-.383-.758l-30.279-9.955a.6.6,0,0,0-.758.383l-.223.68a.6.6,0,0,0,.383.758l30.279,9.955a.6.6,0,0,0,.758-.383Zm6.449-3a.434.434,0,0,0-.275-.547l-19.937-6.593a.433.433,0,0,0-.547.275l-.334,1.01a.433.433,0,0,0,.275.547l19.937,6.593a.433.433,0,0,0,.547-.275Z" transform="translate(-135.146 -340.557)" fill="#6b9aa2"/>
        <path id="Trazado_876954" data-name="Trazado 876954" d="M330.93,526.784q-.037.669.345.723a2.226,2.226,0,0,0-1.4.307,4.033,4.033,0,0,0-1.221,2.013q-1.436,4.434-2.582,8.975a3.5,3.5,0,0,0-.181,1.419c.269.921,1.351,1.218,2.139,1.487q8.91,3.053,18.144,6.082,4.762,1.562,8.879,2.974,1.549.529,3.063.887a.545.545,0,0,0,.334-.065.93.93,0,0,0,.7-.4,11.314,11.314,0,0,0,1.085-2.446q1.126-3.762,2.04-7.348a3.167,3.167,0,0,0,.126-1.18c-.177-1.139-1.375-1.951-2.415-2.367l.733.065a.343.343,0,0,0,.286-.1.46.46,0,0,0,.13-.218.181.181,0,0,0-.242-.218q-.1.041.147-.1a4.56,4.56,0,0,1,2.77,4.864,21.567,21.567,0,0,0-1.139,3.414,59.035,59.035,0,0,1-2.016,6.891,2.2,2.2,0,0,1-1.859,1.3c-1.525.4-3.353-.29-4.84-.781l-27.289-9.016a3.49,3.49,0,0,1-2.47-2.681,7.03,7.03,0,0,1,.43-3.234q1.2-3.984,2.521-8.729a4.084,4.084,0,0,1,1.228-1.712,1.694,1.694,0,0,1,1.081-.72,10.754,10.754,0,0,1,1.477-.085" transform="translate(-213.567 -347.092)" fill="#b0cdd3"/>
        <path id="Trazado_876955" data-name="Trazado 876955" d="M344.056,526.785a21.8,21.8,0,0,1,4.69,1.15q4.943,1.729,9.8,3.7a23.485,23.485,0,0,0,3.155,1.034.912.912,0,0,1,.409.174,64.409,64.409,0,0,0,10.353,3.623l.546.136,1.153.675q-.242.143-.147.1a.181.181,0,0,1,.242.218.46.46,0,0,1-.13.218.343.343,0,0,1-.286.1l-.733-.065q-4.373-1.6-8.787-3.114c-.877-.3-1.8-.791-2.63-1.081-2.927-1.016-5.5-1.917-8.715-3.182q-4.233-1.664-8.576-2.964-.382-.055-.345-.723" transform="translate(-226.692 -347.093)" fill="#cddfe2"/>
        <path id="Trazado_876956" data-name="Trazado 876956" d="M326.712,528.822q.1-.061.157.1a4.086,4.086,0,0,0-1.228,1.712q-1.316,4.745-2.521,8.729a7.031,7.031,0,0,0-.43,3.234,3.491,3.491,0,0,0,2.47,2.681l27.289,9.016c1.487.491,3.316,1.177,4.84.781a.616.616,0,0,1,.321.021.123.123,0,0,1,.052.165.121.121,0,0,1-.032.039c-.9.747-1.409,1.436-2.862.962q-6.563-2.146-12.945-4.291-9.026-3.036-16.81-5.6c-3.07-1.01-3.67-3.333-2.8-6.283q1.17-3.971,2.248-7.661a6.287,6.287,0,0,0,.225-1.358,3.857,3.857,0,0,1,2.023-2.248" transform="translate(-212.064 -348.424)" fill="#304352"/>
        <path id="Trazado_876957" data-name="Trazado 876957" d="M342.371,528.875q4.343,1.3,8.576,2.964c3.217,1.266,5.789,2.166,8.715,3.183.829.29,1.753.778,2.63,1.081q4.414,1.518,8.787,3.114c1.04.416,2.238,1.228,2.415,2.367a3.166,3.166,0,0,1-.126,1.18q-.914,3.585-2.04,7.348a11.317,11.317,0,0,1-1.085,2.446.93.93,0,0,1-.7.4.613.613,0,0,1-.1-.017c-.079-.018-.1-.064-.061-.136a11.927,11.927,0,0,0,1.016-2.6q.887-3.4,1.76-6.822a.307.307,0,0,0-.068-.29.85.85,0,0,1-.239-.6l.795.037a.394.394,0,0,0,.409-.355,1.849,1.849,0,0,0-1.764-2.156.358.358,0,0,0-.484.368,2.011,2.011,0,0,1-.4.958.694.694,0,0,0-.273-.065,2.734,2.734,0,0,1-.089-1.31.4.4,0,0,0-.3-.447q-.9-.218-1.712-.484-4.66-1.542-8.548-2.838a.664.664,0,0,0-.955.45.2.2,0,0,1-.269.143,51.26,51.26,0,0,1-5.475-1.774c-.389-.15-.826-.314-.952-.764a2.341,2.341,0,0,0-1.552-1.491q-3.152-1.262-6.317-2.415a.769.769,0,0,0-.754.058q-.174.126-.174-.092c.014-.911-.44-1.119-1.265-1.1a7.286,7.286,0,0,1-.805-.034,2.227,2.227,0,0,1,1.4-.307" transform="translate(-224.663 -348.46)" fill="#406474"/>
        <path id="Trazado_876958" data-name="Trazado 876958" d="M338.613,529.8a7.228,7.228,0,0,0,.805.034c.826-.017,1.279.191,1.266,1.1q0,.218.174.092a.768.768,0,0,1,.754-.058q3.166,1.153,6.317,2.415a2.341,2.341,0,0,1,1.552,1.491c.126.45.563.614.952.764a51.288,51.288,0,0,0,5.475,1.774.2.2,0,0,0,.269-.143.664.664,0,0,1,.955-.45q3.889,1.3,8.548,2.838.812.266,1.712.484a.4.4,0,0,1,.3.447,2.734,2.734,0,0,0,.089,1.31,4.978,4.978,0,0,1-1.453-.184l-9.445-3.223c-.9-.307-1.648-.846-2.541-1.1q-1.058-.3-1.961-.652-1.4-.536-2.838-.969-2.156-.648-2.862-.887-3.967-1.33-7.968-2.562-.495-.153-1.32-.508a4.034,4.034,0,0,1,1.221-2.013" transform="translate(-222.304 -349.083)" fill="#ee9c91"/>
        <path id="Trazado_876959" data-name="Trazado 876959" d="M332.008,535.705q.825.354,1.32.508,4,1.231,7.968,2.562.706.239,2.862.887,1.436.433,2.838.969.9.348,1.961.651c.894.256,1.644.795,2.541,1.1l9.445,3.223a4.981,4.981,0,0,0,1.453.184.694.694,0,0,1,.273.065.521.521,0,0,0,.321.539q.569.331,1.122.607a.85.85,0,0,0,.239.6.306.306,0,0,1,.068.29q-.873,3.418-1.76,6.822a11.93,11.93,0,0,1-1.017,2.6c-.039.073-.018.118.061.136a.615.615,0,0,0,.1.017.545.545,0,0,1-.334.065q-1.515-.358-3.063-.887-4.117-1.412-8.879-2.975-9.234-3.029-18.144-6.082c-.788-.27-1.869-.566-2.139-1.487a3.5,3.5,0,0,1,.181-1.419q1.146-4.54,2.582-8.975" transform="translate(-216.919 -352.97)" fill="#6b9aa2"/>
        <path id="Trazado_876960" data-name="Trazado 876960" d="M428.714,564.022q-.553-.276-1.122-.607a.521.521,0,0,1-.321-.539,2.012,2.012,0,0,0,.4-.959.358.358,0,0,1,.484-.368,1.849,1.849,0,0,1,1.764,2.156.394.394,0,0,1-.409.355Z" transform="translate(-281.521 -369.99)" fill="#ee9c91"/>
        <path id="Trazado_876961" data-name="Trazado 876961" d="M41.208,627.993l.512.266q6.269,2.818,12.536,5.645a17.891,17.891,0,0,1,2.139,1.208,20.234,20.234,0,0,0,2.163,1.2,1.678,1.678,0,0,0,.57.553c3.37,3.418,6.454,6.235,10.353,7.975q3.527,1.576,4.932,2.258l4.2,1.259a.333.333,0,0,0,.072.16.3.3,0,0,0,.14.092c2.92,1.112,5.949,1.9,8.971,2.845l.341,9.64a.218.218,0,0,1-.21.226H87.9c-5.171-.5-10.458-.958-15.793-1.208-4.878-.232-9.582-.679-14.589-.8q-7.76-.188-15.517-.478-1.832-.068-3.37-.211l-5.2-.713a5.376,5.376,0,0,1-3.588-1.467c-.1-.1-.127-.178-.089-.242a1.287,1.287,0,0,1,.808-.423,89.928,89.928,0,0,0,12.2-2.449.2.2,0,0,0,.138-.241l0-.015-.038-.109a.137.137,0,0,0-.16-.089q-3.878.863-7.61,1.641a35.465,35.465,0,0,1-9.555.679l-3-.59a.4.4,0,0,1-.355-.437c.007-.982,2.572-2.429,3.353-2.787a140.462,140.462,0,0,1,14.91-3.455.15.15,0,0,0,.092-.242l-.058-.075a.57.57,0,0,0-.515-.222q-4.919.385-9.609.856-2.364.239-5.853.846-2.93.512-5.853.894-1.828-.113-2.323-.191-.9-.143-.638-1.03a3.583,3.583,0,0,1,.839-1.467,10.991,10.991,0,0,1,3.643-2.047,54.86,54.86,0,0,1,12.113-2.606q3.653-.362,7.446-.754a.433.433,0,0,0,.358-.242q.123-.232-.239-.467a.4.4,0,0,0-.2-.061q-5.571-.034-10.537.4c-4.2.369-8.879,1.409-13.317,2.262a.806.806,0,0,0-.614-.075,1.888,1.888,0,0,1-1.91-.781c-.614-1.01.88-2.019,1.808-2.552A43.728,43.728,0,0,1,31.329,635.2q.546-.068,2.562-.1a12.3,12.3,0,0,0,2.569-.314l2.418.3a2.632,2.632,0,0,1,2.306.924.377.377,0,0,0,.28.143.51.51,0,0,0,.46-.184.358.358,0,0,0-.069-.5.354.354,0,0,0-.068-.041l-1.2-.556c-1.01-.539-2-.969-2.947-1.555a28.436,28.436,0,0,0-8.531-3.52q-3.261-.764-6.13-1.637a18.3,18.3,0,0,1-2.736-1.1q-.87-.856-.249-1.624c.73-.9,2.606-1.027,3.667-1.037a39.736,39.736,0,0,1,10.66,1.19,72.872,72.872,0,0,1,6.887,2.391" transform="translate(-8.645 -411.416)" fill="#f7bc9e"/>
        <path id="Trazado_876962" data-name="Trazado 876962" d="M34,632.215a18.289,18.289,0,0,0,2.736,1.1q2.869.873,6.13,1.637a28.436,28.436,0,0,1,8.531,3.52c.945.587,1.938,1.016,2.947,1.555q-.2.437-1.709.215l-2.418-.3q-4.6-1.781-9.227-3.459a33.8,33.8,0,0,1-4.6-2.163,7.508,7.508,0,0,1-2.391-2.1" transform="translate(-22.404 -416.56)" fill="#ce5546"/>
        <path id="Trazado_876963" data-name="Trazado 876963" d="M295.423,640.595,325.7,650.55a.6.6,0,0,1,.383.758l-.224.681a.6.6,0,0,1-.758.383l-30.279-9.955a.6.6,0,0,1-.383-.758l.224-.681a.6.6,0,0,1,.758-.383" transform="translate(-193.984 -422.061)" fill="#c7e9e9"/>
        <path id="Trazado_876964" data-name="Trazado 876964" d="M345.172,642.291l19.937,6.593a.434.434,0,0,1,.275.547l-.334,1.01a.433.433,0,0,1-.547.275l-19.937-6.593a.433.433,0,0,1-.275-.548l.334-1.01a.434.434,0,0,1,.548-.275" transform="translate(-226.835 -423.184)" fill="#c7e9e9"/>
        <path id="Trazado_876965" data-name="Trazado 876965" d="M90.341,655.115l1.2.556a.358.358,0,0,1,.177.474.349.349,0,0,1-.041.068.51.51,0,0,1-.46.184.377.377,0,0,1-.28-.143,2.632,2.632,0,0,0-2.306-.924q1.508.222,1.709-.215" transform="translate(-58.399 -431.648)" fill="#dd5d44"/>
        <path id="Trazado_876966" data-name="Trazado 876966" d="M25.315,677.511a17.49,17.49,0,0,1-4.373-1.47c4.438-.853,9.121-1.893,13.317-2.262q4.967-.433,10.537-.4a.4.4,0,0,1,.2.061q.362.235.239.467a.433.433,0,0,1-.358.242q-3.793.392-7.446.754a54.87,54.87,0,0,0-12.113,2.606" transform="translate(-13.798 -443.681)" fill="#ce5546"/>
        <path id="Trazado_876967" data-name="Trazado 876967" d="M34.2,695.755q-1.852-.113-3.749-.157a10.876,10.876,0,0,1-3.807-.733q-.74-.3.048-.416l.621-.092q2.923-.382,5.853-.894,3.49-.607,5.853-.846,4.69-.471,9.609-.856a.57.57,0,0,1,.515.222l.058.075a.15.15,0,0,1-.092.242,140.477,140.477,0,0,0-14.91,3.456" transform="translate(-17.323 -455.792)" fill="#ce5546"/>
        <path id="Trazado_876968" data-name="Trazado 876968" d="M261.873,698.578l.229,11.847a.169.169,0,0,1-.174.194l-.106.007a.218.218,0,0,1-.266-.246l-.164-12.038.136-.051a.178.178,0,0,1,.246.1Z" transform="translate(-172.228 -460.085)" fill="#253038"/>
        <path id="Trazado_876969" data-name="Trazado 876969" d="M52.406,711.174l-4.8-.7a.12.12,0,0,1-.1-.135.118.118,0,0,1,.044-.077.781.781,0,0,1,.638-.1,35.472,35.472,0,0,0,9.555-.679q3.732-.778,7.61-1.641a.137.137,0,0,1,.16.089l.038.109a.2.2,0,0,1-.118.251l-.015.005a89.947,89.947,0,0,1-12.2,2.449,1.287,1.287,0,0,0-.808.423" transform="translate(-31.298 -466.391)" fill="#ce5546"/>
        <path id="Trazado_876970" data-name="Trazado 876970" d="M321.416,723.582c-4.226-.536-8.848-.774-12.85.791q-4.339,1.7-7,2.572a.151.151,0,0,0-.113.2l.024.1a.108.108,0,0,0,.13.078,12.274,12.274,0,0,1,2.347-.324,108.457,108.457,0,0,0,16.343-1.211,22.787,22.787,0,0,0,3.2.355q2.122.092,3.2.242,4.155.59,8.552,1.242a16.319,16.319,0,0,1,2.408.508q1.2.368.587,1.89a.456.456,0,0,1-.252.263l-1.293.57a18.377,18.377,0,0,1-3.578.464c-3.189.1-6.536.15-9.664.546q-2.125.266-4.1.553a.455.455,0,0,0-.423.5.26.26,0,0,0,.188.252,6.912,6.912,0,0,0,1.252.232,66.086,66.086,0,0,0,14.1-.082q3.445.443,4.363.519a1.71,1.71,0,0,1,1.59,1.115.377.377,0,0,1-.01.317c-.341.733-1.6,1.289-2.255,1.538q-4.533,1.344-5.72,1.593-6.812,1.426-13.293,2.156-.4.048-.416.536a.29.29,0,0,0,.211.3,5.142,5.142,0,0,0,1.555.283,81.184,81.184,0,0,0,13.709-.426,52.818,52.818,0,0,1,5.649-.256c1.167.007,1.839,1.17.723,1.924q-.474.317-1,.631a27.973,27.973,0,0,1-4.847,1.774,47.807,47.807,0,0,1-9.514,1.7q-1.613.106-6.389.126a.464.464,0,0,0-.46.457v.106a.564.564,0,0,0,.563.611,45.038,45.038,0,0,0,12.512-.443,2.762,2.762,0,0,1,2.071,1.242,1.008,1.008,0,0,1-.522,1.422,45.556,45.556,0,0,1-10.578,2.848c-.928.16-1.941.027-2.947.116q-.106.01-.051.1a.092.092,0,0,0,.1.041.185.185,0,0,1,.215.092c.014.027.027.056.041.085s0,.04-.024.038l-1.46-.027q-5.747-.774-11.523-1.5-3.387-.426-9.814-1.921c-1.825-.423-4.247-1.109-6.392-1.59-1.4-.314-2.951-.365-4.448-.587a1.66,1.66,0,0,0,.266-1.259,43.7,43.7,0,0,1-.982-12.781,13.323,13.323,0,0,1,4.073-5.379q.659-.276,1.31-.566c1.378-.611,2.872-1.017,4.288-1.542a23.253,23.253,0,0,0,2.841-1.3,67.381,67.381,0,0,1,6.242-2.981c4.411-1.767,8.958-1.494,13.675-.727a15.766,15.766,0,0,1,3.739,1.129.565.565,0,0,1,.327.631q-.031.147-.471.106" transform="translate(-187.97 -475.139)" fill="#f7bc9e"/>
        <path id="Trazado_876971" data-name="Trazado 876971" d="M460.936,721.415a12.634,12.634,0,0,1,2.047.573,42.36,42.36,0,0,1,9.995,5.113,26.777,26.777,0,0,1,3.466,2.858.165.165,0,0,1,0,.232l-.078.082a.113.113,0,0,1-.154,0,40.2,40.2,0,0,0-12.137-7.4q-1.641-.641-3.316-1.272Z" transform="translate(-303.591 -475.333)" fill="#27110d"/>
        <path id="Trazado_876972" data-name="Trazado 876972" d="M46.942,722.615l5.2.713a4.167,4.167,0,0,1-2.347.2,9.79,9.79,0,0,0-1.477-.218,6.5,6.5,0,0,1-1.248-.2,2.474,2.474,0,0,0-1.549.058,58.348,58.348,0,0,0-11.567,6.109.154.154,0,0,1-.213-.042l-.005-.009-.055-.089a.256.256,0,0,1,.078-.375,46.222,46.222,0,0,1,4.523-2.886,34.564,34.564,0,0,1,6.676-3.026,3.921,3.921,0,0,1,.986-.164q.488-.021,1-.075" transform="translate(-22.156 -476.123)" fill="#4a2112"/>
        <path id="Trazado_876973" data-name="Trazado 876973" d="M352.641,727.55a.311.311,0,0,0,.181.072.273.273,0,0,1,.259.43,10.158,10.158,0,0,1-1.559,1.706,108.457,108.457,0,0,1-16.343,1.211,12.286,12.286,0,0,0-2.347.324.107.107,0,0,1-.13-.078l-.024-.1a.15.15,0,0,1,.113-.2q2.661-.877,7-2.572c4-1.566,8.623-1.327,12.85-.791" transform="translate(-219.195 -479.107)" fill="#dd5d44"/>
        <path id="Trazado_876974" data-name="Trazado 876974" d="M254.764,762.416c-.014.03-.086.011-.218-.055a17.287,17.287,0,0,1-.938-3.077,76.165,76.165,0,0,1-.375-25.314.264.264,0,0,1,.273-.249l.085-.007a.149.149,0,0,1,.155.142.117.117,0,0,1,0,.029,76.625,76.625,0,0,0,1.02,28.531" transform="translate(-166.272 -483.437)" fill="#27110d"/>
        <path id="Trazado_876975" data-name="Trazado 876975" d="M289.666,741.28a13.323,13.323,0,0,0-4.073,5.379q-.034-2.575.194-6.253a.4.4,0,0,1,.177-.361q.2-.109.259.109l.154.573a.258.258,0,0,0,.239.2,14.832,14.832,0,0,0,2.855-.024.2.2,0,0,1,.215.176.191.191,0,0,1,0,.059c0,.009-.008.056-.017.14" transform="translate(-188.171 -487.584)" fill="#dd5d44"/>
        <path id="Trazado_876976" data-name="Trazado 876976" d="M401.687,749.665a.387.387,0,0,0,.181.055q.372-.051.082.188-1.221,1-2.487,2.227a66.085,66.085,0,0,1-14.1.082,6.911,6.911,0,0,1-1.252-.232.26.26,0,0,1-.188-.252.455.455,0,0,1,.423-.5q1.975-.287,4.1-.553c3.128-.4,6.474-.443,9.664-.546a18.376,18.376,0,0,0,3.578-.464" transform="translate(-252.962 -493.946)" fill="#ce5546"/>
        <path id="Trazado_876977" data-name="Trazado 876977" d="M402.762,767.135l.29.031a.124.124,0,0,1,.109.134.119.119,0,0,1-.038.074,8.733,8.733,0,0,1-1.054.856,4.31,4.31,0,0,1-1.228.57,16.883,16.883,0,0,0-2.1.785,9,9,0,0,1-2.3.737.511.511,0,0,0-.286.147.85.85,0,0,1-.512.246q-.737.1-1.5.15a.067.067,0,0,0-.068.085.076.076,0,0,0,.068.075,12.4,12.4,0,0,0,3.913.027,3.152,3.152,0,0,1,1.057.184q.218.044.051.191a.88.88,0,0,1-.362.153,81.17,81.17,0,0,1-13.709.426,5.139,5.139,0,0,1-1.555-.283.29.29,0,0,1-.211-.3q.014-.488.416-.536,6.481-.73,13.293-2.156,1.187-.249,5.72-1.593" transform="translate(-252.573 -505.457)" fill="#ce5546"/>
        <path id="Trazado_876978" data-name="Trazado 876978" d="M403.492,786.905l.194.02c.1.009.132.06.1.154-.011.03-.024.059-.037.089a.184.184,0,0,1-.065.075,21.879,21.879,0,0,1-4.823,2.6,32.56,32.56,0,0,0-3.5,1.392,45.033,45.033,0,0,1-12.512.443.564.564,0,0,1-.563-.611v-.106a.464.464,0,0,1,.461-.457q4.775-.021,6.389-.126a47.807,47.807,0,0,0,9.514-1.7,27.984,27.984,0,0,0,4.847-1.774" transform="translate(-251.882 -518.483)" fill="#ce5546"/>
        <path id="Trazado_876979" data-name="Trazado 876979" d="M286.971,800.576c1.5.222,3.053.273,4.448.587,2.146.481,4.567,1.167,6.392,1.589q6.427,1.494,9.814,1.921,5.775.723,11.523,1.5,8.245,1.1,16.319,2.964a.17.17,0,0,1,.147.208,2.023,2.023,0,0,1-.965,1.528,15.341,15.341,0,0,0-1.774-.276q-2.572-.072-5.014-.344-9.671-1.088-17.929-2.592-6-1.091-11.9-2.224-2.521-.484-5.662-1.2-2.79-.634-5.639-1.19a9.082,9.082,0,0,1-.1-2.3q.048-.321.341-.174" transform="translate(-188.833 -527.46)" fill="#406474"/>
        <path id="Trazado_876980" data-name="Trazado 876980" d="M256.789,807.905q2.848.556,5.639,1.19,3.142.713,5.662,1.2,5.9,1.132,11.9,2.224,8.258,1.5,17.929,2.593,2.442.273,5.014.344a15.372,15.372,0,0,1,1.774.276,1.192,1.192,0,0,0-.113.9l-.931,2.712a26.262,26.262,0,0,1-2.429,6.423,3.883,3.883,0,0,1-1.187,1.259q-.382.28-.136.552a.436.436,0,0,0,.01.242,18.023,18.023,0,0,1-1.774,1.051c-1.948,1-3.769.529-5.707-.007q-5.055-1.392-9.548-2.777-7.88-2.432-15.77-4.854-7.31-2.419-14.681-4.69-4.482-1.378-9.05-2.627a1.7,1.7,0,0,1-.4-.778l-1.518-.894q-.71-.419.113-.467a20.375,20.375,0,0,1,2.889.157c.839.068,1.661-.171,2.538-.15a.252.252,0,0,0,.232-.362l-.085-.181c.132.066.2.084.218.055a.238.238,0,0,0,.092.259.359.359,0,0,0,.232.037q1.9-.15,3.8-.225c1.364-.055,2.968.106,4.462.072a.63.63,0,0,0,.692-.675Z" transform="translate(-158.89 -532.32)" fill="#6b9aa2"/>
        <path id="Trazado_876981" data-name="Trazado 876981" d="M133.008,818.439a1.7,1.7,0,0,0,.4.778,9.3,9.3,0,0,1-1.521.362q-7.538.71-14.91,1.48a11.664,11.664,0,0,1-1.8.3q-5.079.423-9.367.621-15.415.706-30.816,1.068a.844.844,0,0,0-.385.1q-.392.208-.379-.154l1.719-7.051q11.13.321,22.261.447,3.506.037,6.815.116,7.2.17,15.353.321,2.65.048,5.376-.014a4.768,4.768,0,0,1,1.91.362,35.429,35.429,0,0,0,3.882,1.341,3.044,3.044,0,0,0,1.443.28q.061-.01.027-.358" transform="translate(-48.903 -537.617)" fill="#ce5546"/>
        <path id="Trazado_876982" data-name="Trazado 876982" d="M214.277,825.535q4.568,1.248,9.05,2.626,7.372,2.272,14.681,4.69-.01.624-.413.6l-40.633-.126.883-5.952q7.372-.771,14.91-1.48a9.278,9.278,0,0,0,1.521-.361" transform="translate(-129.776 -543.936)" fill="#fff"/>
        <path id="Trazado_876983" data-name="Trazado 876983" d="M98.894,830.935l-.883,5.952a.313.313,0,0,0-.184.269q-2.759,15.944-5.785,31.894H46.782l2.2-8.92q1.89-7.573,4.138-15.845.113-.423-.078-.587a.913.913,0,0,0-.723-.13.8.8,0,0,1,.28-.1.13.13,0,0,0,.105-.15.136.136,0,0,0-.017-.044.406.406,0,0,0-.191-.14,1.867,1.867,0,0,1,.71.089.527.527,0,0,0,.119.484.378.378,0,0,0,.293.116q6.952-.211,14.634-.321a.15.15,0,0,0,.147-.153v-.092a.209.209,0,0,0-.239-.235l-14.879.157,2.521-9.036.345-1.272q-.014.362.379.153a.844.844,0,0,1,.385-.1q15.4-.362,30.816-1.068,4.288-.2,9.367-.621a11.648,11.648,0,0,0,1.8-.3" transform="translate(-30.824 -547.494)" fill="#983621"/>
        <path id="Trazado_876984" data-name="Trazado 876984" d="M425.343,833.495q2.767.747,5.5,1.31a.864.864,0,0,1,.546.273,2.837,2.837,0,0,0,.416.877.622.622,0,0,1-.021.382.241.241,0,0,1-.249.157l-7.119-.287Z" transform="translate(-279.64 -549.181)" fill="#ce5546"/>
        <path id="Trazado_876985" data-name="Trazado 876985" d="M424.367,840.7c.071-.011.1.011.075.068l2.316,8.064q-6.464-.14-12.9.109a.885.885,0,0,0-.631.246q-.246-.273.136-.552a3.883,3.883,0,0,0,1.187-1.259,26.263,26.263,0,0,0,2.429-6.423l7.119.286a.241.241,0,0,0,.249-.157.622.622,0,0,0,.021-.382" transform="translate(-272.207 -553.926)" fill="#e98a7f"/>
        <path id="Trazado_876986" data-name="Trazado 876986" d="M316.495,846.985q7.89,2.422,15.77,4.854,4.492,1.385,9.548,2.777c1.938.536,3.759,1.01,5.707.007a17.975,17.975,0,0,0,1.774-1.051q6.717-.17,13.412-.123.211,0,.3-.286l.14.317a.262.262,0,0,0,.242.167l1.648.112a4.193,4.193,0,0,0-1.354.072q-.181.041-.024.14a.44.44,0,1,1-.2.4.167.167,0,0,0-.1.239q1.852,4.735,2.279,6.065,2.333,7.221,3.333,9.872l2.678,9.077H322.4l-6.321-32.037q.4.021.413-.6" transform="translate(-208.263 -558.069)" fill="#983621"/>
        <path id="Trazado_876987" data-name="Trazado 876987" d="M185.431,848.385l40.633.126,6.321,32.037H179.462q3.025-15.95,5.785-31.894a.313.313,0,0,1,.184-.269" transform="translate(-118.246 -558.992)" fill="#304352"/>
        <path id="Trazado_876988" data-name="Trazado 876988" d="M426.925,864.448a.284.284,0,0,0,.188.188q-.085.287-.3.286-6.7-.048-13.412.123a.436.436,0,0,1-.01-.242.885.885,0,0,1,.631-.246q6.437-.249,12.9-.109" transform="translate(-272.374 -569.542)" fill="#4a2112"/>
        <path id="Trazado_876989" data-name="Trazado 876989" d="M65.579,866.576c.025-.014.05-.028.075-.044l14.879-.157a.209.209,0,0,1,.239.235v.092a.15.15,0,0,1-.147.153q-7.682.109-14.634.321a.378.378,0,0,1-.293-.116.527.527,0,0,1-.119-.484" transform="translate(-43.202 -570.845)" fill="#4a2112"/>
      </g>
    </g>
  </g>
</svg>
