<svg xmlns="http://www.w3.org/2000/svg" width="90.914" height="90.914" viewBox="0 0 90.914 90.914">
  <g id="Grupo_1106657" data-name="Grupo 1106657" transform="translate(-1116.051 -5200)">
    <g id="Grupo_1106122" data-name="Grupo 1106122" transform="translate(1116.051 5200)">
      <rect id="Rect치ngulo_400898" data-name="Rect치ngulo 400898" width="90.914" height="90.914" rx="45.457" transform="translate(0 0)" fill="#febdaf" opacity="0.859"/>
      <rect id="Rect치ngulo_400907" data-name="Rect치ngulo 400907" width="90.914" height="90.914" rx="45.457" transform="translate(0 0)" fill="none"/>
    </g>
    <g id="entrevista" transform="translate(1129.051 5178.919)">
      <path id="Trazado_877345" data-name="Trazado 877345" d="M302.046,119.34v2.132a.994.994,0,0,1-.55.889l-.445.222h11.932l-.89-.445a1.989,1.989,0,0,1-1.1-1.778V103.694H296.081v7.953A7.949,7.949,0,0,0,302.046,119.34Z" transform="translate(-259.36 -55.723)" fill="#f5b97d"/>
      <circle id="Elipse_11637" data-name="Elipse 11637" cx="5.965" cy="5.965" r="5.965" transform="translate(2.919 41.011)" fill="#ffc269"/>
      <path id="Trazado_877346" data-name="Trazado 877346" d="M60.409,82.565c0-6.04-3.869-10.936-9.909-10.936A10.936,10.936,0,0,0,39.564,82.565c0,4.971,4.9,7.954,10.936,7.954S60.409,87.536,60.409,82.565Z" transform="translate(-34.657 -27.635)" fill="#ffa95f"/>
      <path id="Trazado_877347" data-name="Trazado 877347" d="M46.523,100.318a9.082,9.082,0,0,1-3.617-3.883,10.9,10.9,0,0,0-3.342,7.86c0,4.944,4.845,7.919,10.84,7.951Z" transform="translate(-34.657 -49.365)" fill="#ff8b5a"/>
      <path id="Trazado_877348" data-name="Trazado 877348" d="M39.439,272.032H31.486a7.954,7.954,0,0,0-7.954,7.954v11.93H44.41V277a4.971,4.971,0,0,0-4.971-4.971Z" transform="translate(-20.613 -203.184)" fill="#95d6a4"/>
      <path id="Trazado_877349" data-name="Trazado 877349" d="M31.486,275.016h1.988v-2.983H31.486a7.954,7.954,0,0,0-7.954,7.953v11.93h2.983v-11.93a4.977,4.977,0,0,1,4.971-4.971Z" transform="translate(-20.613 -203.184)" fill="#78c2a4"/>
      <path id="Trazado_877350" data-name="Trazado 877350" d="M91.638,240.9a3.977,3.977,0,0,1-3.977-3.977v-4.971h7.954v4.971A3.977,3.977,0,0,1,91.638,240.9Z" transform="translate(-76.789 -168.074)" fill="#f7d291"/>
      <path id="Trazado_877351" data-name="Trazado 877351" d="M87.661,243.615a9.875,9.875,0,0,0,7.954.854v-4.5H87.661Z" transform="translate(-76.789 -175.097)" fill="#ecbd83"/>
      <path id="Trazado_877352" data-name="Trazado 877352" d="M97.541,320.129h-17.9v13.919h17.9a1.988,1.988,0,0,0,1.988-1.988v-9.942A1.988,1.988,0,0,0,97.541,320.129Z" transform="translate(-69.767 -245.315)" fill="#eceaec"/>
      <path id="Trazado_877353" data-name="Trazado 877353" d="M65.6,320.129a1.988,1.988,0,0,0-1.988,1.988v9.942a1.988,1.988,0,0,0,1.988,1.988H83.5a1.988,1.988,0,0,0,1.988-1.988h0v-.994H69.578a2.983,2.983,0,0,1-2.983-2.983v-7.954Z" transform="translate(-55.723 -245.315)" fill="#dad8db"/>
      <path id="Trazado_877354" data-name="Trazado 877354" d="M67.321,127.742c3.161,2.241,7.676,2.968,10.147,3.2a1.979,1.979,0,0,1,1.783,1.977V135.7a7.954,7.954,0,0,1-15.907,0v0a9.236,9.236,0,0,1,2.39-6.2Z" transform="translate(-55.488 -76.789)" fill="#ffe1a0"/>
      <circle id="Elipse_11638" data-name="Elipse 11638" cx="1.988" cy="1.988" r="1.988" transform="translate(16.837 79.785)" fill="#fff"/>
      <path id="Trazado_877355" data-name="Trazado 877355" d="M295.684,257.883,291.918,256H279.986l-5.755,2.878a3.977,3.977,0,0,0-2.2,3.557v19.414h25.849V261.44A3.977,3.977,0,0,0,295.684,257.883Z" transform="translate(-238.294 -189.14)" fill="#c3ddff"/>
      <path id="Trazado_877356" data-name="Trazado 877356" d="M278.99,295.824a4.971,4.971,0,0,0-1.866-3.882l-4.277-3.422a3.968,3.968,0,0,0-.816,2.4v19.414h6.959V295.824Z" transform="translate(-238.293 -217.628)" fill="#a4ccff"/>
      <path id="Trazado_877357" data-name="Trazado 877357" d="M346.04,352.194H332.122a3.977,3.977,0,0,0-3.977,3.977l2.983,9.942h18.89v-9.942A3.977,3.977,0,0,0,346.04,352.194Z" transform="translate(-287.447 -273.404)" fill="#9b959d"/>
      <path id="Trazado_877358" data-name="Trazado 877358" d="M302.045,119.34V103.694H296.08v7.954A7.95,7.95,0,0,0,302.045,119.34Z" transform="translate(-259.359 -55.723)" fill="#e3aa75"/>
      <path id="Trazado_877359" data-name="Trazado 877359" d="M292.972,55.6h-7.954a4.971,4.971,0,0,0-4.971,4.971,1.988,1.988,0,0,0,1.988,1.988h.994a2.982,2.982,0,0,1,2.982,2.983v2.983a4.971,4.971,0,0,0,4.971,4.971h4.971a3.977,3.977,0,0,0,3.977-3.977V62.556A6.959,6.959,0,0,0,292.972,55.6Z" transform="translate(-245.315 -13.592)" fill="#9f6e50"/>
      <path id="Trazado_877360" data-name="Trazado 877360" d="M335.1,352.194h-2.983a3.977,3.977,0,0,0-3.977,3.977v9.942h2.983v-9.942A3.977,3.977,0,0,1,335.1,352.194Z" transform="translate(-287.447 -273.404)" fill="#857e87"/>
      <path id="Trazado_877361" data-name="Trazado 877361" d="M285.019,55.6a4.971,4.971,0,0,0-4.971,4.971,1.988,1.988,0,0,0,1.988,1.988h.994a2.982,2.982,0,0,1,2.982,2.983V55.6Z" transform="translate(-245.315 -13.592)" fill="#785353"/>
      <path id="Trazado_877362" data-name="Trazado 877362" d="M66.361,143.189V136.3l-.626.691a9.236,9.236,0,0,0-2.39,6.2v0A7.94,7.94,0,0,0,72.806,151,7.953,7.953,0,0,1,66.361,143.189Z" transform="translate(-55.489 -84.282)" fill="#f7d291"/>
      <path id="Trazado_877363" data-name="Trazado 877363" d="M112.037,208.966a.93.93,0,0,0,.467,1.23,6.023,6.023,0,0,0,4.74,0,.93.93,0,0,0-.763-1.7,4.17,4.17,0,0,1-3.214,0A.93.93,0,0,0,112.037,208.966Z" transform="translate(-98.07 -147.459)"/>
      <path id="Trazado_877364" data-name="Trazado 877364" d="M104.871,171.194a.93.93,0,0,0,.93-.93v-.994a.93.93,0,0,0-1.86,0v.994A.93.93,0,0,0,104.871,171.194Z" transform="translate(-91.05 -112.351)"/>
      <path id="Trazado_877365" data-name="Trazado 877365" d="M152.968,171.194a.93.93,0,0,0,.93-.93v-.994a.93.93,0,0,0-1.86,0v.994A.93.93,0,0,0,152.968,171.194Z" transform="translate(-133.182 -112.351)"/>
      <path id="Trazado_877366" data-name="Trazado 877366" d="M131.178,352.709a2.919,2.919,0,1,0,2.919,2.919A2.922,2.922,0,0,0,131.178,352.709Zm0,3.977a1.058,1.058,0,1,1,1.058-1.058A1.059,1.059,0,0,1,131.178,356.686Z" transform="translate(-112.352 -273.855)"/>
      <path id="Trazado_877367" data-name="Trazado 877367" d="M60.518,78.254V72.3a4.88,4.88,0,0,0-2.713-4.389L53.15,65.583a1.052,1.052,0,0,1-.585-.946v-4.2a4.914,4.914,0,0,0,2.982-4.513V48.965a7.9,7.9,0,0,0-7.89-7.89H39.7a5.908,5.908,0,0,0-5.9,5.9,2.923,2.923,0,0,0,1.988,2.766v6.182a8.875,8.875,0,0,0,5.965,8.383v1.481l-6.235,3.118a4.88,4.88,0,0,0-2.713,4.389V87.8H30.461a3,3,0,0,0,.23-1.155V76.9a3.019,3.019,0,0,0-3.016-3.016h-2.95v-.064a5.91,5.91,0,0,0-4.971-5.827v-1.13a8.907,8.907,0,0,0,4.838-6.624,7.667,7.667,0,0,0,2.088-5.308,12.61,12.61,0,0,0-2.936-8.345,10.366,10.366,0,0,0-7.936-3.521,11.97,11.97,0,0,0-1.238.064,6.9,6.9,0,1,0-10.3,9.009,11.854,11.854,0,0,0-.333,2.793A7.7,7.7,0,0,0,7.255,61.3a8.9,8.9,0,0,0,2.687,4.273v2.4A8.9,8.9,0,0,0,1.988,76.8v11H.93a.93.93,0,0,0,0,1.86H32.808v3.047a.93.93,0,0,0,1.86,0V73.295a3.057,3.057,0,0,1,.214-1.122l3.431,2.86a4.03,4.03,0,0,1,1.454,3.1V92.709a.93.93,0,0,0,1.86,0V82.767a3.05,3.05,0,0,1,3.047-3.047H58.593a3.05,3.05,0,0,1,3.047,3.047v9.942a.93.93,0,0,0,1.86,0V82.767A4.914,4.914,0,0,0,60.518,78.254ZM3.815,46.976a5.032,5.032,0,0,1,8.7-3.447,11.922,11.922,0,0,0-7.569,6.628,5,5,0,0,1-1.131-3.181ZM6.937,58.429A5.78,5.78,0,0,1,5.8,54.93,10.017,10.017,0,0,1,15.81,44.924a8.42,8.42,0,0,1,6.536,2.885,10.756,10.756,0,0,1,2.476,7.121,6.2,6.2,0,0,1-.128,1.26v-.057a2.9,2.9,0,0,0-2.626-2.9c-2.336-.222-6.7-.912-9.7-3.035a.93.93,0,0,0-1.227.134L9.557,52.08a10.146,10.146,0,0,0-2.62,6.349Zm1.849.476a8.29,8.29,0,0,1,2.15-5.575l1.051-1.161a24.4,24.4,0,0,0,9.9,2.913,1.044,1.044,0,0,1,.941,1.051v2.774a7.023,7.023,0,1,1-14.047,0ZM17.9,67.541v.314a3.047,3.047,0,0,1-6.093,0V66.831a8.846,8.846,0,0,0,6.093.71ZM28.832,86.647A1.157,1.157,0,0,1,27.676,87.8H9.975A1.157,1.157,0,0,1,8.82,86.647V81.773a.93.93,0,0,0-1.86,0v4.874A3,3,0,0,0,7.19,87.8H3.849v-11a7.031,7.031,0,0,1,6.5-7,4.905,4.905,0,0,0,9,.013,4.046,4.046,0,0,1,3.52,4.006v.064H9.975A3.019,3.019,0,0,0,6.959,76.9v.9a.93.93,0,0,0,1.86,0v-.9a1.157,1.157,0,0,1,1.155-1.155h17.7A1.157,1.157,0,0,1,28.832,76.9Zm8.82-30.723V49.895h.064a2.055,2.055,0,0,1,2.052,2.052V54.93a5.908,5.908,0,0,0,5.9,5.9h.994a.93.93,0,1,0,0-1.86h-.994a4.045,4.045,0,0,1-4.041-4.041V51.947a3.917,3.917,0,0,0-3.913-3.913h-.994a1.059,1.059,0,0,1-1.058-1.058A4.045,4.045,0,0,1,39.7,42.936h7.954a6.036,6.036,0,0,1,6.029,6.029v6.959a3.05,3.05,0,0,1-3.047,3.047.93.93,0,0,0,0,1.86l.064,0v3.808a2.92,2.92,0,0,0,.3,1.292h-7.39V63.617a.93.93,0,0,0-.7-.9,7.015,7.015,0,0,1-5.267-6.792ZM58.657,77.862l-.064,0H44.674a4.881,4.881,0,0,0-3.047,1.065v-.789A5.886,5.886,0,0,0,39.5,73.6l-3.44-2.867a3.093,3.093,0,0,1,.288-.166l5.559-2.779H53.4l3.569,1.784A3.03,3.03,0,0,1,58.657,72.3Z"/>
    </g>
  </g>
</svg>
