<svg xmlns="http://www.w3.org/2000/svg" width="90.914" height="90.914" viewBox="0 0 90.914 90.914">
  <g id="Grupo_1106665" data-name="Grupo 1106665" transform="translate(5075 6420)">
    <g id="Grupo_1106121" data-name="Grupo 1106121" transform="translate(-5075 -6420)">
      <rect id="Rect치ngulo_400898" data-name="Rect치ngulo 400898" width="90.914" height="90.914" rx="45.457" transform="translate(0 0)" fill="#febdaf" opacity="0.859"/>
      <rect id="Rect치ngulo_400907" data-name="Rect치ngulo 400907" width="90.914" height="90.914" rx="45.457" transform="translate(0 0)" fill="none"/>
    </g>
    <g id="estado-animico" transform="translate(-5067.019 -6411)">
      <g id="Grupo_1106663" data-name="Grupo 1106663" transform="translate(1.1 1.081)">
        <path id="Trazado_877421" data-name="Trazado 877421" d="M114.326,53.835h5.381a20.71,20.71,0,0,1,20.71,20.71v36.007h-46.8V74.545A20.71,20.71,0,0,1,114.326,53.835Z" transform="translate(-81.21 -47.158)" fill="#544f57"/>
        <path id="Trazado_877422" data-name="Trazado 877422" d="M115.973,53.832c-4.445,0-8.048,9.272-8.048,20.711v36.006H93.618V74.543a20.71,20.71,0,0,1,20.709-20.711Z" transform="translate(-81.211 -47.156)" fill="#454045"/>
        <path id="Trazado_877423" data-name="Trazado 877423" d="M170.525,439.451H135.911l.844-4.112a8.554,8.554,0,0,1,8.385-6.839H161.3a8.556,8.556,0,0,1,8.385,6.839Z" transform="translate(-117.41 -367.836)" fill="#efecef"/>
        <path id="Trazado_877424" data-name="Trazado 877424" d="M148.415,428.5a3.11,3.11,0,0,0-1.055.186c-1.945.693-3.512,3.267-3.925,6.653l-.5,4.112h-7.027l.844-4.112a8.554,8.554,0,0,1,8.385-6.839Z" transform="translate(-117.406 -367.836)" fill="#c6d0da"/>
        <path id="Trazado_877425" data-name="Trazado 877425" d="M232.358,373v8a4.789,4.789,0,0,1-9.578,0v-8Z" transform="translate(-191.762 -320.334)" fill="#ffcbbe"/>
        <g id="Grupo_1106661" data-name="Grupo 1106661" transform="translate(9.55 35.964)">
          <path id="Trazado_877426" data-name="Trazado 877426" d="M229.136,385.523A4.794,4.794,0,0,1,222.783,381v-8h3.127v8A4.789,4.789,0,0,0,229.136,385.523Z" transform="translate(-201.315 -356.296)" fill="#eaac9d"/>
          <path id="Trazado_877427" data-name="Trazado 877427" d="M80.049,267.132a6.257,6.257,0,0,1-6.1-7.635,3.087,3.087,0,0,1,6.1.68h40.011a3.087,3.087,0,0,1,6.1-.68,6.257,6.257,0,0,1-6.1,7.635" transform="translate(-73.797 -257.088)" fill="#eaac9d"/>
          <path id="Trazado_877428" data-name="Trazado 877428" d="M222.781,373h9.578v7.368h-9.578Z" transform="translate(-201.313 -356.299)" fill="#eaac9d"/>
        </g>
        <path id="Trazado_877429" data-name="Trazado 877429" d="M157.186,172.208V183.2A14.581,14.581,0,0,1,142.6,197.777H131.756A14.581,14.581,0,0,1,117.175,183.2V172.333a59.787,59.787,0,0,0,9.579-1.244c7.542-1.533,16.2-4.431,20.226-8.458C146.981,162.631,150.965,170.772,157.186,172.208Z" transform="translate(-101.374 -140.277)" fill="#ffcbbe"/>
        <path id="Trazado_877430" data-name="Trazado 877430" d="M141.335,248.018h-9.579a14.581,14.581,0,0,1-14.581-14.581V222.574a59.783,59.783,0,0,0,9.579-1.244v12.107A14.581,14.581,0,0,0,141.335,248.018Z" transform="translate(-101.374 -190.518)" fill="#eaac9d"/>
        <g id="Grupo_1106662" data-name="Grupo 1106662" transform="translate(20.749 41.964)">
          <ellipse id="Elipse_11640" data-name="Elipse 11640" cx="3.275" cy="1.991" rx="3.275" ry="1.991" transform="translate(23.568)" fill="#e490b7"/>
          <ellipse id="Elipse_11641" data-name="Elipse 11641" cx="3.275" cy="1.991" rx="3.275" ry="1.991" fill="#e490b7"/>
        </g>
        <circle id="Elipse_11642" data-name="Elipse 11642" cx="12.996" cy="12.996" r="12.996" transform="translate(0)" fill="#f4dd45"/>
        <path id="Trazado_877431" data-name="Trazado 877431" d="M22.384,33.361A13,13,0,1,1,20.515,7.5a13.118,13.118,0,0,1,1.869.134,13,13,0,0,0,0,25.725Z" transform="translate(-7.518 -7.502)" fill="#eab14d"/>
        <circle id="Elipse_11643" data-name="Elipse 11643" cx="12.996" cy="12.996" r="12.996" transform="translate(45.617)" fill="#dd636e"/>
        <path id="Trazado_877432" data-name="Trazado 877432" d="M338.962,33.361A13,13,0,1,1,337.093,7.5a13.118,13.118,0,0,1,1.869.134,13,13,0,0,0,0,25.725Z" transform="translate(-278.479 -7.502)" fill="#da4a54"/>
      </g>
      <g id="Grupo_1106664" data-name="Grupo 1106664" transform="translate(0.019)">
        <path id="Trazado_877433" data-name="Trazado 877433" d="M231.267,316.311a1.081,1.081,0,0,0-1.416.576,3.036,3.036,0,0,1-5.6,0,1.081,1.081,0,1,0-1.992.84,5.2,5.2,0,0,0,9.58,0,1.081,1.081,0,0,0-.576-1.416Z" transform="translate(-190.166 -270.659)"/>
        <path id="Trazado_877434" data-name="Trazado 877434" d="M236.079,284.232h3.9a1.081,1.081,0,1,0,0-2.161h-3.9a1.081,1.081,0,0,0,0,2.161Z" transform="translate(-201.139 -241.426)"/>
        <path id="Trazado_877435" data-name="Trazado 877435" d="M164.137,248.448a1.123,1.123,0,0,0-.2.017h-2.165a1.117,1.117,0,1,0,0,2.233h.534a5.1,5.1,0,0,0-.079.9c0,1.738.855,3.151,1.905,3.151s1.905-1.414,1.905-3.151S165.188,248.448,164.137,248.448Z" transform="translate(-137.512 -212.648)"/>
        <path id="Trazado_877436" data-name="Trazado 877436" d="M316.128,248.466a1.174,1.174,0,0,0-.2-.018c-1.05,0-1.905,1.414-1.905,3.151s.855,3.151,1.905,3.151,1.905-1.414,1.905-3.151a5.1,5.1,0,0,0-.079-.9h.679a1.117,1.117,0,1,0,0-2.233Z" transform="translate(-268.775 -212.648)"/>
        <path id="Trazado_877437" data-name="Trazado 877437" d="M73.79,14.077a14.076,14.076,0,0,0-26.762-6.1,21.672,21.672,0,0,0-7.432-1.3h-5.38a21.653,21.653,0,0,0-7.434,1.3,14.076,14.076,0,1,0-22.887,15.8,1.081,1.081,0,1,0,1.566-1.49,11.891,11.891,0,1,1,3.086,2.337,1.081,1.081,0,1,0-1.009,1.911,14.064,14.064,0,0,0,4.895,1.52c0,.138-.007.276-.007.414v7.71a4.065,4.065,0,0,0-2.676,3.038,7.333,7.333,0,0,0,2.676,7.422V64.474a1.081,1.081,0,0,0,1.081,1.081h6.94a9.556,9.556,0,0,0-1.061,2.811l-.844,4.113a1.081,1.081,0,0,0,1.059,1.3H54.214a1.081,1.081,0,0,0,1.059-1.3l-.844-4.113a9.552,9.552,0,0,0-1.06-2.811h6.939a1.081,1.081,0,0,0,1.081-1.081V61.052a1.081,1.081,0,1,0-2.161,0v2.342H51.692a9.644,9.644,0,0,0-6.707-2.729H42.777V59.655A15.691,15.691,0,0,0,57.433,48.149a7.28,7.28,0,0,0,1.793-.356v8.936a1.081,1.081,0,1,0,2.161,0V46.639a7.333,7.333,0,0,0,2.677-7.423,4.064,4.064,0,0,0-2.677-3.038v-7.71c0-.137,0-.275-.007-.413A14.1,14.1,0,0,0,73.79,14.077Zm-45.618,0a14.029,14.029,0,0,0-.605-4.085,19.509,19.509,0,0,1,6.648-1.155H39.6a19.523,19.523,0,0,1,6.646,1.154A14.078,14.078,0,0,0,59.22,28.144c0,.108.005.215.005.323v7.571a4.3,4.3,0,0,0-1.234.419V33.011a1.081,1.081,0,0,0-.838-1.053c-5.638-1.3-9.44-8.922-9.477-9a1.081,1.081,0,0,0-1.735-.289c-2.508,2.508-7.425,4.9-13.845,6.742A68.761,68.761,0,0,1,16.87,32.056a1.081,1.081,0,0,0-1.05,1.08v3.32a4.3,4.3,0,0,0-1.233-.418V28.468c0-.108,0-.216.005-.324a14.093,14.093,0,0,0,13.58-14.067ZM11.858,39.692a1.919,1.919,0,0,1,2.18-1.552,1.911,1.911,0,0,1,1.766,1.71,3.3,3.3,0,0,0-2.618-.065,1.081,1.081,0,0,0,.809,2c.757-.305,1.486.338,1.826.709V44a15.758,15.758,0,0,0,.117,1.917,5.178,5.178,0,0,1-4.08-6.224Zm2.729,23.7v-15.6a7.279,7.279,0,0,0,1.792.356A15.692,15.692,0,0,0,31.037,59.654v1.009H28.829a9.644,9.644,0,0,0-6.707,2.729Zm26.028-1.648a3.708,3.708,0,0,1-7.416,0V59.661h7.416v2.083Zm11.7,7.056.578,2.815H20.925L21.5,68.8a7.507,7.507,0,0,1,7.326-5.975h2.31a5.868,5.868,0,0,0,11.537,0h2.31A7.507,7.507,0,0,1,52.311,68.8ZM55.831,44a13.515,13.515,0,0,1-13.5,13.5H31.482A13.515,13.515,0,0,1,17.981,44V34.169c7.546-.459,21.839-3.61,28.435-9.018,1.361,2.311,4.687,7.15,9.415,8.681V44Zm6.253-3.163a5.179,5.179,0,0,1-4.209,5.08A15.737,15.737,0,0,0,57.992,44V42.5c.339-.371,1.069-1.017,1.828-.711a1.081,1.081,0,0,0,.809-2,3.3,3.3,0,0,0-2.618.065,2.008,2.008,0,0,1,3.946-.158,5.213,5.213,0,0,1,.127,1.145Zm-2.37-14.844A11.916,11.916,0,1,1,71.629,14.077,11.929,11.929,0,0,1,59.713,25.993Z" transform="translate(-0.019)"/>
        <path id="Trazado_877438" data-name="Trazado 877438" d="M59.426,105.123a1.081,1.081,0,0,0-1.992.84,6.147,6.147,0,0,0,11.329,0,1.081,1.081,0,0,0-1.992-.84,3.985,3.985,0,0,1-7.346,0Z" transform="translate(-49.088 -89.409)"/>
        <path id="Trazado_877439" data-name="Trazado 877439" d="M32.7,57.691a1.081,1.081,0,1,0,1.992-.84,3.989,3.989,0,0,0-7.352,0,1.081,1.081,0,1,0,1.992.84,1.827,1.827,0,0,1,3.369,0Z" transform="translate(-23.331 -46.571)"/>
        <path id="Trazado_877440" data-name="Trazado 877440" d="M116.621,58.267a1.081,1.081,0,0,0,1.416-.576,1.827,1.827,0,0,1,3.368,0,1.081,1.081,0,1,0,1.992-.84,3.989,3.989,0,0,0-7.352,0A1.081,1.081,0,0,0,116.621,58.267Z" transform="translate(-99.254 -46.571)"/>
        <path id="Trazado_877441" data-name="Trazado 877441" d="M379.676,114.464a6.136,6.136,0,0,0-5.664,3.76,1.081,1.081,0,1,0,1.992.84,3.985,3.985,0,0,1,7.345,0,1.081,1.081,0,0,0,1.992-.84A6.135,6.135,0,0,0,379.676,114.464Z" transform="translate(-320.048 -97.97)"/>
        <path id="Trazado_877442" data-name="Trazado 877442" d="M439.4,74.5a1.081,1.081,0,0,0-1.416.576,1.827,1.827,0,0,1-3.368,0,1.081,1.081,0,0,0-1.992.84,3.989,3.989,0,0,0,7.352,0A1.081,1.081,0,0,0,439.4,74.5Z" transform="translate(-370.216 -63.688)"/>
        <path id="Trazado_877443" data-name="Trazado 877443" d="M351.273,75.912a1.081,1.081,0,0,0-1.992-.84,1.827,1.827,0,0,1-3.368,0,1.081,1.081,0,1,0-1.992.84,3.989,3.989,0,0,0,7.352,0Z" transform="translate(-294.294 -63.689)"/>
      </g>
    </g>
  </g>
</svg>
