<svg xmlns="http://www.w3.org/2000/svg" width="90.914" height="90.914" viewBox="0 0 90.914 90.914">
  <g id="Grupo_1106669" data-name="Grupo 1106669" transform="translate(4437 6420)">
    <g id="Grupo_1106121" data-name="Grupo 1106121" transform="translate(-4437 -6420)">
      <rect id="Rectángulo_400898" data-name="Rectángulo 400898" width="90.914" height="90.914" rx="45.457" transform="translate(0 0)" fill="#febdaf" opacity="0.859"/>
      <rect id="Rectángulo_400907" data-name="Rectángulo 400907" width="90.914" height="90.914" rx="45.457" transform="translate(0 0)" fill="none"/>
    </g>
    <g id="factura_1_" data-name="factura (1)" transform="translate(-4425 -6408)">
      <path id="Trazado_877445" data-name="Trazado 877445" d="M77.733,66.5H37.318V12.254A4.254,4.254,0,0,0,33.064,8H73.479a4.254,4.254,0,0,1,4.254,4.254Z" transform="translate(-27.746 -6.936)" fill="#ececec"/>
      <g id="Grupo_1106667" data-name="Grupo 1106667" transform="translate(1.064 1.064)">
        <path id="Trazado_877446" data-name="Trazado 877446" d="M72,392.508h44.669a4.254,4.254,0,0,0,4.254-4.254V384H80.508v4.254a4.254,4.254,0,0,1-4.254,4.254Z" transform="translate(-63.492 -334.013)" fill="#fea82f"/>
        <path id="Trazado_877447" data-name="Trazado 877447" d="M16.508,20.763H8V12.254A4.254,4.254,0,0,1,12.254,8h0a4.254,4.254,0,0,1,4.254,4.254Z" transform="translate(-8 -8)" fill="#fea82f"/>
      </g>
      <path id="Trazado_877448" data-name="Trazado 877448" d="M327.445,155.672a10.638,10.638,0,0,0,0,20.295Z" transform="translate(-277.458 -134.976)" fill="#b6c1ce"/>
      <circle id="Elipse_11647" data-name="Elipse 11647" cx="10.582" cy="10.582" r="10.582" transform="translate(43.539 16.959)" fill="#fea82f"/>
      <path id="Trazado_877449" data-name="Trazado 877449" d="M338.636,209.572A10.637,10.637,0,0,1,328.053,200c-.034.35-.053.7-.053,1.064a10.636,10.636,0,0,0,21.271,0c0-.359-.019-.714-.053-1.064A10.637,10.637,0,0,1,338.636,209.572Z" transform="translate(-284.394 -173.411)" fill="#ff8031"/>
      <g id="Grupo_1106668" data-name="Grupo 1106668" transform="translate(1.209 5.47)">
        <rect id="Rectángulo_403494" data-name="Rectángulo 403494" width="12.699" height="8.466" transform="translate(0 50.795)" fill="#92e0c0"/>
        <rect id="Rectángulo_403495" data-name="Rectángulo 403495" width="29.63" height="11.489" transform="translate(13.908 0)" fill="#92e0c0"/>
      </g>
      <rect id="Rectángulo_403496" data-name="Rectángulo 403496" width="8.466" height="3.024" transform="translate(1.209 10.912)" fill="#ff8031"/>
      <rect id="Rectángulo_403497" data-name="Rectángulo 403497" width="12.699" height="3.024" transform="translate(1.209 61.708)" fill="#48c397"/>
      <path id="Trazado_877450" data-name="Trazado 877450" d="M33.064,188.161l-1.031-8.246a4.157,4.157,0,0,1-.033-.528v-9.042a4.157,4.157,0,0,1,.033-.528l.886-7.084a2.822,2.822,0,0,1,.864-1.847l6.082-7.822A1.85,1.85,0,0,1,41.556,152h0a2.143,2.143,0,0,1,2.143,2.143v.362a2.143,2.143,0,0,1-.4,1.245l-4.127,5.777A4.244,4.244,0,0,0,38.381,164v6.141a4.267,4.267,0,0,0,.449,1.9l1.678,3.356h0l4.657-4.657a2.255,2.255,0,0,1,1.6-.66h0a2.256,2.256,0,0,1,2.256,2.256h0a2.255,2.255,0,0,1-.66,1.6l-7.848,7.848v6.381Z" transform="translate(-27.746 -131.792)" fill="#f9e0a6"/>
      <path id="Trazado_877451" data-name="Trazado 877451" d="M104,45.826h31.907V32H104Zm2.127-11.7H133.78V43.7H106.127Z" transform="translate(-90.174 -27.746)"/>
      <rect id="Rectángulo_403498" data-name="Rectángulo 403498" width="21.165" height="2.419" transform="translate(19.351 32.682)"/>
      <rect id="Rectángulo_403499" data-name="Rectángulo 403499" width="6.652" height="2.419" transform="translate(21.165 24.216)"/>
      <rect id="Rectángulo_403500" data-name="Rectángulo 403500" width="6.047" height="2.419" transform="translate(32.049 24.216)"/>
      <rect id="Rectángulo_403501" data-name="Rectángulo 403501" width="6.652" height="2.419" transform="translate(21.165 28.449)"/>
      <rect id="Rectángulo_403502" data-name="Rectángulo 403502" width="6.047" height="2.419" transform="translate(32.049 28.449)"/>
      <rect id="Rectángulo_403503" data-name="Rectángulo 403503" width="17.536" height="1.814" transform="translate(28.421 41.752)"/>
      <rect id="Rectángulo_403504" data-name="Rectángulo 403504" width="6.652" height="1.814" transform="translate(39.306 45.985)"/>
      <rect id="Rectángulo_403505" data-name="Rectángulo 403505" width="6.652" height="1.814" transform="translate(28.421 45.985)"/>
      <path id="Trazado_877452" data-name="Trazado 877452" d="M387.191,156.254a1.065,1.065,0,0,1,1.064,1.064h2.127a3.186,3.186,0,0,0-2.127-2.995V152h-2.127v2.323a3.183,3.183,0,0,0,1.064,6.186,1.064,1.064,0,1,1-1.064,1.064H384a3.186,3.186,0,0,0,2.127,2.995v2.323h2.127v-2.323a3.183,3.183,0,0,0-1.064-6.186,1.064,1.064,0,1,1,0-2.127Z" transform="translate(-332.949 -131.792)"/>
      <rect id="Rectángulo_403506" data-name="Rectángulo 403506" width="2.419" height="1.814" transform="translate(59.261 26.635)"/>
      <rect id="Rectángulo_403507" data-name="Rectángulo 403507" width="2.419" height="1.814" transform="translate(46.562 26.635)"/>
      <path id="Trazado_877453" data-name="Trazado 877453" d="M64.027,34.067a11.683,11.683,0,0,0-12.976-17.66V5.318A5.324,5.324,0,0,0,45.733,0H5.318A5.324,5.324,0,0,0,0,5.318V14.89H8.508v7.925L4.2,28.351a3.93,3.93,0,0,0-1.148,2.457l-.885,7.085a5.475,5.475,0,0,0-.041.659V47.6a5.461,5.461,0,0,0,.041.659l.881,7.05H0V65.94H14.89V60.623H54.241A5.324,5.324,0,0,0,59.559,55.3V49.987H51.051V38.9a11.638,11.638,0,0,0,11.476-2.986l-1.506-1.5A9.554,9.554,0,1,1,62.249,32.9Zm-61.9-21.3V5.318a3.191,3.191,0,0,1,6.381,0v7.445ZM4.279,47.992a3.31,3.31,0,0,1-.024-.4V38.553a3.279,3.279,0,0,1,.024-.4l.885-7.084a1.87,1.87,0,0,1,.465-1.143L11.9,21.924l.1-.152a.79.79,0,0,1,.752-.5,1.08,1.08,0,0,1,1.08,1.08v.362a1.077,1.077,0,0,1-.2.627L9.5,29.117a5.278,5.278,0,0,0-.991,3.09v6.141a5.368,5.368,0,0,0,.56,2.378l.909,1.817H9.572v2.127h2.567L17.108,39.7a1.193,1.193,0,0,1,2.036.843,1.183,1.183,0,0,1-.349.843l-8.16,8.16V55.3H5.193Zm8.484,15.821H2.127V57.432H12.763ZM57.432,55.3A3.2,3.2,0,0,1,54.241,58.5H18.078A5.289,5.289,0,0,0,19.144,55.3V52.114H57.432ZM42.542,27.652A11.7,11.7,0,0,0,48.924,38.06V49.987H17.017V55.3A3.186,3.186,0,0,1,14.89,58.3V55.3H12.763V50.427L20.3,42.891a3.32,3.32,0,0,0-2.347-5.667A3.342,3.342,0,0,0,15.6,38.2L11.991,41.81l-1.019-2.036a3.214,3.214,0,0,1-.336-1.427V32.207a3.174,3.174,0,0,1,.595-1.855l4.127-5.777a3.184,3.184,0,0,0,.6-1.863V22.35a3.211,3.211,0,0,0-3.207-3.206,2.851,2.851,0,0,0-2.111.908V5.318A5.263,5.263,0,0,0,9.544,2.127H45.733a3.2,3.2,0,0,1,3.191,3.191V17.244A11.7,11.7,0,0,0,42.542,27.652Z"/>
    </g>
  </g>
</svg>
