<svg xmlns="http://www.w3.org/2000/svg" width="90" height="90" viewBox="0 0 90 90">
  <g id="Grupo_1106658" data-name="Grupo 1106658" transform="translate(-282.051 -5735)">
    <g id="Grupo_1106131" data-name="Grupo 1106131" transform="translate(-921.27 5346.258)">
      <g id="Rect치ngulo_400898" data-name="Rect치ngulo 400898" transform="translate(1203.32 388.742)" fill="#fff" stroke="#fff" stroke-width="3" opacity="0.859">
        <rect width="90" height="90" rx="45" stroke="none"/>
        <rect x="1.5" y="1.5" width="87" height="87" rx="43.5" fill="none"/>
      </g>
      <g id="Rect치ngulo_400907" data-name="Rect치ngulo 400907" transform="translate(1203.32 388.742)" fill="none" stroke="#fff" stroke-width="3">
        <rect width="90" height="90" rx="45" stroke="none"/>
        <rect x="1.5" y="1.5" width="87" height="87" rx="43.5" fill="none"/>
      </g>
    </g>
    <g id="escrito" transform="translate(284.051 5736.002)">
      <path id="Trazado_877368" data-name="Trazado 877368" d="M24,64H64.575v48.875H24Z" transform="translate(-7.078 -42.468)" fill="#4976f2"/>
      <path id="Trazado_877369" data-name="Trazado 877369" d="M59.964,93.507v14.755H24V64H59.964V86.13" transform="translate(-7.078 -42.467)" fill="#548aff"/>
      <path id="Trazado_877370" data-name="Trazado 877370" d="M0,0H5.217V2.608H0Z" transform="translate(64.867 33.523) rotate(-45)" fill="#ffa100"/>
      <path id="Trazado_877371" data-name="Trazado 877371" d="M240,341.533,241.844,336l3.689,3.689Z" transform="translate(-198.179 -283.115)" fill="#ffb401"/>
      <path id="Trazado_877372" data-name="Trazado 877372" d="M0,0H28.691V5.217H0Z" transform="translate(43.659 52.885) rotate(-45)" fill="#ffc431"/>
      <path id="Trazado_877373" data-name="Trazado 877373" d="M71.06,31.023l-1.844-1.844a.923.923,0,0,0-1.3,0l-3.037,3.037-.27-.27a.923.923,0,0,0-1.3,0L58.42,36.826V21.531a.922.922,0,0,0-.922-.922H50.12v-.922a3.689,3.689,0,0,0-7.377,0v.922H40.9v-.922a3.689,3.689,0,1,0-7.377,0v.922H31.677v-.922a3.689,3.689,0,1,0-7.377,0v.922H16.922a.922.922,0,0,0-.922.922V70.406a.922.922,0,0,0,.922.922H57.5a.922.922,0,0,0,.922-.922V46.812l9.874-9.874a.922.922,0,0,0,0-1.3l-.27-.27,3.037-3.037a.922.922,0,0,0,0-1.3Zm-17.251-8.57h2.766V38.67l-2.766,2.766Zm-9.222-2.766a1.844,1.844,0,0,1,3.689,0v.922H44.587Zm-9.222,0a1.844,1.844,0,0,1,3.689,0v.922H35.365Zm-9.222,0a1.844,1.844,0,1,1,3.689,0v.922H26.144Zm-8.3,2.766H24.3V25.22h1.844V22.453h7.377V25.22h1.844V22.453h7.377V25.22h1.844V22.453h7.377V43.281l-4.611,4.611V46.43H40.9v1.844h6.073l-3.689,3.689h-8.84v1.844h7.942L41.156,57.5H27.988V59.34H41.821a.921.921,0,0,0,.292-.047l5.533-1.844A.919.919,0,0,0,48,57.224h0l3.959-3.959V64.873H17.844ZM44.068,54.592l1.579,1.579-2.368.789ZM56.575,69.484H17.844V66.717H52.887a.922.922,0,0,0,.922-.922V51.423l2.766-2.766ZM47.354,55.269l-2.384-2.384L61.186,36.668l2.385,2.385ZM64.875,37.748,62.49,35.364,63.953,33.9l2.385,2.385Zm1.844-3.689-.54-.54,2.384-2.385.54.54Z" transform="translate(0 0)"/>
      <path id="Trazado_877374" data-name="Trazado 877374" d="M72,376h3.689v1.844H72Z" transform="translate(-49.545 -318.504)"/>
      <path id="Trazado_877375" data-name="Trazado 877375" d="M72,328H82.144v1.844H72Z" transform="translate(-49.545 -276.037)"/>
      <path id="Trazado_877376" data-name="Trazado 877376" d="M72,280h5.533v1.844H72Z" transform="translate(-49.545 -233.57)"/>
      <path id="Trazado_877377" data-name="Trazado 877377" d="M136,280h9.222v1.844H136Z" transform="translate(-106.168 -233.57)"/>
      <path id="Trazado_877378" data-name="Trazado 877378" d="M72,232h3.689v1.844H72Z" transform="translate(-49.545 -191.103)"/>
      <path id="Trazado_877379" data-name="Trazado 877379" d="M120,232h13.832v1.844H120Z" transform="translate(-92.012 -191.103)"/>
      <path id="Trazado_877380" data-name="Trazado 877380" d="M256,232h3.689v1.844H256Z" transform="translate(-212.335 -191.103)"/>
      <path id="Trazado_877381" data-name="Trazado 877381" d="M72,184h1.844v1.844H72Z" transform="translate(-49.545 -148.636)"/>
      <path id="Trazado_877382" data-name="Trazado 877382" d="M104,184h11.988v1.844H104Z" transform="translate(-77.856 -148.636)"/>
      <path id="Trazado_877383" data-name="Trazado 877383" d="M224,184h7.377v1.844H224Z" transform="translate(-184.024 -148.636)"/>
      <path id="Trazado_877384" data-name="Trazado 877384" d="M128,136h1.844v1.844H128Z" transform="translate(-99.09 -106.169)"/>
      <path id="Trazado_877385" data-name="Trazado 877385" d="M160,136h8.3v1.844H160Z" transform="translate(-127.401 -106.169)"/>
      <path id="Trazado_877386" data-name="Trazado 877386" d="M248,136h4.611v1.844H248Z" transform="translate(-205.257 -106.169)"/>
    </g>
  </g>
</svg>
