<svg xmlns="http://www.w3.org/2000/svg" width="90.914" height="90.914" viewBox="0 0 90.914 90.914">
  <g id="Grupo_1106619" data-name="Grupo 1106619" transform="translate(-806.888 -1584)">
    <g id="Grupo_1106087" data-name="Grupo 1106087" transform="translate(806.889 1584)">
      <rect id="Rectángulo_400898" data-name="Rectángulo 400898" width="90.914" height="90.914" rx="45.457" transform="translate(0 0)" fill="#febdaf" opacity="0.859"/>
      <rect id="Rectángulo_400907" data-name="Rectángulo 400907" width="90.914" height="90.914" rx="45.457" transform="translate(0 0)" fill="none"/>
    </g>
    <g id="algoritmos" transform="translate(820.583 1596.197)">
      <path id="Trazado_877197" data-name="Trazado 877197" d="M54.1,122.079v-9.753a8.819,8.819,0,0,1,.973-4c2.264-4.444,4.733-13.332,4.914-17.925C60.706,72.256,48.9,62.881,34.8,62.881c-11.579,0-21.355,4.887-20.713,21.334.073,1.88-2.25,6.876-8,17.5-.31.572.26,1.248.921,1.248h7.022c.166,6.7-1.618,12.154,11.5,10.393v8.726" transform="translate(-5.273 -55.362)" fill="#3f8fd5"/>
      <path id="Trazado_877198" data-name="Trazado 877198" d="M49.546,116.794H48.111v-9.753a9.587,9.587,0,0,1,1.051-4.328C51.427,98.266,53.823,89.535,54,85.086c.321-8.125-1.931-14.939-6.513-19.706-4.38-4.556-10.758-7.066-17.959-7.066-6.9,0-12.092,1.761-15.432,5.234C10.8,66.971,9.266,72.137,9.53,78.9c.079,2.02-2.038,6.7-8.088,17.867a.328.328,0,0,0,.289.189H9.454l.017.7c.02.795.012,1.565.005,2.311-.027,2.883-.049,5.16,1.4,6.442s4.486,1.59,9.282.946l.813-.109v9.546H19.54v-7.913c-4.834.564-7.9.116-9.61-1.4-1.944-1.716-1.918-4.411-1.889-7.531,0-.51.01-1.032.006-1.562H1.732a1.785,1.785,0,0,1-1.507-.856,1.457,1.457,0,0,1-.045-1.451c4.159-7.679,8-15.069,7.916-17.128-.28-7.17,1.391-12.689,4.964-16.4,3.621-3.765,9.161-5.674,16.466-5.674,7.595,0,14.34,2.666,18.993,7.506,4.859,5.055,7.249,12.233,6.912,20.757-.182,4.608-2.654,13.634-4.992,18.222a8.147,8.147,0,0,0-.894,3.677Z" transform="translate(0 -50.077)"/>
      <path id="Trazado_877199" data-name="Trazado 877199" d="M111.173,92.075H84.348a9.065,9.065,0,0,1-8.526-7.153c-2.583-14.98,7.67-22.314,17.132-22.314l2.965.033c10.736,0,24.645,8.671,24.645,19.406v.638a9.391,9.391,0,0,1-9.391,9.39Z" transform="translate(-66.392 -55.121)" fill="#fdc00f"/>
      <path id="Trazado_877200" data-name="Trazado 877200" d="M105.883,87.51H79.058a9.78,9.78,0,0,1-9.233-7.748c-1.466-8.5,1.216-13.833,3.723-16.809a18.568,18.568,0,0,1,14.116-6.344l2.973.033A29.782,29.782,0,0,1,107.4,62.456a23.624,23.624,0,0,1,6.139,6.363,14.731,14.731,0,0,1,2.453,7.945V77.4A10.119,10.119,0,0,1,105.883,87.51ZM87.656,58.044a17.113,17.113,0,0,0-13.01,5.833c-3.314,3.934-4.492,9.343-3.406,15.641a8.323,8.323,0,0,0,7.819,6.557h26.825a8.683,8.683,0,0,0,8.673-8.673v-.638c0-4.722-2.842-9.391-8-13.149a28.3,28.3,0,0,0-15.926-5.54Z" transform="translate(-61.102 -49.84)"/>
      <path id="Trazado_877201" data-name="Trazado 877201" d="M180.728,231.683h-14.4a5.661,5.661,0,1,1,0-11.322h10.834V221.8H166.324a4.226,4.226,0,1,0,0,8.452h14.4Z" transform="translate(-141.445 -194.012)"/>
      <rect id="Rectángulo_403487" data-name="Rectángulo 403487" width="10.485" height="1.435" transform="translate(25.414 31.292)"/>
      <path id="Trazado_877202" data-name="Trazado 877202" d="M121.606,141.173a4.65,4.65,0,0,1,5.381-5.79l-.277,1.408a3.215,3.215,0,0,0-3.72,4Z" transform="translate(-106.913 -119.118)"/>
      <path id="Trazado_877203" data-name="Trazado 877203" d="M341.4,256.469a4.65,4.65,0,0,1-.961-7.846l.9,1.119a3.215,3.215,0,0,0,.664,5.424Z" transform="translate(-298.199 -218.895)"/>
      <path id="Trazado_877204" data-name="Trazado 877204" d="M93.832,134.633a3.136,3.136,0,0,0-4.294-1.112l-.728-1.237a4.571,4.571,0,0,1,6.258,1.621Z" transform="translate(-78.184 -115.91)"/>
      <path id="Trazado_877205" data-name="Trazado 877205" d="M208.582,99.888a3.215,3.215,0,0,0-5.457-.275l-1.18-.816a4.65,4.65,0,0,1,7.894.4Z" transform="translate(-177.79 -85.219)"/>
      <path id="Trazado_877206" data-name="Trazado 877206" d="M215.717,62.788l-1.352-.479a3.137,3.137,0,0,0-1.909-4l.479-1.352a4.571,4.571,0,0,1,2.782,5.835Z" transform="translate(-187.045 -50.143)"/>
      <path id="Trazado_877207" data-name="Trazado 877207" d="M104.423,211.008a4.65,4.65,0,0,1,3.524-7.075l.132,1.429a3.215,3.215,0,0,0-2.436,4.891Z" transform="translate(-91.318 -179.549)"/>
      <path id="Trazado_877208" data-name="Trazado 877208" d="M170.734,162.327a4.63,4.63,0,0,1-2.394-.665l.741-1.229a3.215,3.215,0,0,0,4.862-2.494l1.43.116a4.648,4.648,0,0,1-4.639,4.272Z" transform="translate(-148.204 -139.054)"/>
      <path id="Trazado_877209" data-name="Trazado 877209" d="M291.788,19.684l-.287-.034-2.724-.318a12.935,12.935,0,0,0-.791-2.609l2.091-1.774.222-.188a15.693,15.693,0,0,0-1.616-2.6l-.267.114L285.9,13.356a12.1,12.1,0,0,0-1.991-1.857l.92-2.591.1-.274q-.626-.418-1.3-.783t-1.394-.658l-.174.233-1.643,2.2A12.917,12.917,0,0,0,277.764,9l-.49-2.69-.052-.285a15.725,15.725,0,0,0-3.067.105l-.034.288-.314,2.72a12.441,12.441,0,0,0-2.613.789l-1.771-2.085-.188-.222a15.824,15.824,0,0,0-2.609,1.616l.116.267,1.083,2.5a12.929,12.929,0,0,0-1.859,2l-2.583-.921-.274-.1c-.281.421-.545.858-.79,1.315a14.833,14.833,0,0,0-.661,1.385l.232.173L264.1,17.5a13.467,13.467,0,0,0-.4,1.359,13.054,13.054,0,0,0-.222,1.289l-2.7.5-.284.052a15.633,15.633,0,0,0,.1,3.058l.288.034,2.721.32a12.854,12.854,0,0,0,.79,2.612l-2.085,1.77-.22.188a15.668,15.668,0,0,0,1.619,2.606l.265-.114,2.511-1.083a13.4,13.4,0,0,0,1.988,1.856l-.918,2.577-.1.274q.634.422,1.318.789t1.39.659l.173-.232,1.63-2.191a13.005,13.005,0,0,0,2.65.619l.5,2.693.053.284a15.519,15.519,0,0,0,3.057-.1l.034-.287.323-2.724a13.382,13.382,0,0,0,2.607-.785l1.775,2.085a15.174,15.174,0,0,0,2.676-1.66l-1.088-2.52a12.432,12.432,0,0,0,1.865-1.991l2.581.917.274.1q.422-.634.789-1.323c.241-.453.457-.914.65-1.381l-.232-.172-2.185-1.632a12.968,12.968,0,0,0,.385-1.344c.1-.436.175-.875.235-1.311l2.69-.493.283-.052A15.555,15.555,0,0,0,291.788,19.684Z" transform="translate(-229.314 -5.278)" fill="#d22732"/>
      <path id="Trazado_877210" data-name="Trazado 877210" d="M270.914,32.891q-.536,0-1.071-.035a.717.717,0,0,1-.658-.584l-.457-2.473a13.755,13.755,0,0,1-1.77-.412L265.465,31.4a.717.717,0,0,1-.85.235c-.485-.2-.974-.433-1.454-.689s-.931-.527-1.377-.824a.717.717,0,0,1-.278-.837l.843-2.366a14.149,14.149,0,0,1-1.326-1.238l-2.305.993a.717.717,0,0,1-.854-.222,16.424,16.424,0,0,1-1.693-2.725.717.717,0,0,1,.178-.863l1.915-1.626a13.649,13.649,0,0,1-.53-1.746l-2.5-.294a.717.717,0,0,1-.628-.618,16.394,16.394,0,0,1-.108-3.2.717.717,0,0,1,.587-.66l2.473-.454c.044-.271.1-.549.16-.832.072-.308.155-.617.255-.937l-2.026-1.506a.717.717,0,0,1-.235-.85,15.662,15.662,0,0,1,.693-1.452c.25-.466.528-.928.824-1.372a.717.717,0,0,1,.837-.278l2.369.844a13.73,13.73,0,0,1,1.245-1.334l-.995-2.3a.717.717,0,0,1,.223-.855A16.585,16.585,0,0,1,263.639,1.7a.717.717,0,0,1,.865.179l1.623,1.912a13.193,13.193,0,0,1,1.748-.528l.288-2.493a.717.717,0,0,1,.618-.628,16.488,16.488,0,0,1,3.207-.11.717.717,0,0,1,.661.588l.45,2.469a13.719,13.719,0,0,1,1.767.417l1.507-2.022a.717.717,0,0,1,.85-.235c.494.2.984.436,1.457.687s.918.523,1.363.82a.717.717,0,0,1,.278.837l-.843,2.375a12.9,12.9,0,0,1,1.331,1.244l2.312-.995a.717.717,0,0,1,.851.223,16.445,16.445,0,0,1,1.69,2.722.717.717,0,0,1-.179.865l-1.918,1.628a13.616,13.616,0,0,1,.528,1.744l2.5.292a.717.717,0,0,1,.627.619,16.308,16.308,0,0,1,.1,3.2.717.717,0,0,1-.586.658l-2.469.452c-.051.313-.107.595-.17.862-.074.319-.154.621-.242.912l2,1.5a.717.717,0,0,1,.235.85c-.208.5-.437.989-.68,1.444-.252.474-.529.94-.824,1.383a.717.717,0,0,1-.838.278l-2.366-.841a13.252,13.252,0,0,1-1.25,1.331l.884,2.046a.717.717,0,0,1-.219.851,15.917,15.917,0,0,1-2.8,1.739.717.717,0,0,1-.859-.18L275.7,29.1a14.223,14.223,0,0,1-1.74.526l-.3,2.5a.717.717,0,0,1-.618.627A16.242,16.242,0,0,1,270.914,32.891Zm-.422-1.441a14.969,14.969,0,0,0,1.81-.059l.29-2.446a.717.717,0,0,1,.58-.621,12.728,12.728,0,0,0,2.467-.743.717.717,0,0,1,.819.2l1.409,1.654a14.493,14.493,0,0,0,1.613-1l-.863-2a.717.717,0,0,1,.189-.827,11.757,11.757,0,0,0,1.758-1.875.717.717,0,0,1,.816-.249l2.317.823c.158-.259.31-.524.452-.792s.272-.53.4-.809l-1.962-1.465a.717.717,0,0,1-.248-.811,12.211,12.211,0,0,0,.364-1.27c.085-.363.156-.759.223-1.246a.717.717,0,0,1,.581-.608l2.413-.442a14.934,14.934,0,0,0-.059-1.812l-2.444-.285a.717.717,0,0,1-.622-.578,12.169,12.169,0,0,0-.747-2.464.717.717,0,0,1,.2-.827L284.119,9.3a15.046,15.046,0,0,0-.957-1.542l-2.26.974a.717.717,0,0,1-.828-.191A11.435,11.435,0,0,0,278.2,6.8a.717.717,0,0,1-.25-.817l.826-2.329c-.257-.159-.516-.308-.775-.448s-.541-.278-.819-.4L275.707,4.78a.717.717,0,0,1-.813.248,12.248,12.248,0,0,0-2.5-.591.717.717,0,0,1-.614-.583l-.44-2.413a15.1,15.1,0,0,0-1.817.062l-.282,2.442a.717.717,0,0,1-.582.623,11.708,11.708,0,0,0-2.462.744.717.717,0,0,1-.829-.2l-1.589-1.873a15.223,15.223,0,0,0-1.545.957l.972,2.246a.717.717,0,0,1-.185.824,12.253,12.253,0,0,0-1.756,1.887.717.717,0,0,1-.817.248l-2.32-.827c-.159.259-.311.522-.454.788s-.281.539-.407.811l1.982,1.472a.717.717,0,0,1,.25.81,12.773,12.773,0,0,0-.376,1.287c-.092.417-.163.827-.208,1.211a.717.717,0,0,1-.583.622l-2.422.446a15,15,0,0,0,.061,1.809l2.444.288a.717.717,0,0,1,.622.581,12.192,12.192,0,0,0,.746,2.466.717.717,0,0,1-.2.824l-1.871,1.588a15.014,15.014,0,0,0,.959,1.544l2.252-.971a.717.717,0,0,1,.824.186,12.685,12.685,0,0,0,1.882,1.756.717.717,0,0,1,.243.813l-.824,2.313c.26.16.523.311.789.452s.544.28.817.407l1.463-1.965a.717.717,0,0,1,.813-.249,12.3,12.3,0,0,0,2.5.584.717.717,0,0,1,.615.581Z" transform="translate(-224.034 0)"/>
      <path id="Trazado_877211" data-name="Trazado 877211" d="M331.319,64.939A8.824,8.824,0,0,0,319.4,68.551a8.408,8.408,0,0,0-.82,2.195,8.8,8.8,0,0,0,16.346,6.1,9.03,9.03,0,0,0,.813-2.164A8.806,8.806,0,0,0,331.319,64.939Z" transform="translate(-280.284 -56.26)" fill="#b22732"/>
      <path id="Trazado_877212" data-name="Trazado 877212" d="M321.9,77a9.536,9.536,0,0,1-9.278-11.64,9.108,9.108,0,0,1,.888-2.376,9.562,9.562,0,0,1,12.89-3.9l0,0a9.541,9.541,0,0,1,4.775,10.54,9.725,9.725,0,0,1-.877,2.337,9.438,9.438,0,0,1-5.622,4.626A9.547,9.547,0,0,1,321.9,77Zm.033-17.6a8.122,8.122,0,0,0-7.16,4.266,7.693,7.693,0,0,0-.751,2.009,8.084,8.084,0,0,0,15.012,5.612,8.283,8.283,0,0,0,.747-1.991,8.059,8.059,0,0,0-7.848-9.9Z" transform="translate(-275.029 -51.031)"/>
      <path id="Trazado_877213" data-name="Trazado 877213" d="M369.335,110.413a3.294,3.294,0,0,0-4.451,1.348,3.138,3.138,0,0,0-.306.819,3.286,3.286,0,0,0,6.1,2.278,3.368,3.368,0,0,0,.3-.808A3.287,3.287,0,0,0,369.335,110.413Z" transform="translate(-320.906 -96.869)" fill="#d1d3d4"/>
      <path id="Trazado_877214" data-name="Trazado 877214" d="M362.507,112.054a4.01,4.01,0,0,1-3.9-4.9,3.844,3.844,0,0,1,.374-1,4.02,4.02,0,0,1,5.419-1.641l0,0a4.012,4.012,0,0,1,2.007,4.433,4.076,4.076,0,0,1-.368.98,3.97,3.97,0,0,1-2.365,1.947,4.011,4.011,0,0,1-1.169.175Zm.012-6.571a2.581,2.581,0,0,0-2.276,1.356,2.42,2.42,0,0,0-.237.634,2.571,2.571,0,0,0,3.252,3.034,2.544,2.544,0,0,0,1.515-1.247,2.637,2.637,0,0,0,.238-.634,2.559,2.559,0,0,0-2.493-3.143Z" transform="translate(-315.633 -91.607)"/>
    </g>
  </g>
</svg>
