<svg xmlns="http://www.w3.org/2000/svg" width="90.914" height="90.914" viewBox="0 0 90.914 90.914">
  <g id="Grupo_1106623" data-name="Grupo 1106623" transform="translate(-1117.051 -1572)">
    <g id="Grupo_1106088" data-name="Grupo 1106088" transform="translate(1117.051 1572)">
      <rect id="Rectángulo_400898" data-name="Rectángulo 400898" width="90.914" height="90.914" rx="45.457" transform="translate(0 0)" fill="#febdaf" opacity="0.859"/>
      <rect id="Rectángulo_400907" data-name="Rectángulo 400907" width="90.914" height="90.914" rx="45.457" transform="translate(0 0)" fill="none"/>
    </g>
    <g id="analytics" transform="translate(1136.941 1592)">
      <g id="Grupo_1106621" data-name="Grupo 1106621" transform="translate(0.782 0.65)">
        <g id="Grupo_1106620" data-name="Grupo 1106620" transform="translate(11.766)">
          <path id="Trazado_877215" data-name="Trazado 877215" d="M130.224,38.872a18.962,18.962,0,1,1,26.817,0A18.984,18.984,0,0,1,130.224,38.872Z" transform="translate(-124.679 -6.51)" fill="#54a0ff"/>
        </g>
        <path id="Trazado_877216" data-name="Trazado 877216" d="M132.22,38.88A18.952,18.952,0,0,1,144.631,6.545a18.954,18.954,0,1,0,0,37.853A18.887,18.887,0,0,1,132.22,38.88Z" transform="translate(-112.913 -6.518)" fill="#338def"/>
        <path id="Trazado_877217" data-name="Trazado 877217" d="M173.632,71.3a15.626,15.626,0,1,1,15.626-15.626A15.626,15.626,0,0,1,173.632,71.3Z" transform="translate(-142.912 -36.7)" fill="#acd6fc"/>
        <path id="Trazado_877218" data-name="Trazado 877218" d="M160,55.675a15.626,15.626,0,0,1,14.628-15.593c-.33-.021-.663-.033-1-.033a15.625,15.625,0,1,0,1,31.219A15.626,15.626,0,0,1,160,55.675Z" transform="translate(-142.913 -36.7)" fill="#8ac2ff"/>
        <path id="Trazado_877219" data-name="Trazado 877219" d="M9.083,353.831l-1.6-1.6a2.165,2.165,0,0,1,0-3.052l11.008-11.008a1.2,1.2,0,0,1,1.695,0l2.875,2.875a1.2,1.2,0,0,1,0,1.695l-11.1,11.1A2.041,2.041,0,0,1,9.083,353.831Z" transform="translate(-6.849 -304.736)" fill="#ff6b6b"/>
        <path id="Trazado_877220" data-name="Trazado 877220" d="M8.659,350.806,20.115,339.35a1.193,1.193,0,0,1,.9-.347l-.841-.841a1.2,1.2,0,0,0-1.693,0l-11.01,11.01a2.163,2.163,0,0,0,0,3.05l.622.622A2.159,2.159,0,0,1,8.659,350.806Z" transform="translate(-6.842 -304.732)" fill="#ee5253"/>
        <rect id="Rectángulo_403488" data-name="Rectángulo 403488" width="6.462" height="3" transform="translate(9.059 36.01) rotate(45)" fill="#ee5253"/>
        <rect id="Rectángulo_403489" data-name="Rectángulo 403489" width="3" height="1.995" transform="translate(10.47 37.422) rotate(135)" fill="#d83941"/>
        <path id="Trazado_877221" data-name="Trazado 877221" d="M202.484,194.372V178.024h-4.977a.806.806,0,0,0-.806.806v11.4A15.644,15.644,0,0,0,202.484,194.372Z" transform="translate(-177.744 -160.898)" fill="#576574"/>
        <path id="Trazado_877222" data-name="Trazado 877222" d="M260.393,144.355v-23.2h-4.977a.806.806,0,0,0-.806.806v21.221A15.551,15.551,0,0,0,260.393,144.355Z" transform="translate(-229.871 -109.704)" fill="#15ba8b"/>
        <path id="Trazado_877223" data-name="Trazado 877223" d="M318.305,92.125V64.277h-4.977a.806.806,0,0,0-.806.806v5.6h0V93.16A15.51,15.51,0,0,0,318.305,92.125Z" transform="translate(-282 -58.509)" fill="#feca57"/>
        <path id="Trazado_877224" data-name="Trazado 877224" d="M376.214,37.035V8.188a.784.784,0,0,0-.784-.784h-4.193a.806.806,0,0,0-.806.806V40.931A15.63,15.63,0,0,0,376.214,37.035Z" transform="translate(-334.127 -7.315)" fill="#ee5253"/>
        <path id="Trazado_877225" data-name="Trazado 877225" d="M198.7,178.731a.805.805,0,0,1,.417-.706h-1.609a.806.806,0,0,0-.806.806v11.4a15.669,15.669,0,0,0,2,1.908Z" transform="translate(-177.743 -160.899)" fill="#3e4b5a"/>
        <path id="Trazado_877226" data-name="Trazado 877226" d="M256.608,121.756a.8.8,0,0,1,.276-.606h-1.467a.806.806,0,0,0-.806.806v21.221a15.48,15.48,0,0,0,2,.67V121.756Z" transform="translate(-229.871 -109.703)" fill="#11aa7b"/>
        <path id="Trazado_877227" data-name="Trazado 877227" d="M314.519,70.681h0v-5.8a.8.8,0,0,1,.276-.606h-1.467a.806.806,0,0,0-.806.806v5.6h0V93.16a15.149,15.149,0,0,0,2-.1Z" transform="translate(-282 -58.509)" fill="#f4b537"/>
        <path id="Trazado_877228" data-name="Trazado 877228" d="M372.43,8.009a.8.8,0,0,1,.276-.606h-1.467a.806.806,0,0,0-.806.806V40.93a15.562,15.562,0,0,0,2-.936Z" transform="translate(-334.128 -7.314)" fill="#d83941"/>
      </g>
      <g id="Grupo_1106622" data-name="Grupo 1106622" transform="translate(0.11 0)">
        <path id="Trazado_877229" data-name="Trazado 877229" d="M43.684,4.185V1.538A1.534,1.534,0,0,0,42.151.005H37.958a1.553,1.553,0,0,0-1.281.676A19.687,19.687,0,0,0,17.1,33.065L15.6,34.518l-.9-.9a1.95,1.95,0,0,0-2.754,0L.96,44.617a2.91,2.91,0,0,0,0,4.111l1.6,1.6a2.788,2.788,0,0,0,3.938,0L17.579,39.246a1.95,1.95,0,0,0,0-2.754l-.915-.915,1.492-1.453a19.672,19.672,0,0,0,12.02,5.2l.052,0a.749.749,0,0,0,.051-1.5A18.187,18.187,0,1,1,36.4,2.159V4.085A16.361,16.361,0,1,0,43.48,30.9l0,0,.017-.019a16.355,16.355,0,0,0,.185-22.136V6.134a18.194,18.194,0,0,1-10.046,31.62.749.749,0,0,0,.171,1.488A19.689,19.689,0,0,0,43.684,4.185ZM5.438,49.269a1.288,1.288,0,0,1-1.819,0l-1.6-1.6a1.411,1.411,0,0,1,0-1.993l5.77-5.77,3.506,3.506Zm6.916-6.916L8.848,38.848l1.06-1.06,3.506,3.506Zm4.166-4.166-2.047,2.047-3.506-3.506,2.047-2.047a.452.452,0,0,1,.635,0l2.87,2.87A.453.453,0,0,1,16.52,38.187Zm8.319-5.219A14.951,14.951,0,0,1,20.554,29.7V18.6a.057.057,0,0,1,.057-.057h4.228V32.968Zm5.782,1.572a14.709,14.709,0,0,1-4.285-.913V12.918a.057.057,0,0,1,.057-.057h4.228V34.54Zm5.782-.783a14.773,14.773,0,0,1-4.285.8V7.239h0a.057.057,0,0,1,.057-.057H36.4Zm0-28.073H32.176a1.556,1.556,0,0,0-1.555,1.555v4.124H26.393a1.556,1.556,0,0,0-1.554,1.555v4.124H20.611A1.556,1.556,0,0,0,19.056,18.6v9.156A14.862,14.862,0,0,1,36.4,5.662Zm10,14.025a14.8,14.8,0,0,1-2.724,8.577V21.391a.749.749,0,1,0-1.5,0v8.692A14.968,14.968,0,0,1,37.9,33.145V1.56a.057.057,0,0,1,.057-.057h4.193a.035.035,0,0,1,.035.035V17.9a.749.749,0,0,0,1.5,0V11.133A14.8,14.8,0,0,1,46.408,19.71Z" transform="translate(-0.11 0)"/>
      </g>
    </g>
  </g>
</svg>
