<svg xmlns="http://www.w3.org/2000/svg" width="78" height="78" viewBox="0 0 78 78">
  <g id="Grupo_1106751" data-name="Grupo 1106751" transform="translate(-292.051 -1471)">
    <circle id="Elipse_11629" data-name="Elipse 11629" cx="39" cy="39" r="39" transform="translate(292.051 1471)" fill="#fd5a37"/>
    <g id="Layer_1" transform="translate(297.791 1478.51)">
      <g id="Grupo_1106750" data-name="Grupo 1106750" transform="translate(5.26 3.49)">
        <path id="Trazado_877656" data-name="Trazado 877656" d="M35.023,27.3a3.557,3.557,0,0,0,3.554,3.558h1.146v7.109H32.613v1.146a3.557,3.557,0,0,1-7.114,0V37.965H18.39V31.713h9.381a2.426,2.426,0,0,0,2.423-2.423V25.305a2.42,2.42,0,0,0-2.423-2.423h-4.33l.449-.96a1.372,1.372,0,1,0-2.487-1.16l-.989,2.119H18.39V16.63H39.723v7.112H38.577A3.554,3.554,0,0,0,35.023,27.3Z" transform="translate(-15.411 -13.648)" fill="#f2bf22"/>
        <path id="Trazado_877657" data-name="Trazado 877657" d="M21.976,36.681v3.985a2.426,2.426,0,0,1-2.423,2.423H7.76V34.257H12.2l.989-2.119a1.372,1.372,0,1,1,2.487,1.16l-.449.96h4.33A2.42,2.42,0,0,1,21.976,36.681Z" transform="translate(-7.193 -25.024)" fill="#ffb69f"/>
        <path id="Trazado_877658" data-name="Trazado 877658" d="M34.849,94.85A1.856,1.856,0,0,1,32.995,93V90.151H29.262a.567.567,0,0,1,0-1.135h4.3a.567.567,0,0,1,.567.567V93a.72.72,0,0,0,1.44,0V89.583a.567.567,0,0,1,.567-.567H42.68V86.9a.567.567,0,0,1,1.135,0v2.681a.567.567,0,0,1-.567.567H36.7V93a1.855,1.855,0,0,1-1.854,1.852Zm-7.856-4.7h-.542a.567.567,0,1,1,0-1.135h.542a.567.567,0,1,1,0,1.135Z" transform="translate(-21.204 -67.536)" fill="#f8e5b0"/>
        <path id="Trazado_877659" data-name="Trazado 877659" d="M31.883,30.93v3.985a4.117,4.117,0,0,1-4.112,4.114H18.39V37.339h9.381a2.426,2.426,0,0,0,2.423-2.423V30.93a2.42,2.42,0,0,0-2.423-2.423h-4.33l.449-.96a1.372,1.372,0,1,0-2.487-1.16l-.989,2.119H18.39V26.819h.949l.536-1.146a3.06,3.06,0,0,1,5.83,1.146h2.067A4.117,4.117,0,0,1,31.883,30.93Z" transform="translate(-15.411 -19.274)" fill="#e8a61e"/>
        <path id="Trazado_877660" data-name="Trazado 877660" d="M149.574,16.62V37.953h-7.112V36.807a3.557,3.557,0,0,0-7.114,0v1.146h-7.109V30.843h-1.146a3.557,3.557,0,0,1,0-7.114h1.146V16.62h6.252V26a2.423,2.423,0,0,0,2.423,2.423H140.9A2.422,2.422,0,0,0,143.323,26v-4.33l.96.449a1.372,1.372,0,1,0,1.16-2.487l-2.119-.989V16.62Z" transform="translate(-96.7 -13.641)" fill="#fc5d3d"/>
        <path id="Trazado_877661" data-name="Trazado 877661" d="M183.416,13.238a1.375,1.375,0,0,1-1.824.665l-.96-.449v4.33a2.422,2.422,0,0,1-2.423,2.423h-3.985a2.423,2.423,0,0,1-2.423-2.423V5.99h8.832v4.436l2.119.989a1.372,1.372,0,0,1,.665,1.822Z" transform="translate(-134.009 -5.423)" fill="#ffb69f"/>
        <path id="Trazado_877662" data-name="Trazado 877662" d="M138.984,42.044H136.3a.567.567,0,0,1-.567-.567V34.934h-2.847a1.854,1.854,0,0,1,0-3.709h2.847V27.492a.567.567,0,0,1,1.135,0v4.3a.567.567,0,0,1-.567.567h-3.414a.72.72,0,0,0,0,1.44H136.3a.567.567,0,0,1,.567.567V40.91h2.114a.567.567,0,1,1,0,1.135ZM136.3,25.79a.567.567,0,0,1-.567-.567v-.542a.567.567,0,0,1,1.135,0v.542A.567.567,0,0,1,136.3,25.79Z" transform="translate(-102.495 -19.434)" fill="#ffcbc3"/>
        <path id="Trazado_877663" data-name="Trazado 877663" d="M176.56,23.934V26a4.117,4.117,0,0,1-4.112,4.112h-3.985A4.117,4.117,0,0,1,164.35,26V16.62h1.691V26a2.423,2.423,0,0,0,2.424,2.423h3.985A2.422,2.422,0,0,0,174.872,26v-4.33l.96.449a1.372,1.372,0,1,0,1.16-2.487l-2.119-.989V16.62h1.688v.949l1.146.536A3.064,3.064,0,0,1,176.56,23.934Z" transform="translate(-128.25 -13.641)" fill="#b34f33"/>
        <path id="Trazado_877664" data-name="Trazado 877664" d="M165.593,128.389v6.252h-9.381a2.426,2.426,0,0,0-2.423,2.423v3.985a2.423,2.423,0,0,0,2.423,2.423h4.33l-.449.96a1.372,1.372,0,1,0,2.487,1.16l.989-2.119h2.024v6.252H144.26v-7.112h1.146a3.557,3.557,0,0,0,0-7.114H144.26v-7.109h7.109v-1.146a3.557,3.557,0,0,1,7.114,0v1.146Z" transform="translate(-112.718 -96.414)" fill="#72c2e9"/>
        <path id="Trazado_877665" data-name="Trazado 877665" d="M200.466,171.95v8.832H196.03l-.989,2.119a1.372,1.372,0,1,1-2.487-1.16l.449-.96h-4.33a2.423,2.423,0,0,1-2.423-2.423v-3.985a2.426,2.426,0,0,1,2.423-2.423Z" transform="translate(-145.18 -133.723)" fill="#ffb69f"/>
        <path id="Trazado_877666" data-name="Trazado 877666" d="M152.327,139.706a.567.567,0,0,1-.567-.567v-2.681a.567.567,0,0,1,.567-.567h6.543v-2.847a1.854,1.854,0,0,1,3.709,0v2.847h3.732a.567.567,0,1,1,0,1.135h-4.3a.567.567,0,0,1-.567-.567v-3.414a.72.72,0,0,0-1.44,0v3.414a.567.567,0,0,1-.567.567h-6.543v2.114A.567.567,0,0,1,152.327,139.706Zm16.8-2.681h-.542a.567.567,0,0,1,0-1.135h.542a.567.567,0,0,1,0,1.135Z" transform="translate(-118.517 -102.213)" fill="#c5e5fe"/>
        <path id="Trazado_877667" data-name="Trazado 877667" d="M180.5,168.614V172.6a2.423,2.423,0,0,0,2.423,2.423h4.33l-.449.96a1.372,1.372,0,1,0,2.487,1.16l.989-2.119H192.3v1.688h-.949l-.536,1.146a3.063,3.063,0,0,1-5.83-1.146h-2.067a4.117,4.117,0,0,1-4.112-4.112v-3.985a4.117,4.117,0,0,1,4.112-4.114H192.3v1.691h-9.381A2.426,2.426,0,0,0,180.5,168.614Z" transform="translate(-139.428 -127.964)" fill="#48a6c8"/>
        <path id="Trazado_877668" data-name="Trazado 877668" d="M44.414,155.047a3.555,3.555,0,0,1-3.554,3.556H39.715v7.109H33.463v-9.381a2.426,2.426,0,0,0-2.423-2.423H27.055a2.424,2.424,0,0,0-2.423,2.423v4.33l-.96-.449a1.372,1.372,0,1,0-1.16,2.487l2.119.989v2.024H18.38V144.38h7.112v1.146a3.557,3.557,0,0,0,7.114,0V144.38h7.109v7.109h1.146A3.556,3.556,0,0,1,44.414,155.047Z" transform="translate(-15.403 -112.41)" fill="#13bf6d"/>
        <path id="Trazado_877669" data-name="Trazado 877669" d="M44.839,188.793v11.793H36.007V196.15l-2.119-.989a1.372,1.372,0,1,1,1.16-2.487l.96.449v-4.33a2.424,2.424,0,0,1,2.423-2.423h3.985A2.426,2.426,0,0,1,44.839,188.793Z" transform="translate(-26.778 -144.871)" fill="#ffb69f"/>
        <path id="Trazado_877670" data-name="Trazado 877670" d="M91.336,169.814a.567.567,0,0,1-.567-.567V168.7a.567.567,0,1,1,1.135,0v.542A.567.567,0,0,1,91.336,169.814Zm0-2.811a.567.567,0,0,1-.567-.567v-4.3a.567.567,0,0,1,.567-.567h3.414a.72.72,0,0,0,0-1.44H91.336a.567.567,0,0,1-.567-.567v-6.543H88.655a.567.567,0,1,1,0-1.135h2.681a.567.567,0,0,1,.567.567v6.543h2.847a1.854,1.854,0,0,1,0,3.709H91.9v3.732A.567.567,0,0,1,91.336,167Z" transform="translate(-69.293 -118.211)" fill="#76ffbb"/>
        <path id="Trazado_877671" data-name="Trazado 877671" d="M40.779,183.042v9.381H39.089v-9.381a2.426,2.426,0,0,0-2.423-2.423H32.68a2.424,2.424,0,0,0-2.423,2.423v4.33l-.96-.449a1.372,1.372,0,1,0-1.16,2.487l2.119.989v2.024H28.569v-.949l-1.146-.536a3.06,3.06,0,0,1,1.146-5.83v-2.067a4.117,4.117,0,0,1,4.112-4.112h3.985A4.117,4.117,0,0,1,40.779,183.042Z" transform="translate(-21.028 -139.12)" fill="#139d6d"/>
        <circle id="Elipse_11656" data-name="Elipse 11656" cx="0.567" cy="0.567" r="0.567" transform="translate(8.101 17.498)"/>
        <path id="Trazado_877672" data-name="Trazado 877672" d="M11.659,30.348a.567.567,0,0,0,0-1.135H5.827a.567.567,0,0,0,0,1.135H7.672v5.684a.567.567,0,0,0,.567.567h6.542v.579a4.124,4.124,0,0,0,8.248,0V36.6h6.542a.567.567,0,0,0,.567-.567V28.923a.567.567,0,0,0-.567-.567H28.426a2.99,2.99,0,0,1,0-5.979h1.146a.567.567,0,0,0,.567-.567V14.7a.567.567,0,0,0-.567-.567H8.239a.567.567,0,0,0-.567.567v5.684H5.827a.567.567,0,0,0,0,1.135h4.436a.572.572,0,0,0,.515-.327l.989-2.119a.8.8,0,0,1,1.459.678l-.449.96a.567.567,0,0,0,.513.808h4.33a1.856,1.856,0,0,1,1.856,1.869H15.154a.567.567,0,1,0,0,1.135h4.323v1.692H15.154a.567.567,0,1,0,0,1.135h4.323a1.855,1.855,0,0,1-1.856,1.868H16.2a.567.567,0,1,0,0,1.135H17.62a3,3,0,0,0,2.991-2.977v-4a2.992,2.992,0,0,0-2.991-2.991H14.182l.07-.152a1.939,1.939,0,1,0-3.515-1.641L9.9,20.382h-1.1V15.265H29v5.977h-.579a4.124,4.124,0,0,0,0,8.248H29v5.975H22.463a.567.567,0,0,0-.567.567v1.146a2.99,2.99,0,0,1-5.979,0V36.032a.567.567,0,0,0-.567-.567H8.807V30.348Z" transform="translate(-5.26 -11.716)"/>
        <circle id="Elipse_11657" data-name="Elipse 11657" cx="0.567" cy="0.567" r="0.567" transform="translate(37.224 8.099)"/>
        <path id="Trazado_877673" data-name="Trazado 877673" d="M125.736,21.26V27.8a.567.567,0,0,0,.567.567h7.109a.567.567,0,0,0,.567-.567V26.656a2.99,2.99,0,0,1,5.979,0V27.8a.567.567,0,0,0,.567.567h7.112a.567.567,0,0,0,.567-.567V6.469a.567.567,0,0,0-.567-.567h-5.684V4.057a.567.567,0,1,0-1.135,0V8.494a.563.563,0,0,0,.327.513l2.119.992a.8.8,0,0,1-.678,1.459l-.96-.449a.566.566,0,0,0-.808.513v4.33a1.856,1.856,0,0,1-1.87,1.856V13.384a.567.567,0,1,0-1.135,0v4.323h-1.691V13.384a.567.567,0,1,0-1.135,0v4.323a1.856,1.856,0,0,1-1.867-1.856V14.425a.567.567,0,0,0-1.135,0V15.85a2.992,2.992,0,0,0,2.959,2.991h4.016a2.994,2.994,0,0,0,2.991-2.991V12.412l.152.07a1.938,1.938,0,1,0,1.638-3.513l-1.79-.837v-1.1h5.116v20.2h-5.977v-.579a4.124,4.124,0,0,0-8.248,0v.579h-5.975V20.693a.567.567,0,0,0-.567-.567h-1.146a2.99,2.99,0,0,1,0-5.979H126.3a.567.567,0,0,0,.567-.567V7.037h5.118v2.85a.567.567,0,0,0,1.135,0V4.057a.567.567,0,0,0-1.135,0V5.9H126.3a.567.567,0,0,0-.567.567v6.542h-.579a4.124,4.124,0,0,0,0,8.248Z" transform="translate(-94.765 -3.49)"/>
        <path id="Trazado_877674" data-name="Trazado 877674" d="M160.24,132.143a.567.567,0,0,0,0,1.135h5.832a.567.567,0,0,0,0-1.135h-1.845V126.46a.567.567,0,0,0-.567-.567h-6.542v-.579a4.124,4.124,0,0,0-8.248,0v.579h-6.542a.567.567,0,0,0-.567.567v7.109a.567.567,0,0,0,.567.567h1.146a2.99,2.99,0,0,1,0,5.979h-1.146a.567.567,0,0,0-.567.567v7.112a.567.567,0,0,0,.567.567H163.66a.567.567,0,0,0,.567-.567V142.11h1.845a.567.567,0,0,0,0-1.135h-4.436a.57.57,0,0,0-.515.329l-.989,2.117a.8.8,0,1,1-1.459-.676l.449-.962a.568.568,0,0,0-.513-.808h-4.33a1.854,1.854,0,0,1-1.856-1.868h4.323a.567.567,0,0,0,0-1.135h-4.323v-1.691h4.323a.567.567,0,1,0,0-1.135h-4.323v-.012a1.855,1.855,0,0,1,1.856-1.856H155.7a.567.567,0,0,0,0-1.135h-1.425a3,3,0,0,0-2.991,2.964v4.012a2.993,2.993,0,0,0,2.991,2.991h3.438l-.07.152a1.938,1.938,0,1,0,3.513,1.641L162,142.11h1.1v5.118h-20.2V141.25h.579a4.124,4.124,0,0,0,0-8.248h-.579v-5.975h6.542a.567.567,0,0,0,.567-.567v-1.146a2.99,2.99,0,0,1,5.979,0v1.146a.567.567,0,0,0,.567.567h6.542v5.116Z" transform="translate(-110.786 -94.484)"/>
        <path id="Trazado_877675" data-name="Trazado 877675" d="M210.7,170.017a.568.568,0,1,0,.57-.567A.569.569,0,0,0,210.7,170.017Z" transform="translate(-164.082 -131.791)"/>
        <circle id="Elipse_11658" data-name="Elipse 11658" cx="0.567" cy="0.567" r="0.567" transform="translate(17.493 47.049)"/>
        <path id="Trazado_877676" data-name="Trazado 877676" d="M30.965,166.2a.567.567,0,0,0,1.135,0v-1.844h5.685a.567.567,0,0,0,.567-.567v-6.542h.579a4.124,4.124,0,0,0,0-8.248h-.579v-6.542a.567.567,0,0,0-.567-.567H30.675a.567.567,0,0,0-.567.567V143.6a2.99,2.99,0,0,1-5.979,0v-1.146a.567.567,0,0,0-.567-.567H16.449a.567.567,0,0,0-.567.567v21.333a.567.567,0,0,0,.567.567h5.684V166.2a.567.567,0,0,0,1.135,0v-4.436a.568.568,0,0,0-.327-.513l-2.119-.989A.805.805,0,0,1,21.5,158.8l.962.452a.569.569,0,0,0,.808-.515V154.4a1.856,1.856,0,0,1,1.869-1.856v4.324a.567.567,0,0,0,1.135,0v-4.324h1.692v4.324a.567.567,0,0,0,1.135,0v-4.324a1.857,1.857,0,0,1,1.867,1.856v1.425a.567.567,0,0,0,1.135,0V154.4a3,3,0,0,0-2.964-2.991H25.124a2.991,2.991,0,0,0-2.991,2.991v3.438l-.152-.07a1.939,1.939,0,0,0-1.641,3.515l1.793.835v1.1H17.017v-20.2h5.977v.579a4.124,4.124,0,0,0,8.248,0v-.579h5.975v6.542a.567.567,0,0,0,.567.567H38.93a2.99,2.99,0,0,1,0,5.979H37.784a.567.567,0,0,0-.567.567v6.542H32.1v-2.851a.567.567,0,1,0-1.135,0Z" transform="translate(-13.472 -110.48)"/>
      </g>
    </g>
  </g>
</svg>
