<svg xmlns="http://www.w3.org/2000/svg" xmlns:xlink="http://www.w3.org/1999/xlink" width="400.051" height="221.314" viewBox="0 0 400.051 221.314">
  <defs>
    <clipPath id="clip-path">
      <rect id="Rectángulo_403441" data-name="Rectángulo 403441" width="400" height="221.314" rx="14" transform="translate(600.051 377.686)" fill="#340b81"/>
    </clipPath>
    <clipPath id="clip-path-2">
      <rect id="Rectángulo_403434" data-name="Rectángulo 403434" width="260.622" height="251.6" fill="none"/>
    </clipPath>
    <clipPath id="clip-path-3">
      <path id="Trazado_876804" data-name="Trazado 876804" d="M72.437,78.37c0,6.553,3.756,11.866,8.389,11.866s8.388-5.313,8.388-11.866S85.458,66.5,80.826,66.5s-8.389,5.313-8.389,11.866" transform="translate(-72.437 -66.504)" fill="none"/>
    </clipPath>
    <clipPath id="clip-path-5">
      <path id="Trazado_876807" data-name="Trazado 876807" d="M116.537,78.37c0,6.553,3.756,11.866,8.388,11.866s8.388-5.313,8.388-11.866S129.558,66.5,124.925,66.5s-8.388,5.313-8.388,11.866" transform="translate(-116.537 -66.504)" fill="none"/>
    </clipPath>
    <clipPath id="clip-path-7">
      <path id="Trazado_876854" data-name="Trazado 876854" d="M259.709,78.37c0,6.553,3.756,11.866,8.388,11.866s8.388-5.313,8.388-11.866S272.73,66.5,268.1,66.5s-8.388,5.313-8.388,11.866" transform="translate(-259.709 -66.504)" fill="none"/>
    </clipPath>
    <clipPath id="clip-path-9">
      <path id="Trazado_876858" data-name="Trazado 876858" d="M215.609,78.37c0,6.553,3.756,11.866,8.389,11.866s8.388-5.313,8.388-11.866S228.63,66.5,224,66.5s-8.389,5.313-8.389,11.866" transform="translate(-215.609 -66.504)" fill="none"/>
    </clipPath>
    <clipPath id="clip-path-11">
      <rect id="Rectángulo_403440" data-name="Rectángulo 403440" width="62.175" height="52.295" fill="none"/>
    </clipPath>
  </defs>
  <g id="Grupo_1106536" data-name="Grupo 1106536" transform="translate(-600 -377.686)">
    <rect id="Rectángulo_403430" data-name="Rectángulo 403430" width="400" height="221.314" rx="14" transform="translate(600 377.686)" fill="#340b81"/>
    <g id="Enmascarar_grupo_1099798" data-name="Enmascarar grupo 1099798" clip-path="url(#clip-path)">
      <g id="Grupo_1106533" data-name="Grupo 1106533" transform="translate(670.051 409.283)">
        <g id="Grupo_1106516" data-name="Grupo 1106516">
          <g id="Grupo_1106515" data-name="Grupo 1106515" clip-path="url(#clip-path-2)">
            <path id="Trazado_876795" data-name="Trazado 876795" d="M23.026,69.512s-37.531,41.374,3.836,41.374c50.54,0,56.166-41.374,56.166-41.374Z" transform="translate(-1.969 -18.434)" fill="#ff9906"/>
            <path id="Trazado_876796" data-name="Trazado 876796" d="M141.1,176.547s17.5,12.893,14.89,121.5H138.317Z" transform="translate(-36.68 -46.818)" fill="#7ea5cc"/>
            <rect id="Rectángulo_403433" data-name="Rectángulo 403433" width="28.137" height="22.155" transform="translate(49.681 97.616)" fill="#93684c"/>
            <path id="Trazado_876797" data-name="Trazado 876797" d="M95.747,132.845H67.61v8.461a54.535,54.535,0,0,0,26.027,3.485c.719-.083,1.416-.194,2.11-.309Z" transform="translate(-17.929 -35.229)" fill="#5b280f"/>
            <path id="Trazado_876798" data-name="Trazado 876798" d="M112.069,60.09a41.3,41.3,0,1,0-80.323,5.477h0l.009.021A41.094,41.094,0,0,0,36.13,75.3l8.085,17.929c8.757,11.847,25.314,15.747,38.044,14.275a34.992,34.992,0,0,0,25.313-14.938c4.121-6.255,3.312-13.981,3.312-18.176s1.187-14.3,1.187-14.3Z" transform="translate(-7.951 -3.269)" fill="#93684c"/>
            <path id="Trazado_876799" data-name="Trazado 876799" d="M107.87,97.539c0,.736.8,1.331,1.8,1.331s1.794-.6,1.794-1.331-.8-1.331-1.794-1.331-1.8.6-1.8,1.331" transform="translate(-28.606 -25.513)" fill="#ff4701"/>
            <path id="Trazado_876800" data-name="Trazado 876800" d="M73.457,60.53s7.339-2.589,14.023-.3c0,0-1.355-2.955-5.9-3.328s-8.125,3.631-8.125,3.631" transform="translate(-19.48 -15.082)" fill="#5b280f"/>
            <path id="Trazado_876801" data-name="Trazado 876801" d="M133.286,60.53s-7.339-2.589-14.023-.3c0,0,1.355-2.955,5.9-3.328s8.125,3.631,8.125,3.631" transform="translate(-31.627 -15.082)" fill="#5b280f"/>
            <path id="Trazado_876802" data-name="Trazado 876802" d="M72.438,78.37c0,6.553,3.756,11.866,8.388,11.866s8.388-5.313,8.388-11.866S85.458,66.5,80.826,66.5s-8.388,5.313-8.388,11.866" transform="translate(-19.21 -17.636)" fill="#fff"/>
          </g>
        </g>
        <g id="Grupo_1106518" data-name="Grupo 1106518" transform="translate(53.228 48.868)">
          <g id="Grupo_1106517" data-name="Grupo 1106517" clip-path="url(#clip-path-3)">
            <path id="Trazado_876803" data-name="Trazado 876803" d="M75.988,78.37c0,6.553,3.756,11.866,8.388,11.866s8.388-5.313,8.388-11.866S89.008,66.5,84.376,66.5s-8.388,5.313-8.388,11.866" transform="translate(-73.379 -66.504)" fill="#5b280f"/>
          </g>
        </g>
        <g id="Grupo_1106520" data-name="Grupo 1106520">
          <g id="Grupo_1106519" data-name="Grupo 1106519" clip-path="url(#clip-path-2)">
            <path id="Trazado_876805" data-name="Trazado 876805" d="M116.537,78.37c0,6.553,3.756,11.866,8.388,11.866s8.388-5.313,8.388-11.866S129.557,66.5,124.925,66.5s-8.388,5.313-8.388,11.866" transform="translate(-30.904 -17.636)" fill="#fff"/>
          </g>
        </g>
        <g id="Grupo_1106522" data-name="Grupo 1106522" transform="translate(85.633 48.868)">
          <g id="Grupo_1106521" data-name="Grupo 1106521" clip-path="url(#clip-path-5)">
            <path id="Trazado_876806" data-name="Trazado 876806" d="M120.088,78.37c0,6.553,3.756,11.866,8.388,11.866s8.388-5.313,8.388-11.866S133.108,66.5,128.476,66.5s-8.388,5.313-8.388,11.866" transform="translate(-117.479 -66.504)" fill="#5b280f"/>
          </g>
        </g>
        <g id="Grupo_1106524" data-name="Grupo 1106524">
          <g id="Grupo_1106523" data-name="Grupo 1106523" clip-path="url(#clip-path-2)">
            <path id="Trazado_876808" data-name="Trazado 876808" d="M113.494,108.823c-1.352-3.312-4.236-.074-7.9-.238s-7.372-2.988-9.629-.068,1.273,7.748,8.336,7.628,10.549-4.01,9.2-7.322" transform="translate(-25.268 -28.428)" fill="#5b280f"/>
            <path id="Trazado_876809" data-name="Trazado 876809" d="M111.273,114.345c-1.11-2.091-2.726-4.542-8.151-5.687-1.548-.327-3.477-1.259-5.708-1.173a3,3,0,0,0-1.453,1.107c-2.257,2.92,1.273,7.748,8.336,7.628a12.882,12.882,0,0,0,6.976-1.875" transform="translate(-25.268 -28.502)" fill="#ff4701"/>
            <path id="Trazado_876810" data-name="Trazado 876810" d="M106.346,108.586c-2.978-.133-5.981-2.02-8.214-1.16a13.8,13.8,0,0,0,8.167,2.683c5.041.068,6.185-2.756,6.192-2.774-1.533-.087-3.659,1.362-6.145,1.251" transform="translate(-26.023 -28.428)" fill="#fff"/>
            <path id="Trazado_876811" data-name="Trazado 876811" d="M27.891,81.771c-5.487,1.586-9.241,7.342-9.152,13.052s3.626,11.068,8.5,14.042a24.35,24.35,0,0,0,16.538,2.793V89.048c-1.719-6.637-10.4-8.863-15.886-7.277" transform="translate(-4.969 -21.555)" fill="#93684c"/>
            <path id="Trazado_876812" data-name="Trazado 876812" d="M26.857,97.936A6.035,6.035,0,0,1,30.4,91.76a7.849,7.849,0,0,1,7.3.722,11.348,11.348,0,0,1,4.454,6.038,3.732,3.732,0,1,0,.053,7.41" transform="translate(-7.106 -24.176)" fill="none" stroke="#5b280f" stroke-linecap="round" stroke-linejoin="round" stroke-width="1"/>
            <path id="Trazado_876813" data-name="Trazado 876813" d="M47.2,89.048c-1.684-6.5-10.055-8.771-15.552-7.368" transform="translate(-8.393 -21.555)" fill="none" stroke="#5b280f" stroke-linecap="round" stroke-linejoin="round" stroke-width="1"/>
            <path id="Trazado_876814" data-name="Trazado 876814" d="M50.067,122.879q1.015-.093,2.018-.258" transform="translate(-13.277 -32.517)" fill="none" stroke="#5b280f" stroke-linecap="round" stroke-linejoin="round" stroke-width="1"/>
            <path id="Trazado_876815" data-name="Trazado 876815" d="M56.505,162.995a73.717,73.717,0,0,0-30.771,9.958l5.879,121.5h76.926l2.783-121.5s-12.441-8.685-26.68-9.958Z" transform="translate(-6.824 -43.224)" fill="#93684c"/>
            <path id="Trazado_876816" data-name="Trazado 876816" d="M62.985,10.947C25.918,18.152,28.64,54.785,28.64,54.785c32.441-28.228,82.3-15.851,82.3-15.851S100.053,3.742,62.985,10.947M73.811,30.129S74.277,18.749,84.7,19.123,97.8,30.55,97.8,30.55a123.431,123.431,0,0,0-23.989-.422" transform="translate(-7.583 -2.645)" fill="#ff9906"/>
            <path id="Trazado_876817" data-name="Trazado 876817" d="M122.777,37.976a3.463,3.463,0,0,1,3.027,2.931c.462,2.722-2.453,3.442-2.453,3.442" transform="translate(-32.559 -10.071)" fill="none" stroke="#5b280f" stroke-linecap="round" stroke-linejoin="round" stroke-width="1"/>
            <path id="Trazado_876818" data-name="Trazado 876818" d="M121.824,41.679a.5.5,0,1,0,.5-.5.5.5,0,0,0-.5.5" transform="translate(-32.306 -10.921)" fill="#5b280f"/>
            <path id="Trazado_876819" data-name="Trazado 876819" d="M114.166,41.172a.5.5,0,1,0,.5-.5.5.5,0,0,0-.5.5" transform="translate(-30.275 -10.787)" fill="#5b280f"/>
            <path id="Trazado_876820" data-name="Trazado 876820" d="M107.383,41a.5.5,0,1,0,.5-.5.5.5,0,0,0-.5.5" transform="translate(-28.477 -10.742)" fill="#5b280f"/>
            <path id="Trazado_876821" data-name="Trazado 876821" d="M100.238,41a.5.5,0,1,0,.5-.5.5.5,0,0,0-.5.5" transform="translate(-26.582 -10.742)" fill="#5b280f"/>
            <path id="Trazado_876822" data-name="Trazado 876822" d="M92.991,41.172a.5.5,0,1,0,.5-.5.5.5,0,0,0-.5.5" transform="translate(-24.66 -10.787)" fill="#5b280f"/>
            <line id="Línea_669" data-name="Línea 669" x2="0.36" y2="6.795" transform="translate(66.228 27.484)" fill="none" stroke="#5b280f" stroke-linecap="round" stroke-linejoin="round" stroke-width="1"/>
            <path id="Trazado_876823" data-name="Trazado 876823" d="M29.632,69.741l-.977.833V69.512" transform="translate(-7.599 -18.434)" fill="none" stroke="#5b280f" stroke-linecap="round" stroke-linejoin="round" stroke-width="1"/>
            <path id="Trazado_876824" data-name="Trazado 876824" d="M64.7,12.309S45.14,23.985,47.686,46.067" transform="translate(-12.585 -3.264)" fill="none" stroke="#5b280f" stroke-linecap="round" stroke-linejoin="round" stroke-width="1"/>
            <path id="Trazado_876825" data-name="Trazado 876825" d="M98.581,162.4h0c1.083-2.579-1.083-5.1-3.243-10.13s-10.694-4.363-10.694-4.363v11.08L73.984,173.578,56.506,156.16v-8.252s-6.416-.157-8.594,2.455-7.613,9.236-6.447,11.6h0a67.956,67.956,0,0,0-15.732,6.98l5.879,121.5H108.54l2.783-121.5A66.335,66.335,0,0,0,98.581,162.4" transform="translate(-6.825 -39.215)" fill="#7ea5cc"/>
            <path id="Trazado_876826" data-name="Trazado 876826" d="M61.071,150.261s-1.1,1.851,4.784,6.532" transform="translate(-16.173 -39.847)" fill="none" stroke="#5b280f" stroke-linecap="round" stroke-linejoin="round" stroke-width="1"/>
            <path id="Trazado_876827" data-name="Trazado 876827" d="M105.9,159.618s9.574-7.724,3.241-9.357" transform="translate(-28.084 -39.847)" fill="none" stroke="#5b280f" stroke-linecap="round" stroke-linejoin="round" stroke-width="1"/>
            <path id="Trazado_876828" data-name="Trazado 876828" d="M47.143,167.046s9.086,8.568,28.688,11.248" transform="translate(-12.502 -44.298)" fill="none" stroke="#5b280f" stroke-linecap="round" stroke-linejoin="round" stroke-width="1"/>
            <path id="Trazado_876829" data-name="Trazado 876829" d="M117.025,167.64s-6.5,6.948-21.741,10.417" transform="translate(-25.268 -44.456)" fill="none" stroke="#5b280f" stroke-linecap="round" stroke-linejoin="round" stroke-width="1"/>
            <path id="Trazado_876830" data-name="Trazado 876830" d="M74.124,173.44a1.8,1.8,0,1,0,1.776-2.123,1.973,1.973,0,0,0-1.776,2.123" transform="translate(-19.657 -45.431)" fill="#fff"/>
            <path id="Trazado_876831" data-name="Trazado 876831" d="M76.276,220.265a.735.735,0,0,1-.735-.735v-7.757a.735.735,0,0,1,1.47,0v7.757a.735.735,0,0,1-.735.735" transform="translate(-20.032 -55.965)" fill="#fff"/>
            <path id="Trazado_876832" data-name="Trazado 876832" d="M76.143,202.955a1.1,1.1,0,0,1-1.1-1.1V173.807a1.1,1.1,0,1,1,2.2,0v28.046a1.1,1.1,0,0,1-1.1,1.1" transform="translate(-19.9 -45.799)" fill="#eaa8ba"/>
            <path id="Trazado_876833" data-name="Trazado 876833" d="M101.069,173.44a1.8,1.8,0,1,0,1.776-2.123,1.973,1.973,0,0,0-1.776,2.123" transform="translate(-26.802 -45.431)" fill="#fff"/>
            <path id="Trazado_876834" data-name="Trazado 876834" d="M103.221,215.487a.735.735,0,0,1-.735-.735V207a.735.735,0,1,1,1.47,0v7.757a.735.735,0,0,1-.735.735" transform="translate(-27.178 -54.698)" fill="#fff"/>
            <path id="Trazado_876835" data-name="Trazado 876835" d="M103.088,200.26a1.1,1.1,0,0,1-1.1-1.1V173.807a1.1,1.1,0,1,1,2.2,0v25.351a1.1,1.1,0,0,1-1.1,1.1" transform="translate(-27.045 -45.799)" fill="#eaa8ba"/>
            <path id="Trazado_876836" data-name="Trazado 876836" d="M79.921,231.709l-14.961-8.638v17.275Z" transform="translate(-17.227 -59.155)" fill="#7e58bd"/>
            <path id="Trazado_876837" data-name="Trazado 876837" d="M100.281,231.709,85.32,223.071v17.275Z" transform="translate(-22.626 -59.155)" fill="#eaa8ba"/>
            <path id="Trazado_876838" data-name="Trazado 876838" d="M120.641,231.709l-14.961-8.638v17.275Z" transform="translate(-28.025 -59.155)" fill="#7e58bd"/>
            <path id="Trazado_876839" data-name="Trazado 876839" d="M101.709,249.4l14.961-8.638v17.275Z" transform="translate(-26.972 -63.847)" fill="#eaa8ba"/>
            <path id="Trazado_876840" data-name="Trazado 876840" d="M81.349,249.4l14.961-8.638v17.275Z" transform="translate(-21.573 -63.847)" fill="#7e58bd"/>
            <path id="Trazado_876841" data-name="Trazado 876841" d="M60.989,249.4l14.961-8.638v17.275Z" transform="translate(-16.174 -63.847)" fill="#eaa8ba"/>
            <line id="Línea_670" data-name="Línea 670" y1="121.504" x2="2.783" transform="translate(101.715 129.729)" fill="none" stroke="#5b280f" stroke-linecap="round" stroke-linejoin="round" stroke-width="1"/>
            <path id="Trazado_876842" data-name="Trazado 876842" d="M18.853,176.512C15.023,179.938,3.127,194.191,0,298.017H25.909s6.434-62.627,6.968-93.662-14.023-27.842-14.023-27.842" transform="translate(0 -46.784)" fill="#7ea5cc"/>
            <path id="Trazado_876843" data-name="Trazado 876843" d="M39.475,196.732c-1.781-22.859-13.818-20.219-13.818-20.219" transform="translate(-6.804 -46.784)" fill="none" stroke="#5b280f" stroke-linecap="round" stroke-linejoin="round" stroke-width="1"/>
            <path id="Trazado_876844" data-name="Trazado 876844" d="M42.071,250.288c.994-13.5,1.789-26.9,1.961-36.973q.029-1.616,0-3.109" transform="translate(-11.157 -55.744)" fill="none" stroke="#5b280f" stroke-linecap="round" stroke-linejoin="round" stroke-width="1"/>
            <path id="Trazado_876845" data-name="Trazado 876845" d="M35.259,323.913s2.478-24.121,4.486-49.842" transform="translate(-9.35 -72.68)" fill="none" stroke="#5b280f" stroke-linecap="round" stroke-linejoin="round" stroke-width="1"/>
            <path id="Trazado_876846" data-name="Trazado 876846" d="M207.3,176.547s-17.5,12.893-14.89,121.5H210.08Z" transform="translate(-50.953 -46.818)" fill="#fff"/>
            <path id="Trazado_876847" data-name="Trazado 876847" d="M219.894,245.017l-30.372-2.66s1.828-58.906,17.08-65.81Z" transform="translate(-50.259 -46.818)" fill="#ff9906"/>
            <rect id="Rectángulo_403436" data-name="Rectángulo 403436" width="28.137" height="22.155" transform="translate(183.023 97.616)" fill="#eaa8ba"/>
            <path id="Trazado_876848" data-name="Trazado 876848" d="M267.583,162.995a73.717,73.717,0,0,1,30.771,9.958l-5.879,121.5H215.549l-2.784-121.5s12.442-8.685,26.68-9.958Z" transform="translate(-56.422 -43.224)" fill="#eaa8ba"/>
            <path id="Trazado_876849" data-name="Trazado 876849" d="M249.074,132.845h28.137v8.461a54.535,54.535,0,0,1-26.027,3.485c-.719-.083-1.416-.194-2.11-.309Z" transform="translate(-66.051 -35.229)" fill="#5b280f"/>
            <path id="Trazado_876850" data-name="Trazado 876850" d="M213.1,60.09a41.3,41.3,0,1,1,80.322,5.477h0l-.009.021a41.094,41.094,0,0,1-4.379,9.708l-8.085,17.929c-8.757,11.847-25.314,15.747-38.043,14.275A34.992,34.992,0,0,1,217.6,92.562c-4.121-6.255-3.312-13.981-3.312-18.176s-1.187-14.3-1.187-14.3Z" transform="translate(-56.377 -3.269)" fill="#eaa8ba"/>
            <path id="Trazado_876851" data-name="Trazado 876851" d="M245.812,97.539c0,.736-.8,1.331-1.8,1.331s-1.794-.6-1.794-1.331.8-1.331,1.794-1.331,1.8.6,1.8,1.331" transform="translate(-64.234 -25.513)" fill="#ff9906"/>
            <path id="Trazado_876852" data-name="Trazado 876852" d="M276.485,78.37c0,6.553-3.756,11.866-8.388,11.866s-8.388-5.313-8.388-11.866S263.465,66.5,268.1,66.5s8.388,5.313,8.388,11.866" transform="translate(-68.871 -17.636)" fill="#fff"/>
          </g>
        </g>
        <g id="Grupo_1106526" data-name="Grupo 1106526" transform="translate(190.838 48.868)">
          <g id="Grupo_1106525" data-name="Grupo 1106525" clip-path="url(#clip-path-7)">
            <path id="Trazado_876853" data-name="Trazado 876853" d="M272.935,78.37c0,6.553-3.756,11.866-8.388,11.866s-8.388-5.313-8.388-11.866S259.915,66.5,264.547,66.5s8.388,5.313,8.388,11.866" transform="translate(-258.768 -66.504)" fill="#5b280f"/>
          </g>
        </g>
        <g id="Grupo_1106528" data-name="Grupo 1106528">
          <g id="Grupo_1106527" data-name="Grupo 1106527" clip-path="url(#clip-path-2)">
            <path id="Trazado_876855" data-name="Trazado 876855" d="M217.739,57.673s6.69-3.976,13.693-3.041c0,0-1.907-2.634-6.435-2.11s-7.258,5.151-7.258,5.151" transform="translate(-57.742 -13.91)" fill="#7e58bd"/>
            <path id="Trazado_876856" data-name="Trazado 876856" d="M232.386,78.37c0,6.553-3.756,11.866-8.388,11.866s-8.388-5.313-8.388-11.866S219.366,66.5,224,66.5s8.388,5.313,8.388,11.866" transform="translate(-57.177 -17.636)" fill="#fff"/>
          </g>
        </g>
        <g id="Grupo_1106530" data-name="Grupo 1106530" transform="translate(158.432 48.868)">
          <g id="Grupo_1106529" data-name="Grupo 1106529" clip-path="url(#clip-path-9)">
            <path id="Trazado_876857" data-name="Trazado 876857" d="M228.835,78.37c0,6.553-3.756,11.866-8.388,11.866s-8.388-5.313-8.388-11.866S215.815,66.5,220.447,66.5s8.388,5.313,8.388,11.866" transform="translate(-214.668 -66.504)" fill="#5b280f"/>
          </g>
        </g>
        <g id="Grupo_1106532" data-name="Grupo 1106532">
          <g id="Grupo_1106531" data-name="Grupo 1106531" clip-path="url(#clip-path-2)">
            <path id="Trazado_876859" data-name="Trazado 876859" d="M275.433,57.747s-6.642-4.057-13.655-3.208c0,0,1.939-2.609,6.461-2.031s7.194,5.239,7.194,5.239" transform="translate(-69.42 -13.902)" fill="#7e58bd"/>
            <path id="Trazado_876860" data-name="Trazado 876860" d="M241.052,114.052c1.308,2.636,3.479-.194,6.5-.28s6.226,2.008,7.9-.523-2.545-6.508-8.331-5.985-7.376,4.152-6.068,6.788" transform="translate(-63.81 -28.433)" fill="#fff"/>
            <path id="Trazado_876861" data-name="Trazado 876861" d="M296.633,59.452c5.47,2.056,4.786,20.177,4.786,20.177l9.381,6.206.527-1.168a41.08,41.08,0,0,0,4.378-9.708l.009-.02h0a41.326,41.326,0,0,0-1.19-27.273H296.633c3.266,4.95,0,11.786,0,11.786" transform="translate(-78.663 -12.64)" fill="#7e58bd"/>
            <path id="Trazado_876862" data-name="Trazado 876862" d="M287.53,23.442c5.788-4.071-4.942-6.751-7.283-6.974,7.56-3.526-6.844-7.418-10.152-5.6,4.237-9.242-11.68-16.513-11.659-4.81-.243-3.736-6.484-4.608-5.3-.4-3.088-5.6-15.165-6.377-10.722,1.551-4.655-2.265-23.059-2.6-17.089,5.881-2.524-1.027-10.094-.46-5.493,3.73-3.553-.082-9.854,1.83-10.858,4.975-.537,2.861,4.615,3.477,5.513,2.922-10.758,4.842-3.119,16.887,5.811,7.255,3.572,3.661,8.649-.354,10.8-3.714-2.6,9.106,12.309,9.414,14.638.785.206,4.693,4.582,2.47,5.014-.326-.445,8.653,7.885,7.286,10.972,2.959-1.534,6.795,6.055,4.583,8.08.12-1.436,3.63-.456,5.85,1.265,6.419,2.052.677,5.992-3.306,5.992-3.306s1.5,3.119,3.595,3.78a3.768,3.768,0,0,0,4.721-3.71c2.347,9.443,14.5,3.713,7.539-1.314,7.47-2.685-.059-10.361-5.391-10.219" transform="translate(-55.408 0)" fill="#7e58bd"/>
            <path id="Trazado_876863" data-name="Trazado 876863" d="M297.991,49.737a20.442,20.442,0,0,0,2.691-2.235s1.5,3.12,3.595,3.78A3.767,3.767,0,0,0,309,47.573c1.2,4.831,4.97,5.69,7.432,4.7" transform="translate(-79.023 -12.597)" fill="none" stroke="#5b280f" stroke-linecap="round" stroke-linejoin="round" stroke-width="1"/>
            <path id="Trazado_876864" data-name="Trazado 876864" d="M318.05,81.771c5.486,1.586,9.24,7.342,9.153,13.052s-3.626,11.068-8.5,14.042a24.349,24.349,0,0,1-16.538,2.793V89.048c1.719-6.637,10.4-8.863,15.887-7.277" transform="translate(-80.13 -21.555)" fill="#eaa8ba"/>
            <path id="Trazado_876865" data-name="Trazado 876865" d="M302.163,91.175a8.746,8.746,0,0,1,.722-1.873" transform="translate(-80.13 -23.682)" fill="none" stroke="#5b280f" stroke-linecap="round" stroke-linejoin="round" stroke-width="1"/>
            <path id="Trazado_876866" data-name="Trazado 876866" d="M304.24,122.884q-1.045-.094-2.077-.264" transform="translate(-80.13 -32.517)" fill="none" stroke="#5b280f" stroke-linecap="round" stroke-linejoin="round" stroke-width="1"/>
            <path id="Trazado_876867" data-name="Trazado 876867" d="M322.558,97.936a6.035,6.035,0,0,0-3.54-6.176,7.849,7.849,0,0,0-7.3.722,11.348,11.348,0,0,0-4.454,6.038,3.732,3.732,0,1,1-.053,7.41" transform="translate(-81.468 -24.176)" fill="none" stroke="#5b280f" stroke-linecap="round" stroke-linejoin="round" stroke-width="1"/>
            <path id="Trazado_876868" data-name="Trazado 876868" d="M274.828,164.395s-10.231,7.593-22.97,7.593-18.69-7.594-18.69-7.594a66.2,66.2,0,0,0-20.4,8.93l2.784,121.5h76.926l5.878-121.5a72.17,72.17,0,0,0-23.526-8.929" transform="translate(-56.423 -43.595)" fill="#ff9906"/>
            <path id="Trazado_876869" data-name="Trazado 876869" d="M285.451,165.844s-8.913,10.322-26.985,10.322-23.241-10.322-23.241-10.322" transform="translate(-62.379 -43.98)" fill="none" stroke="#5b280f" stroke-linecap="round" stroke-linejoin="round" stroke-width="1"/>
            <line id="Línea_671" data-name="Línea 671" x2="1.509" y2="65.856" transform="translate(156.379 131.314)" fill="none" stroke="#5b280f" stroke-linecap="round" stroke-linejoin="round" stroke-width="1"/>
            <path id="Trazado_876870" data-name="Trazado 876870" d="M323.955,176.512c3.831,3.426,15.726,17.679,18.853,121.5H316.9s-6.434-62.627-6.967-93.662,14.023-27.842,14.023-27.842" transform="translate(-82.186 -46.784)" fill="#fff"/>
            <path id="Trazado_876871" data-name="Trazado 876871" d="M308.6,244.974l32.183-2.66c-4.807-53.8-14.535-63.127-17.535-65.811,0,0-16.909-3.584-15.962,28.584-.129,15.734.762,28.3,1.314,39.886" transform="translate(-81.478 -46.775)" fill="#ff9906"/>
            <path id="Trazado_876872" data-name="Trazado 876872" d="M308.013,248.481c.254,5.5.553,10.647.789,15.612l2.842-.235" transform="translate(-81.681 -65.894)" fill="none" stroke="#5b280f" stroke-linecap="round" stroke-linejoin="round" stroke-width="1"/>
            <path id="Trazado_876873" data-name="Trazado 876873" d="M323.247,176.5s-16.908-3.584-15.961,28.584c-.061,7.414.105,14.127.355,20.364" transform="translate(-81.478 -46.775)" fill="none" stroke="#5b280f" stroke-linecap="round" stroke-linejoin="round" stroke-width="1"/>
          </g>
        </g>
      </g>
    </g>
    <g id="Grupo_1106535" data-name="Grupo 1106535" transform="translate(764.042 388.585)">
      <g id="Grupo_1106534" data-name="Grupo 1106534" transform="translate(0 0)" clip-path="url(#clip-path-11)">
        <path id="Trazado_876874" data-name="Trazado 876874" d="M41.811,0H20.365a20.366,20.366,0,0,0-3.157,40.485L12.3,52.3,23.35,40.729H41.811A20.365,20.365,0,0,0,41.811,0" transform="translate(0 0)" fill="#ff4701"/>
      </g>
    </g>
  </g>
</svg>
