<svg xmlns="http://www.w3.org/2000/svg" xmlns:xlink="http://www.w3.org/1999/xlink" width="295.051" height="349" viewBox="0 0 295.051 349">
  <defs>
    <clipPath id="clip-path">
      <rect id="Rectángulo_403448" data-name="Rectángulo 403448" width="295" height="349" rx="23" transform="translate(180.051 1815.402)" fill="#01d2b5"/>
    </clipPath>
    <clipPath id="clip-path-2">
      <rect id="Rectángulo_403447" data-name="Rectángulo 403447" width="295.771" height="808.713" fill="none"/>
    </clipPath>
    <clipPath id="clip-path-4">
      <rect id="Rectángulo_403443" data-name="Rectángulo 403443" width="95.819" height="15.358" fill="none"/>
    </clipPath>
    <clipPath id="clip-path-5">
      <rect id="Rectángulo_403444" data-name="Rectángulo 403444" width="50.608" height="57.739" fill="none"/>
    </clipPath>
    <clipPath id="clip-path-6">
      <rect id="Rectángulo_403445" data-name="Rectángulo 403445" width="14.909" height="57.523" fill="none"/>
    </clipPath>
  </defs>
  <g id="Grupo_1106551" data-name="Grupo 1106551" transform="translate(-180 -1815.402)">
    <rect id="Rectángulo_402975" data-name="Rectángulo 402975" width="295" height="349" rx="23" transform="translate(180 1815.402)" fill="#01d2b5"/>
    <g id="Enmascarar_grupo_1099800" data-name="Enmascarar grupo 1099800" clip-path="url(#clip-path)">
      <g id="Grupo_1106560" data-name="Grupo 1106560" transform="translate(-886.584 13022.216)">
        <path id="Trazado_113538" data-name="Trazado 113538" d="M195.495,29.847c-8.913,0-13.313-7.185-16.847-12.961-3.58-5.844-6.005-9.426-10.569-9.426s-6.984,3.582-10.556,9.426c-3.534,5.776-7.934,12.961-16.843,12.961s-13.313-7.185-16.847-12.961c-3.576-5.844-6-9.426-10.561-9.426s-6.98,3.582-10.557,9.426c-3.534,5.776-7.934,12.961-16.843,12.961S72.563,22.662,69.033,16.886c-3.576-5.844-6-9.426-10.552-9.426S51.5,11.043,47.928,16.886C44.394,22.662,40,29.847,31.089,29.847s-13.3-7.185-16.839-12.961c-3.576-5.844-6-9.426-10.552-9.426A3.731,3.731,0,0,1,3.7,0C12.6,0,17,7.189,20.537,12.965c3.572,5.84,6,9.421,10.552,9.421s6.976-3.582,10.552-9.421C45.176,7.189,49.575,0,58.48,0s13.3,7.189,16.835,12.961c3.576,5.844,6,9.426,10.556,9.426s6.98-3.582,10.556-9.426C99.962,7.189,104.362,0,113.271,0s13.309,7.189,16.847,12.961c3.572,5.844,6,9.426,10.561,9.426s6.98-3.582,10.556-9.426C154.765,7.189,159.17,0,168.078,0S181.4,7.189,184.93,12.961c3.58,5.844,6.005,9.426,10.565,9.426s6.989-3.582,10.569-9.426C209.6,7.189,214,0,222.915,0a3.712,3.712,0,0,1,3.694,3.73,3.709,3.709,0,0,1-3.694,3.73c-4.564,0-6.989,3.582-10.569,9.426C208.812,22.662,204.412,29.847,195.495,29.847Z" transform="translate(1149.414 -11088.18) rotate(180)" fill="#017e6d"/>
        <path id="Trazado_126924" data-name="Trazado 126924" d="M195.495,29.847c-8.913,0-13.313-7.185-16.847-12.961-3.58-5.844-6.005-9.426-10.569-9.426s-6.984,3.582-10.556,9.426c-3.534,5.776-7.934,12.961-16.843,12.961s-13.313-7.185-16.847-12.961c-3.576-5.844-6-9.426-10.561-9.426s-6.98,3.582-10.557,9.426c-3.534,5.776-7.934,12.961-16.843,12.961S72.563,22.662,69.033,16.886c-3.576-5.844-6-9.426-10.552-9.426S51.5,11.043,47.928,16.886C44.394,22.662,40,29.847,31.089,29.847s-13.3-7.185-16.839-12.961c-3.576-5.844-6-9.426-10.552-9.426A3.731,3.731,0,0,1,3.7,0C12.6,0,17,7.189,20.537,12.965c3.572,5.84,6,9.421,10.552,9.421s6.976-3.582,10.552-9.421C45.176,7.189,49.575,0,58.48,0s13.3,7.189,16.835,12.961c3.576,5.844,6,9.426,10.556,9.426s6.98-3.582,10.556-9.426C99.962,7.189,104.362,0,113.271,0s13.309,7.189,16.847,12.961c3.572,5.844,6,9.426,10.561,9.426s6.98-3.582,10.556-9.426C154.765,7.189,159.17,0,168.078,0S181.4,7.189,184.93,12.961c3.58,5.844,6.005,9.426,10.565,9.426s6.989-3.582,10.569-9.426C209.6,7.189,214,0,222.915,0a3.712,3.712,0,0,1,3.694,3.73,3.709,3.709,0,0,1-3.694,3.73c-4.564,0-6.989,3.582-10.569,9.426C208.812,22.662,204.412,29.847,195.495,29.847Z" transform="translate(1149.414 -11157.495) rotate(180)" fill="#017e6d"/>
        <path id="Trazado_126938" data-name="Trazado 126938" d="M195.495,29.847c-8.913,0-13.313-7.185-16.847-12.961-3.58-5.844-6.005-9.426-10.569-9.426s-6.984,3.582-10.556,9.426c-3.534,5.776-7.934,12.961-16.843,12.961s-13.313-7.185-16.847-12.961c-3.576-5.844-6-9.426-10.561-9.426s-6.98,3.582-10.557,9.426c-3.534,5.776-7.934,12.961-16.843,12.961S72.563,22.662,69.033,16.886c-3.576-5.844-6-9.426-10.552-9.426S51.5,11.043,47.928,16.886C44.394,22.662,40,29.847,31.089,29.847s-13.3-7.185-16.839-12.961c-3.576-5.844-6-9.426-10.552-9.426A3.731,3.731,0,0,1,3.7,0C12.6,0,17,7.189,20.537,12.965c3.572,5.84,6,9.421,10.552,9.421s6.976-3.582,10.552-9.421C45.176,7.189,49.575,0,58.48,0s13.3,7.189,16.835,12.961c3.576,5.844,6,9.426,10.556,9.426s6.98-3.582,10.556-9.426C99.962,7.189,104.362,0,113.271,0s13.309,7.189,16.847,12.961c3.572,5.844,6,9.426,10.561,9.426s6.98-3.582,10.556-9.426C154.765,7.189,159.17,0,168.078,0S181.4,7.189,184.93,12.961c3.58,5.844,6.005,9.426,10.565,9.426s6.989-3.582,10.569-9.426C209.6,7.189,214,0,222.915,0a3.712,3.712,0,0,1,3.694,3.73,3.709,3.709,0,0,1-3.694,3.73c-4.564,0-6.989,3.582-10.569,9.426C208.812,22.662,204.412,29.847,195.495,29.847Z" transform="translate(1149.414 -11053.521) rotate(180)" fill="#017e6d"/>
        <path id="Trazado_113539" data-name="Trazado 113539" d="M195.495,29.847c-8.913,0-13.313-7.185-16.847-12.961-3.58-5.844-6.005-9.426-10.569-9.426s-6.984,3.582-10.556,9.426c-3.534,5.776-7.934,12.961-16.843,12.961s-13.313-7.185-16.847-12.961c-3.576-5.844-6-9.426-10.561-9.426s-6.98,3.582-10.557,9.426c-3.534,5.776-7.934,12.961-16.843,12.961S72.563,22.662,69.033,16.886c-3.576-5.844-6-9.426-10.552-9.426S51.5,11.043,47.928,16.886C44.394,22.662,40,29.847,31.089,29.847s-13.3-7.185-16.839-12.961c-3.576-5.844-6-9.426-10.552-9.426A3.731,3.731,0,0,1,3.7,0C12.6,0,17,7.189,20.537,12.965c3.572,5.84,6,9.421,10.552,9.421s6.976-3.582,10.552-9.421C45.176,7.189,49.575,0,58.48,0s13.3,7.189,16.835,12.961c3.576,5.844,6,9.426,10.556,9.426s6.98-3.582,10.556-9.426C99.962,7.189,104.362,0,113.271,0s13.309,7.189,16.847,12.961c3.572,5.844,6,9.426,10.561,9.426s6.98-3.582,10.556-9.426C154.765,7.189,159.17,0,168.078,0S181.4,7.189,184.93,12.961c3.58,5.844,6.005,9.426,10.565,9.426s6.989-3.582,10.569-9.426C209.6,7.189,214,0,222.915,0a3.712,3.712,0,0,1,3.694,3.73,3.709,3.709,0,0,1-3.694,3.73c-4.564,0-6.989,3.582-10.569,9.426C208.812,22.662,204.412,29.847,195.495,29.847Z" transform="translate(1149.414 -11122.838) rotate(180)" fill="#017e6d"/>
        <path id="Trazado_126923" data-name="Trazado 126923" d="M195.495,29.847c-8.913,0-13.313-7.185-16.847-12.961-3.58-5.844-6.005-9.426-10.569-9.426s-6.984,3.582-10.556,9.426c-3.534,5.776-7.934,12.961-16.843,12.961s-13.313-7.185-16.847-12.961c-3.576-5.844-6-9.426-10.561-9.426s-6.98,3.582-10.557,9.426c-3.534,5.776-7.934,12.961-16.843,12.961S72.563,22.662,69.033,16.886c-3.576-5.844-6-9.426-10.552-9.426S51.5,11.043,47.928,16.886C44.394,22.662,40,29.847,31.089,29.847s-13.3-7.185-16.839-12.961c-3.576-5.844-6-9.426-10.552-9.426A3.731,3.731,0,0,1,3.7,0C12.6,0,17,7.189,20.537,12.965c3.572,5.84,6,9.421,10.552,9.421s6.976-3.582,10.552-9.421C45.176,7.189,49.575,0,58.48,0s13.3,7.189,16.835,12.961c3.576,5.844,6,9.426,10.556,9.426s6.98-3.582,10.556-9.426C99.962,7.189,104.362,0,113.271,0s13.309,7.189,16.847,12.961c3.572,5.844,6,9.426,10.561,9.426s6.98-3.582,10.556-9.426C154.765,7.189,159.17,0,168.078,0S181.4,7.189,184.93,12.961c3.58,5.844,6.005,9.426,10.565,9.426s6.989-3.582,10.569-9.426C209.6,7.189,214,0,222.915,0a3.712,3.712,0,0,1,3.694,3.73,3.709,3.709,0,0,1-3.694,3.73c-4.564,0-6.989,3.582-10.569,9.426C208.812,22.662,204.412,29.847,195.495,29.847Z" transform="translate(1149.414 -11192.153) rotate(180)" fill="#017e6d"/>
      </g>
      <g id="Grupo_1106561" data-name="Grupo 1106561" transform="translate(-568.533 13256.021)">
        <path id="Trazado_113538-2" data-name="Trazado 113538" d="M195.495,29.847c-8.913,0-13.313-7.185-16.847-12.961-3.58-5.844-6.005-9.426-10.569-9.426s-6.984,3.582-10.556,9.426c-3.534,5.776-7.934,12.961-16.843,12.961s-13.313-7.185-16.847-12.961c-3.576-5.844-6-9.426-10.561-9.426s-6.98,3.582-10.557,9.426c-3.534,5.776-7.934,12.961-16.843,12.961S72.563,22.662,69.033,16.886c-3.576-5.844-6-9.426-10.552-9.426S51.5,11.043,47.928,16.886C44.394,22.662,40,29.847,31.089,29.847s-13.3-7.185-16.839-12.961c-3.576-5.844-6-9.426-10.552-9.426A3.731,3.731,0,0,1,3.7,0C12.6,0,17,7.189,20.537,12.965c3.572,5.84,6,9.421,10.552,9.421s6.976-3.582,10.552-9.421C45.176,7.189,49.575,0,58.48,0s13.3,7.189,16.835,12.961c3.576,5.844,6,9.426,10.556,9.426s6.98-3.582,10.556-9.426C99.962,7.189,104.362,0,113.271,0s13.309,7.189,16.847,12.961c3.572,5.844,6,9.426,10.561,9.426s6.98-3.582,10.556-9.426C154.765,7.189,159.17,0,168.078,0S181.4,7.189,184.93,12.961c3.58,5.844,6.005,9.426,10.565,9.426s6.989-3.582,10.569-9.426C209.6,7.189,214,0,222.915,0a3.712,3.712,0,0,1,3.694,3.73,3.709,3.709,0,0,1-3.694,3.73c-4.564,0-6.989,3.582-10.569,9.426C208.812,22.662,204.412,29.847,195.495,29.847Z" transform="translate(1149.414 -11088.18) rotate(180)" fill="#017e6d"/>
        <path id="Trazado_126924-2" data-name="Trazado 126924" d="M195.495,29.847c-8.913,0-13.313-7.185-16.847-12.961-3.58-5.844-6.005-9.426-10.569-9.426s-6.984,3.582-10.556,9.426c-3.534,5.776-7.934,12.961-16.843,12.961s-13.313-7.185-16.847-12.961c-3.576-5.844-6-9.426-10.561-9.426s-6.98,3.582-10.557,9.426c-3.534,5.776-7.934,12.961-16.843,12.961S72.563,22.662,69.033,16.886c-3.576-5.844-6-9.426-10.552-9.426S51.5,11.043,47.928,16.886C44.394,22.662,40,29.847,31.089,29.847s-13.3-7.185-16.839-12.961c-3.576-5.844-6-9.426-10.552-9.426A3.731,3.731,0,0,1,3.7,0C12.6,0,17,7.189,20.537,12.965c3.572,5.84,6,9.421,10.552,9.421s6.976-3.582,10.552-9.421C45.176,7.189,49.575,0,58.48,0s13.3,7.189,16.835,12.961c3.576,5.844,6,9.426,10.556,9.426s6.98-3.582,10.556-9.426C99.962,7.189,104.362,0,113.271,0s13.309,7.189,16.847,12.961c3.572,5.844,6,9.426,10.561,9.426s6.98-3.582,10.556-9.426C154.765,7.189,159.17,0,168.078,0S181.4,7.189,184.93,12.961c3.58,5.844,6.005,9.426,10.565,9.426s6.989-3.582,10.569-9.426C209.6,7.189,214,0,222.915,0a3.712,3.712,0,0,1,3.694,3.73,3.709,3.709,0,0,1-3.694,3.73c-4.564,0-6.989,3.582-10.569,9.426C208.812,22.662,204.412,29.847,195.495,29.847Z" transform="translate(1149.414 -11157.495) rotate(180)" fill="#017e6d"/>
        <path id="Trazado_126938-2" data-name="Trazado 126938" d="M195.495,29.847c-8.913,0-13.313-7.185-16.847-12.961-3.58-5.844-6.005-9.426-10.569-9.426s-6.984,3.582-10.556,9.426c-3.534,5.776-7.934,12.961-16.843,12.961s-13.313-7.185-16.847-12.961c-3.576-5.844-6-9.426-10.561-9.426s-6.98,3.582-10.557,9.426c-3.534,5.776-7.934,12.961-16.843,12.961S72.563,22.662,69.033,16.886c-3.576-5.844-6-9.426-10.552-9.426S51.5,11.043,47.928,16.886C44.394,22.662,40,29.847,31.089,29.847s-13.3-7.185-16.839-12.961c-3.576-5.844-6-9.426-10.552-9.426A3.731,3.731,0,0,1,3.7,0C12.6,0,17,7.189,20.537,12.965c3.572,5.84,6,9.421,10.552,9.421s6.976-3.582,10.552-9.421C45.176,7.189,49.575,0,58.48,0s13.3,7.189,16.835,12.961c3.576,5.844,6,9.426,10.556,9.426s6.98-3.582,10.556-9.426C99.962,7.189,104.362,0,113.271,0s13.309,7.189,16.847,12.961c3.572,5.844,6,9.426,10.561,9.426s6.98-3.582,10.556-9.426C154.765,7.189,159.17,0,168.078,0S181.4,7.189,184.93,12.961c3.58,5.844,6.005,9.426,10.565,9.426s6.989-3.582,10.569-9.426C209.6,7.189,214,0,222.915,0a3.712,3.712,0,0,1,3.694,3.73,3.709,3.709,0,0,1-3.694,3.73c-4.564,0-6.989,3.582-10.569,9.426C208.812,22.662,204.412,29.847,195.495,29.847Z" transform="translate(1149.414 -11053.521) rotate(180)" fill="#017e6d"/>
        <path id="Trazado_113539-2" data-name="Trazado 113539" d="M195.495,29.847c-8.913,0-13.313-7.185-16.847-12.961-3.58-5.844-6.005-9.426-10.569-9.426s-6.984,3.582-10.556,9.426c-3.534,5.776-7.934,12.961-16.843,12.961s-13.313-7.185-16.847-12.961c-3.576-5.844-6-9.426-10.561-9.426s-6.98,3.582-10.557,9.426c-3.534,5.776-7.934,12.961-16.843,12.961S72.563,22.662,69.033,16.886c-3.576-5.844-6-9.426-10.552-9.426S51.5,11.043,47.928,16.886C44.394,22.662,40,29.847,31.089,29.847s-13.3-7.185-16.839-12.961c-3.576-5.844-6-9.426-10.552-9.426A3.731,3.731,0,0,1,3.7,0C12.6,0,17,7.189,20.537,12.965c3.572,5.84,6,9.421,10.552,9.421s6.976-3.582,10.552-9.421C45.176,7.189,49.575,0,58.48,0s13.3,7.189,16.835,12.961c3.576,5.844,6,9.426,10.556,9.426s6.98-3.582,10.556-9.426C99.962,7.189,104.362,0,113.271,0s13.309,7.189,16.847,12.961c3.572,5.844,6,9.426,10.561,9.426s6.98-3.582,10.556-9.426C154.765,7.189,159.17,0,168.078,0S181.4,7.189,184.93,12.961c3.58,5.844,6.005,9.426,10.565,9.426s6.989-3.582,10.569-9.426C209.6,7.189,214,0,222.915,0a3.712,3.712,0,0,1,3.694,3.73,3.709,3.709,0,0,1-3.694,3.73c-4.564,0-6.989,3.582-10.569,9.426C208.812,22.662,204.412,29.847,195.495,29.847Z" transform="translate(1149.414 -11122.838) rotate(180)" fill="#017e6d"/>
        <path id="Trazado_126923-2" data-name="Trazado 126923" d="M195.495,29.847c-8.913,0-13.313-7.185-16.847-12.961-3.58-5.844-6.005-9.426-10.569-9.426s-6.984,3.582-10.556,9.426c-3.534,5.776-7.934,12.961-16.843,12.961s-13.313-7.185-16.847-12.961c-3.576-5.844-6-9.426-10.561-9.426s-6.98,3.582-10.557,9.426c-3.534,5.776-7.934,12.961-16.843,12.961S72.563,22.662,69.033,16.886c-3.576-5.844-6-9.426-10.552-9.426S51.5,11.043,47.928,16.886C44.394,22.662,40,29.847,31.089,29.847s-13.3-7.185-16.839-12.961c-3.576-5.844-6-9.426-10.552-9.426A3.731,3.731,0,0,1,3.7,0C12.6,0,17,7.189,20.537,12.965c3.572,5.84,6,9.421,10.552,9.421s6.976-3.582,10.552-9.421C45.176,7.189,49.575,0,58.48,0s13.3,7.189,16.835,12.961c3.576,5.844,6,9.426,10.556,9.426s6.98-3.582,10.556-9.426C99.962,7.189,104.362,0,113.271,0s13.309,7.189,16.847,12.961c3.572,5.844,6,9.426,10.561,9.426s6.98-3.582,10.556-9.426C154.765,7.189,159.17,0,168.078,0S181.4,7.189,184.93,12.961c3.58,5.844,6.005,9.426,10.565,9.426s6.989-3.582,10.569-9.426C209.6,7.189,214,0,222.915,0a3.712,3.712,0,0,1,3.694,3.73,3.709,3.709,0,0,1-3.694,3.73c-4.564,0-6.989,3.582-10.569,9.426C208.812,22.662,204.412,29.847,195.495,29.847Z" transform="translate(1149.414 -11192.153) rotate(180)" fill="#017e6d"/>
      </g>
      <g id="Grupo_1106550" data-name="Grupo 1106550" transform="translate(171.28 1800.215)">
        <g id="Grupo_1106549" data-name="Grupo 1106549" clip-path="url(#clip-path-2)">
          <g id="Grupo_1106548" data-name="Grupo 1106548">
            <g id="Grupo_1106547" data-name="Grupo 1106547" clip-path="url(#clip-path-2)">
              <path id="Trazado_876875" data-name="Trazado 876875" d="M288.668,447.5c0,14.159-64.341,25.637-143.707,25.637S1.253,461.658,1.253,447.5s64.341-25.638,143.708-25.638S288.668,433.339,288.668,447.5" transform="translate(0.997 335.577)" fill="#d9e6f8"/>
              <path id="Trazado_876876" data-name="Trazado 876876" d="M123.837,34.384c-19.671,5.749-35.019,26.4-42.61,60.274C77.406,111.7,76.7,129.139,67.6,139.846s-10.523,26.165-9.8,34.882-1.18,21.8-6.925,28.936l133.5-.111s-7.446-18.621-6.02-34.473,5.968-26.559,2.6-42.8-7.918-23.549-1.469-37.251c9.329-19.824-5.331-69.348-55.651-54.643" transform="translate(40.473 25.213)" fill="#1c1318"/>
              <path id="Trazado_876877" data-name="Trazado 876877" d="M112.454,34.03a16.9,16.9,0,1,1-21.84-9.7,16.9,16.9,0,0,1,21.84,9.7" transform="translate(63.464 18.452)" fill="#1c1318"/>
              <path id="Trazado_876878" data-name="Trazado 876878" d="M113.268,42.117c0,3.318-2.788,22.206-18.095,29.62L94.033,82.33,83.725,116.537l24.133,17.716,14.915-17.493-.013-15.441c9.954.885,18.244-4.876,18.874-15.6s.11-20.023,3.167-25.769c0,0-15.568-.242-31.534-17.838" transform="translate(66.601 33.503)" fill="#f0956d"/>
              <path id="Trazado_876879" data-name="Trazado 876879" d="M95.5,66.2a5.486,5.486,0,1,0,5.485-5.485A5.486,5.486,0,0,0,95.5,66.2" transform="translate(75.967 48.295)" fill="#e25e59"/>
              <path id="Trazado_876880" data-name="Trazado 876880" d="M112.408,79.055a24.277,24.277,0,0,1-17.714-9.268" transform="translate(75.326 55.513)" fill="none" stroke="#1c1318" stroke-miterlimit="10" stroke-width="0.464"/>
              <path id="Trazado_876881" data-name="Trazado 876881" d="M84.767,66.89c2.675,6.06,8.634,9.3,13.308,7.236s6.295-8.649,3.618-14.71-8.634-9.3-13.308-7.236-6.293,8.651-3.618,14.71" transform="translate(66.403 41.013)" fill="#f0956d"/>
              <path id="Trazado_876882" data-name="Trazado 876882" d="M96.308,65.119s-1.731-9.186-9.676-11" transform="translate(68.913 43.052)" fill="none" stroke="#1c1318" stroke-miterlimit="10" stroke-width="0.464"/>
              <line id="Línea_672" data-name="Línea 672" y1="5.69" x2="1.207" transform="translate(158.422 99.043)" fill="none" stroke="#1c1318" stroke-miterlimit="10" stroke-width="0.464"/>
              <path id="Trazado_876883" data-name="Trazado 876883" d="M84.578,65.093a3.7,3.7,0,1,0,3.7-3.7A3.7,3.7,0,0,0,84.578,65.093Z" transform="translate(67.279 48.833)" fill="none" stroke="#fff" stroke-miterlimit="10" stroke-width="0.464"/>
              <path id="Trazado_876884" data-name="Trazado 876884" d="M112.738,60.916,111.5,59.129a2.755,2.755,0,0,1,2.431-.865,2.807,2.807,0,1,1-3.212,2.332,2.655,2.655,0,0,1,.115-.309Z" transform="translate(88.048 46.321)" fill="#121f32"/>
              <path id="Trazado_876885" data-name="Trazado 876885" d="M103.087,59.383,101.852,57.6a2.761,2.761,0,0,1,2.431-.867,2.808,2.808,0,1,1-3.212,2.334,2.427,2.427,0,0,1,.115-.309Z" transform="translate(80.371 45.101)" fill="#121f32"/>
              <path id="Trazado_876886" data-name="Trazado 876886" d="M110.977,59.416s-.061,3,.005,5.487-2.869,3.832-6.06,1.727" transform="translate(83.463 47.264)" fill="none" stroke="#1c1318" stroke-miterlimit="10" stroke-width="0.464"/>
              <path id="Trazado_876887" data-name="Trazado 876887" d="M114.045,68.276a13.209,13.209,0,0,1-14.168-4.837" transform="translate(79.449 50.464)" fill="none" stroke="#1c1318" stroke-miterlimit="10" stroke-width="0.464"/>
              <line id="Línea_673" data-name="Línea 673" x1="3.234" y2="1.98" transform="translate(178.179 112.689)" fill="none" stroke="#1c1318" stroke-miterlimit="10" stroke-width="0.464"/>
              <path id="Trazado_876888" data-name="Trazado 876888" d="M111.032,54.2s-6.956-2.291-11.8-.564" transform="translate(78.934 42.151)" fill="none" stroke="#7b2a27" stroke-linecap="round" stroke-linejoin="round" stroke-width="0.971"/>
              <path id="Trazado_876889" data-name="Trazado 876889" d="M118.852,56.216a12.451,12.451,0,0,0-9.317-1.013" transform="translate(87.132 43.5)" fill="none" stroke="#7b2a27" stroke-linecap="round" stroke-linejoin="round" stroke-width="0.971"/>
              <path id="Trazado_876890" data-name="Trazado 876890" d="M106.318,384.98l.036,42.524a26.136,26.136,0,0,1-1.532,8.884c-2.576,7.144-7.43,23.208-6.848,41.5l98-.083s-5.733-12.978-31.69-20.941a35.49,35.49,0,0,1-12.52-6.988l-9.561-8.137a19.514,19.514,0,0,1-6.557-18.3l6.909-38.482Z" transform="translate(77.897 306.215)" fill="#f0956d"/>
              <path id="Trazado_876891" data-name="Trazado 876891" d="M102.582,417.529l23.765,11.32,17.52-11.486,7.9,6.724a35.435,35.435,0,0,0,12.518,6.986c25.957,7.963,31.69,20.942,31.69,20.942l-98,.083a114.031,114.031,0,0,1,4.609-34.57" transform="translate(77.897 332)" fill="#1c1318"/>
              <path id="Trazado_876892" data-name="Trazado 876892" d="M93.1,385l-8.5,47.711a22.317,22.317,0,0,0-.106,7.207L90.116,477.9l-75.033.063s1.011-11.231,4.582-14.3S33.436,452.94,33.436,452.94L48.75,437.032A21.047,21.047,0,0,0,54.59,423.8l2.524-38.768Z" transform="translate(11.998 306.258)" fill="#f0956d"/>
              <path id="Trazado_876893" data-name="Trazado 876893" d="M48.172,414.316a36.689,36.689,0,0,1,25.97,13.039l11.08-5.816,4.894,33.046-75.033.065s1.011-11.231,4.582-14.3,13.771-10.73,13.771-10.73Z" transform="translate(11.998 329.575)" fill="#1c1318"/>
              <path id="Trazado_876894" data-name="Trazado 876894" d="M164.613,118.215,132.428,83.789,93.38,83.566,71.588,118.294,90.119,233.407l72.677-.061Z" transform="translate(56.946 66.474)" fill="#306ff3"/>
              <path id="Trazado_876895" data-name="Trazado 876895" d="M131.121,113.183,108.769,94.571,82.254,120.625" transform="translate(65.43 75.228)" fill="none" stroke="#fff" stroke-miterlimit="10" stroke-width="0.464"/>
              <line id="Línea_674" data-name="Línea 674" x2="14.326" y2="110.24" transform="translate(174.208 178.604)" fill="none" stroke="#fff" stroke-miterlimit="10" stroke-width="0.464"/>
              <path id="Trazado_876896" data-name="Trazado 876896" d="M87.468,225.364l-60.2,338.211,68.908-.057,70.758-303.257L145.944,567.3l69.673-.057,19.341-356.424-31.737-43.506-99.977,2.638Z" transform="translate(21.689 133.093)" fill="#ea513b"/>
              <path id="Trazado_876897" data-name="Trazado 876897" d="M62.466,225.364l15.775-55.412,99.979-2.638,31.735,43.506-.481,8.87c-21.689.449-93.138,3.717-150.778,26.849Z" transform="translate(46.691 133.094)" fill="#d83b2b"/>
              <path id="Trazado_876898" data-name="Trazado 876898" d="M105.054,257.187l7.354-29.16-5.194-56.848" transform="translate(83.567 136.168)" fill="none" stroke="#1c1318" stroke-miterlimit="10" stroke-width="0.464"/>
              <line id="Línea_675" data-name="Línea 675" x1="65.596" y2="0.056" transform="translate(152.675 369.978)" fill="none" stroke="#1c1318" stroke-miterlimit="10" stroke-width="0.464"/>
              <line id="Línea_676" data-name="Línea 676" x1="3.754" y2="51.047" transform="translate(195.445 307.339)" fill="none" stroke="#1c1318" stroke-miterlimit="10" stroke-width="0.464"/>
              <line id="Línea_677" data-name="Línea 677" x1="18.062" y2="371.096" transform="translate(215.869 329.258)" fill="none" stroke="#1c1318" stroke-miterlimit="10" stroke-width="0.464"/>
              <line id="Línea_678" data-name="Línea 678" x1="66.745" y2="367.31" transform="translate(80.346 329.331)" fill="none" stroke="#1c1318" stroke-miterlimit="10" stroke-width="0.464"/>
              <g id="Grupo_1106540" data-name="Grupo 1106540" transform="translate(130.951 295.32)" opacity="0.2">
                <g id="Grupo_1106539" data-name="Grupo 1106539">
                  <g id="Grupo_1106538" data-name="Grupo 1106538" clip-path="url(#clip-path-4)">
                    <rect id="Rectángulo_403442" data-name="Rectángulo 403442" width="95.806" height="15.278" transform="translate(0.007 0.04)" fill="#4f454d"/>
                  </g>
                </g>
              </g>
              <path id="Trazado_876899" data-name="Trazado 876899" d="M106.815,83.566l23.469,143.891a39.623,39.623,0,0,1-1.417,18.6L119.579,274.7a7.942,7.942,0,0,1-11.522,4.431l-45.89-26.449,19.881-30.259L55.712,129.571A26.6,26.6,0,0,1,71.487,97.59Z" transform="translate(43.511 66.474)" fill="#ea513b"/>
              <line id="Línea_679" data-name="Línea 679" x2="24.262" y2="20.362" transform="translate(135.641 290.293)" fill="none" stroke="#1c1318" stroke-miterlimit="10" stroke-width="0.464"/>
              <path id="Trazado_876900" data-name="Trazado 876900" d="M85.228,86.522l-2.208,3.392A34.1,34.1,0,0,0,81.784,125.1l4.266,7.674-4.762,14.1a24.232,24.232,0,0,0,1.348,18.723l25.878,51" transform="translate(61.64 68.826)" fill="none" stroke="#1c1318" stroke-miterlimit="10" stroke-width="0.464"/>
              <g id="Grupo_1106543" data-name="Grupo 1106543" transform="translate(105.678 288.898)" opacity="0.2">
                <g id="Grupo_1106542" data-name="Grupo 1106542">
                  <g id="Grupo_1106541" data-name="Grupo 1106541" clip-path="url(#clip-path-5)">
                    <path id="Trazado_876901" data-name="Trazado 876901" d="M78.739,160.9l30.728,57.7a7.834,7.834,0,0,1-4.719-.991l-45.89-26.449Z" transform="translate(-58.858 -160.904)" fill="#4f454d"/>
                  </g>
                </g>
              </g>
              <g id="Grupo_1106546" data-name="Grupo 1106546" transform="translate(109.952 217.566)" opacity="0.2">
                <g id="Grupo_1106545" data-name="Grupo 1106545">
                  <g id="Grupo_1106544" data-name="Grupo 1106544" clip-path="url(#clip-path-6)">
                    <path id="Trazado_876902" data-name="Trazado 876902" d="M76.147,121.175,72.928,178.7,61.239,137.483Z" transform="translate(-61.238 -121.175)" fill="#4f454d"/>
                  </g>
                </g>
              </g>
              <path id="Trazado_876903" data-name="Trazado 876903" d="M96.207,197.527l-31.338,6.988,19.2-21.086Z" transform="translate(51.601 145.912)" fill="#f0956d"/>
              <path id="Trazado_876904" data-name="Trazado 876904" d="M105.473,83.69l18.754,184.5a10.214,10.214,0,0,0,10.171,9.182l46.271-.038s-18.413-44.454-33.363-68.912l.372-13.367,21.745,22.9a24.6,24.6,0,0,0,38.506-30.3L160.949,115a46.9,46.9,0,0,0-22.17-18.165Z" transform="translate(83.9 66.573)" fill="#ea513b"/>
              <path id="Trazado_876905" data-name="Trazado 876905" d="M106.86,85.288c5.367,8.035,19.732,20.082,8.651,45.165,11.5,20.28,13.822,47.636,5.43,81.148" transform="translate(85.004 67.844)" fill="none" stroke="#1c1318" stroke-miterlimit="10" stroke-width="0.464"/>
              <line id="Línea_680" data-name="Línea 680" x1="4.218" y1="37.64" transform="translate(250.848 233.666)" fill="none" stroke="#1c1318" stroke-miterlimit="10" stroke-width="0.464"/>
              <path id="Trazado_876906" data-name="Trazado 876906" d="M98.324,194.508l72.86-.061L206.934,91.62l-72.862.061Z" transform="translate(78.214 72.881)" fill="#f0f3f9"/>
              <path id="Trazado_876907" data-name="Trazado 876907" d="M110.667,143.919,77.284,202.9l39.859,55.6L90.626,287.621,35.083,236.08a36.858,36.858,0,0,1-7.643-44L64.55,120.567A55.771,55.771,0,0,1,93.479,94.416l13.516-5.367Z" transform="translate(18.53 70.836)" fill="#ea513b"/>
              <line id="Línea_681" data-name="Línea 681" x1="9.071" y1="11.988" transform="translate(86.743 261.749)" fill="none" stroke="#1c1318" stroke-miterlimit="10" stroke-width="0.464"/>
              <path id="Trazado_876908" data-name="Trazado 876908" d="M170.273,129.659c-.154-.731-5.078-6.7-9.579-9.85a64.154,64.154,0,0,0-7.627-4.469,3.614,3.614,0,0,0-4.248.751l-3.654,3.849a3.629,3.629,0,0,0-.488,4.349l8.473,14.285s-12.543-6.688-13.4-6.114c-.51.341,4.279,5.7,8.254,10.006a10.76,10.76,0,0,0,12.942,2.266c5.243-2.8,10.9-7.634,9.333-15.073" transform="translate(111.133 91.444)" fill="#f0956d"/>
              <line id="Línea_682" data-name="Línea 682" x1="14.676" y1="11.414" transform="translate(259.264 208.26)" fill="none" stroke="#1c1318" stroke-miterlimit="10" stroke-width="0.464"/>
              <line id="Línea_683" data-name="Línea 683" x1="12.146" y1="14.755" transform="translate(256.535 211.431)" fill="none" stroke="#1c1318" stroke-miterlimit="10" stroke-width="0.464"/>
              <g id="Grupo_1106557" data-name="Grupo 1106557" transform="translate(21.808 5.201)">
                <path id="Trazado_876910" data-name="Trazado 876910" d="M49.31,42.963l1.669,27.052L22.285,42.963Z" transform="translate(22.346 50.378)" fill="#306ff3"/>
                <g id="Grupo_1106556" data-name="Grupo 1106556" transform="translate(15.12 36.447)">
                  <path id="Trazado_876909" data-name="Trazado 876909" d="M0,32.625C0,50.643,19.439,65.248,43.419,65.248S86.838,50.643,86.838,32.625,67.4,0,43.419,0,0,14.606,0,32.625" transform="translate(0 -0.001)" fill="#306ff3"/>
                  <g id="Grupo_1106555" data-name="Grupo 1106555" transform="translate(24.955 17.696)">
                    <line id="Línea_684" data-name="Línea 684" x1="32.569" transform="translate(0 0)" fill="none" stroke="#fff" stroke-miterlimit="10" stroke-width="0.971"/>
                    <line id="Línea_685" data-name="Línea 685" x1="32.569" transform="translate(0 8.679)" fill="none" stroke="#fff" stroke-miterlimit="10" stroke-width="0.971"/>
                    <line id="Línea_686" data-name="Línea 686" x1="32.569" transform="translate(0 17.36)" fill="none" stroke="#fff" stroke-miterlimit="10" stroke-width="0.971"/>
                    <line id="Línea_687" data-name="Línea 687" x1="32.569" transform="translate(0 26.04)" fill="none" stroke="#fff" stroke-miterlimit="10" stroke-width="0.971"/>
                  </g>
                </g>
              </g>
            </g>
          </g>
        </g>
      </g>
    </g>
  </g>
</svg>
