<svg xmlns="http://www.w3.org/2000/svg" xmlns:xlink="http://www.w3.org/1999/xlink" width="90.914" height="90.914" viewBox="0 0 90.914 90.914">
  <defs>
    <clipPath id="clip-path">
      <path id="path1659" d="M0-682.665H58.2v58.2H0Z" transform="translate(0 682.665)"/>
    </clipPath>
  </defs>
  <g id="Grupo_1106626" data-name="Grupo 1106626" transform="translate(4746 9997)">
    <g id="Grupo_1106091" data-name="Grupo 1106091" transform="translate(-4746 -9997)">
      <rect id="Rect치ngulo_400898" data-name="Rect치ngulo 400898" width="90.914" height="90.914" rx="45.457" transform="translate(0 0)" fill="#febdaf" opacity="0.859"/>
      <rect id="Rect치ngulo_400907" data-name="Rect치ngulo 400907" width="90.914" height="90.914" rx="45.457" transform="translate(0 0)" fill="none"/>
    </g>
    <g id="g1653" transform="translate(-4730 -9298.335)">
      <g id="g1655" transform="translate(0 -682.665)">
        <g id="g1657" clip-path="url(#clip-path)">
          <g id="g1663" transform="translate(30.262 5.608)">
            <path id="path1665" d="M-75.148-86.677h-5.929a1.074,1.074,0,0,1-1.074-1.074V-93.68a1.074,1.074,0,0,1,1.074-1.074h5.929a1.074,1.074,0,0,1,1.074,1.074v5.929a1.074,1.074,0,0,1-1.074,1.074" transform="translate(82.152 94.754)" fill="#fee45a"/>
          </g>
          <g id="g1667" transform="translate(30.262 18.677)">
            <path id="path1669" d="M-75.148-86.677h-5.929a1.074,1.074,0,0,1-1.074-1.074V-93.68a1.074,1.074,0,0,1,1.074-1.074h5.929a1.074,1.074,0,0,1,1.074,1.074v5.929a1.074,1.074,0,0,1-1.074,1.074" transform="translate(82.152 94.754)" fill="#fee45a"/>
          </g>
          <g id="g1671" transform="translate(30.262 31.746)">
            <path id="path1673" d="M-75.148-86.677h-5.929a1.074,1.074,0,0,1-1.074-1.074V-93.68a1.074,1.074,0,0,1,1.074-1.074h5.929a1.074,1.074,0,0,1,1.074,1.074v5.929a1.074,1.074,0,0,1-1.074,1.074" transform="translate(82.152 94.754)" fill="#fee45a"/>
          </g>
          <g id="g1675" transform="translate(30.262 44.815)">
            <path id="path1677" d="M-75.148-86.677h-5.929a1.074,1.074,0,0,1-1.074-1.074V-93.68a1.074,1.074,0,0,1,1.074-1.074h5.929a1.074,1.074,0,0,1,1.074,1.074v5.929a1.074,1.074,0,0,1-1.074,1.074" transform="translate(82.152 94.754)" fill="#fee45a"/>
          </g>
          <g id="g1679" transform="translate(34.916 5.607)">
            <path id="path1681" d="M-36.736-11.538v5.929A1.074,1.074,0,0,1-37.81-4.535H-40.16a1.075,1.075,0,0,0,1.075-1.074v-5.929a1.076,1.076,0,0,0-1.075-1.075h2.349a1.075,1.075,0,0,1,1.074,1.075" transform="translate(40.16 12.613)" fill="#fed402"/>
          </g>
          <g id="g1683" transform="translate(34.916 18.677)">
            <path id="path1685" d="M-36.736-11.526V-5.6A1.074,1.074,0,0,1-37.81-4.522H-40.16A1.075,1.075,0,0,0-39.085-5.6v-5.929A1.075,1.075,0,0,0-40.16-12.6h2.349a1.074,1.074,0,0,1,1.074,1.074" transform="translate(40.16 12.6)" fill="#fed402"/>
          </g>
          <g id="g1687" transform="translate(34.916 31.746)">
            <path id="path1689" d="M-36.736-11.526V-5.6A1.074,1.074,0,0,1-37.81-4.523H-40.16A1.075,1.075,0,0,0-39.085-5.6v-5.929A1.075,1.075,0,0,0-40.16-12.6h2.349a1.074,1.074,0,0,1,1.074,1.074" transform="translate(40.16 12.6)" fill="#fed402"/>
          </g>
          <g id="g1691" transform="translate(34.916 44.814)">
            <path id="path1693" d="M-36.736-11.526V-5.6A1.074,1.074,0,0,1-37.81-4.522H-40.16A1.075,1.075,0,0,0-39.085-5.6v-5.93A1.075,1.075,0,0,0-40.16-12.6h2.349a1.074,1.074,0,0,1,1.074,1.074" transform="translate(40.16 12.6)" fill="#fed402"/>
          </g>
          <g id="g1695" transform="translate(29.41 4.755)">
            <path id="path1697" d="M-17.828-94.972h-1.764a.853.853,0,0,1-.852-.853.853.853,0,0,1,.852-.853h1.764a.218.218,0,0,0,.157-.065.218.218,0,0,0,.065-.157v-5.929a.222.222,0,0,0-.222-.222h-5.929a.222.222,0,0,0-.222.222V-96.9a.222.222,0,0,0,.222.222h.263a.853.853,0,0,1,.853.853.853.853,0,0,1-.853.853h-.263A1.929,1.929,0,0,1-25.684-96.9v-5.929a1.929,1.929,0,0,1,1.927-1.927h5.929a1.929,1.929,0,0,1,1.927,1.927V-96.9a1.914,1.914,0,0,1-.564,1.362A1.914,1.914,0,0,1-17.828-94.972Z" transform="translate(25.684 104.754)"/>
          </g>
          <g id="g1699" transform="translate(32.507 4.452)">
            <path id="path1701" d="M-7.069-44.363a1.506,1.506,0,0,1-1.077-.449l-1.607-1.621a.852.852,0,0,1,.005-1.206.852.852,0,0,1,1.206.005l1.472,1.485,4.846-5.008a.853.853,0,0,1,1.205-.02A.853.853,0,0,1-1-49.971l-4.979,5.146a1.506,1.506,0,0,1-1.081.462Z" transform="translate(10 51.416)"/>
          </g>
          <g id="g1703" transform="translate(43.226 7.056)">
            <path id="path1705" d="M-111.6-8.295h-9.548A.853.853,0,0,1-122-9.147a.852.852,0,0,1,.852-.852h9.548a.853.853,0,0,1,.853.852A.853.853,0,0,1-111.6-8.295Z" transform="translate(122 10)"/>
          </g>
          <g id="g1707" transform="translate(43.226 10.532)">
            <path id="path1709" d="M-111.6-8.295h-9.548A.853.853,0,0,1-122-9.147a.852.852,0,0,1,.852-.852h9.548a.853.853,0,0,1,.853.852A.853.853,0,0,1-111.6-8.295Z" transform="translate(122 10)"/>
          </g>
          <g id="g1711" transform="translate(29.41 17.824)">
            <path id="path1713" d="M-84.3-94.972h-5.929A1.929,1.929,0,0,1-92.152-96.9v-5.929a1.929,1.929,0,0,1,1.927-1.927H-84.3a1.929,1.929,0,0,1,1.927,1.927V-96.9A1.929,1.929,0,0,1-84.3-94.972Zm-5.929-8.078a.222.222,0,0,0-.222.222V-96.9a.222.222,0,0,0,.222.222H-84.3a.222.222,0,0,0,.222-.222v-5.929a.222.222,0,0,0-.222-.222Z" transform="translate(92.152 104.754)"/>
          </g>
          <g id="g1715" transform="translate(32.507 17.521)">
            <path id="path1717" d="M-7.069-44.362a1.506,1.506,0,0,1-1.077-.449l-1.607-1.621a.852.852,0,0,1,.005-1.206.853.853,0,0,1,1.206.005l1.472,1.485,4.846-5.008a.852.852,0,0,1,1.205-.02A.852.852,0,0,1-1-49.969l-4.979,5.146a1.506,1.506,0,0,1-1.081.462Z" transform="translate(10 51.415)"/>
          </g>
          <g id="g1719" transform="translate(43.226 20.125)">
            <path id="path1721" d="M-111.6-8.295h-9.548A.853.853,0,0,1-122-9.147a.852.852,0,0,1,.852-.852h9.548a.853.853,0,0,1,.853.852A.853.853,0,0,1-111.6-8.295Z" transform="translate(122 10)"/>
          </g>
          <g id="g1723" transform="translate(43.226 23.601)">
            <path id="path1725" d="M-111.6-8.295h-9.548A.853.853,0,0,1-122-9.147a.852.852,0,0,1,.852-.852h9.548a.853.853,0,0,1,.853.852A.853.853,0,0,1-111.6-8.295Z" transform="translate(122 10)"/>
          </g>
          <g id="g1727" transform="translate(29.41 30.893)">
            <path id="path1729" d="M-84.3-94.972h-5.929A1.929,1.929,0,0,1-92.152-96.9v-5.929a1.929,1.929,0,0,1,1.927-1.927H-84.3a1.929,1.929,0,0,1,1.927,1.927V-96.9A1.929,1.929,0,0,1-84.3-94.972Zm-5.929-8.078a.222.222,0,0,0-.222.222V-96.9a.222.222,0,0,0,.222.222H-84.3a.222.222,0,0,0,.222-.222v-5.929a.222.222,0,0,0-.222-.222Z" transform="translate(92.152 104.754)"/>
          </g>
          <g id="g1731" transform="translate(32.507 30.59)">
            <path id="path1733" d="M-7.069-44.362a1.506,1.506,0,0,1-1.077-.449l-1.607-1.621a.852.852,0,0,1,.005-1.206.853.853,0,0,1,1.206.005l1.472,1.485,4.846-5.008a.852.852,0,0,1,1.205-.02A.852.852,0,0,1-1-49.969l-4.979,5.146a1.506,1.506,0,0,1-1.081.462Z" transform="translate(10 51.415)"/>
          </g>
          <g id="g1735" transform="translate(43.226 33.194)">
            <path id="path1737" d="M-111.6-8.295h-9.548A.853.853,0,0,1-122-9.147a.852.852,0,0,1,.852-.852h9.548a.853.853,0,0,1,.853.852A.853.853,0,0,1-111.6-8.295Z" transform="translate(122 10)"/>
          </g>
          <g id="g1739" transform="translate(43.226 36.67)">
            <path id="path1741" d="M-111.6-8.295h-9.548A.853.853,0,0,1-122-9.147a.852.852,0,0,1,.852-.852h9.548a.853.853,0,0,1,.853.852A.853.853,0,0,1-111.6-8.295Z" transform="translate(122 10)"/>
          </g>
          <g id="g1743" transform="translate(29.41 43.962)">
            <path id="path1745" d="M-84.3-94.972h-5.929A1.929,1.929,0,0,1-92.152-96.9v-5.929a1.929,1.929,0,0,1,1.927-1.927H-84.3a1.929,1.929,0,0,1,1.927,1.927V-96.9A1.929,1.929,0,0,1-84.3-94.972Zm-5.929-8.078a.222.222,0,0,0-.222.222V-96.9a.222.222,0,0,0,.222.222H-84.3a.222.222,0,0,0,.222-.222v-5.929a.222.222,0,0,0-.222-.222Z" transform="translate(92.152 104.754)"/>
          </g>
          <g id="g1747" transform="translate(32.507 43.659)">
            <path id="path1749" d="M-7.069-44.362a1.506,1.506,0,0,1-1.077-.449l-1.607-1.621a.852.852,0,0,1,.005-1.206.853.853,0,0,1,1.206.005l1.472,1.485,4.846-5.008a.852.852,0,0,1,1.205-.02A.852.852,0,0,1-1-49.969l-4.979,5.146a1.506,1.506,0,0,1-1.081.462Z" transform="translate(10 51.415)"/>
          </g>
          <g id="g1751" transform="translate(43.226 46.263)">
            <path id="path1753" d="M-111.6-8.295h-9.548A.853.853,0,0,1-122-9.147a.852.852,0,0,1,.852-.852h9.548a.853.853,0,0,1,.853.852A.853.853,0,0,1-111.6-8.295Z" transform="translate(122 10)"/>
          </g>
          <g id="g1755" transform="translate(43.226 49.739)">
            <path id="path1757" d="M-111.6-8.295h-9.548A.853.853,0,0,1-122-9.147a.852.852,0,0,1,.852-.852h9.548a.853.853,0,0,1,.853.852A.853.853,0,0,1-111.6-8.295Z" transform="translate(122 10)"/>
          </g>
          <g id="g1759" transform="translate(4.571 13.542)">
            <path id="path1761" d="M-148.449-44.632a1.144,1.144,0,0,1-.81-1.1v-3.062h-4.564v3.062a1.144,1.144,0,0,1-.81,1.1,10.747,10.747,0,0,0-7.65,10.29v8.584a2.4,2.4,0,0,0,2.4,2.4,2.4,2.4,0,0,0,2.4-2.4l.037,17.8A2.952,2.952,0,0,0-154.495-5a2.952,2.952,0,0,0,2.951-2.951h0A2.952,2.952,0,0,0-148.588-5a2.951,2.951,0,0,0,2.951-2.951l.037-17.8a2.4,2.4,0,0,0,2.4,2.4,2.4,2.4,0,0,0,2.4-2.4v-8.584a10.747,10.747,0,0,0-7.65-10.29" transform="translate(162.284 48.792)" fill="#60b8fe"/>
          </g>
          <g id="g1763" transform="translate(15.17 13.541)">
            <path id="path1765" d="M-116.81-155.044v8.584a2.4,2.4,0,0,1-.7,1.7,2.4,2.4,0,0,1-1.7.7,2.384,2.384,0,0,1-1.213-.329,2.37,2.37,0,0,0,.485-.374,2.4,2.4,0,0,0,.7-1.7v-8.584c0-3.924-2.8-6.613-6.767-8.035a2.542,2.542,0,0,1-1.694-2.388v-4.026h2.425v3.063a1.143,1.143,0,0,0,.81,1.1,10.747,10.747,0,0,1,7.651,10.29" transform="translate(127.696 169.493)" fill="#27a5fe"/>
          </g>
          <g id="g1767" transform="translate(8.556 25.869)">
            <path id="path1769" d="M-138.823,20.543a3.8,3.8,0,0,1-2.954-1.409,3.8,3.8,0,0,1-2.954,1.409,3.808,3.808,0,0,1-3.8-3.8V-10.918a.853.853,0,0,1,.852-.853.853.853,0,0,1,.853.853V16.739a2.1,2.1,0,0,0,2.1,2.1,2.1,2.1,0,0,0,2.1-2.1l0-16.007a.854.854,0,0,1,.853-.852.853.853,0,0,1,.852.853V16.739a2.1,2.1,0,0,0,2.1,2.1,2.1,2.1,0,0,0,2.1-2.1V-10.767a.853.853,0,0,1,.853-.852.853.853,0,0,1,.853.852V16.739A3.808,3.808,0,0,1-138.823,20.543Z" transform="translate(148.534 11.771)"/>
          </g>
          <g id="g1771" transform="translate(3.719 33.588)">
            <path id="path1773" d="M-6.747-3.761A3.256,3.256,0,0,1-10-7.014V-9.147A.852.852,0,0,1-9.147-10a.852.852,0,0,1,.852.852v2.134A1.549,1.549,0,0,0-6.747-5.466,1.586,1.586,0,0,0-5.165-7.014V-8.351A.852.852,0,0,1-4.313-9.2a.852.852,0,0,1,.852.852v1.337A3.274,3.274,0,0,1-6.747-3.761Z" transform="translate(10 10)"/>
          </g>
          <g id="g1775" transform="translate(3.719 12.689)">
            <path id="path1777" d="M-185.442-237.36a3.271,3.271,0,0,1-3.281-3.253v-1.337a.852.852,0,0,1,.852-.852.852.852,0,0,1,.853.852v1.337a1.564,1.564,0,0,0,1.576,1.548,1.549,1.549,0,0,0,1.548-1.548V-249.2a9.952,9.952,0,0,0-7.043-9.473,2.008,2.008,0,0,1-1.418-1.914v-2.21h-2.859v2.21a2.008,2.008,0,0,1-1.417,1.914,9.952,9.952,0,0,0-7.043,9.473v2.585a.853.853,0,0,1-.853.853.853.853,0,0,1-.852-.853V-249.2a11.668,11.668,0,0,1,8.258-11.106.292.292,0,0,0,.2-.281v-3.062a.853.853,0,0,1,.853-.852h4.564a.853.853,0,0,1,.852.852v3.062a.292.292,0,0,0,.2.281,11.668,11.668,0,0,1,8.258,11.106v8.584A3.256,3.256,0,0,1-185.442-237.36Z" transform="translate(205.38 264.498)"/>
          </g>
          <g id="g1779" transform="translate(7.71 0.867)">
            <path id="path1781" d="M-159.545-79.772a7.434,7.434,0,0,1-7.434,7.434,7.434,7.434,0,0,1-7.434-7.434,7.434,7.434,0,0,1,7.434-7.434,7.434,7.434,0,0,1,7.434,7.434" transform="translate(174.414 87.206)" fill="#fed2a4"/>
          </g>
          <g id="g1783" transform="translate(11.354 1.063)">
            <path id="path1785" d="M-120.447-77.661a7.434,7.434,0,0,1-7.434,7.434,7.394,7.394,0,0,1-3.791-1.038,7.437,7.437,0,0,0,1.7.2,7.434,7.434,0,0,0,7.435-7.434,7.429,7.429,0,0,0-3.644-6.4,7.436,7.436,0,0,1,5.732,7.238" transform="translate(131.672 84.898)" fill="#ffbd86"/>
          </g>
          <g id="g1787" transform="translate(6.857 0.014)">
            <path id="path1789" d="M-176.127-97.206a8.3,8.3,0,0,1,8.287,8.287,8.3,8.3,0,0,1-8.287,8.287,8.3,8.3,0,0,1-8.287-8.287A8.3,8.3,0,0,1-176.127-97.206Zm0,14.869a6.589,6.589,0,0,0,6.582-6.582,6.589,6.589,0,0,0-6.582-6.582,6.589,6.589,0,0,0-6.582,6.582A6.589,6.589,0,0,0-176.127-82.338Z" transform="translate(184.414 97.206)"/>
          </g>
          <g id="g1791" transform="translate(12.895 10.178)">
            <path id="path1793" d="M-43.637-7.6A2.757,2.757,0,0,1-45.855-8.7.852.852,0,0,1-45.688-9.9a.852.852,0,0,1,1.194.167,1.066,1.066,0,0,0,.857.428,1.066,1.066,0,0,0,.855-.424.852.852,0,0,1,1.195-.162A.852.852,0,0,1-41.425-8.7,2.758,2.758,0,0,1-43.637-7.6Z" transform="translate(46.027 10.07)"/>
          </g>
        </g>
      </g>
    </g>
  </g>
</svg>
