<svg xmlns="http://www.w3.org/2000/svg" width="90" height="90" viewBox="0 0 90 90">
  <g id="Grupo_1106771" data-name="Grupo 1106771" transform="translate(-597.051 -1871)">
    <g id="Grupo_1106043" data-name="Grupo 1106043" transform="translate(597.051 1871)">
      <g id="Rect치ngulo_400898" data-name="Rect치ngulo 400898" fill="#fff" stroke="#fff" stroke-width="3" opacity="0.859">
        <rect width="90" height="90" rx="45" stroke="none"/>
        <rect x="1.5" y="1.5" width="87" height="87" rx="43.5" fill="none"/>
      </g>
      <g id="Rect치ngulo_400907" data-name="Rect치ngulo 400907" transform="translate(0)" fill="none" stroke="#fff" stroke-width="3">
        <rect width="90" height="90" rx="45" stroke="none"/>
        <rect x="1.5" y="1.5" width="87" height="87" rx="43.5" fill="none"/>
      </g>
    </g>
    <g id="argumentos" transform="translate(608.051 1881.87)">
      <g id="Grupo_1106769" data-name="Grupo 1106769" transform="translate(0.999 1.128)">
        <g id="Grupo_1106758" data-name="Grupo 1106758" transform="translate(0 39.391)">
          <path id="Trazado_877717" data-name="Trazado 877717" d="M23.038,306.737a8.807,8.807,0,1,1-6.724-3.12,8.863,8.863,0,0,1,4.006.987l2.718-.6Z" transform="translate(-7.506 -303.617)" fill="#fff6e0"/>
        </g>
        <g id="Grupo_1106767" data-name="Grupo 1106767" transform="translate(8.24)">
          <g id="Grupo_1106764" data-name="Grupo 1106764" transform="translate(4.774 8.076)">
            <path id="Trazado_877718" data-name="Trazado 877718" d="M300.136,110.063h-.005a7.455,7.455,0,0,1-7.455-7.455V75.769a7.455,7.455,0,0,1,7.455-7.455h.005a7.455,7.455,0,0,1,7.455,7.455v26.838A7.455,7.455,0,0,1,300.136,110.063Z" transform="translate(-267.738 -68.314)" fill="#828cb3"/>
            <ellipse id="Elipse_11660" data-name="Elipse 11660" cx="4.684" cy="4.68" rx="4.684" ry="4.68" transform="translate(21.624 2.668)" fill="#ffea00"/>
            <g id="Grupo_1106763" data-name="Grupo 1106763" transform="translate(0 4.446)">
              <g id="Grupo_1106761" data-name="Grupo 1106761">
                <g id="Grupo_1106760" data-name="Grupo 1106760">
                  <path id="Trazado_877719" data-name="Trazado 877719" d="M105.293,348.534v-9.772a14.086,14.086,0,0,1,14.086-14.086h8.785a14.086,14.086,0,0,1,14.086,14.086v9.772Z" transform="translate(-105.293 -295.005)" fill="#ffea00"/>
                  <path id="Trazado_877720" data-name="Trazado 877720" d="M214.744,340.46h0a4.512,4.512,0,0,1-4.512-4.512v-6.113h9.028v6.113a4.512,4.512,0,0,1-4.512,4.512Z" transform="translate(-196.264 -299.477)" fill="#ffcab9"/>
                  <path id="Trazado_877721" data-name="Trazado 877721" d="M164.768,136.4h-.035a12.171,12.171,0,0,1-12.171-12.171V113.895a12.171,12.171,0,0,1,12.171-12.171h.035l12.171,16.428v6.082A12.171,12.171,0,0,1,164.768,136.4Z" transform="translate(-146.271 -101.724)" fill="#ffcab9"/>
                  <g id="Grupo_1106759" data-name="Grupo 1106759" transform="translate(15.817 9.243)">
                    <path id="Trazado_877722" data-name="Trazado 877722" d="M233.673,171.175v13.267a12.175,12.175,0,0,1-9.527,11.882,12.207,12.207,0,0,0,2.644.289h.035A12.171,12.171,0,0,0,239,184.442V178.36Z" transform="translate(-224.146 -171.175)" fill="#fabba7"/>
                  </g>
                </g>
              </g>
              <path id="Trazado_877723" data-name="Trazado 877723" d="M152.562,119.065v-5.148a12.188,12.188,0,1,1,24.377,0v4.236c-7.137,0-9.436-7.14-9.436-7.14s-1.928,8.052-14.941,8.052" transform="translate(-146.271 -101.725)" fill="#828cb3"/>
              <g id="Grupo_1106762" data-name="Grupo 1106762" transform="translate(15.817)">
                <path id="Trazado_877724" data-name="Trazado 877724" d="M226.808,101.724a12.222,12.222,0,0,0-2.662.292,12.2,12.2,0,0,1,9.527,11.9v2.6A9.1,9.1,0,0,0,239,118.152v-4.236A12.19,12.19,0,0,0,226.808,101.724Z" transform="translate(-224.146 -101.724)" fill="#717eb3"/>
              </g>
            </g>
          </g>
          <g id="Grupo_1106765" data-name="Grupo 1106765">
            <path id="Trazado_877725" data-name="Trazado 877725" d="M88.9,25.8a11.046,11.046,0,1,0-8.434,3.914,11.118,11.118,0,0,0,5.025-1.238l3.409.758V25.8Z" transform="translate(-69.418 -7.63)" fill="#fff6e0"/>
            <path id="Trazado_877726" data-name="Trazado 877726" d="M134.854,7.63a11.069,11.069,0,0,0-2.662.325,11.045,11.045,0,0,1,8.386,10.715,11.38,11.38,0,0,1-8.422,10.707,10.908,10.908,0,0,0,7.723-.905l3.409.758V25.8A11.035,11.035,0,0,0,134.854,7.63Z" transform="translate(-123.807 -7.63)" fill="#fff0cc"/>
          </g>
          <g id="Grupo_1106766" data-name="Grupo 1106766" transform="translate(33.146 44.063)">
            <path id="Trazado_877727" data-name="Trazado 877727" d="M321.095,342.632a11.046,11.046,0,1,0,8.434-3.914,11.117,11.117,0,0,0-5.025,1.238l-3.409-.758v3.433Z" transform="translate(-318.481 -338.718)" fill="#fff6e0"/>
            <path id="Trazado_877728" data-name="Trazado 877728" d="M384.156,338.718a10.627,10.627,0,0,0-2.625.333,11.039,11.039,0,0,1-.036,21.422,11.041,11.041,0,1,0,2.662-21.756Z" transform="translate(-373.108 -338.718)" fill="#fff0cc"/>
          </g>
        </g>
        <g id="Grupo_1106768" data-name="Grupo 1106768" transform="translate(48.527 13.106)">
          <path id="Trazado_877729" data-name="Trazado 877729" d="M374.226,120.592a8.807,8.807,0,1,1,6.724,3.12,8.863,8.863,0,0,1-4.006-.987l-2.718.6Z" transform="translate(-372.142 -106.109)" fill="#fff6e0"/>
          <path id="Trazado_877730" data-name="Trazado 877730" d="M420.986,106.109a8.808,8.808,0,0,0-2.662.41,8.8,8.8,0,0,1,.031,16.773,8.564,8.564,0,0,0,2.631.42,8.8,8.8,0,1,0,0-17.6Z" transform="translate(-412.178 -106.109)" fill="#fff0cc"/>
        </g>
      </g>
      <g id="Grupo_1106770" data-name="Grupo 1106770" transform="translate(0 0.13)">
        <path id="Trazado_877731" data-name="Trazado 877731" d="M91.912,361.267a1,1,0,0,0,0,2A1,1,0,0,0,91.912,361.267Z" transform="translate(-78.844 -313.205)"/>
        <path id="Trazado_877732" data-name="Trazado 877732" d="M67.407,361.267a1,1,0,0,0,0,2A1,1,0,0,0,67.407,361.267Z" transform="translate(-57.6 -313.205)"/>
        <path id="Trazado_877733" data-name="Trazado 877733" d="M42.9,361.267a1,1,0,0,0,0,2A1,1,0,0,0,42.9,361.267Z" transform="translate(-36.356 -313.205)"/>
        <path id="Trazado_877734" data-name="Trazado 877734" d="M176.887,84.323a1,1,0,0,0,0,2A1,1,0,0,0,176.887,84.323Z" transform="translate(-152.51 -73.118)"/>
        <path id="Trazado_877735" data-name="Trazado 877735" d="M146.149,84.323a1,1,0,0,0,0,2A1,1,0,0,0,146.149,84.323Z" transform="translate(-125.863 -73.118)"/>
        <path id="Trazado_877736" data-name="Trazado 877736" d="M115.411,84.323a1,1,0,0,0,0,2A1,1,0,0,0,115.411,84.323Z" transform="translate(-99.216 -73.118)"/>
        <path id="Trazado_877737" data-name="Trazado 877737" d="M54.864,44.279v-12.1a9.793,9.793,0,1,0-.416-18.138A8.488,8.488,0,0,0,40.24,10.877a5.714,5.714,0,0,0-4.411,2.2,13.329,13.329,0,0,0-3.508-.421A12.175,12.175,0,0,0,20.286.13a11.978,11.978,0,0,0-4.689.946,1,1,0,0,0,.777,1.839c9.778-3.967,18.3,7.587,11.584,15.734-.526.62-.237,2.109-.237,2.834-.732-.163-2.133-.774-2.863-.4C15.027,25.97,5.687,14.147,12.6,5.7a1,1,0,0,0-1.525-1.288,12.07,12.07,0,0,0,8.33,19.765,13.313,13.313,0,0,0-.1,1.647V36.16a13.1,13.1,0,0,0,2.406,7.579A14.969,14.969,0,0,0,18.836,45.5a9.867,9.867,0,0,0-1.307-2.218V40.9a1,1,0,0,0-1.215-.974l-2.378.529a9.794,9.794,0,1,0-.921,18.126v8.6a1,1,0,0,0,2,0V57.408a13.093,13.093,0,0,1,8.028-12.072,13.229,13.229,0,0,0,3.941,2.79v1.994a5.512,5.512,0,0,0,11.024,0V48.127a13.231,13.231,0,0,0,3.943-2.792A13.069,13.069,0,0,1,44,46.422v2.326a12.035,12.035,0,0,0-2.614,7.483,1,1,0,0,0,2,0A10.036,10.036,0,0,1,45.76,49.75c.526-.62.237-2.109.237-2.834.732.163,2.132.774,2.863.4a10.055,10.055,0,0,1,14.622,8.912c-.112,10.436-13.95,13.87-18.929,4.707a1,1,0,0,0-1.762.938c5.972,10.985,22.554,6.861,22.688-5.645A12.057,12.057,0,0,0,54.865,44.279ZM13.049,56.422A7.8,7.8,0,1,1,13.361,42.4a3.522,3.522,0,0,0,2.172-.25,3.4,3.4,0,0,0,.237,2.138,7.845,7.845,0,0,1,1.475,2.652,15.138,15.138,0,0,0-4.2,9.485ZM40.32,12.87A3.693,3.693,0,0,1,43.448,18.5a13.254,13.254,0,0,0-5.569-4.7,3.7,3.7,0,0,1,2.441-.928ZM21.3,25.822a11.3,11.3,0,0,1,.125-1.672,12.108,12.108,0,0,0,4.009-1.129L28.5,23.7a1,1,0,0,0,1.215-.974V19.652a12.037,12.037,0,0,0,2.352-4.993A11.3,11.3,0,0,1,43.682,25.822v3.205a9.341,9.341,0,0,1-7.488-6.394,1.006,1.006,0,0,0-1.919.068c-1.333,5.333-8.309,7.111-12.973,7.274V25.822Zm14.706,24.3a3.516,3.516,0,0,1-7.031,0V48.857a13.3,13.3,0,0,0,7.031,0Zm-3.5-2.788h-.035A11.185,11.185,0,0,1,21.3,36.16V31.972c5.267-.176,11.064-1.878,13.955-6.655a11.009,11.009,0,0,0,8.426,5.715V36.16A11.185,11.185,0,0,1,32.509,47.333Zm20.32-3.124a12.021,12.021,0,0,0-4.547,1.17,14.788,14.788,0,0,0-3.312-.7,15.081,15.081,0,0,0-1.7-.933,13.1,13.1,0,0,0,2.407-7.58V25.822a13.092,13.092,0,0,0-1.172-5.43,5.7,5.7,0,0,0-1.827-9,6.49,6.49,0,0,1,9.986,3.659,9.831,9.831,0,0,0-2.053,14.025v2.382a1,1,0,0,0,1.215.974l1.042-.232Zm-.221-14a3.4,3.4,0,0,0-.237-2.138,7.83,7.83,0,1,1,2.408,1.888A3.542,3.542,0,0,0,52.608,30.21Z" transform="translate(0 -0.13)"/>
        <path id="Trazado_877738" data-name="Trazado 877738" d="M364.475,412.937a1,1,0,0,0,0,2A1,1,0,0,0,364.475,412.937Z" transform="translate(-315.133 -357.999)"/>
        <path id="Trazado_877739" data-name="Trazado 877739" d="M395.213,412.937a1,1,0,0,0,0,2A1,1,0,0,0,395.213,412.937Z" transform="translate(-341.781 -357.999)"/>
        <path id="Trazado_877740" data-name="Trazado 877740" d="M425.95,412.937a1,1,0,0,0,0,2A1,1,0,0,0,425.95,412.937Z" transform="translate(-368.427 -357.999)"/>
        <path id="Trazado_877741" data-name="Trazado 877741" d="M407.537,165.733a1,1,0,0,0,0,2A1,1,0,0,0,407.537,165.733Z" transform="translate(-352.464 -143.694)"/>
        <path id="Trazado_877742" data-name="Trazado 877742" d="M432.043,165.733a1,1,0,0,0,0,2A1,1,0,0,0,432.043,165.733Z" transform="translate(-373.709 -143.694)"/>
        <path id="Trazado_877743" data-name="Trazado 877743" d="M456.549,167.729a1,1,0,0,0,0-2A1,1,0,0,0,456.549,167.729Z" transform="translate(-394.954 -143.694)"/>
      </g>
    </g>
  </g>
</svg>
