<svg xmlns="http://www.w3.org/2000/svg" width="90" height="90" viewBox="0 0 90 90">
  <g id="Grupo_1106774" data-name="Grupo 1106774" transform="translate(-912.051 -1870)">
    <g id="Grupo_1106046" data-name="Grupo 1106046" transform="translate(912.051 1870)">
      <g id="Rect치ngulo_400898" data-name="Rect치ngulo 400898" fill="#fff" stroke="#fff" stroke-width="3" opacity="0.859">
        <rect width="90" height="90" rx="45" stroke="none"/>
        <rect x="1.5" y="1.5" width="87" height="87" rx="43.5" fill="none"/>
      </g>
      <g id="Rect치ngulo_400907" data-name="Rect치ngulo 400907" transform="translate(0)" fill="none" stroke="#fff" stroke-width="3">
        <rect width="90" height="90" rx="45" stroke="none"/>
        <rect x="1.5" y="1.5" width="87" height="87" rx="43.5" fill="none"/>
      </g>
    </g>
    <g id="asistencia-social" transform="translate(923.05 1882)">
      <g id="Grupo_1106772" data-name="Grupo 1106772" transform="translate(1.323 22.002)">
        <path id="Trazado_877744" data-name="Trazado 877744" d="M22.678,195.854l-4.315-4.592a7.951,7.951,0,0,1-2.156-5.444v-16.26a3.1,3.1,0,0,0-2.431-3.029h0A3.1,3.1,0,0,0,10,169.557v20.5a11.55,11.55,0,0,0,2.132,6.686l2.357,3.321L20.129,208l1.99,2.8H37.153l-2.166-10.322a18.247,18.247,0,0,0-7.677-11.4l-4.624-3.109a3.314,3.314,0,0,0-4.329.553h0a3.566,3.566,0,0,0,.075,4.812c2.532,2.683,6.3,6.695,6.3,6.695" transform="translate(-10 -166.453)" fill="#ffcdac"/>
        <path id="Trazado_877745" data-name="Trazado 877745" d="M311.056,195.854l4.315-4.592a7.951,7.951,0,0,0,2.156-5.444v-16.26a3.1,3.1,0,0,1,2.431-3.029h0a3.1,3.1,0,0,1,3.776,3.029v20.5a11.55,11.55,0,0,1-2.132,6.686l-2.357,3.321L313.605,208l-1.99,2.8H296.581l2.166-10.322a18.247,18.247,0,0,1,7.677-11.4l4.624-3.109a3.313,3.313,0,0,1,4.329.553h0a3.566,3.566,0,0,1-.075,4.812c-2.532,2.683-6.3,6.695-6.3,6.695" transform="translate(-258.7 -166.453)" fill="#ffcdac"/>
      </g>
      <g id="Grupo_1106773" data-name="Grupo 1106773" transform="translate(13.667 23.741)">
        <path id="Trazado_877746" data-name="Trazado 877746" d="M280.137,183.894a4.878,4.878,0,0,1,2.381-1.363l3.375-.809v-2.061h4.122v2.067h0l3.366.8a4.891,4.891,0,0,1,3.754,4.757v2.469h-7.462Z" transform="translate(-256.774 -179.655)" fill="#7d9bff"/>
        <path id="Trazado_877747" data-name="Trazado 877747" d="M120.389,183.843a4.878,4.878,0,0,0-2.381-1.363l-3.375-.809v-2.061h-4.122v2.067h0l-3.366.8a4.891,4.891,0,0,0-3.754,4.757v2.469h7.462Z" transform="translate(-103.39 -179.611)" fill="#7d9bff"/>
      </g>
      <path id="Trazado_877748" data-name="Trazado 877748" d="M169.149,211.07l-4.7,1.127a6.812,6.812,0,0,0-5.224,6.624v4.753h25.584v-4.749a6.812,6.812,0,0,0-5.229-6.625l-4.689-1.12" transform="translate(-138.176 -183.17)" fill="#78d2fa"/>
      <path id="Trazado_877749" data-name="Trazado 877749" d="M240.054,189.357v2.879l-2.869,6.525-2.872-6.534v-2.87" transform="translate(-203.34 -164.327)" fill="#ffb487"/>
      <path id="Trazado_877750" data-name="Trazado 877750" d="M220.514,114.551v3.975a6.4,6.4,0,0,1-6.4,6.4h0a6.4,6.4,0,0,1-6.4-6.4v-3.975" transform="translate(-180.259 -99.409)" fill="#ffcdac"/>
      <path id="Trazado_877751" data-name="Trazado 877751" d="M214.115,64h0a6.4,6.4,0,0,0-6.4,6.4v1.54h3.129a7.03,7.03,0,0,0,5.389-2.515h0l4.281,2.515V70.4A6.4,6.4,0,0,0,214.115,64Z" transform="translate(-180.259 -55.54)" fill="#bebebe"/>
      <path id="Trazado_877752" data-name="Trazado 877752" d="M147.3,95.311V94.205a4.594,4.594,0,0,0-4.594-4.594h0a4.594,4.594,0,0,0-4.594,4.594v1.106h3.167a10.953,10.953,0,0,0,5.63-1.558h0" transform="translate(-119.858 -77.766)" fill="#f5b955"/>
      <path id="Trazado_877753" data-name="Trazado 877753" d="M147.3,125.9v2.854a4.594,4.594,0,0,1-4.594,4.594h0a4.594,4.594,0,0,1-4.594-4.594V125.9" transform="translate(-119.858 -109.262)" fill="#ffcdac"/>
      <path id="Trazado_877754" data-name="Trazado 877754" d="M304.5,95.362V94.256a4.594,4.594,0,0,1,4.594-4.594h0a4.594,4.594,0,0,1,4.594,4.594v1.106h-3.167a10.953,10.953,0,0,1-5.63-1.558h0" transform="translate(-264.25 -77.81)" fill="#f5b955"/>
      <path id="Trazado_877755" data-name="Trazado 877755" d="M304.5,125.955v2.854a4.594,4.594,0,0,0,4.594,4.594h0a4.594,4.594,0,0,0,4.594-4.594v-2.854" transform="translate(-264.25 -109.306)" fill="#ffcdac"/>
      <path id="Trazado_877756" data-name="Trazado 877756" d="M79.024,471.348a1.322,1.322,0,1,0-2.156,1.53l1.99,2.8a1.322,1.322,0,1,0,2.156-1.53Z" transform="translate(-66.495 -408.561)"/>
      <path id="Trazado_877757" data-name="Trazado 877757" d="M27.6,191.533a19.466,19.466,0,0,0-8.233-12.221L14.747,176.2a4.651,4.651,0,0,0-5.9.6V160.877a4.425,4.425,0,0,0-7.194-3.451A4.4,4.4,0,0,0,0,160.877v20.5a12.8,12.8,0,0,0,2.376,7.451l2.357,3.321a1.322,1.322,0,0,0,2.156-1.53l-2.357-3.321a10.174,10.174,0,0,1-1.888-5.921v-20.5a1.781,1.781,0,1,1,3.563,0v16.261a9.236,9.236,0,0,0,2.382,6.2c.066.079.134.157.205.233.878.93,1.91,2.026,2.882,3.059l1.361,1.448.014.013,2.041,2.171a1.322,1.322,0,1,0,1.927-1.81c-.024-.026-1.571-1.673-3.338-3.551l-3.031-3.226-.022-.025a2.23,2.23,0,0,1,.043-2.923,2,2,0,0,1,2.6-.332l4.624,3.109a16.836,16.836,0,0,1,7.121,10.57L27.182,202.4a1.322,1.322,0,1,0,2.587-.543Z" transform="translate(0 -135.771)"/>
      <path id="Trazado_877758" data-name="Trazado 877758" d="M58.282,442.13a1.322,1.322,0,0,0-2.152,1.535l.008.012a1.322,1.322,0,0,0,2.152-1.535Z" transform="translate(-48.496 -383.207)"/>
      <path id="Trazado_877759" data-name="Trazado 877759" d="M314.721,157.429a4.425,4.425,0,0,0-7.194,3.451v15.927a4.651,4.651,0,0,0-5.9-.6l-4.624,3.109a19.465,19.465,0,0,0-8.233,12.221l-2.166,10.322a1.322,1.322,0,1,0,2.587.543l2.166-10.322a16.836,16.836,0,0,1,7.121-10.57l4.624-3.109a2,2,0,0,1,2.6.332,2.23,2.23,0,0,1,.046,2.92l-.025.028-6.369,6.777a1.322,1.322,0,1,0,1.927,1.81c.018-.019,5.419-5.762,6.3-6.692.072-.076.139-.154.205-.233a9.236,9.236,0,0,0,2.382-6.2V160.88a1.781,1.781,0,1,1,3.563,0v20.5a10.174,10.174,0,0,1-1.888,5.921l-9.987,14.068a1.322,1.322,0,1,0,2.156,1.53L314,188.826a12.8,12.8,0,0,0,2.376-7.451v-20.5A4.405,4.405,0,0,0,314.721,157.429Z" transform="translate(-248.698 -135.773)"/>
      <path id="Trazado_877760" data-name="Trazado 877760" d="M127.676,88.588A1.322,1.322,0,0,0,129,87.266V82.517c0-.164-.007-.326-.016-.488h6.091a1.322,1.322,0,0,0,1.322-1.322V78.239a6.192,6.192,0,0,0-4.769-6.042l-2.352-.562v-.422a5.912,5.912,0,0,0,2.531-4.847V63.308a5.911,5.911,0,0,0-9.754-4.5,7.718,7.718,0,0,0-14.3.011,5.911,5.911,0,0,0-9.767,4.485v3.057a5.912,5.912,0,0,0,2.531,4.847v.422l-2.352.562a6.192,6.192,0,0,0-4.769,6.042v2.469a1.322,1.322,0,0,0,1.322,1.322h6.074c-.009.16-.016.321-.016.484v4.753a1.322,1.322,0,0,0,1.322,1.322h7.945a1.322,1.322,0,1,0,0-2.644h-1.366V83.212a1.322,1.322,0,1,0-2.644,0v2.732h-2.614V82.513a5.473,5.473,0,0,1,4.211-5.339l3.627-.869,2.428,5.523a1.322,1.322,0,0,0,1.21.79h0a1.322,1.322,0,0,0,1.21-.79l2.425-5.515,3.616.864a5.472,5.472,0,0,1,4.214,5.34v3.427H123.74V83.212a1.322,1.322,0,1,0-2.644,0v2.732h-1.5a1.322,1.322,0,0,0,0,2.644ZM110.7,72.551a6.2,6.2,0,0,0-1.058-.357l-2.361-.566v-.412a5.965,5.965,0,0,0,1.146-1.047,7.782,7.782,0,0,0,2.274,2.279Zm-10.072-6.186v-.63h1.845a12.279,12.279,0,0,0,4.7-.936v1.565a3.272,3.272,0,0,1-6.545,0Zm9.2-.386v-1.4h1.807a8.329,8.329,0,0,0,5.617-2.17l2.726,1.6v2.158a5.077,5.077,0,0,1-10.149-.193Zm9.256,6.576v-.089a7.779,7.779,0,0,0,2.293-2.285,5.963,5.963,0,0,0,1.136,1.036v.412l-2.361.566A6.22,6.22,0,0,0,119.08,72.555Zm3.537-6.19v-.193c0-.064,0-.128,0-.193V64.8a12.279,12.279,0,0,0,4.695.934h1.845v.63a3.272,3.272,0,1,1-6.545,0Zm3.272-6.33a3.277,3.277,0,0,1,3.265,3.056h-1.838a9.635,9.635,0,0,1-4.432-1.08A3.277,3.277,0,0,1,125.889,60.036Zm-16.065,1.685a5.077,5.077,0,0,1,10.09-.807l-2.225-1.307a1.322,1.322,0,0,0-1.683.291,5.7,5.7,0,0,1-4.376,2.042h-1.807v-.219ZM103.9,60.036a3.277,3.277,0,0,1,3,1.976,9.635,9.635,0,0,1-4.432,1.08h-1.838A3.277,3.277,0,0,1,103.9,60.036ZM107.008,74.6a8.107,8.107,0,0,0-5.617,4.782H96.034V78.238a3.557,3.557,0,0,1,2.739-3.471l3.366-.8a1.322,1.322,0,0,0,1.015-1.286v-.444a5.739,5.739,0,0,0,1.478,0v.377c0,.02,0,.039,0,.059a1.324,1.324,0,0,0,1.074,1.3l1.972.472Zm7.881,3.408-1.55-3.527v-.943a7.747,7.747,0,0,0,3.1.005v.947Zm7.865-3.406-.664-.158,1.982-.475a1.323,1.323,0,0,0,1.08-1.3c0-.01,0-.021,0-.031v-.406a5.738,5.738,0,0,0,1.478,0v.444a1.322,1.322,0,0,0,1.015,1.286l3.366.8a3.557,3.557,0,0,1,2.74,3.471v1.147h-5.376A8.1,8.1,0,0,0,122.754,74.606Z" transform="translate(-81.045 -46.862)"/>
      <path id="Trazado_877761" data-name="Trazado 877761" d="M247.322,295.67a1.32,1.32,0,1,0,.934.386A1.328,1.328,0,0,0,247.322,295.67Z" transform="translate(-213.482 -256.588)"/>
      <path id="Trazado_877762" data-name="Trazado 877762" d="M247.316,4.621A1.322,1.322,0,0,0,248.638,3.3V1.322a1.322,1.322,0,1,0-2.644,0V3.3A1.322,1.322,0,0,0,247.316,4.621Z" transform="translate(-213.477)"/>
      <path id="Trazado_877763" data-name="Trazado 877763" d="M193.374,22.855a1.322,1.322,0,1,0,1.868-1.87L193.855,19.6a1.322,1.322,0,1,0-1.868,1.87Z" transform="translate(-166.272 -16.673)"/>
      <path id="Trazado_877764" data-name="Trazado 877764" d="M291.068,23.49A1.317,1.317,0,0,0,292,23.1l1.376-1.377a1.322,1.322,0,0,0-1.87-1.868l-1.376,1.377a1.322,1.322,0,0,0,.935,2.256Z" transform="translate(-251.446 -16.896)"/>
    </g>
  </g>
</svg>
