<svg xmlns="http://www.w3.org/2000/svg" width="90.914" height="90.914" viewBox="0 0 90.914 90.914">
  <g id="Grupo_1106646" data-name="Grupo 1106646" transform="translate(4095 10036)">
    <g id="Grupo_1106093" data-name="Grupo 1106093" transform="translate(-4095 -10036)">
      <rect id="Rect치ngulo_400898" data-name="Rect치ngulo 400898" width="90.914" height="90.914" rx="45.457" transform="translate(0 0)" fill="#febdaf" opacity="0.859"/>
      <rect id="Rect치ngulo_400907" data-name="Rect치ngulo 400907" width="90.914" height="90.914" rx="45.457" transform="translate(0 0)" fill="none"/>
    </g>
    <g id="carro-de-la-carretilla" transform="translate(-4079 -10019)">
      <g id="Grupo_1106628" data-name="Grupo 1106628" transform="translate(12.825 0.844)">
        <path id="Trazado_877268" data-name="Trazado 877268" d="M149.007,41.448H114V8.625A1.125,1.125,0,0,1,115.126,7.5h33.881a1.125,1.125,0,0,1,1.125,1.125v31.7A1.125,1.125,0,0,1,149.007,41.448Z" transform="translate(-114.001 -7.5)" fill="#e2ae83"/>
      </g>
      <g id="Grupo_1106629" data-name="Grupo 1106629" transform="translate(12.825 0.844)">
        <path id="Trazado_877269" data-name="Trazado 877269" d="M118.254,7.5h-3.128A1.125,1.125,0,0,0,114,8.625V41.448h3.128V8.625A1.125,1.125,0,0,1,118.254,7.5Z" transform="translate(-114.001 -7.5)" fill="#d39c72"/>
      </g>
      <g id="Grupo_1106630" data-name="Grupo 1106630" transform="translate(27.106 0.844)">
        <path id="Trazado_877270" data-name="Trazado 877270" d="M247.607,17.324l-2.523-2a.563.563,0,0,0-.7,0l-2.523,2a.562.562,0,0,1-.912-.441V7.5h7.569v9.383a.562.562,0,0,1-.912.441Z" transform="translate(-240.95 -7.5)" fill="#dc4955"/>
      </g>
      <g id="Grupo_1106631" data-name="Grupo 1106631" transform="translate(18.197 15.388)">
        <path id="Trazado_877271" data-name="Trazado 877271" d="M164.188,146.776h2.074a.563.563,0,0,0,.562-.562V140.6H168.2a.562.562,0,0,0,.387-.971l-2.838-2.689a.563.563,0,0,0-.759-.013l-3.045,2.689a.563.563,0,0,0,.372.984h1.3v5.615A.562.562,0,0,0,164.188,146.776Z" transform="translate(-161.758 -136.785)" fill="#f1f6f7"/>
      </g>
      <g id="Grupo_1106632" data-name="Grupo 1106632" transform="translate(0.844 3.03)">
        <path id="Trazado_877272" data-name="Trazado 877272" d="M19.481,71.593V30.308a3.375,3.375,0,0,0-3.375-3.375H9.883a2.383,2.383,0,1,0,0,4.766H13.59a1.125,1.125,0,0,1,1.125,1.125V74.109a3.375,3.375,0,0,0,3.375,3.375H46.511a2.383,2.383,0,1,0,0-4.766H20.606a1.125,1.125,0,0,1-1.125-1.125Z" transform="translate(-7.5 -26.933)" fill="#f1f6f7"/>
      </g>
      <g id="Grupo_1106635" data-name="Grupo 1106635" transform="translate(0.844 3.03)">
        <g id="Grupo_1106633" data-name="Grupo 1106633">
          <path id="Trazado_877273" data-name="Trazado 877273" d="M9.6,29.316a2.383,2.383,0,0,1,2.383-2.383h-2.1a2.383,2.383,0,1,0,0,4.766h2.1A2.383,2.383,0,0,1,9.6,29.316Z" transform="translate(-7.5 -26.933)" fill="#d2e4e7"/>
        </g>
        <g id="Grupo_1106634" data-name="Grupo 1106634" transform="translate(6.09 4.766)">
          <path id="Trazado_877274" data-name="Trazado 877274" d="M64.86,111.709V70.424A1.125,1.125,0,0,0,63.735,69.3h-2.1a1.125,1.125,0,0,1,1.125,1.125v41.285a3.375,3.375,0,0,0,3.375,3.375h2.1A3.375,3.375,0,0,1,64.86,111.709Z" transform="translate(-61.636 -69.299)" fill="#d2e4e7"/>
        </g>
      </g>
      <g id="Grupo_1106638" data-name="Grupo 1106638" transform="translate(5.083 46.036)">
        <g id="Grupo_1106636" data-name="Grupo 1106636">
          <path id="Trazado_877275" data-name="Trazado 877275" d="M50.54,419.942a5.359,5.359,0,1,1,5.359-5.359A5.359,5.359,0,0,1,50.54,419.942Z" transform="translate(-45.181 -409.224)" fill="#495959"/>
        </g>
        <g id="Grupo_1106637" data-name="Grupo 1106637" transform="translate(3.293 3.293)">
          <path id="Trazado_877276" data-name="Trazado 877276" d="M76.523,438.5a2.066,2.066,0,1,0,2.066,2.066A2.066,2.066,0,0,0,76.523,438.5Z" transform="translate(-74.457 -438.5)" fill="#f1f6f7"/>
        </g>
      </g>
      <g id="Grupo_1106639" data-name="Grupo 1106639" transform="translate(31.518 9.605)">
        <path id="Trazado_877277" data-name="Trazado 877277" d="M302.8,92.221a4.845,4.845,0,0,1-3.426-1.419l-4.837-4.837a2,2,0,0,0-2.832,2.832l1.983,1.983h-9.741a1.9,1.9,0,0,0-1.913,1.8,1.865,1.865,0,0,0,1.864,1.929h-1.865a1.865,1.865,0,1,0,0,3.731H283.9a1.865,1.865,0,0,0,0,3.731h1.765A1.865,1.865,0,0,0,283.8,103.9a1.9,1.9,0,0,0,1.913,1.8h19.13a.563.563,0,0,0,.562-.562V92.784a.563.563,0,0,0-.562-.562Z" transform="translate(-280.168 -85.379)" fill="#ffcebf"/>
      </g>
      <g id="Grupo_1106642" data-name="Grupo 1106642" transform="translate(31.518 9.605)">
        <g id="Grupo_1106640" data-name="Grupo 1106640" transform="translate(10.951)">
          <path id="Trazado_877278" data-name="Trazado 877278" d="M380.083,90.782H382.6L380.622,88.8a2,2,0,0,1,.155-2.971A2,2,0,0,0,378.1,88.8Z" transform="translate(-377.513 -85.381)" fill="#ffb09e"/>
        </g>
        <g id="Grupo_1106641" data-name="Grupo 1106641" transform="translate(0 5.401)">
          <path id="Trazado_877279" data-name="Trazado 877279" d="M286.322,146.515a1.865,1.865,0,0,1,1.864-1.929h-1.765a1.865,1.865,0,0,1,0-3.731h-1.865a1.865,1.865,0,1,1,0-3.731h1.865a1.865,1.865,0,0,1-1.864-1.929,1.9,1.9,0,0,1,1.913-1.8h-2.522a1.9,1.9,0,0,0-1.913,1.8,1.865,1.865,0,0,0,1.864,1.929h-1.865a1.865,1.865,0,0,0,0,3.731H283.9a1.865,1.865,0,1,0,0,3.731h1.765a1.865,1.865,0,0,0-1.864,1.929,1.9,1.9,0,0,0,1.913,1.8h2.522A1.9,1.9,0,0,1,286.322,146.515Z" transform="translate(-280.168 -133.393)" fill="#ffb09e"/>
        </g>
      </g>
      <g id="Grupo_1106643" data-name="Grupo 1106643" transform="translate(20.098 37.869)">
        <path id="Trazado_877280" data-name="Trazado 877280" d="M181.644,344.34H184.2a.692.692,0,0,0,.692-.692v-2.332h1.7a.692.692,0,0,0,.476-1.194l-3.492-3.309a.692.692,0,0,0-.934-.016l-3.746,3.309a.692.692,0,0,0,.458,1.211h1.6v2.332A.692.692,0,0,0,181.644,344.34Z" transform="translate(-178.653 -336.623)" fill="#ffe17d"/>
      </g>
      <g id="Grupo_1106644" data-name="Grupo 1106644" transform="translate(33.057 37.869)">
        <path id="Trazado_877281" data-name="Trazado 877281" d="M296.843,344.34H299.4a.692.692,0,0,0,.692-.692v-2.332h1.7a.692.692,0,0,0,.476-1.194l-3.492-3.309a.692.692,0,0,0-.934-.016l-3.746,3.309a.692.692,0,0,0,.458,1.211h1.6v2.332A.692.692,0,0,0,296.843,344.34Z" transform="translate(-293.852 -336.623)" fill="#ffe17d"/>
      </g>
      <g id="Grupo_1106645" data-name="Grupo 1106645" transform="translate(0 0)">
        <path id="Trazado_877282" data-name="Trazado 877282" d="M146.054,249.426a.844.844,0,0,0,.844.844h8.781a.844.844,0,1,0,0-1.687H146.9A.844.844,0,0,0,146.054,249.426Z" transform="translate(-129.624 -220.618)"/>
        <path id="Trazado_877283" data-name="Trazado 877283" d="M157.527,140.945H159.6a1.408,1.408,0,0,0,1.406-1.406v-4.771h.536a1.406,1.406,0,0,0,.967-2.427l-2.838-2.689a1.4,1.4,0,0,0-1.9-.033l-3.045,2.689a1.406,1.406,0,0,0,.931,2.46h.461v4.771a1.408,1.408,0,0,0,1.406,1.406Zm1.171-9.892,2.139,2.027h-.674a.844.844,0,0,0-.844.844v5.334h-1.512v-5.334a.844.844,0,0,0-.844-.844H156.4Z" transform="translate(-136.9 -114.722)"/>
        <path id="Trazado_877284" data-name="Trazado 877284" d="M69.866,431a2.909,2.909,0,1,0,2.909,2.909A2.913,2.913,0,0,0,69.866,431Zm0,4.131a1.222,1.222,0,1,1,1.222-1.222A1.223,1.223,0,0,1,69.866,435.131Z" transform="translate(-59.425 -382.514)"/>
        <path id="Trazado_877285" data-name="Trazado 877285" d="M56.192,15.6H54.149a3.974,3.974,0,0,1-2.829-1.172L49.8,12.911V1.969A1.971,1.971,0,0,0,47.831,0h-4.97a.844.844,0,0,0,0,1.687h4.97a.281.281,0,0,1,.281.281v9.255L46.483,9.595a2.846,2.846,0,0,0-4.025,4.025l.543.543H35.3a2.756,2.756,0,0,0-2.756,2.617,2.7,2.7,0,0,0,.227,1.184,2.709,2.709,0,0,0,0,5.277,2.709,2.709,0,0,0,1.773,3.708,2.7,2.7,0,0,0-.237,1.207,2.756,2.756,0,0,0,2.756,2.617h11.05v2.893a.281.281,0,0,1-.281.281H13.668V1.969a.282.282,0,0,1,.281-.281H26.262v8.539a1.4,1.4,0,0,0,2.279,1.1l2.349-1.86,2.349,1.86h0a1.406,1.406,0,0,0,2.279-1.1V1.687h3.31a.844.844,0,1,0,0-1.687H13.95a1.971,1.971,0,0,0-1.969,1.969V3.032A4.2,4.2,0,0,0,9.45,2.186H3.227a3.227,3.227,0,1,0,0,6.453H6.934a.282.282,0,0,1,.281.281v9.533a.844.844,0,0,0,1.687,0V8.921A1.971,1.971,0,0,0,6.934,6.952H3.227a1.539,1.539,0,1,1,0-3.079H9.45A2.534,2.534,0,0,1,11.981,6.4V45.385a6.219,6.219,0,0,0-3.079,0V22.5a.844.844,0,0,0-1.687,0V46.1a6.2,6.2,0,1,0,8.636,8.325h24a3.227,3.227,0,0,0,0-6.453H32.976a.844.844,0,1,0,0,1.687h6.879a1.539,1.539,0,0,1,0,3.079H16.5a6.171,6.171,0,0,0-.1-3.079H28.8a.844.844,0,0,0,0-1.687H15.611A6.252,6.252,0,0,0,13.668,46.1V35.635H47.831A1.971,1.971,0,0,0,49.8,33.666V30.773h6.392A1.408,1.408,0,0,0,57.6,29.367V17.01A1.408,1.408,0,0,0,56.192,15.6ZM33.831,9.645,31.763,8.008a1.4,1.4,0,0,0-1.746,0L27.95,9.645V1.687h5.881ZM14.957,51.395a4.515,4.515,0,1,1-4.515-4.515A4.52,4.52,0,0,1,14.957,51.395ZM55.91,29.085H37.062a1.056,1.056,0,0,1-1.07-.986,1.022,1.022,0,0,1,1.021-1.057h4.21a.844.844,0,0,0,0-1.687H35.248a1.022,1.022,0,1,1,0-2.043h5.974a.844.844,0,1,0,0-1.687h-7.84a1.022,1.022,0,1,1,0-2.043h7.84a.844.844,0,0,0,0-1.687H35.248a1.022,1.022,0,0,1-1.021-1.058,1.056,1.056,0,0,1,1.07-.986h9.741a.844.844,0,0,0,.6-1.44l-1.983-1.983a1.159,1.159,0,1,1,1.638-1.638l4.837,4.837a5.652,5.652,0,0,0,4.022,1.666H55.91Z" transform="translate(0 0)"/>
        <path id="Trazado_877286" data-name="Trazado 877286" d="M174.984,338.5h2.552a1.537,1.537,0,0,0,1.536-1.536V335.48h.854a1.536,1.536,0,0,0,1.056-2.651l-3.492-3.309a1.528,1.528,0,0,0-2.073-.036l-3.746,3.309a1.536,1.536,0,0,0,1.017,2.687h.761v1.488A1.537,1.537,0,0,0,174.984,338.5Zm-1.9-4.712,3.342-2.952,3.115,2.952h-1.317a.844.844,0,0,0-.844.844v2.181h-2.249v-2.181a.844.844,0,0,0-.844-.844Z" transform="translate(-151.895 -292.075)"/>
        <path id="Trazado_877287" data-name="Trazado 877287" d="M296.55,334.513a1.528,1.528,0,0,0-.37-1.684l-3.492-3.309a1.528,1.528,0,0,0-2.073-.036l-3.746,3.309a1.536,1.536,0,0,0,1.017,2.687h.761v1.488a1.537,1.537,0,0,0,1.536,1.536h2.552a1.538,1.538,0,0,0,1.536-1.536V335.48h.854A1.528,1.528,0,0,0,296.55,334.513Zm-3.124-.72a.844.844,0,0,0-.844.844v2.181h-2.249v-2.181a.844.844,0,0,0-.844-.844h-1.2l3.342-2.952,3.115,2.952Z" transform="translate(-254.134 -292.075)"/>
      </g>
    </g>
  </g>
</svg>
