<svg xmlns="http://www.w3.org/2000/svg" width="90.914" height="90.914" viewBox="0 0 90.914 90.914">
  <g id="Grupo_1106648" data-name="Grupo 1106648" transform="translate(5056 9563)">
    <g id="Grupo_1106095" data-name="Grupo 1106095" transform="translate(-5056 -9563)">
      <rect id="Rect치ngulo_400898" data-name="Rect치ngulo 400898" width="90.914" height="90.914" rx="45.457" transform="translate(0 0)" fill="#febdaf" opacity="0.859"/>
      <rect id="Rect치ngulo_400907" data-name="Rect치ngulo 400907" width="90.914" height="90.914" rx="45.457" transform="translate(0 0)" fill="none"/>
    </g>
    <g id="Page-1" transform="translate(-5041 -9548)">
      <g id="_002---Pen-and-Paper" data-name="002---Pen-and-Paper">
        <path id="Shape" d="M44,3V57a2.006,2.006,0,0,1-2,2H3a2.006,2.006,0,0,1-2-2V15.83a1.989,1.989,0,0,1,.34-1.11L2,15H12a3,3,0,0,0,3-3V2l-.59-.41A2.006,2.006,0,0,1,15.83,1H42a2.006,2.006,0,0,1,2,2Z" fill="#f5f5f5"/>
        <path id="Shape-2" data-name="Shape" d="M42,1H39a2.006,2.006,0,0,1,2,2V57a2.006,2.006,0,0,1-2,2h3a2.006,2.006,0,0,0,2-2V3A2.006,2.006,0,0,0,42,1Z" fill="#cfd8dc"/>
        <path id="Shape-3" data-name="Shape" d="M15,2V12a3,3,0,0,1-3,3H2l-.66-.28a1.885,1.885,0,0,1,.25-.31L14.41,1.59Z" fill="#cfd8dc"/>
        <path id="Shape-4" data-name="Shape" d="M57.71,26.82l-5.76,3.99-5.69-8.23,5.76-3.98a3,3,0,0,1,4.17.76l2.28,3.29a3,3,0,0,1-.76,4.17Z" fill="#e91e63"/>
        <path id="Shape-5" data-name="Shape" d="M58.47,22.65l-2.28-3.29a2.991,2.991,0,0,0-3.959-.876,2.949,2.949,0,0,1,.959.876l2.28,3.29a3,3,0,0,1-.76,4.17l-3.731,2.585.971,1.4,5.76-3.99a3,3,0,0,0,.76-4.165Z" fill="#ad1457"/>
        <path id="Shape-6" data-name="Shape" d="M47.84,33.65,28.25,47.19a1.008,1.008,0,0,1-.23.12l-.09-.25-5.35-7.74-.28-.09a1.07,1.07,0,0,1,.26-.26L42.15,25.42Z" fill="#f44335"/>
        <path id="Shape-7" data-name="Shape" d="M42.15,25.42l-2.029,1.4,4.719,6.83L27.124,45.894l.806,1.166.09.25a1.008,1.008,0,0,0,.23-.12L47.84,33.65Z" fill="#c81e1e"/>
        <path id="Rectangle-path" d="M44.551,23.113h5v10h-5Z" transform="translate(-7.641 31.731) rotate(-34.612)" fill="#ffdc00"/>
        <path id="Shape-8" data-name="Shape" d="M46.26,22.58l-2.03,1.4,4.72,6.827-2.08,1.437.97,1.4,4.11-2.84Z" fill="#fec108"/>
        <path id="Shape-9" data-name="Shape" d="M28.02,47.31c-.03.01-.06.02-.1.03l-6.14,1.49-.05-.19-2.82-4.07-.17-.12,3.56-5.22.28.09,5.35,7.74Z" fill="#ffe0b2"/>
        <path id="Shape-10" data-name="Shape" d="M27.93,47.06l-5.35-7.74-.28-.09-1.382,2.026,4.012,5.8.09.25c-.03.01-.06.02-.1.03l-3.5.85.312.45.05.19,6.14-1.49c.04-.01.07-.02.1-.03Z" fill="#dfc49c"/>
        <path id="Shape-11" data-name="Shape" d="M21.78,48.83l-4.69,1.14a1,1,0,0,1-1.06-1.54l2.71-3.98.17.12,2.82,4.07Z" fill="#545c60"/>
        <g id="Grupo_1106647" data-name="Grupo 1106647">
          <path id="Shape-12" data-name="Shape" d="M3,60H42a3,3,0,0,0,3-3V41a1,1,0,0,0-2,0V57a1,1,0,0,1-1,1H3a1,1,0,0,1-1-1V16H12a4,4,0,0,0,4-4V2H42a1,1,0,0,1,1,1V19a1,1,0,0,0,2,0V3a3,3,0,0,0-3-3H15.829a2.978,2.978,0,0,0-2.122.879L.879,13.707A2.978,2.978,0,0,0,0,15.829V57a3,3,0,0,0,3,3ZM14,3.414V12a2,2,0,0,1-2,2H3.414Z"/>
          <path id="Shape-13" data-name="Shape" d="M6,21a1,1,0,0,0,1,1H38a1,1,0,0,0,0-2H7A1,1,0,0,0,6,21Z"/>
          <path id="Shape-14" data-name="Shape" d="M7,27H30.77a1,1,0,1,0,0-2H7a1,1,0,0,0,0,2Z"/>
          <path id="Shape-15" data-name="Shape" d="M7,32H23.53a1,1,0,0,0,0-2H7a1,1,0,0,0,0,2Z"/>
          <path id="Shape-16" data-name="Shape" d="M7,41h7.52a1,1,0,1,0,0-2H7a1,1,0,0,0,0,2Z"/>
          <path id="Shape-17" data-name="Shape" d="M7,46h4.11a1,1,0,1,0,0-2H7a1,1,0,0,0,0,2Z"/>
          <path id="Shape-18" data-name="Shape" d="M41.58,24.6,21.994,38.147a2,2,0,0,0-.515.519L15.2,47.872A2,2,0,0,0,14.85,49H7a1,1,0,0,0,0,2h9.845a2.024,2.024,0,0,0,.479-.058L28.15,48.316a1.976,1.976,0,0,0,.669-.3L48.4,34.472l4.112-2.844,5.757-3.981a4,4,0,0,0,1.015-5.565l-2.276-3.29a4,4,0,0,0-5.565-1.015l-5.757,3.982Zm4.427-.63,4.551,6.58L48.09,32.258l-4.55-6.58Zm.438,9.424L28.351,45.909,23.8,39.33,41.9,26.816ZM22.415,40.84l4.032,5.83-4.166,1.01L20,44.383Zm-3.622,5.311L20.2,48.187,16.852,49Zm33.794-26.73a2,2,0,0,1,2.783.508l2.275,3.29A2,2,0,0,1,57.137,26L52.2,29.414l-4.551-6.58Z"/>
          <path id="Shape-19" data-name="Shape" d="M38,49v4H34a1,1,0,0,0,0,2h5a1,1,0,0,0,1-1V49a1,1,0,0,0-2,0Z"/>
          <path id="Shape-20" data-name="Shape" d="M39,5H31a1,1,0,0,0,0,2h8a1,1,0,0,0,0-2Z"/>
          <path id="Shape-21" data-name="Shape" d="M39,9H34a1,1,0,0,0,0,2h5a1,1,0,0,0,0-2Z"/>
        </g>
      </g>
    </g>
  </g>
</svg>
