<svg xmlns="http://www.w3.org/2000/svg" width="64" height="64" viewBox="0 0 64 64">
  <g id="Grupo_1106785" data-name="Grupo 1106785" transform="translate(-291.051 -2267)">
    <g id="chat" transform="translate(295.051 2271)">
      <path id="Trazado_877782" data-name="Trazado 877782" d="M270.144,36.137c-7.281,0-13.183,3.849-13.183,11.274a13.185,13.185,0,1,0,26.364,0C283.325,39.986,277.424,36.137,270.144,36.137Zm0,0" transform="translate(-229.089 -32.217)" fill="#fbc4ac"/>
      <path id="Trazado_877783" data-name="Trazado 877783" d="M259.568,29.58A13.347,13.347,0,0,1,271.448,16.2q-.642-.064-1.3-.065a13.446,13.446,0,0,0,0,26.886q.658,0,1.3-.065A13.346,13.346,0,0,1,259.568,29.58Zm0,0" transform="translate(-229.093 -14.387)" fill="#e3b098"/>
      <path id="Trazado_877784" data-name="Trazado 877784" d="M429.874,171.2h-1.861a.813.813,0,0,1,0-1.627h1.861a.813.813,0,1,1,0,1.627Zm0,0" transform="translate(-380.863 -151.181)" fill="#f98084"/>
      <path id="Trazado_877785" data-name="Trazado 877785" d="M300.307,171.2h-1.861a.813.813,0,0,1,0-1.627h1.861a.813.813,0,0,1,0,1.627Zm0,0" transform="translate(-265.35 -151.181)" fill="#f98084"/>
      <path id="Trazado_877786" data-name="Trazado 877786" d="M282.694,17.765c-.905-11.021-5.349-9.324-12.551-9.324-5.444,0-8.059-.545-9.173-.892a.954.954,0,0,0-1.137.477,30.882,30.882,0,0,0-2.873,13.858s3.153-5.678,13.182-5.678C274.809,16.206,274.419,17.765,282.694,17.765Zm0,0" transform="translate(-229.089 -6.691)" fill="#c86d5c"/>
      <path id="Trazado_877787" data-name="Trazado 877787" d="M262.437,8.026a.963.963,0,0,1,.07-.114,13.164,13.164,0,0,1-1.536-.363.954.954,0,0,0-1.137.477,30.882,30.882,0,0,0-2.873,13.858,9.553,9.553,0,0,1,2.7-2.745A29.24,29.24,0,0,1,262.437,8.026Zm0,0" transform="translate(-229.089 -6.691)" fill="#ad4f3d"/>
      <path id="Trazado_877788" data-name="Trazado 877788" d="M7.59,375.762v8.666a4.237,4.237,0,0,0,3.769,4.212l6.229.693Zm0,0" transform="translate(-6.767 -335.005)" fill="#3a484a"/>
      <path id="Trazado_877789" data-name="Trazado 877789" d="M168.3,375.762v8.666a4.238,4.238,0,0,1-3.769,4.212l-6.229.693Zm0,0" transform="translate(-141.127 -335.005)" fill="#3a484a"/>
      <path id="Trazado_877790" data-name="Trazado 877790" d="M33.855,292.107h0L20.389,281.93,7.511,292.109h0c-.006.173-.01.346-.01.52a13.314,13.314,0,0,0,13.182,13.443,13.314,13.314,0,0,0,13.182-13.443C33.864,292.453,33.861,292.281,33.855,292.107Zm0,0" transform="translate(-6.687 -251.35)" fill="#fbc4ac"/>
      <path id="Trazado_877791" data-name="Trazado 877791" d="M9.69,371.813a13.694,13.694,0,0,1-2.179.43h0c-.006.173-.01.346-.01.52A13.314,13.314,0,0,0,20.682,386.2c.376,0,.748-.017,1.116-.049C15.252,385.558,10.053,379.431,9.69,371.813Zm0,0" transform="translate(-6.687 -331.484)" fill="#e3b098"/>
      <path id="Trazado_877792" data-name="Trazado 877792" d="M50.846,411.686H48.985a.814.814,0,0,1,0-1.627h1.861a.814.814,0,0,1,0,1.627Zm0,0" transform="translate(-42.947 -365.581)" fill="#f98084"/>
      <path id="Trazado_877793" data-name="Trazado 877793" d="M180.413,411.686h-1.861a.814.814,0,0,1,0-1.627h1.861a.814.814,0,0,1,0,1.627Zm0,0" transform="translate(-158.46 -365.581)" fill="#f98084"/>
      <path id="Trazado_877794" data-name="Trazado 877794" d="M7.59,269.547h0c7.074-.783,13.171-7.616,13.171-7.616s6.1,6.833,13.171,7.616h0a13.3,13.3,0,0,0-13.173-12.922A13.3,13.3,0,0,0,7.59,269.547Zm0,0" transform="translate(-6.767 -228.79)" fill="#3a484a"/>
      <path id="Trazado_877795" data-name="Trazado 877795" d="M21.9,256.675c-.375-.033-.755-.05-1.139-.05A13.3,13.3,0,0,0,7.59,269.547h0a12.3,12.3,0,0,0,2.179-.43A13.469,13.469,0,0,1,21.9,256.675Zm0,0" transform="translate(-6.767 -228.79)" fill="#323e40"/>
      <path id="Trazado_877796" data-name="Trazado 877796" d="M28.846,66.452V58.326A5.256,5.256,0,0,0,23.59,53.07H12.756A5.256,5.256,0,0,0,7.5,58.326v7.426a5.256,5.256,0,0,0,5.256,5.256H31.363Zm0,0" transform="translate(-6.687 -47.314)" fill="#58b78c"/>
      <path id="Trazado_877797" data-name="Trazado 877797" d="M282.537,311.257v-8.126a5.256,5.256,0,0,1,5.256-5.256h10.833a5.256,5.256,0,0,1,5.256,5.256v7.426a5.256,5.256,0,0,1-5.256,5.256H280.02Zm0,0" transform="translate(-249.647 -265.566)" fill="#f2c42c"/>
      <path id="Trazado_877798" data-name="Trazado 877798" d="M436.591,141.462a.813.813,0,0,0,.813-.813v-1.366a.813.813,0,1,0-1.627,0v1.366A.813.813,0,0,0,436.591,141.462Zm0,0" transform="translate(-388.51 -123.45)"/>
      <path id="Trazado_877799" data-name="Trazado 877799" d="M307.021,141.462a.813.813,0,0,0,.813-.813v-1.366a.813.813,0,1,0-1.627,0v1.366A.813.813,0,0,0,307.021,141.462Zm0,0" transform="translate(-272.994 -123.45)"/>
      <path id="Trazado_877800" data-name="Trazado 877800" d="M363.269,163.942a.814.814,0,0,0-1.148.077.886.886,0,0,1-1.288,0,.814.814,0,0,0-1.225,1.071,2.512,2.512,0,0,0,3.739,0A.814.814,0,0,0,363.269,163.942Zm0,0" transform="translate(-320.423 -145.981)"/>
      <path id="Trazado_877801" data-name="Trazado 877801" d="M57.563,381.943a.814.814,0,0,0,.813-.813v-1.366a.813.813,0,1,0-1.627,0v1.366A.813.813,0,0,0,57.563,381.943Zm0,0" transform="translate(-50.595 -337.846)"/>
      <path id="Trazado_877802" data-name="Trazado 877802" d="M187.13,381.943a.814.814,0,0,0,.813-.813v-1.366a.813.813,0,1,0-1.627,0v1.366A.814.814,0,0,0,187.13,381.943Zm0,0" transform="translate(-166.107 -337.846)"/>
      <path id="Trazado_877803" data-name="Trazado 877803" d="M111.372,404.5a.814.814,0,1,0-1.225,1.071,2.512,2.512,0,0,0,3.739,0,.813.813,0,1,0-1.225-1.071.886.886,0,0,1-1.288,0Zm0,0" transform="translate(-98.02 -360.38)"/>
      <path id="Trazado_877804" data-name="Trazado 877804" d="M6.069,65.139H24.676a.822.822,0,0,0,.712-1.207L22.973,59.56V51.644A6.076,6.076,0,0,0,16.9,45.574H6.069A6.076,6.076,0,0,0,0,51.644v7.426A6.077,6.077,0,0,0,6.069,65.139Zm-4.442-13.5A4.447,4.447,0,0,1,6.069,47.2H16.9a4.447,4.447,0,0,1,4.442,4.442v8.126a.81.81,0,0,0,.1.394l1.85,3.349H6.069a4.448,4.448,0,0,1-4.442-4.443Zm0,0" transform="translate(0 -40.631)"/>
      <path id="Trazado_877805" data-name="Trazado 877805" d="M46.9,95.658H58.251a.813.813,0,0,0,0-1.627H46.9a.813.813,0,0,0,0,1.627Zm0,0" transform="translate(-41.091 -83.832)"/>
      <path id="Trazado_877806" data-name="Trazado 877806" d="M46.9,129.889H58.251a.813.813,0,1,0,0-1.627H46.9a.813.813,0,1,0,0,1.627Zm0,0" transform="translate(-41.091 -114.35)"/>
      <path id="Trazado_877807" data-name="Trazado 877807" d="M46.9,164.119H53.98a.813.813,0,1,0,0-1.627H46.9a.813.813,0,1,0,0,1.627Zm0,0" transform="translate(-41.091 -144.867)"/>
      <path id="Trazado_877808" data-name="Trazado 877808" d="M273.357,309.94h18.607a6.076,6.076,0,0,0,6.069-6.069v-7.426a6.076,6.076,0,0,0-6.069-6.069H281.13a6.077,6.077,0,0,0-6.069,6.069v7.916l-2.415,4.372A.822.822,0,0,0,273.357,309.94Zm3.229-4.975a.815.815,0,0,0,.1-.394v-8.126A4.447,4.447,0,0,1,281.13,292h10.834a4.447,4.447,0,0,1,4.442,4.442v7.426a4.448,4.448,0,0,1-4.442,4.442H274.736Zm0,0" transform="translate(-242.985 -258.879)"/>
      <path id="Trazado_877809" data-name="Trazado 877809" d="M342.63,340.463h11.347a.813.813,0,1,0,0-1.627H342.63a.813.813,0,1,0,0,1.627Zm0,0" transform="translate(-304.741 -302.084)"/>
      <path id="Trazado_877810" data-name="Trazado 877810" d="M354.791,373.876a.813.813,0,0,0-.814-.813H342.63a.813.813,0,1,0,0,1.627h11.347A.813.813,0,0,0,354.791,373.876Zm0,0" transform="translate(-304.741 -332.598)"/>
      <path id="Trazado_877811" data-name="Trazado 877811" d="M389.895,408.106a.813.813,0,0,0-.814-.813H382a.813.813,0,1,0,0,1.627h7.076A.813.813,0,0,0,389.895,408.106Zm0,0" transform="translate(-339.845 -363.116)"/>
      <path id="Trazado_877812" data-name="Trazado 877812" d="M263.457,29.45a14.144,14.144,0,0,0,14-14.256,14.5,14.5,0,0,0-.641-4.268c-.4-4.764-1.483-7.51-3.505-8.9C271.4.721,268.886.8,265.978.887c-.808.025-1.642.05-2.521.05-5.384,0-7.906-.536-8.93-.856a1.765,1.765,0,0,0-2.1.885,24.693,24.693,0,0,0-1.782,4.787.813.813,0,0,0,1.571.421,23.066,23.066,0,0,1,1.66-4.47.139.139,0,0,1,.169-.07c1.359.424,4.1.929,9.415.929.9,0,1.752-.026,2.571-.051,2.731-.084,4.888-.15,6.358.858s2.332,3.2,2.727,6.882a33.68,33.68,0,0,1-3.668-.214,25.953,25.953,0,0,1-3.483-.7,15.145,15.145,0,0,0-4.506-.642,23.092,23.092,0,0,0-5.576.649,16.44,16.44,0,0,0-4.454,1.816,13.241,13.241,0,0,0-2.243,1.683l-.028.026a35.719,35.719,0,0,1,.4-3.617A.813.813,0,0,0,249.947,9a38.726,38.726,0,0,0-.486,6.2A14.144,14.144,0,0,0,263.457,29.45Zm0-1.627a12.51,12.51,0,0,1-12.367-12.4c0-.008.018-.026.022-.033a9.911,9.911,0,0,1,2.965-2.7,17.738,17.738,0,0,1,11.036-2.277c1.823.2,3.563.872,5.379,1.14a35.41,35.41,0,0,0,4.764.33l.139,0a12.9,12.9,0,0,1,.43,3.309A12.516,12.516,0,0,1,263.457,27.823Zm0,0" transform="translate(-222.403 0)"/>
      <path id="Trazado_877813" data-name="Trazado 877813" d="M.015,271.527a5.046,5.046,0,0,0,4.493,5.02l6.187.688a13.766,13.766,0,0,0,6.613,0l6.187-.688a5.046,5.046,0,0,0,4.493-5.02v-7.645c0-.351.012-.7,0-1.052a14.3,14.3,0,0,0-4.263-9.7,13.828,13.828,0,0,0-20.828,1.579.813.813,0,0,0,1.3.98,12.2,12.2,0,0,1,18.388-1.4,12.658,12.658,0,0,1,3.7,7.618q-.3-.058-.6-.13a19.751,19.751,0,0,1-6.572-3.165l-.006,0a31.038,31.038,0,0,1-3.564-2.946c-.263-.253-.521-.51-.772-.774a1.3,1.3,0,0,0-.522-.412.8.8,0,0,0-.507,0,1.625,1.625,0,0,0-.595.489c-.5.52-1.02,1.016-1.558,1.493a30.93,30.93,0,0,1-2.73,2.17A18.923,18.923,0,0,1,1.716,261.9a12.711,12.711,0,0,1,.95-3.584.814.814,0,1,0-1.5-.641,14.375,14.375,0,0,0-1.155,5.152c-.013.35-.012.7,0,1.051ZM6,275.076l-1.316-.146a3.421,3.421,0,0,1-3.046-3.4v-1.445a14.4,14.4,0,0,0,1.533,2.334,14.133,14.133,0,0,0,2.634,2.517C5.848,274.963,5.978,275.059,6,275.076Zm20.356-3.549a3.421,3.421,0,0,1-3.046,3.4L22,275.076l.2-.145a14.121,14.121,0,0,0,2.631-2.515,14.388,14.388,0,0,0,1.533-2.334ZM14.171,256.6a26.662,26.662,0,0,0,9.062,6.111,16.081,16.081,0,0,0,3.135.865c0,.087,0,.174-.007.261a.057.057,0,0,1,0,.008,12.76,12.76,0,0,1-4.492,9.277l-.012.01a12.145,12.145,0,0,1-15.723-.011,12.761,12.761,0,0,1-4.491-9.276.047.047,0,0,1,0-.008c0-.087-.006-.174-.007-.261.075-.012.149-.028.223-.041a17.1,17.1,0,0,0,2.28-.6,21.894,21.894,0,0,0,5.59-2.915l0,0A30.644,30.644,0,0,0,14,256.427Zm0,0" transform="translate(-0.005 -222.104)"/>
    </g>
    <rect id="Rectángulo_403530" data-name="Rectángulo 403530" width="64" height="64" transform="translate(291.051 2267)" fill="none"/>
  </g>
</svg>
