<svg xmlns="http://www.w3.org/2000/svg" width="90.914" height="90.914" viewBox="0 0 90.914 90.914">
  <g id="Grupo_1106654" data-name="Grupo 1106654" transform="translate(4746 9575)">
    <g id="Grupo_1106096" data-name="Grupo 1106096" transform="translate(-4746 -9575)">
      <rect id="Rect치ngulo_400898" data-name="Rect치ngulo 400898" width="90.914" height="90.914" rx="45.457" transform="translate(0 0)" fill="#febdaf" opacity="0.859"/>
      <rect id="Rect치ngulo_400907" data-name="Rect치ngulo 400907" width="90.914" height="90.914" rx="45.457" transform="translate(0 0)" fill="none"/>
    </g>
    <g id="declaracion" transform="translate(-4728 -9557)">
      <g id="Grupo_1106652" data-name="Grupo 1106652" transform="translate(0.798 0.798)">
        <path id="Trazado_877295" data-name="Trazado 877295" d="M148.285,88.981H119.543a1.42,1.42,0,0,1-1.42-1.42V40.95a1.42,1.42,0,0,1,1.42-1.42h28.742a1.42,1.42,0,0,1,1.42,1.42V87.561A1.42,1.42,0,0,1,148.285,88.981Z" transform="translate(-106.358 -36.124)" fill="#f4f8f9"/>
        <path id="Trazado_877296" data-name="Trazado 877296" d="M380.12,39.53h-2.571a1.42,1.42,0,0,1,1.42,1.42V87.561a1.42,1.42,0,0,1-1.42,1.42h2.571a1.42,1.42,0,0,0,1.42-1.42V40.95A1.42,1.42,0,0,0,380.12,39.53Z" transform="translate(-338.193 -36.123)" fill="#e7eef3"/>
        <path id="Trazado_877297" data-name="Trazado 877297" d="M224.1,83.188h-9.2a1,1,0,0,1-1-1V80.576a1,1,0,0,1,1-1h9.2a1,1,0,0,1,1,1v1.608A1,1,0,0,1,224.1,83.188Z" transform="translate(-191.946 -71.908)" fill="#ff7bba"/>
        <path id="Trazado_877298" data-name="Trazado 877298" d="M292.55,79.573h-2.061a1,1,0,0,1,1,1v1.608a1,1,0,0,1-1,1h2.061a1,1,0,0,0,1-1V80.576A1,1,0,0,0,292.55,79.573Z" transform="translate(-260.392 -71.908)" fill="#ff5cab"/>
        <path id="Trazado_877299" data-name="Trazado 877299" d="M18.747,308.662l2.13-.185,5.326-1.648,2.646-1.947,1.132-3.762-.1-4.378-.716-2.979-2.979-1.9-2.157-1.377L19.265,289.3l-5.808,1.442a6.658,6.658,0,0,0-1.821.752l-2.107,1.264A4.179,4.179,0,0,0,7.5,296.345v5.627a4.974,4.974,0,0,0,2.724,4.426,20.345,20.345,0,0,0,7.832,2.283Z" transform="translate(-7.5 -259.332)" fill="#a2dbff"/>
        <path id="Trazado_877300" data-name="Trazado 877300" d="M117.282,292.76l-2.107-1.264a6.657,6.657,0,0,0-1.821-.752l-5.808-1.442-1.258.312,5.517,1.37,2.961,1.776a4.18,4.18,0,0,1,2.029,3.584v5.648a4.972,4.972,0,0,1-2.7,4.414,19.9,19.9,0,0,1-7.756,2.272,19.132,19.132,0,0,0,10.293-2.283,4.96,4.96,0,0,0,2.681-4.4v-5.648a4.18,4.18,0,0,0-2.03-3.584Z" transform="translate(-95.782 -259.331)" fill="#64caff"/>
        <path id="Trazado_877301" data-name="Trazado 877301" d="M98,312.455,96.7,295.612,96.57,293.7H93.993l-.127,1.943-1.3,16.794A17.738,17.738,0,0,0,98,312.455Z" transform="translate(-83.517 -263.264)" fill="#ff7bba"/>
        <path id="Trazado_877302" data-name="Trazado 877302" d="M100.4,242.348h3.77v4.994H100.4Z" transform="translate(-90.516 -217.371)" fill="#ffcfc0"/>
        <path id="Trazado_877303" data-name="Trazado 877303" d="M48.239,98.651l1.013-2.1-.291-2.475-1-2.193-1.951-.821s-1.974-.044-2.04,0a14.6,14.6,0,0,1-1.042-1.552l-2.04-2.284-2.173.2-3.149.843L34.1,89.287l-.535.6-.473.563c-.107.193-.208.39-.3.594l-.041.092a5.314,5.314,0,0,0,1.508,6.243l1.994,1.633,10.358.927,1.1-.785c.142-.1.276-.21.406-.323Z" transform="translate(-29.668 -78.743)" fill="#5844a0"/>
        <path id="Trazado_877304" data-name="Trazado 877304" d="M56.347,86.585l-.407-1.478a2.24,2.24,0,0,0-2.726-1.573A2.24,2.24,0,0,1,50.532,82.1l-.129-.373a3.086,3.086,0,0,0-2.409-2.045,8.9,8.9,0,0,0-1.381-.11A7.89,7.89,0,0,0,39.7,83.62a7.888,7.888,0,0,1,5.6-2.313,8.9,8.9,0,0,1,1.381.11,3.086,3.086,0,0,1,2.409,2.045l.129.373a2.24,2.24,0,0,0,2.682,1.433,2.24,2.24,0,0,1,2.726,1.573l.407,1.478A5.319,5.319,0,0,1,54.72,92,5.323,5.323,0,0,0,56.347,86.585Z" transform="translate(-36.275 -71.908)" fill="#483887"/>
        <path id="Trazado_877305" data-name="Trazado 877305" d="M74.6,163.369a5.179,5.179,0,0,1-5.179-5.179v-4.537a.641.641,0,0,1,.654-.642,8.878,8.878,0,0,0,5.293-1.275.636.636,0,0,1,.853.119,3.815,3.815,0,0,0,2.934,1.128.644.644,0,0,1,.624.641v4.566A5.179,5.179,0,0,1,74.6,163.369Z" transform="translate(-62.838 -136.296)" fill="#ffe0cf"/>
        <path id="Trazado_877306" data-name="Trazado 877306" d="M79.158,152.982a3.815,3.815,0,0,1-2.934-1.128.636.636,0,0,0-.853-.119,8.879,8.879,0,0,1-5.293,1.275.641.641,0,0,0-.654.642v1.992a.641.641,0,0,1,.654-.642,8.878,8.878,0,0,0,5.293-1.275.636.636,0,0,1,.853.119,3.815,3.815,0,0,0,2.934,1.128.644.644,0,0,1,.624.641v-1.992A.644.644,0,0,0,79.158,152.982Z" transform="translate(-62.838 -136.295)" fill="#ffcfc0"/>
        <path id="Trazado_877307" data-name="Trazado 877307" d="M56.1,279.85l-1.517,1.881a1.824,1.824,0,0,1-2.133.533L49,280.8a.466.466,0,0,1-.071-.82l1.06-.685a3.559,3.559,0,0,1,2.982-.411Z" transform="translate(-44.334 -249.879)" fill="#e7eef3"/>
        <path id="Trazado_877308" data-name="Trazado 877308" d="M118.118,279.85l1.517,1.881a1.824,1.824,0,0,0,2.133.533l3.447-1.465a.466.466,0,0,0,.071-.82l-1.06-.685a3.559,3.559,0,0,0-2.982-.411Z" transform="translate(-106.353 -249.879)" fill="#e7eef3"/>
        <path id="Trazado_877309" data-name="Trazado 877309" d="M358.741,8.051v3.023a.551.551,0,0,1-.276.477L356,12.972a.551.551,0,0,0,0,.954l2.461,1.421a.551.551,0,0,1,.276.477v3.023a.551.551,0,0,0,.551.551H371a.551.551,0,0,0,.551-.551V8.051A.551.551,0,0,0,371,7.5H359.292a.551.551,0,0,0-.551.551Z" transform="translate(-318.693 -7.5)" fill="#9ff497"/>
        <path id="Trazado_877310" data-name="Trazado 877310" d="M482.341,7.5H480.32a.551.551,0,0,1,.551.551v10.8a.551.551,0,0,1-.551.551h2.021a.551.551,0,0,0,.551-.551V8.051A.551.551,0,0,0,482.341,7.5Z" transform="translate(-430.034 -7.5)" fill="#6ce79a"/>
        <path id="Trazado_877311" data-name="Trazado 877311" d="M420.353,237.57h-5.281V215.793a.608.608,0,0,1,.608-.608h4.065a.608.608,0,0,1,.608.608Z" transform="translate(-371.725 -193.097)" fill="#5844a0"/>
        <g id="Grupo_1106651" data-name="Grupo 1106651" transform="translate(43.347 18.526)">
          <path id="Trazado_877312" data-name="Trazado 877312" d="M420.353,425.661h-5.281l1.8,3.11a.973.973,0,0,0,1.685,0Z" transform="translate(-415.072 -399.715)" fill="#7361ba"/>
          <path id="Trazado_877313" data-name="Trazado 877313" d="M428.444,185.258h-3.1v-2.014a1.548,1.548,0,0,1,3.1,0Z" transform="translate(-424.256 -181.697)" fill="#7361ba"/>
        </g>
      </g>
      <g id="Grupo_1106653" data-name="Grupo 1106653" transform="translate(0 0)">
        <path id="Trazado_877314" data-name="Trazado 877314" d="M208.2,72.072a1.8,1.8,0,0,0-1.8,1.8v1.608a1.8,1.8,0,0,0,1.8,1.8h9.2a1.8,1.8,0,0,0,1.8-1.8V73.873a1.8,1.8,0,0,0-1.8-1.8Zm9.409,1.8v1.608a.206.206,0,0,1-.206.206h-9.2a.206.206,0,0,1-.206-.206V73.873a.206.206,0,0,1,.206-.206h9.2A.206.206,0,0,1,217.606,73.873Z" transform="translate(-184.445 -64.407)"/>
        <path id="Trazado_877315" data-name="Trazado 877315" d="M184.939,203.7h15.944a.8.8,0,0,0,0-1.6H184.939a.8.8,0,1,0,0,1.6Z" transform="translate(-164.557 -180.61)"/>
        <path id="Trazado_877316" data-name="Trazado 877316" d="M184.939,235.406h15.944a.8.8,0,0,0,0-1.6H184.939a.8.8,0,1,0,0,1.6Z" transform="translate(-164.557 -208.944)"/>
        <path id="Trazado_877317" data-name="Trazado 877317" d="M184.939,267.112h15.944a.8.8,0,0,0,0-1.6H184.939a.8.8,0,1,0,0,1.6Z" transform="translate(-164.557 -237.278)"/>
        <path id="Trazado_877318" data-name="Trazado 877318" d="M416.424,26.95h-5.714a.8.8,0,1,0,0,1.6h5.714a.8.8,0,1,0,0-1.6Z" transform="translate(-366.317 -24.084)"/>
        <path id="Trazado_877319" data-name="Trazado 877319" d="M416.424,55.936h-5.714a.8.8,0,1,0,0,1.6h5.714a.8.8,0,1,0,0-1.6Z" transform="translate(-366.317 -49.987)"/>
        <path id="Trazado_877320" data-name="Trazado 877320" d="M416.424,84.921h-5.714a.8.8,0,1,0,0,1.6h5.714a.8.8,0,1,0,0-1.6Z" transform="translate(-366.317 -75.889)"/>
        <path id="Trazado_877321" data-name="Trazado 877321" d="M53.1,0H48.792a.8.8,0,0,0,0,1.6h4.065V11.9H41.643V9.122a1.352,1.352,0,0,0-.674-1.168L38.877,6.747l2.091-1.207a1.353,1.353,0,0,0,.674-1.168V1.6h4.065a.8.8,0,1,0,0-1.6H41.4a1.35,1.35,0,0,0-1.349,1.349V3.406H13.983a2.22,2.22,0,0,0-2.217,2.217V7.687q-.31-.02-.628-.022H11.1a8.672,8.672,0,0,0-7.9,5.11l-.044.1a6.128,6.128,0,0,0,1.732,7.181l1.7,1.394v1.244a5.983,5.983,0,0,0,3.294,5.34V29.1l-.207-.064a4.346,4.346,0,0,0-3.651.5l-1.06.685a1.264,1.264,0,0,0-.231,1.931q-.1.058-.207.12L2.417,33.542A5,5,0,0,0,0,37.81v1.361a.8.8,0,0,0,1.6,0V37.81a3.4,3.4,0,0,1,1.642-2.9l2.107-1.264a5.857,5.857,0,0,1,1.277-.571l1.979.841a2.6,2.6,0,0,0,1.019.207,2.649,2.649,0,0,0,.661-.084l-1.163,15a20.933,20.933,0,0,1-5.245-1.9A4.152,4.152,0,0,1,1.6,43.437V42.255a.8.8,0,0,0-1.6,0v1.181a5.74,5.74,0,0,0,3.146,5.129,21.052,21.052,0,0,0,8.62,2.4v1.268a2.22,2.22,0,0,0,2.217,2.217H32.417a.8.8,0,1,0,0-1.6H13.983a.623.623,0,0,1-.622-.622V50.972A20.6,20.6,0,0,0,22,48.576a5.744,5.744,0,0,0,3.122-5.118V37.81a4.934,4.934,0,0,0-.157-1.232H36.326a.8.8,0,0,0,0-1.6H24.239a4.964,4.964,0,0,0-1.531-1.441l-.56-.336H36.326a.8.8,0,0,0,0-1.6H20.7a1.265,1.265,0,0,0-.537-1.384l-1.06-.684a4.346,4.346,0,0,0-3.651-.5l-.207.064V28.032a5.983,5.983,0,0,0,3.294-5.34v-.284l.762-.546a6.1,6.1,0,0,0,1.857-2.144H36.326a.8.8,0,0,0,0-1.6h-14.6a6.124,6.124,0,0,0,.106-1.777H36.326a.8.8,0,0,0,0-1.6H21.5l-.266-.966a3.049,3.049,0,0,0-3.7-2.133,1.449,1.449,0,0,1-1.727-.923l-.129-.373a3.89,3.89,0,0,0-2.317-2.382V5.624A.623.623,0,0,1,13.983,5H38.709l-1,.577a1.349,1.349,0,0,0,0,2.336l2.338,1.35v2.88A1.35,1.35,0,0,0,41.4,13.493h1.951V52.235a.623.623,0,0,1-.622.622H35.5a.8.8,0,1,0,0,1.6h7.224a2.22,2.22,0,0,0,2.217-2.217V48.243l.31.536a1.762,1.762,0,0,0,.735.7v1.039a.8.8,0,1,0,1.6,0V49.477a1.761,1.761,0,0,0,.735-.7l1.791-3.1a.8.8,0,0,0,.115-.412V25.486h.59a.274.274,0,0,1,.274.274V32.8a.8.8,0,0,0,1.6,0V25.76a1.871,1.871,0,0,0-1.869-1.869h-.59v-.4a1.408,1.408,0,0,0-1.093-1.37V20.872a2.344,2.344,0,0,0-4.188-1.449v-5.93H53.1a1.35,1.35,0,0,0,1.349-1.349V1.349A1.35,1.35,0,0,0,53.1,0ZM13.151,32.769l.438,5.714h-.078a.8.8,0,0,0,0,1.6h.2l.714,9.217a17.005,17.005,0,0,1-3.729-.011l1.275-16.515.589-.73Zm-3.928-.321-2.871-1.22.535-.345A2.755,2.755,0,0,1,9.2,30.564l2,.619-.779.965a1.03,1.03,0,0,1-1.2.3ZM23.529,37.81v5.648a4.155,4.155,0,0,1-2.26,3.7,20.318,20.318,0,0,1-5.26,1.9l-.7-8.984h.638a.8.8,0,0,0,0-1.6h-.761l-.344-4.443a2.647,2.647,0,0,0,.661.084,2.6,2.6,0,0,0,1.019-.207l1.979-.841a5.857,5.857,0,0,1,1.277.571l2.107,1.264a3.4,3.4,0,0,1,1.642,2.9Zm-7.606-7.246a2.755,2.755,0,0,1,2.314.319l.534.345L15.9,32.448a1.03,1.03,0,0,1-1.2-.3l-.779-.965ZM13.65,29.6l-1.087.336L11.475,29.6V28.57a6.013,6.013,0,0,0,2.175,0Zm-1.087-2.524a4.386,4.386,0,0,1-4.381-4.381V18.314a9.665,9.665,0,0,0,5.483-1.338,4.573,4.573,0,0,0,3.28,1.3v4.416A4.386,4.386,0,0,1,12.562,27.074Zm1.608-16.195.129.373A3.052,3.052,0,0,0,17.938,13.2a1.448,1.448,0,0,1,1.755,1.013l.407,1.478a4.544,4.544,0,0,1-1.561,4.754V18.127a1.437,1.437,0,0,0-1.393-1.439,3.055,3.055,0,0,1-2.349-.84,1.431,1.431,0,0,0-1.917-.267,8.152,8.152,0,0,1-4.824,1.136,1.439,1.439,0,0,0-1.47,1.439v1.231l-.69-.566a4.527,4.527,0,0,1-1.283-5.3l.038-.086A7.075,7.075,0,0,1,11.1,9.26h.031a8.145,8.145,0,0,1,1.258.1,2.281,2.281,0,0,1,1.783,1.519Zm34.457,12.8v20.79H44.942V23.683Zm-1.691,24.3a.175.175,0,0,1-.3,0l-1.106-1.913h2.516Zm-.9-27.109a.75.75,0,1,1,1.5,0v1.216h-1.5Z" transform="translate(0 0)"/>
        <path id="Trazado_877322" data-name="Trazado 877322" d="M261.591,390.667a5.63,5.63,0,0,0,.116-1.942c-.01-.174-.023-.4-.023-.58a2.156,2.156,0,0,0,1.33-.8,3.108,3.108,0,0,0,.454-2.3.8.8,0,0,0-1.566.3,1.551,1.551,0,0,1-.155,1.032.666.666,0,0,1-.538.224,1.171,1.171,0,0,0-1.086,1.092,5.443,5.443,0,0,0-.008,1.123c.09,1.552-.094,1.725-.566,1.771a.652.652,0,0,1-.424-.061c-.264-.245-.24-1.277-.224-2.031a8.563,8.563,0,0,0-.154-2.335,2.164,2.164,0,0,0-1.85-1.726c-1.738-.259-3,.933-3.83,2.227l-1.188-.177a.8.8,0,0,0-.236,1.578l.632.094a11.353,11.353,0,0,0-.5,1.354.8.8,0,0,0,1.536.432,9.785,9.785,0,0,1,.6-1.541l1.333.2a.81.81,0,0,0,.119.009.8.8,0,0,0,.117-1.587l-.639-.1a2.069,2.069,0,0,1,1.815-.915c.6.089.682.795.645,2.447-.028,1.231-.056,2.5.733,3.236a1.939,1.939,0,0,0,1.37.495,2.115,2.115,0,0,0,2.182-1.524Z" transform="translate(-224.272 -343.516)"/>
      </g>
    </g>
  </g>
</svg>
