<svg xmlns="http://www.w3.org/2000/svg" width="90.914" height="90.914" viewBox="0 0 90.914 90.914">
  <g id="Grupo_1106650" data-name="Grupo 1106650" transform="translate(4405 9563)">
    <g id="Grupo_1106097" data-name="Grupo 1106097" transform="translate(-4405 -9563)">
      <rect id="Rect치ngulo_400898" data-name="Rect치ngulo 400898" width="90.914" height="90.914" rx="45.457" transform="translate(0 0)" fill="#febdaf" opacity="0.859"/>
      <rect id="Rect치ngulo_400907" data-name="Rect치ngulo 400907" width="90.914" height="90.914" rx="45.457" transform="translate(0 0)" fill="none"/>
    </g>
    <g id="charla" transform="translate(-4391 -9577.003)">
      <path id="Trazado_877288" data-name="Trazado 877288" d="M15.8,106.995a19.5,19.5,0,1,0-3.9-3.9l-3.9,7.8Z" transform="translate(-6.922 -34.598)" fill="#00f2a9"/>
      <g id="Grupo_1106649" data-name="Grupo 1106649" transform="translate(0 32.003)">
        <path id="Trazado_877289" data-name="Trazado 877289" d="M.114,71.492a1.081,1.081,0,0,0,1.45,1.45l7.213-3.606a20.319,20.319,0,0,0,11.75,3.72,20.71,20.71,0,0,0,2.484-.165A20.468,20.468,0,0,0,53.883,82.3L61.1,85.906a1.081,1.081,0,0,0,1.45-1.45L58.94,77.243a20.319,20.319,0,0,0,3.72-11.75A20.549,20.549,0,0,0,42.133,44.967H39.591A20.515,20.515,0,0,0,0,52.529a20.319,20.319,0,0,0,3.72,11.75ZM42.133,47.127A18.386,18.386,0,0,1,60.5,65.493a18.2,18.2,0,0,1-3.683,11,1.081,1.081,0,0,0-.1,1.132l2.451,4.9-4.9-2.451a1.083,1.083,0,0,0-1.132.1A18.314,18.314,0,0,1,25.175,72.5,20.421,20.421,0,0,0,40.307,47.127h1.826Zm-39.972,5.4A18.365,18.365,0,1,1,20.527,70.895a18.2,18.2,0,0,1-11-3.683,1.084,1.084,0,0,0-1.132-.1L3.5,69.56l2.451-4.9a1.081,1.081,0,0,0-.1-1.132A18.2,18.2,0,0,1,2.161,52.529Z" transform="translate(0 -32.003)"/>
        <path id="Trazado_877290" data-name="Trazado 877290" d="M67.244,166.485A3.241,3.241,0,1,0,64,163.244,3.245,3.245,0,0,0,67.244,166.485Zm0-4.321a1.08,1.08,0,1,1-1.08,1.08A1.081,1.081,0,0,1,67.244,162.164Z" transform="translate(-55.36 -142.718)"/>
        <path id="Trazado_877291" data-name="Trazado 877291" d="M131.244,166.485A3.241,3.241,0,1,0,128,163.244,3.245,3.245,0,0,0,131.244,166.485Zm0-4.321a1.08,1.08,0,1,1-1.08,1.08A1.081,1.081,0,0,1,131.244,162.164Z" transform="translate(-110.717 -142.718)"/>
        <path id="Trazado_877292" data-name="Trazado 877292" d="M195.244,166.485A3.241,3.241,0,1,0,192,163.244,3.245,3.245,0,0,0,195.244,166.485Zm0-4.321a1.08,1.08,0,1,1-1.08,1.08A1.081,1.081,0,0,1,195.244,162.164Z" transform="translate(-166.075 -142.718)"/>
        <path id="Trazado_877293" data-name="Trazado 877293" d="M288,259.244A3.241,3.241,0,1,0,291.244,256,3.245,3.245,0,0,0,288,259.244Zm3.241-1.08a1.08,1.08,0,1,1-1.08,1.08A1.081,1.081,0,0,1,291.244,258.164Z" transform="translate(-249.111 -225.754)"/>
        <path id="Trazado_877294" data-name="Trazado 877294" d="M355.244,262.485A3.241,3.241,0,1,0,352,259.244,3.245,3.245,0,0,0,355.244,262.485Zm0-4.321a1.08,1.08,0,1,1-1.08,1.08A1.081,1.081,0,0,1,355.244,258.164Z" transform="translate(-304.468 -225.754)"/>
      </g>
    </g>
  </g>
</svg>
