<svg xmlns="http://www.w3.org/2000/svg" xmlns:xlink="http://www.w3.org/1999/xlink" width="397.833" height="345.545" viewBox="0 0 397.833 345.545">
  <defs>
    <clipPath id="clip-path">
      <rect id="Rectángulo_403482" data-name="Rectángulo 403482" width="58.242" height="54.907" fill="none"/>
    </clipPath>
    <clipPath id="clip-path-2">
      <rect id="Rectángulo_403483" data-name="Rectángulo 403483" width="78.992" height="212.891" fill="none"/>
    </clipPath>
    <clipPath id="clip-path-3">
      <rect id="Rectángulo_403484" data-name="Rectángulo 403484" width="44.829" height="74.22" fill="none"/>
    </clipPath>
    <clipPath id="clip-path-4">
      <rect id="Rectángulo_403485" data-name="Rectángulo 403485" width="121.113" height="198.62" fill="none"/>
    </clipPath>
    <clipPath id="clip-path-5">
      <rect id="Rectángulo_403486" data-name="Rectángulo 403486" width="73.092" height="34.189" fill="none"/>
    </clipPath>
  </defs>
  <g id="Grupo_1106609" data-name="Grupo 1106609" transform="translate(33 10.818)">
    <g id="Grupo_1106610" data-name="Grupo 1106610">
      <g id="Grupo_1106607" data-name="Grupo 1106607">
        <g id="Grupo_1106611" data-name="Grupo 1106611">
          <path id="Trazado_877157" data-name="Trazado 877157" d="M31.433,81.689c0-.017-.017-.051-.017-.068A30.157,30.157,0,0,0,6.7,60.517c-.137.428-.257.855-.376,1.3A28.785,28.785,0,0,1,29.962,81.449c0,.017.017.034.017.051v.017a28.451,28.451,0,0,1,1.385,8.824A28.66,28.66,0,0,1,24.421,109.1c-.291.325-.581.65-.906.975v.017a28.691,28.691,0,0,1-20.95,9.064A25.279,25.279,0,0,1,0,119.039v1.351q1.257.1,2.565.1a30.063,30.063,0,0,0,20.419-7.986,29.106,29.106,0,0,0,3.2-3.455,30.148,30.148,0,0,0,5.25-27.363" transform="translate(-33 -71.335)" fill="#502750"/>
          <path id="Trazado_877159" data-name="Trazado 877159" d="M194.433,39.224a28.561,28.561,0,0,1-3.814,5.695c-.291.325-.581.65-.906.975v.017a28.691,28.691,0,0,1-20.95,9.064,30.821,30.821,0,0,1-4.908-.41,28.711,28.711,0,0,1-18.726-11.971.017.017,0,0,0-.017-.017,28.773,28.773,0,0,1-5.148-16.418,28.319,28.319,0,0,1,4.378-15.2,28.827,28.827,0,0,1,6.67-7.439q-.641-.385-1.283-.718a30.125,30.125,0,0,0-5.421,40.959.017.017,0,0,1,.017.017,30.161,30.161,0,0,0,19.838,12.194,31.144,31.144,0,0,0,4.6.342,30.063,30.063,0,0,0,20.419-7.986,29.105,29.105,0,0,0,3.2-3.455,29.735,29.735,0,0,0,2.976-4.549c-.291-.376-.616-.735-.924-1.095" transform="translate(169.476 -13.615)" fill="#502750"/>
          <path id="Trazado_877160" data-name="Trazado 877160" d="M73.281,253.342H0V209.921a124.453,124.453,0,0,1,21.77,30.492A285.394,285.394,0,0,1,8.585,158.906c-.171-11.8.462-23.942,5.3-34.716,1.915-4.275,5.011-8.636,9.628-9.457,6.995-1.214,12.245,6.071,15.374,12.433,15.8,32.22,25.892,67.039,32.151,102.371a125.2,125.2,0,0,1,2.24,23.806" transform="translate(-33 81.385)" fill="#a067ea"/>
          <path id="Trazado_877161" data-name="Trazado 877161" d="M266.645,119.057V250.176H140.634a13.981,13.981,0,0,1-1.876-11.424A309.853,309.853,0,0,1,163.9,175.561c4.883-9.269,11.936-19.479,24.777-21.788,5.7-1.026,12.389,0,15.961,3.523,2.555,2.5,3.165,5.8,3.481,8.944a72.1,72.1,0,0,1-.836,20.676c9.676-20.334,23.715-39.488,41.393-56.487,4.114-3.968,8.591-7.918,14.514-10.261a27.887,27.887,0,0,1,3.459-1.112" transform="translate(98.188 84.551)" fill="#a067ea"/>
          <g id="Grupo_1106612" data-name="Grupo 1106612" transform="translate(11.172 -11.046)">
            <path id="Trazado_877196" data-name="Trazado 877196" d="M194.638,123.083c0-.019-.019-.057-.019-.076A33.421,33.421,0,0,0,162.645,99.3a33.4,33.4,0,0,0-33.395,33.376,33.313,33.313,0,0,0,6.292,19.5.019.019,0,0,1,.019.019,33.425,33.425,0,0,0,21.985,13.513,34.515,34.515,0,0,0,5.1.379,33.317,33.317,0,0,0,22.63-8.851,32.257,32.257,0,0,0,3.544-3.828,33.411,33.411,0,0,0,5.819-30.325m-7.771,30.381c-.322.36-.644.72-1,1.08v.019a31.8,31.8,0,0,1-23.217,10.045,34.156,34.156,0,0,1-5.439-.455,31.819,31.819,0,0,1-20.753-13.267.019.019,0,0,0-.019-.019,31.888,31.888,0,0,1-5.7-18.195,31.385,31.385,0,0,1,4.852-16.849,31.856,31.856,0,0,1,16.565-13.267,31,31,0,0,1,10.5-1.782,31.943,31.943,0,0,1,30.363,22.042c0,.019.019.038.019.057v.019a31.931,31.931,0,0,1-6.16,30.571" transform="translate(129.929 49.92)" fill="#502750"/>
            <path id="Trazado_877162" data-name="Trazado 877162" d="M194.4,221.664h-53.58l-1.4-15.162-.038-.588-3.222-34.987,14.783-1.251,1.478-.133,32.694-2.786.948,5.572Z" transform="translate(98.171 124.109)" fill="#aa525b"/>
            <g id="Grupo_1106593" data-name="Grupo 1106593" transform="translate(234.331 290.866)" opacity="0.3">
              <g id="Grupo_1106592" data-name="Grupo 1106592" transform="translate(0 0)">
                <g id="Grupo_1106591" data-name="Grupo 1106591" clip-path="url(#clip-path)">
                  <path id="Trazado_877163" data-name="Trazado 877163" d="M194.4,221.664h-53.58l-1.4-15.162-.038-.588-3.222-34.987,14.783-1.251,1.478-.133,32.694-2.786.948,5.572Z" transform="translate(-136.16 -166.757)" fill="#ff8c9c"/>
                </g>
              </g>
            </g>
            <path id="Trazado_877164" data-name="Trazado 877164" d="M84,161.735,65.252,183.088,45.981,108.093,20.2,111.478s4.687,141.66,29.686,146.085,47.394-28.905,47.394-28.905Z" transform="translate(-5.646 71.588)" fill="#aa525b"/>
            <g id="Grupo_1106596" data-name="Grupo 1106596" transform="translate(12.643 116.664)" opacity="0.3">
              <g id="Grupo_1106595" data-name="Grupo 1106595" transform="translate(0 0)">
                <g id="Grupo_1106594" data-name="Grupo 1106594" clip-path="url(#clip-path-2)">
                  <path id="Trazado_877165" data-name="Trazado 877165" d="M84,161.735,65.252,183.088,45.981,108.093,20.2,111.478s4.687,141.66,29.686,146.085,47.394-28.905,47.394-28.905Z" transform="translate(-18.288 -45.077)" fill="#ff8c9c"/>
                  <path id="Trazado_877166" data-name="Trazado 877166" d="M21.1,141.245S18.5,102.532,19.369,90.9s2.778-11.8,3.993-12.153,2.951.7,4.34,0,5.208-4.513,7.812-3.819,3.123,3.125,4.86,3.3,3.472-1.736,5.9-.521,5.206,3.819,7.117,4.34S64.679,83.435,63.984,88.3s-7.81,12.5-7.81,12.5,1.736,17.361-1.91,23.437c0,0-3.3,6.249-6.6,7.985,0,0,1.042,11.285,1.389,15.1s-.868.174-.868.174Z" transform="translate(-19.192 -74.843)" fill="#ff8c9c"/>
                </g>
              </g>
            </g>
            <path id="Trazado_877167" data-name="Trazado 877167" d="M21.1,141.245S18.5,102.532,19.369,90.9s2.778-11.8,3.993-12.153,2.951.7,4.34,0,5.208-4.513,7.812-3.819,3.123,3.125,4.86,3.3,3.472-1.736,5.9-.521,5.206,3.819,7.117,4.34S64.679,83.435,63.984,88.3s-7.81,12.5-7.81,12.5,1.736,17.361-1.91,23.437c0,0-3.3,6.249-6.6,7.985,0,0,1.042,11.285,1.389,15.1s-.868.174-.868.174Z" transform="translate(-6.549 41.82)" fill="#aa525b"/>
            <g id="Grupo_1106599" data-name="Grupo 1106599" transform="translate(12.643 116.664)" opacity="0.3">
              <g id="Grupo_1106598" data-name="Grupo 1106598" transform="translate(0 0)">
                <g id="Grupo_1106597" data-name="Grupo 1106597" clip-path="url(#clip-path-3)">
                  <path id="Trazado_877168" data-name="Trazado 877168" d="M21.1,141.245S18.5,102.532,19.369,90.9s2.778-11.8,3.993-12.153,2.951.7,4.34,0,5.208-4.513,7.812-3.819,3.123,3.125,4.86,3.3,3.472-1.736,5.9-.521,5.206,3.819,7.117,4.34S64.679,83.435,63.984,88.3s-7.81,12.5-7.81,12.5,1.736,17.361-1.91,23.437c0,0-3.3,6.249-6.6,7.985,0,0,1.042,11.285,1.389,15.1s-.868.174-.868.174Z" transform="translate(-19.192 -74.843)" fill="#ff8c9c"/>
                </g>
              </g>
            </g>
            <path id="Trazado_877169" data-name="Trazado 877169" d="M63.066,240.479a.7.7,0,0,1-.671-.51c-.2-.718-19.844-72.089-24.48-90.286-4.526-17.77-4.23-21.657-4.033-24.227l.021-.3c.106-1.471,1.539-2.864,3.2-4.479a20.031,20.031,0,0,0,4.335-5.32c2-4.166,1.308-13.176.978-17.507-.349-4.509-.353-14.381-.353-14.482a.694.694,0,0,1,1.387,0c0,.1,0,9.922.347,14.355.368,4.814,1.054,13.733-1.109,18.235a20.988,20.988,0,0,1-4.617,5.714c-1.395,1.357-2.712,2.64-2.78,3.584l-.023.3c-.178,2.331-.474,6.232,4,23.778C43.9,167.525,63.538,238.881,63.737,239.6a.7.7,0,0,1-.485.855.715.715,0,0,1-.186.025" transform="translate(6.521 48.831)" fill="#502750"/>
            <path id="Trazado_877170" data-name="Trazado 877170" d="M203.544,203.212H74.38l4.208-11.751.227-.625,1.137.227c.152.038.322.057.493.095,19.484,3.791,40.844,4.227,59.967,3.26.474-.019.929-.038,1.4-.076a422.629,422.629,0,0,0,51.628-6.046c.455-.076.891-.171,1.289-.246,2.274-.417,3.506-.682,3.506-.682Z" transform="translate(42.86 142.561)" fill="#7282ff"/>
            <path id="Trazado_877171" data-name="Trazado 877171" d="M176.421,108.5s52.428,15.278,68.052,31.943,30.554,83.328,30.554,83.328l-42.36,4.166L222.6,257.107s-17.708,15.278-61.457,11.806-53.815-6.6-53.815-6.6l-19.444-40.97L69.4,240.527,44.657,175.168s20.312-29.858,38.02-39.581S124.437,113.6,124.437,113.6Z" transform="translate(16.249 71.956)" fill="#ffdbf1"/>
            <path id="Trazado_877172" data-name="Trazado 877172" d="M148.836,260.828a.7.7,0,0,1-.688-.6l-12.465-92.465C128.729,161.147,93,143.925,92.635,143.75a.694.694,0,0,1-.091-1.2l12.06-8.25L67.016,121.213a.694.694,0,0,1,.455-1.312l38.888,13.542a.694.694,0,0,1,.165,1.228l-12.208,8.351c6.236,3.025,36.39,17.827,42.511,23.917a.7.7,0,0,1,.2.4l12.5,92.7a.7.7,0,0,1-.6.781.782.782,0,0,1-.093.006" transform="translate(35.85 82.125)" fill="#502750"/>
            <path id="Trazado_877173" data-name="Trazado 877173" d="M103.7,173.372a.693.693,0,0,1-.6-1.046c5.481-9.349,39.879-26.985,46.473-30.306l-20.581-14.607a.694.694,0,0,1,.123-1.2l27.775-12.153a.695.695,0,1,1,.555,1.274L130.8,126.99l20.524,14.567a.7.7,0,0,1-.093,1.188c-.413.2-41.2,20.507-46.929,30.283a.691.691,0,0,1-.6.343" transform="translate(68.488 76.876)" fill="#502750"/>
            <path id="Trazado_877174" data-name="Trazado 877174" d="M86.127,229.7a.7.7,0,0,1-.622-.383c-.68-1.363-16.7-33.427-18.434-38.272-1.749-4.9,5.089-41.046,5.875-45.152a.694.694,0,0,1,1.363.26c-2.115,11.055-7.3,40.586-5.93,44.426,1.7,4.767,18.2,37.783,18.369,38.116a.7.7,0,0,1-.311.932.724.724,0,0,1-.311.072" transform="translate(36.062 104.922)" fill="#502750"/>
            <path id="Trazado_877175" data-name="Trazado 877175" d="M138.872,226.64a.664.664,0,0,1-.208-.032.7.7,0,0,1-.455-.872c.112-.351,11.127-35.127,12.839-41.63,1.67-6.345-7.2-39.585-7.291-39.92a.694.694,0,1,1,1.34-.358c.371,1.382,9.058,33.933,7.295,40.629-1.721,6.539-12.746,41.348-12.856,41.7a.7.7,0,0,1-.663.485" transform="translate(99.978 103.118)" fill="#502750"/>
            <path id="Trazado_877176" data-name="Trazado 877176" d="M87.484,37.94a18.887,18.887,0,0,1,21.949-2.464,5.291,5.291,0,0,0,2.828,1.084c1.988-.11,2.869-2.464,3.633-4.3,2.538-6.11,8.523-10.1,14.632-12.645,6.637-2.765,13.947-4.27,21.06-3.241s14,4.814,17.844,10.89c5.794,9.158,3.749,21.053,1.12,31.566,10.5,2.64,18.741,12.264,20.187,22.994S187,103.79,178.158,110.044c-5.5,3.887-12.094,5.9-18.68,7.295a67.707,67.707,0,0,1-19.952,1.62c-14.044-1.258-27.05-8.932-36.443-19.449-8.686-9.727-13.62-21.22-18.091-33.291-3.425-9.251-5.608-20.625,2.49-28.28" transform="translate(49.608 -10.822)" fill="#fab264"/>
            <path id="Trazado_877177" data-name="Trazado 877177" d="M61.5,56.88c-2.871,2.629-5.513,5.675-6.795,9.349s-.976,8.089,1.562,11.044a3.186,3.186,0,0,1,1.065,1.873c0,.855-.769,1.478-1.442,2.005-3.4,2.67-6.091,6.5-6.539,10.8s1.751,8.984,5.735,10.661c1.863.785,4.361,1.264,4.812,3.235.407,1.772-1.24,3.277-1.96,4.945-1.185,2.746.345,6.078,2.782,7.809s5.54,2.2,8.525,2.388c7.676.489,16.317-1,20.933-7.157A25.568,25.568,0,0,0,93.9,105.4c4.05-14.067,5.132-29.377.411-43.233-2.225-6.527-6.5-13.36-13.663-15.075C74.167,45.546,65.9,52.847,61.5,56.88" transform="translate(20.398 16.787)" fill="#fab264"/>
            <path id="Trazado_877178" data-name="Trazado 877178" d="M180.588,118.211c-1.224,11.3-11.974,18.746-22.867,18.583,1.857,6.69,5.487,34.7,5.487,34.7s-12.829,65.213-19.684,66.866c-9.463,2.284-30.067-51.364-30.067-51.364l-1.469-7.3-.917-4.588-2.386-11.851-.061-.326-.081-.409c-10.894,1.408-24.112.959-29.129-2.181-4-2.489-7.3-8.527-9.975-15.953a167.024,167.024,0,0,1-6.548-25.8c-2.244-12.3-3.243-22.417-3.243-22.417h.061a51.352,51.352,0,0,1-.042-6.364A52.869,52.869,0,0,1,93.3,43.391c.836-.326,1.672-.633,2.549-.919a55.816,55.816,0,0,1,7.037-1.795,52.692,52.692,0,0,1,62.031,56.912s.368.163.959.389c1.348.529,3.815,1.509,5.3,2.142a12.672,12.672,0,0,1,1.2.51,3.467,3.467,0,0,1,.512.305c5.834,3.406,8.383,10.771,7.689,17.277" transform="translate(29.616 10.452)" fill="#aa525b"/>
            <g id="Grupo_1106602" data-name="Grupo 1106602" transform="translate(89.364 50.584)" opacity="0.3">
              <g id="Grupo_1106601" data-name="Grupo 1106601" transform="translate(0 0)">
                <g id="Grupo_1106600" data-name="Grupo 1106600" clip-path="url(#clip-path-4)">
                  <path id="Trazado_877179" data-name="Trazado 877179" d="M180.673,118.382c-1.224,11.3-11.974,18.746-22.867,18.583,1.855,6.69,5.487,34.7,5.487,34.7s-12.829,65.213-19.684,66.866c-9.463,2.284-30.067-51.364-30.067-51.364l-1.469-7.3-.917-4.589-2.386-11.851-.061-.326-.081-.409c-10.894,1.408-24.112.959-29.129-2.181-4-2.488-7.3-8.527-9.975-15.953a167.023,167.023,0,0,1-6.548-25.8c-2.244-12.3-3.243-22.417-3.243-22.417h.061a51.355,51.355,0,0,1-.042-6.364A52.869,52.869,0,0,1,93.389,43.562c.836-.326,1.672-.633,2.549-.917a55.5,55.5,0,0,1,7.037-1.8,52.692,52.692,0,0,1,62.031,56.912s.368.163.959.389c1.348.529,3.815,1.509,5.3,2.142a12.556,12.556,0,0,1,1.2.51,3.449,3.449,0,0,1,.51.305c5.836,3.406,8.385,10.771,7.691,17.277" transform="translate(-59.672 -39.978)" fill="#ff8c9c"/>
                </g>
              </g>
            </g>
            <g id="Grupo_1106605" data-name="Grupo 1106605" transform="translate(92.498 120.639)" opacity="0.15">
              <g id="Grupo_1106604" data-name="Grupo 1106604" transform="translate(0 0)">
                <g id="Grupo_1106603" data-name="Grupo 1106603" clip-path="url(#clip-path-5)">
                  <path id="Trazado_877180" data-name="Trazado 877180" d="M85.948,92.774A13.418,13.418,0,1,0,96.736,77.162,13.418,13.418,0,0,0,85.948,92.774" transform="translate(-39.478 -76.941)" fill="#502750"/>
                  <path id="Trazado_877181" data-name="Trazado 877181" d="M61.325,81.81a168.509,168.509,0,0,0,6.546,25.8c.26-.028.516-.076.771-.123a13.419,13.419,0,1,0-4.825-26.4,12.68,12.68,0,0,0-2.492.72" transform="translate(-61.326 -73.425)" fill="#502750"/>
                </g>
              </g>
            </g>
            <path id="Trazado_877182" data-name="Trazado 877182" d="M81.974,78.514a4.2,4.2,0,1,0,2.792-5.65,4.472,4.472,0,0,0-2.792,5.65" transform="translate(49.493 39.933)" fill="#502750"/>
            <path id="Trazado_877183" data-name="Trazado 877183" d="M77.445,96.273a3.654,3.654,0,0,1-1.806-.455,5.474,5.474,0,0,1-2.229-3c-2.195-5.623-2.149-11.844-2.108-17.334A.693.693,0,0,1,72,74.794H72a.693.693,0,0,1,.688.7c-.038,5.364-.083,11.444,2.015,16.819A4.283,4.283,0,0,0,76.31,94.6c1.183.652,2.758.04,4.281-.72a.7.7,0,0,1,.618,1.245,8.853,8.853,0,0,1-3.764,1.145" transform="translate(40.095 41.775)" fill="#502750"/>
            <path id="Trazado_877184" data-name="Trazado 877184" d="M61.036,74.352a2.4,2.4,0,0,0,.32,2.672c.815.688,2.1.368,3.1-.057a23.221,23.221,0,0,0,4.416-2.481A6.576,6.576,0,0,0,71.835,70.7c.506-2.744-3.484-3.381-5.5-2.352a11.557,11.557,0,0,0-5.3,6.006" transform="translate(30.693 35.586)" fill="#fab264"/>
            <path id="Trazado_877185" data-name="Trazado 877185" d="M89.322,64.983c.878.381,1.787,1.067,1.74,2.054-.051,1.065-1.164,1.791-2.155,2.235a23.143,23.143,0,0,1-4.824,1.547,6.567,6.567,0,0,1-4.789-.411c-2.354-1.5-.106-4.854,2.018-5.627a11.554,11.554,0,0,1,8.009.2" transform="translate(46.361 32.256)" fill="#fab264"/>
            <path id="Trazado_877186" data-name="Trazado 877186" d="M74.769,91.983l17.965-8.2s6.3,10.559-1.575,14.656-16.39-6.461-16.39-6.461" transform="translate(43.208 49.828)" fill="#ffdbf1"/>
            <path id="Trazado_877187" data-name="Trazado 877187" d="M65.98,81.548c.68,2.519,2.841,4.128,4.825,3.592s3.04-3.012,2.36-5.532-2.841-4.128-4.825-3.592-3.04,3.012-2.36,5.532" transform="translate(35.156 42.777)" fill="#502750"/>
            <path id="Trazado_877188" data-name="Trazado 877188" d="M111.406,103.719a.657.657,0,0,0,.461-.709,34.378,34.378,0,0,1,4.323-21.284c1.691-2.93,5.367-7.989,10.911-8.931a.656.656,0,1,0-.222-1.293c-6.09,1.039-10.02,6.438-11.825,9.566a35.708,35.708,0,0,0-4.49,22.1.655.655,0,0,0,.732.57.539.539,0,0,0,.11-.023" transform="translate(75.02 38.82)" fill="#502750"/>
            <path id="Trazado_877189" data-name="Trazado 877189" d="M63.628,56.895c1.023,7.869,5.843,13.347,13.026,16.718,5.337,2.507,11.4,2.941,17.3,2.9,2.494-.017,5.269-.009,7.09,1.692,1.721,1.611,2,4.181,2.623,6.453A18.268,18.268,0,0,0,114.4,96.6c4.977,1.964,10.519,1.615,15.862,1.319a5.473,5.473,0,0,1,2.506.254c1.854.809,2.216,3.218,2.5,5.223.667,4.806,2.511,9.691,6.279,12.751,1.353,1.1,3.152,1.96,4.81,1.412,2.054-.677,2.869-3.072,3.614-5.1a20.458,20.458,0,0,1,6.967-9.876c3.341-2.362,7.934-3.2,11.612-1.408-1.029-7.274-1.469-14.649-2.5-21.923-.948-6.7-1.909-13.457-4.228-19.813-3.8-10.418-11.22-17.981-22.209-20.4a59.194,59.194,0,0,0-15.754-.94,142.478,142.478,0,0,0-26.888,4.1c-8.61,2.125-17.221,4.588-24.984,8.94-1.109.622-8.531,4.408-8.354,5.762" transform="translate(33.232 8.8)" fill="#fab264"/>
            <path id="Trazado_877190" data-name="Trazado 877190" d="M114.364,101.022s-9.833,23.479-25.539,23.865l-.917-4.588-2.386-11.853-.063-.326c3.611-.244,14.258-1.448,28.905-7.1" transform="translate(52.779 65.257)" fill="#502750"/>
            <path id="Trazado_877191" data-name="Trazado 877191" d="M173.627,76.449l11.838-25.374L186.4,79.11l27.264,1.584-22.12,11.9,15.079,21.642-24.417-11.214-13.512,23.992V100.457L144,99.333l21.464-12.6-19.794-19.88Z" transform="translate(105.194 20.54)" fill="#fab264"/>
            <path id="Trazado_877192" data-name="Trazado 877192" d="M36.2,175l11.838-25.374.934,28.035,27.264,1.584-22.12,11.9,15.079,21.642L44.776,201.572,31.264,225.565V199.012l-24.69-1.126,21.464-12.594L8.244,165.41Z" transform="translate(-17.845 108.774)" fill="#fab264"/>
            <path id="Trazado_877193" data-name="Trazado 877193" d="M128.648,15.784l3.364.986a.834.834,0,0,1,.013,1.6l-3.283,1.016a17.517,17.517,0,0,0-11.37,10.987l-1.528,4.4a.834.834,0,0,1-1.588-.04l-1.031-3.52a17.523,17.523,0,0,0-11.895-11.9l-3.288-.961a.834.834,0,0,1,0-1.6l3.288-.963A17.52,17.52,0,0,0,113.226,3.889L114.188.6a.834.834,0,0,1,1.6,0l.963,3.288a17.52,17.52,0,0,0,11.895,11.895" transform="translate(-72.798 81.244)" fill="#2a0967"/>
            <path id="Trazado_877194" data-name="Trazado 877194" d="M200.648,164.379l3.364.986a.834.834,0,0,1,.013,1.6l-3.283,1.016a17.517,17.517,0,0,0-11.37,10.987l-1.528,4.4a.834.834,0,0,1-1.588-.04l-1.031-3.52a17.523,17.523,0,0,0-11.895-11.9l-3.288-.961a.834.834,0,0,1,0-1.6l3.288-.963a17.52,17.52,0,0,0,11.895-11.895l.963-3.288a.834.834,0,0,1,1.6,0l.963,3.288a17.52,17.52,0,0,0,11.895,11.895" transform="translate(127.969 107.849)" fill="#ffdbf1"/>
            <path id="Trazado_877195" data-name="Trazado 877195" d="M75.285,117.656l3.364.986a.834.834,0,0,1,.013,1.6l-3.283,1.016a17.517,17.517,0,0,0-11.37,10.987l-1.528,4.4a.834.834,0,0,1-1.588-.04l-1.031-3.52a17.523,17.523,0,0,0-11.895-11.9l-3.288-.961a.834.834,0,0,1,0-1.6l3.288-.963a17.52,17.52,0,0,0,11.895-11.895l.963-3.288a.834.834,0,0,1,1.6,0l.963,3.288a17.52,17.52,0,0,0,11.895,11.895" transform="translate(15.734 66.018)" fill="#ffdbf1"/>
          </g>
        </g>
      </g>
    </g>
  </g>
</svg>
