<svg xmlns="http://www.w3.org/2000/svg" width="64" height="64" viewBox="0 0 64 64">
  <g id="Grupo_1106786" data-name="Grupo 1106786" transform="translate(-288.051 -2266)">
    <rect id="Rectángulo_403530" data-name="Rectángulo 403530" width="64" height="64" transform="translate(288.051 2266)" fill="none"/>
    <g id="colaboracion" transform="translate(290.051 2199.342)">
      <path id="Trazado_877814" data-name="Trazado 877814" d="M228.6,272.483h2.9a2.747,2.747,0,1,0,5.182,0H239a.59.59,0,0,0,.59-.59V260.252a.59.59,0,0,0-.59-.59h-2.314a2.747,2.747,0,1,0-5.182,0h-2.9l-3.663,7.326Z" transform="translate(-198.412 -157.311)" fill="#fd6930"/>
      <path id="Trazado_877815" data-name="Trazado 877815" d="M175.063,263.347a2.764,2.764,0,0,0-1.262.135v-3.819h-2.9a2.747,2.747,0,1,0-5.182,0H163.4a.59.59,0,0,0-.59.59v11.642a.59.59,0,0,0,.59.59h2.314a2.747,2.747,0,1,0,5.182,0h2.9v-3.819a2.748,2.748,0,1,0,1.262-5.317Z" transform="translate(-143.612 -157.311)" fill="#01c0fa"/>
      <path id="Trazado_877816" data-name="Trazado 877816" d="M242.3,152.777h0a1.832,1.832,0,0,1-1.832-1.832v-1.832a1.832,1.832,0,0,1,1.832-1.832h0a1.832,1.832,0,0,1,1.832,1.832v1.832A1.832,1.832,0,0,1,242.3,152.777Z" transform="translate(-212.111 -61.414)" fill="#80d261"/>
      <path id="Trazado_877817" data-name="Trazado 877817" d="M303.51,183.349h0a1.832,1.832,0,0,1-.67-2.5l.916-1.586a1.832,1.832,0,0,1,2.5-.67h0a1.832,1.832,0,0,1,.67,2.5l-.916,1.586A1.832,1.832,0,0,1,303.51,183.349Z" transform="translate(-266.91 -88.814)" fill="#80d261"/>
      <path id="Trazado_877818" data-name="Trazado 877818" d="M174.236,183.349h0a1.831,1.831,0,0,0,.67-2.5l-.916-1.586a1.832,1.832,0,0,0-2.5-.67h0a1.832,1.832,0,0,0-.67,2.5l.916,1.586A1.832,1.832,0,0,0,174.236,183.349Z" transform="translate(-150.458 -88.814)" fill="#80d261"/>
      <path id="Trazado_877819" data-name="Trazado 877819" d="M414.692,97.922l1.7-.34a6.779,6.779,0,0,0,5.45-6.647v-.513a5.264,5.264,0,0,0-5.264-5.264h0a5.264,5.264,0,0,0-5.264,5.264v4.731A2.825,2.825,0,0,0,414.692,97.922Z" transform="translate(-362.808 -6.616)" fill="#ffc344"/>
      <path id="Trazado_877820" data-name="Trazado 877820" d="M319.3,235.926h5.786a.59.59,0,0,0,.56-.406l2.666-8.145a3.538,3.538,0,0,1,3.362-2.437h4.887a3.538,3.538,0,0,1,3.538,3.538v19.683a.59.59,0,0,1-.59.59H329.7a.59.59,0,0,1-.59-.59v-7.671a3.536,3.536,0,0,1-2.4.934h-5.646a2.948,2.948,0,0,1-2.948-2.948V237.1A1.179,1.179,0,0,1,319.3,235.926Z" transform="translate(-280.61 -129.912)" fill="#ffc344"/>
      <path id="Trazado_877821" data-name="Trazado 877821" d="M422.3,228.475a3.538,3.538,0,0,0-3.538-3.538h-.2a3.53,3.53,0,0,1,.2,1.179V241.5a4.886,4.886,0,0,1-4.886,4.886h-2.565v1.769a.59.59,0,0,0,.59.59h9.81a.59.59,0,0,0,.59-.59Z" transform="translate(-362.807 -129.912)" fill="#feb237"/>
      <path id="Trazado_877822" data-name="Trazado 877822" d="M18.555,97.922l-1.7-.34a6.779,6.779,0,0,1-5.449-6.647v-.513a5.264,5.264,0,0,1,5.264-5.264h0a5.264,5.264,0,0,1,5.264,5.264v4.731A2.825,2.825,0,0,1,18.555,97.922Z" transform="translate(-10.06 -6.616)" fill="#0067c5"/>
      <path id="Trazado_877823" data-name="Trazado 877823" d="M28.3,235.926H22.513a.59.59,0,0,1-.56-.406l-2.665-8.145a3.538,3.538,0,0,0-3.362-2.437H11.038A3.538,3.538,0,0,0,7.5,228.475v19.683a.59.59,0,0,0,.59.59H17.9a.59.59,0,0,0,.59-.59v-7.671a3.536,3.536,0,0,0,2.4.934H26.53a2.948,2.948,0,0,0,2.948-2.948V237.1A1.179,1.179,0,0,0,28.3,235.926Z" transform="translate(-6.616 -129.912)" fill="#0067c5"/>
      <path id="Trazado_877824" data-name="Trazado 877824" d="M17.567,292.328l-2.616-7.061v9.451a4.886,4.886,0,0,1-4.886,4.886H7.5v1.769a.59.59,0,0,0,.59.59H17.9a.59.59,0,0,0,.59-.59V293.7h0A3.533,3.533,0,0,1,17.567,292.328Z" transform="translate(-6.616 -183.127)" fill="#0055a3"/>
      <path id="Trazado_877825" data-name="Trazado 877825" d="M260.374,257.6a.884.884,0,0,1-.884-.884v-2.778H257.47a.884.884,0,0,1-.834-1.179,1.864,1.864,0,0,0-1.542-2.472,1.865,1.865,0,0,0-1.972,2.472.884.884,0,0,1-.834,1.179h-2.9a.884.884,0,1,1,0-1.769h1.863c0-.01,0-.021,0-.031a3.632,3.632,0,0,1,7.236-.453,3.763,3.763,0,0,1,.028.485h1.273a1.476,1.476,0,0,1,1.474,1.474v3.073A.884.884,0,0,1,260.374,257.6Z" transform="translate(-219.195 -150.7)"/>
      <path id="Trazado_877826" data-name="Trazado 877826" d="M254.872,366.314a3.621,3.621,0,0,1-3.6-3.178,3.761,3.761,0,0,1-.028-.485h-1.863a.884.884,0,1,1,0-1.769h2.9a.884.884,0,0,1,.834,1.179,1.864,1.864,0,0,0,1.542,2.472,1.865,1.865,0,0,0,1.972-2.472.884.884,0,0,1,.834-1.179h2.019V358.1a.884.884,0,0,1,1.769,0v3.073a1.476,1.476,0,0,1-1.474,1.474h-1.273c0,.01,0,.021,0,.031a3.631,3.631,0,0,1-3.639,3.631Z" transform="translate(-219.195 -246.594)"/>
      <path id="Trazado_877827" data-name="Trazado 877827" d="M161.684,270.419a3.621,3.621,0,0,1-3.6-3.178,3.764,3.764,0,0,1-.028-.485h-1.273a1.476,1.476,0,0,1-1.474-1.474v-3.073a.884.884,0,1,1,1.769,0v2.779H159.1a.884.884,0,0,1,.834,1.179,1.864,1.864,0,0,0,1.542,2.472,1.865,1.865,0,0,0,1.972-2.472.884.884,0,0,1,.834-1.179H166.3v-2.935a.884.884,0,0,1,1.179-.834,1.864,1.864,0,1,0,0-3.514.884.884,0,0,1-1.179-.834v-2.935h-2.019a.884.884,0,0,1-.834-1.179,1.864,1.864,0,0,0-1.542-2.472,1.865,1.865,0,0,0-1.972,2.472.884.884,0,0,1-.834,1.179h-2.019v2.778a.884.884,0,0,1-1.769,0v-3.073a1.476,1.476,0,0,1,1.474-1.474h1.273q0-.016,0-.031a3.632,3.632,0,0,1,7.236-.453,3.767,3.767,0,0,1,.028.485h1.863a.884.884,0,0,1,.884.884v2.778a3.765,3.765,0,0,1,.485.028,3.632,3.632,0,0,1-.485,7.236v2.779a.884.884,0,0,1-.884.884h-1.863q0,.016,0,.031a3.631,3.631,0,0,1-3.639,3.631Z" transform="translate(-136.997 -150.7)"/>
      <path id="Trazado_877828" data-name="Trazado 877828" d="M235.685,147.045a2.719,2.719,0,0,1-2.716-2.716V142.5a2.716,2.716,0,1,1,5.432,0v1.832A2.719,2.719,0,0,1,235.685,147.045Zm0-5.495a.948.948,0,0,0-.947.947v1.832a.947.947,0,1,0,1.894,0V142.5A.948.948,0,0,0,235.685,141.551Z" transform="translate(-205.496 -54.799)"/>
      <path id="Trazado_877829" data-name="Trazado 877829" d="M297.814,177.863a2.716,2.716,0,0,1-2.35-4.074l.916-1.586a2.716,2.716,0,0,1,4.7,2.716l-.916,1.586A2.725,2.725,0,0,1,297.814,177.863Zm.919-5.25a.952.952,0,0,0-.822.474L297,174.674a.948.948,0,0,0,.347,1.294.932.932,0,0,0,.472.127.952.952,0,0,0,.822-.474l.916-1.586a.948.948,0,0,0-.347-1.294A.932.932,0,0,0,298.734,172.614Z" transform="translate(-260.301 -82.198)"/>
      <path id="Trazado_877830" data-name="Trazado 877830" d="M166.713,177.863h0a2.725,2.725,0,0,1-2.354-1.358l-.916-1.586a2.716,2.716,0,1,1,4.7-2.716l.916,1.586a2.716,2.716,0,0,1-2.35,4.074Zm-.92-5.25a.932.932,0,0,0-.472.127.948.948,0,0,0-.347,1.294l.916,1.586a.952.952,0,0,0,.822.474h0a.947.947,0,0,0,.818-1.421l-.916-1.586A.952.952,0,0,0,165.793,172.614Z" transform="translate(-143.848 -82.198)"/>
      <path id="Trazado_877831" data-name="Trazado 877831" d="M407.516,92.247h0a3.711,3.711,0,0,1-3.7-3.71V83.806a6.149,6.149,0,0,1,12.3,0v.513a7.684,7.684,0,0,1-6.16,7.515l-1.7.34A3.733,3.733,0,0,1,407.516,92.247Zm2.445-12.821a4.385,4.385,0,0,0-4.38,4.38v4.731a1.94,1.94,0,0,0,1.934,1.941,1.974,1.974,0,0,0,.386-.039l1.7-.34a5.91,5.91,0,0,0,4.738-5.78v-.513A4.385,4.385,0,0,0,409.962,79.426Z" transform="translate(-356.193)"/>
      <path id="Trazado_877832" data-name="Trazado 877832" d="M332.9,243.016h-9.81a1.476,1.476,0,0,1-1.474-1.474v-6.117a4.421,4.421,0,0,1-1.511.265.9.9,0,0,1-.9-.884.872.872,0,0,1,.87-.884,2.666,2.666,0,0,0,1.826-.7.884.884,0,0,1,1.483.651v7.376H332.6V221.859a2.656,2.656,0,0,0-2.653-2.653h-4.887a2.648,2.648,0,0,0-2.522,1.828l-2.665,8.145a1.471,1.471,0,0,1-1.4,1.016h-5.786a.3.3,0,0,0-.295.295v1.368a2.066,2.066,0,0,0,2.064,2.064h1.489a.884.884,0,1,1,0,1.769h-1.489a3.837,3.837,0,0,1-3.833-3.833v-1.368a2.066,2.066,0,0,1,2.064-2.064h5.573l2.6-7.942a4.413,4.413,0,0,1,4.2-3.047h4.887a4.427,4.427,0,0,1,4.422,4.422v19.683A1.476,1.476,0,0,1,332.9,243.016Z" transform="translate(-273.994 -123.296)"/>
      <path id="Trazado_877833" data-name="Trazado 877833" d="M404.7,275.853a.884.884,0,0,1-.6-1.535,2.664,2.664,0,0,0,.691-1.031l3.216-8.68a.884.884,0,0,1,1.659.614l-3.216,8.68a4.441,4.441,0,0,1-1.153,1.718A.881.881,0,0,1,404.7,275.853Z" transform="translate(-356.193 -164.394)"/>
      <path id="Trazado_877834" data-name="Trazado 877834" d="M12.5,92.247a3.735,3.735,0,0,1-.733-.073l-1.7-.34a7.684,7.684,0,0,1-6.161-7.515v-.513a6.149,6.149,0,0,1,12.3,0v4.731A3.711,3.711,0,0,1,12.5,92.247ZM10.054,79.426a4.385,4.385,0,0,0-4.38,4.38v.513a5.91,5.91,0,0,0,4.739,5.78l1.7.34a1.968,1.968,0,0,0,.386.039,1.94,1.94,0,0,0,1.934-1.941V83.806A4.385,4.385,0,0,0,10.054,79.426Z" transform="translate(-3.445)"/>
      <path id="Trazado_877835" data-name="Trazado 877835" d="M11.284,243.016H1.474A1.476,1.476,0,0,1,0,241.542V221.859a4.427,4.427,0,0,1,4.422-4.422H9.309a4.413,4.413,0,0,1,4.2,3.047l.371,1.133a.884.884,0,1,1-1.681.55l-.371-1.133a2.648,2.648,0,0,0-2.522-1.828H4.422a2.656,2.656,0,0,0-2.653,2.653v19.388h9.221v-7.376a.884.884,0,0,1,1.483-.651,2.647,2.647,0,0,0,1.8.7h5.646a2.066,2.066,0,0,0,2.064-2.064v-1.368a.3.3,0,0,0-.295-.295H15.9a1.471,1.471,0,0,1-1.4-1.015l-.971-2.968a.884.884,0,0,1,1.681-.55l.9,2.764h5.573a2.066,2.066,0,0,1,2.064,2.064v1.368a3.837,3.837,0,0,1-3.833,3.833H14.269a4.421,4.421,0,0,1-1.511-.265v6.117A1.476,1.476,0,0,1,11.284,243.016Z" transform="translate(0 -123.296)"/>
      <path id="Trazado_877836" data-name="Trazado 877836" d="M63.12,275.853a.881.881,0,0,1-.6-.233,4.441,4.441,0,0,1-1.153-1.718l-3.216-8.681a.884.884,0,0,1,1.659-.614l3.216,8.68a2.664,2.664,0,0,0,.691,1.031.884.884,0,0,1-.6,1.535Z" transform="translate(-51.247 -164.394)"/>
    </g>
  </g>
</svg>
