<svg xmlns="http://www.w3.org/2000/svg" width="85" height="85" viewBox="0 0 85 85">
  <g id="Grupo_1106808" data-name="Grupo 1106808" transform="translate(-1125.051 -2962)">
    <rect id="Rectángulo_400898" data-name="Rectángulo 400898" width="85" height="85" rx="42.5" transform="translate(1125.051 2962)" fill="#fd5a37"/>
    <g id="idea_1_" data-name="idea (1)" transform="translate(1086.583 2969.002)">
      <path id="Trazado_877871" data-name="Trazado 877871" d="M391.133,236.47h-.621l.938-12.741h3.371a4.291,4.291,0,0,1,4.292,4.292v.469A7.98,7.98,0,0,1,391.133,236.47Z" transform="translate(-290.785 -192.452)" fill="#f9a58e"/>
      <path id="Trazado_877872" data-name="Trazado 877872" d="M67.948,236.47h.621l-.938-12.741H64.259a4.291,4.291,0,0,0-4.291,4.292v.469A7.98,7.98,0,0,0,67.948,236.47Z" transform="translate(-6.451 -192.452)" fill="#eaac9d"/>
      <path id="Trazado_877873" data-name="Trazado 877873" d="M156.324,425.3v-3.652c-3.581,2.449-7.535,3.852-10.214,3.852s-6.634-1.4-10.214-3.852V425.3a5.291,5.291,0,0,1-3,4.771l-4.317,2.071a.573.573,0,0,0,.248,1.089H163.4a.573.573,0,0,0,.248-1.089l-4.317-2.071A5.291,5.291,0,0,1,156.324,425.3Z" transform="translate(-65.187 -362.698)" fill="#ffcbbe"/>
      <path id="Trazado_877874" data-name="Trazado 877874" d="M152.584,66.034a20.057,20.057,0,1,0-40.006,0l1.364,18.518c.719,9.763,12.755,16.529,18.639,16.529s17.92-6.766,18.639-16.529l1.364-18.518Z" transform="translate(-51.659 -38.283)" fill="#ffcbbe"/>
      <path id="Trazado_877875" data-name="Trazado 877875" d="M201.172,51.145a20.034,20.034,0,0,1,8.357,17.806l-1.364,18.518C207.446,97.232,195.41,104,189.525,104a13.708,13.708,0,0,1-4.3-.841c3.495,2.316,7.3,3.637,9.894,3.637,5.884,0,17.92-6.766,18.639-16.529l1.364-18.518a20.068,20.068,0,0,0-13.949-20.6Z" transform="translate(-114.196 -43.995)" fill="#eaac9d"/>
      <path id="Trazado_877876" data-name="Trazado 877876" d="M173.166,105.065l-1.221-.569a1.749,1.749,0,0,1-.645-2.651,16.36,16.36,0,0,0-2.9-2.986,10.187,10.187,0,0,1-4.752,6.2,1.507,1.507,0,0,0-.708.975l-.3,1.317a1.46,1.46,0,0,1-1.423,1.136h-5.291a1.46,1.46,0,0,1-1.423-1.136l-.3-1.3a1.533,1.533,0,0,0-.718-.992,10.186,10.186,0,0,1-4.745-6.2,16.348,16.348,0,0,0-3.074,3.223c.016.03.032.061.046.092a1.748,1.748,0,0,1-.845,2.322l-.809.377a15.615,15.615,0,0,0-1.319,5.337,2.131,2.131,0,0,0,2.127,2.272h27.405a2.131,2.131,0,0,0,2.127-2.272,15.616,15.616,0,0,0-1.235-5.145Z" transform="translate(-77.649 -85.038)" fill="#9dc6fb"/>
      <path id="Trazado_877877" data-name="Trazado 877877" d="M174.4,110.21a15.615,15.615,0,0,0-1.235-5.145l-1.221-.569a1.749,1.749,0,0,1-.645-2.651,16.359,16.359,0,0,0-2.9-2.986,10.11,10.11,0,0,1-1.154,2.7,15.6,15.6,0,0,1,1.563,5.859,2.131,2.131,0,0,1-2.127,2.272h-23.9q-.026.261-.044.524a2.131,2.131,0,0,0,2.127,2.272h27.405A2.132,2.132,0,0,0,174.4,110.21Z" transform="translate(-77.649 -85.038)" fill="#80b4fb"/>
      <path id="Trazado_877878" data-name="Trazado 877878" d="M238.992,171.741h-6.6v-3.848a.145.145,0,0,1,.145-.145h6.312a.145.145,0,0,1,.145.145Z" transform="translate(-154.769 -144.298)" fill="#c6c1c8"/>
      <path id="Trazado_877879" data-name="Trazado 877879" d="M203.616,17.664a10.166,10.166,0,1,0-15.249,8.805,1.533,1.533,0,0,1,.718.992l.3,1.3A1.46,1.46,0,0,0,190.8,29.9H196.1a1.46,1.46,0,0,0,1.423-1.136l.3-1.317a1.507,1.507,0,0,1,.708-.975A10.161,10.161,0,0,0,203.616,17.664Z" transform="translate(-112.528 -6.45)" fill="#f6e781"/>
      <path id="Trazado_877880" data-name="Trazado 877880" d="M229.891,8.315a10.168,10.168,0,0,1-2.044,16.065,1.507,1.507,0,0,0-.708.975l-.3,1.317a1.46,1.46,0,0,1-1.423,1.136h-1.545a1.592,1.592,0,0,1,.127.355l.3,1.3a1.46,1.46,0,0,0,1.423,1.136h5.291a1.46,1.46,0,0,0,1.423-1.136l.3-1.317a1.507,1.507,0,0,1,.708-.975,10.168,10.168,0,0,0-3.548-18.861Z" transform="translate(-147.44 -7.153)" fill="#f4dd45"/>
      <path id="Trazado_877881" data-name="Trazado 877881" d="M359.386,69.912h-2.64a1.748,1.748,0,0,1,0-3.5h2.64a1.748,1.748,0,1,1,0,3.5Z" transform="translate(-260.237 -57.132)" fill="#fff9e2"/>
      <path id="Trazado_877882" data-name="Trazado 877882" d="M349.318,12.83l-2.392,1.116a1.748,1.748,0,1,1-1.477-3.168l2.392-1.116a1.748,1.748,0,1,1,1.477,3.168Z" transform="translate(-251.153 -8.171)" fill="#fff9e2"/>
      <path id="Trazado_877883" data-name="Trazado 877883" d="M349.318,116.629l-2.392-1.116a1.748,1.748,0,1,0-1.477,3.168l2.392,1.116a1.748,1.748,0,1,0,1.477-3.168Z" transform="translate(-251.153 -99.224)" fill="#fff9e2"/>
      <path id="Trazado_877884" data-name="Trazado 877884" d="M112.522,69.912h2.64a1.748,1.748,0,0,0,0-3.5h-2.64a1.748,1.748,0,1,0,0,3.5Z" transform="translate(-50.155 -57.132)" fill="#fff9e2"/>
      <path id="Trazado_877885" data-name="Trazado 877885" d="M124.106,12.83l2.392,1.116a1.748,1.748,0,1,0,1.477-3.168l-2.392-1.116a1.748,1.748,0,0,0-1.477,3.168Z" transform="translate(-60.755 -8.171)" fill="#fff9e2"/>
      <path id="Trazado_877886" data-name="Trazado 877886" d="M124.106,116.629l2.392-1.116a1.748,1.748,0,1,1,1.477,3.168l-2.392,1.116a1.748,1.748,0,0,1-1.477-3.168Z" transform="translate(-60.755 -99.224)" fill="#fff9e2"/>
      <g id="Grupo_1106807" data-name="Grupo 1106807" transform="translate(52.468 -0.001)">
        <path id="Trazado_877887" data-name="Trazado 877887" d="M104.036,30.229h-2.242l.177-2.4a21.026,21.026,0,0,0-4-14H99.15a2.8,2.8,0,0,0,0-5.592H96.51a2.8,2.8,0,0,0-2.477,1.5,21.2,21.2,0,0,0-2.322-1.6A11.218,11.218,0,0,0,80.651,0a11.032,11.032,0,0,0-4.968,1.3,1.049,1.049,0,0,0,.986,1.851A8.95,8.95,0,0,1,80.7,2.1a9.118,9.118,0,0,1,4.773,17.016,2.561,2.561,0,0,0-1.206,1.651l-.3,1.317a.409.409,0,0,1-.4.32H81.807v-3.88a3.868,3.868,0,0,0,2.813-3.716,1.049,1.049,0,0,0-2.1,0,1.764,1.764,0,0,1-3.528,0,1.049,1.049,0,1,0-2.1,0,3.868,3.868,0,0,0,2.813,3.716V22.4H78.277a.409.409,0,0,1-.4-.32l-.3-1.3a2.587,2.587,0,0,0-1.216-1.667A9.1,9.1,0,0,1,73.443,6.019a1.048,1.048,0,1,0-1.719-1.2,11.176,11.176,0,0,0-1.583,3.311,21.166,21.166,0,0,0-2.567,1.8,2.8,2.8,0,0,0-2.568-1.69h-2.64a2.8,2.8,0,1,0,0,5.592h1.511A21.186,21.186,0,0,0,61.724,17.5a2.83,2.83,0,0,0-.338.778,21.051,21.051,0,0,0-1.513,9.554l.177,2.4H57.808a5.346,5.346,0,0,0-5.34,5.34v.469a9.039,9.039,0,0,0,8.674,9.021l.095,1.287a14.455,14.455,0,0,0,1.509,5.38,1.048,1.048,0,1,0,1.878-.933,12.37,12.37,0,0,1-1.3-4.6c-.457-6.2-.842-11.436-1.364-18.518a18.873,18.873,0,0,1,.612-6.335,2.806,2.806,0,0,0,2.04.4,16.752,16.752,0,0,0-.571,3.367,3.182,3.182,0,0,0,3.173,3.39h20.54a1.049,1.049,0,0,0,0-2.1H85.271V23.837a2.506,2.506,0,0,0,.742-1.29l.3-1.317a.459.459,0,0,1,.21-.3,11.25,11.25,0,0,0,4.7-5.3,15.345,15.345,0,0,1,1.182,1.286,2.8,2.8,0,0,0,1.446,3.49l.852.4a14.575,14.575,0,0,1,1,4.437A1.082,1.082,0,0,1,94.625,26.4H92.652a1.049,1.049,0,0,0,0,2.1h1.972A3.182,3.182,0,0,0,97.8,25.1a16.752,16.752,0,0,0-.559-3.324,2.813,2.813,0,0,0,1.973-.638,18.876,18.876,0,0,1,.668,6.534L98.516,46.193c-.61,8.286-11.2,15.557-17.594,15.557-3.574,0-9.6-2.721-13.593-7.081a1.049,1.049,0,1,0-1.546,1.417A25.018,25.018,0,0,0,69.659,59.5v3.1a4.265,4.265,0,0,1-2.408,3.825L62.934,68.5a1.621,1.621,0,0,0,.7,3.083H98.208a1.621,1.621,0,0,0,.7-3.083l-4.317-2.072A4.265,4.265,0,0,1,92.185,62.6V59.487c4.337-3.109,8.021-7.695,8.422-13.14l.095-1.287a9.039,9.039,0,0,0,8.674-9.021v-.469A5.346,5.346,0,0,0,104.036,30.229ZM67.914,15.471a2.79,2.79,0,0,0-2.479-.19,19.038,19.038,0,0,1,4.277-4.355,11.238,11.238,0,0,0,.217,2.5,17.4,17.4,0,0,0-2.015,2.047Zm-6.246-4.438a.7.7,0,0,1,.7-.7h2.64a.7.7,0,1,1,0,1.4h-2.64A.7.7,0,0,1,61.668,11.032Zm-7.1,25.006v-.469a3.247,3.247,0,0,1,3.243-3.243h2.4l.782,10.625A6.94,6.94,0,0,1,54.565,36.038Zm11.574-10.8a14.559,14.559,0,0,1,1.078-4.625l.447-.209A2.8,2.8,0,0,0,69.2,17.215a15.332,15.332,0,0,1,1.416-1.58,11.221,11.221,0,0,0,4.7,5.292.485.485,0,0,1,.221.316l.3,1.3a2.506,2.506,0,0,0,.742,1.29V26.4H67.219A1.082,1.082,0,0,1,66.139,25.241ZM78.67,26.4V24.5h4.5v1.9ZM93.685,68.314l2.431,1.167H65.728l2.431-1.167a6.373,6.373,0,0,0,3.6-5.716V60.862a19.828,19.828,0,0,0,9.166,2.985,19.669,19.669,0,0,0,9.166-3V62.6a6.373,6.373,0,0,0,3.6,5.716ZM96.51,10.333h2.64a.7.7,0,1,1,0,1.4H96.51a.7.7,0,0,1-.465-.178l-.067-.068A.7.7,0,0,1,96.51,10.333Zm1.55,8.951a.7.7,0,0,1-.929.338l-2.392-1.116a.7.7,0,0,1,.591-1.267l2.392,1.116a.7.7,0,0,1,.338.929Zm-34.266-.929,2.392-1.116a.7.7,0,1,1,.591,1.267l-2.392,1.116a.7.7,0,0,1-.591-1.267Zm32.421-3.016a2.784,2.784,0,0,0-2.387.011,17.4,17.4,0,0,0-1.914-1.927,11.149,11.149,0,0,0,.218-2.5,19.05,19.05,0,0,1,4.43,4.575Zm11.063,20.7a6.94,6.94,0,0,1-6.422,6.913l.782-10.625h2.4a3.247,3.247,0,0,1,3.243,3.243Z" transform="translate(-52.468 0.001)" fill="#222221"/>
        <path id="Trazado_877888" data-name="Trazado 877888" d="M178.167,238.286h-8.355a1.049,1.049,0,1,0,0,2.1h8.355a1.049,1.049,0,0,0,0-2.1Z" transform="translate(-152.505 -204.973)" fill="#222221"/>
        <path id="Trazado_877889" data-name="Trazado 877889" d="M253.388,247.628v-5.5a1.746,1.746,0,0,1,1.744-1.744h5.563a1.049,1.049,0,0,0,0-2.1h-5.563a3.845,3.845,0,0,0-3.841,3.841v5.5a1.746,1.746,0,0,1-1.744,1.744,1.049,1.049,0,0,0,0,2.1A3.845,3.845,0,0,0,253.388,247.628Z" transform="translate(-221.094 -204.973)" fill="#222221"/>
        <path id="Trazado_877890" data-name="Trazado 877890" d="M201.111,368.737a1.048,1.048,0,0,0-.94,1.874l.878.44a14.4,14.4,0,0,0,12.859,0l.878-.44a1.048,1.048,0,0,0-.94-1.874l-.878.44a12.3,12.3,0,0,1-10.979,0Z" transform="translate(-179.024 -317.091)" fill="#222221"/>
        <path id="Trazado_877891" data-name="Trazado 877891" d="M201.822,33.6a1.048,1.048,0,0,0,1.076-1.021,5.68,5.68,0,0,1,5.481-5.467,1.049,1.049,0,0,0-.05-2.1,7.8,7.8,0,0,0-7.528,7.508A1.049,1.049,0,0,0,201.822,33.6Z" transform="translate(-180.064 -21.516)" fill="#222221"/>
        <path id="Trazado_877892" data-name="Trazado 877892" d="M338.775,8.542a2.778,2.778,0,0,0,2.138-.093l2.392-1.116a2.8,2.8,0,1,0-2.363-5.068l-2.393,1.116a2.8,2.8,0,0,0,.226,5.161Zm.3-2.866a.694.694,0,0,1,.361-.394l2.392-1.116a.7.7,0,1,1,.591,1.267l-2.393,1.116a.7.7,0,0,1-.952-.873Z" transform="translate(-297.165 -1.723)" fill="#222221"/>
        <path id="Trazado_877893" data-name="Trazado 877893" d="M117.207,7.333,119.6,8.448a2.8,2.8,0,0,0,2.363-5.068L119.57,2.264a2.8,2.8,0,0,0-2.363,5.068Zm.548-2.829a.7.7,0,0,1,.929-.338l2.392,1.116a.7.7,0,1,1-.591,1.267l-2.392-1.116a.7.7,0,0,1-.338-.929Z" transform="translate(-106.767 -1.722)" fill="#222221"/>
      </g>
    </g>
  </g>
</svg>
