<svg xmlns="http://www.w3.org/2000/svg" width="64" height="64" viewBox="0 0 64 64">
  <g id="Grupo_1106787" data-name="Grupo 1106787" transform="translate(-291.051 -2267)">
    <rect id="Rectángulo_403530" data-name="Rectángulo 403530" width="64" height="64" transform="translate(291.051 2267)" fill="none"/>
    <g id="consejo" transform="translate(287.572 2270.5)">
      <g id="Grupo_1106799" data-name="Grupo 1106799" transform="translate(9.465 7.75)">
        <g id="Grupo_1106788" data-name="Grupo 1106788" transform="translate(19.907 20.558)">
          <path id="Trazado_877825" data-name="Trazado 877825" d="M228.052,279.075h-3.467v4.374l-5.231-4.374H205.986a4.863,4.863,0,0,1-4.848-4.848V261.766a4.863,4.863,0,0,1,4.848-4.848h22.066a4.861,4.861,0,0,1,4.845,4.848v12.461A4.861,4.861,0,0,1,228.052,279.075Z" transform="translate(-201.138 -256.918)" fill="#23a8fe"/>
        </g>
        <g id="Grupo_1106789" data-name="Grupo 1106789" transform="translate(19.907 20.558)">
          <path id="Trazado_877826" data-name="Trazado 877826" d="M201.137,273.579V261.766a4.863,4.863,0,0,1,4.848-4.848h9.283v9.538a7.139,7.139,0,0,1-7.126,7.123Z" transform="translate(-201.137 -256.918)" fill="#0193fa"/>
        </g>
        <g id="Grupo_1106790" data-name="Grupo 1106790" transform="translate(0 12.786)">
          <path id="Trazado_877827" data-name="Trazado 877827" d="M22.418,207.413h3.467v5.009l6.463-5.009H44.484a4.861,4.861,0,0,0,4.848-4.845V190.1a4.861,4.861,0,0,0-4.848-4.845H22.418a4.86,4.86,0,0,0-4.845,4.845v12.464a4.86,4.86,0,0,0,4.845,4.845Z" transform="translate(-17.573 -185.259)" fill="#9da0df"/>
        </g>
        <g id="Grupo_1106791" data-name="Grupo 1106791" transform="translate(13.145 23.69)">
          <path id="Trazado_877828" data-name="Trazado 877828" d="M144.259,285.806v1.226a2.742,2.742,0,0,1-5.469,0v-1.226Z" transform="translate(-138.79 -285.806)" fill="#7ca1b1"/>
        </g>
        <g id="Grupo_1106792" data-name="Grupo 1106792" transform="translate(13.145 23.69)">
          <path id="Trazado_877829" data-name="Trazado 877829" d="M142.565,289.377a2.926,2.926,0,0,1-1.04.192,2.649,2.649,0,0,1-2.734-2.537v-1.226h2.08v1.226A2.557,2.557,0,0,0,142.565,289.377Z" transform="translate(-138.79 -285.806)" fill="#678d98"/>
        </g>
        <g id="Grupo_1106793" data-name="Grupo 1106793" transform="translate(10.904 20.031)">
          <path id="Trazado_877830" data-name="Trazado 877830" d="M128.071,252.066V254.8a1.362,1.362,0,0,1-1.405,1.3h-7.141a1.362,1.362,0,0,1-1.405-1.3v-2.731Z" transform="translate(-118.119 -252.066)" fill="#a8d3d8"/>
        </g>
        <g id="Grupo_1106794" data-name="Grupo 1106794" transform="translate(10.904 20.031)">
          <path id="Trazado_877831" data-name="Trazado 877831" d="M121.608,256.1h-2.083a1.362,1.362,0,0,1-1.405-1.3v-2.731H120.2V254.8A1.362,1.362,0,0,0,121.608,256.1Z" transform="translate(-118.119 -252.066)" fill="#8ebac5"/>
        </g>
        <g id="Grupo_1106795" data-name="Grupo 1106795" transform="translate(5.876)">
          <path id="Trazado_877832" data-name="Trazado 877832" d="M81.762,67.351a9.9,9.9,0,0,1,10,9.791c0,5.837-3.829,5.818-3.829,9.407a1.122,1.122,0,0,1-1.128,1.107H76.716a1.122,1.122,0,0,1-1.128-1.107c0-3.589-3.829-3.571-3.829-9.407A9.9,9.9,0,0,1,81.762,67.351Z" transform="translate(-71.758 -67.351)" fill="#fed402"/>
        </g>
        <g id="Grupo_1106796" data-name="Grupo 1106796" transform="translate(5.876)">
          <path id="Trazado_877833" data-name="Trazado 877833" d="M81.762,67.351c.353,0,.7.018,1.04.052a9.876,9.876,0,0,0-8.963,9.739c0,5.837,3.829,5.818,3.829,9.407a1.123,1.123,0,0,0,1.125,1.107H76.716a1.122,1.122,0,0,1-1.128-1.107c0-3.589-3.829-3.571-3.829-9.407A9.9,9.9,0,0,1,81.762,67.351Z" transform="translate(-71.758 -67.351)" fill="#ebc505"/>
        </g>
        <g id="Grupo_1106797" data-name="Grupo 1106797" transform="translate(12.884 7.011)">
          <path id="Trazado_877834" data-name="Trazado 877834" d="M139.374,137.987a2.994,2.994,0,1,0-3-3A3,3,0,0,0,139.374,137.987Z" transform="translate(-136.378 -131.998)" fill="#ffb74d"/>
        </g>
        <g id="Grupo_1106798" data-name="Grupo 1106798" transform="translate(0 12.786)">
          <path id="Trazado_877835" data-name="Trazado 877835" d="M18.942,202.568V190.1a4.86,4.86,0,0,1,4.845-4.845H22.418a4.86,4.86,0,0,0-4.845,4.845v12.464a4.86,4.86,0,0,0,4.845,4.845h1.369A4.86,4.86,0,0,1,18.942,202.568Z" transform="translate(-17.573 -185.259)" fill="#8286c6"/>
        </g>
      </g>
      <path id="Trazado_877836" data-name="Trazado 877836" d="M62.164,33.285v12.57A5.653,5.653,0,0,1,56.518,51.5h-2.74v3.654a.758.758,0,0,1-1.244.581L47.469,51.5H34.26a5.655,5.655,0,0,1-5.648-5.648v-.245a.758.758,0,0,1,1.516,0v.245a4.137,4.137,0,0,0,4.133,4.133H47.744a.757.757,0,0,1,.486.177l4.033,3.372V50.745a.758.758,0,0,1,.758-.758h3.5a4.136,4.136,0,0,0,4.13-4.133V33.285a4.136,4.136,0,0,0-4.13-4.133H44.032a.758.758,0,0,1,0-1.516H56.518a5.653,5.653,0,0,1,5.645,5.648Zm-20.08,4.731V25.443A5.669,5.669,0,0,0,37.925,20a.758.758,0,1,0-.4,1.461,4.15,4.15,0,0,1,3.045,3.985V38.016a4.136,4.136,0,0,1-4.133,4.13H24.194a.758.758,0,0,0-.464.159l-5.3,4.106V42.9a.758.758,0,0,0-.758-.758h-3.5a4.134,4.134,0,0,1-4.13-4.13V25.443a4.15,4.15,0,0,1,3.043-3.985.758.758,0,1,0-.4-1.461,5.669,5.669,0,0,0-4.155,5.446V38.016a5.652,5.652,0,0,0,5.645,5.645h2.74v4.3a.758.758,0,0,0,1.222.6l6.315-4.894H36.435a5.653,5.653,0,0,0,5.648-5.645ZM16.916,24.036a8.868,8.868,0,0,1-2.458-6.5,10.851,10.851,0,0,1,21.7,0,8.868,8.868,0,0,1-2.458,6.5,4.274,4.274,0,0,0-1.405,2.988,1.877,1.877,0,0,1-1.209,1.745v1.85a2.131,2.131,0,0,1-2.178,2.074h-.083v.1a3.522,3.522,0,0,1-7.032,0v-.1h-.086a2.129,2.129,0,0,1-2.175-2.074v-1.85a1.877,1.877,0,0,1-1.209-1.745A4.272,4.272,0,0,0,16.916,24.036Zm10.391,8.657h-4v.1a2.011,2.011,0,0,0,4,0Zm2.261-2.074V28.9H21.046v1.721a.624.624,0,0,0,.66.558h7.2a.626.626,0,0,0,.663-.558Zm-2.215-12.87A2.046,2.046,0,1,0,25.307,19.8,2.049,2.049,0,0,0,27.354,17.749Zm-11.379-.215a7.384,7.384,0,0,0,2.1,5.527,5.728,5.728,0,0,1,1.76,3.963.375.375,0,0,0,.38.359H24.55V21.232a3.562,3.562,0,1,1,1.516,0v6.151H30.4a.375.375,0,0,0,.38-.359,5.728,5.728,0,0,1,1.76-3.963,7.384,7.384,0,0,0,2.1-5.527,9.336,9.336,0,0,0-18.666,0ZM25.307,4.762A.758.758,0,0,0,26.065,4V1.258a.758.758,0,0,0-1.516,0V4A.758.758,0,0,0,25.307,4.762Zm6.306,1.644a.757.757,0,0,0,1.035-.277L34,3.791a.758.758,0,1,0-1.313-.758l-1.35,2.338a.758.758,0,0,0,.277,1.035Zm5.378,4.934a.754.754,0,0,0,.378-.1L39.6,9.949a.758.758,0,1,0-.757-1.313L36.612,9.925a.758.758,0,0,0,.379,1.414ZM9.237,18.086h2.411a.758.758,0,1,0,0-1.516H9.237a.758.758,0,0,0,0,1.516Zm28.972-.758a.758.758,0,0,0,.758.758h2.408a.758.758,0,1,0,0-1.516H38.966A.758.758,0,0,0,38.208,17.328Zm-27.2-7.379,2.23,1.289A.758.758,0,1,0,14,9.926L11.77,8.637a.758.758,0,0,0-.758,1.312Zm6.954-3.821a.758.758,0,1,0,1.313-.758l-1.35-2.338a.758.758,0,1,0-1.313.758Z"/>
    </g>
  </g>
</svg>
