<svg xmlns="http://www.w3.org/2000/svg" xmlns:xlink="http://www.w3.org/1999/xlink" width="400" height="453" viewBox="0 0 400 453">
  <defs>
    <clipPath id="clip-path">
      <rect id="Rectángulo_403108" data-name="Rectángulo 403108" width="366.896" height="267.277" fill="none"/>
    </clipPath>
    <clipPath id="clip-path-2">
      <rect id="Rectángulo_403115" data-name="Rectángulo 403115" width="400" height="453" transform="translate(180 773)" fill="#ebe7f3"/>
    </clipPath>
    <clipPath id="clip-path-3">
      <rect id="Rectángulo_403093" data-name="Rectángulo 403093" width="290.688" height="621.755" fill="none"/>
    </clipPath>
  </defs>
  <g id="Grupo_1106819" data-name="Grupo 1106819" transform="translate(-180 -773)">
    <rect id="Rectángulo_403116" data-name="Rectángulo 403116" width="283" height="255" transform="translate(194.915 903)" fill="#2a0967"/>
    <g id="Grupo_1106159" data-name="Grupo 1106159" transform="translate(206.467 792)">
      <rect id="Rectángulo_403094" data-name="Rectángulo 403094" width="353.057" height="266.343" transform="translate(0.933 0.933)" fill="#f2eadf"/>
      <path id="Trazado_875473" data-name="Trazado 875473" d="M0,0V267.275H1.867V1.867H353.057V267.275h1.868V0Z" transform="translate(0 0.001)" fill="#262626"/>
      <rect id="Rectángulo_403095" data-name="Rectángulo 403095" width="345.315" height="1.868" transform="translate(21.58 29.19)" fill="#262626"/>
      <rect id="Rectángulo_403096" data-name="Rectángulo 403096" width="345.315" height="1.867" transform="translate(21.58 40.743)" fill="#262626"/>
      <rect id="Rectángulo_403097" data-name="Rectángulo 403097" width="135.5" height="1.867" transform="translate(21.58 107.882)" fill="#262626"/>
      <rect id="Rectángulo_403098" data-name="Rectángulo 403098" width="127.128" height="1.868" transform="translate(231.394 185.518)" fill="#262626"/>
      <rect id="Rectángulo_403099" data-name="Rectángulo 403099" width="127.128" height="1.867" transform="translate(231.394 196.882)" fill="#262626"/>
      <rect id="Rectángulo_403100" data-name="Rectángulo 403100" width="127.128" height="1.867" transform="translate(231.394 208.244)" fill="#262626"/>
      <rect id="Rectángulo_403101" data-name="Rectángulo 403101" width="127.128" height="1.867" transform="translate(231.394 219.607)" fill="#262626"/>
      <rect id="Rectángulo_403102" data-name="Rectángulo 403102" width="127.128" height="1.868" transform="translate(231.394 230.967)" fill="#262626"/>
      <rect id="Rectángulo_403103" data-name="Rectángulo 403103" width="127.128" height="1.867" transform="translate(231.394 242.331)" fill="#262626"/>
      <g id="Grupo_1106158" data-name="Grupo 1106158">
        <g id="Grupo_1106157" data-name="Grupo 1106157" clip-path="url(#clip-path)">
          <path id="Trazado_875474" data-name="Trazado 875474" d="M21.548,10.921a5.1,5.1,0,1,1-5.1-5.1,5.1,5.1,0,0,1,5.1,5.1" transform="translate(9.84 5.046)" fill="#f35a38"/>
          <path id="Trazado_875475" data-name="Trazado 875475" d="M31.776,10.921a5.1,5.1,0,1,1-5.1-5.1,5.1,5.1,0,0,1,5.1,5.1" transform="translate(18.704 5.046)" fill="#73716e"/>
          <path id="Trazado_875476" data-name="Trazado 875476" d="M42,10.921a5.1,5.1,0,1,1-5.1-5.1,5.1,5.1,0,0,1,5.1,5.1" transform="translate(27.567 5.046)" fill="#73716e"/>
          <rect id="Rectángulo_403104" data-name="Rectángulo 403104" width="180.245" height="10.942" transform="translate(27.18 81.385)" fill="#01d2b5"/>
          <path id="Trazado_875477" data-name="Trazado 875477" d="M193.171,52.909H11.061V40.1h182.11ZM12.928,51.042H191.306V41.967H12.928Z" transform="translate(9.586 34.752)" fill="#262626"/>
          <rect id="Rectángulo_403105" data-name="Rectángulo 403105" width="180.245" height="10.942" transform="translate(27.18 128.359)" fill="#01d2b5"/>
          <path id="Trazado_875478" data-name="Trazado 875478" d="M193.171,78.074H11.061V65.265h182.11ZM12.928,76.207H191.306V67.132H12.928Z" transform="translate(9.586 56.56)" fill="#262626"/>
          <path id="Trazado_875479" data-name="Trazado 875479" d="M173.246,139.859a57.785,57.785,0,0,1-8.161-.579l5.8-40.653a18.249,18.249,0,0,0,3.121.147A16.333,16.333,0,1,0,160.96,71.7L130.1,44.606a57.4,57.4,0,1,1,45.32,95.211c-.808.026-1.49.043-2.171.043" transform="translate(112.745 21.719)" fill="#01d2b5"/>
          <path id="Trazado_875480" data-name="Trazado 875480" d="M174.662,123.46A46.2,46.2,0,1,1,192.647,34.7l-7.271,17.192a27.537,27.537,0,1,0-10.714,52.906c.371,0,.741-.011,1.113-.024a27.381,27.381,0,0,0,22.691-13.662l16.124,9.406a45.981,45.981,0,0,1-38.174,22.911c-.623.021-1.189.035-1.753.035" transform="translate(111.329 26.919)" fill="#fff"/>
          <path id="Trazado_875481" data-name="Trazado 875481" d="M213.913,139.684a5.055,5.055,0,0,1-4.172-1.742,3.331,3.331,0,0,1-.691-3.033c1.092-4.179,10.1-7.89,11.121-8.3l.693,1.734c-3.528,1.411-9.363,4.571-10.007,7.037a1.46,1.46,0,0,0,.336,1.389c.8.986,2.272,1.292,4.385.911,12.239-2.221,39.207-25.892,42.072-30.329a34.8,34.8,0,0,0-6.326.25c-4.166.375-9.35.84-13.221-.084-2.662-.633-3.909-1.7-4.472-2.7-4.564,3.254-12.273,7.192-18.728,7.827A25.868,25.868,0,0,1,200.78,110.4a15.15,15.15,0,0,0-4.282-1.331c-1.854-.172-3.1,1.042-4.538,2.451-1.521,1.488-3.244,3.175-5.936,3.175a3.24,3.24,0,0,1-2.763-1.288,5.3,5.3,0,0,1-1.686.267,12.3,12.3,0,0,1-6-2.139,12.731,12.731,0,0,0-4.822-1.956c-1.616-.2-3.194.775-4.859,1.805-2.078,1.286-4.433,2.746-7.271,2-3.059-.793-3.892-3.912-4.5-6.19-.364-1.363-.741-2.772-1.368-2.809-.9-.047-2.359,1.226-3.681,2.354-2.311,1.967-4.926,4.2-7.446,2.811a3.628,3.628,0,0,1-1.764-2.617,7.983,7.983,0,0,1-.129-1.868c-6.485,6.795-13.363,12.385-19.363,13.918a9.816,9.816,0,0,1-8.568-1.318c-4.594-3.341-5.335-9.167-2.143-16.852,6.046-14.556,24.761-32.011,31.115-30.986a6.692,6.692,0,0,1,4.915,3.13c2.671,4.385.353,11.575.254,11.879l-1.773-.582c.022-.065,2.148-6.683-.077-10.328a4.847,4.847,0,0,0-3.614-2.257c-5.029-.8-23.183,15.627-29.1,29.86-2.862,6.892-2.352,11.812,1.518,14.625a7.929,7.929,0,0,0,7.007,1.019c6.182-1.579,13.514-7.926,20.311-15.387,2.44-10.449,13.259-27.871,16.333-31.777,2.66-3.38,5.269-4.765,6.976-3.705,1.579.978,1.581,3.552,0,6.886-1.366,2.891-10.707,17.509-21.625,29.539a9.887,9.887,0,0,0-.215,3.832,1.834,1.834,0,0,0,.834,1.353c1.391.765,3.4-.945,5.335-2.6,1.745-1.488,3.379-2.925,5-2.8,1.973.114,2.527,2.188,3.061,4.192.569,2.135,1.159,4.342,3.164,4.863,2.061.53,3.888-.592,5.82-1.786,1.865-1.155,3.782-2.359,6.068-2.068a14.374,14.374,0,0,1,5.525,2.19,10.7,10.7,0,0,0,5.111,1.891,2.706,2.706,0,0,0,1.015-.159,8.106,8.106,0,0,1,1.5-5.3c.9-1.217,1.753-1.351,2.313-1.258.788.136,1.575.834,1.426,2.38a7.845,7.845,0,0,1-2.936,5.023,1.56,1.56,0,0,0,1.094.332c1.928,0,3.24-1.282,4.629-2.643,1.547-1.514,3.3-3.226,6.02-2.974a16.611,16.611,0,0,1,4.823,1.465,24.237,24.237,0,0,0,13.223,2.113c6.961-.685,14.6-5.094,18.487-7.957a4.03,4.03,0,0,1,1.327-2.514,2.326,2.326,0,0,1,2.333-.627,1.118,1.118,0,0,1,.709,1.215c-.08.588-.976,1.587-2.427,2.763.327.864,1.512,1.585,3.384,2.031,3.578.853,8.592.4,12.622.041,5.034-.452,7.491-.612,8.374.681,1.809,2.654-18.142,18.381-21.888,21.164-8,5.943-17.727,12.094-23.729,12.1m-27.9-32.659a6.046,6.046,0,0,0-1.514,3.31,6.656,6.656,0,0,0,.693-.92,4.682,4.682,0,0,0,.821-2.389M162.281,67.837c-.666,0-2.21.726-4.262,3.332-3.436,4.368-11.452,17.77-14.858,27.288,9.566-11.166,17.5-23.551,18.683-26.06,1.351-2.856,1.047-4.288.7-4.5a.516.516,0,0,0-.265-.06" transform="translate(93.346 57.163)" fill="#262626"/>
          <rect id="Rectángulo_403106" data-name="Rectángulo 403106" width="336.943" height="1.867" transform="translate(21.58 174.158)" fill="#262626"/>
          <rect id="Rectángulo_403107" data-name="Rectángulo 403107" width="63.951" height="38.867" transform="translate(21.58 201.963)" fill="#fff"/>
        </g>
      </g>
    </g>
    <g id="Grupo_1106160" data-name="Grupo 1106160" transform="translate(439 1075.104)">
      <rect id="Rectángulo_403109" data-name="Rectángulo 403109" width="119.963" height="134.394" transform="translate(0.423 0.423)" fill="#f2eadf"/>
      <path id="Trazado_875482" data-name="Trazado 875482" d="M0,0V134.817H.846V.846H119.963V134.817h.846V0Z" fill="#262626"/>
      <rect id="Rectángulo_403110" data-name="Rectángulo 403110" width="95.404" height="0.846" transform="translate(24.982 113.153)" fill="#262626"/>
      <path id="Trazado_875483" data-name="Trazado 875483" d="M57.33,107.57l-7.764,4.483,0-82.04,7.764-4.482Z" transform="translate(-7.621 -3.925)" fill="#fff"/>
      <path id="Trazado_875484" data-name="Trazado 875484" d="M57.33,117.155l-7.764,4.483V92.352L57.33,87.87Z" transform="translate(-7.621 -13.51)" fill="#73716e"/>
      <path id="Trazado_875485" data-name="Trazado 875485" d="M49.066,112.652V29.636l8.61-4.971v83.016Zm.845-82.528v81.062l6.917-3.993V26.131Z" transform="translate(-7.544 -3.792)" fill="#262626"/>
      <path id="Trazado_875486" data-name="Trazado 875486" d="M77.811,112.03l-7.764,4.483,0-92.938,7.764-4.483Z" transform="translate(-10.77 -2.935)" fill="#fff"/>
      <path id="Trazado_875487" data-name="Trazado 875487" d="M77.811,117.188l-7.764,4.483V57.123l7.763-4.482Z" transform="translate(-10.77 -8.094)" fill="#f35a38"/>
      <path id="Trazado_875488" data-name="Trazado 875488" d="M69.548,117.111V23.2l8.61-4.972V112.14Zm.845-93.426v91.96l6.917-3.993V19.692Z" transform="translate(-10.693 -2.802)" fill="#262626"/>
      <path id="Trazado_875489" data-name="Trazado 875489" d="M98.293,107.57l-7.764,4.483,0-82.04,7.764-4.482Z" transform="translate(-13.919 -3.925)" fill="#fff"/>
      <path id="Trazado_875490" data-name="Trazado 875490" d="M98.293,113.653l-7.764,4.483V69.576l7.764-4.483Z" transform="translate(-13.919 -10.008)" fill="#73716e"/>
      <path id="Trazado_875491" data-name="Trazado 875491" d="M90.029,112.652V29.636l8.61-4.971v83.016Zm.845-82.528v81.062l6.917-3.993V26.131Z" transform="translate(-13.842 -3.792)" fill="#262626"/>
      <rect id="Rectángulo_403111" data-name="Rectángulo 403111" width="0.846" height="97.42" transform="translate(24.384 16.157)" fill="#262626"/>
      <rect id="Rectángulo_403112" data-name="Rectángulo 403112" width="58.029" height="4.961" transform="translate(57.898 119.244)" fill="#f35a38"/>
      <path id="Trazado_875492" data-name="Trazado 875492" d="M123.793,143.214H64.918v-5.807h58.875Zm-58.028-.846h57.182v-4.114H65.764Z" transform="translate(-9.981 -21.126)" fill="#262626"/>
      <rect id="Rectángulo_403113" data-name="Rectángulo 403113" width="28.486" height="0.846" transform="translate(91.9 9.102)" fill="#262626"/>
      <rect id="Rectángulo_403114" data-name="Rectángulo 403114" width="28.486" height="0.846" transform="translate(91.9 14.339)" fill="#262626"/>
    </g>
    <g id="Enmascarar_grupo_1099780" data-name="Enmascarar grupo 1099780" clip-path="url(#clip-path-2)">
      <g id="Grupo_1106156" data-name="Grupo 1106156" transform="translate(206.467 907.968)">
        <g id="Grupo_1106155" data-name="Grupo 1106155" clip-path="url(#clip-path-3)">
          <path id="Trazado_875426" data-name="Trazado 875426" d="M137.775,35.355a1,1,0,0,1-.6-1.8L152.829,21.88a1,1,0,0,1,1.192,1.6L138.37,35.157a.986.986,0,0,1-.595.2" transform="translate(136.264 21.6)" fill="#73716e"/>
          <path id="Trazado_875427" data-name="Trazado 875427" d="M163.253,22.978,120.98,54.52l3.216,4.312,42.273-31.545a2.689,2.689,0,1,0-3.216-4.31" transform="translate(120.527 22.357)" fill="#262626"/>
          <path id="Trazado_875428" data-name="Trazado 875428" d="M125.332,39.287a2.689,2.689,0,1,1-3.763-.547,2.689,2.689,0,0,1,3.763.547" transform="translate(120.036 38.063)" fill="#73716e"/>
          <path id="Trazado_875429" data-name="Trazado 875429" d="M38.38,263.131,11.4,335.659l26.255,1.427,26.255-67.1Z" transform="translate(11.36 262.145)" fill="#ffbba1"/>
          <path id="Trazado_875430" data-name="Trazado 875430" d="M47.508,274.592l6.626,66.673,26.562-.537-7.3-71.464Z" transform="translate(47.33 268.255)" fill="#ffbba1"/>
          <path id="Trazado_875431" data-name="Trazado 875431" d="M51.077,94.646c-1.741,3.519-11.413,2.286-21.6-2.755s-17.036-11.98-15.293-15.5,11.411-2.286,21.6,2.755,17.036,11.979,15.3,15.5" transform="translate(13.859 74.108)" fill="#262626"/>
          <path id="Trazado_875432" data-name="Trazado 875432" d="M80.926,81.224c-1.188-22.53-1.188-22.53-2.254-42.34a16.614,16.614,0,0,0-33.182,0c-1.086,19.811-1.086,19.811-2.3,42.34.006.339-.028.673-.028,1.016a18.906,18.906,0,1,0,37.813,0c0-.343-.034-.677-.052-1.016" transform="translate(43.003 23.066)" fill="#ffbba1"/>
          <path id="Trazado_875433" data-name="Trazado 875433" d="M74.029,83.7A16.7,16.7,0,1,0,45.936,65.676c-17.086,28.712-29.928,50.312-44,73.989A13.769,13.769,0,0,0,25.1,154.527a1.086,1.086,0,0,0,.084-.112c15.633-22.632,29.9-43.281,48.846-70.717" transform="translate(0 57.282)" fill="#ffbba1"/>
          <path id="Trazado_875434" data-name="Trazado 875434" d="M160.012,137.01s-22.737,24.937-123.542,3.913Z" transform="translate(36.333 136.496)" fill="#262626"/>
          <path id="Trazado_875435" data-name="Trazado 875435" d="M102.157,174.019a34.227,34.227,0,0,0-68.451.617c.01,1.082.084,2.148.192,3.2a1.945,1.945,0,0,0,.016.264c7,67.9,9.4,91.1,14.139,137.071a23.13,23.13,0,0,0,46.1-1.046c2.683-46.211,4.02-69.5,7.947-137.837,0-.753.062-1.505.056-2.272" transform="translate(33.578 139.576)" fill="#0025d0"/>
          <path id="Trazado_875436" data-name="Trazado 875436" d="M87.114,237.688a23.143,23.143,0,0,0-46.281.685c0,.579.054,1.148.1,1.719,3.835,46.127,7.987,93.964,11.193,132.294l37.542-10.349c-.791-38.458-1.6-78.071-2.555-124.349" transform="translate(40.678 214.214)" fill="#001c9e"/>
          <path id="Trazado_875437" data-name="Trazado 875437" d="M130.969,195.512l22.49-63.4-107.083.655-11.67,37.981Z" transform="translate(34.576 131.615)" fill="#0025d0"/>
          <path id="Trazado_875438" data-name="Trazado 875438" d="M133.089,175.39a34.22,34.22,0,0,0-67.647-7.334,3.1,3.1,0,0,0-.084.331c-.012.056-.026.11-.036.164C50.727,235.04,44.872,261.708,34.973,306.8a23.786,23.786,0,0,0-.537,4.963,23.133,23.133,0,0,0,44.69,8.4c16.832-43.121,26.756-68.569,51.625-132.346a34.642,34.642,0,0,0,2.338-12.435" transform="translate(34.307 140.633)" fill="#0025d0"/>
          <path id="Trazado_875439" data-name="Trazado 875439" d="M98.1,246.9a23.136,23.136,0,1,0-43.335-16.166c-14.906,43.822-27.107,80.98-39.482,117.4L51.3,361.57c14.463-35.531,29.249-71.562,46.654-114.329.024-.054.044-.108.068-.164s.048-.118.072-.178" transform="translate(15.225 214.225)" fill="#0025d0"/>
          <path id="Trazado_875440" data-name="Trazado 875440" d="M54.341,193.124l-.1-1.992,22.476-1.11,12.812-37.5,1.888.647L78.169,191.948Z" transform="translate(54.04 151.953)" fill="#262626"/>
          <path id="Trazado_875441" data-name="Trazado 875441" d="M35.516,187.888l-1.351-1.469,7.821-7.185-1.493-33.08,1.994-.09,1.533,34.012Z" transform="translate(34.037 145.517)" fill="#262626"/>
          <path id="Trazado_875442" data-name="Trazado 875442" d="M52.347,299.381l-5.1,23.161h69.885V311.948s-29.561-1.323-36.04-16.771Z" transform="translate(47.072 294.071)" fill="#f35a38"/>
          <rect id="Rectángulo_403054" data-name="Rectángulo 403054" width="69.885" height="5.003" transform="translate(94.321 616.612)" fill="#73716e"/>
          <path id="Trazado_875443" data-name="Trazado 875443" d="M42.684,253.416l-1.95-.429,12.832-58.454a24.889,24.889,0,0,1-4.4-18.675L55.4,138.887l1.968.331-6.236,36.971a22.81,22.81,0,0,0,4.242,17.433l.275.367-.036.529Z" transform="translate(40.581 138.366)" fill="#262626"/>
          <path id="Trazado_875444" data-name="Trazado 875444" d="M118.731,46.324l32.948,35.651,18.906,145.381L47.044,231.269,71.492,173.9l-9.454-5.869L25.856,90.124,31.8,66.133Z" transform="translate(25.759 46.15)" fill="#f35a38"/>
          <path id="Trazado_875445" data-name="Trazado 875445" d="M83.6,148.7C69.7,137.212,43.81,115.926,22.54,98.435A13.768,13.768,0,1,0,6.368,120.657c23.212,14.828,51.475,32.868,66.675,42.57a9.14,9.14,0,0,0,4.851,1.417A8.981,8.981,0,0,0,83.6,148.7" transform="translate(0 94.928)" fill="#ffbba1"/>
          <path id="Trazado_875446" data-name="Trazado 875446" d="M152.055,45.793c-10.5,14.658-29.948,41.953-45.93,64.381a13.768,13.768,0,1,0,23.286,14.6c13.191-24.181,29.235-53.621,37.869-69.454a9.174,9.174,0,0,0,1.076-4.939,8.979,8.979,0,0,0-16.3-4.587" transform="translate(103.166 41.829)" fill="#ffbba1"/>
          <path id="Trazado_875447" data-name="Trazado 875447" d="M62.77,118.022a2.589,2.589,0,0,0-2.423-2.571c-3.715-.289-3.715-.289-9.283-.679a2.1,2.1,0,0,1-.273-.01,3.912,3.912,0,0,0,0,7.823,4.016,4.016,0,0,0,.81-.086l9.1-1.926a2.673,2.673,0,0,0,2.068-2.551" transform="translate(46.704 114.332)" fill="#ffbba1"/>
          <path id="Trazado_875448" data-name="Trazado 875448" d="M48.175,153.132l-1.184-1.607C82.72,125.2,93,98.4,93.1,98.137l1.87.695c-.1.273-10.546,27.6-46.794,54.3" transform="translate(46.815 97.769)" fill="#262626"/>
          <rect id="Rectángulo_403055" data-name="Rectángulo 403055" width="1.997" height="98.965" transform="translate(76.897 278.408) rotate(-81.746)" fill="#262626"/>
          <path id="Trazado_875449" data-name="Trazado 875449" d="M62.238,118.674a3.9,3.9,0,0,0-6.468-2.942c-5.917,5.118-6.933,6-14.686,12.732a5.2,5.2,0,0,0-1.767,3.877c0,2.837,7.23,8.368,7.23,8.368s9.474-13.6,14.692-19.426a3.976,3.976,0,0,0,1-2.609" transform="translate(39.17 114.331)" fill="#ffbba1"/>
          <path id="Trazado_875450" data-name="Trazado 875450" d="M162.046,102.154a1.193,1.193,0,0,0-.11-.09l-68.5-51.913A16.7,16.7,0,1,0,74.2,77.423c27.932,18.336,48.946,32.116,71.979,47.219a13.769,13.769,0,0,0,15.868-22.488" transform="translate(66.395 46.585)" fill="#ffbba1"/>
          <path id="Trazado_875451" data-name="Trazado 875451" d="M128.954,73.15,97.022,50.858A19.375,19.375,0,0,0,71.4,79.925c-.006.008.086.078.086.078A19.6,19.6,0,0,0,73.689,81.7l30.77,23.574c2.771,2.112,10.5-3.366,17.262-12.237s10-17.771,7.232-19.883" transform="translate(64.647 45.894)" fill="#f35a38"/>
          <path id="Trazado_875452" data-name="Trazado 875452" d="M65.685,75.546a19.383,19.383,0,0,0-36.963-8.2c-.307.661-14.676,27.211-14.676,27.211,1.741-3.519,11.413-2.288,21.6,2.753s17.036,11.982,15.3,15.5L63.212,85.008a19.04,19.04,0,0,0,1.457-3.3l.054-.122a19.6,19.6,0,0,0,.962-6.037" transform="translate(13.993 55.94)" fill="#f35a38"/>
          <rect id="Rectángulo_403056" data-name="Rectángulo 403056" width="13.254" height="1.996" transform="translate(146.251 616.341) rotate(-74.338)" fill="#f2eadf"/>
          <path id="Trazado_875453" data-name="Trazado 875453" d="M13.581,299.274l-4.973,22.59H76.77V311.531s-25.879-.341-32.2-15.409Z" transform="translate(8.576 295.012)" fill="#f35a38"/>
          <rect id="Rectángulo_403057" data-name="Rectángulo 403057" width="68.162" height="4.879" transform="translate(17.186 616.876)" fill="#73716e"/>
          <rect id="Rectángulo_403058" data-name="Rectángulo 403058" width="12.948" height="1.997" transform="translate(67.815 616.611) rotate(-74.7)" fill="#f2eadf"/>
          <rect id="Rectángulo_403059" data-name="Rectángulo 403059" width="1.996" height="5.003" transform="translate(95.996 616.612)" fill="#262626"/>
          <rect id="Rectángulo_403060" data-name="Rectángulo 403060" width="1.996" height="5.003" transform="translate(100.96 616.612)" fill="#262626"/>
          <rect id="Rectángulo_403061" data-name="Rectángulo 403061" width="1.996" height="5.003" transform="translate(105.925 616.612)" fill="#262626"/>
          <rect id="Rectángulo_403062" data-name="Rectángulo 403062" width="1.996" height="5.003" transform="translate(110.89 616.612)" fill="#262626"/>
          <rect id="Rectángulo_403063" data-name="Rectángulo 403063" width="1.996" height="5.003" transform="translate(115.854 616.612)" fill="#262626"/>
          <rect id="Rectángulo_403064" data-name="Rectángulo 403064" width="1.996" height="5.003" transform="translate(120.819 616.612)" fill="#262626"/>
          <rect id="Rectángulo_403065" data-name="Rectángulo 403065" width="1.996" height="5.003" transform="translate(125.784 616.612)" fill="#262626"/>
          <rect id="Rectángulo_403066" data-name="Rectángulo 403066" width="1.996" height="5.003" transform="translate(130.749 616.612)" fill="#262626"/>
          <rect id="Rectángulo_403067" data-name="Rectángulo 403067" width="1.996" height="5.003" transform="translate(135.713 616.612)" fill="#262626"/>
          <rect id="Rectángulo_403068" data-name="Rectángulo 403068" width="1.996" height="5.003" transform="translate(140.678 616.612)" fill="#262626"/>
          <rect id="Rectángulo_403069" data-name="Rectángulo 403069" width="1.996" height="5.003" transform="translate(145.643 616.612)" fill="#262626"/>
          <rect id="Rectángulo_403070" data-name="Rectángulo 403070" width="1.996" height="5.003" transform="translate(150.607 616.612)" fill="#262626"/>
          <rect id="Rectángulo_403071" data-name="Rectángulo 403071" width="1.996" height="5.003" transform="translate(155.572 616.612)" fill="#262626"/>
          <rect id="Rectángulo_403072" data-name="Rectángulo 403072" width="1.996" height="5.003" transform="translate(160.537 616.612)" fill="#262626"/>
          <rect id="Rectángulo_403073" data-name="Rectángulo 403073" width="1.996" height="4.879" transform="translate(18.793 616.876)" fill="#262626"/>
          <rect id="Rectángulo_403074" data-name="Rectángulo 403074" width="1.996" height="4.879" transform="translate(23.636 616.876)" fill="#262626"/>
          <rect id="Rectángulo_403075" data-name="Rectángulo 403075" width="1.996" height="4.879" transform="translate(28.479 616.876)" fill="#262626"/>
          <rect id="Rectángulo_403076" data-name="Rectángulo 403076" width="1.996" height="4.879" transform="translate(33.319 616.876)" fill="#262626"/>
          <rect id="Rectángulo_403077" data-name="Rectángulo 403077" width="1.996" height="4.879" transform="translate(38.162 616.876)" fill="#262626"/>
          <rect id="Rectángulo_403078" data-name="Rectángulo 403078" width="1.996" height="4.879" transform="translate(43.005 616.876)" fill="#262626"/>
          <rect id="Rectángulo_403079" data-name="Rectángulo 403079" width="1.996" height="4.879" transform="translate(47.846 616.876)" fill="#262626"/>
          <rect id="Rectángulo_403080" data-name="Rectángulo 403080" width="1.996" height="4.879" transform="translate(52.689 616.876)" fill="#262626"/>
          <rect id="Rectángulo_403081" data-name="Rectángulo 403081" width="1.996" height="4.879" transform="translate(57.53 616.876)" fill="#262626"/>
          <rect id="Rectángulo_403082" data-name="Rectángulo 403082" width="1.996" height="4.879" transform="translate(62.373 616.876)" fill="#262626"/>
          <rect id="Rectángulo_403083" data-name="Rectángulo 403083" width="1.996" height="4.879" transform="translate(67.216 616.876)" fill="#262626"/>
          <rect id="Rectángulo_403084" data-name="Rectángulo 403084" width="1.996" height="4.879" transform="translate(72.059 616.876)" fill="#262626"/>
          <rect id="Rectángulo_403085" data-name="Rectángulo 403085" width="1.996" height="4.879" transform="translate(76.902 616.876)" fill="#262626"/>
          <rect id="Rectángulo_403086" data-name="Rectángulo 403086" width="1.996" height="4.879" transform="translate(81.743 616.876)" fill="#262626"/>
          <path id="Trazado_875454" data-name="Trazado 875454" d="M141.334,26.513a1.639,1.639,0,0,0-.429-.016c-2.388.176-2.388.176-5.488.415a2.189,2.189,0,1,0,.729,4.3c3.006-.793,3.006-.793,5.32-1.407a1.686,1.686,0,0,0-.132-3.288" transform="translate(132.893 26.391)" fill="#262626"/>
          <path id="Trazado_875455" data-name="Trazado 875455" d="M145.484,33.659c-2.761-1.936-4.266-2.99-7.855-5.5a2.252,2.252,0,0,0-.864-.359,2.185,2.185,0,0,0-1.449,4.064c3.831,2.13,5.438,3.018,8.388,4.651a1.914,1.914,0,0,0,.513.184,1.684,1.684,0,0,0,1.268-3.036" transform="translate(133.676 27.656)" fill="#262626"/>
          <path id="Trazado_875456" data-name="Trazado 875456" d="M142.8,37.551c-.866-2.679-.866-2.679-2.044-6.294a2.215,2.215,0,0,0-1.691-1.475,2.18,2.18,0,0,0-2.322,3.176c1.771,3.366,1.771,3.366,3.088,5.853a1.65,1.65,0,0,0,1.142.836,1.621,1.621,0,0,0,1.886-1.306,1.6,1.6,0,0,0-.06-.791" transform="translate(135.969 29.634)" fill="#262626"/>
          <path id="Trazado_875457" data-name="Trazado 875457" d="M139.343,27.063c-2.956-.325-2.956-.325-6.418-.681-.09,0-.178-.014-.27-.014a2.641,2.641,0,1,0,0,5.282c.034,0,.068-.01.1-.012,3.41-.124,3.483-.126,6.2-.232a2.241,2.241,0,0,0,2.146-1.795,2.192,2.192,0,0,0-1.763-2.549" transform="translate(129.528 26.269)" fill="#262626"/>
          <path id="Trazado_875458" data-name="Trazado 875458" d="M140.148,29.009a2.637,2.637,0,0,0-4.476-1.894c-3.795,3.673-4.466,4.32-9.466,9.169a3.483,3.483,0,0,0,2.423,5.985,3.453,3.453,0,0,0,2.711-1.322c4.358-5.436,4.935-6.162,8.231-10.291a2.7,2.7,0,0,0,.577-1.647" transform="translate(124.677 26.269)" fill="#ffbba1"/>
          <path id="Trazado_875459" data-name="Trazado 875459" d="M142.783,27.794a2.171,2.171,0,0,0-1.507.279c-3.775,2.228-5.438,3.214-11.431,6.767a3.484,3.484,0,0,0,1.779,6.48,3.46,3.46,0,0,0,2.314-.9c5.2-4.631,6.642-5.919,9.911-8.841a2.235,2.235,0,0,0,.695-1.24,2.192,2.192,0,0,0-1.761-2.549" transform="translate(127.66 27.656)" fill="#ffbba1"/>
          <path id="Trazado_875460" data-name="Trazado 875460" d="M144.188,29.78a2.175,2.175,0,0,0-1.459.256c-3.717,2.074-3.717,2.074-9.614,5.382a3.518,3.518,0,0,0-1.777,3.038,3.473,3.473,0,0,0,5.839,2.553c4.977-4.577,4.977-4.577,8.1-7.46a2.236,2.236,0,0,0,.671-1.22,2.193,2.193,0,0,0-1.763-2.549" transform="translate(130.846 29.635)" fill="#ffbba1"/>
          <path id="Trazado_875461" data-name="Trazado 875461" d="M142.674,32.615a2.162,2.162,0,0,0-1.268.148l-4.537,1.974a3.484,3.484,0,0,0,1.349,6.7,3.464,3.464,0,0,0,2.757-1.375c1.872-2.423,1.872-2.423,3.046-3.955a2.3,2.3,0,0,0,.415-.938,2.192,2.192,0,0,0-1.763-2.549" transform="translate(134.23 32.457)" fill="#ffbba1"/>
          <path id="Trazado_875462" data-name="Trazado 875462" d="M132.466,34.015l.956,25.135a8.381,8.381,0,0,1-1.427,5l-14.2,21,24.388.329L155.078,62.4a17.759,17.759,0,0,0,2.236-7.911l.539-13L145.9,31.156Z" transform="translate(117.356 31.039)" fill="#ffbba1"/>
          <rect id="Rectángulo_403087" data-name="Rectángulo 403087" width="1.995" height="31.939" transform="matrix(0.572, -0.82, 0.82, 0.572, 165.143, 100.429)" fill="#262626"/>
          <path id="Trazado_875463" data-name="Trazado 875463" d="M79.174,156.383,60.589,144.658,26.527,71.315l1.811-.84,33.815,72.809,18.086,11.411Z" transform="translate(26.427 70.211)" fill="#262626"/>
          <path id="Trazado_875464" data-name="Trazado 875464" d="M63.928,318.513h-2c0-13.824-12.66-17.329-12.79-17.361l.511-1.93c.142.038,14.275,3.949,14.275,19.292" transform="translate(48.958 298.1)" fill="#f2eadf"/>
          <path id="Trazado_875465" data-name="Trazado 875465" d="M25.07,318.513h-2c0-13.78-12.267-17.224-12.79-17.361l.513-1.93c.142.038,14.273,3.949,14.273,19.292" transform="translate(10.245 298.1)" fill="#f2eadf"/>
          <rect id="Rectángulo_403088" data-name="Rectángulo 403088" width="69.885" height="1.996" transform="translate(94.321 615.614)" fill="#262626"/>
          <rect id="Rectángulo_403089" data-name="Rectángulo 403089" width="68.162" height="1.996" transform="translate(17.186 615.878)" fill="#262626"/>
          <path id="Trazado_875466" data-name="Trazado 875466" d="M80.338,1.329l21.344,15.816a9.906,9.906,0,0,1,3.242,4.138l.661,1.579a22.655,22.655,0,0,1,1.759,8.756,20.757,20.757,0,0,1-1.258,7.179c-.012.034,4.364,8.542,4.364,8.542a14.89,14.89,0,0,1,.755,11.828c-1.136,3.134-2.895,9.073-2.242,14.389A5.47,5.47,0,0,1,107.573,78a5.383,5.383,0,0,1-5.206,1.577L50.54,67.022,36.486,32.483,48.845,5.393Z" transform="translate(36.349 1.324)" fill="#ffbba1"/>
          <rect id="Rectángulo_403090" data-name="Rectángulo 403090" width="6.433" height="1.996" transform="translate(141.682 39.486) rotate(-47.839)" fill="#262626"/>
          <rect id="Rectángulo_403091" data-name="Rectángulo 403091" width="6.698" height="1.996" transform="matrix(0.588, -0.809, 0.809, 0.588, 139.836, 32.204)" fill="#262626"/>
          <path id="Trazado_875467" data-name="Trazado 875467" d="M91.962,42.91l4.627-3.274s-3.16-10.722,3.839-17.946L98.282,9.161,35.524,32.074,48.5,61.529a9.466,9.466,0,0,0,8.662,5.649h.116a9.462,9.462,0,0,0,8.1-4.569L80.9,36.927Z" transform="translate(35.391 9.127)" fill="#262626"/>
          <path id="Trazado_875468" data-name="Trazado 875468" d="M99.634,18.288A12.615,12.615,0,0,0,92.675,5.933L90.589,4.9A45.256,45.256,0,0,0,57.461,1.837c-11.329,3.442-22.787,11.6-23.294,30.447L36.876,41.2Z" transform="translate(34.039 0)" fill="#262626"/>
          <path id="Trazado_875469" data-name="Trazado 875469" d="M69.8,29.3,64.91,21.741l-5.532.9-3.611,6.32,3.272,10.668,9.2,4.571,2.425-1.13Z" transform="translate(55.558 21.66)" fill="#ffbba1"/>
          <path id="Trazado_875470" data-name="Trazado 875470" d="M60.664,37.3l-3.615-9.881,4.835-4.46,1.353,1.469L59.38,27.981l3.158,8.63Z" transform="translate(56.835 22.871)" fill="#262626"/>
          <path id="Trazado_875471" data-name="Trazado 875471" d="M49.222,15l-1.262-.08a4.817,4.817,0,0,0-4.7,2.827,4.845,4.845,0,0,1-4.234,2.891,9.849,9.849,0,0,0-8.939,6.428l-1.449,3.941a13.846,13.846,0,0,0-.463,8.015l1.4,5.8a5.664,5.664,0,0,1-.224,3.378,5.7,5.7,0,0,0,.924,5.739L35.6,60.314a6.7,6.7,0,0,0,5.138,2.4,6.759,6.759,0,0,1,2.112.327l1.942.631a6.69,6.69,0,0,0,6.713-1.545L56.314,57.5a14.358,14.358,0,0,0,3.911-14.054L53.574,18.568A4.818,4.818,0,0,0,49.222,15" transform="translate(27.69 14.859)" fill="#262626"/>
          <rect id="Rectángulo_403092" data-name="Rectángulo 403092" width="1.995" height="25.792" transform="translate(113.413 75.799) rotate(-76.378)" fill="#262626"/>
          <path id="Trazado_875472" data-name="Trazado 875472" d="M38.025,311.417l-1.861-.729L42.9,293.477,15.106,283.108l.7-1.87L45.5,292.315Z" transform="translate(15.05 280.183)" fill="#262626"/>
        </g>
      </g>
    </g>
  </g>
</svg>
