<svg xmlns="http://www.w3.org/2000/svg" xmlns:xlink="http://www.w3.org/1999/xlink" width="190" height="85" viewBox="0 0 190 85">
  <defs>
    <clipPath id="clip-path">
      <path id="path7857" d="M0-682.665H85v85H0Z" transform="translate(0 682.665)"/>
    </clipPath>
    <clipPath id="clip-path-2">
      <rect id="Rectángulo_401327" data-name="Rectángulo 401327" width="41.631" height="41.124" fill="#f7b71b"/>
    </clipPath>
    <clipPath id="clip-path-3">
      <rect id="Rectángulo_401337" data-name="Rectángulo 401337" width="47.623" height="41.084" transform="translate(0)" fill="#fd5a37"/>
    </clipPath>
  </defs>
  <g id="Grupo_1106749" data-name="Grupo 1106749" transform="translate(-1020.051 -436)">
    <g id="Grupo_1106746" data-name="Grupo 1106746" transform="translate(0 0.329)">
      <rect id="Rectángulo_402949" data-name="Rectángulo 402949" width="190" height="10.671" rx="5.336" transform="translate(1020.051 481)" fill="#340b81"/>
      <g id="g7851" transform="translate(1072.051 1118.336)">
        <g id="g7853" transform="translate(0 -682.665)">
          <g id="g7855" clip-path="url(#clip-path)">
            <g id="g7861" transform="translate(70.059 3.735)">
              <path id="path7863" d="M-35.019,0H-40V80.02h4.98a5,5,0,0,0,4.98-4.98V4.98A5,5,0,0,0-35.019,0" transform="translate(40)" fill="#fc9f63"/>
            </g>
            <g id="g7865" transform="translate(14.941 3.735)">
              <path id="path7867" d="M-422.568-35.019a5,5,0,0,0-4.98-4.98h-50.137a5,5,0,0,0-4.98,4.98V35.039a5,5,0,0,0,4.98,4.98h50.137a5,5,0,0,0,4.98-4.98V22.588L-450.126-1.235Z" transform="translate(482.665 40)" fill="#f9bb69"/>
            </g>
            <g id="g7869" transform="translate(4.98 44.741)">
              <path id="path7871" d="M-352.529,0l-35.2,21.582h-14.941a7.471,7.471,0,0,0,7.471,7.471h50.137Z" transform="translate(402.666)" fill="#e7e6e6"/>
            </g>
            <g id="g7873" transform="translate(55.117 44.741)">
              <path id="path7875" d="M0,0V21.582a7.471,7.471,0,0,0,7.471,7.471h4.98V0Z" fill="#d0cdcd"/>
            </g>
            <g id="g7877" transform="translate(65.078 8.716)">
              <path id="path7879" d="M-35.019,0-40,64.651a7.456,7.456,0,0,0,2.49.427,7.471,7.471,0,0,0,7.471-7.471V0Z" transform="translate(40)" fill="#e7e6e6"/>
            </g>
            <g id="g7881" transform="translate(19.922 8.716)">
              <path id="path7883" d="M-228.41,0a4.98,4.98,0,0,1-4.98,4.98A4.981,4.981,0,0,1-238.371,0h-22.523V57.607h40.176a7.473,7.473,0,0,0,4.98,7.044,7.473,7.473,0,0,0,4.98-7.044V0Z" transform="translate(260.894)" fill="#fff"/>
            </g>
            <g id="g7885" transform="translate(54.951 13.696)">
              <path id="path7887" d="M-17.507,0H-20l2.49,4.98h4.98A4.981,4.981,0,0,0-17.507,0" transform="translate(19.997)" fill="#9c9897"/>
            </g>
            <g id="g7889" transform="translate(32.539 1.245)">
              <path id="path7891" d="M-105.058-70.039a2.49,2.49,0,0,1-2.49-2.49,2.49,2.49,0,0,1,2.49-2.49,2.49,2.49,0,0,1,2.49,2.49,2.49,2.49,0,0,1-2.49,2.49m7.471,2.49s0-4.98,0-4.98A7.471,7.471,0,0,0-105.058-80a7.471,7.471,0,0,0-7.471,7.471v4.98h-2.49a4.981,4.981,0,0,0-4.98,4.98h24.9c0-2.75-1.115-4.98-2.49-4.98" transform="translate(120 80)" fill="#b8b4b3"/>
            </g>
            <g id="g7893" transform="translate(51.382 38.765)">
              <path id="path7895" d="M-6.265-22.529a1.241,1.241,0,0,1-.88-.365l-2.49-2.49a1.245,1.245,0,0,1,0-1.761,1.245,1.245,0,0,1,1.761,0l1.61,1.61,4.1-4.1a1.245,1.245,0,0,1,1.761,0,1.245,1.245,0,0,1,0,1.761l-4.98,4.98A1.241,1.241,0,0,1-6.265-22.529Z" transform="translate(10 30)"/>
            </g>
            <g id="g7897" transform="translate(51.382 28.804)">
              <path id="path7899" d="M-6.265-22.529a1.241,1.241,0,0,1-.88-.365l-2.49-2.49a1.245,1.245,0,0,1,0-1.761,1.245,1.245,0,0,1,1.761,0l1.61,1.61,4.1-4.1a1.245,1.245,0,0,1,1.761,0,1.245,1.245,0,0,1,0,1.761l-4.98,4.98A1.241,1.241,0,0,1-6.265-22.529Z" transform="translate(10 30)"/>
            </g>
            <g id="g7901" transform="translate(51.382 48.726)">
              <path id="path7903" d="M-6.265-22.529a1.241,1.241,0,0,1-.88-.365l-2.49-2.49a1.245,1.245,0,0,1,0-1.761,1.245,1.245,0,0,1,1.761,0l1.61,1.61,4.1-4.1a1.245,1.245,0,0,1,1.761,0,1.245,1.245,0,0,1,0,1.761l-4.98,4.98A1.241,1.241,0,0,1-6.265-22.529Z" transform="translate(10 30)"/>
            </g>
            <g id="g7905" transform="translate(31.294 41.255)">
              <path id="path7907" d="M-114.98-7.51h-15.107a1.245,1.245,0,0,1-1.245-1.245A1.245,1.245,0,0,1-130.088-10h15.107a1.245,1.245,0,0,1,1.245,1.245A1.245,1.245,0,0,1-114.98-7.51Z" transform="translate(131.333 10)"/>
            </g>
            <g id="g7909" transform="translate(31.294 31.294)">
              <path id="path7911" d="M-114.98-7.51h-15.107a1.245,1.245,0,0,1-1.245-1.245A1.245,1.245,0,0,1-130.088-10h15.107a1.245,1.245,0,0,1,1.245,1.245A1.245,1.245,0,0,1-114.98-7.51Z" transform="translate(131.333 10)"/>
            </g>
            <g id="g7913" transform="translate(31.294 51.216)">
              <path id="path7915" d="M-114.98-7.51h-15.107a1.245,1.245,0,0,1-1.245-1.245A1.245,1.245,0,0,1-130.088-10h15.107a1.245,1.245,0,0,1,1.245,1.245A1.245,1.245,0,0,1-114.98-7.51Z" transform="translate(131.333 10)"/>
            </g>
            <g id="g7917" transform="translate(3.735 7.471)">
              <path id="path7919" d="M-352,57.568h-55.117a8.726,8.726,0,0,1-8.716-8.716,1.245,1.245,0,0,1,1.245-1.245h55.117a1.245,1.245,0,0,1,1.245,1.245A6.233,6.233,0,0,0-352,55.078a6.233,6.233,0,0,0,6.226-6.226V-7.51h-18.282a1.245,1.245,0,0,1-1.245-1.245A1.245,1.245,0,0,1-364.061-10h19.527a1.245,1.245,0,0,1,1.245,1.245V48.853A8.726,8.726,0,0,1-352,57.568ZM-413.222,50.1a6.237,6.237,0,0,0,6.1,4.98H-358.1a8.7,8.7,0,0,1-2.533-4.98Z" transform="translate(415.838 10)"/>
            </g>
            <g id="g7921" transform="translate(18.677 7.471)">
              <path id="path7923" d="M-164.706,50.1a1.245,1.245,0,0,1-1.245-1.245V-8.755A1.245,1.245,0,0,1-164.706-10h19.418a1.245,1.245,0,0,1,1.245,1.245,1.245,1.245,0,0,1-1.245,1.245h-18.173V48.853A1.245,1.245,0,0,1-164.706,50.1Z" transform="translate(165.952 10)"/>
            </g>
            <g id="g7925" transform="translate(13.696 2.49)">
              <path id="path7927" d="M-8.755-412.568A1.245,1.245,0,0,1-10-413.813V-466.44a6.233,6.233,0,0,1,6.226-6.226H18.165a1.245,1.245,0,0,1,1.245,1.245,1.245,1.245,0,0,1-1.245,1.245H-3.774A3.74,3.74,0,0,0-7.51-466.44v52.627A1.245,1.245,0,0,1-8.755-412.568Z" transform="translate(10 472.666)"/>
            </g>
            <g id="g7929" transform="translate(13.696 2.49)">
              <path id="path7931" d="M-254.246,72.51h-55.117a6.233,6.233,0,0,1-6.226-6.226V61.3a1.245,1.245,0,0,1,1.245-1.245A1.245,1.245,0,0,1-313.1,61.3v4.98a3.74,3.74,0,0,0,3.735,3.735h55.117a3.74,3.74,0,0,0,3.735-3.735V-3.774a3.74,3.74,0,0,0-3.735-3.735h-22.048a1.245,1.245,0,0,1-1.245-1.245A1.245,1.245,0,0,1-276.294-10h22.048a6.233,6.233,0,0,1,6.226,6.226V66.284A6.233,6.233,0,0,1-254.246,72.51Z" transform="translate(315.589 10)"/>
            </g>
            <g id="g7933" transform="translate(31.294 0)">
              <path id="path7935" d="M-53.813-70A8.726,8.726,0,0,1-45.1-61.284v3.735h1.245a6.233,6.233,0,0,1,6.226,6.226,1.245,1.245,0,0,1-1.245,1.245H-68.755A1.245,1.245,0,0,1-70-51.323a6.233,6.233,0,0,1,6.226-6.226h1.245v-3.735A8.726,8.726,0,0,1-53.813-70ZM-40.33-52.568a3.742,3.742,0,0,0-3.522-2.49h-2.49A1.245,1.245,0,0,1-47.588-56.3v-4.98a6.233,6.233,0,0,0-6.226-6.226,6.233,6.233,0,0,0-6.226,6.226v4.98a1.245,1.245,0,0,1-1.245,1.245h-2.49a3.742,3.742,0,0,0-3.522,2.49Z" transform="translate(70 70)"/>
            </g>
            <g id="g7937" transform="translate(43.745 4.98)">
              <path id="path7939" d="M-46.265-30a3.74,3.74,0,0,1,3.735,3.735,3.74,3.74,0,0,1-3.735,3.735A3.74,3.74,0,0,1-50-26.265,3.74,3.74,0,0,1-46.265-30Zm0,4.98a1.247,1.247,0,0,0,1.245-1.245,1.247,1.247,0,0,0-1.245-1.245,1.247,1.247,0,0,0-1.245,1.245A1.247,1.247,0,0,0-46.265-25.019Z" transform="translate(50 30)"/>
            </g>
          </g>
        </g>
      </g>
    </g>
    <g id="Grupo_1106747" data-name="Grupo 1106747" transform="translate(1032.185 458)">
      <g id="Grupo_1099412" data-name="Grupo 1099412" transform="translate(0 0)" clip-path="url(#clip-path-2)">
        <path id="Trazado_873512" data-name="Trazado 873512" d="M23.6,41.124c.224-1.627.445-3.188.647-4.752.032-.251.135-.3.366-.341a12.259,12.259,0,0,0,4.332-1.682.46.46,0,0,1,.568.006c1.319.874,2.643,1.738,3.993,2.623,1.253-1.368,2.616-2.628,3.893-3.962-.915-1.288-1.8-2.549-2.707-3.8a.545.545,0,0,1-.015-.728,11.563,11.563,0,0,0,1.617-3.944c.153-.65.161-.642.829-.709,1.261-.125,2.523-.251,3.782-.39.722-.08.72-.091.72-.832,0-1.525-.01-3.051.007-4.576,0-.364-.118-.449-.471-.473-.85-.057-1.7-.179-2.545-.274-.553-.062-1.1-.133-1.659-.179-.37-.031-.592-.123-.67-.565a10.615,10.615,0,0,0-1.855-4.378L37.381,7.9,33.526,4.024c-.33.22-.638.428-.95.63-1.089.707-2.182,1.408-3.266,2.124a.314.314,0,0,1-.392-.015,13.749,13.749,0,0,0-3.78-1.629l-.074-.023c-.937-.277-.907-.279-.972-1.287C24.01,2.547,23.809,1.283,23.6,0h-5.59c-.111.952-.23,1.886-.327,2.822a15.52,15.52,0,0,0-.162,1.9c0,.206-.131.236-.3.271A13.267,13.267,0,0,0,12.75,6.742a.419.419,0,0,1-.526-.023C10.991,5.9,9.743,5.1,8.51,4.284a.415.415,0,0,0-.633.052Q6.22,6.025,4.531,7.681c-.217.213-.21.353-.043.589.833,1.174,1.64,2.368,2.475,3.541a.565.565,0,0,1,.025.747,10.623,10.623,0,0,0-1.6,4.145c-.029.206-.123.318-.382.338-.721.054-1.438.165-2.157.251-.809.1-1.617.2-2.427.277-.239.022-.332.065-.347.329C-.019,19.59.013,21.282,0,22.973c0,.262.036.375.35.406,1.26.125,2.516.3,3.774.449a4.742,4.742,0,0,1,.93.074c.154.049.242.095.274.269a12.777,12.777,0,0,0,.984,3.108A8.944,8.944,0,0,0,7,28.5a.486.486,0,0,1-.047.633C6.15,30.31,5.36,31.5,4.535,32.667c-.231.327-.18.509.091.772,1.011.979,2,1.983,2.992,2.981.491.493.49.5,1.093.12q1.7-1.071,3.387-2.153a.52.52,0,0,1,.635-.012,13.754,13.754,0,0,0,4.224,1.658c.322.067.478.149.515.551.133,1.428.347,2.848.524,4.272.021.172.089.268.265.268H23.6M10.644,20.595A10.2,10.2,0,1,1,20.766,30.7a10.15,10.15,0,0,1-10.122-10.1" transform="translate(0)" fill="#f7b71b"/>
      </g>
    </g>
    <g id="Grupo_1106748" data-name="Grupo 1106748" transform="translate(1162.377 458)">
      <g id="Grupo_1099426" data-name="Grupo 1099426" transform="translate(0)" clip-path="url(#clip-path-3)">
        <path id="Trazado_873520" data-name="Trazado 873520" d="M45.206,0H2.417A2.425,2.425,0,0,0,0,2.417V30.044a2.424,2.424,0,0,0,2.417,2.417H7.906L5.641,40.384c-.182.639.137.886.71.549l14.4-8.472H45.206a2.425,2.425,0,0,0,2.417-2.417V2.417A2.425,2.425,0,0,0,45.206,0" transform="translate(0)" fill="#fd5a37"/>
        <path id="Trazado_873521" data-name="Trazado 873521" d="M86.823,158.641a3.22,3.22,0,1,0,3.22-3.221,3.221,3.221,0,0,0-3.22,3.221" transform="translate(-52.909 -142.41)" fill="#fff"/>
        <path id="Trazado_873522" data-name="Trazado 873522" d="M237.67,158.641a3.22,3.22,0,1,0,3.22-3.221,3.22,3.22,0,0,0-3.22,3.221" transform="translate(-216.383 -142.41)" fill="#fff"/>
        <path id="Trazado_873523" data-name="Trazado 873523" d="M388.518,158.641a3.22,3.22,0,1,0,3.22-3.221,3.221,3.221,0,0,0-3.22,3.221" transform="translate(-379.858 -142.41)" fill="#fff"/>
      </g>
    </g>
  </g>
</svg>
