<svg xmlns="http://www.w3.org/2000/svg" width="85.051" height="85" viewBox="0 0 85.051 85">
  <g id="Grupo_1106804" data-name="Grupo 1106804" transform="translate(-180 -2750)">
    <rect id="Rectángulo_400898" data-name="Rectángulo 400898" width="85" height="85" rx="42.5" transform="translate(180 2750)" fill="#017e6d"/>
    <rect id="Rectángulo_400907" data-name="Rectángulo 400907" width="85" height="85" rx="42.5" transform="translate(180.051 2750)" fill="none"/>
    <g id="conocimiento" transform="translate(153.581 2758)">
      <path id="Trazado_877837" data-name="Trazado 877837" d="M97.361,75.65a7.844,7.844,0,0,0-3.827-10.223,7.848,7.848,0,0,0-7.825-9.555,7.852,7.852,0,0,0-4.626-5.658,12.517,12.517,0,1,0-23.677,0,7.847,7.847,0,0,0-4.627,5.658,7.847,7.847,0,0,0-7.825,9.555,7.848,7.848,0,0,0-1.348,13.36,7.842,7.842,0,0,0,9.022,11.53,7.848,7.848,0,0,0,15.688-.351s0,0,0,0V68.723h1.853v21.24h0a7.848,7.848,0,0,0,15.688.353A7.845,7.845,0,0,0,95.3,79.576a8.119,8.119,0,0,0-.414-.788A7.8,7.8,0,0,0,97.361,75.65Zm-28.117-40.6A11.121,11.121,0,0,1,74,56.227c-.014.007-.027.017-.041.024s-.043.025-.064.041a.4.4,0,0,0-.053.043.489.489,0,0,0-.049.045c-.015.017-.029.035-.045.053s-.027.035-.038.053a.609.609,0,0,0-.032.059c-.01.021-.021.041-.029.061a.582.582,0,0,0-.02.066c-.006.021-.013.042-.017.064a.714.714,0,0,0-.007.077c0,.015-.006.031-.006.046v.795H64.887v-.795c0-.018,0-.034-.006-.052a.592.592,0,0,0-.007-.07.665.665,0,0,0-.018-.071.391.391,0,0,0-.018-.057.6.6,0,0,0-.031-.068c-.01-.018-.018-.035-.029-.053a.546.546,0,0,0-.042-.057c-.013-.017-.027-.034-.041-.049a.579.579,0,0,0-.053-.049.471.471,0,0,0-.049-.041c-.021-.015-.045-.028-.068-.042s-.024-.015-.038-.022a11.121,11.121,0,0,1,4.757-21.173ZM68.128,61.7H73.6v1.109H68.128a.7.7,0,0,0,0,1.4H73.6v1.162H64.887V59.051H73.6v1.256H68.128a.7.7,0,0,0,0,1.4ZM66.921,89.959s0,0,0,0a6.451,6.451,0,1,1-6.45-6.452.7.7,0,1,0,0-1.4,7.861,7.861,0,0,0-7.765,6.7,6.45,6.45,0,0,1-8.237-8.665,6.289,6.289,0,0,1,.665-1.143A6.469,6.469,0,0,1,53,76.935a.7.7,0,1,0,.577-1.271,7.874,7.874,0,0,0-9.154,1.992,6.449,6.449,0,0,1,.96-10.885l.034.084a7.851,7.851,0,0,0,10.33,4.06.7.7,0,0,0-.559-1.281A6.458,6.458,0,0,1,46.7,66.3a6.58,6.58,0,0,1-.25-.673,6.448,6.448,0,0,1,6.174-8.353c0,.057,0,.115,0,.172a7.857,7.857,0,0,0,7.849,7.849.7.7,0,1,0,0-1.4,6.459,6.459,0,0,1-6.452-6.452,6.105,6.105,0,0,1,.045-.753,6.45,6.45,0,0,1,3.871-5.18,12.572,12.572,0,0,0,5.556,5.784v.362h-.461a.7.7,0,0,0,0,1.4h.461v7.02a.7.7,0,0,0,.7.7h1.9v1.255a.7.7,0,0,0,.7.7h.138V89.959Zm4.088-22.633H67.482V66.77h3.528Zm23.054,10.33a7.874,7.874,0,0,0-9.154-1.992.7.7,0,0,0,.577,1.273,6.467,6.467,0,0,1,7.873,2.075,6.293,6.293,0,0,1,.664,1.14,6.45,6.45,0,0,1-8.237,8.665,7.861,7.861,0,0,0-7.764-6.7.7.7,0,1,0,0,1.4,6.452,6.452,0,1,1-6.452,6.452h0V68.723h.14a.7.7,0,0,0,.7-.7V66.77H74.3a.7.7,0,0,0,.7-.7V64.21h.462a.7.7,0,0,0,0-1.4H75V61.7h.462a.7.7,0,0,0,0-1.4H75V59.051h.462a.7.7,0,1,0,0-1.4H75v-.362a12.572,12.572,0,0,0,5.556-5.784,6.452,6.452,0,0,1,3.871,5.183,6.308,6.308,0,0,1,.045.75,6.459,6.459,0,0,1-6.452,6.452.7.7,0,1,0,0,1.4,7.857,7.857,0,0,0,7.849-7.849c0-.057,0-.115,0-.172a6.448,6.448,0,0,1,6.174,8.355,6.6,6.6,0,0,1-.25.672,6.459,6.459,0,0,1-8.49,3.338.7.7,0,0,0-.559,1.281,7.851,7.851,0,0,0,10.33-4.061l.034-.082a6.451,6.451,0,0,1,.96,10.885Z" transform="translate(0 -28.955)" fill="#23130d"/>
      <rect id="Rectángulo_403531" data-name="Rectángulo 403531" width="3.528" height="0.556" transform="translate(67.482 37.815)" fill="#636368"/>
      <g id="Grupo_1106800" data-name="Grupo 1106800" transform="translate(41.868 22.553)">
        <path id="Trazado_877838" data-name="Trazado 877838" d="M287.57,185.01a6.405,6.405,0,0,1-2.017,2.565,7.874,7.874,0,0,0-9.154-1.992.7.7,0,0,0,.577,1.273,6.467,6.467,0,0,1,7.873,2.075,6.292,6.292,0,0,1,.664,1.14,6.45,6.45,0,0,1-8.237,8.665,7.861,7.861,0,0,0-7.764-6.7.7.7,0,1,0,0,1.4,6.452,6.452,0,1,1-6.452,6.452h0V178.642h.14a.7.7,0,0,0,.7-.7v-1.255h1.894a.7.7,0,0,0,.7-.7v-1.861h.462a.7.7,0,0,0,0-1.4h-.462v-1.109h.462a.7.7,0,0,0,0-1.4h-.462V168.97h.462a.7.7,0,1,0,0-1.4h-.462v-.362a12.572,12.572,0,0,0,5.556-5.784,6.452,6.452,0,0,1,3.871,5.183,6.305,6.305,0,0,1,.045.75,6.459,6.459,0,0,1-6.452,6.452.7.7,0,0,0,0,1.4,7.857,7.857,0,0,0,7.849-7.849c0-.057,0-.115,0-.172a6.448,6.448,0,0,1,6.174,8.355,6.6,6.6,0,0,1-.25.672,6.459,6.459,0,0,1-8.49,3.338.7.7,0,0,0-.559,1.281,7.851,7.851,0,0,0,10.33-4.061l.034-.082a6.447,6.447,0,0,1,2.977,8.32Z" transform="translate(-233.358 -161.427)" fill="#f8d3c9"/>
        <path id="Trazado_877839" data-name="Trazado 877839" d="M75.528,178.642v21.236s0,0,0,0a6.451,6.451,0,1,1-6.45-6.452.7.7,0,0,0,0-1.4,7.861,7.861,0,0,0-7.765,6.7,6.45,6.45,0,0,1-8.237-8.665,6.289,6.289,0,0,1,.665-1.143,6.469,6.469,0,0,1,7.871-2.073.7.7,0,1,0,.577-1.271,7.874,7.874,0,0,0-9.154,1.992,6.449,6.449,0,0,1,.96-10.885l.034.084a7.851,7.851,0,0,0,10.33,4.06.7.7,0,0,0-.559-1.281,6.458,6.458,0,0,1-8.49-3.338,6.58,6.58,0,0,1-.25-.673,6.448,6.448,0,0,1,6.174-8.353c0,.057,0,.115,0,.172a7.857,7.857,0,0,0,7.849,7.849.7.7,0,0,0,0-1.4,6.459,6.459,0,0,1-6.452-6.452,6.105,6.105,0,0,1,.045-.753,6.45,6.45,0,0,1,3.871-5.18,12.572,12.572,0,0,0,5.556,5.784v.362h-.461a.7.7,0,1,0,0,1.4H72.1v7.02a.7.7,0,0,0,.7.7h1.9v1.255a.7.7,0,0,0,.7.7Z" transform="translate(-50.475 -161.427)" fill="#f8d3c9"/>
      </g>
      <path id="Trazado_877840" data-name="Trazado 877840" d="M272.409,162.553a5.619,5.619,0,0,1,2.675,4.157,5.473,5.473,0,0,1,.039.65,5.62,5.62,0,0,1-5.614,5.614.933.933,0,0,1-1.669-.8,1.536,1.536,0,0,0-.113-2.58,1.535,1.535,0,0,0,.362-2.359,13.52,13.52,0,0,0,4.32-4.686m5.758,5.531a5.611,5.611,0,0,1,4.56,7.213,5.728,5.728,0,0,1-.218.584,5.619,5.619,0,0,1-5.155,3.37,5.561,5.561,0,0,1-2.232-.467A1.537,1.537,0,0,0,273.9,181.6a8.689,8.689,0,0,0,11.048-3.72,5.616,5.616,0,0,1,.663,8.539,8.708,8.708,0,0,0-5.986-2.372,8.582,8.582,0,0,0-3.567.769,1.535,1.535,0,0,0-.766,2.033,1.538,1.538,0,0,0,2.035.767,5.534,5.534,0,0,1,2.3-.5,5.635,5.635,0,0,1,4.549,2.3,5.453,5.453,0,0,1,.576.99,5.612,5.612,0,0,1-6.735,7.689,8.74,8.74,0,0,0-8.5-6.91,1.537,1.537,0,0,0,0,3.074,5.614,5.614,0,1,1-5.614,5.614v-20.57a1.538,1.538,0,0,0,.838-1.369v-.416h1.056a1.539,1.539,0,0,0,1.537-1.537v-1.069a1.293,1.293,0,0,1,2.182,1.126,8.7,8.7,0,0,0,8.657-7.964m-6.122-6.656a12.572,12.572,0,0,1-5.556,5.784v.362h.462a.7.7,0,0,1,0,1.4h-.462v1.256h.462a.7.7,0,0,1,0,1.4h-.462v1.109h.462a.7.7,0,0,1,0,1.4h-.462v1.861a.7.7,0,0,1-.7.7H263.9v1.255a.7.7,0,0,1-.7.7h-.14v21.239h0a6.451,6.451,0,1,0,6.452-6.452.7.7,0,0,1,0-1.4,7.861,7.861,0,0,1,7.764,6.7,6.45,6.45,0,0,0,8.237-8.665,6.294,6.294,0,0,0-.664-1.14,6.462,6.462,0,0,0-7.873-2.075.7.7,0,0,1-.577-1.273,7.79,7.79,0,0,1,3.221-.695,7.876,7.876,0,0,1,5.933,2.687,6.449,6.449,0,0,0-.96-10.885l-.034.082a7.851,7.851,0,0,1-10.33,4.061.7.7,0,0,1,.559-1.281,6.453,6.453,0,0,0,8.49-3.338,6.589,6.589,0,0,0,.25-.672,6.448,6.448,0,0,0-6.163-8.355h-.01c0,.057,0,.115,0,.172a7.857,7.857,0,0,1-7.849,7.849.7.7,0,0,1,0-1.4,6.459,6.459,0,0,0,6.452-6.452,6.311,6.311,0,0,0-.045-.75,6.453,6.453,0,0,0-3.872-5.183Z" transform="translate(-191.49 -138.874)" opacity="0.2"/>
      <path id="Trazado_877841" data-name="Trazado 877841" d="M66.177,162.553A13.521,13.521,0,0,0,70.5,167.24a1.536,1.536,0,0,0,.761,2.522v6.229a1.539,1.539,0,0,0,1.537,1.537h1.058v.416a1.538,1.538,0,0,0,.837,1.368v20.571a5.613,5.613,0,1,1-5.612-5.614,1.537,1.537,0,1,0,0-3.074,8.74,8.74,0,0,0-8.5,6.91,5.615,5.615,0,0,1-6.733-7.692,5.467,5.467,0,0,1,.578-.992,5.632,5.632,0,0,1,4.546-2.3,5.542,5.542,0,0,1,2.3.5,1.536,1.536,0,1,0,1.268-2.8,8.586,8.586,0,0,0-3.567-.77,8.7,8.7,0,0,0-5.986,2.372,5.613,5.613,0,0,1,.663-8.538A8.69,8.69,0,0,0,64.694,181.6a1.537,1.537,0,0,0-1.231-2.817,5.556,5.556,0,0,1-2.232.467,5.619,5.619,0,0,1-5.155-3.371,5.744,5.744,0,0,1-.218-.587,5.607,5.607,0,0,1,4.561-7.208,8.7,8.7,0,0,0,8.657,7.963,1.537,1.537,0,0,0,0-3.074,5.62,5.62,0,0,1-5.614-5.614,5.292,5.292,0,0,1,.038-.65V166.7a5.615,5.615,0,0,1,2.675-4.151m.364-1.126a6.45,6.45,0,0,0-3.871,5.18,6.107,6.107,0,0,0-.045.753,6.459,6.459,0,0,0,6.452,6.452.7.7,0,0,1,0,1.4,7.857,7.857,0,0,1-7.849-7.849c0-.057,0-.115,0-.172h-.01a6.448,6.448,0,0,0-6.164,8.353,6.581,6.581,0,0,0,.25.673,6.451,6.451,0,0,0,8.49,3.338.7.7,0,0,1,.559,1.281,7.851,7.851,0,0,1-10.33-4.06l-.034-.084a6.451,6.451,0,0,0-.96,10.885,7.872,7.872,0,0,1,5.933-2.687,7.791,7.791,0,0,1,3.221.695.7.7,0,1,1-.577,1.271,6.465,6.465,0,0,0-7.871,2.073,6.29,6.29,0,0,0-.665,1.143,6.45,6.45,0,0,0,8.237,8.665,7.861,7.861,0,0,1,7.765-6.7.7.7,0,1,1,0,1.4,6.452,6.452,0,1,0,6.45,6.452s0,0,0,0V178.642H75.39a.7.7,0,0,1-.7-.7v-1.255H72.8a.7.7,0,0,1-.7-.7v-7.02h-.461a.7.7,0,1,1,0-1.4H72.1v-.362a12.572,12.572,0,0,1-5.556-5.784Z" transform="translate(-8.607 -138.874)" opacity="0.2"/>
      <path id="Trazado_877842" data-name="Trazado 877842" d="M217.781,217.372a.7.7,0,0,0,.7.7h5.474v1.109h-5.474a.7.7,0,1,0,0,1.4h5.474v1.162h-8.715v-6.322h8.715v1.256h-5.474A.7.7,0,0,0,217.781,217.372Z" transform="translate(-150.351 -185.321)" fill="#e1e1e5"/>
      <path id="Trazado_877843" data-name="Trazado 877843" d="M189.077,54.777a11.049,11.049,0,0,1-.7,3.86,11.207,11.207,0,0,1-1.621,2.923,11.062,11.062,0,0,1-1.368,1.481,10.882,10.882,0,0,1-1.556,1.176c-.286.179-.581.346-.886.5-.077.039-.155.077-.233.115-.014.007-.027.017-.041.024s-.043.025-.064.041a.4.4,0,0,0-.053.043.486.486,0,0,0-.049.045c-.015.017-.029.035-.045.053s-.027.035-.038.053a.61.61,0,0,0-.032.059c-.01.021-.021.041-.029.061a.585.585,0,0,0-.02.066c-.006.021-.013.042-.017.064a.71.71,0,0,0-.007.077c0,.015-.006.031-.006.046v.795H173.6v-.795c0-.018,0-.034-.006-.052a.592.592,0,0,0-.007-.07.666.666,0,0,0-.018-.071.389.389,0,0,0-.018-.057.6.6,0,0,0-.031-.068c-.01-.018-.018-.035-.029-.053a.545.545,0,0,0-.042-.057c-.013-.017-.027-.034-.041-.049a.578.578,0,0,0-.053-.049.471.471,0,0,0-.049-.041c-.021-.015-.045-.028-.068-.042s-.024-.015-.038-.022a11.179,11.179,0,0,1-6.362-10.054,11.054,11.054,0,0,1,1.183-4.988q.228-.455.5-.884a11.229,11.229,0,0,1,2.652-2.93,11.113,11.113,0,0,1,17.905,8.8Z" transform="translate(-108.713 -37.558)" fill="#f9c139"/>
      <path id="Trazado_877844" data-name="Trazado 877844" d="M174.3,93.957h8.1a0,0,0,0,0,0,0c-.01.021-.021.041-.029.061a.582.582,0,0,0-.02.066c-.006.021-.013.042-.017.064a.714.714,0,0,0-.007.077c0,.015-.006.031-.006.046v.795H173.6v-.795c0-.018,0-.034-.006-.052a.589.589,0,0,0-.007-.07.663.663,0,0,0-.018-.071.391.391,0,0,0-.018-.057.605.605,0,0,0-.031-.068c-.01-.018-.018-.035-.029-.053a.545.545,0,0,0-.042-.057c-.013-.017-.027-.034-.041-.049a.578.578,0,0,0-.053-.049.471.471,0,0,0-.049-.041c-.021-.015-.045-.028-.068-.042s-.024-.015-.038-.022a11.179,11.179,0,0,1-6.362-10.054,11.048,11.048,0,0,1,2.062-6.441,11.042,11.042,0,0,0-1.364,5.33A11.179,11.179,0,0,0,173.9,92.53c.014.007.025.015.038.022s.048.027.068.042a.473.473,0,0,1,.049.041.579.579,0,0,1,.053.049c.014.015.028.032.041.049a.547.547,0,0,1,.042.057c.011.018.02.035.029.053a.6.6,0,0,1,.031.068.389.389,0,0,1,.018.057.667.667,0,0,1,.018.071.592.592,0,0,1,.007.07c0,.018.006.034.006.052v.795Z" transform="translate(-108.713 -66.369)" opacity="0.2"/>
      <g id="Grupo_1106801" data-name="Grupo 1106801" transform="translate(52.258)">
        <path id="Trazado_877845" data-name="Trazado 877845" d="M242.127,3.261a.7.7,0,0,0,.7-.7V.7a.7.7,0,1,0-1.4,0V2.562A.7.7,0,0,0,242.127,3.261Z" transform="translate(-225.14)" fill="#23130d"/>
        <path id="Trazado_877846" data-name="Trazado 877846" d="M184.163,18.282a.7.7,0,0,0,1.21-.7l-.931-1.614a.7.7,0,0,0-1.21.7Z" transform="translate(-174.994 -13.438)" fill="#23130d"/>
        <path id="Trazado_877847" data-name="Trazado 877847" d="M140.816,59.6l1.614.932a.7.7,0,1,0,.7-1.21l-1.614-.932a.7.7,0,1,0-.7,1.21Z" transform="translate(-138.284 -50.148)" fill="#23130d"/>
        <path id="Trazado_877848" data-name="Trazado 877848" d="M125.544,117.982h1.864a.7.7,0,0,0,0-1.4h-1.864a.7.7,0,1,0,0,1.4Z" transform="translate(-124.845 -100.297)" fill="#23130d"/>
        <path id="Trazado_877849" data-name="Trazado 877849" d="M344.675,117.288a.7.7,0,0,0,.7.7h1.863a.7.7,0,1,0,0-1.4h-1.863A.7.7,0,0,0,344.675,117.288Z" transform="translate(-313.963 -100.3)" fill="#23130d"/>
        <path id="Trazado_877850" data-name="Trazado 877850" d="M331.539,60.622a.7.7,0,0,0,.349-.094L333.5,59.6a.7.7,0,0,0-.7-1.21l-1.613.932a.7.7,0,0,0,.35,1.3Z" transform="translate(-302.06 -50.149)" fill="#23130d"/>
        <path id="Trazado_877851" data-name="Trazado 877851" d="M293.4,18.539a.7.7,0,0,0,.954-.256l.932-1.614a.7.7,0,1,0-1.21-.7l-.932,1.614A.7.7,0,0,0,293.4,18.539Z" transform="translate(-269.551 -13.439)" fill="#23130d"/>
      </g>
      <rect id="Rectángulo_403532" data-name="Rectángulo 403532" width="1.016" height="6.322" transform="translate(64.887 30.096)" opacity="0.2"/>
      <g id="Grupo_1106803" data-name="Grupo 1106803" transform="translate(58.378 6.672)">
        <g id="Grupo_1106802" data-name="Grupo 1106802" transform="translate(0 0.121)" opacity="0.2">
          <path id="Trazado_877852" data-name="Trazado 877852" d="M184.505,102.474c-.077.039-.155.077-.233.115-.014.007-.027.017-.041.024s-.043.025-.064.041a.4.4,0,0,0-.053.043.486.486,0,0,0-.049.045c-.015.017-.029.035-.045.053s-.027.035-.038.053a.609.609,0,0,0-.032.059c-.01.021-.021.041-.029.061a.588.588,0,0,0-.02.066c-.006.021-.013.042-.017.064a.714.714,0,0,0-.007.077c0,.015-.006.031-.006.046v.795H182.49L168.648,90.172a10.961,10.961,0,0,1,.93-2.625Z" transform="translate(-168.648 -82.108)" fill="#fff"/>
          <path id="Trazado_877853" data-name="Trazado 877853" d="M195.748,85.752a10.882,10.882,0,0,1-1.556,1.176L178.878,71.616a10.926,10.926,0,0,1,1.175-1.559Z" transform="translate(-177.449 -67.062)" fill="#fff"/>
          <path id="Trazado_877854" data-name="Trazado 877854" d="M215.065,62.9a11.206,11.206,0,0,1-1.621,2.923L197.858,50.242a11.087,11.087,0,0,1,2.921-1.625Z" transform="translate(-193.777 -48.617)" fill="#fff"/>
        </g>
        <path id="Trazado_877855" data-name="Trazado 877855" d="M252,59.025a.7.7,0,0,1-.7-.7,9.186,9.186,0,0,0-9.175-9.175.7.7,0,0,1,0-1.4A10.584,10.584,0,0,1,252.7,58.326.7.7,0,0,1,252,59.025Z" transform="translate(-231.26 -47.754)" fill="#fff"/>
      </g>
    </g>
  </g>
</svg>
