<svg xmlns="http://www.w3.org/2000/svg" xmlns:xlink="http://www.w3.org/1999/xlink" width="403" height="431" viewBox="0 0 403 431">
  <defs>
    <clipPath id="clip-path">
      <rect id="Rectángulo_403457" data-name="Rectángulo 403457" width="403" height="431" rx="13" transform="translate(318.051 3370)" fill="#fff"/>
    </clipPath>
    <clipPath id="clip-path-2">
      <rect id="Rectángulo_403452" data-name="Rectángulo 403452" width="404.606" height="330.367" fill="none"/>
    </clipPath>
    <clipPath id="clip-path-3">
      <rect id="Rectángulo_403453" data-name="Rectángulo 403453" width="127.484" height="186.368" fill="none"/>
    </clipPath>
    <clipPath id="clip-path-4">
      <rect id="Rectángulo_403458" data-name="Rectángulo 403458" width="244.538" height="102.104" fill="none"/>
    </clipPath>
  </defs>
  <g id="Grupo_1106577" data-name="Grupo 1106577" transform="translate(-318.051 -3370)">
    <g id="Enmascarar_grupo_1099806" data-name="Enmascarar grupo 1099806" clip-path="url(#clip-path)">
      <g id="Grupo_1106566" data-name="Grupo 1106566">
        <rect id="Rectángulo_403422" data-name="Rectángulo 403422" width="403" height="431" rx="13" transform="translate(318.051 3370)" fill="#ebe7f3"/>
      </g>
      <g id="Grupo_1106571" data-name="Grupo 1106571" transform="translate(-723.531 14568.448)" opacity="0.327">
        <path id="Trazado_877052" data-name="Trazado 877052" d="M535.6,81.773c-24.419,0-36.474-19.685-46.157-35.509-9.809-16.01-16.453-25.824-28.956-25.824s-19.135,9.813-28.921,25.824c-9.683,15.824-21.737,35.509-46.145,35.509s-36.474-19.685-46.157-35.509c-9.8-16.01-16.441-25.824-28.933-25.824s-19.124,9.813-28.922,25.824c-9.683,15.824-21.737,35.509-46.145,35.509S198.8,62.088,189.129,46.264c-9.8-16.01-16.43-25.824-28.91-25.824s-19.112,9.813-28.91,25.824c-9.683,15.824-21.726,35.509-46.134,35.509S48.724,62.088,39.041,46.264c-9.8-16.01-16.429-25.824-28.91-25.824a10.221,10.221,0,0,1,0-20.44c24.4,0,36.451,19.7,46.134,35.521,9.786,16,16.429,25.812,28.91,25.812s19.112-9.813,28.91-25.812C123.768,19.7,135.822,0,160.219,0s36.451,19.7,46.122,35.509c9.8,16.01,16.43,25.824,28.922,25.824s19.123-9.813,28.921-25.824C273.866,19.7,285.921,0,310.329,0s36.462,19.7,46.157,35.509c9.786,16.01,16.43,25.824,28.933,25.824,12.481,0,19.124-9.813,28.921-25.824C424.011,19.7,436.077,0,460.485,0s36.486,19.7,46.168,35.509c9.809,16.01,16.453,25.824,28.944,25.824s19.147-9.813,28.956-25.824C574.236,19.7,586.3,0,610.722,0a10.17,10.17,0,0,1,10.12,10.22,10.163,10.163,0,0,1-10.12,10.22c-12.5,0-19.147,9.813-28.956,25.824C572.083,62.088,560.029,81.773,535.6,81.773Z" transform="translate(1543.647 -10855.371) rotate(180)" fill="#1f074e"/>
        <path id="Trazado_877053" data-name="Trazado 877053" d="M535.6,81.773c-24.419,0-36.474-19.685-46.157-35.509-9.809-16.01-16.453-25.824-28.956-25.824s-19.135,9.813-28.921,25.824c-9.683,15.824-21.737,35.509-46.145,35.509s-36.474-19.685-46.157-35.509c-9.8-16.01-16.441-25.824-28.933-25.824s-19.124,9.813-28.922,25.824c-9.683,15.824-21.737,35.509-46.145,35.509S198.8,62.088,189.129,46.264c-9.8-16.01-16.43-25.824-28.91-25.824s-19.112,9.813-28.91,25.824c-9.683,15.824-21.726,35.509-46.134,35.509S48.724,62.088,39.041,46.264c-9.8-16.01-16.429-25.824-28.91-25.824a10.221,10.221,0,0,1,0-20.44c24.4,0,36.451,19.7,46.134,35.521,9.786,16,16.429,25.812,28.91,25.812s19.112-9.813,28.91-25.812C123.768,19.7,135.822,0,160.219,0s36.451,19.7,46.122,35.509c9.8,16.01,16.43,25.824,28.922,25.824s19.123-9.813,28.921-25.824C273.866,19.7,285.921,0,310.329,0s36.462,19.7,46.157,35.509c9.786,16.01,16.43,25.824,28.933,25.824,12.481,0,19.124-9.813,28.921-25.824C424.011,19.7,436.077,0,460.485,0s36.486,19.7,46.168,35.509c9.809,16.01,16.453,25.824,28.944,25.824s19.147-9.813,28.956-25.824C574.236,19.7,586.3,0,610.722,0a10.17,10.17,0,0,1,10.12,10.22,10.163,10.163,0,0,1-10.12,10.22c-12.5,0-19.147,9.813-28.956,25.824C572.083,62.088,560.029,81.773,535.6,81.773Z" transform="translate(1543.647 -11045.273) rotate(180)" fill="#1f074e"/>
        <path id="Trazado_877054" data-name="Trazado 877054" d="M535.6,81.773c-24.419,0-36.474-19.685-46.157-35.509-9.809-16.01-16.453-25.824-28.956-25.824s-19.135,9.813-28.921,25.824c-9.683,15.824-21.737,35.509-46.145,35.509s-36.474-19.685-46.157-35.509c-9.8-16.01-16.441-25.824-28.933-25.824s-19.124,9.813-28.922,25.824c-9.683,15.824-21.737,35.509-46.145,35.509S198.8,62.088,189.129,46.264c-9.8-16.01-16.43-25.824-28.91-25.824s-19.112,9.813-28.91,25.824c-9.683,15.824-21.726,35.509-46.134,35.509S48.724,62.088,39.041,46.264c-9.8-16.01-16.429-25.824-28.91-25.824a10.221,10.221,0,0,1,0-20.44c24.4,0,36.451,19.7,46.134,35.521,9.786,16,16.429,25.812,28.91,25.812s19.112-9.813,28.91-25.812C123.768,19.7,135.822,0,160.219,0s36.451,19.7,46.122,35.509c9.8,16.01,16.43,25.824,28.922,25.824s19.123-9.813,28.921-25.824C273.866,19.7,285.921,0,310.329,0s36.462,19.7,46.157,35.509c9.786,16.01,16.43,25.824,28.933,25.824,12.481,0,19.124-9.813,28.921-25.824C424.011,19.7,436.077,0,460.485,0s36.486,19.7,46.168,35.509c9.809,16.01,16.453,25.824,28.944,25.824s19.147-9.813,28.956-25.824C574.236,19.7,586.3,0,610.722,0a10.17,10.17,0,0,1,10.12,10.22,10.163,10.163,0,0,1-10.12,10.22c-12.5,0-19.147,9.813-28.956,25.824C572.083,62.088,560.029,81.773,535.6,81.773Z" transform="translate(1543.647 -10760.417) rotate(180)" fill="#1f074e"/>
        <path id="Trazado_877055" data-name="Trazado 877055" d="M535.6,81.773c-24.419,0-36.474-19.685-46.157-35.509-9.809-16.01-16.453-25.824-28.956-25.824s-19.135,9.813-28.921,25.824c-9.683,15.824-21.737,35.509-46.145,35.509s-36.474-19.685-46.157-35.509c-9.8-16.01-16.441-25.824-28.933-25.824s-19.124,9.813-28.922,25.824c-9.683,15.824-21.737,35.509-46.145,35.509S198.8,62.088,189.129,46.264c-9.8-16.01-16.43-25.824-28.91-25.824s-19.112,9.813-28.91,25.824c-9.683,15.824-21.726,35.509-46.134,35.509S48.724,62.088,39.041,46.264c-9.8-16.01-16.429-25.824-28.91-25.824a10.221,10.221,0,0,1,0-20.44c24.4,0,36.451,19.7,46.134,35.521,9.786,16,16.429,25.812,28.91,25.812s19.112-9.813,28.91-25.812C123.768,19.7,135.822,0,160.219,0s36.451,19.7,46.122,35.509c9.8,16.01,16.43,25.824,28.922,25.824s19.123-9.813,28.921-25.824C273.866,19.7,285.921,0,310.329,0s36.462,19.7,46.157,35.509c9.786,16.01,16.43,25.824,28.933,25.824,12.481,0,19.124-9.813,28.921-25.824C424.011,19.7,436.077,0,460.485,0s36.486,19.7,46.168,35.509c9.809,16.01,16.453,25.824,28.944,25.824s19.147-9.813,28.956-25.824C574.236,19.7,586.3,0,610.722,0a10.17,10.17,0,0,1,10.12,10.22,10.163,10.163,0,0,1-10.12,10.22c-12.5,0-19.147,9.813-28.956,25.824C572.083,62.088,560.029,81.773,535.6,81.773Z" transform="translate(1543.647 -10950.323) rotate(180)" fill="#1f074e"/>
        <path id="Trazado_877056" data-name="Trazado 877056" d="M535.6,81.773c-24.419,0-36.474-19.685-46.157-35.509-9.809-16.01-16.453-25.824-28.956-25.824s-19.135,9.813-28.921,25.824c-9.683,15.824-21.737,35.509-46.145,35.509s-36.474-19.685-46.157-35.509c-9.8-16.01-16.441-25.824-28.933-25.824s-19.124,9.813-28.922,25.824c-9.683,15.824-21.737,35.509-46.145,35.509S198.8,62.088,189.129,46.264c-9.8-16.01-16.43-25.824-28.91-25.824s-19.112,9.813-28.91,25.824c-9.683,15.824-21.726,35.509-46.134,35.509S48.724,62.088,39.041,46.264c-9.8-16.01-16.429-25.824-28.91-25.824a10.221,10.221,0,0,1,0-20.44c24.4,0,36.451,19.7,46.134,35.521,9.786,16,16.429,25.812,28.91,25.812s19.112-9.813,28.91-25.812C123.768,19.7,135.822,0,160.219,0s36.451,19.7,46.122,35.509c9.8,16.01,16.43,25.824,28.922,25.824s19.123-9.813,28.921-25.824C273.866,19.7,285.921,0,310.329,0s36.462,19.7,46.157,35.509c9.786,16.01,16.43,25.824,28.933,25.824,12.481,0,19.124-9.813,28.921-25.824C424.011,19.7,436.077,0,460.485,0s36.486,19.7,46.168,35.509c9.809,16.01,16.453,25.824,28.944,25.824s19.147-9.813,28.956-25.824C574.236,19.7,586.3,0,610.722,0a10.17,10.17,0,0,1,10.12,10.22,10.163,10.163,0,0,1-10.12,10.22c-12.5,0-19.147,9.813-28.956,25.824C572.083,62.088,560.029,81.773,535.6,81.773Z" transform="translate(1543.647 -11140.228) rotate(180)" fill="#1f074e"/>
      </g>
      <g id="Grupo_1106573" data-name="Grupo 1106573" transform="translate(317.051 3471)">
        <g id="Grupo_1106562" data-name="Grupo 1106562" clip-path="url(#clip-path-2)">
          <path id="Trazado_876990" data-name="Trazado 876990" d="M72.076,142.336l13.977-1.378,45.926,17.221,20.564-5.966c2.742.89,5.19,1.761,7.4,2.621.04-.23,13.653,4.7,14.417,5.027,10.243,4.437,19.989,10.426,27.926,18.334a58.224,58.224,0,0,1,17.248,35.334c.935,9.187-.64,18.576-.814,27.821q-.293,15.609-.212,31.222.165,31.222,1.831,62.413a8.166,8.166,0,0,1-.485,4.1c-2.031,4.076-21.265,5.023-25.316,5.172-9.164.336-147.545-.014-150.289,0L40.62,236.883S4.953,214.359,4.98,213.6q.039-1.111.1-2.2C7.155,175.08,35.874,145.9,72.076,142.336" transform="translate(-0.498 -14.093)" fill="#5353b8"/>
          <rect id="Rectángulo_403451" data-name="Rectángulo 403451" width="48.088" height="173.03" transform="translate(105.342 157.268)" fill="#f4f2ed"/>
          <path id="Trazado_876991" data-name="Trazado 876991" d="M195.437,248.932a.45.45,0,0,1-.45-.45V219.531a.45.45,0,0,1,.9,0v28.951a.45.45,0,0,1-.45.45" transform="translate(-19.495 -21.904)" fill="#29297f"/>
          <path id="Trazado_876992" data-name="Trazado 876992" d="M186.389,42.566c-3.02-9.619-12.868-8.387-17.954-7.028a26.514,26.514,0,0,0-3.1,1.018c-4.082-.484-14.947-7.591-20.316-11.249l-.518-.354c-1.582-1.084-2.578-1.792-2.578-1.792l-1.47,27.458s-4.037,11.776-6.657,10.267a12.933,12.933,0,0,0-5.878-1.724l-10.942-.5-5.8-.266a12.878,12.878,0,0,0-3.368.3A13.15,13.15,0,0,0,97.515,70.849l-.048,1.046a14.305,14.305,0,0,0,13.594,14.9l2.534.116L99.2,130.8c-3.809,13.273,7.069,24.58,20.555,28.451l.559.16a25.384,25.384,0,0,0,31.444-17.1l5.162-17.986c16.027-1.362,28.721-15.124,28.922-32.061l.549-46.3c0-.128,0-3.272,0-3.4" transform="translate(-9.743 -2.316)" fill="#d96448"/>
          <path id="Trazado_876993" data-name="Trazado 876993" d="M159.832,133.8s-27.389-5.524-29.506-16.3h0s-6.43,18.987,24.285,34.842Z" transform="translate(-12.936 -11.27)" fill="#bb432a"/>
          <path id="Trazado_876994" data-name="Trazado 876994" d="M110.8,106.59,122.041,94h-7.112Z" transform="translate(-11.078 -9.398)" fill="#0b1126"/>
          <path id="Trazado_876995" data-name="Trazado 876995" d="M200.243,17.482a19.84,19.84,0,0,0-.671-4.614,14.01,14.01,0,0,0-3.559-6.352c-5.231-5.166-15.444-5.3-21.432-1.4-2,1.306-3.242,3.326-4.862,5.031.266-.165.142-1.745.126-2.046a7.823,7.823,0,0,0-.352-1.963A7.409,7.409,0,0,0,167.511,3,11.817,11.817,0,0,0,160.562.089c-6.491-.671-12.085,2.535-16.415,7.107-.309.326-.635.773-.449,1.182-.876-1.931-4.216-2.3-6.05-2.354a15.608,15.608,0,0,0-7.479,1.8,31.089,31.089,0,0,0-8.829,7.074,29.37,29.37,0,0,0-5.577,9.094c-.045.122-.076.247-.12.368-4.61,1.788-8.872,6.684-11.469,11.837a15.159,15.159,0,0,0-1.39,10.527,25.585,25.585,0,0,0,5.511,9.646,12.875,12.875,0,0,1,3.367-.3l5.8.267,7.267.334a31.131,31.131,0,0,0,3.838,10.014l-.557,13.562a5.383,5.383,0,0,1-1.264,3.239h0a28.766,28.766,0,0,0,21.267,42.315l1.952.271a5.361,5.361,0,0,0,1.541.4l13.706,1.416a19.87,19.87,0,0,0,21.912-19.719L186.4,84.264l-1.112,1.994a2.12,2.12,0,0,1-3.51.288,9.164,9.164,0,0,0-6.225-3.41L161.73,81.7a15.766,15.766,0,0,0-8.124,1.314L151.9,84.093a7.741,7.741,0,0,1-11.875-6.708c.062-3.2.523-12.555.783-19.938,2.223-9.052,3.962-20.406,2.285-31.456a85.22,85.22,0,0,0,23.513,13.331c4.929,1.816,10.074,3.136,15.22,2.7A19.066,19.066,0,0,0,195.6,34.63c3.567-4.753,4.82-11.286,4.644-17.148" transform="translate(-10.234 0)" fill="#0b1126"/>
          <path id="Trazado_876996" data-name="Trazado 876996" d="M110.078,72.823l4.439,5.822-4.8,2.606" transform="translate(-10.969 -7.281)" fill="#d96448"/>
          <path id="Trazado_876997" data-name="Trazado 876997" d="M109.615,82.052a.9.9,0,0,1-.43-1.691l3.881-2.106-3.8-4.985a.9.9,0,1,1,1.431-1.092L115.134,78a.9.9,0,0,1-.287,1.337l-4.8,2.607a.9.9,0,0,1-.428.109" transform="translate(-10.869 -7.181)" fill="#bb432a"/>
          <path id="Trazado_876998" data-name="Trazado 876998" d="M155.123,58.326a9.057,9.057,0,0,0,3.745-.381c1.3-.31,2.621-.589,3.774-.791s2.489-.391,3.82-.544a9.013,9.013,0,0,0,3.643-.919c.917-.593,1.11-1.865-.324-3.135-1.355-1.244-4.512-2.3-8.335-1.636-3.816.68-6.377,2.741-7.183,4.365-.866,1.675-.217,2.8.86,3.04" transform="translate(-15.383 -5.071)" fill="#0b1126"/>
          <path id="Trazado_876999" data-name="Trazado 876999" d="M186.728,56.348a6.248,6.248,0,0,1,2.887.591c.985.363,1.984.7,2.863.956s1.9.515,2.928.74a6.22,6.22,0,0,1,2.746,1.06c.651.586.656,1.722-.609,2.746a7.62,7.62,0,0,1-6.708.878,7.476,7.476,0,0,1-5.125-4.344c-.488-1.538.148-2.485,1.018-2.626" transform="translate(-18.55 -5.63)" fill="#0b1126"/>
          <path id="Trazado_877000" data-name="Trazado 877000" d="M176.42,104.185c-.02,0-.04,0-.059,0l-8.142-.536c-3.029-.2-5.522-2.82-5.927-6.231a.9.9,0,0,1,1.787-.212,4.963,4.963,0,0,0,4.257,4.647l8.142.536a.9.9,0,0,1-.058,1.8" transform="translate(-16.225 -9.639)" fill="#bb432a"/>
          <path id="Trazado_877001" data-name="Trazado 877001" d="M171.213,71.733c-.257-2.948-1.633-7.367-7.424-8.537a9.436,9.436,0,0,0-2.694-.151c-3.919.336-6.7,3.189-8.385,5.661a3.2,3.2,0,0,0,1.865,4.905c.675.164,1.351.3,2.023.428a5.227,5.227,0,0,1-.293-1.959,6.3,6.3,0,0,1,12.521.571,5.227,5.227,0,0,1-.536,2.066c.379-.02.733-.041,1.045-.064a2.073,2.073,0,0,0,1.928-2.111c-.006-.252-.025-.526-.049-.808" transform="translate(-15.212 -6.3)" fill="#fff"/>
          <path id="Trazado_877002" data-name="Trazado 877002" d="M163.284,67.079a6,6,0,0,0-6.52,5.406,5.2,5.2,0,0,0,.293,1.958,51.516,51.516,0,0,0,11.692.679,5.218,5.218,0,0,0,.535-2.066,6,6,0,0,0-6-5.977" transform="translate(-15.673 -6.706)" fill="#0b1126"/>
          <path id="Trazado_877003" data-name="Trazado 877003" d="M198.044,74.283a7.047,7.047,0,0,0-5.914-6.8,7.492,7.492,0,0,0-2.146-.121c-3.122.267-5.334,2.54-6.681,4.51a2.549,2.549,0,0,0,1.485,3.908c.563.136,1.125.252,1.684.354a4.154,4.154,0,0,1-.246-1.6,5.015,5.015,0,0,1,9.974.455,4.169,4.169,0,0,1-.435,1.665c.282-.015.547-.032.782-.049a1.651,1.651,0,0,0,1.535-1.682c-.005-.2-.02-.419-.04-.644" transform="translate(-18.282 -6.732)" fill="#fff"/>
          <path id="Trazado_877004" data-name="Trazado 877004" d="M191.795,70.552a4.783,4.783,0,0,0-5.194,4.307,4.162,4.162,0,0,0,.247,1.6,41.134,41.134,0,0,0,9.293.523,4.155,4.155,0,0,0,.436-1.665,4.782,4.782,0,0,0-4.781-4.761" transform="translate(-18.656 -7.053)" fill="#0b1126"/>
          <path id="Trazado_877005" data-name="Trazado 877005" d="M180.774,58.273l3.432,20.757a1.758,1.758,0,0,1-.289,1.3c-.957,1.376-3.838,4.208-10.515,2.1" transform="translate(-17.337 -5.826)" fill="#d96448"/>
          <path id="Trazado_877006" data-name="Trazado 877006" d="M177.713,83.986a15.589,15.589,0,0,1-4.681-.8.9.9,0,1,1,.541-1.716c6.13,1.934,8.691-.585,9.505-1.759a.858.858,0,0,0,.14-.637L179.787,58.32a.9.9,0,1,1,1.775-.293l3.433,20.757a2.651,2.651,0,0,1-.437,1.958,7.947,7.947,0,0,1-6.844,3.244" transform="translate(-17.237 -5.726)" fill="#bb432a"/>
          <path id="Trazado_877007" data-name="Trazado 877007" d="M155.947,145.213a2.7,2.7,0,0,0-3.8-.191L137.981,157.7l-35.087-27.981a3.9,3.9,0,0,0-5.079.179L82.99,143.536a3.36,3.36,0,0,0-.181,4.766l32.812,35.145a2.375,2.375,0,0,0,3.621-.176l18.8-24.523,19.638,22.125a1.557,1.557,0,0,0,2.694-.74l4.778-24.848Z" transform="translate(-8.189 -12.884)" fill="#fff"/>
          <path id="Trazado_877008" data-name="Trazado 877008" d="M159.466,181.109l-10.448,16.155a4.011,4.011,0,0,1-6.206.656L127.123,182.21l15.443-20.142Z" transform="translate(-12.71 -16.204)" fill="#0b1126"/>
          <path id="Trazado_877009" data-name="Trazado 877009" d="M123.177,241.891l18.887-8.583a31.629,31.629,0,0,1,18.96-2.363l20.635,3.859c2.961.554,7.3,1.453,9.481,3.7L221.2,255.164a3.286,3.286,0,0,1,1.229,4.783l-.074.11a6.665,6.665,0,0,1-8.686,2.105l-15.35-8.338.628.608a6.91,6.91,0,0,1,1.742,6.728L199.52,265.5l.2,1.9a7.14,7.14,0,0,1-2.862,6.591l-19.629,13.769a2.3,2.3,0,0,1-3.436-.973,8.159,8.159,0,0,1,2.192-9.812l6.233-4.862-17.955,5.316a17.569,17.569,0,0,1-9.015.274l-9.6-2.245-15.713,11.814Z" transform="translate(-12.315 -23.037)" fill="#d96448"/>
          <path id="Trazado_877010" data-name="Trazado 877010" d="M205.078,256.339a.447.447,0,0,1-.265-.086l-10.3-7.476a.45.45,0,1,1,.529-.728l10.3,7.476a.45.45,0,0,1-.265.814" transform="translate(-19.429 -24.791)" fill="#bb432a"/>
          <path id="Trazado_877011" data-name="Trazado 877011" d="M206.036,268.589a.446.446,0,0,1-.241-.07l-13.07-8.284a.45.45,0,0,1,.482-.76l13.071,8.284a.45.45,0,0,1-.241.83" transform="translate(-19.248 -25.935)" fill="#bb432a"/>
          <path id="Trazado_877012" data-name="Trazado 877012" d="M188.73,276.847a.45.45,0,0,1-.257-.819l3.781-2.642a.45.45,0,0,1,.515.739l-3.781,2.641a.445.445,0,0,1-.257.081" transform="translate(-18.824 -27.325)" fill="#bb432a"/>
          <path id="Trazado_877013" data-name="Trazado 877013" d="M7.921,208.53l53.73,4.333L61.8,232.95l61.871-9.2a3.261,3.261,0,0,1,3.584,2.7l12.2,56.405a4.84,4.84,0,0,1-3.633,5.9c-11.724,1.954-34.725,6.108-58.664,9.964-11.511,1.855-23.239,3.641-34.033,5.081a35.15,35.15,0,0,1-18-2.285C9.934,295.341-.853,278.855.053,259.57c.292-6.2.631-11.8,1.022-15.939,1.107-11.707,3.6-23.392,4.7-35.1" transform="translate(0 -20.849)" fill="#5353b8"/>
          <path id="Trazado_877014" data-name="Trazado 877014" d="M67.38,231.416h-.018a.451.451,0,0,1-.432-.468l1.512-38.4a.441.441,0,0,1,.467-.432.452.452,0,0,1,.433.467l-1.512,38.4a.45.45,0,0,1-.45.432" transform="translate(-6.692 -19.208)" fill="#29297f"/>
          <path id="Trazado_877015" data-name="Trazado 877015" d="M53.558,238.132a.45.45,0,0,1-.073-.894l57.093-9.475a.45.45,0,0,1,.148.888l-57.093,9.474a.426.426,0,0,1-.075.006" transform="translate(-5.31 -22.771)" fill="#29297f"/>
          <path id="Trazado_877016" data-name="Trazado 877016" d="M38.832,314.411a26.842,26.842,0,0,1-13.966-3.947.45.45,0,1,1,.47-.768,25.781,25.781,0,0,0,17.155,3.547l65.246-10.227a.45.45,0,1,1,.139.889l-65.25,10.228a26.189,26.189,0,0,1-3.794.277" transform="translate(-2.465 -30.295)" fill="#29297f"/>
          <path id="Trazado_877017" data-name="Trazado 877017" d="M408.833,180.5a6.918,6.918,0,0,0,2.457-3.645c.246-.671.456-1.349.65-2.031a26.067,26.067,0,0,0,1.718-26.992,25.769,25.769,0,0,0-11.914-10.96q-.957-.44-1.949-.8a25.517,25.517,0,0,0-6.135-1.428c-1.448-.15-2.821-.121-4.1-.38a11.533,11.533,0,0,1-2.079-1.881c-4.1-4.851-2.323-11.963-1.933-18.243a34.442,34.442,0,0,0-1.993-13.653,15.969,15.969,0,1,0-19.658-22.9,38.516,38.516,0,0,0-3.422-1.957c-18.839-9.5-47.57-4.19-59.111,14.535-3.99,6.472-4.678,14.4-4.954,21.994-.1,2.835-.19,5.784-1.494,8.3-2.137,4.126-5.919,6.735-7.495,11.245a21.013,21.013,0,0,0,.539,14.9c1.036,2.468,2.662,4.357,4.2,6.5.779,1.084,2.469,3.315,2.013,4.9-.146.245-.284.493-.422.74l-.012.014v.005a29.969,29.969,0,0,0-3.818,18.312c1.26,10.63,8.207,19.41,18.038,24.507,12.028,6.234,23.819,12.868,34.2,20.919,8.687,6.734,21.011,10.012,33.988,7.838,18.711-3.134,33-17.331,33.79-33.407a27.188,27.188,0,0,0-.674-7.692c-.535-2.2-1.841-4.3-1.684-6.64a6.5,6.5,0,0,1,.363-1.674,4.468,4.468,0,0,0,.882-.43" transform="translate(-28.625 -6.964)" fill="#0b1126"/>
          <path id="Trazado_877018" data-name="Trazado 877018" d="M253.647,273.184c-2.566-64.569,56.6-72.192,56.6-72.192l0,.266,16.272.056,21.649,10.124L369.1,198.014l18.937,4.019s42.414,10.211,40.913,62.527a2.2,2.2,0,0,1-1.839,2.1l-17.522,17.582-6.472,48.373c2.958,5.978,7.989,17.55,7.989,17.55H256.122Z" transform="translate(-25.351 -19.797)" fill="#ffd563"/>
          <path id="Trazado_877019" data-name="Trazado 877019" d="M375.1,198.014l-1.938,152.15H315.215l-1.652-148.689" transform="translate(-31.35 -19.797)" fill="#f4f2ed"/>
          <path id="Trazado_877020" data-name="Trazado 877020" d="M344.211,227.041l.542-.013c13.053-.309,25.529-7.749,25.261-20.282l-.393-6.551a5.863,5.863,0,0,0-4.56-5.369l-20.092-4.545-21.591,7.314a5.064,5.064,0,0,0-3.439,4.906l.049,2.313c.269,12.533,11.168,22.535,24.222,22.227" transform="translate(-31.987 -19.024)" fill="#ffd563"/>
          <path id="Trazado_877021" data-name="Trazado 877021" d="M346.4,270.142a.45.45,0,0,1-.45-.45V233.116a.45.45,0,0,1,.9,0v36.576a.45.45,0,0,1-.45.45" transform="translate(-34.588 -23.262)" fill="#ffd563"/>
          <path id="Trazado_877022" data-name="Trazado 877022" d="M335.461,239.042a2.7,2.7,0,1,1,2.73-2.7,2.717,2.717,0,0,1-2.73,2.7m0-4.5a1.8,1.8,0,1,0,1.83,1.8,1.816,1.816,0,0,0-1.83-1.8" transform="translate(-33.266 -23.36)" fill="#ffd563"/>
          <path id="Trazado_877023" data-name="Trazado 877023" d="M335.155,255.015a2.7,2.7,0,1,1,2.73-2.7,2.717,2.717,0,0,1-2.73,2.7m0-4.5a1.8,1.8,0,1,0,1.83,1.8,1.816,1.816,0,0,0-1.83-1.8" transform="translate(-33.236 -24.957)" fill="#ffd563"/>
          <path id="Trazado_877024" data-name="Trazado 877024" d="M336.559,289.5l-15.605-8.243a26.911,26.911,0,0,0-15.982-2.965l-17.719,2.236c-2.543.32-6.272.864-8.238,2.66l-26.367,12.633a2.8,2.8,0,0,0-1.286,4c.02.031.039.064.058.1a5.671,5.671,0,0,0,7.27,2.228l13.456-6.3-.564.484a5.88,5.88,0,0,0-1.819,5.625l.771,3.742-.269,1.6a6.073,6.073,0,0,0,2.1,5.741l15.974,12.684a1.953,1.953,0,0,0,2.967-.653,6.942,6.942,0,0,0-1.366-8.443l-5.046-4.443,14.978,5.422a14.946,14.946,0,0,0,7.641.688l8.268-1.421,12.748,10.826Z" transform="translate(-25.091 -27.802)" fill="#ff9278"/>
          <path id="Trazado_877025" data-name="Trazado 877025" d="M274.763,297.871a.45.45,0,0,1-.243-.829l9.125-5.829a.45.45,0,1,1,.485.757l-9.124,5.829a.448.448,0,0,1-.243.071" transform="translate(-27.426 -29.108)" fill="#ff6a48"/>
          <path id="Trazado_877026" data-name="Trazado 877026" d="M273.065,308.226a.45.45,0,0,1-.218-.843l11.518-6.375a.45.45,0,0,1,.436.788l-11.518,6.375a.464.464,0,0,1-.218.056" transform="translate(-27.256 -30.089)" fill="#ff6a48"/>
          <path id="Trazado_877027" data-name="Trazado 877027" d="M288.267,316.091a.453.453,0,0,1-.28-.1l-3.077-2.435a.45.45,0,1,1,.559-.706l3.077,2.434a.45.45,0,0,1-.279.8" transform="translate(-28.468 -31.269)" fill="#ff6a48"/>
          <path id="Trazado_877028" data-name="Trazado 877028" d="M432.1,267.07l-45.848.965-1.145,17.051-52.077-10.936a2.774,2.774,0,0,0-3.18,2.111l-13.207,47.284a4.118,4.118,0,0,0,2.787,5.2c9.857,2.251,29.181,6.941,49.316,11.426,9.682,2.156,19.551,4.265,28.645,6.033a29.9,29.9,0,0,0,15.4-1.031c13.215-4.478,23.208-17.934,23.413-34.356.066-5.281.06-10.052-.063-13.588-.349-10-.539-20.691-.888-30.689" transform="translate(-31.642 -26.648)" fill="#ffd563"/>
          <path id="Trazado_877029" data-name="Trazado 877029" d="M393.756,283.653h-.009a.45.45,0,0,1-.441-.459l.656-32.684a.457.457,0,0,1,.459-.441.449.449,0,0,1,.441.458l-.656,32.685a.451.451,0,0,1-.45.441" transform="translate(-39.323 -25.002)" fill="#d3a739"/>
          <path id="Trazado_877030" data-name="Trazado 877030" d="M402.163,290.239a.431.431,0,0,1-.1-.012l-28.387-6.462a.45.45,0,0,1-.338-.539.444.444,0,0,1,.538-.338l28.387,6.463a.45.45,0,0,1-.1.888" transform="translate(-37.325 -28.282)" fill="#d3a739"/>
          <path id="Trazado_877031" data-name="Trazado 877031" d="M410.37,355.813a22.319,22.319,0,0,1-4.549-.466l-29.313-6.1a.449.449,0,1,1,.183-.88l29.313,6.1a21.888,21.888,0,0,0,14.7-2.14.45.45,0,1,1,.422.795,22.954,22.954,0,0,1-10.76,2.693" transform="translate(-37.607 -34.828)" fill="#d3a739"/>
          <path id="Trazado_877032" data-name="Trazado 877032" d="M367.295,128.84l-10.06.847c-4.167-.62-8.356-6.449-10.8-14.327a22.926,22.926,0,0,1-11.186-6.266c-6.157,6.042-14.039,11.05-21.878,8.455a29.426,29.426,0,0,1-9.627-5.143c-.044-.036-.078-.083-.121-.121,0,.043-.01.085-.013.128l-2.853,39.958c-1,14.052,8.126,26.449,20.986,29.506l.22,10.188a20.43,20.43,0,0,0,20.666,20.127l.462-.012c11.122-.263,21.745-6.976,21.5-18.309l-2.3-39.711,4.857.025a12.362,12.362,0,0,0,12.173-12.467l0-.285a12.357,12.357,0,0,0-12.036-12.595" transform="translate(-30.062 -10.907)" fill="#ff9278"/>
          <path id="Trazado_877033" data-name="Trazado 877033" d="M375.576,148.866a.893.893,0,0,1-.48-.14l-4.024-2.544a.9.9,0,0,1-.215-1.33l4.084-4.991A.9.9,0,1,1,376.334,141l-3.44,4.2,3.164,2a.9.9,0,0,1-.482,1.661" transform="translate(-37.058 -13.95)" fill="#ff6a48"/>
          <path id="Trazado_877034" data-name="Trazado 877034" d="M376.322,164.541a4.867,4.867,0,0,1-3.128-1.143,5.2,5.2,0,0,1,2.686-9.138,4.852,4.852,0,0,1,3.592,1.121,5.2,5.2,0,0,1-2.687,9.137c-.155.015-.309.023-.463.023m.019-9.4c-.125,0-.25.005-.376.017a4.219,4.219,0,0,0-3.709,4.623,4.264,4.264,0,0,0,1.515,2.929,3.974,3.974,0,0,0,2.93.916A4.217,4.217,0,0,0,380.41,159a4.26,4.26,0,0,0-1.514-2.928,3.973,3.973,0,0,0-2.555-.935" transform="translate(-37.126 -15.421)" fill="#fff"/>
          <path id="Trazado_877035" data-name="Trazado 877035" d="M318.678,140.067c-1.2-2.1-3.244-4.569-6.37-5.094a7.625,7.625,0,0,0-2.174-.053c-.063.008-.118.022-.179.03a4.491,4.491,0,0,1,2.089,3.882,4.839,4.839,0,0,1-5.21,4.413,5.322,5.322,0,0,1-3.312-1.283,1.669,1.669,0,0,0,1.412,1.8,40.532,40.532,0,0,0,11.928.122,2.58,2.58,0,0,0,1.817-3.821" transform="translate(-30.345 -13.484)" fill="#fff"/>
          <path id="Trazado_877036" data-name="Trazado 877036" d="M312.044,138.841a4.491,4.491,0,0,0-2.089-3.882,7.127,7.127,0,0,0-6.342,6.348c-.038.226-.07.445-.093.646a.11.11,0,0,1,0,.017,5.319,5.319,0,0,0,3.313,1.283,4.839,4.839,0,0,0,5.21-4.413" transform="translate(-30.346 -13.493)" fill="#0b1126"/>
          <path id="Trazado_877037" data-name="Trazado 877037" d="M320.03,174.028a.473.473,0,0,0,.328-.011,4.047,4.047,0,0,1,4.558,1.116.479.479,0,0,0,.688.057.52.52,0,0,0,.056-.713,5.085,5.085,0,0,0-5.662-1.4.512.512,0,0,0-.273.655.5.5,0,0,0,.305.3" transform="translate(-31.963 -17.27)" fill="#ff6a48"/>
          <path id="Trazado_877038" data-name="Trazado 877038" d="M347.815,126.594a6.866,6.866,0,0,1-2.943-.239c-1.028-.228-2.066-.429-2.973-.572s-1.959-.271-3.006-.37a6.877,6.877,0,0,1-2.872-.678c-.73-.464-.9-1.493.2-2.551,1.04-1.035,3.5-1.951,6.507-1.485s5.048,2.106,5.71,3.409c.708,1.343.22,2.266-.621,2.484" transform="translate(-33.537 -12.055)" fill="#0b1126"/>
          <path id="Trazado_877039" data-name="Trazado 877039" d="M304.886,125.312a6.873,6.873,0,0,0,2.952-.013c1.041-.148,2.091-.269,3.006-.342s1.974-.12,3.024-.139a6.839,6.839,0,0,0,2.914-.455c.761-.407,1.009-1.419-.013-2.559-.962-1.112-3.345-2.213-6.381-1.979-3.031.249-5.188,1.714-5.941,2.961-.8,1.286-.384,2.245.438,2.525" transform="translate(-30.395 -11.977)" fill="#0b1126"/>
          <path id="Trazado_877040" data-name="Trazado 877040" d="M337.117,157.033a2.262,2.262,0,0,0-2.855.082,15.583,15.583,0,0,1-9.238,3.577,1.707,1.707,0,0,0-1.347,2.368c.878,2.327,3.4,6,9.318,3.62,7.21-2.9,6.315-7.9,4.122-9.646" transform="translate(-32.349 -15.653)" fill="#fff"/>
          <path id="Trazado_877041" data-name="Trazado 877041" d="M325.754,150.562c-2.082.1-3.743.509-5.629-.806-1.753-1.225-3.148-3.7-2.534-5.924a2.613,2.613,0,0,1,2.076-1.862l1.981-.338.977-9.316" transform="translate(-31.738 -13.229)" fill="#ff9278"/>
          <path id="Trazado_877042" data-name="Trazado 877042" d="M323.187,151.5a6.019,6.019,0,0,1-3.677-1.11c-2-1.4-3.632-4.215-2.886-6.9a3.514,3.514,0,0,1,2.793-2.509l1.309-.223.906-8.637a.9.9,0,1,1,1.789.188l-.977,9.315a.9.9,0,0,1-.743.794l-1.981.338a1.708,1.708,0,0,0-1.36,1.214c-.5,1.8.718,3.925,2.182,4.947,1.319.921,2.471.833,4.066.712.325-.024.658-.05,1-.067a.88.88,0,0,1,.944.855.9.9,0,0,1-.854.942c-.329.017-.646.04-.955.065-.525.04-1.041.078-1.556.078" transform="translate(-31.638 -13.129)" fill="#ff6a48"/>
          <path id="Trazado_877043" data-name="Trazado 877043" d="M348.585,139.377c-1.464-2.562-3.964-5.584-7.784-6.225a9.309,9.309,0,0,0-2.658-.065c-.314.038-.61.09-.9.148a5.7,5.7,0,0,1,4.076,5.483,5.913,5.913,0,0,1-6.367,5.392,6.373,6.373,0,0,1-4.884-2.464l0,.024a2.041,2.041,0,0,0,1.725,2.226,49.525,49.525,0,0,0,14.576.149,3.153,3.153,0,0,0,2.22-4.668" transform="translate(-32.999 -13.299)" fill="#fff"/>
          <path id="Trazado_877044" data-name="Trazado 877044" d="M334.953,144.134a5.913,5.913,0,0,0,6.367-5.392,5.7,5.7,0,0,0-4.076-5.483c-5.054,1-6.605,4.929-7.066,7.646-.045.267-.083.525-.109.765a6.373,6.373,0,0,0,4.884,2.464" transform="translate(-33 -13.323)" fill="#0b1126"/>
          <path id="Trazado_877045" data-name="Trazado 877045" d="M324.114,188.636s23.758.588,27.545-8.25h0s1.368,13.318-27.1,20.954Z" transform="translate(-32.405 -17.642)" fill="#ff6a48"/>
        </g>
      </g>
      <g id="Grupo_1106574" data-name="Grupo 1106574" transform="translate(509.695 3383.117)">
        <g id="Grupo_1106564" data-name="Grupo 1106564" clip-path="url(#clip-path-3)">
          <path id="Trazado_877046" data-name="Trazado 877046" d="M63.381,101.275A30.967,30.967,0,0,0,11.1,93.5L0,91.8,5.893,102.46a30.954,30.954,0,1,0,57.488-1.184" transform="translate(0 42.068)" fill="#340b81"/>
          <path id="Trazado_877047" data-name="Trazado 877047" d="M43.181,111.379H13.736a.755.755,0,1,1,0-1.511H43.181a.755.755,0,1,1,0,1.511" transform="translate(6.629 56.109)" fill="#fff"/>
          <path id="Trazado_877048" data-name="Trazado 877048" d="M43.181,104.83H13.736a.755.755,0,1,1,0-1.511H43.181a.755.755,0,1,1,0,1.511" transform="translate(6.629 52.764)" fill="#fff"/>
          <path id="Trazado_877049" data-name="Trazado 877049" d="M43.181,97.733H13.736a.755.755,0,1,1,0-1.511H43.181a.755.755,0,1,1,0,1.511" transform="translate(6.629 49.14)" fill="#fff"/>
          <path id="Trazado_877050" data-name="Trazado 877050" d="M12.363,66.382a55.275,55.275,0,0,0,88.77,31.942l18.838,6.866L113.4,84.467A55.255,55.255,0,1,0,12.363,66.382" transform="translate(5.731 0)" fill="#340b81"/>
          <path id="Trazado_877051" data-name="Trazado 877051" d="M53.248,79.721H51.337a8.445,8.445,0,0,1,0-16.871h1.911a8.445,8.445,0,0,1,0,16.871M51.337,64.361a6.937,6.937,0,0,0,0,13.85h1.911a6.937,6.937,0,0,0,0-13.85Zm3.1-5.129h-.118a10.754,10.754,0,0,1-4.333-.789c-2.949-1.3-3.576-3.943-3.931-6.321l-1.307-8.735a.747.747,0,0,1,.181-.613l.721-.813a.751.751,0,0,1,.5-.252c5.093-.406,8.694-1.209,10.7-2.384,1.9-1.11,2.789-2.437,2.789-4.179a3.564,3.564,0,0,0-1.455-3.056c-3.186-2.387-6.641-1.122-10.3.216-2.624.961-5.331,1.955-8.022,1.561a7.923,7.923,0,0,1-6.656-9.245,10.382,10.382,0,0,1,5.244-6.839c5.655-3.317,12.664-3.813,16.341-3.813a31.241,31.241,0,0,1,9.357,1.346A22.042,22.042,0,0,1,71.538,19.2a17.858,17.858,0,0,1,4.857,6.223,19.293,19.293,0,0,1,1.743,8.457,19.229,19.229,0,0,1-1.414,7.665,16.9,16.9,0,0,1-3.882,5.579,20.892,20.892,0,0,1-5.757,3.8A32.9,32.9,0,0,1,61,52.647c-.447.1-.887.193-1.314.292.011.233.027.511.041.776.029.55.053,1.064.05,1.168a3.917,3.917,0,0,1-1.73,3.534,7.016,7.016,0,0,1-3.611.816M46.292,43.513,47.546,51.9c.39,2.591,1.012,4.268,3.047,5.161a9.305,9.305,0,0,0,3.734.662,5.869,5.869,0,0,0,2.938-.6c.681-.411.943-1.014,1-2.3,0-.106-.023-.55-.047-1.024-.1-1.849-.11-2.044.53-2.189.609-.147,1.261-.29,1.928-.435a31.757,31.757,0,0,0,5.787-1.626,19.443,19.443,0,0,0,5.343-3.518,15.394,15.394,0,0,0,3.532-5.082,17.738,17.738,0,0,0,1.289-7.062,17.816,17.816,0,0,0-1.6-7.807,16.3,16.3,0,0,0-4.451-5.7,20.5,20.5,0,0,0-6.88-3.617,29.778,29.778,0,0,0-8.906-1.277c-3.523,0-10.232.468-15.578,3.606a8.891,8.891,0,0,0-4.52,5.8,6.417,6.417,0,0,0,5.389,7.485c2.314.334,4.724-.548,7.283-1.485,3.873-1.419,7.883-2.884,11.726-.008a5.057,5.057,0,0,1,2.059,4.266c0,2.269-1.189,4.114-3.537,5.482-2.194,1.284-5.807,2.123-11.039,2.562Z" transform="translate(16.897 7.134)" fill="#fff"/>
        </g>
      </g>
    </g>
    <g id="Grupo_1106576" data-name="Grupo 1106576" transform="translate(402.926 3698.896)">
      <g id="Grupo_1106575" data-name="Grupo 1106575" clip-path="url(#clip-path-4)">
        <path id="Trazado_877141" data-name="Trazado 877141" d="M244.538,98.386a4.781,4.781,0,0,0-4.781-4.781H167.248l-35.67-88.3A8.489,8.489,0,0,0,123.708,0H5.538A5.533,5.533,0,0,0,.371,7.511L36.583,102.1l131.756-.577c.032,0,.06-.011.092-.012h76.107Z" transform="translate(0)" fill="#0b1126"/>
        <path id="Trazado_877142" data-name="Trazado 877142" d="M205.336,110.765h-8.5a.12.12,0,0,1-.12-.12V108.7a.12.12,0,0,1,.12-.119h8.5a.12.12,0,0,1,.12.119v1.944a.12.12,0,0,1-.12.12" transform="translate(-21.417 -11.821)" fill="#fff"/>
        <path id="Trazado_877143" data-name="Trazado 877143" d="M222.235,110.765h-8.5a.12.12,0,0,1-.12-.12V108.7a.12.12,0,0,1,.12-.119h8.5a.12.12,0,0,1,.12.119v1.944a.12.12,0,0,1-.12.12" transform="translate(-23.256 -11.821)" fill="#fff"/>
        <path id="Trazado_877144" data-name="Trazado 877144" d="M87.153,63.988c-3.827,3.827-10.963,2.9-15.938-2.081S65.307,49.8,69.134,45.968,80.1,43.074,85.072,48.049s5.907,12.112,2.081,15.939" transform="translate(-7.27 -4.748)" fill="#fff"/>
        <path id="Trazado_877145" data-name="Trazado 877145" d="M81.019,66.726a14.777,14.777,0,0,1-10.175-4.558,15.249,15.249,0,0,1-4.467-8.658,8.74,8.74,0,0,1,10.3-10.3,15.245,15.245,0,0,1,8.658,4.468c5.142,5.142,6.075,12.574,2.081,16.569a8.864,8.864,0,0,1-6.394,2.477M75.161,44a7.986,7.986,0,0,0-5.768,2.225c-3.647,3.647-2.714,10.514,2.081,15.309s11.661,5.728,15.309,2.081S89.5,53.1,84.7,48.31A13.9,13.9,0,0,0,75.161,44" transform="translate(-7.215 -4.693)" fill="#121936"/>
        <path id="Trazado_877146" data-name="Trazado 877146" d="M81.861,69.647a19.026,19.026,0,0,1-13.094-5.881c-6.606-6.605-7.831-16.128-2.731-21.229s14.625-3.875,21.23,2.731S95.1,61.4,90,66.5a11.273,11.273,0,0,1-8.135,3.149M74.173,39.83a10.832,10.832,0,0,0-7.822,3.023c-4.927,4.927-3.7,14.168,2.73,20.6s15.673,7.657,20.6,2.73,3.7-14.167-2.73-20.6A18.6,18.6,0,0,0,74.173,39.83" transform="translate(-6.846 -4.288)" fill="#fff"/>
      </g>
    </g>
  </g>
</svg>
