<svg xmlns="http://www.w3.org/2000/svg" width="78" height="78" viewBox="0 0 78 78">
  <g id="Grupo_1106656" data-name="Grupo 1106656" transform="translate(-306.051 -3672)">
    <circle id="Elipse_11629" data-name="Elipse 11629" cx="39" cy="39" r="39" transform="translate(306.051 3672)" fill="#fd5a37"/>
    <g id="dato" transform="translate(320.051 3686)">
      <path id="Trazado_877323" data-name="Trazado 877323" d="M2,57H12.065v3.871H2Z" transform="translate(-0.226 -12.645)" fill="#838f9b"/>
      <path id="Trazado_877324" data-name="Trazado 877324" d="M43,57H57.71v3.871H43Z" transform="translate(-9.484 -12.645)" fill="#838f9b"/>
      <path id="Trazado_877325" data-name="Trazado 877325" d="M36.677,55.871v3.871H15V55.1A3.1,3.1,0,0,1,18.1,52H33.6a3.1,3.1,0,0,1,3.074,3.1Z" transform="translate(-3.161 -11.516)" fill="#aab2bd"/>
      <path id="Trazado_877326" data-name="Trazado 877326" d="M46.258,12H6V39.871H46.258Z" transform="translate(-1.129 -2.484)" fill="#e6e9ed"/>
      <path id="Trazado_877327" data-name="Trazado 877327" d="M29.839,39.516h2.083A6.182,6.182,0,0,0,36.3,37.7l6.062-6.062A2.19,2.19,0,0,1,46.1,33.191V33.2a2.18,2.18,0,0,1-.635,1.541l-9.337,9.422-.17.17a4.611,4.611,0,0,0-1.448,2.926H19a7.65,7.65,0,0,1,.65-3.1,7.735,7.735,0,0,1,7.092-4.645h3.1Z" transform="translate(-4.065 -6.774)" fill="#3bafda"/>
      <path id="Trazado_877328" data-name="Trazado 877328" d="M30.419,28A5.419,5.419,0,1,1,25,33.419a5.328,5.328,0,0,1,.774-2.787A5.4,5.4,0,0,1,30.419,28Z" transform="translate(-5.419 -6.097)" fill="#f0d0b4"/>
      <g id="Grupo_1106655" data-name="Grupo 1106655" transform="translate(7.968 12.613)">
        <path id="Trazado_877329" data-name="Trazado 877329" d="M29.1,22v4.87A5.391,5.391,0,0,0,26,29.277V22Z" transform="translate(-13.613 -17.355)" fill="#fcd770"/>
        <path id="Trazado_877330" data-name="Trazado 877330" d="M18,16h3.1V28.387H18Z" transform="translate(-11.806 -16)" fill="#fcd770"/>
        <path id="Trazado_877331" data-name="Trazado 877331" d="M10,26h3.1v4.645H10Z" transform="translate(-10 -18.258)" fill="#fcd770"/>
      </g>
      <path id="Trazado_877332" data-name="Trazado 877332" d="M56.129,2V19.032H36V2Z" transform="translate(-7.903 -0.226)" fill="#ffeaa7"/>
      <path id="Trazado_877333" data-name="Trazado 877333" d="M49,6a5.42,5.42,0,0,1,3.832,9.252L49,11.419Z" transform="translate(-10.839 -1.129)" fill="#69d6f4"/>
      <path id="Trazado_877334" data-name="Trazado 877334" d="M47.419,13l3.832,3.832A5.42,5.42,0,0,1,42,13Z" transform="translate(-9.258 -2.71)" fill="#ccd1d9"/>
      <path id="Trazado_877335" data-name="Trazado 877335" d="M47.419,6v5.419H42A5.415,5.415,0,0,1,47.419,6Z" transform="translate(-9.258 -1.129)" fill="#ff826e"/>
      <path id="Trazado_877336" data-name="Trazado 877336" d="M45.9,38.161V19.581H49V1H27.323V8.742H4.1V38.161H14.491a8.441,8.441,0,0,0-.295,1.623,3.875,3.875,0,0,0-3.132,3.8H1V49H49V43.581H34.29a3.868,3.868,0,0,0-2.93-3.742,3.917,3.917,0,0,1,1.027-1.678ZM15.755,39.71a6.976,6.976,0,0,1,6.922-6.194h5.177a6.922,6.922,0,0,0,4.927-2.041l6.06-6.06a1.4,1.4,0,0,1,1-.415,1.42,1.42,0,0,1,1.006,2.418l-9.489,9.577a5.407,5.407,0,0,0-1.552,2.715Zm6.922-18.125a6.185,6.185,0,0,0-1.548.91V18.032h1.548ZM25,22.677a4.645,4.645,0,1,1-4.645,4.645A4.65,4.65,0,0,1,25,22.677ZM28.871,2.548H47.452V18.032H28.871ZM5.645,36.613V10.29H27.323v9.29H44.355V36.613H33.916l8.032-8.105a2.966,2.966,0,0,0-4.2-4.188l-6.06,6.06A5.385,5.385,0,0,1,29.3,31.768a6.175,6.175,0,0,0-5.077-10.586v-4.7H19.581v7.847a6.177,6.177,0,0,0,1.51,7.791,8.536,8.536,0,0,0-5.99,4.491Zm-3.1,10.839V45.129h8.516v2.323Zm44.9-2.323v2.323H34.29V45.129Zm-14.71-1.548v3.871H12.613V43.581a2.325,2.325,0,0,1,2.323-2.323H30.419A2.325,2.325,0,0,1,32.742,43.581Z"/>
      <path id="Trazado_877337" data-name="Trazado 877337" d="M13.645,25H9v6.194h4.645ZM12.1,29.645H10.548v-3.1H12.1Z" transform="translate(-1.806 -5.419)"/>
      <path id="Trazado_877338" data-name="Trazado 877338" d="M21.645,15H17V28.935h4.645ZM20.1,27.387H18.548V16.548H20.1Z" transform="translate(-3.613 -3.161)"/>
      <path id="Trazado_877339" data-name="Trazado 877339" d="M47.194,5a6.194,6.194,0,1,0,6.194,6.194A6.2,6.2,0,0,0,47.194,5Zm-.774,1.618v3.8h-3.8A4.652,4.652,0,0,1,46.419,6.618Zm-3.8,5.35h4.255l3.008,3.008a4.633,4.633,0,0,1-7.263-3.008Zm8.357,1.913-3.008-3.008V6.618a4.633,4.633,0,0,1,3.008,7.263Z" transform="translate(-9.032 -0.903)"/>
      <path id="Trazado_877340" data-name="Trazado 877340" d="M9,35h1.548v1.548H9Z" transform="translate(-1.806 -7.677)"/>
      <path id="Trazado_877341" data-name="Trazado 877341" d="M13,35h1.548v1.548H13Z" transform="translate(-2.71 -7.677)"/>
      <path id="Trazado_877342" data-name="Trazado 877342" d="M17,35h1.548v1.548H17Z" transform="translate(-3.613 -7.677)"/>
      <path id="Trazado_877343" data-name="Trazado 877343" d="M9,39h7.742v1.548H9Z" transform="translate(-1.806 -8.581)"/>
      <path id="Trazado_877344" data-name="Trazado 877344" d="M9,43h7.742v1.548H9Z" transform="translate(-1.806 -9.484)"/>
    </g>
  </g>
</svg>
