<svg xmlns="http://www.w3.org/2000/svg" xmlns:xlink="http://www.w3.org/1999/xlink" width="295" height="325.948" viewBox="0 0 295 325.948">
  <defs>
    <clipPath id="clip-path">
      <rect id="Rect치ngulo_403432" data-name="Rect치ngulo 403432" width="295" height="325.948" rx="18" transform="translate(180 628)" fill="#ebe7f3"/>
    </clipPath>
    <clipPath id="clip-path-2">
      <rect id="Rect치ngulo_403431" data-name="Rect치ngulo 403431" width="387.745" height="410.352" transform="translate(0 0)" fill="none"/>
    </clipPath>
  </defs>
  <g id="Enmascarar_grupo_1099797" data-name="Enmascarar grupo 1099797" transform="translate(-180 -628)" clip-path="url(#clip-path)">
    <g id="Grupo_1106514" data-name="Grupo 1106514" transform="translate(121 604.243)">
      <g id="Grupo_1106513" data-name="Grupo 1106513" transform="translate(0 0.001)" clip-path="url(#clip-path-2)">
        <path id="Trazado_876651" data-name="Trazado 876651" d="M97.929,238.337c-9.1-4.179-17.414-11.222-26.711-14.6-3.059-1.111-4.321,4.492-1.242,5.612,9.3,3.38,17.608,10.424,26.711,14.6,3.027,1.391,4.266-4.224,1.242-5.612" transform="translate(-46.431 -152.217)" fill="#fff"/>
        <path id="Trazado_876652" data-name="Trazado 876652" d="M30.152,536.24c-9,2.677-18.506,2.769-27.937,2.452-2.958-.1-2.951,4.769.006,4.868,9.795.328,19.763.234,29.114-2.545,2.794-.832,1.619-5.608-1.184-4.775" transform="translate(0 -364.993)" fill="#fff"/>
        <path id="Trazado_876653" data-name="Trazado 876653" d="M100.887,688.318c-7.04,3.129-14.4,5.535-21.264,9.074-2.6,1.34-.352,5.717,2.25,4.376,6.864-3.539,14.226-5.943,21.264-9.076,2.674-1.187.413-5.561-2.251-4.375" transform="translate(-53.419 -468.454)" fill="#fff"/>
        <path id="Trazado_876654" data-name="Trazado 876654" d="M1120.988,197.518c-6.613,6.113-13.263,12.372-21.605,16.376-3,1.438,0,5.8,2.973,4.375,8.717-4.181,15.734-10.8,22.638-17.188,2.4-2.22-1.626-5.765-4.005-3.563" transform="translate(-747.587 -133.993)" fill="#fff"/>
        <path id="Trazado_876655" data-name="Trazado 876655" d="M1110.978,705.748c-9.107-.914-18.057-3.078-27.108-4.444-3.436-.517-3.691,4.509-.269,5.024,9.052,1.362,18,3.529,27.106,4.441,3.453.347,3.727-4.674.272-5.02" transform="translate(-736.028 -477.406)" fill="#fff"/>
        <path id="Trazado_876656" data-name="Trazado 876656" d="M105.659,407.052c-5.213-2.181-10.614-3.9-15.83-6.085-3.19-1.338-4.664,3.439-1.512,4.756,5.212,2.182,10.617,3.9,15.828,6.087,3.192,1.336,4.663-3.439,1.514-4.757" transform="translate(-58.933 -272.81)" fill="#fff"/>
        <path id="Trazado_876657" data-name="Trazado 876657" d="M449.391,19.563c-3.231-5.322-5.156-10.753-4.7-17.027.235-3.23-5.108-3.449-5.344-.225-.517,7.131,1.566,13.551,5.251,19.622,1.675,2.758,6.48.409,4.793-2.371" transform="translate(-299.044 -0.001)" fill="#fff"/>
        <path id="Trazado_876658" data-name="Trazado 876658" d="M1148.618,559.062a87.476,87.476,0,0,0-23.809,1.818c-5.182,1.109-3.734,6.014,1.441,4.909a72.558,72.558,0,0,1,19.571-1.585c5.033.327,7.858-4.815,2.8-5.142" transform="translate(-763.539 -380.481)" fill="#fff"/>
        <path id="Trazado_876659" data-name="Trazado 876659" d="M283.929,148.755c-2.726-4.645-5.914-9.041-8.641-13.687-1.669-2.845-6.048,0-4.4,2.811,2.728,4.645,5.916,9.042,8.643,13.687,1.669,2.846,6.046,0,4.4-2.811" transform="translate(-184.166 -91.149)" fill="#fff"/>
        <path id="Trazado_876660" data-name="Trazado 876660" d="M968.29,115.981c-3.665,3.816-6.921,7.986-10.585,11.8-2.245,2.335,2.1,5.552,4.307,3.245,3.665-3.815,6.923-7.984,10.587-11.8,2.245-2.336-2.095-5.552-4.309-3.246" transform="translate(-651.557 -78.416)" fill="#fff"/>
        <path id="Trazado_876661" data-name="Trazado 876661" d="M1080.973,889.849c-8.639-3.107-17.425-6.182-25.061-11.767-2.745-2.012-5.1,2.6-2.385,4.592,7.975,5.838,17.258,9.076,26.283,12.319,3.139,1.13,4.275-4.027,1.163-5.144" transform="translate(-716.396 -597.439)" fill="#fff"/>
        <path id="Trazado_876662" data-name="Trazado 876662" d="M995.782,1011.657a2.9,2.9,0,0,0-3.8-.263,2.387,2.387,0,0,0-.258,3.532l5.106,4.8a2.894,2.894,0,0,0,3.8.27,2.392,2.392,0,0,0,.255-3.535Z" transform="translate(-674.686 -688.129)" fill="#fff"/>
        <path id="Trazado_876663" data-name="Trazado 876663" d="M626.823,66.062a2.885,2.885,0,0,0-2.258-3.052,2.38,2.38,0,0,0-2.844,2.088l-.338,6.97a2.885,2.885,0,0,0,2.255,3.058,2.381,2.381,0,0,0,2.844-2.091Z" transform="translate(-423.021 -42.867)" fill="#fff"/>
        <path id="Trazado_876664" data-name="Trazado 876664" d="M1128.856,392.041l-6.385,2.886a2.9,2.9,0,0,0-1.7,3.415,2.39,2.39,0,0,0,3.169,1.585l6.388-2.884a2.9,2.9,0,0,0,1.7-3.416,2.389,2.389,0,0,0-3.167-1.586" transform="translate(-762.919 -266.766)" fill="#fff"/>
        <path id="Trazado_876665" data-name="Trazado 876665" d="M806.62,10.18c-5.652,4.38-9.037,10.219-11.092,17.017-.933,3.088,4.025,5.094,4.966,1.982,1.8-5.96,4.556-11.022,9.529-14.873,2.56-1.983-.846-6.105-3.4-4.127" transform="translate(-541.497 -6.574)" fill="#fff"/>
        <path id="Trazado_876666" data-name="Trazado 876666" d="M912.251,1139.98c-4.554-7.939-8-16.478-12.155-24.634-1.578-3.1-5.815-.381-4.242,2.7,4.157,8.155,7.6,16.692,12.157,24.631,1.726,3.01,5.969.313,4.241-2.7" transform="translate(-609.642 -758.372)" fill="#fff"/>
        <path id="Trazado_876667" data-name="Trazado 876667" d="M706.447,1165.833c-1.479-9.061-3.057-18.235-1.881-27.622.426-3.377-4.754-3.2-5.173.144-1.23,9.807.446,19.493,1.992,28.959.536,3.293,5.6,1.781,5.062-1.481" transform="translate(-475.84 -773.2)" fill="#fff"/>
        <path id="Trazado_876668" data-name="Trazado 876668" d="M844.073,570.015c0-.024.005-.044.007-.066l-.023.058Z" transform="translate(-574.614 -388.008)" fill="#1e2635" fill-rule="evenodd"/>
        <path id="Trazado_876669" data-name="Trazado 876669" d="M847.615,795.66a1.485,1.485,0,0,0-1.48,1.48,1.438,1.438,0,0,0,.955,1.359c-.009-.005,0-.005.014,0l.008.005.017.006,0,.006-.014-.005c.01.007.018.014.027.022.032.042.072.095.1.141,0,0,0,.007,0,.011l0,.005a1.476,1.476,0,0,0,2.95-.072,3.028,3.028,0,0,0-2.589-2.959" transform="translate(-576.029 -541.665)" fill="#f9daab"/>
        <path id="Trazado_876670" data-name="Trazado 876670" d="M849.412,804.658h0l-.005-.009h0l0,.007" transform="translate(-578.258 -547.788)" fill="#f9daab"/>
        <path id="Trazado_876671" data-name="Trazado 876671" d="M849.126,804.557l.029.014-.008-.007a.147.147,0,0,1-.022-.007" transform="translate(-578.065 -547.724)" fill="#f9daab"/>
        <path id="Trazado_876672" data-name="Trazado 876672" d="M829.121,356.046a61.163,61.163,0,0,0-4.881,5.369c-3.261,4.073-5.486,12.337-11.515,13.293-6.407,1.007-8.046-10.761-8.539-15.207-1.162-10.47,9.1-16.495,17.556-20.33,9.331-4.229,17.1-1.822,20.463,7.891-4.4,1.488-9.162,5.144-13.084,8.985" transform="translate(-547.409 -229.538)" fill="#c25e55"/>
        <path id="Trazado_876673" data-name="Trazado 876673" d="M865.346,353.071c-.567-3.154-2.529-6.488-4.373-7.247-7.655-3.153-13.421,10.491-1.971,13.138,5.734,1.321,7.015-2.16,6.344-5.89" transform="translate(-580.392 -235.109)" fill="#ae514f"/>
        <path id="Trazado_876674" data-name="Trazado 876674" d="M851.672,684.287a15.048,15.048,0,0,1,7.163,3.966c1.045,1-25.846,37.382-34.7,28.019-11.235-11.894,15.329-34.695,27.534-31.985" transform="translate(-559.209 -465.696)" fill="#c25e55"/>
        <path id="Trazado_876675" data-name="Trazado 876675" d="M857.782,713.274c.438-4.676,1.955-9.618,3.38-10.744,5.915-4.674,10.372,15.553,1.523,19.476-4.431,1.959-5.421-3.2-4.9-8.732" transform="translate(-583.873 -477.792)" fill="#ae514f"/>
        <path id="Trazado_876676" data-name="Trazado 876676" d="M290.785,627.1a33.956,33.956,0,0,1-2.607-15.89c-11.379-2.561-22.643-5.65-33.792-9.031-1.961,14.511-8.234,28.41-16.4,40.565a18.766,18.766,0,0,0-.859,6.355c.021.429.049.863.08,1.3,1.286,17.976,1.909,36.382,4.005,54.319,1.34,11.466,2.264,24.838-4.76,34.682,4.9-6.869,11.955-11.291,19.115-15.277,9.5-5.286,17.479-8.244,24.495-17.134,12.353-15.652,18.687-31.7,17.285-52.179-.74-10.8-2.653-17.668-6.559-27.708" transform="translate(-160.969 -409.953)" fill="#b55044"/>
        <path id="Trazado_876677" data-name="Trazado 876677" d="M361.065,606.567c-8.986-3.876-21.891-4.122-29.408-10.471-22.293-18.829-43.666-38.731-62.249-60.516-5.493,7.443-11.064,14.951-15.714,21.135-2.868,3.814-6.957,7.51-9.279,11.65-1.577,2.812-1.712,6.57-4.165,8.919-9.6,9.188-13.2-12.418-17.642,2.277-3.1,10.275-4.941,21.09-10.016,30.662-2.13,4.016-6.06,6.634-8.177,10.706-3.357,6.456-2.717,14.146-5.966,20.713-5.326,10.759-9.853,21.174-19.906,28.657-7.4,5.51-12.688,13.757-18.54,20.79-8.2,9.856-20.741,19.606-10.648,30.251,15.152,15.982,36.2,32,55.5,42.68,13.849,7.665,29.413,10.113,39-4.256,8.165-12.242,10.516-26.268,23.117-35.55,11.336-8.349,26.457-9.137,37.647-17.052,15.952-11.281,29.785-28.493,41.574-43.945,10.481-13.74,23.2-29.058,24.524-47.086.358-4.9-5.445-7.751-9.649-9.564" transform="translate(-99.12 -364.611)" fill="#b55044"/>
        <path id="Trazado_876678" data-name="Trazado 876678" d="M277.385,957.8c-5.61-3.929-43.1-33.992-26.523-39.54,8.8-2.94,22.752,12.182,28.4,17.124,13.42,11.74,29.181,19.047,42.868,30.206,4.213,3.435,13.593,10.2,13.439,16.4-.259,10.421-14.493,6.905-19.769,2.833-12.58-9.708-25.369-17.891-38.416-27.026" transform="translate(-167.922 -624.874)" fill="#ac4a44"/>
        <path id="Trazado_876679" data-name="Trazado 876679" d="M457.329,842.8c-10.8.467-30.889,6.245-33.342-9.979-1.743-11.525,7.96-32.671-2.446-42.5-12.659,18.73-8.9,42.253-1.794,62.095,6.464,18.043,35.256,13.97,49.981,14.462,8.953.3,53.729-10.8,32.823-23.625-12.155-7.455-31.994-1.028-45.222-.457" transform="translate(-281.308 -538.034)" fill="#ac4a44"/>
        <path id="Trazado_876680" data-name="Trazado 876680" d="M624.41,503.984c-3.12,1.827-12.728,6.817-16.24,4.244-4.822-3.534,10.922-12.786,13.82-14.973,4.744-3.579,10.108-6.769,14.618-10.673,2.862-2.477,6.422-6.251,4.408-10.348-2.111-4.3-7.041-1.315-10.191.115-15.494,7.028-30.063,16.164-44.648,24.881-7.791,4.657-15.9,9.118-23.8,13.517-5.462,3.042-11.083,8.037-17.162,5.756-4.455-1.671-9.178-8.076-13.306-1.993-2.385,3.512-3.833,8.138-5.057,12.832-1.089,4.174-2,8.4-3.237,11.954-2.05,5.885-2.028,12.057-1.951,18.208.086,6.839-6.335,27.563-6.335,27.563,1.708,10.087.12,18.859,11.306,21.388,9.487,2.145,20.982.583,29.734-3.707,5.123-2.511,6.411-6.194,12.354-4.241,4.85,1.593,8.924,6.023,14.348,5.749,4.438-.224,8.287-6.546,11.044-9.616,6.519-7.257,12.816-14.52,18.065-22.787,3.247-5.115,6.794-9.809,8.879-15.553,1.883-5.187,5.056-10.411,6.136-15.97,1.2-6.15-3.05-11.2-2.111-16.967,1-6.116,7.521-9.446,8.4-16.037.276-2.076.32-4.8-1.774-6.057-2.722-1.636-4.92,1.323-7.3,2.719" transform="translate(-350.826 -319.968)" fill="#b55044"/>
        <path id="Trazado_876681" data-name="Trazado 876681" d="M863.662,561.091c-.033.044-3.18,4.375-3.18,4.375-.042,1.065.928,13.968,1.784,13.734,7.164-1.958,15.376-9.747,13.438-17.611-.865-3.508-6.116-12.514-10.772-8.486-2.308,2,.256,5.86-1.27,7.989" transform="translate(-585.795 -375.847)" fill="#b55044"/>
        <path id="Trazado_876682" data-name="Trazado 876682" d="M556.883,216.6c-7.325-5.6-16.119-5.335-26.208-5.316-10.313.019-54.715-.68-64.677-.617-8.867.057-42.1-2.893-42.788,27.922-.363,16.235-.184,32.384-.018,48.534.2,19.9-.143,38.355-.4,58.263-.19,14.807-.19,34.33.344,49.131.451,12.534-.411,21.891.154,34.42.408,9.049-1.872,20.552,6.717,27.423,5.373,4.3,13.972,5.851,20.525,6.4,10.392.866,20.828-.009,31.235.236,12.14.287,24.234-.279,36.348-1.066,10.637-.692,23.667,1.792,33.685-1.887,11.374-4.175,14.592-15.408,14.949-28.074,1.359-48.187-1.232-96.752.7-144.629.535-13.206-.738-27.03-1.381-40.462-.535-11.211.973-22.5-9.192-30.277" transform="translate(-287.749 -143.38)" fill="#446e90"/>
        <path id="Trazado_876683" data-name="Trazado 876683" d="M545.577,233.126c-20.789.01-76.572-2.22-93.1-.486-24.85,2.607-21.157,27.591-21.441,35.208-.1,2.769-.069,75.918-.034,128.983.02,29.891.04,53.408.034,54.382-.1,22.648,11.211,26.42,26,26.412l79.584-.04c33.271-.015,33.16-9.331,33.152-29.676,0-6.553.212-41.782.427-79.213.216-37.661.434-77.55.427-92.7,0-2.03.075-4.092.151-6.147.531-14.411.732-36.735-25.2-36.723" transform="translate(-293.393 -157.926)" fill="#20375a"/>
        <path id="Trazado_876684" data-name="Trazado 876684" d="M617.531,252.566c-4.776.072-7.147.351-10.708.235-3.462-.113-13.067-.014-20.444.05-1.7.015-18.757-1.38-13.067,3.919,1.635,1.522,5.653.861,7.684.966,5.083.262,12.041.1,18.2.117,6.779.023,10.5.015,18.552-.005,6.8-.016,5.211-5.362-.217-5.281" transform="translate(-389.51 -171.941)" fill="#192635"/>
        <path id="Trazado_876685" data-name="Trazado 876685" d="M575.8,479.878c.026-9.431.445-18.205.469-27.639.044-16.141-.014-141.41.021-154,.041-15.056-8.21-19.036-17.129-19.192-10.63-.186-86.483.106-93.713-.01-6.328-.1-18.7,3.052-19.181,17.895-.273,8.463-.322,70.869-.378,79.336-.057,8.963-.184,26.883-.184,26.883-.109,16.185.282,56.776.264,59.493-.031,5.269.064,7.225,0,13.893-.05,5.607-2.228,19.173,20.3,19.565,8.993.157,84.062-.255,91.5-.068,17.589.441,18.024-12.99,18.034-16.157" transform="translate(-303.411 -189.926)" fill="#88bac7"/>
        <path id="Trazado_876686" data-name="Trazado 876686" d="M815.315,430.853a16.541,16.541,0,0,1,1.153-8.809c9.221,1.976,37.881,10.361,27.7,24.92-8.5,12.161-27.578-6.532-28.855-16.112" transform="translate(-554.939 -287.318)" fill="#c25e55"/>
        <path id="Trazado_876687" data-name="Trazado 876687" d="M831.13,436.826c-4.141,5.819-10.053-2.874-12.122-6.391a1.254,1.254,0,0,0-2.165,1.264,25.292,25.292,0,0,0,7.213,8.34,6.863,6.863,0,0,0,4.8,1.254,6.945,6.945,0,0,0,4.433-3.2c.94-1.32-1.236-2.57-2.164-1.265" transform="translate(-555.963 -292.619)" fill="#933c31"/>
        <path id="Trazado_876688" data-name="Trazado 876688" d="M203.243,987.617c-1.809-4.284-94.94-82.1-107.629-84.344-8.433-1.489-18.41,10.765-22.791,14.9C63.588,926.89,48.2,939.214,42.8,950.5c-10.674,22.326,12.322,41.58,27.785,54.4,18.839,15.625,48.429,17.693,71.821,20.072,18.321,1.865,73.244-7.965,60.837-37.358" transform="translate(-27.278 -614.842)" fill="#3c8cbf"/>
        <path id="Trazado_876689" data-name="Trazado 876689" d="M77.166,1050.89c-1.636,1.676-2.927,3.649-4.563,5.323-2.57,2.631,1.46,6.667,4.033,4.033,1.635-1.676,2.927-3.649,4.563-5.323,2.569-2.632-1.46-6.667-4.033-4.033" transform="translate(-48.866 -714.838)" fill="#66acd4"/>
        <path id="Trazado_876690" data-name="Trazado 876690" d="M137.617,993.794a17.918,17.918,0,0,0-3.488,4.379,2.9,2.9,0,0,0,1.023,3.9,2.867,2.867,0,0,0,3.9-1.023c.164-.32.337-.631.527-.936.072-.113.147-.224.223-.333l.024-.036.016-.019c.552-.675,1.189-1.284,1.806-1.9a2.852,2.852,0,0,0-4.032-4.033" transform="translate(-91.067 -675.991)" fill="#66acd4"/>
        <path id="Trazado_876691" data-name="Trazado 876691" d="M183.417,945.738a8.171,8.171,0,0,0-2.33,1.9c-.288.336-.555.689-.822,1.041.142-.192-.326.4-.466.543a2.852,2.852,0,0,0,4.032,4.033c.184-.191.351-.395.516-.6.184-.235.365-.471.546-.708l-.081.106q.1-.128.2-.253a8.859,8.859,0,0,1,.687-.747c.033-.032.091-.081.146-.128.146-.094.294-.182.448-.262a2.852,2.852,0,0,0-2.878-4.925" transform="translate(-121.842 -643.588)" fill="#66acd4"/>
        <path id="Trazado_876692" data-name="Trazado 876692" d="M94.407,1127.967a2.869,2.869,0,0,0-3.857,1.178,9.437,9.437,0,0,1-.56,1.009l-.046.062c-.156.2-.328.394-.5.584-.116.125-.234.248-.357.367-.029.029-.244.213-.338.3a8.113,8.113,0,0,1-.865.568,2.852,2.852,0,0,0,3.072,4.807,11.733,11.733,0,0,0,4.629-5.014,2.9,2.9,0,0,0-1.178-3.857" transform="translate(-58.942 -767.674)" fill="#66acd4"/>
        <path id="Trazado_876693" data-name="Trazado 876693" d="M133.177,1066.086a2.9,2.9,0,0,0-3.9,1.023c-1.426,2.1-3.135,3.984-4.562,6.083a2.864,2.864,0,0,0,1.023,3.9,2.9,2.9,0,0,0,3.9-1.023c1.426-2.1,3.135-3.984,4.562-6.084a2.865,2.865,0,0,0-1.023-3.9" transform="translate(-84.625 -725.503)" fill="#66acd4"/>
        <path id="Trazado_876694" data-name="Trazado 876694" d="M172.177,1031.047a2.766,2.766,0,0,0-2.574,1.718c-.081.075-.167.146-.252.216a14.331,14.331,0,0,0-1.471,1.182,2.851,2.851,0,0,0,4.032,4.033c.12-.116.245-.223.374-.329a16.744,16.744,0,0,0,1.429-1.138,4.127,4.127,0,0,0,1.313-2.831,2.862,2.862,0,0,0-2.851-2.852" transform="translate(-113.726 -701.913)" fill="#66acd4"/>
        <path id="Trazado_876695" data-name="Trazado 876695" d="M217.415,990.547a5.363,5.363,0,0,0-2.073.533c-.186.079-.368.169-.551.258-.056.017-.115.029-.173.041l-.074.015-.041.009.019,0a2.834,2.834,0,0,0-2.239,2.758,2.865,2.865,0,0,0,2.852,2.852,5.369,5.369,0,0,0,2.073-.534c.187-.078.369-.169.551-.257.057-.017.116-.028.173-.041l.074-.016.041-.009-.018,0a2.835,2.835,0,0,0,2.238-2.758,2.866,2.866,0,0,0-2.851-2.851" transform="translate(-144.517 -674.339)" fill="#66acd4"/>
        <path id="Trazado_876696" data-name="Trazado 876696" d="M118.516,1179.6c-.071.07-.145.137-.22.2l-.005,0c-.262.189-.532.365-.8.544a14.48,14.48,0,0,0-2.016,1.531,2.852,2.852,0,0,0,4.032,4.034c.071-.071.145-.138.22-.2l.006,0c.261-.188.532-.365.8-.542a14.523,14.523,0,0,0,2.017-1.533,2.851,2.851,0,0,0-4.033-4.031" transform="translate(-78.05 -802.482)" fill="#66acd4"/>
        <path id="Trazado_876697" data-name="Trazado 876697" d="M173.8,1126.329a2.835,2.835,0,0,0-2.76,2.242l0-.023-.022.091c-.243.277-.5.545-.758.806a2.852,2.852,0,1,0,4.033,4.033,6.576,6.576,0,0,0,2.356-4.3,2.865,2.865,0,0,0-2.851-2.851" transform="translate(-115.352 -766.778)" fill="#66acd4"/>
        <path id="Trazado_876698" data-name="Trazado 876698" d="M234.693,1050.521a2.869,2.869,0,0,0-3.9,1.022,9.258,9.258,0,0,1-.6.986l-.049.06c-.164.2-.342.38-.521.564-.121.121-.244.239-.372.353-.03.028-.252.2-.349.283a8.337,8.337,0,0,1-.888.534,2.852,2.852,0,1,0,2.878,4.925,11.737,11.737,0,0,0,4.825-4.826,2.9,2.9,0,0,0-1.023-3.9" transform="translate(-154.272 -714.913)" fill="#66acd4"/>
        <path id="Trazado_876699" data-name="Trazado 876699" d="M185.256,1186.737a17.892,17.892,0,0,0-3.488,4.379,2.9,2.9,0,0,0,1.023,3.9,2.866,2.866,0,0,0,3.9-1.024c.164-.319.338-.631.528-.937.072-.111.146-.223.223-.332l.024-.035.016-.019a26.071,26.071,0,0,1,1.806-1.9,2.852,2.852,0,0,0-4.033-4.034" transform="translate(-123.499 -807.342)" fill="#66acd4"/>
        <path id="Trazado_876700" data-name="Trazado 876700" d="M232.1,1129.569l-2.281,2.282a2.851,2.851,0,0,0,4.032,4.032l2.282-2.281a2.852,2.852,0,0,0-4.033-4.033" transform="translate(-155.892 -768.424)" fill="#66acd4"/>
        <path id="Trazado_876701" data-name="Trazado 876701" d="M270.21,1081.929l-2.281,2.281a2.852,2.852,0,0,0,4.033,4.033l2.281-2.281a2.852,2.852,0,0,0-4.032-4.033" transform="translate(-181.838 -735.991)" fill="#66acd4"/>
        <path id="Trazado_876702" data-name="Trazado 876702" d="M320.7,1031.047a2.881,2.881,0,0,0-2.813,2.417,2.764,2.764,0,0,0-.8,1.954,2.869,2.869,0,0,0,2.851,2.852,3.506,3.506,0,0,0,3.093-1.8,5.651,5.651,0,0,0,.519-2.575,2.879,2.879,0,0,0-2.852-2.852" transform="translate(-215.867 -701.913)" fill="#66acd4"/>
        <path id="Trazado_876703" data-name="Trazado 876703" d="M279.648,1007.228c-3.677,0-3.677,5.7,0,5.7s3.678-5.7,0-5.7" transform="translate(-188.5 -685.697)" fill="#66acd4"/>
        <path id="Trazado_876704" data-name="Trazado 876704" d="M281.323,1174.074c-.071.071-.144.138-.22.2l-.005,0c-.261.189-.532.364-.8.544a14.582,14.582,0,0,0-2.017,1.53,2.852,2.852,0,0,0,4.033,4.033c.071-.07.145-.137.22-.2l.005,0c.261-.189.532-.365.8-.543a14.69,14.69,0,0,0,2.017-1.532,2.852,2.852,0,0,0-4.033-4.034" transform="translate(-188.885 -798.723)" fill="#66acd4"/>
        <path id="Trazado_876705" data-name="Trazado 876705" d="M338.763,1126.74a2.871,2.871,0,0,0-3.9,1.023,4.471,4.471,0,0,1-.225.4l-.05.085-.04.047c-.284.335-.605.641-.915.951a10.112,10.112,0,0,0-1.811,2.322,2.852,2.852,0,1,0,4.924,2.878c.069-.135.143-.268.225-.4l.05-.084.04-.048c.284-.334.606-.639.916-.95a10.11,10.11,0,0,0,1.811-2.322,2.893,2.893,0,0,0-1.022-3.9" transform="translate(-225.646 -766.801)" fill="#66acd4"/>
        <path id="Trazado_876706" data-name="Trazado 876706" d="M374.626,1085.827a5.372,5.372,0,0,0-2.072.532c-.187.08-.369.169-.552.258-.057.015-.115.028-.173.041l-.074.015-.041.009.018,0a2.837,2.837,0,0,0-2.238,2.759,2.866,2.866,0,0,0,2.852,2.852,5.368,5.368,0,0,0,2.072-.533c.188-.079.369-.169.551-.257.056-.017.116-.028.173-.041l.074-.015.041-.009-.018,0a2.836,2.836,0,0,0,2.238-2.759,2.866,2.866,0,0,0-2.852-2.851" transform="translate(-251.543 -739.203)" fill="#66acd4"/>
        <path id="Trazado_876707" data-name="Trazado 876707" d="M234.481,1221.549c-.071.07-.145.138-.221.2l-.005,0c-.262.189-.532.365-.8.544a14.581,14.581,0,0,0-2.016,1.531,2.852,2.852,0,1,0,4.033,4.033c.071-.071.144-.137.22-.2l.005,0c.261-.189.532-.365.8-.543a14.555,14.555,0,0,0,2.017-1.531,2.852,2.852,0,0,0-4.032-4.034" transform="translate(-156.996 -831.043)" fill="#66acd4"/>
        <path id="Trazado_876708" data-name="Trazado 876708" d="M552.434,376.671c-.341-3.384-1.85-6.222-2.743-9.46-1.469-5.328-2.024-10.048-5.7-14.37-13.645-16.027-22.073-40.672-47.624-34.936-8.437,1.894-14.561,5.79-20.551,12.028-5.676,5.911-9.341,10.442-8.72,18.612.694,9.126-3.356,10.448-10.268,16.279-8.647,7.3-11,20.552-8.292,30.848C450.2,402,452,407.261,449.8,413.624c-1.612,4.656-4.774,8.58-5.192,13.648-.972,11.811,1.626,23.983-.009,35.471,3.505,7.691,14.348,1.774,20.543,2.069,3.229.154,5.9,2.948,8.784,4.2a35.824,35.824,0,0,0,10.68,2.521c10.684,1.092,22.1.124,31.762-4.873,4-2.069,9.136-4.511,11.691-8.3,2.438-3.621,2.562-8.633,2.942-12.8.606-6.639-1.884-18.56,3.3-23.989,1.3-1.364,3.314-1.844,4.906-2.93a37.988,37.988,0,0,0,14.112-23.907c.6-5.661-.321-12.414-.888-18.054" transform="translate(-302.526 -215.845)" fill="#2f363a"/>
        <path id="Trazado_876709" data-name="Trazado 876709" d="M540.193,510.883a2.47,2.47,0,0,0-.527-.4c-1.907-1.069-3.46,1.293-3.8,3.154-.5,2.768-.451,6.77.712,9.342.448.99,2.785,4.752,3.929,4.521,2.109-.427,1.273-6.79,1.258-8.483-.016-2.062.152-6.425-1.574-8.133" transform="translate(-364.6 -347.343)" fill="#d56254"/>
        <path id="Trazado_876710" data-name="Trazado 876710" d="M539.827,531.6l1.821.406c-.091-1.766-.131-3.571-.307-5.31-2.645-.56-2.1,2.85-1.514,4.9" transform="translate(-367.173 -358.52)" fill="#c2523b"/>
        <path id="Trazado_876711" data-name="Trazado 876711" d="M708.149,431.981c-2.04-4.671-5.772-8.31-6.916-13.136a38.044,38.044,0,0,1-1.067-10.755c.72-6.706,4.731-10.8,2.841-18.049-2.242-8.6-8.045-12.146-13.023-18.494-5.012-6.39-2.313-17.142-4.349-24.706-2.792-10.37-13.768-22.306-24.129-25.25-5.918-1.682-14.868-1.769-19.757,2.257-7.752,6.383-2.347,13.687,2.779,19.714,6.227,7.321,15.423,12.392,19.932,20.844,2.19,4.106,4.7,8.43,5.7,12.936a44.821,44.821,0,0,1,1.053,9.349c.045,7.589-3.522,12.8-5.43,19.919-2.383,8.9-3.892,17.143-3.187,26.35.4,5.24-.318,10.356,1.886,15.285,3.61,8.071,12.974,12.785,20.882,15.871,4.808,1.877,7.689,1.279,11.981-1.192,2.419-1.393,5.7-2.078,7.925-3.55a9.28,9.28,0,0,0,1.425-1.173c-.022-8.729-.334-17.635,1.459-26.221" transform="translate(-434.243 -218.189)" fill="#343e46"/>
        <path id="Trazado_876712" data-name="Trazado 876712" d="M400.434,1042.106l0-.026Z" transform="translate(-272.606 -709.424)" fill="#3e8ebe"/>
        <path id="Trazado_876713" data-name="Trazado 876713" d="M588.424,608.891c-16.415-7.87-13.877-24.022-13.4-38.058.1-2.855,1.225-8.783-.724-11.176-2.7-3.321-14.047,1.113-18.463,1.881-7.623,1.322-17.68-4.7-24.545-2.269-6.173,2.186-2.8,7.459-2.582,11.524.426,7.839,1.444,20.53-1.658,28-2.706,6.521-8.929,9.259-15.2,13.023-4.037,2.422-5.668,5.985-6.25,9.861-.6,4-.084,8.329.063,12.093a41.534,41.534,0,0,0,8.388,23.924c9.117,11.669,25.643,15.126,40.162,11.343,13.2-3.441,21.946-15.036,28.824-24.525,4.188-5.777,20.442-19.18,17.6-25.869-1.192-2.8-9.171-8.3-12.214-9.755" transform="translate(-344.01 -380.172)" fill="#d56254"/>
        <path id="Trazado_876714" data-name="Trazado 876714" d="M575.416,719.97a6.526,6.526,0,0,1-1.362-.256c-9.652-2.913-19.566-5.306-28.624-9.782a7.126,7.126,0,0,1-.933,3.8,29.286,29.286,0,0,1-18.177,13.7c-6.649,1.747-13.719,1.894-20.562,1.8-12.408-.163-28.547-4.563-32.984-17.432-4.8,1.59-9.544,3.572-13.973,5.219-1.074.4-14.094,4.512-14.078,5.516,0,.059-.25,31.613-.28,35.812-.057,7.954-2.148,19.884,3.192,26.5,5.975,7.395,37.424,5.606,45.311,5.806,10.27.26,42.245-1.067,50.308-1.073,9.2-.007,22.667,2.108,28.265-8.7,4.7-9.082,3.9-22.237,3.486-32.107-.1-2.509.065-21.142.41-28.8" transform="translate(-302.26 -483.305)" fill="#feb229"/>
        <path id="Trazado_876715" data-name="Trazado 876715" d="M597.722,707.342c-.2.552-6.325,16.683-33.162,17.8-28.068,1.17-33.646-16.783-33.793-17.207-1.395.648-2.815,1.236-4.237,1.769-1.163.436-2.37.84-3.6,1.168,1.651,11.661,13.53,19.156,22.739,22.5,10.408,3.776,24.208,3.5,34.9.268a33.694,33.694,0,0,0,15.064-9.386c3.175-3.565,6.413-10.175,8.418-14.365-.706-.361-6.419-2.3-6.329-2.547" transform="translate(-356 -481.542)" fill="#ed9500"/>
        <path id="Trazado_876716" data-name="Trazado 876716" d="M568.193,746a2.25,2.25,0,0,0-2.935,1.2,9.2,9.2,0,0,0-.7,3.942,2.24,2.24,0,1,0,4.441-.582c0-.04-.006-.072-.01-.1s0-.045.007-.075a3.855,3.855,0,0,1,.078-.47c-.034.178.09-.332.1-.369.066-.2.136-.407.207-.609A2.279,2.279,0,0,0,568.193,746" transform="translate(-384.322 -507.749)" fill="#fff"/>
        <path id="Trazado_876717" data-name="Trazado 876717" d="M608.478,765.323a2.262,2.262,0,0,0-3.141.41,11.63,11.63,0,0,0-1.145,1.736,4.155,4.155,0,0,0-.344,2.314,2.239,2.239,0,0,0,4.448-.514h0c.041-.064.082-.126.126-.188.149-.21.31-.413.466-.617a2.261,2.261,0,0,0-.41-3.141" transform="translate(-411.064 -520.704)" fill="#fff"/>
        <path id="Trazado_876718" data-name="Trazado 876718" d="M659.857,770.058c-.023-.059-.041-.1-.055-.135s-.019-.1-.041-.2c-.134-.6-.2-1.209-.283-1.815a2.24,2.24,0,1,0-4.442.582,11.06,11.06,0,0,0,1.359,4.576,2.243,2.243,0,0,0,3.143.4,2.289,2.289,0,0,0,.4-3.144c.253.407-.061-.214-.079-.26" transform="translate(-445.921 -521.445)" fill="#fff"/>
        <path id="Trazado_876719" data-name="Trazado 876719" d="M697.339,764.818a2.235,2.235,0,0,0-2.97,3.324c0,.006,0,.013,0,.019a2.24,2.24,0,0,0,4.442-.583,4.064,4.064,0,0,0-1.475-2.76" transform="translate(-472.283 -520.357)" fill="#fff"/>
        <path id="Trazado_876720" data-name="Trazado 876720" d="M733.944,741.7a4.514,4.514,0,0,0-.89-.944,2.238,2.238,0,0,0-2.814,3.479c.09.112.175.227.256.347a4.492,4.492,0,0,0,.891.943,2.237,2.237,0,0,0,2.812-3.478c-.088-.112-.173-.227-.255-.347" transform="translate(-496.598 -503.975)" fill="#fff"/>
        <path id="Trazado_876721" data-name="Trazado 876721" d="M979.424,807.235l-.031.008Z" transform="translate(-666.747 -549.547)" fill="#3e8ebe"/>
        <path id="Trazado_876722" data-name="Trazado 876722" d="M626.314,575.809c-6.553-3.559-12.082,6.765-18.187,6.152-6.319-.634-15.15-16.739-21.489-7.611-5.294,7.624,6.234,21.192,11.755,25.631,4.8,3.858,17.472.729,18.185-6.009,4.009-2.056,18.546-13.378,9.735-18.164" transform="translate(-398.446 -389.102)" fill="#c6534c"/>
        <path id="Trazado_876723" data-name="Trazado 876723" d="M576.879,521.633l2.283.506c-.036-1.758-.009-3.556-.15-5.294-3.317-.711-2.779,2.711-2.133,4.787" transform="translate(-392.396 -351.791)" fill="#cc7961"/>
        <path id="Trazado_876724" data-name="Trazado 876724" d="M631.427,522.3l.01,0-.01-.012Z" transform="translate(-429.86 -355.561)" fill="#aab995"/>
        <path id="Trazado_876725" data-name="Trazado 876725" d="M631.427,522.3l.01,0-.01-.012Z" transform="translate(-429.86 -355.561)" fill="#aab995"/>
        <path id="Trazado_876726" data-name="Trazado 876726" d="M594.436,427.772c-9.59.965-23.9,2.6-28.96,12.169h.37c-1.041,6.211,8.006-1.3,11.438-.677,1.455,3.081,14.115-.564,16.754-1.454,7.015-2.369,14.7,2.193,21.927,3.59,4.012-8.738-16.07-14.176-21.529-13.627" transform="translate(-384.963 -291.191)" fill="#e59171"/>
        <path id="Trazado_876727" data-name="Trazado 876727" d="M738.537,512.247a2.279,2.279,0,0,0-.523.358c-1.748,1.57-1.941,5.964-2.12,8.031-.165,1.909-1.72,6.788.432,7.9,1.779.921,3.393-2.122,4.106-3.494,1.293-2.486,1.658-6.494,1.409-9.314-.17-1.895-1.433-4.4-3.3-3.481" transform="translate(-500.504 -348.592)" fill="#d56254"/>
        <path id="Trazado_876728" data-name="Trazado 876728" d="M610.663,415.51a23.935,23.935,0,0,0-4.8-9.569c-15.3-18.16-45.7-11.349-53.772,8.2-2.23,5.4-.341,9.715-.753,15.108-.018.233-.041.467-.066.7-.2,1.709-1.05,2.8-1.688,4.348-2.642,6.436,2.484,15.98,6.021,21.572a31.309,31.309,0,0,0,17.657,13.383c12.241,3.738,22.99-2.3,29.189-10.737a43.308,43.308,0,0,0,7.846-16.04,17.973,17.973,0,0,0,.358-7.674c-.6-3.132-1.266-6.3-.569-9.49.826-3.772,1.582-5.849.574-9.8" transform="translate(-373.65 -269.146)" fill="#ed8361"/>
        <path id="Trazado_876729" data-name="Trazado 876729" d="M581.85,451.107c-2.03.556-6.389,1.178-6.222,4.386,0-.1.49-.193,1.268-.284,2.372-.271,7.305-.473,7.808-.545,3.135-.453,3.26-3.317,2.676-6.232a26.742,26.742,0,0,1-5.529,2.674" transform="translate(-391.871 -305.283)" fill="#293b37"/>
        <path id="Trazado_876730" data-name="Trazado 876730" d="M687.682,473.06c-.6-.11-7.5-1.171-7.436-1.626-.358,2.226-.384,3.924,1.339,4.741a6.5,6.5,0,0,0,2.384.513c.593.034,8.343-.451,8.218.068.729-3.106-1.422-3.115-4.505-3.7" transform="translate(-462.962 -320.941)" fill="#293b37"/>
        <path id="Trazado_876731" data-name="Trazado 876731" d="M626.045,606.121c-5.018-.293-9.275,1.918-9.5,4.939s3.652,5.707,8.672,6,9.276-1.917,9.507-4.938-3.654-5.709-8.674-6" transform="translate(-419.719 -412.615)" fill="#ed8361"/>
        <path id="Trazado_876732" data-name="Trazado 876732" d="M638.035,510.761c-.133-.863.092-3.464-1.5-3.369a2.045,2.045,0,0,0-.528.112c-1.308.444-1.2,2.323-1.42,3.268a38.407,38.407,0,0,1-1.218,4.6,15.169,15.169,0,0,0-1.2,3.289c-.42,3.635,4.738,4.423,7.609,2.515,1.757-1.168.817-3.573.15-4.95a19.379,19.379,0,0,1-1.9-5.462" transform="translate(-430.352 -345.419)" fill="#c65c50"/>
        <path id="Trazado_876733" data-name="Trazado 876733" d="M574.574,543.094c-.064.165-.176.446-.05.091-2.19,4.381,6.886,6.763,8.285,2.7,1.759-5.106-7-5.735-8.235-2.786" transform="translate(-390.892 -368.525)" fill="#e45552"/>
        <path id="Trazado_876734" data-name="Trazado 876734" d="M692.8,543.547c-.021.187-.055.5-.024.106-.958,5.09,8.383,5.092,8.664.538.355-5.715-8.224-4.007-8.64-.643" transform="translate(-471.58 -367.927)" fill="#e45552"/>
        <path id="Trazado_876735" data-name="Trazado 876735" d="M607.937,574.007c-.578.017-1.206,2.909-1.1,2.927a.682.682,0,0,0,.307-.03c.675-.234,1.73-2.921.791-2.9" transform="translate(-413.113 -390.77)" fill="#e28b6e"/>
        <path id="Trazado_876736" data-name="Trazado 876736" d="M688.112,577.058a.671.671,0,0,0-.131.223c-.2.574.886,2.629,1.34,1.978.278-.4-1.146-2.268-1.209-2.2" transform="translate(-468.344 -392.847)" fill="#e28b6e"/>
        <path id="Trazado_876737" data-name="Trazado 876737" d="M682.7,593.322c.02.025.044.054.061.078a.139.139,0,0,0-.061-.078" transform="translate(-464.763 -403.92)" fill="#ee7963"/>
        <path id="Trazado_876738" data-name="Trazado 876738" d="M745.634,526.862c-.328,1.7-.545,3.483-.8,5.221l1.751-.124c.744-1.948,1.586-5.248-.953-5.1" transform="translate(-507.067 -358.672)" fill="#c2523b"/>
        <path id="Trazado_876739" data-name="Trazado 876739" d="M602.238,390.551a18.857,18.857,0,0,1-1.9-1.233c-3.505-2.593-6.46-5.891-9.646-8.863-6.843-6.383-14.663-9.883-22.15-.228-3.726,4.8-8.488,9.059-11.482,14.4-3.373,6.012-3.292,12.623-1.7,19.232-.214-.886,1.137-6.748,1.672-7.816,1.322-2.635,4-3.121,5.982-5.194,1.678-1.759,2.627-4.114,4.4-5.938,3.505-3.614,8.315-8.5,13.322-9.822,3.625-.96,6.439,3.3,9.111,5.954,5.659,5.631,13.357,11.2,20.033,15.581,5.994,3.931,4.592-3.352,3.52-6.915-2.005-6.664-6.243-6.36-11.157-9.154" transform="translate(-377.352 -254.779)" fill="#dc6d52"/>
        <path id="Trazado_876740" data-name="Trazado 876740" d="M555.829,362.915c-.831.366-1.554.709-2.107.984-7.255,3.609-12.474,9.662-16.308,16.686-3.239,5.934-5.3,16.259-.059,22.067a21.871,21.871,0,0,1,5.816-9.224c5.488-5.713,10.295-11.9,15.953-17.479,2.884-2.845,5.935-6.177,7.422-9.974,3-7.657-7.2-4.613-10.717-3.062" transform="translate(-363.64 -245.756)" fill="#2f363a"/>
        <path id="Trazado_876741" data-name="Trazado 876741" d="M663.927,346.383c-4.865-2.975-28.2-19.817-29.983-5.9-1.315,10.288,6.819,17.456,14.147,23.191,3.957,3.1,7.858,6.208,11.735,9.4,3.465,2.853,6.187,7.382,9.507,9.825,1.9-3.877,2.768-8.275,3.8-12.436.792-3.19,3.9-6.615,3.29-10.016-1.024-5.689-7.854-11.222-12.5-14.062" transform="translate(-431.478 -228.091)" fill="#343e46"/>
        <path id="Trazado_876742" data-name="Trazado 876742" d="M590.357,507.486a2.332,2.332,0,0,0-2.276,2.32l.006.379a2.287,2.287,0,0,0,2.342,2.216,2.333,2.333,0,0,0,2.274-2.32l-.006-.381a2.286,2.286,0,0,0-2.341-2.214" transform="translate(-400.352 -345.484)" fill="#1a1715"/>
        <path id="Trazado_876743" data-name="Trazado 876743" d="M585.479,505.81c-3.971-1.852-10.734-2.229-14.476.161a.674.674,0,0,0-.19,1.025.955.955,0,0,0,1.2.146c3.158-2.021,9.189-1.642,12.621-.04a1.029,1.029,0,0,0,.47.088.921.921,0,0,0,.7-.386.669.669,0,0,0-.326-.993" transform="translate(-388.487 -343.315)" fill="#343e46"/>
        <path id="Trazado_876744" data-name="Trazado 876744" d="M692.409,507.564a2.336,2.336,0,0,0-2.279,2.323l.006.38a2.291,2.291,0,0,0,2.346,2.22,2.336,2.336,0,0,0,2.278-2.323l-.006-.381a2.289,2.289,0,0,0-2.344-2.218" transform="translate(-469.824 -345.537)" fill="#1a1715"/>
        <path id="Trazado_876745" data-name="Trazado 876745" d="M689.61,507.089c-3.91-1.989-10.668-2.6-14.494-.333a.675.675,0,0,0-.226,1.02.956.956,0,0,0,1.2.187c3.231-1.916,9.254-1.33,12.636.391a1.039,1.039,0,0,0,.466.1.921.921,0,0,0,.713-.362.671.671,0,0,0-.292-1.006" transform="translate(-459.349 -344.002)" fill="#343e46"/>
        <path id="Trazado_876746" data-name="Trazado 876746" d="M631.089,568.768a72.3,72.3,0,0,1-8.376.051c-2.423-.055-4.856-.3-7.277-.429-1.706-.093-2.986-.067-2.979,2.107a7.214,7.214,0,0,0,2.753,5.076,11.437,11.437,0,0,0,7.929,2.819,13.186,13.186,0,0,0,6.769-2.042,7,7,0,0,0,3.109-7.843c-.63.115-1.274.2-1.927.262" transform="translate(-416.946 -386.929)" fill="#fff"/>
        <path id="Trazado_876747" data-name="Trazado 876747" d="M625.161,564.062c-.589-.039-.62.241-1.253.53-2.473,1.132-4.32-.518-4.734-.422a38.675,38.675,0,0,1-7.211,1.023c.269.949,2.28,1,3.07,1.127a31.772,31.772,0,0,0,7.982.277c2.195-.2,9.859.034,10.277-1.271-.824-.321-5.969-.89-7.828-1.225a2.729,2.729,0,0,0-.3-.04" transform="translate(-416.611 -383.998)" fill="#d33138"/>
        <path id="Trazado_876748" data-name="Trazado 876748" d="M632.3,569.554a6.135,6.135,0,0,1-2.575,2.74,10.559,10.559,0,0,1-5.764,1.544,15.787,15.787,0,0,1-7.143-1.7c-1.1-.594-2.93-1.36-3.586-2.434s-.132-1.623-1.056-2.613a8.952,8.952,0,0,0,.583,5.28,8.663,8.663,0,0,0,3.5,4.362,12.1,12.1,0,0,0,12.117.745,8.761,8.761,0,0,0,3.881-4.362,15.057,15.057,0,0,0,.889-5.326c-.33.677-.582,1.254-.846,1.769" transform="translate(-416.667 -386.06)" fill="#d33138"/>
        <path id="Trazado_876749" data-name="Trazado 876749" d="M619.82,579.171c5.624,2.131,11.973,1.012,14.6-4.364-1.262,1.185-4.9,1.857-8.413,1.9-3.767.043-8.834-.593-10.727-1.422.276.047,1.765,2.838,4.541,3.89" transform="translate(-418.867 -391.315)" fill="#af2f3d"/>
        <path id="Trazado_876750" data-name="Trazado 876750" d="M630.83,583.228c-1.709.012-4.832.2-5.4.745-.431.418,1.7,1.708,5.848,1.909a11.747,11.747,0,0,0,6.392-1.491c-1.122-1.452-5.079-1.175-6.844-1.163" transform="translate(-425.744 -397.028)" fill="#c3424f"/>
        <path id="Trazado_876751" data-name="Trazado 876751" d="M812.959,534.494a16.542,16.542,0,0,1,1.153-8.809c9.221,1.976,37.882,10.361,27.7,24.921-8.5,12.162-27.579-6.531-28.856-16.111" transform="translate(-553.336 -357.874)" fill="#c25e55"/>
        <path id="Trazado_876752" data-name="Trazado 876752" d="M832.466,544.754c-3.2,3-8.218-2.213-10.062-4.634-.966-1.268-3.145-.021-2.164,1.265,2.926,3.842,9.264,9.588,14,5.141,1.18-1.109-.6-2.878-1.772-1.773" transform="translate(-558.231 -367.342)" fill="#933c31"/>
        <path id="Trazado_876753" data-name="Trazado 876753" d="M331,494.222c3.653-6.4,8.764-11.754,9.373-20.279.649-9.088-1.494-25.449-12.443-28.27-2.907,10.122-9.9,18.255-16.819,26.042-5.248,5.9-13.831,11.4-17.881,18.311-3.313,5.651,1.984,15.071,6.306,18.977,7.634,6.9,26.091,5.455,28.089-5.94A27.012,27.012,0,0,1,331,494.222" transform="translate(-198.921 -303.405)" fill="#b55044"/>
        <path id="Trazado_876754" data-name="Trazado 876754" d="M389.973,486.55a8.317,8.317,0,0,1-5.168,6.276,6.96,6.96,0,0,1-7.373-1.908c-1.021-1.069-2.791.41-1.761,1.488a9.345,9.345,0,0,0,9.594,2.677,10.582,10.582,0,0,0,7-8.311c.3-1.457-2-1.659-2.295-.222" transform="translate(-255.536 -330.564)" fill="#933c31"/>
        <path id="Trazado_876755" data-name="Trazado 876755" d="M647.841,360.075c-1.6-2.32-2.949-5.355-2.138-8.2a.958.958,0,0,0-1.847-.509c-.951,3.335.439,6.931,2.331,9.676.7,1.01,2.357.053,1.654-.967" transform="translate(-438.113 -238.741)" fill="#2b3236"/>
        <path id="Trazado_876756" data-name="Trazado 876756" d="M702.855,416.075a21.643,21.643,0,0,1-8.835-5.181c-.886-.86-2.242.493-1.354,1.354a23.658,23.658,0,0,0,9.68,5.673.958.958,0,0,0,.509-1.847" transform="translate(-471.354 -279.54)" fill="#2b3236"/>
        <path id="Trazado_876757" data-name="Trazado 876757" d="M762.677,528.643c-.1-1.221-2.021-1.231-1.915,0a40.3,40.3,0,0,1-.285,10.28c-.207,1.208,1.639,1.725,1.847.509a42.231,42.231,0,0,0,.353-10.789" transform="translate(-517.703 -359.262)" fill="#2b3236"/>
        <path id="Trazado_876758" data-name="Trazado 876758" d="M756.067,639.076c-1.214-2.6-3.3-4.848-3.734-7.752-.182-1.219-2.027-.7-1.847.509.459,3.082,2.641,5.46,3.927,8.209.523,1.118,2.174.145,1.654-.967" transform="translate(-510.905 -429.318)" fill="#2b3236"/>
        <path id="Trazado_876759" data-name="Trazado 876759" d="M815.115,657.525c-1.355-3.7-2.844-7.351-3.831-11.173a.959.959,0,0,0-1.847.509c.987,3.822,2.476,7.473,3.831,11.173.421,1.15,2.273.653,1.847-.509" transform="translate(-551.022 -439.557)" fill="#2b3236"/>
        <path id="Trazado_876760" data-name="Trazado 876760" d="M742.042,379.922c-.755-3.663-2.979-6.668-4.885-9.806a.959.959,0,0,0-1.654.967c1.82,3,3.971,5.849,4.692,9.348.249,1.21,2.095.7,1.847-.509" transform="translate(-500.614 -251.657)" fill="#2b3236"/>
        <path id="Trazado_876761" data-name="Trazado 876761" d="M789.477,492.914c-.033-.094-.073-.184-.111-.276-.019-.048-.036-.1-.052-.147a.154.154,0,0,0-.009-.022.953.953,0,0,0-1.9.092,1.962,1.962,0,0,0,.16.69c.041.1.078.2.111.3.013.039.02.08.03.121,0,.017.018.139.019.169a.958.958,0,1,0,1.915,0,2.965,2.965,0,0,0-.16-.925" transform="translate(-536.044 -334.673)" fill="#2b3236"/>
        <path id="Trazado_876762" data-name="Trazado 876762" d="M683.506,372.978c-1.768-1.757-4.076-3.661-4.189-6.346-.052-1.23-1.967-1.235-1.915,0,.138,3.286,2.562,5.527,4.75,7.7a.958.958,0,0,0,1.354-1.354" transform="translate(-461.158 -248.965)" fill="#4c5c66"/>
        <path id="Trazado_876763" data-name="Trazado 876763" d="M765.4,450.095c-.667-2.728-2.177-5.07-3.192-7.661-.446-1.137-2.3-.642-1.847.509,1.013,2.586,2.528,4.944,3.192,7.661.293,1.2,2.14.691,1.847-.509" transform="translate(-517.588 -300.76)" fill="#4c5c66"/>
        <path id="Trazado_876764" data-name="Trazado 876764" d="M792.612,582.206a27.2,27.2,0,0,1-.034-8.365c.24-1.206-1.606-1.72-1.847-.509a28.706,28.706,0,0,0-.034,8.873c.134,1.214,2.051,1.227,1.915,0" transform="translate(-538.062 -389.841)" fill="#4c5c66"/>
        <path id="Trazado_876765" data-name="Trazado 876765" d="M801.823,678.5a12.706,12.706,0,0,1-2.627-4.047c-.463-1.126-2.316-.633-1.847.509a15.141,15.141,0,0,0,3.119,4.891c.862.887,2.215-.469,1.354-1.354" transform="translate(-542.765 -458.717)" fill="#4c5c66"/>
        <path id="Trazado_876766" data-name="Trazado 876766" d="M566.506,369.028a39.1,39.1,0,0,0-7.293,5.291c-.911.829.289,2.322,1.2,1.491a37.032,37.032,0,0,1,6.875-5.035c1.072-.6.3-2.348-.785-1.747" transform="translate(-380.477 -251.141)" fill="#4c5c66"/>
        <path id="Trazado_876767" data-name="Trazado 876767" d="M501.028,522.359c-1.247,4.564-1.309,9.291-1.63,13.981-.085,1.233,1.831,1.225,1.915,0,.309-4.522.359-9.071,1.562-13.472a.958.958,0,0,0-1.847-.509" transform="translate(-339.977 -355.148)" fill="#4c5c66"/>
        <path id="Trazado_876768" data-name="Trazado 876768" d="M480.946,681.085c-1.55,2.777-3.226,5.659-6.041,7.318a.958.958,0,0,0,.966,1.654c3.106-1.83,5.014-4.934,6.728-8.005.6-1.079-1.052-2.045-1.654-.966" transform="translate(-322.99 -463.346)" fill="#4c5c66"/>
        <path id="Trazado_876769" data-name="Trazado 876769" d="M529.726,616.628a84.526,84.526,0,0,1-1.243,12.2c-.186,1.208,1.66,1.727,1.847.509a88.123,88.123,0,0,0,1.311-12.7.958.958,0,0,0-1.915,0" transform="translate(-359.77 -419.156)" fill="#4c5c66"/>
        <path id="Trazado_876770" data-name="Trazado 876770" d="M691.749,334.652a4.6,4.6,0,0,1-1.572-1.572.974.974,0,0,0-1.31-.344.962.962,0,0,0-.344,1.31,6.559,6.559,0,0,0,2.259,2.259.958.958,0,1,0,.966-1.654" transform="translate(-468.638 -226.431)" fill="#2b3236"/>
        <path id="Trazado_876771" data-name="Trazado 876771" d="M528.708,435.8a34.607,34.607,0,0,0-5.354,9.68c-.462,1.146,1.391,1.64,1.847.509a31.77,31.77,0,0,1,4.861-8.835c.793-.936-.555-2.3-1.354-1.354" transform="translate(-356.237 -296.468)" fill="#2b3236"/>
        <path id="Trazado_876772" data-name="Trazado 876772" d="M478.76,496.129c-2.051,3.283-2.042,7.284-2.365,11.018-.107,1.231,1.81,1.221,1.915,0,.294-3.393.24-7.067,2.1-10.051.656-1.051-1-2.011-1.654-.967" transform="translate(-324.315 -337.446)" fill="#2b3236"/>
        <path id="Trazado_876773" data-name="Trazado 876773" d="M483.813,603.635c-.387,6.6-3.228,12.585-6.254,18.351-.574,1.092,1.08,2.061,1.654.967,3.19-6.08,6.108-12.361,6.515-19.318.072-1.234-1.844-1.227-1.915,0" transform="translate(-325.03 -410.312)" fill="#2b3236"/>
        <path id="Trazado_876774" data-name="Trazado 876774" d="M580.675,345.247a.958.958,0,0,0-1.354-1.354,2.528,2.528,0,0,0-.919,1.635.952.952,0,0,0,1.895.143l.044-.07c.1-.124.22-.239.334-.354" transform="translate(-393.761 -233.926)" fill="#2b3236"/>
        <path id="Trazado_876775" data-name="Trazado 876775" d="M478.037,771.629a24.83,24.83,0,0,1-.6,6.449.959.959,0,0,0,1.847.509,26.859,26.859,0,0,0,.673-6.958.958.958,0,0,0-1.915,0" transform="translate(-325 -524.676)" fill="#f7d9af"/>
        <path id="Trazado_876776" data-name="Trazado 876776" d="M496.4,859.628v5.746a.958.958,0,0,0,1.915,0v-5.746a.958.958,0,0,0-1.915,0" transform="translate(-337.94 -584.584)" fill="#f7d9af"/>
        <path id="Trazado_876777" data-name="Trazado 876777" d="M581.307,848.649c-.125-1.216-2.042-1.228-1.915,0a83.855,83.855,0,0,1,.319,8.619.958.958,0,0,0,1.915,0,83.872,83.872,0,0,0-.319-8.619" transform="translate(-394.432 -577.117)" fill="#f7d9af"/>
        <path id="Trazado_876778" data-name="Trazado 876778" d="M638.4,907.628v7.342a.958.958,0,0,0,1.915,0v-7.342a.958.958,0,0,0-1.915,0" transform="translate(-434.61 -617.262)" fill="#f7d9af"/>
        <path id="Trazado_876779" data-name="Trazado 876779" d="M668.3,829.662c-.159-1.206-2.077-1.222-1.915,0a51.113,51.113,0,0,1,.319,6.7.958.958,0,0,0,1.915,0,51.113,51.113,0,0,0-.319-6.7" transform="translate(-453.651 -564.195)" fill="#f7d9af"/>
        <path id="Trazado_876780" data-name="Trazado 876780" d="M730.358,903.655a52.979,52.979,0,0,1-.924,7.407.959.959,0,0,0,1.847.509,56.636,56.636,0,0,0,.992-7.916c.142-1.225-1.775-1.212-1.915,0" transform="translate(-496.558 -614.565)" fill="#f7d9af"/>
        <path id="Trazado_876781" data-name="Trazado 876781" d="M740.076,822.326a39.578,39.578,0,0,0-.673,6,.958.958,0,0,0,1.915,0,36.163,36.163,0,0,1,.6-5.491c.2-1.208-1.644-1.726-1.847-.509" transform="translate(-503.369 -559.348)" fill="#f7d9af"/>
        <path id="Trazado_876782" data-name="Trazado 876782" d="M807.319,868.629a.958.958,0,0,0-1.915,0c.031,3.744.592,7.509.034,11.237-.181,1.208,1.665,1.727,1.847.509.586-3.919.067-7.812.034-11.747" transform="translate(-548.3 -590.712)" fill="#f7d9af"/>
        <path id="Trazado_876783" data-name="Trazado 876783" d="M804.4,764.629v4.15a.958.958,0,0,0,1.915,0v-4.15a.958.958,0,0,0-1.915,0" transform="translate(-547.619 -519.911)" fill="#f7d9af"/>
        <path id="Trazado_876784" data-name="Trazado 876784" d="M395.023,1139.042a41.422,41.422,0,0,1,7.014,8.568c5.1,8.161-2.606,9.876-8.194,13.673-8.327,5.658-15.286,11.989-25.668,14.1-5.578,1.133-20.639,4.148-21.2-4.313-.459-6.932,9.475-12.747,13.7-16.736,6.572-6.208,12.585-13.11,20.187-18.123,4.894-3.228,9.982-.928,14.162,2.834" transform="translate(-236.203 -772.458)" fill="#307da7"/>
        <path id="Trazado_876785" data-name="Trazado 876785" d="M314.422,1248.262a14.561,14.561,0,0,0-3.619,2.726,2.852,2.852,0,0,0,4.033,4.034c.3-.3.612-.6.932-.877.1-.072.457-.347.565-.416a11.035,11.035,0,0,1,.967-.543,2.869,2.869,0,0,0,1.024-3.9,2.9,2.9,0,0,0-3.9-1.022" transform="translate(-211.027 -849.543)" fill="#66acd4"/>
        <path id="Trazado_876786" data-name="Trazado 876786" d="M353.625,1193.876a17.653,17.653,0,0,0-2.727,4.38,2.9,2.9,0,0,0,1.023,3.9,2.866,2.866,0,0,0,3.9-1.023c.347-.695.7-1.388,1.073-2.068.168-.3.349-.6.537-.885.028-.041.05-.072.07-.1.051-.058.1-.118.155-.173a2.852,2.852,0,1,0-4.032-4.033" transform="translate(-238.641 -812.2)" fill="#66acd4"/>
        <path id="Trazado_876787" data-name="Trazado 876787" d="M403.052,1124.365a2.865,2.865,0,0,0-3.9,1.023,19.8,19.8,0,0,1-1.108,2c-.026.036-.047.065-.065.091-.107.121-.218.239-.333.354-.046.04-.08.071-.106.095q-.2.125-.407.235a2.852,2.852,0,0,0,2.879,4.925,10.276,10.276,0,0,0,4.065-4.825,2.9,2.9,0,0,0-1.024-3.9" transform="translate(-269.405 -765.186)" fill="#66acd4"/>
        <path id="Trazado_876788" data-name="Trazado 876788" d="M384.285,1245.888a10.266,10.266,0,0,0-4.825,4.064,2.852,2.852,0,0,0,4.924,2.879,4.2,4.2,0,0,1,.226-.4l.011-.019c.025-.024.054-.053.094-.1.1-.106.207-.207.318-.3l.027-.025.1-.068a16.08,16.08,0,0,1,2-1.108,2.865,2.865,0,0,0,1.023-3.9,2.9,2.9,0,0,0-3.9-1.024" transform="translate(-258.078 -847.929)" fill="#66acd4"/>
        <path id="Trazado_876789" data-name="Trazado 876789" d="M420.25,1198.647c-.261.261-.529.515-.806.757l-.09.023.021,0a2.835,2.835,0,0,0-2.241,2.759,2.866,2.866,0,0,0,2.852,2.852,6.576,6.576,0,0,0,4.3-2.357,2.851,2.851,0,0,0-4.033-4.032" transform="translate(-283.975 -815.451)" fill="#66acd4"/>
        <path id="Trazado_876790" data-name="Trazado 876790" d="M455.243,1158.153l-1.521,1.521a2.852,2.852,0,0,0,4.032,4.033l1.521-1.522a2.851,2.851,0,0,0-4.033-4.032" transform="translate(-308.322 -787.882)" fill="#66acd4"/>
        <path id="Trazado_876791" data-name="Trazado 876791" d="M457.26,1235.9a2.835,2.835,0,0,0-2.76,2.242l0-.021-.023.089c-.243.277-.5.545-.758.806a2.851,2.851,0,0,0,4.032,4.032,6.57,6.57,0,0,0,2.356-4.3,2.865,2.865,0,0,0-2.851-2.852" transform="translate(-308.323 -841.371)" fill="#66acd4"/>
        <path id="Trazado_876792" data-name="Trazado 876792" d="M485.449,1191.5q-.38.381-.761.76a2.852,2.852,0,0,0,4.033,4.033l.761-.76a2.852,2.852,0,1,0-4.033-4.034" transform="translate(-329.403 -810.584)" fill="#66acd4"/>
        <path id="Trazado_876793" data-name="Trazado 876793" d="M573.295,384.813c0,30.473,0,58.159-.015,65.23-.012,4.719-.125,9.354-.234,13.835s-.222,9.091-.235,13.8c-.018,5.742-2.173,15.374-16.4,15.372-.267,0-.541,0-.816-.01-1.337-.034-4.879-.05-10.831-.05-9.23,0-23.023.04-36.362.078-12.922.037-26.283.076-34.944.076-4.9,0-7.962-.012-9.366-.037-7.684-.134-13.154-1.856-16.256-5.118-3.573-3.757-3.4-8.9-3.293-12.307.016-.481.03-.929.034-1.335.035-3.736.021-6,.007-8.183-.011-1.746-.022-3.4-.008-5.712.005-.792-.025-4.813-.065-10.378-.1-14.07-.276-37.62-.2-49.115,0,0,.127-17.92.184-26.883.015-2.323.03-8.76.049-16.91.049-21.047.13-56.275.328-62.405.537-16.644,16.3-17.125,18.091-17.125l.28,0c1.185.019,4.272.028,9.438.028,7.254,0,17.744-.018,28.85-.037,12.874-.022,26.186-.045,36.848-.045,10.054,0,16.13.021,18.576.064,11.031.193,16.378,6.208,16.346,18.391-.01,3.373-.012,14.829-.012,30.109a7.883,7.883,0,0,1,1.6-.127c0-15.216,0-26.616.012-29.978.035-13.058-5.992-19.784-17.914-19.992-2.455-.043-8.54-.064-18.6-.064-10.663,0-23.976.023-36.85.045-11.105.019-21.595.037-28.848.037-5.157,0-8.237-.009-9.413-.028-.1,0-.2,0-.305,0a22.155,22.155,0,0,0-12.122,3.607c-4.736,3.246-7.351,8.454-7.564,15.063-.178,5.523-.26,33.372-.312,55.231a6.975,6.975,0,0,1,.117,1.261c0,1.264-.037,2.514-.128,3.746q0,1.124-.005,2.215c-.019,8.148-.034,14.583-.049,16.9-.057,8.963-.184,26.882-.184,26.883-.077,11.506.1,35.063.2,49.137.041,5.559.07,9.574.065,10.356-.014,2.327,0,3.981.008,5.733.014,2.18.028,4.434-.007,8.158,0,.4-.017.83-.033,1.3-.12,3.671-.3,9.219,3.732,13.459,3.409,3.584,9.257,5.472,17.385,5.614,1.413.025,4.485.037,9.393.037,8.663,0,22.026-.039,34.948-.076,13.338-.039,27.13-.078,36.357-.078,5.939,0,9.468.016,10.791.049.289.007.576.011.856.011h0c16.192,0,17.977-11.863,17.993-16.964.013-4.7.125-9.309.234-13.77.109-4.49.222-9.133.235-13.869.019-6.992.019-34.129.016-64.189q-.807-.51-1.6-1.046" transform="translate(-301.376 -187.89)" fill="#fff"/>
        <path id="Trazado_876794" data-name="Trazado 876794" d="M853.393,503.1q-.8-.631-1.6-1.277c0,3.66,0,7.4,0,11.192a7.091,7.091,0,0,1,1.6.583c0-3.547,0-7.059,0-10.5" transform="translate(-579.883 -341.627)" fill="#fff"/>
      </g>
    </g>
  </g>
</svg>
