<svg xmlns="http://www.w3.org/2000/svg" xmlns:xlink="http://www.w3.org/1999/xlink" width="235" height="248" viewBox="0 0 235 248">
  <defs>
    <clipPath id="clip-path">
      <rect id="Rectángulo_403292" data-name="Rectángulo 403292" width="123.418" height="94.723" fill="none"/>
    </clipPath>
    <clipPath id="clip-path-3">
      <rect id="Rectángulo_403253" data-name="Rectángulo 403253" width="118.895" height="89.61" fill="none"/>
    </clipPath>
    <clipPath id="clip-path-4">
      <rect id="Rectángulo_403296" data-name="Rectángulo 403296" width="125.056" height="96.935" fill="none"/>
    </clipPath>
    <clipPath id="clip-path-5">
      <rect id="Rectángulo_403295" data-name="Rectángulo 403295" width="125.056" height="96.935" transform="translate(0 0)" fill="none"/>
    </clipPath>
    <clipPath id="clip-path-6">
      <rect id="Rectángulo_403293" data-name="Rectángulo 403293" width="120.143" height="90.551" transform="translate(4.913 6.384)" fill="none"/>
    </clipPath>
    <clipPath id="clip-path-7">
      <rect id="Rectángulo_403252" data-name="Rectángulo 403252" width="102.096" height="230.009" fill="none"/>
    </clipPath>
  </defs>
  <g id="Grupo_1106262" data-name="Grupo 1106262" transform="translate(-843.051 -3868)">
    <g id="Rectángulo_403019" data-name="Rectángulo 403019" transform="translate(843.051 3868)" fill="#e6fbf8" stroke="#01d2b5" stroke-width="1">
      <rect width="235" height="248" rx="6" stroke="none"/>
      <rect x="0.5" y="0.5" width="234" height="247" rx="5.5" fill="none"/>
    </g>
    <g id="Grupo_1106261" data-name="Grupo 1106261" transform="translate(6 0.004)">
      <g id="Grupo_1106253" data-name="Grupo 1106253" transform="translate(857.051 3877.5)">
        <g id="Grupo_1106252" data-name="Grupo 1106252" clip-path="url(#clip-path)">
          <g id="Grupo_1106251" data-name="Grupo 1106251">
            <g id="Grupo_1106250" data-name="Grupo 1106250" clip-path="url(#clip-path)">
              <g id="Grupo_1106249" data-name="Grupo 1106249" transform="translate(4.523 5.112)" opacity="0.2">
                <g id="Grupo_1106248" data-name="Grupo 1106248">
                  <g id="Grupo_1106247" data-name="Grupo 1106247" clip-path="url(#clip-path-3)">
                    <path id="Trazado_876127" data-name="Trazado 876127" d="M117.7,95.994H12.494a6.846,6.846,0,0,1-6.846-6.845V13.229a6.846,6.846,0,0,1,6.846-6.845H117.7a6.845,6.845,0,0,1,6.845,6.845V89.149a6.845,6.845,0,0,1-6.845,6.845" transform="translate(-5.648 -6.384)"/>
                  </g>
                </g>
              </g>
              <path id="Trazado_876128" data-name="Trazado 876128" d="M112.549,90.11H7.345A6.845,6.845,0,0,1,.5,83.265V7.345A6.845,6.845,0,0,1,7.345.5h105.2a6.845,6.845,0,0,1,6.845,6.845V83.265a6.845,6.845,0,0,1-6.845,6.845" transform="translate(-0.1 -0.1)" fill="#fff"/>
              <rect id="Rectángulo_403254" data-name="Rectángulo 403254" width="118.895" height="89.61" rx="8.548" transform="translate(0.401 0.401)" fill="none" stroke="#263238" stroke-linecap="round" stroke-linejoin="round" stroke-width="1"/>
              <rect id="Rectángulo_403255" data-name="Rectángulo 403255" width="6.167" height="6.837" transform="translate(105.643 70.511)" fill="#c6ff00"/>
              <rect id="Rectángulo_403256" data-name="Rectángulo 403256" width="6.167" height="6.837" transform="translate(105.643 70.511)" fill="none" stroke="#263238" stroke-linecap="round" stroke-linejoin="round" stroke-width="0.75"/>
              <rect id="Rectángulo_403257" data-name="Rectángulo 403257" width="6.167" height="41.027" transform="translate(98.791 36.323)" fill="#263238"/>
              <rect id="Rectángulo_403258" data-name="Rectángulo 403258" width="6.167" height="41.027" transform="translate(98.791 36.323)" fill="none" stroke="#263238" stroke-linecap="round" stroke-linejoin="round" stroke-width="0.75"/>
              <rect id="Rectángulo_403259" data-name="Rectángulo 403259" width="6.167" height="26.299" transform="translate(91.938 51.051)" fill="#fff"/>
              <rect id="Rectángulo_403260" data-name="Rectángulo 403260" width="6.167" height="26.299" transform="translate(91.938 51.051)" fill="none" stroke="#263238" stroke-linecap="round" stroke-linejoin="round" stroke-width="0.75"/>
              <rect id="Rectángulo_403261" data-name="Rectángulo 403261" width="6.167" height="46.812" transform="translate(85.086 30.537)" fill="#c6ff00"/>
              <rect id="Rectángulo_403262" data-name="Rectángulo 403262" width="6.167" height="46.812" transform="translate(85.086 30.537)" fill="none" stroke="#263238" stroke-linecap="round" stroke-linejoin="round" stroke-width="0.75"/>
              <rect id="Rectángulo_403263" data-name="Rectángulo 403263" width="6.167" height="12.097" transform="translate(78.233 65.252)" fill="#263238"/>
              <rect id="Rectángulo_403264" data-name="Rectángulo 403264" width="6.167" height="12.097" transform="translate(78.233 65.252)" fill="none" stroke="#263238" stroke-linecap="round" stroke-linejoin="round" stroke-width="0.75"/>
              <rect id="Rectángulo_403265" data-name="Rectángulo 403265" width="6.167" height="15.779" transform="translate(71.38 61.57)" fill="#fff"/>
              <rect id="Rectángulo_403266" data-name="Rectángulo 403266" width="6.167" height="15.779" transform="translate(71.38 61.57)" fill="none" stroke="#263238" stroke-linecap="round" stroke-linejoin="round" stroke-width="0.75"/>
              <rect id="Rectángulo_403267" data-name="Rectángulo 403267" width="6.167" height="31.559" transform="translate(64.528 45.791)" fill="#c6ff00"/>
              <rect id="Rectángulo_403268" data-name="Rectángulo 403268" width="6.167" height="31.559" transform="translate(64.528 45.791)" fill="none" stroke="#263238" stroke-linecap="round" stroke-linejoin="round" stroke-width="0.75"/>
              <rect id="Rectángulo_403269" data-name="Rectángulo 403269" width="6.167" height="5.26" transform="translate(57.675 72.09)" fill="#263238"/>
              <rect id="Rectángulo_403270" data-name="Rectángulo 403270" width="6.167" height="5.26" transform="translate(57.675 72.09)" fill="none" stroke="#263238" stroke-linecap="round" stroke-linejoin="round" stroke-width="0.75"/>
              <rect id="Rectángulo_403271" data-name="Rectángulo 403271" width="6.167" height="41.027" transform="translate(50.822 36.323)" fill="#fff"/>
              <rect id="Rectángulo_403272" data-name="Rectángulo 403272" width="6.167" height="41.027" transform="translate(50.822 36.323)" fill="none" stroke="#263238" stroke-linecap="round" stroke-linejoin="round" stroke-width="0.75"/>
              <rect id="Rectángulo_403273" data-name="Rectángulo 403273" width="6.167" height="33.136" transform="translate(43.97 44.212)" fill="#c6ff00"/>
              <rect id="Rectángulo_403274" data-name="Rectángulo 403274" width="6.167" height="33.136" transform="translate(43.97 44.212)" fill="none" stroke="#263238" stroke-linecap="round" stroke-linejoin="round" stroke-width="0.75"/>
              <rect id="Rectángulo_403275" data-name="Rectángulo 403275" width="6.167" height="1.578" transform="translate(37.117 75.771)" fill="#263238"/>
              <rect id="Rectángulo_403276" data-name="Rectángulo 403276" width="6.167" height="1.578" transform="translate(37.117 75.771)" fill="none" stroke="#263238" stroke-linecap="round" stroke-linejoin="round" stroke-width="0.75"/>
              <rect id="Rectángulo_403277" data-name="Rectángulo 403277" width="6.167" height="2.104" transform="translate(30.265 75.246)" fill="#fff"/>
              <rect id="Rectángulo_403278" data-name="Rectángulo 403278" width="6.167" height="2.104" transform="translate(30.265 75.246)" fill="none" stroke="#263238" stroke-linecap="round" stroke-linejoin="round" stroke-width="0.75"/>
              <rect id="Rectángulo_403279" data-name="Rectángulo 403279" width="6.167" height="26.299" transform="translate(23.412 51.051)" fill="#c6ff00"/>
              <rect id="Rectángulo_403280" data-name="Rectángulo 403280" width="6.167" height="26.299" transform="translate(23.412 51.051)" fill="none" stroke="#263238" stroke-linecap="round" stroke-linejoin="round" stroke-width="0.75"/>
              <rect id="Rectángulo_403281" data-name="Rectángulo 403281" width="6.167" height="5.26" transform="translate(16.559 72.09)" fill="#263238"/>
              <rect id="Rectángulo_403282" data-name="Rectángulo 403282" width="6.167" height="5.26" transform="translate(16.559 72.09)" fill="none" stroke="#263238" stroke-linecap="round" stroke-linejoin="round" stroke-width="0.75"/>
              <rect id="Rectángulo_403283" data-name="Rectángulo 403283" width="6.167" height="10.52" transform="translate(9.707 66.83)" fill="#fff"/>
              <rect id="Rectángulo_403284" data-name="Rectángulo 403284" width="6.167" height="10.52" transform="translate(9.707 66.83)" fill="none" stroke="#263238" stroke-linecap="round" stroke-linejoin="round" stroke-width="0.75"/>
              <rect id="Rectángulo_403285" data-name="Rectángulo 403285" width="101.704" height="5.205" transform="translate(10.508 19.123)" fill="#c6ff00"/>
              <rect id="Rectángulo_403286" data-name="Rectángulo 403286" width="101.704" height="5.205" transform="translate(10.508 19.123)" fill="none" stroke="#263238" stroke-miterlimit="10" stroke-width="1"/>
              <rect id="Rectángulo_403287" data-name="Rectángulo 403287" width="16.493" height="4.443" transform="translate(37.301 19.504)" fill="#263238"/>
              <rect id="Rectángulo_403288" data-name="Rectángulo 403288" width="16.493" height="4.443" transform="translate(37.301 19.504)" fill="none" stroke="#263238" stroke-miterlimit="10" stroke-width="1"/>
              <rect id="Rectángulo_403289" data-name="Rectángulo 403289" width="30.981" height="4.443" transform="translate(54.463 19.504)" fill="#fff"/>
              <rect id="Rectángulo_403290" data-name="Rectángulo 403290" width="30.981" height="4.443" transform="translate(54.463 19.504)" fill="none" stroke="#263238" stroke-miterlimit="10" stroke-width="1"/>
            </g>
          </g>
        </g>
      </g>
      <g id="Grupo_1106255" data-name="Grupo 1106255" transform="translate(880.051 3994.537)">
        <g id="Grupo_1106260" data-name="Grupo 1106260" clip-path="url(#clip-path-4)">
          <g id="Grupo_1106259" data-name="Grupo 1106259">
            <g id="Grupo_1106258" data-name="Grupo 1106258" clip-path="url(#clip-path-5)">
              <g id="Grupo_1106257" data-name="Grupo 1106257" opacity="0.2">
                <g id="Grupo_1106256" data-name="Grupo 1106256">
                  <g id="Grupo_1106255-2" data-name="Grupo 1106255" clip-path="url(#clip-path-6)">
                    <path id="Trazado_876129" data-name="Trazado 876129" d="M116.507,96.935H13.461a8.548,8.548,0,0,1-8.549-8.548V14.932a8.548,8.548,0,0,1,8.549-8.548H116.507a8.548,8.548,0,0,1,8.548,8.548V88.387a8.548,8.548,0,0,1-8.548,8.548"/>
                  </g>
                </g>
              </g>
              <path id="Trazado_876130" data-name="Trazado 876130" d="M112.1,91.051H9.049A8.548,8.548,0,0,1,.5,82.5V9.048A8.548,8.548,0,0,1,9.049.5H112.1a8.548,8.548,0,0,1,8.548,8.548V82.5a8.548,8.548,0,0,1-8.548,8.548" fill="#fff"/>
              <path id="Rectángulo_403294" data-name="Rectángulo 403294" d="M8.548,0H111.594a8.549,8.549,0,0,1,8.549,8.549V82a8.549,8.549,0,0,1-8.549,8.549H8.548A8.548,8.548,0,0,1,0,82V8.548A8.548,8.548,0,0,1,8.548,0Z" transform="translate(0.5 0.5)" fill="none" stroke="#263238" stroke-linecap="round" stroke-linejoin="round" stroke-width="1"/>
              <line id="Línea_626" data-name="Línea 626" x2="112.8" transform="translate(6.073 82.574)" fill="none" stroke="#263238" stroke-miterlimit="10" stroke-width="0.5"/>
              <line id="Línea_627" data-name="Línea 627" y2="1.669" transform="translate(6.073 82.574)" fill="none" stroke="#263238" stroke-miterlimit="10" stroke-width="0.5"/>
              <line id="Línea_628" data-name="Línea 628" y2="1.669" transform="translate(13.593 82.574)" fill="none" stroke="#263238" stroke-miterlimit="10" stroke-width="0.5"/>
              <line id="Línea_629" data-name="Línea 629" y2="1.669" transform="translate(21.113 82.574)" fill="none" stroke="#263238" stroke-miterlimit="10" stroke-width="0.5"/>
              <line id="Línea_630" data-name="Línea 630" y2="1.669" transform="translate(28.633 82.574)" fill="none" stroke="#263238" stroke-miterlimit="10" stroke-width="0.5"/>
              <line id="Línea_631" data-name="Línea 631" y2="1.669" transform="translate(36.153 82.574)" fill="none" stroke="#263238" stroke-miterlimit="10" stroke-width="0.5"/>
              <line id="Línea_632" data-name="Línea 632" y2="1.669" transform="translate(43.673 82.574)" fill="none" stroke="#263238" stroke-miterlimit="10" stroke-width="0.5"/>
              <line id="Línea_633" data-name="Línea 633" y2="1.669" transform="translate(51.193 82.574)" fill="none" stroke="#263238" stroke-miterlimit="10" stroke-width="0.5"/>
              <line id="Línea_634" data-name="Línea 634" y2="1.669" transform="translate(58.713 82.574)" fill="none" stroke="#263238" stroke-miterlimit="10" stroke-width="0.5"/>
              <line id="Línea_635" data-name="Línea 635" y2="1.669" transform="translate(66.233 82.574)" fill="none" stroke="#263238" stroke-miterlimit="10" stroke-width="0.5"/>
              <line id="Línea_636" data-name="Línea 636" y2="1.669" transform="translate(73.753 82.574)" fill="none" stroke="#263238" stroke-miterlimit="10" stroke-width="0.5"/>
              <line id="Línea_637" data-name="Línea 637" y2="1.669" transform="translate(81.273 82.574)" fill="none" stroke="#263238" stroke-miterlimit="10" stroke-width="0.5"/>
              <line id="Línea_638" data-name="Línea 638" y2="1.669" transform="translate(88.793 82.574)" fill="none" stroke="#263238" stroke-miterlimit="10" stroke-width="0.5"/>
              <line id="Línea_639" data-name="Línea 639" y2="1.669" transform="translate(96.313 82.574)" fill="none" stroke="#263238" stroke-miterlimit="10" stroke-width="0.5"/>
              <line id="Línea_640" data-name="Línea 640" y2="1.669" transform="translate(103.833 82.574)" fill="none" stroke="#263238" stroke-miterlimit="10" stroke-width="0.5"/>
              <line id="Línea_641" data-name="Línea 641" y2="1.669" transform="translate(111.353 82.574)" fill="none" stroke="#263238" stroke-miterlimit="10" stroke-width="0.5"/>
              <line id="Línea_642" data-name="Línea 642" y2="1.669" transform="translate(118.873 82.574)" fill="none" stroke="#263238" stroke-miterlimit="10" stroke-width="0.5"/>
              <path id="Trazado_876131" data-name="Trazado 876131" d="M9.833,81.219h105.28V66.666l-7.443-14.4a1.029,1.029,0,0,1-.1-.319l-6.621-42.71a.8.8,0,0,0-1.6.028L92.607,61.4a.971.971,0,0,1-.354.646l-6.491,5.025a.753.753,0,0,1-1.159-.323l-6.535-13.49a.753.753,0,0,0-1.312-.169l-6.763,8.725-7.52,9.7-7.52-9.7-6.625-8.548a.767.767,0,0,0-1.365.3L39.913,75.4,32.393,36.49l-7.52,42.789-7.52-5.822L11.4,56.554c-.338-.958-1.565-.677-1.565.359Z" fill="#c6ff00"/>
              <path id="Trazado_876132" data-name="Trazado 876132" d="M115.113,81.243H9.833V68.728l7.443-12.387a.8.8,0,0,0,.1-.275L24,19.338a.813.813,0,0,1,1.6.023L32.339,64.2a.813.813,0,0,0,.354.556l6.491,4.321a.814.814,0,0,0,1.159-.277l6.535-11.6a.813.813,0,0,1,1.312-.145l6.763,7.5,7.52,8.344,7.52-8.344,6.625-7.35a.813.813,0,0,1,1.365.258l7.05,18.773h7.52l7.52,3.337,7.52-5.006,5.955-14.536a.813.813,0,0,1,1.565.308Z" fill="#263238"/>
              <line id="Línea_643" data-name="Línea 643" x2="23.299" transform="translate(66.846 12.577)" fill="none" stroke="#263238" stroke-linecap="round" stroke-linejoin="round" stroke-width="1"/>
              <line id="Línea_644" data-name="Línea 644" x2="23.299" transform="translate(66.846 18.033)" fill="none" stroke="#263238" stroke-linecap="round" stroke-linejoin="round" stroke-width="1"/>
              <line id="Línea_645" data-name="Línea 645" x2="23.299" transform="translate(66.846 23.488)" fill="none" stroke="#263238" stroke-linecap="round" stroke-linejoin="round" stroke-width="1"/>
              <line id="Línea_646" data-name="Línea 646" x2="23.299" transform="translate(66.846 28.943)" fill="none" stroke="#263238" stroke-linecap="round" stroke-linejoin="round" stroke-width="1"/>
              <line id="Línea_647" data-name="Línea 647" x2="23.299" transform="translate(66.846 34.399)" fill="none" stroke="#263238" stroke-linecap="round" stroke-linejoin="round" stroke-width="1"/>
              <line id="Línea_648" data-name="Línea 648" x2="23.299" transform="translate(66.846 39.854)" fill="none" stroke="#263238" stroke-linecap="round" stroke-linejoin="round" stroke-width="1"/>
              <line id="Línea_649" data-name="Línea 649" x2="2.912" transform="translate(61.551 12.577)" fill="none" stroke="#263238" stroke-linecap="round" stroke-linejoin="round" stroke-width="1"/>
              <line id="Línea_650" data-name="Línea 650" x2="2.912" transform="translate(61.551 18.033)" fill="none" stroke="#263238" stroke-linecap="round" stroke-linejoin="round" stroke-width="1"/>
              <line id="Línea_651" data-name="Línea 651" x2="2.912" transform="translate(61.551 23.488)" fill="none" stroke="#263238" stroke-linecap="round" stroke-linejoin="round" stroke-width="1"/>
              <line id="Línea_652" data-name="Línea 652" x2="2.912" transform="translate(61.551 28.943)" fill="none" stroke="#263238" stroke-linecap="round" stroke-linejoin="round" stroke-width="1"/>
              <line id="Línea_653" data-name="Línea 653" x2="2.912" transform="translate(61.551 34.399)" fill="none" stroke="#263238" stroke-linecap="round" stroke-linejoin="round" stroke-width="1"/>
              <line id="Línea_654" data-name="Línea 654" x2="2.912" transform="translate(61.551 39.854)" fill="none" stroke="#263238" stroke-linecap="round" stroke-linejoin="round" stroke-width="1"/>
            </g>
          </g>
        </g>
      </g>
      <g id="Grupo_1106246" data-name="Grupo 1106246" transform="translate(949.002 3876.996)">
        <path id="Trazado_876044" data-name="Trazado 876044" d="M87.525,353.035l-2.168-1.143,2.186-.551Z" transform="translate(-34.814 -143.302)" fill="#263238"/>
        <path id="Trazado_876045" data-name="Trazado 876045" d="M87.25,353.26l-3.28-1.73,3.307-.834Zm-1.638-1.533,1.056.557.009-.825Z" transform="translate(-34.249 -143.039)"/>
        <g id="Grupo_1106245" data-name="Grupo 1106245">
          <g id="Grupo_1106244" data-name="Grupo 1106244" clip-path="url(#clip-path-7)">
            <path id="Trazado_876046" data-name="Trazado 876046" d="M51.841,353.56s26.259-11.1,26.535-9.333a2.611,2.611,0,0,1-.041,1.058c.023-.031.052-.062.072-.093l-.565,3.269a7.7,7.7,0,0,1-4.085,1.6c0-.158.012-1.136.018-1.694a13.191,13.191,0,0,0-2.321,1.162c-1.693,1.064-2.813,2.972-4.638,5.176-1.329,1.605-3.643,2.31-7.054,2.707-3.671.427-6.874-.364-7.756-1.376a2.619,2.619,0,0,1-.165-2.471" transform="translate(-21.047 -140.322)" fill="#263238"/>
            <path id="Trazado_876047" data-name="Trazado 876047" d="M57.521,357.633c-2.888,0-5.182-.722-5.944-1.6a2.883,2.883,0,0,1-.194-2.82l.05-.081.088-.037c4.144-1.752,24.9-10.445,26.7-9.445a.469.469,0,0,1,.245.339c0,.023.007.047.009.071l.232-.345-.211,1.333-.584,3.379-.086.07a7.919,7.919,0,0,1-4.264,1.661l-.306.007.017-1.556a12.455,12.455,0,0,0-1.862.971,13.369,13.369,0,0,0-3.158,3.326c-.439.571-.892,1.163-1.41,1.788-1.281,1.548-3.381,2.363-7.248,2.813a17.975,17.975,0,0,1-2.069.121M51.854,353.6a2.316,2.316,0,0,0,.169,2.047c.817.938,3.916,1.693,7.5,1.276,3.7-.43,5.687-1.185,6.86-2.6.51-.616.96-1.2,1.4-1.77a13.757,13.757,0,0,1,3.311-3.466,13.463,13.463,0,0,1,2.371-1.187l.409-.159-.02,1.816a7.585,7.585,0,0,0,3.513-1.446l.352-2.039-.171.21.3-1.255a2.294,2.294,0,0,0,.045-.87c-1.336-.435-14.312,4.5-26.033,9.447" transform="translate(-20.841 -140.134)"/>
            <path id="Trazado_876048" data-name="Trazado 876048" d="M52.737,337.578c.256-.256,1.209-1.258,2.491-2.343a49.019,49.019,0,0,1,3.829-3.112,14.412,14.412,0,0,0,1.9-1.5c.465-.477.913-.972,1.329-1.492a28.407,28.407,0,0,0,3.273-5.262,13.208,13.208,0,0,0,1.107-6.47c-.175-5.522-.568-7.522-.5-11.108L78.5,308.319c-.413,1.976-.916,6.4-1.165,8.653-.378,3.426-.888,3.74.354,7.2a10.076,10.076,0,0,1,.947,3.085c.036,1.76-1.376,3.241-2.932,4.06-1.29.679-2.762.946-4.015,1.673a12.824,12.824,0,0,0-3.314,3.107,12.728,12.728,0,0,1-2.885,3.168,11.354,11.354,0,0,1-4.266,1.36,22.645,22.645,0,0,1-5.686.139c-2.689-.282-4.669-1.32-2.8-3.187" transform="translate(-21.211 -124.929)" fill="#b16668"/>
            <path id="Trazado_876049" data-name="Trazado 876049" d="M57.71,340.936a24.072,24.072,0,0,1-2.406-.116c-1.211-.127-3.305-.52-3.728-1.714-.213-.6.038-1.269.747-1.978l.128-.13c.374-.381,1.251-1.273,2.38-2.23.246-.207.5-.428.763-.654a36.33,36.33,0,0,1,3.09-2.476,13.454,13.454,0,0,0,1.857-1.458c.5-.506.923-.988,1.31-1.469a27.891,27.891,0,0,0,3.237-5.208,13.49,13.49,0,0,0,1.076-6.331c-.077-2.45-.2-4.185-.3-5.716-.131-1.9-.234-3.4-.192-5.407l.007-.341,12.974,2.128-.063.3c-.293,1.4-.683,4.3-1.16,8.624-.08.722-.165,1.307-.239,1.813a8.257,8.257,0,0,0,.577,5.256c.095.265.2.528.312.791a6.655,6.655,0,0,1,.652,2.389c.041,1.97-1.57,3.527-3.09,4.326a14.554,14.554,0,0,1-1.937.793,12.007,12.007,0,0,0-2.067.874,12.663,12.663,0,0,0-3.234,3.04c-.232.281-.452.577-.673.874a8.5,8.5,0,0,1-2.287,2.359,11.593,11.593,0,0,1-4.369,1.4,19.928,19.928,0,0,1-3.362.259M66.256,306.4c-.023,1.812.075,3.237.2,5.013.106,1.536.226,3.277.3,5.738a14.065,14.065,0,0,1-1.136,6.609,28.591,28.591,0,0,1-3.307,5.317c-.4.5-.84.992-1.349,1.513a13.762,13.762,0,0,1-1.945,1.533,35.906,35.906,0,0,0-3.038,2.435c-.264.227-.519.448-.766.658-1.11.939-1.973,1.817-2.341,2.192l-.132.135c-.534.533-.738.991-.608,1.361.223.629,1.461,1.135,3.232,1.322a22.448,22.448,0,0,0,5.6-.137,11.131,11.131,0,0,0,4.164-1.32,7.94,7.94,0,0,0,2.12-2.207c.226-.3.452-.607.69-.9a13.189,13.189,0,0,1,3.395-3.176,12.69,12.69,0,0,1,2.167-.921,14.016,14.016,0,0,0,1.859-.757c1.364-.718,2.809-2.091,2.774-3.791a6.112,6.112,0,0,0-.607-2.175c-.112-.272-.224-.543-.323-.818a8.79,8.79,0,0,1-.605-5.541c.073-.5.158-1.077.236-1.791.454-4.111.817-6.859,1.108-8.379Z" transform="translate(-21.006 -124.69)"/>
            <path id="Trazado_876050" data-name="Trazado 876050" d="M62.789,344.263a4.862,4.862,0,0,0-4.016-.474c-1.953,1.474-3.574,2.787-4.716,3.7-1.387,1.114-2.6,2.132-2.588,3.447.024,2.065,7.978,2.9,12.484,1.055a5.558,5.558,0,0,0,3.22-2.687s-.581-2.906-4.384-5.045m15.343-7.019c-.645-1.345-.887-2.03-.887-2.03a8.207,8.207,0,0,0-3.231,8.573,5.918,5.918,0,0,0,3.975-2.566,3.745,3.745,0,0,0,.143-3.978" transform="translate(-20.993 -136.725)" fill="#37474f"/>
            <path id="Trazado_876051" data-name="Trazado 876051" d="M57.694,353.018c-2.5,0-4.822-.431-5.937-1.171a1.48,1.48,0,0,1-.789-1.191c-.018-1.5,1.363-2.609,2.7-3.681l.363-.291c1.1-.883,2.6-2.091,4.361-3.418a5.061,5.061,0,0,1,4.339.452c3.876,2.181,4.5,5.121,4.528,5.246l.019.094-.04.086a5.812,5.812,0,0,1-3.4,2.846,16.991,16.991,0,0,1-6.145,1.028m2.258-9.457a3.281,3.281,0,0,0-1.255.208c-1.7,1.291-3.2,2.5-4.3,3.376l-.364.292c-1.458,1.171-2.49,2.086-2.477,3.212,0,.239.178.476.523.7,1.916,1.269,7.977,1.542,11.552.081a5.388,5.388,0,0,0,3.017-2.449,8.439,8.439,0,0,0-4.214-4.752,5.064,5.064,0,0,0-2.488-.673m13.65.294-.078-.272a8.457,8.457,0,0,1,3.38-8.919l.3-.154.114.319c0,.006.246.689.875,2a4.013,4.013,0,0,1-.165,4.272,6.219,6.219,0,0,1-4.152,2.688Zm3.289-8.49a8.1,8.1,0,0,0-2.87,7.781,5.469,5.469,0,0,0,3.518-2.374,3.426,3.426,0,0,0,.121-3.685c-.391-.816-.635-1.389-.769-1.721" transform="translate(-20.789 -136.437)"/>
            <path id="Trazado_876052" data-name="Trazado 876052" d="M132.722,345.072c-.724,1.188.271,5.632.133,8.8-.126,2.882-.673,7.379.066,10.746.757,3.45,3.663,7.08,7.6,3.884,2.438-1.981,3.408-4.35,3.7-8.5.205-2.884-.982-6.858-2-10.384-1.192-4.118-1.652-6.321-1.652-6.321Z" transform="translate(-54.025 -140.022)" fill="#263238"/>
            <path id="Trazado_876053" data-name="Trazado 876053" d="M137.346,369.786a3.545,3.545,0,0,1-1.17-.2c-2.093-.732-3.327-3.231-3.748-5.149a33.893,33.893,0,0,1-.189-8.862c.047-.706.091-1.368.117-1.961a33.6,33.6,0,0,0-.21-4.261c-.189-2.1-.352-3.907.12-4.683l.066-.108,8.261-1.865.061.294c0,.022.473,2.242,1.647,6.3l.1.348c.991,3.421,2.115,7.3,1.913,10.138-.31,4.341-1.344,6.7-3.813,8.708a5.007,5.007,0,0,1-3.156,1.3m-4.628-24.7c-.3.7-.139,2.486.017,4.218a34.12,34.12,0,0,1,.213,4.34c-.026.6-.07,1.264-.118,1.975a33.48,33.48,0,0,0,.176,8.7c.388,1.769,1.5,4.066,3.365,4.717a3.845,3.845,0,0,0,3.757-1c2.324-1.889,3.3-4.136,3.6-8.291.195-2.737-.913-6.56-1.89-9.932l-.1-.349c-.937-3.24-1.428-5.319-1.593-6.049Z" transform="translate(-53.822 -139.778)"/>
            <path id="Trazado_876054" data-name="Trazado 876054" d="M138.234,310.282c.346,6.716-.391,11.441-.4,15.744a30.276,30.276,0,0,0,.667,5.8c.59,2.74,1.583,6.547,2,8.322.586,2.48,1.027,4.044.194,6.84a3.292,3.292,0,0,1-.275.632c-1.178,2.309-4.212,4.073-5.192,3.8a1.681,1.681,0,0,1-1.712.617,2.359,2.359,0,0,1-.326-.076,2.429,2.429,0,0,1-.327-.13,3.335,3.335,0,0,1-1.644-2.1,5.945,5.945,0,0,1-.162-.606,21.456,21.456,0,0,1-.195-7.05c.063-1.563-.047-3.552-.208-6.071a114.905,114.905,0,0,0-1.747-14.2c-.674-2.636-1.517-5.94-2.4-9.465Z" transform="translate(-51.6 -126.555)" fill="#b16668"/>
            <path id="Trazado_876055" data-name="Trazado 876055" d="M133.614,352.127a2.454,2.454,0,0,1-.755-.117,2.663,2.663,0,0,1-.367-.145,3.592,3.592,0,0,1-1.8-2.271,6.493,6.493,0,0,1-.17-.636,18.773,18.773,0,0,1-.276-6.174c.034-.356.063-.673.075-.95.063-1.587-.057-3.674-.208-6.04a116.175,116.175,0,0,0-1.739-14.154c-.674-2.631-1.516-5.937-2.4-9.461l-.078-.309,12.367-2.18.018.335a89.7,89.7,0,0,1-.182,10.758c-.109,1.759-.211,3.42-.213,5a29.948,29.948,0,0,0,.66,5.742c.393,1.823.966,4.127,1.427,5.979.232.929.435,1.746.574,2.338l.077.323c.541,2.276.931,3.92.113,6.67a3.551,3.551,0,0,1-.3.69c-1.163,2.28-4.026,4.056-5.314,3.981a1.966,1.966,0,0,1-1.508.621m-6.99-39.783c.859,3.408,1.672,6.6,2.327,9.154a116.955,116.955,0,0,1,1.756,14.258c.152,2.382.273,4.486.209,6.1-.011.288-.042.615-.078.984a18.033,18.033,0,0,0,.265,5.992c.045.206.1.4.155.577a3.019,3.019,0,0,0,1.492,1.921,2.072,2.072,0,0,0,.571.18,1.4,1.4,0,0,0,1.409-.474l.115-.2.218.059c.735.2,3.68-1.36,4.85-3.654a2.96,2.96,0,0,0,.255-.581c.774-2.6.417-4.1-.122-6.364l-.076-.323c-.139-.59-.342-1.406-.573-2.332-.462-1.855-1.037-4.165-1.432-6a30.646,30.646,0,0,1-.673-5.857c0-1.608.1-3.277.214-5.046a90.351,90.351,0,0,0,.2-10.357Z" transform="translate(-51.349 -126.315)"/>
            <path id="Trazado_876056" data-name="Trazado 876056" d="M143.995,365.749c-2.416-1.039-9.392-1.121-10.472,2.284,0,3.2,0,5.364,2.048,8.127,2.717,3.671,6.181-.28,7.5-2.781a12.838,12.838,0,0,0,.925-7.63" transform="translate(-54.46 -148.921)" fill="#37474f"/>
            <path id="Trazado_876057" data-name="Trazado 876057" d="M137.856,377.74a3.4,3.4,0,0,1-2.727-1.612c-2.1-2.842-2.1-5.133-2.106-8.3l.014-.089a3.86,3.86,0,0,1,2.252-2.289,12.787,12.787,0,0,1,8.619-.178l.143.061.031.153a13.139,13.139,0,0,1-.953,7.827c-.824,1.562-2.814,4.252-5.048,4.422q-.113.009-.224.009m-4.241-9.868c0,3.145.012,5.233,1.99,7.9a2.776,2.776,0,0,0,2.43,1.365c1.72-.13,3.575-2.222,4.569-4.108a12.6,12.6,0,0,0,.926-7.279,12.4,12.4,0,0,0-7.995.232,3.319,3.319,0,0,0-1.92,1.887" transform="translate(-54.256 -148.712)"/>
            <path id="Trazado_876058" data-name="Trazado 876058" d="M104.7,150.386c3.455,6.059,8.109,14.48,8.406,28.122.4,18.182.641,31.209.749,33.4s1.558,6.2,2.859,16.978-.455,31.36-.455,31.36-1.233,2.436-5.357,2.875c-3.8.4-5.569-1.394-5.569-1.394s-5.718-28.881-7.271-35.362-6.79-34.811-6.79-34.811l-2.354,21.13a54.183,54.183,0,0,1,.258,15.43c-1,9.489-4.2,27.785-4.2,27.785s-1.743,1.8-5.783,1.6a8.223,8.223,0,0,1-5.54-2.252s-3.167-36.2-3.346-46.936.549-41.272,3.663-57.22Z" transform="translate(-28.667 -61.338)" fill="#263238"/>
            <path id="Trazado_876059" data-name="Trazado 876059" d="M109.6,263.273a6.661,6.661,0,0,1-4.68-1.543.29.29,0,0,1-.079-.15c-.057-.288-5.735-28.949-7.27-35.35-1.3-5.417-5.211-26.326-6.428-32.864l-2.128,19.1a55.8,55.8,0,0,1,.253,15.475c-.994,9.391-4.169,27.622-4.2,27.805a.291.291,0,0,1-.079.155c-.075.078-1.877,1.9-6.011,1.691a8.449,8.449,0,0,1-5.745-2.35.3.3,0,0,1-.074-.171c-.032-.362-3.17-36.335-3.347-46.957-.158-9.468.417-40.631,3.668-57.282a.3.3,0,0,1,.284-.239l30.728-.705a.293.293,0,0,1,.264.149c3.241,5.684,8.14,14.274,8.445,28.262.128,5.863.24,11.189.336,15.79.2,9.708.34,16.121.413,17.6a24.908,24.908,0,0,0,.6,3.448c.573,2.692,1.439,6.76,2.253,13.508,1.29,10.687-.436,31.214-.454,31.421a.285.285,0,0,1-.031.108c-.053.105-1.355,2.585-5.59,3.036a10.648,10.648,0,0,1-1.132.062m-4.2-1.9a6.9,6.9,0,0,0,5.266,1.252c3.588-.382,4.9-2.345,5.1-2.67.106-1.278,1.7-20.905.451-31.235-.811-6.722-1.674-10.774-2.245-13.456a25.025,25.025,0,0,1-.615-3.543c-.073-1.489-.209-7.9-.413-17.617-.1-4.6-.209-9.928-.337-15.79-.3-13.713-5.068-22.2-8.28-27.829l-30.313.7C70.814,167.84,70.246,198.7,70.4,208.1c.172,10.317,3.147,44.642,3.335,46.811A8.169,8.169,0,0,0,79.008,257c3.44.16,5.156-1.159,5.494-1.455.255-1.463,3.225-18.654,4.179-27.668a54.406,54.406,0,0,0-.253-15.337.3.3,0,0,1,0-.094l2.354-21.131a.3.3,0,0,1,.284-.263.3.3,0,0,1,.3.242c.053.284,5.253,28.4,6.787,34.8,1.493,6.226,6.891,33.44,7.255,35.278" transform="translate(-28.465 -61.135)" fill="#263238"/>
            <path id="Trazado_876060" data-name="Trazado 876060" d="M79.524,184.465c1.281,4.368,6.516,6.947,9.115,7.524l2.721,14.325-.254,20.269,2.354-21.131-2.531-15.283s-8.078-1.02-11.4-5.7m26.334,51.792c-1.052-5.559-2.388-18.2-3.132-23.826-.725-5.628-1.445-11.262-2.244-16.889.359,5.671.784,11.336,1.36,16.991s1.855,18.328,2.891,23.934c1.108,5.593,2.223,11.14,3.408,16.7q1.752,8.334,3.723,16.629-1.315-8.419-2.847-16.8c-1-5.586-2.081-11.182-3.16-16.734M77.329,210.365l.679-14.822c-.681,4.9-1.193,9.832-1.567,14.769s-.854,13.609-.786,18.614c.25,4.977.711,9.888,1.2,14.817s1.063,9.84,1.726,14.746q-.33-7.419-.836-14.82l-.5-7.4c-.165-2.462-.356-4.937-.448-7.381s.176-8.655.248-11.118.188-4.936.284-7.405" transform="translate(-30.855 -75.238)" fill="#263238"/>
            <path id="Trazado_876061" data-name="Trazado 876061" d="M111.373,268.753c-1.313-5.529-2.566-11.126-3.725-16.636-1.258-5.9-2.429-11.754-3.409-16.7-.727-3.93-1.7-11.992-2.9-23.962-.513-5.036-.946-10.439-1.361-17l.589-.06c.749,5.271,1.439,10.634,2.106,15.82l.138,1.072c.226,1.709.514,4.12.818,6.673.7,5.913,1.581,13.273,2.312,17.134,1.207,6.213,2.207,11.438,3.16,16.738,1.015,5.549,1.973,11.205,2.849,16.81Zm-10.143-65.1c.22,2.732.451,5.282.7,7.745,1.194,11.955,2.165,20,2.888,23.911.979,4.941,2.15,10.792,3.408,16.69.533,2.538,1.087,5.095,1.657,7.654-.44-2.583-.9-5.159-1.363-7.712-.953-5.3-1.952-10.52-3.16-16.731v0c-.734-3.881-1.613-11.252-2.318-17.175-.3-2.551-.591-4.96-.817-6.667l-.138-1.074c-.281-2.188-.567-4.408-.859-6.638M78.083,257.42c-.67-4.949-1.251-9.914-1.728-14.757-.467-4.725-.944-9.763-1.2-14.832-.071-5.229.461-14.183.787-18.65.387-5.1.915-10.075,1.569-14.788l.589.054-.678,14.82q-.047,1.2-.1,2.389c-.07,1.672-.139,3.342-.187,5.013-.015.531-.039,1.235-.067,2.038-.1,2.852-.244,7.161-.181,9.061.072,1.939.211,3.932.344,5.86l.6,8.912c.339,4.986.621,9.976.836,14.827Zm-.939-55.032c-.232,2.245-.435,4.528-.61,6.837-.325,4.458-.857,13.39-.786,18.587.254,5.046.731,10.074,1.2,14.793.22,2.24.463,4.507.727,6.786-.13-2.261-.272-4.536-.427-6.811l-.6-8.911c-.133-1.932-.272-3.93-.345-5.88-.064-1.921.083-6.243.181-9.1.027-.8.052-1.505.066-2.035.049-1.673.118-3.347.188-5.02q.049-1.194.1-2.388v0ZM91.2,225.507l-.59-.037L90.86,205.2l-2.679-14.077c-2.55-.635-7.837-3.228-9.144-7.685l-.5-1.693,1.022,1.438c3.215,4.526,11.121,5.572,11.2,5.581l.219.028,2.574,15.542ZM80.348,184.969c1.935,3.274,6.124,5.172,8.152,5.622l.19.042,2.757,14.516-.175,14.335,1.686-15.133-2.489-15.028c-1.188-.179-6.7-1.156-10.121-4.354" transform="translate(-30.651 -74.129)"/>
            <path id="Trazado_876062" data-name="Trazado 876062" d="M19.868,160.64a35.817,35.817,0,0,0-3.842-1c-.985-.218-1.575.157-3.986,1.394-2.506,1.286-2.961,1.9-3.2,2.643a1.634,1.634,0,0,0,.594,1.824,1.433,1.433,0,0,0,.326,2.435,1.3,1.3,0,0,0,.456,2.117,1.763,1.763,0,0,0,1.191,2.459,26.026,26.026,0,0,0,3.828.627Z" transform="translate(-3.573 -65.087)" fill="#9a4a4d"/>
            <path id="Trazado_876063" data-name="Trazado 876063" d="M15.229,173.245l-.224-.02a26.067,26.067,0,0,1-3.882-.637,2.129,2.129,0,0,1-1.512-1.5,1.921,1.921,0,0,1,0-1.132,1.7,1.7,0,0,1-.706-1.084,1.486,1.486,0,0,1,.211-1.073,1.816,1.816,0,0,1-.725-1.4,1.585,1.585,0,0,1,.377-1.107,1.99,1.99,0,0,1-.414-1.917c.287-.892.862-1.541,3.348-2.816l.6-.311c1.93-1,2.578-1.332,3.581-1.109l.353.078a34.255,34.255,0,0,1,3.513.931l.3.092Zm.1-13.575c-.6,0-1.224.321-2.751,1.108l-.6.311c-2.507,1.286-2.858,1.858-3.056,2.471a1.368,1.368,0,0,0,.44,1.466l.5.239-.48.284a.913.913,0,0,0-.4.834,1.253,1.253,0,0,0,.707,1.082l.371.187-.3.29a.9.9,0,0,0-.274.829,1.108,1.108,0,0,0,.644.8l.38.168-.283.3a1.107,1.107,0,0,0-.047.882,1.53,1.53,0,0,0,1.1,1.089,24.6,24.6,0,0,0,3.55.6l4.446-11.988a32.2,32.2,0,0,0-3.166-.827l-.354-.078a1.975,1.975,0,0,0-.431-.051" transform="translate(-3.369 -64.883)"/>
            <path id="Trazado_876064" data-name="Trazado 876064" d="M24.087,212.515,2.254,16.007l1.675-.186L25.763,212.34c.05.663-1.618.817-1.676.175" transform="translate(-0.919 -6.453)" fill="#455a64"/>
            <path id="Trazado_876065" data-name="Trazado 876065" d="M24.582,213c-.567,0-.974-.265-1.014-.675L1.7,15.52l2.263-.252L4,15.562,25.832,212.081c.037.483-.413.851-1.092.907-.054,0-.107.007-.159.007M2.357,16.043l21.8,196.22c.007.07.219.164.535.135s.558-.162.551-.262L3.443,15.922Z" transform="translate(-0.695 -6.227)"/>
            <path id="Trazado_876066" data-name="Trazado 876066" d="M5.387,18.553c7.735,1.843,13.145,6.158,17.694,17.033C26.31,43.307,32.447,52.1,37.994,52.217L34.886,77.871a20.226,20.226,0,0,1-13.249-6.342c-6.274-6.384-7.1-17.474-12.354-17.918-.8-7.2-2.5-22.517-2.5-22.517Z" transform="translate(-2.197 -7.567)" fill="#fd5a37"/>
            <path id="Trazado_876067" data-name="Trazado 876067" d="M34.913,77.9h-.262A20.727,20.727,0,0,1,21.19,71.47c-2.866-2.916-4.6-6.777-6.126-10.183-1.786-3.98-3.328-7.418-6.041-7.647l-.242-.02L4.812,17.9l.409.1c8.442,2.012,13.628,7,17.9,17.207,3.386,8.094,9.5,16.343,14.647,16.449l.327.007ZM9.316,53.077c2.9.423,4.476,3.927,6.288,7.967,1.508,3.361,3.217,7.17,6.008,10.011A20.415,20.415,0,0,0,34.39,77.3l3.038-25.067c-5.557-.433-11.567-8.935-14.855-16.8C18.455,25.589,13.487,20.7,5.494,18.676Z" transform="translate(-1.963 -7.301)"/>
            <path id="Trazado_876068" data-name="Trazado 876068" d="M19.177,176.913c.473.025,1.1-.719,1.561-1.208s1.039-1.076,1.008-1.509c-.043-.608-.9-.642-.9-.642a3.06,3.06,0,0,0,.433-.359c.552-.5-.4-1.244-1.272-.95,0,0,.376-.207.393-.452a1.113,1.113,0,0,0-1.163-1.114c.624-.283.438-1.156.04-1.834a4.068,4.068,0,0,0-.465,0,15.3,15.3,0,0,0,.359,8.066" transform="translate(-7.516 -68.865)" fill="#9a4a4d"/>
            <path id="Trazado_876069" data-name="Trazado 876069" d="M18.792,177.006h-.04l-.213-.011-.057-.205a17.967,17.967,0,0,1-.731-6l-.327,0,.339-.154a11.367,11.367,0,0,1,.36-2.072l.056-.205.212-.012a4.153,4.153,0,0,1,.5,0l.158.009.081.137a2.3,2.3,0,0,1,.349,1.666.965.965,0,0,1-.052.133,1.4,1.4,0,0,1,.484.333,1.34,1.34,0,0,1,.381.985.678.678,0,0,1-.013.088,1.359,1.359,0,0,1,.948.584.714.714,0,0,1-.152.928.9.9,0,0,1,.559.762c.037.539-.5,1.106-1.015,1.654l-.224.239c-.5.536-1.055,1.14-1.6,1.14m-.446-6.227a17.013,17.013,0,0,0,.634,5.578,4.939,4.939,0,0,0,.981-.894l.228-.244c.348-.369.874-.927.854-1.207-.023-.33-.608-.367-.614-.367l-1.084-.051.959-.506h0a4.43,4.43,0,0,0,.372-.317c.083-.077.079-.126.041-.19a.937.937,0,0,0-1.02-.261l-.237-.539a.645.645,0,0,0,.242-.218.766.766,0,0,0-.22-.534.842.842,0,0,0-.629-.259h-.014Zm.293-1.847a10.826,10.826,0,0,0-.254,1.423l.326-.149a.35.35,0,0,0,.2-.227,1.558,1.558,0,0,0-.218-1.047h-.057" transform="translate(-7.107 -68.661)"/>
            <path id="Trazado_876070" data-name="Trazado 876070" d="M4.2,14.858a1.857,1.857,0,1,1-1.663-2.031A1.856,1.856,0,0,1,4.2,14.858" transform="translate(-0.204 -5.228)" fill="#37474f"/>
            <path id="Trazado_876071" data-name="Trazado 876071" d="M2.155,16.623a2.026,2.026,0,0,1-.215-.011A2.152,2.152,0,1,1,4.3,14.683h0a2.156,2.156,0,0,1-2.14,1.939m0-3.713a1.561,1.561,0,1,0,.156.008,1.532,1.532,0,0,0-.156-.008" transform="translate(0 -5.024)"/>
            <path id="Trazado_876072" data-name="Trazado 876072" d="M36.74,163.669s-6.3,2.346-10.32,3.893c-3.077,1.179-3.128,1.627-4.165,2.647-1.145,1.139-4.455,1.3-4.455,1.3V171.5l-.176-1.547a1.476,1.476,0,0,0,.459-.9.72.72,0,0,0-.624-.606l-.028-.232c.051-.04.119-.1.192-.165.335-.317.114-.708-.311-.9l-.147-1.3a9.478,9.478,0,0,1-1.27-1.519v-.011a3.49,3.49,0,0,1-.272-.618,3.716,3.716,0,0,0-.385,0,4.467,4.467,0,0,0-2.136.606c-.544.935-1.377,2.068-2.743,2.04-1.111-.034-1.1-.549-.527-1.672a17.044,17.044,0,0,1,1.649-3.06,11.126,11.126,0,0,1,3.327-1.78c.612-.243,1.15-.448,1.473-.572a1.54,1.54,0,0,1,.153-.051,6.557,6.557,0,0,1,3.474.028,5.935,5.935,0,0,0,3.3-.193c.907-.243,5.707-2.828,5.707-2.828Z" transform="translate(-3.854 -63.716)" fill="#b16668"/>
            <path id="Trazado_876073" data-name="Trazado 876073" d="M17.3,171.567v-.31l-.188-1.647.084-.1c.35-.408.394-.607.388-.689-.009-.161-.144-.274-.4-.339l-.2-.049-.073-.6.131-.1c.046-.036.107-.087.173-.149s.069-.12.066-.135a.489.489,0,0,0-.3-.279l-.153-.07-.155-1.375c-.076-.083-.157-.169-.239-.256a6.589,6.589,0,0,1-1.009-1.253l-.034-.075a3.734,3.734,0,0,1-.187-.4c-.047,0-.1,0-.16,0a4.23,4.23,0,0,0-1.934.526,3.583,3.583,0,0,1-2.91,2.122H10.15a1.258,1.258,0,0,1-1.094-.449c-.238-.4-.049-.952.309-1.653.2-.395.36-.74.506-1.045a10.032,10.032,0,0,1,1.175-2.065c.134-.172.548-.7,3.447-1.87.484-.192.92-.359,1.243-.483l.236-.091a1.576,1.576,0,0,1,.194-.064,6.877,6.877,0,0,1,3.588.025,5.493,5.493,0,0,0,2.957-.125l.213-.06c.719-.194,4.32-2.089,5.647-2.8l.189-.1,8.325,7.927-.444.165c-.063.024-6.341,2.363-10.317,3.892-2.524.967-2.936,1.4-3.619,2.123-.134.142-.277.293-.445.458-1.211,1.2-4.508,1.376-4.648,1.382Zm.429-1.77.13,1.145c.8-.067,3.116-.33,3.983-1.193.164-.162.3-.307.432-.444.715-.756,1.188-1.255,3.836-2.269,3.363-1.294,8.373-3.167,9.879-3.729l-7.329-6.979c-.913.489-4.746,2.527-5.581,2.752l-.207.059a6.052,6.052,0,0,1-3.216.14,6.271,6.271,0,0,0-3.33-.041.784.784,0,0,0-.1.031l-.285.108c-.32.123-.754.29-1.234.48-2.394.968-3.035,1.473-3.2,1.688a9.475,9.475,0,0,0-1.1,1.953c-.147.308-.313.656-.512,1.056-.372.729-.384.992-.329,1.085.025.043.135.144.6.159h.043c1.18,0,1.92-1.01,2.434-1.894l.038-.065.063-.039a4.792,4.792,0,0,1,2.281-.65,3.86,3.86,0,0,1,.391,0l.2.009.082.2a3.193,3.193,0,0,0,.249.565l.037.078a7.026,7.026,0,0,0,.883,1.063c.108.115.213.227.31.334l.064.07.14,1.243a.967.967,0,0,1,.484.639.733.733,0,0,1-.245.665h0a.9.9,0,0,1,.551.77,1.529,1.529,0,0,1-.446,1.011" transform="translate(-3.651 -63.466)"/>
            <path id="Trazado_876074" data-name="Trazado 876074" d="M27.159,174.355a8.053,8.053,0,0,1-4.1-.184.819.819,0,0,0-.426-.391l-.148-1.3a5.692,5.692,0,0,0,4.678,1.877" transform="translate(-9.169 -70.349)" fill="#9a4a4d"/>
            <path id="Trazado_876075" data-name="Trazado 876075" d="M25.074,174.056a7.36,7.36,0,0,1-2.408-.37l-.124-.043-.051-.121a.54.54,0,0,0-.277-.237l-.152-.07-.3-2.613.666.94c.9,1.27,2.87,1.792,4.427,1.752l.062.587a10.14,10.14,0,0,1-1.847.175m-2.106-.894a6.119,6.119,0,0,0,1.016.228,5.006,5.006,0,0,1-1.4-.817l.028.254a1.1,1.1,0,0,1,.354.335" transform="translate(-8.877 -69.584)"/>
            <path id="Trazado_876076" data-name="Trazado 876076" d="M38.155,157.326l-2.559,1.23a6.262,6.262,0,0,1,3.027,3.987,16.56,16.56,0,0,1,.295,4.9l2.978-1.033a13.319,13.319,0,0,0-.59-4.972,9.753,9.753,0,0,0-3.15-4.11" transform="translate(-14.519 -64.169)" fill="#fafafa"/>
            <path id="Trazado_876077" data-name="Trazado 876077" d="M38.108,167.64l.058-.472a16.462,16.462,0,0,0-.291-4.8A6.011,6.011,0,0,0,35,158.584l-.531-.272,3.256-1.565.143.1a9.951,9.951,0,0,1,3.256,4.253,13.52,13.52,0,0,1,.606,5.1l-.019.189Zm-2.353-9.289a6.392,6.392,0,0,1,2.7,3.9,17.526,17.526,0,0,1,.34,4.528l2.362-.82a13.066,13.066,0,0,0-.589-4.659,9.361,9.361,0,0,0-2.906-3.861Z" transform="translate(-14.06 -63.933)"/>
            <path id="Trazado_876078" data-name="Trazado 876078" d="M64.563,98.6c-5.732.872-7.3,4.7-10.845,15.1-3,8.79-4.433,12.794-4.433,12.794L38.241,133.72s4.539,1.11,3.864,9.081c0,0,6-2.093,13-4.564,3.859-1.363,3.84-3.264,5.562-7.268,1.97-4.581,4.5-13.2,4.5-13.2Z" transform="translate(-15.597 -40.214)" fill="#fd5a37"/>
            <path id="Trazado_876079" data-name="Trazado 876079" d="M41.273,143l.038-.455c.643-7.6-3.466-8.724-3.641-8.768l-.653-.166,11.523-7.548c.232-.653,1.678-4.73,4.4-12.7,3.488-10.212,5.139-14.392,11.081-15.3l.33-.05.618,19.557-.014.046c-.025.086-2.558,8.686-4.513,13.23-.316.735-.577,1.41-.808,2-1.031,2.662-1.653,4.269-4.927,5.426-7,2.472-13,4.564-13,4.564Zm-2.885-9.579c1.225.587,3.932,2.588,3.547,8.721,1.487-.519,6.676-2.332,12.574-4.415,3.016-1.065,3.536-2.407,4.571-5.08.233-.6.5-1.28.817-2.025,1.868-4.342,4.274-12.436,4.476-13.117l-.594-18.792c-5.273.938-6.8,4.643-10.28,14.847-2.968,8.691-4.42,12.757-4.435,12.8l-.033.094-.083.054Z" transform="translate(-15.098 -39.978)"/>
            <path id="Trazado_876080" data-name="Trazado 876080" d="M108.529,133.477c1.068-1.82-2.967-7.438-2.468-12.608.317-3.286,2.824-10.143,2.824-10.143a28.623,28.623,0,0,1-5.737-21.366l-7.866,1.663L83.219,93.412l-4.731,1.3a37.081,37.081,0,0,0-6.983,6.969c-3.449,4.871-3.436,11.146.088,15.151.037.779.47,11.554.082,15.913-.108,1.215-.851,2.75-.092,4.315,3.392,5.566,25.453,8.552,36.946-3.581" transform="translate(-28.116 -36.448)" fill="#fafafa"/>
            <path id="Trazado_876081" data-name="Trazado 876081" d="M86.344,141.936a35.409,35.409,0,0,1-3.718-.192c-5.575-.59-10.092-2.471-11.507-4.792a5.009,5.009,0,0,1-.132-3.473,8.737,8.737,0,0,0,.181-1.023c.379-4.249-.03-14.626-.078-15.77-3.55-4.118-3.572-10.449-.038-15.439a32.975,32.975,0,0,1,6.169-6.3c.316-.262.606-.5.863-.724l.115-.061,4.731-1.3,12.084-2.393,8.276-1.75-.06.419a28.565,28.565,0,0,0,5.668,21.13l.114.131-.06.164c-.025.068-2.5,6.859-2.807,10.069-.263,2.721.782,5.625,1.621,7.958.766,2.13,1.371,3.813.808,4.771l-.041.054c-5.978,6.31-14.809,8.515-22.188,8.515M78.419,94.717c-.246.21-.522.439-.821.686a32.05,32.05,0,0,0-6.063,6.186c-3.4,4.8-3.368,10.877.069,14.785l.069.078,0,.1c.005.11.483,11.438.081,15.953a9.3,9.3,0,0,1-.192,1.1,4.473,4.473,0,0,0,.072,3.065c1.309,2.144,5.651,3.915,11.05,4.487,7.769.821,18.512-.88,25.389-8.115.392-.733-.193-2.362-.87-4.244-.859-2.389-1.928-5.362-1.653-8.215.294-3.046,2.4-8.983,2.783-10.057a29.264,29.264,0,0,1-5.751-21.047l-7.454,1.576L83.066,93.443Z" transform="translate(-27.905 -36.188)"/>
            <path id="Trazado_876082" data-name="Trazado 876082" d="M82.078,37.113a9.406,9.406,0,0,0,2.193-.141,4.3,4.3,0,0,0,2.713-1.828,5.18,5.18,0,0,1,7.363-.2c.7.615,1.452,1.452,2.35,1.279.5-.1,1.086-.542,1.978-.805a3.6,3.6,0,0,1,3.746,1.332,5.533,5.533,0,0,1,.4,2.447,2.189,2.189,0,0,0,1.24,1.926,1.305,1.305,0,0,0,1.731-1.066,2.02,2.02,0,0,1,.344,2.83,3.691,3.691,0,0,1-2.743,1.267c1.9-.025,3.9,1.773,3.343,3.864-.255.92-1.018,1.667-1.053,2.626-.043,1.19.985,2.256,1.164,3.427a4.089,4.089,0,0,1-.522,2.864,4.429,4.429,0,0,1-1.466,1.157,4.067,4.067,0,0,0-1.036.667,3.1,3.1,0,0,0-.537.857,8.191,8.191,0,0,1-1.752,2.837A6.2,6.2,0,0,1,97.4,63.565a10.764,10.764,0,0,0-4.321.482,10.96,10.96,0,0,0-1.743,1.063c-1.776,1.206-3.976,2.214-6.018,1.551a29.41,29.41,0,0,1-2.634-1.329,5.744,5.744,0,0,0-2.349-.479c-.854.006-1.635.329-2.478.356a3.4,3.4,0,0,1-2.729-1.338A4.282,4.282,0,0,1,74.3,60.9a3.114,3.114,0,0,0-1.392,2.906,4.269,4.269,0,0,1-.956-4.98c.4-.785,1.036-1.428,1.431-2.215.726-1.448-.138-2.974-.8-4.272-.773-1.52-1.306-3.444-.352-4.858.9-1.336,2.827-1.718,3.65-3.1a8.121,8.121,0,0,0,.635-3.023,4.859,4.859,0,0,1,2.888-3.973,7.692,7.692,0,0,1,2.669-.271" transform="translate(-29.177 -13.667)" fill="#263238"/>
            <path id="Trazado_876083" data-name="Trazado 876083" d="M86.464,66.962a4.654,4.654,0,0,1-1.444-.223,8.488,8.488,0,0,1-1.595-.774,11.217,11.217,0,0,0-1.067-.565,5.472,5.472,0,0,0-2.188-.454h-.039a6.321,6.321,0,0,0-1.232.173,7.126,7.126,0,0,1-1.239.183,3.738,3.738,0,0,1-2.973-1.452,4.487,4.487,0,0,1-.9-2.524A2.812,2.812,0,0,0,73,63.57l.083.761-.574-.507a4.558,4.558,0,0,1-1.024-5.336,8.609,8.609,0,0,1,.736-1.14,7.781,7.781,0,0,0,.695-1.074c.62-1.236-.076-2.594-.689-3.793l-.108-.211c-.747-1.47-1.412-3.558-.335-5.157a5.877,5.877,0,0,1,1.881-1.579,4.937,4.937,0,0,0,1.76-1.509,4.943,4.943,0,0,0,.5-2.086c.027-.278.054-.557.095-.83A5.147,5.147,0,0,1,79.106,36.9a7.973,7.973,0,0,1,2.758-.288l.009.3,0-.3A9.24,9.24,0,0,0,84,36.479a4,4,0,0,0,2.552-1.731,4.986,4.986,0,0,1,3.537-1.731,5.766,5.766,0,0,1,4.251,1.5c.092.08.19.169.29.26.577.525,1.174,1.065,1.8.946a3.359,3.359,0,0,0,.73-.3,7.48,7.48,0,0,1,1.22-.5,3.9,3.9,0,0,1,4.069,1.442,4.133,4.133,0,0,1,.431,2.052c.007.184.013.367.026.546a1.9,1.9,0,0,0,1.047,1.67,1.051,1.051,0,0,0,.93-.135.85.85,0,0,0,.4-.665l.019-.49.425.244a1.84,1.84,0,0,1,.857,1.258,2.574,2.574,0,0,1-.423,2,3.247,3.247,0,0,1-1.525,1.087,3.959,3.959,0,0,1,1.585,1.208,3.081,3.081,0,0,1,.588,2.736,5.393,5.393,0,0,1-.521,1.154,3.269,3.269,0,0,0-.523,1.406,3.881,3.881,0,0,0,.563,1.772,5.607,5.607,0,0,1,.6,1.6,4.365,4.365,0,0,1-.579,3.088,4.655,4.655,0,0,1-1.561,1.238l-.165.088a3.063,3.063,0,0,0-.8.525,2.8,2.8,0,0,0-.481.777l-.182.393a7.189,7.189,0,0,1-1.643,2.542,6.534,6.534,0,0,1-4.331,1.19l-.57,0a8.972,8.972,0,0,0-3.633.461,8.73,8.73,0,0,0-1.443.865l-.252.172a8.877,8.877,0,0,1-4.832,1.811M80.17,64.353a6.065,6.065,0,0,1,2.427.5,11.75,11.75,0,0,1,1.124.594,7.906,7.906,0,0,0,1.482.724c1.583.514,3.522.005,5.76-1.515l.249-.171a7.083,7.083,0,0,1,5.416-1.429l.565,0a5.923,5.923,0,0,0,3.942-1.045,6.75,6.75,0,0,0,1.493-2.344l.185-.4a3.352,3.352,0,0,1,.592-.937,3.584,3.584,0,0,1,.949-.637l.16-.085a4.077,4.077,0,0,0,1.371-1.076,3.793,3.793,0,0,0,.464-2.639,5.1,5.1,0,0,0-.544-1.428,4.368,4.368,0,0,1-.624-2.055,3.752,3.752,0,0,1,.6-1.67,4.913,4.913,0,0,0,.468-1.024,2.5,2.5,0,0,0-.484-2.216,3.337,3.337,0,0,0-2.536-1.272h-.034l-.028-.592a3.449,3.449,0,0,0,2.529-1.148,1.994,1.994,0,0,0,.319-1.531,1.448,1.448,0,0,0-.258-.586,1.522,1.522,0,0,1-.538.611,1.654,1.654,0,0,1-1.464.2,2.5,2.5,0,0,1-1.432-2.181c-.013-.187-.02-.378-.027-.568a3.672,3.672,0,0,0-.334-1.749,3.277,3.277,0,0,0-3.407-1.2,7.034,7.034,0,0,0-1.128.465,3.711,3.711,0,0,1-.878.346c-.918.178-1.66-.5-2.315-1.09-.1-.088-.191-.175-.286-.258a5.194,5.194,0,0,0-3.82-1.352A4.4,4.4,0,0,0,87,35.131a4.561,4.561,0,0,1-2.874,1.925,9.622,9.622,0,0,1-2.261.149h-.012a7.37,7.37,0,0,0-2.556.255A4.556,4.556,0,0,0,76.607,41.2c-.039.262-.065.531-.091.8a5.466,5.466,0,0,1-.581,2.332,5.451,5.451,0,0,1-1.956,1.709,5.354,5.354,0,0,0-1.7,1.408c-.917,1.361-.3,3.229.371,4.558l.108.21c.644,1.258,1.445,2.824.692,4.328A8.587,8.587,0,0,1,72.7,57.7a7.909,7.909,0,0,0-.687,1.06,3.968,3.968,0,0,0,.407,4.106,3.418,3.418,0,0,1,1.519-2.415l.5-.321-.051.6a3.99,3.99,0,0,0,.762,2.763,3.1,3.1,0,0,0,2.485,1.223,6.594,6.594,0,0,0,1.137-.171,6.815,6.815,0,0,1,1.348-.186h.043" transform="translate(-28.972 -13.462)"/>
            <path id="Trazado_876084" data-name="Trazado 876084" d="M85.988,66.964a3.1,3.1,0,0,1-3.19-.716,4.493,4.493,0,0,1-1.565-5.295,2.671,2.671,0,0,1,3.129-1.582c1.477.191,1.781.878,2.373,1.7.607.843,2.521.49,1.639-3.013,2.275-1.467.23-4.9,1.319-6.731,1.707-2.872,5.179-2.651,6.36-2.187a4.449,4.449,0,0,1,4.568-.912c1.749.656,3.081,2.348,4.5,8.591,1.449,6.364.786,11.194-.517,12.759a6.163,6.163,0,0,1-4.566,2.068l.195,3.98s-2.271,5.853-10.028,6.243c-5.387.271-2.107-5.346-2.107-5.346l-.976-10.692s.078.733-1.137,1.133" transform="translate(-32.997 -19.559)" fill="#b16668"/>
            <path id="Trazado_876085" data-name="Trazado 876085" d="M89.641,81.97a2.908,2.908,0,0,1-2.694-1.141c-.937-1.542.369-4.073.647-4.575L86.713,66.6a2.534,2.534,0,0,1-.836.439,3.375,3.375,0,0,1-3.473-.77,4.766,4.766,0,0,1-1.644-5.644,3.362,3.362,0,0,1,5.824-.2l.188.268a.612.612,0,0,0,.753.205c.479-.223.825-1.121.358-2.974l-.052-.206.178-.115c1.17-.755,1.047-2.122.918-3.569a5.176,5.176,0,0,1,.307-3.065,5.737,5.737,0,0,1,6.538-2.377,4.786,4.786,0,0,1,4.749-.848c1.81.679,3.226,2.388,4.687,8.8,1.446,6.352.8,11.355-.579,13.014a6.346,6.346,0,0,1-4.483,2.149l.184,3.758-.023.059a9.708,9.708,0,0,1-2.174,3.08,12.122,12.122,0,0,1-8.116,3.353q-.194.01-.378.009M87.216,65.6,88.2,76.387l-.048.082c-.015.027-1.539,2.674-.7,4.054.383.627,1.236.91,2.536.847,7.065-.355,9.488-5.416,9.745-6l-.207-4.2.288-.022a5.923,5.923,0,0,0,4.361-1.962c1.288-1.547,1.859-6.338.455-12.5s-2.691-7.77-4.318-8.379a4.181,4.181,0,0,0-4.249.837l-.137.146-.187-.073c-1.034-.406-4.373-.671-6,2.063a4.716,4.716,0,0,0-.227,2.709c.128,1.425.272,3.031-1.012,4,.584,2.535-.311,3.261-.731,3.456a1.206,1.206,0,0,1-1.484-.4c-.068-.094-.132-.187-.195-.277a2.772,2.772,0,0,0-4.8.11,4.189,4.189,0,0,0,1.487,4.946,2.8,2.8,0,0,0,2.907.661c.947-.312.935-.808.934-.829l.589-.054v0" transform="translate(-32.793 -19.355)"/>
            <path id="Trazado_876086" data-name="Trazado 876086" d="M101.732,57.922l-2,1.624a1.36,1.36,0,0,1,.2-1.866,1.252,1.252,0,0,1,1.8.242" transform="translate(-40.564 -23.413)" fill="#263238"/>
            <path id="Trazado_876087" data-name="Trazado 876087" d="M99.476,59.765l-.185-.245a1.661,1.661,0,0,1,.253-2.274,1.519,1.519,0,0,1,1.147-.332,1.578,1.578,0,0,1,1.074.625l.173.228Zm1.03-2.27a.929.929,0,0,0-.589.21,1.053,1.053,0,0,0-.3,1.185l1.476-1.2a.968.968,0,0,0-.47-.19.922.922,0,0,0-.113-.007" transform="translate(-40.361 -23.209)"/>
            <path id="Trazado_876088" data-name="Trazado 876088" d="M116.724,57.04l-2.508-.667a1.242,1.242,0,0,1,1.54-.947,1.37,1.37,0,0,1,.968,1.615" transform="translate(-46.585 -22.589)" fill="#263238"/>
            <path id="Trazado_876089" data-name="Trazado 876089" d="M116.7,57.2l-3.081-.82.062-.278a1.557,1.557,0,0,1,.712-1,1.521,1.521,0,0,1,1.194-.168,1.671,1.671,0,0,1,1.181,1.965Zm-2.341-1.236,1.852.493a1.069,1.069,0,0,0-.778-.952.937.937,0,0,0-.734.1.95.95,0,0,0-.34.356" transform="translate(-46.344 -22.385)"/>
            <path id="Trazado_876090" data-name="Trazado 876090" d="M105.728,75.406l3.658.473a1.771,1.771,0,0,1-2,1.624,1.944,1.944,0,0,1-1.662-2.1" transform="translate(-43.12 -30.756)" fill="#9a4a4d"/>
            <path id="Trazado_876091" data-name="Trazado 876091" d="M107.422,77.586a2.147,2.147,0,0,1-.275-.018,2.247,2.247,0,0,1-1.918-2.418l.028-.306,4.246.549-.025.284a2.09,2.09,0,0,1-.773,1.458,2.038,2.038,0,0,1-1.281.451m-1.6-2.072a1.647,1.647,0,0,0,1.4,1.467,1.457,1.457,0,0,0,1.109-.307,1.488,1.488,0,0,0,.5-.769Z" transform="translate(-42.916 -30.527)"/>
            <path id="Trazado_876092" data-name="Trazado 876092" d="M108.146,77.918a1.886,1.886,0,0,0-2.284-1.314,1.933,1.933,0,0,0,1.585,1.363,1.765,1.765,0,0,0,.7-.049" transform="translate(-43.178 -31.221)" fill="#f28f8f"/>
            <path id="Trazado_876093" data-name="Trazado 876093" d="M107.418,78.075a2.007,2.007,0,0,1-.266-.018,2.226,2.226,0,0,1-1.83-1.57l-.091-.3.3-.076a2.229,2.229,0,0,1,.416-.065,2.177,2.177,0,0,1,2.225,1.583l.084.288-.291.08a2.069,2.069,0,0,1-.549.075m-1.393-1.437a1.618,1.618,0,0,0,1.2.833,1.647,1.647,0,0,0,.248.011,1.622,1.622,0,0,0-1.451-.844" transform="translate(-42.921 -31.017)"/>
            <path id="Trazado_876094" data-name="Trazado 876094" d="M117.18,61.141a1.048,1.048,0,1,1-1.428-.412,1.05,1.05,0,0,1,1.428.412" transform="translate(-46.992 -24.716)" fill="#263238"/>
            <path id="Trazado_876095" data-name="Trazado 876095" d="M117.18,61.141a1.048,1.048,0,1,1-1.428-.412A1.05,1.05,0,0,1,117.18,61.141Z" transform="translate(-46.992 -24.716)" fill="none" stroke="#000" stroke-miterlimit="10" stroke-width="0"/>
            <path id="Trazado_876096" data-name="Trazado 876096" d="M104.06,63.3a1.048,1.048,0,1,1-1.428-.412,1.05,1.05,0,0,1,1.428.412" transform="translate(-41.641 -25.596)" fill="#263238"/>
            <path id="Trazado_876097" data-name="Trazado 876097" d="M104.06,63.3a1.048,1.048,0,1,1-1.428-.412A1.05,1.05,0,0,1,104.06,63.3Z" transform="translate(-41.641 -25.596)" fill="none" stroke="#000" stroke-miterlimit="10" stroke-width="0"/>
            <path id="Trazado_876098" data-name="Trazado 876098" d="M109.132,61.02l1.439,6.73,3.578-1.587a13.894,13.894,0,0,0-5.017-5.143" transform="translate(-44.512 -24.888)" fill="#9a4a4d"/>
            <path id="Trazado_876099" data-name="Trazado 876099" d="M105.544,84.34c-3.28.314-9.327.7-11.152-5.262A6.853,6.853,0,0,0,99.866,85.5a22.428,22.428,0,0,0,5.746.237Z" transform="translate(-38.5 -32.254)" fill="#9a4a4d"/>
            <path id="Trazado_876100" data-name="Trazado 876100" d="M103.218,84.232a20.154,20.154,0,0,1-3.772-.33,7.146,7.146,0,0,1-5.712-6.683L93.5,74.457l.811,2.65c1.6,5.215,6.376,5.482,10.84,5.054l.308-.03.1,1.984-.279.029c-.065.006-.89.089-2.061.089m-8.135-4.3a6.467,6.467,0,0,0,4.477,3.391,22.061,22.061,0,0,0,5.38.256l-.04-.8c-2.475.23-7.19.531-9.817-2.849" transform="translate(-38.136 -30.369)"/>
            <path id="Trazado_876101" data-name="Trazado 876101" d="M82.895,96.2l-6.139,1.419c-4.248,3.777-8.7,9.627-8.62,14.393a13.312,13.312,0,0,0,2.676,7.833s.835,9.634.138,14.812-2.815,18.753-2.815,18.753a36.791,36.791,0,0,0,6.938,2.114c.638-6.624,1.594-30.815.976-36.554S74.6,104.155,82.895,96.2" transform="translate(-27.79 -39.237)" fill="#fd5a37"/>
            <path id="Trazado_876102" data-name="Trazado 876102" d="M75.111,155.511l-.321-.063a37.489,37.489,0,0,1-7-2.132l-.208-.092.035-.225c.021-.136,2.125-13.631,2.814-18.747.649-4.821-.05-13.665-.133-14.657a13.6,13.6,0,0,1-2.685-7.945c-.079-5,4.648-11,8.72-14.618l.056-.05L83.65,95.3l-.776.744c-8.321,7.982-7.342,17.085-6.756,22.525.612,5.69-.32,29.8-.976,36.614Zm-6.873-2.65a37.519,37.519,0,0,0,6.346,1.94c.651-7.206,1.545-30.592.946-36.166-.579-5.382-1.537-14.282,6.2-22.28l-5.054,1.168c-3.966,3.542-8.541,9.341-8.465,14.117a13.136,13.136,0,0,0,2.607,7.646l.06.072.008.094c.008.1.83,9.726.136,14.878-.64,4.754-2.5,16.725-2.78,18.531" transform="translate(-27.565 -38.871)"/>
            <path id="Trazado_876103" data-name="Trazado 876103" d="M108.159,89.742a44.062,44.062,0,0,0-3.917,8.9c-2.142,6.2-4.235,11.839-3.748,17.381s1.917,36.507,1.917,36.507,9.908.033,16.878-2.913l-1-9.344,2.72,8.534s4.528-1.907,5.709-3.157c-2.521-12.592-6.772-18.844-7.32-23.09-.377-2.916,2.249-8.745,3.852-15.921,1.322-5.914-6.96-19.4-6.96-19.4-1.3,1.144-3.841,2.017-8.133,2.5" transform="translate(-40.959 -35.583)" fill="#fd5a37"/>
            <path id="Trazado_876104" data-name="Trazado 876104" d="M102.212,152.513h-.288l-.013-.281c-.014-.31-1.435-31.022-1.916-36.495-.467-5.314,1.424-10.763,3.426-16.531l.337-.973a44.061,44.061,0,0,1,3.949-8.964l.076-.116.137-.015c3.962-.448,6.644-1.266,7.972-2.431l.265-.231.183.3c.341.555,8.33,13.654,7,19.617-.65,2.906-1.464,5.584-2.182,7.946-1.052,3.462-1.884,6.2-1.666,7.873a29.137,29.137,0,0,0,2.091,6.317,87.943,87.943,0,0,1,5.226,16.752l.03.15-.105.112c-1.211,1.281-5.622,3.147-5.809,3.226l-.3.126-1.933-6.063.711,6.661-.2.086c-6.875,2.906-16.694,2.936-16.989,2.936m5.919-62.8a46.927,46.927,0,0,0-3.812,8.717l-.338.973c-1.981,5.707-3.851,11.1-3.4,16.285s1.759,33.1,1.9,36.235c1.642-.024,10.111-.269,16.278-2.8l-1.283-12.024,3.507,11a25.44,25.44,0,0,0,5.2-2.853,87.468,87.468,0,0,0-5.164-16.492,29.426,29.426,0,0,1-2.129-6.463c-.233-1.8.614-4.591,1.688-8.121.715-2.352,1.525-5.018,2.17-7.9,1.174-5.257-5.567-16.9-6.75-18.888-1.48,1.126-4.066,1.892-7.881,2.335" transform="translate(-40.756 -35.271)"/>
            <path id="Trazado_876105" data-name="Trazado 876105" d="M162.329,14.034c.243-4.324-.946-7.312-.977-8.221-.04-1.2-.543-1.53-.543-1.53a1.246,1.246,0,0,0-.881-1.235c-.152-1.017-.752-1-2.693-1.54s-4.188-1.253-4.9-.93-1.05,1.055-1.069,2.378a2.084,2.084,0,0,0-1.927.322c-.773.479-1.111.9-.648,2.27S150.1,7.8,150.193,9a5.434,5.434,0,0,0,1.856,3.61,3.962,3.962,0,0,1,1.517,1.421c.29.609.261,1.18.065,2.834-.163,1.38-2.8,14.907-2.8,14.907l10.433,2.578s.576-11.067.853-16.81c.066-1.38.18-2.915.213-3.508" transform="translate(-60.561 -0.203)" fill="#b16668"/>
            <path id="Trazado_876106" data-name="Trazado 876106" d="M161.338,34.523l-11.055-2.731.054-.277c.027-.135,2.638-13.533,2.8-14.886.2-1.658.212-2.145-.038-2.672a2.888,2.888,0,0,0-1.113-1.091c-.1-.069-.2-.141-.309-.217A5.713,5.713,0,0,1,149.7,8.823a4.4,4.4,0,0,0-.716-1.79,8.9,8.9,0,0,1-.769-1.592c-.5-1.486-.116-2.067.773-2.617a2.353,2.353,0,0,1,1.8-.436A2.383,2.383,0,0,1,152.012.105c.675-.3,2.17.083,4.376.71l.724.2c.295.082.559.151.795.213,1.27.333,1.887.5,2.083,1.405a1.559,1.559,0,0,1,.915,1.313,2.436,2.436,0,0,1,.541,1.648,8.029,8.029,0,0,0,.228,1.155,23.607,23.607,0,0,1,.748,7.092c-.011.2-.031.5-.056.873-.049.731-.113,1.717-.158,2.633-.277,5.744-.853,16.811-.853,16.811Zm-10.366-3.171,9.812,2.424c.1-1.943.587-11.32.834-16.451.044-.921.109-1.91.158-2.644.024-.367.044-.67.056-.867a23.08,23.08,0,0,0-.733-6.923,7.927,7.927,0,0,1-.245-1.271c-.034-1-.413-1.295-.417-1.3l-.136-.1.011-.174a.947.947,0,0,0-.7-.927l-.158-.063-.025-.168c-.1-.649-.35-.735-1.678-1.083-.238-.063-.505-.133-.8-.216l-.728-.205c-1.535-.436-3.444-.979-3.97-.74-.406.184-.873.59-.9,2.113l-.006.384-.37-.1a1.781,1.781,0,0,0-1.691.288c-.638.395-.951.66-.524,1.924a8.447,8.447,0,0,0,.722,1.489,4.9,4.9,0,0,1,.792,2.036,5.144,5.144,0,0,0,1.734,3.394c.1.073.2.143.3.21a3.382,3.382,0,0,1,1.311,1.323c.328.689.288,1.333.092,3-.152,1.282-2.364,12.667-2.75,14.653" transform="translate(-60.36 0)"/>
            <path id="Trazado_876107" data-name="Trazado 876107" d="M160.071,2.777c-.808-.207-1.633-.354-2.45-.525-.43-.09-.86-.183-1.29-.269a2.526,2.526,0,0,0-1.178-.03A1.946,1.946,0,0,0,154,3.274a11.84,11.84,0,0,0-.557,2.248,1.642,1.642,0,0,0,.095,1.133.781.781,0,0,0,.783.394c.158-.025.013-.256-.118-.236-.441.07-.571-.449-.555-.784a6.538,6.538,0,0,1,.169-1.052,8.317,8.317,0,0,1,.536-1.768,1.671,1.671,0,0,1,1.163-1.069,3.305,3.305,0,0,1,1.113.1l1.058.2c.792.146,1.583.321,2.382.429.042.005.04-.077,0-.086" transform="translate(-62.562 -0.773)" fill="#9a4a4d"/>
            <path id="Trazado_876108" data-name="Trazado 876108" d="M154,7.15a1.085,1.085,0,0,1-.92-.545,1.926,1.926,0,0,1-.134-1.334,11.97,11.97,0,0,1,.571-2.3,2.161,2.161,0,0,1,1.353-1.5,2.785,2.785,0,0,1,1.316.025c.3.061.608.125.91.189l.384.081c.236.049.473.1.709.144.577.115,1.172.234,1.754.384h0a.343.343,0,0,1,.242.4l-.053.273-.306-.009c-.573-.078-1.145-.189-1.7-.3-.234-.046-.467-.091-.7-.134L156.232,2.3a2.6,2.6,0,0,0-.876-.071c-.376.061-.693.364-.943.9a8.133,8.133,0,0,0-.515,1.7,6.387,6.387,0,0,0-.163,1,.671.671,0,0,0,.122.459c.012.011.031.028.092.019a.464.464,0,0,1,.423.176.418.418,0,0,1,.082.413.37.37,0,0,1-.294.231A1.013,1.013,0,0,1,154,7.15m.046-.249h0Zm5.749-4.042h0Z" transform="translate(-62.358 -0.568)"/>
            <path id="Trazado_876109" data-name="Trazado 876109" d="M160.463,4.081c-.791-.224-1.593-.4-2.4-.544a11.171,11.171,0,0,0-1.2-.17,1.219,1.219,0,0,0-.859.239,3.047,3.047,0,0,0-.873,1.76c-.092.394-.165.793-.227,1.193a5.446,5.446,0,0,0-.136,1.192c.056.786.915,1.135,1.607,1.112.184-.007.07-.257-.076-.252a1.572,1.572,0,0,1-1.027-.3.982.982,0,0,1-.224-.981,14.93,14.93,0,0,1,.384-2.068,2.62,2.62,0,0,1,.825-1.489,1.251,1.251,0,0,1,.9-.168c.336.033.67.076,1,.121a22.183,22.183,0,0,1,2.3.458c.047.012.041-.087,0-.1" transform="translate(-63.124 -1.372)" fill="#9a4a4d"/>
            <path id="Trazado_876110" data-name="Trazado 876110" d="M156.105,8.957a1.692,1.692,0,0,1-1.836-1.388,4.058,4.058,0,0,1,.094-1l.044-.262c.074-.47.148-.856.232-1.215a3.3,3.3,0,0,1,.977-1.924,1.514,1.514,0,0,1,1.063-.3,11.258,11.258,0,0,1,1.2.169,25.057,25.057,0,0,1,2.461.555h0a.359.359,0,0,1,.235.439l-.075.281-.313-.049a21.516,21.516,0,0,0-2.269-.452c-.33-.046-.662-.087-.994-.12a.978.978,0,0,0-.7.115,2.388,2.388,0,0,0-.71,1.328,14.5,14.5,0,0,0-.376,2.028c-.05.368-.045.58.117.711a1.3,1.3,0,0,0,.833.238.466.466,0,0,1,.476.454.378.378,0,0,1-.381.391h-.077" transform="translate(-62.92 -1.168)"/>
            <path id="Trazado_876111" data-name="Trazado 876111" d="M159.472,6.072a2.353,2.353,0,0,0-.963.094,1.209,1.209,0,0,0-.586.56,5.388,5.388,0,0,0-.509,2.113,8.977,8.977,0,0,0-.065,1.127.926.926,0,0,0,.387.754,4.3,4.3,0,0,0,2.253.724c.167.009.085-.226-.046-.233a4.511,4.511,0,0,1-1.26-.249c-.322-.115-.868-.293-1.033-.624a1.34,1.34,0,0,1-.054-.666c.012-.211.025-.423.043-.635a8.96,8.96,0,0,1,.169-1.216,3.222,3.222,0,0,1,.4-1.1,1.162,1.162,0,0,1,1.034-.453c.9-.016,1.778.115,2.67.161.005,0,.008-.012,0-.014a9.1,9.1,0,0,0-2.448-.344" transform="translate(-64.177 -2.473)" fill="#9a4a4d"/>
            <path id="Trazado_876112" data-name="Trazado 876112" d="M159.794,11.537l-.027,0a4.632,4.632,0,0,1-2.412-.781,1.222,1.222,0,0,1-.507-.98,7.727,7.727,0,0,1,.05-.992l.017-.175a5.633,5.633,0,0,1,.545-2.229,1.482,1.482,0,0,1,.734-.691,2.5,2.5,0,0,1,1.04-.118l.044,0a9.446,9.446,0,0,1,2.528.358l.249.079-.094.518-.263-.006c-.333-.017-.664-.046-1-.075a16.223,16.223,0,0,0-1.654-.087.866.866,0,0,0-.795.323,2.972,2.972,0,0,0-.361,1,8.474,8.474,0,0,0-.163,1.176c-.017.209-.03.419-.043.628l0,.082a.962.962,0,0,0,.029.435c.1.206.566.369.814.457a4.36,4.36,0,0,0,1.23.25.449.449,0,0,1,.369.252.4.4,0,0,1-.011.407.372.372,0,0,1-.319.166m-.073-.234h0Z" transform="translate(-63.972 -2.27)"/>
            <path id="Trazado_876113" data-name="Trazado 876113" d="M162.213,11.531a1.938,1.938,0,0,0-.25-.3.46.46,0,0,0,.011-.137q0-.075-.007-.151a1.339,1.339,0,0,0-.055-.277,2.207,2.207,0,0,0-.213-.525c-.021-.036-.044.024-.034.047a1.449,1.449,0,0,1,.142.5c.005.081.007.162.006.243,0,.041,0,.082,0,.122,0,.012,0,.024,0,.035-.007-.005-.012-.012-.019-.017a1.456,1.456,0,0,0-.533-.306c-.052-.014-.036.086-.007.1a2.936,2.936,0,0,1,.412.267,1.744,1.744,0,0,1,.354.422,1.7,1.7,0,0,1,.2.446.932.932,0,0,1,.031.566c-.049.13.2.269.251.124a1.006,1.006,0,0,0-.024-.608,2.085,2.085,0,0,0-.257-.552" transform="translate(-65.757 -4.133)" fill="#9a4a4d"/>
            <path id="Trazado_876114" data-name="Trazado 876114" d="M162.2,12.779a.484.484,0,0,1-.367-.178.41.41,0,0,1-.075-.409.714.714,0,0,0-.04-.383,1.344,1.344,0,0,0-.165-.367,1.438,1.438,0,0,0-.293-.352,2.162,2.162,0,0,0-.3-.2l-.069-.04a.382.382,0,0,1-.147-.457l.1-.239.281.051a1.168,1.168,0,0,1,.15.05,1.549,1.549,0,0,0-.081-.211l-.118-.256.264-.188.249-.131.162.252a2.474,2.474,0,0,1,.242.594,1.731,1.731,0,0,1,.066.336c0,.058.007.115.007.172v.031a2.027,2.027,0,0,1,.19.242h0a2.366,2.366,0,0,1,.293.63,1.264,1.264,0,0,1,.018.792.381.381,0,0,1-.295.252.351.351,0,0,1-.07.007m-1.013-2.439h0" transform="translate(-65.553 -3.863)"/>
            <path id="Trazado_876115" data-name="Trazado 876115" d="M162.457,14.126a2.1,2.1,0,0,0-.391-.046,2.569,2.569,0,0,0-.4.023,3.166,3.166,0,0,0-.836.215,3.489,3.489,0,0,0-1.3.924,3.193,3.193,0,0,0-.67,3.1c.014.048.06.025.054-.018a3.86,3.86,0,0,1,.82-2.864,3.444,3.444,0,0,1,1.188-.906,4.717,4.717,0,0,1,.743-.263,3.073,3.073,0,0,1,.327-.063c.145-.023.274-.035.46-.061.018,0,.02-.037,0-.041" transform="translate(-64.736 -5.742)" fill="#9a4a4d"/>
            <path id="Trazado_876116" data-name="Trazado 876116" d="M158.477,18.512l-.1-.295a3.484,3.484,0,0,1,.732-3.375,3.8,3.8,0,0,1,1.408-1,3.489,3.489,0,0,1,.914-.235,3.115,3.115,0,0,1,.445-.025,2.342,2.342,0,0,1,.443.053h0l.24.054,0,.266-.009.245-.483.087c-.081.01-.155.02-.233.031a2.659,2.659,0,0,0-.294.057,4.313,4.313,0,0,0-.7.246,3.129,3.129,0,0,0-1.085.827A3.556,3.556,0,0,0,159,18.08l.037.272-.292.1Z" transform="translate(-64.532 -5.538)"/>
            <path id="Trazado_876117" data-name="Trazado 876117" d="M152.238,9.147a1.466,1.466,0,0,1-1.015-.084c-.332-.138-.622-.359-.939-.526-.016-.009-.02.025-.012.034a2.145,2.145,0,0,0,2.077.809c.152-.047.014-.272-.111-.233" transform="translate(-61.29 -3.481)" fill="#9a4a4d"/>
            <path id="Trazado_876118" data-name="Trazado 876118" d="M151.675,9.479a2.68,2.68,0,0,1-1.881-.964l-.17-.181.3-.433.234.113c.133.07.259.147.385.224a3.918,3.918,0,0,0,.532.292,1.169,1.169,0,0,0,.814.074.424.424,0,0,1,.411.1.442.442,0,0,1,.141.417.382.382,0,0,1-.265.28,1.684,1.684,0,0,1-.5.075" transform="translate(-61.027 -3.223)"/>
            <path id="Trazado_876119" data-name="Trazado 876119" d="M153.857,5.68a1.249,1.249,0,0,0-.261-.552c-.049-.056-.085-.052-.06.025a1.631,1.631,0,0,1,.063.271,6.619,6.619,0,0,1,.092.768.042.042,0,0,0,.051,0c.027-.015.031-.041.065-.044s.059-.083.068-.115a.466.466,0,0,0,.012-.128,1.487,1.487,0,0,0-.03-.229" transform="translate(-62.62 -2.076)" fill="#9a4a4d"/>
            <path id="Trazado_876120" data-name="Trazado 876120" d="M153.475,6.371l-.281-.266,0-.106a5.246,5.246,0,0,0-.072-.623l-.017-.111a1.285,1.285,0,0,0-.051-.221.331.331,0,0,1,.137-.413.336.336,0,0,1,.428.1,1.538,1.538,0,0,1,.327.686h0a1.9,1.9,0,0,1,.036.271.78.78,0,0,1-.021.213.412.412,0,0,1-.226.316.346.346,0,0,1-.047.032Zm-.075-.622a.134.134,0,0,0-.024.042l.036-.01Z" transform="translate(-62.416 -1.873)"/>
            <path id="Trazado_876121" data-name="Trazado 876121" d="M153.692,10.25a.149.149,0,0,0-.175-.055,2.008,2.008,0,0,0-.811.6,1.874,1.874,0,0,0-.252.416,1.712,1.712,0,0,0-.088.232,2.675,2.675,0,0,0-.037.33c0,.03.034.07.047.026a1.4,1.4,0,0,1,.123-.239c.037-.072.069-.145.11-.215a2.485,2.485,0,0,1,.291-.394,2.1,2.1,0,0,1,.782-.545c.064-.025.041-.118.011-.159" transform="translate(-62.13 -4.154)" fill="#9a4a4d"/>
            <path id="Trazado_876122" data-name="Trazado 876122" d="M152.372,11.945l-.564-.1.016-.32c0-.031.006-.066.008-.1a1.216,1.216,0,0,1,.036-.265,2.033,2.033,0,0,1,.1-.272,2.211,2.211,0,0,1,.292-.48,2.306,2.306,0,0,1,.932-.692.442.442,0,0,1,.52.15v0a.445.445,0,0,1,.075.375l-.04.142-.175.1a1.816,1.816,0,0,0-.67.468,2.168,2.168,0,0,0-.255.345c-.024.041-.044.083-.065.126l-.036.073c-.019.037-.038.07-.059.1a.488.488,0,0,0-.045.085Z" transform="translate(-61.918 -3.95)"/>
            <path id="Trazado_876123" data-name="Trazado 876123" d="M155.722,32.076l.49-3.123a8.53,8.53,0,0,0,4.072,2.694,7.245,7.245,0,0,0,4.825-.031l-.2,3.215a12.27,12.27,0,0,1-5.725-.459c-2.694-1.01-3.459-2.3-3.459-2.3" transform="translate(-63.515 -11.809)" fill="#fafafa"/>
            <path id="Trazado_876124" data-name="Trazado 876124" d="M162.7,34.764a11.085,11.085,0,0,1-3.83-.631c-2.76-1.035-3.576-2.366-3.61-2.422l-.055-.092.616-3.931.421.574a8.338,8.338,0,0,0,3.924,2.587,7.04,7.04,0,0,0,4.614-.02l.445-.2-.246,3.931-.228.041a12.464,12.464,0,0,1-2.052.158m-6.875-3.276a7.188,7.188,0,0,0,3.253,2.091,11.875,11.875,0,0,0,5.341.479l.158-2.53a7.822,7.822,0,0,1-4.592-.115,9.262,9.262,0,0,1-3.787-2.3Z" transform="translate(-63.302 -11.293)"/>
            <path id="Trazado_876125" data-name="Trazado 876125" d="M126.921,64.284c2.8-3.473,5.143-4.613,6.564-6.379,2.315-2.877,7.075-10.644,7.075-10.644L143.826,31.1c.84,2.929,7.448,4.794,9.275,3.309,0,0-.242,5.679-.612,15.844-.128,3.5-.513,4.129-5.039,10.8-2.136,3.15-4.28,6.544-7.7,11.809-2.473,3.8-4.762,7.344-6,11.108-.333,1.6-3.631,1.566-5.887-3.572-2.489-5.667-1.41-14.145-.94-16.116" transform="translate(-51.506 -12.686)" fill="#fd5a37"/>
            <path id="Trazado_876126" data-name="Trazado 876126" d="M132.244,84.337c-1.343,0-3.336-1.206-4.861-4.679-2.58-5.876-1.39-14.487-.957-16.3l.057-.118a29.1,29.1,0,0,1,4.381-4.323,15.454,15.454,0,0,0,2.183-2.056c2.187-2.717,6.634-9.931,7.027-10.568l3.5-17.3.334,1.167c.425,1.483,2.441,2.6,4.187,3.146,1.966.618,3.865.624,4.616.015l.51-.415-.027.658c0,.056-.246,5.794-.613,15.841-.13,3.564-.482,4.164-5.089,10.954-1.446,2.129-2.9,4.382-4.742,7.233-.882,1.365-1.854,2.871-2.959,4.571-2.431,3.738-4.727,7.268-5.963,11.038a1.466,1.466,0,0,1-1.357,1.123c-.072.007-.146.011-.221.011m-5.258-20.781c-.57,2.473-1.376,10.6.939,15.864,1.389,3.161,3.263,4.446,4.478,4.317a.883.883,0,0,0,.848-.686c1.27-3.876,3.586-7.438,6.039-11.209,1.1-1.7,2.077-3.2,2.958-4.569,1.844-2.855,3.3-5.11,4.75-7.245,4.518-6.659,4.864-7.245,4.987-10.643.3-8.293.522-13.651.59-15.3a7.594,7.594,0,0,1-4.662-.21,8.065,8.065,0,0,1-4.179-2.7L140.6,46.555c-.049.078-4.8,7.816-7.1,10.674a15.936,15.936,0,0,1-2.266,2.139,28.653,28.653,0,0,0-4.256,4.188" transform="translate(-51.299 -11.825)"/>
          </g>
        </g>
      </g>
    </g>
  </g>
</svg>
