<svg xmlns="http://www.w3.org/2000/svg" width="90.914" height="90.914" viewBox="0 0 90.914 90.914">
  <g id="Grupo_1106660" data-name="Grupo 1106660" transform="translate(-803.051 -5188)">
    <g id="Grupo_1106121" data-name="Grupo 1106121" transform="translate(803.051 5188)">
      <rect id="Rect치ngulo_400898" data-name="Rect치ngulo 400898" width="90.914" height="90.914" rx="45.457" transform="translate(0 0)" fill="#febdaf" opacity="0.859"/>
      <rect id="Rect치ngulo_400907" data-name="Rect치ngulo 400907" width="90.914" height="90.914" rx="45.457" transform="translate(0 0)" fill="none"/>
    </g>
    <g id="FILLED_OUTLINE" data-name="FILLED OUTLINE" transform="translate(799.051 5184)">
      <path id="Trazado_877387" data-name="Trazado 877387" d="M25.119,440A1.119,1.119,0,0,0,24,441.119v2.237a3.356,3.356,0,0,0,3.356,3.356h51.46a3.356,3.356,0,0,1-3.356-3.356v-2.237A1.119,1.119,0,0,0,74.341,440Z" transform="translate(-6.881 -364.709)" fill="#c1c1c1"/>
      <path id="Trazado_877388" data-name="Trazado 877388" d="M126.816,24H74.237A2.237,2.237,0,0,0,72,26.237V82.172h43.629a1.119,1.119,0,0,1,1.119,1.119v2.237a3.356,3.356,0,1,0,6.712,0V27.356A3.356,3.356,0,0,1,126.816,24Z" transform="translate(-48.169 -6.881)" fill="#e5e1dc"/>
      <path id="Trazado_877389" data-name="Trazado 877389" d="M218.237,240H251.8a2.237,2.237,0,0,1,2.237,2.237v24.611a2.237,2.237,0,0,1-2.237,2.237H240.611l-4.475,5.594-4.475-5.594H218.237A2.237,2.237,0,0,1,216,266.849V242.237A2.237,2.237,0,0,1,218.237,240Z" transform="translate(-172.033 -192.676)" fill="#57b584"/>
      <path id="Trazado_877390" data-name="Trazado 877390" d="M443.356,24A3.356,3.356,0,0,0,440,27.356v7.831h5.593a1.119,1.119,0,0,0,1.119-1.119V27.356A3.356,3.356,0,0,0,443.356,24Z" transform="translate(-364.709 -6.881)" fill="#afafaf"/>
      <circle id="Elipse_11639" data-name="Elipse 11639" cx="10.068" cy="10.068" r="10.068" transform="translate(50.68 22.712)" fill="#f29d35"/>
      <path id="Trazado_877391" data-name="Trazado 877391" d="M113.9,103.662V88h-2.237v15.662h-2.237V91.356h-2.237v12.306H104.95v-8.95h-2.237v8.95h-2.237V98.068H98.237v5.593H96V105.9h20.137v-2.237Z" transform="translate(-68.813 -61.932)" fill="#336baf"/>
      <path id="Trazado_877392" data-name="Trazado 877392" d="M96,64h13.424v2.237H96Z" transform="translate(-68.813 -41.288)" fill="#c1c1c1"/>
      <path id="Trazado_877393" data-name="Trazado 877393" d="M346.068,74.068A10.068,10.068,0,0,0,336,64V74.068l8.537,5.336a10.015,10.015,0,0,0,1.531-5.336Z" transform="translate(-275.252 -41.288)" fill="#e59135"/>
      <path id="Trazado_877394" data-name="Trazado 877394" d="M283.487,136l-8.537,5.336a10.066,10.066,0,0,0,17.074,0Z" transform="translate(-222.739 -103.22)" fill="#d88635"/>
      <path id="Trazado_877395" data-name="Trazado 877395" d="M248,287.158l1.119,1.01v5.594h4.475v-5.594l1.119-1.01v-5.306a2.237,2.237,0,0,0-1.406-2.077l-2.781-1.112a2.237,2.237,0,0,1-1.406-2.077v-.459a2.237,2.237,0,1,1,4.475,0v.459a2.237,2.237,0,0,1-1.406,2.077l-2.781,1.112A2.237,2.237,0,0,0,248,281.851Z" transform="translate(-199.558 -221.826)" fill="#1c3b54"/>
      <path id="Trazado_877396" data-name="Trazado 877396" d="M328,287.158l1.119,1.01v5.594h4.475v-5.594l1.119-1.01v-5.306a2.237,2.237,0,0,0-1.406-2.077l-2.781-1.112a2.237,2.237,0,0,1-1.406-2.077v-.459a2.237,2.237,0,1,1,4.475,0v.459a2.237,2.237,0,0,1-1.406,2.077l-2.781,1.112A2.237,2.237,0,0,0,328,281.851Z" transform="translate(-268.371 -221.826)" fill="#1c3b54"/>
      <path id="Trazado_877397" data-name="Trazado 877397" d="M408,287.158l1.119,1.01v5.594h4.475v-5.594l1.119-1.01v-5.306a2.237,2.237,0,0,0-1.406-2.077l-2.781-1.112a2.237,2.237,0,0,1-1.406-2.077v-.459a2.237,2.237,0,0,1,4.475,0v.459a2.237,2.237,0,0,1-1.406,2.077l-2.781,1.112A2.237,2.237,0,0,0,408,281.851Z" transform="translate(-337.184 -221.826)" fill="#1c3b54"/>
      <g id="Grupo_1106659" data-name="Grupo 1106659" transform="translate(27.187 47.324)">
        <path id="Trazado_877398" data-name="Trazado 877398" d="M96,240h2.237v2.237H96Z" transform="translate(-96 -240)" fill="#c1c1c1"/>
        <path id="Trazado_877399" data-name="Trazado 877399" d="M128,240h8.95v2.237H128Z" transform="translate(-123.525 -240)" fill="#c1c1c1"/>
        <path id="Trazado_877400" data-name="Trazado 877400" d="M96,288h2.237v2.237H96Z" transform="translate(-96 -281.288)" fill="#c1c1c1"/>
        <path id="Trazado_877401" data-name="Trazado 877401" d="M128,288h8.95v2.237H128Z" transform="translate(-123.525 -281.288)" fill="#c1c1c1"/>
        <path id="Trazado_877402" data-name="Trazado 877402" d="M96,336h2.237v2.237H96Z" transform="translate(-96 -322.576)" fill="#c1c1c1"/>
        <path id="Trazado_877403" data-name="Trazado 877403" d="M128,336h8.95v2.237H128Z" transform="translate(-123.525 -322.576)" fill="#c1c1c1"/>
        <path id="Trazado_877404" data-name="Trazado 877404" d="M96,384h2.237v2.237H96Z" transform="translate(-96 -363.863)" fill="#c1c1c1"/>
        <path id="Trazado_877405" data-name="Trazado 877405" d="M128,384h8.95v2.237H128Z" transform="translate(-123.525 -363.863)" fill="#c1c1c1"/>
      </g>
      <path id="Trazado_877406" data-name="Trazado 877406" d="M80.884,29.424a2.24,2.24,0,0,0,2.237-2.237V20.475A4.48,4.48,0,0,0,78.647,16H26.068a3.36,3.36,0,0,0-3.356,3.356V74.172H18.237A2.24,2.24,0,0,0,16,76.41v2.237a4.48,4.48,0,0,0,4.475,4.475H58.51V80.884H20.475a2.24,2.24,0,0,1-2.237-2.237V76.41H43.706a3.348,3.348,0,0,0,2.5,1.119H59.091L64.1,83.794l5.012-6.266H79.766a3.36,3.36,0,0,0,3.356-3.356V49.561A3.36,3.36,0,0,0,79.766,46.2H76.41V29.424Zm-4.475-8.95a2.237,2.237,0,1,1,4.475,0v6.712H76.41ZM42.849,49.561V74.172H24.95V19.356a1.12,1.12,0,0,1,1.119-1.119H74.774a4.446,4.446,0,0,0-.6,2.237V46.2H46.2A3.36,3.36,0,0,0,42.849,49.561Zm36.917-1.119a1.12,1.12,0,0,1,1.119,1.119V74.172a1.12,1.12,0,0,1-1.119,1.119H68.041L64.1,80.212l-3.937-4.921H46.2a1.12,1.12,0,0,1-1.119-1.119V49.561A1.12,1.12,0,0,1,46.2,48.442Z"/>
      <path id="Trazado_877407" data-name="Trazado 877407" d="M241.119,288.01h6.712V281.8l1.119-1.01v-5.8A3.339,3.339,0,0,0,247,271.933a3.344,3.344,0,0,0,.834-2.218v-.459a3.338,3.338,0,0,0-1.855-3,3.372,3.372,0,0,0-3,0,3.338,3.338,0,0,0-1.855,3v.459a3.344,3.344,0,0,0,.834,2.218A3.339,3.339,0,0,0,240,274.982v5.8l1.119,1.01Zm2.237-18.754a1.119,1.119,0,0,1,2.237,0v.459a1.113,1.113,0,0,1-.7,1.039l-.415.166-.415-.166a1.113,1.113,0,0,1-.7-1.039Zm-1.119,5.725a1.113,1.113,0,0,1,.7-1.039l1.534-.614,1.534.614a1.113,1.113,0,0,1,.7,1.039v4.809l-1.119,1.01v4.972h-2.237V280.8l-1.119-1.01Z" transform="translate(-192.676 -214.957)"/>
      <path id="Trazado_877408" data-name="Trazado 877408" d="M321.119,288.01h6.712V281.8l1.119-1.01v-5.8A3.339,3.339,0,0,0,327,271.933a3.344,3.344,0,0,0,.834-2.218v-.458a3.338,3.338,0,0,0-1.855-3,3.372,3.372,0,0,0-3,0,3.338,3.338,0,0,0-1.855,3v.458a3.344,3.344,0,0,0,.834,2.218A3.339,3.339,0,0,0,320,274.982v5.8l1.119,1.01Zm2.237-18.754a1.119,1.119,0,0,1,2.237,0v.458a1.113,1.113,0,0,1-.7,1.039l-.415.166-.415-.166a1.113,1.113,0,0,1-.7-1.039Zm-1.119,5.725a1.113,1.113,0,0,1,.7-1.039l1.534-.614,1.534.614a1.113,1.113,0,0,1,.7,1.039v4.809l-1.119,1.01v4.972h-2.237V280.8l-1.119-1.01Z" transform="translate(-261.489 -214.957)"/>
      <path id="Trazado_877409" data-name="Trazado 877409" d="M401.118,288.01h6.712V281.8l1.119-1.01v-5.8A3.339,3.339,0,0,0,407,271.933a3.344,3.344,0,0,0,.834-2.218v-.458a3.338,3.338,0,0,0-1.855-3,3.372,3.372,0,0,0-3,0,3.338,3.338,0,0,0-1.855,3v.459a3.344,3.344,0,0,0,.834,2.218A3.339,3.339,0,0,0,400,274.982v5.8l1.119,1.01Zm2.237-18.754a1.119,1.119,0,0,1,2.237,0v.459a1.113,1.113,0,0,1-.7,1.039l-.415.166-.415-.166a1.113,1.113,0,0,1-.7-1.039Zm-1.119,5.725a1.113,1.113,0,0,1,.7-1.039l1.534-.614,1.534.614a1.113,1.113,0,0,1,.7,1.039v4.809l-1.119,1.01v4.972h-2.237V280.8l-1.119-1.01Z" transform="translate(-330.302 -214.957)"/>
      <path id="Trazado_877410" data-name="Trazado 877410" d="M267.187,78.374A11.187,11.187,0,1,0,256,67.187,11.187,11.187,0,0,0,267.187,78.374Zm1.119-20.064a8.942,8.942,0,0,1,7,12.633l-7-4.376Zm5.814,14.529a8.937,8.937,0,0,1-13.865,0l6.933-4.333Zm-15.882-5.652a8.961,8.961,0,0,1,7.831-8.877v8.257l-7,4.376A8.894,8.894,0,0,1,258.237,67.187Z" transform="translate(-206.439 -34.407)"/>
      <path id="Trazado_877411" data-name="Trazado 877411" d="M116.137,103.662H113.9V88h-2.237v15.662h-2.237V91.356h-2.237v12.306H104.95v-8.95h-2.237v8.95h-2.237V98.068H98.237v5.593H96V105.9h20.137Z" transform="translate(-68.813 -61.932)"/>
      <path id="Trazado_877412" data-name="Trazado 877412" d="M96,64h13.424v2.237H96Z" transform="translate(-68.813 -41.288)"/>
      <path id="Trazado_877413" data-name="Trazado 877413" d="M96,240h2.237v2.237H96Z" transform="translate(-68.813 -192.676)"/>
      <path id="Trazado_877414" data-name="Trazado 877414" d="M128,240h8.95v2.237H128Z" transform="translate(-96.338 -192.676)"/>
      <path id="Trazado_877415" data-name="Trazado 877415" d="M96,288h2.237v2.237H96Z" transform="translate(-68.813 -233.964)"/>
      <path id="Trazado_877416" data-name="Trazado 877416" d="M128,288h8.95v2.237H128Z" transform="translate(-96.338 -233.964)"/>
      <path id="Trazado_877417" data-name="Trazado 877417" d="M96,336h2.237v2.237H96Z" transform="translate(-68.813 -275.252)"/>
      <path id="Trazado_877418" data-name="Trazado 877418" d="M128,336h8.95v2.237H128Z" transform="translate(-96.338 -275.252)"/>
      <path id="Trazado_877419" data-name="Trazado 877419" d="M96,384h2.237v2.237H96Z" transform="translate(-68.813 -316.54)"/>
      <path id="Trazado_877420" data-name="Trazado 877420" d="M128,384h8.95v2.237H128Z" transform="translate(-96.338 -316.54)"/>
    </g>
  </g>
</svg>
