<svg xmlns="http://www.w3.org/2000/svg" width="90.914" height="90.914" viewBox="0 0 90.914 90.914">
  <g id="Grupo_1106666" data-name="Grupo 1106666" transform="translate(4765 6408)">
    <g id="Grupo_1106122" data-name="Grupo 1106122" transform="translate(-4765 -6408)">
      <rect id="Rectángulo_400898" data-name="Rectángulo 400898" width="90.914" height="90.914" rx="45.457" transform="translate(0 0)" fill="#febdaf" opacity="0.859"/>
      <rect id="Rectángulo_400907" data-name="Rectángulo 400907" width="90.914" height="90.914" rx="45.457" transform="translate(0 0)" fill="none"/>
    </g>
    <g id="etapas" transform="translate(-4821 -6399)">
      <path id="Trazado_877444" data-name="Trazado 877444" d="M211.3,207.2H176V188h35.3Z" transform="translate(-85.881 -161.456)" fill="#dfedff"/>
      <path id="Trazado_877445" data-name="Trazado 877445" d="M202.71,200.026h-11.3a1.412,1.412,0,1,1,0-2.824H201.3V180.824H168.824V197.2H178.7a1.412,1.412,0,1,1,0,2.824H167.412A1.412,1.412,0,0,1,166,198.614v-19.2A1.412,1.412,0,0,1,167.412,178h35.3a1.412,1.412,0,0,1,1.412,1.412v19.2A1.412,1.412,0,0,1,202.71,200.026Z" transform="translate(-77.293 -152.868)"/>
      <path id="Línea_688" data-name="Línea 688" transform="translate(107.798 45.746)"/>
      <rect id="Rectángulo_403492" data-name="Rectángulo 403492" width="35.818" height="19.737" transform="translate(89.889 1.385)" fill="#faf7f5"/>
      <path id="Rectángulo_403492_-_Contorno" data-name="Rectángulo 403492 - Contorno" d="M-8.588-10h35.3a1.412,1.412,0,0,1,1.412,1.412V10.9a1.412,1.412,0,0,1-1.412,1.412h-35.3A1.412,1.412,0,0,1-10,10.9V-8.588A1.412,1.412,0,0,1-8.588-10ZM25.3-7.176H-7.176V9.484H25.3Z" transform="translate(98.707 10)"/>
      <rect id="Rectángulo_403493" data-name="Rectángulo 403493" width="35.818" height="19.737" transform="translate(89.889 51.092)" fill="#a0c8ff"/>
      <path id="Rectángulo_403493_-_Contorno" data-name="Rectángulo 403493 - Contorno" d="M-8.588-10h35.3a1.412,1.412,0,0,1,1.412,1.412V10.9a1.412,1.412,0,0,1-1.412,1.412h-35.3A1.412,1.412,0,0,1-10,10.9V-8.588A1.412,1.412,0,0,1-8.588-10ZM25.3-7.176H-7.176V9.484H25.3Z" transform="translate(98.707 59.982)"/>
      <ellipse id="Elipse_11644" data-name="Elipse 11644" cx="3.655" cy="3.289" rx="3.655" ry="3.289" transform="translate(77.462 32.817)" fill="#ffe6b4"/>
      <path id="Elipse_11644_-_Contorno" data-name="Elipse 11644 - Contorno" d="M-5.058-10A4.947,4.947,0,0,1-.117-5.058,4.947,4.947,0,0,1-5.058-.117,4.947,4.947,0,0,1-10-5.058,4.947,4.947,0,0,1-5.058-10Zm0,7.06A2.12,2.12,0,0,0-2.94-5.058,2.12,2.12,0,0,0-5.058-7.176,2.12,2.12,0,0,0-7.176-5.058,2.12,2.12,0,0,0-5.058-2.94Z" transform="translate(86 41.203)"/>
      <ellipse id="Elipse_11645" data-name="Elipse 11645" cx="3.655" cy="3.289" rx="3.655" ry="3.289" transform="translate(77.462 7.964)" fill="#ff9c9b"/>
      <path id="Elipse_11645_-_Contorno" data-name="Elipse 11645 - Contorno" d="M-5.058-10A4.947,4.947,0,0,1-.117-5.058,4.947,4.947,0,0,1-5.058-.117,4.947,4.947,0,0,1-10-5.058,4.947,4.947,0,0,1-5.058-10Zm0,7.06A2.12,2.12,0,0,0-2.94-5.058,2.12,2.12,0,0,0-5.058-7.176,2.12,2.12,0,0,0-7.176-5.058,2.12,2.12,0,0,0-5.058-2.94Z" transform="translate(86 16.212)"/>
      <circle id="Elipse_11646" data-name="Elipse 11646" cx="3.655" cy="3.655" r="3.655" transform="translate(77.462 57.671)" fill="#9de3d1"/>
      <path id="Elipse_11646_-_Contorno" data-name="Elipse 11646 - Contorno" d="M-5.058-10A4.947,4.947,0,0,1-.117-5.058,4.947,4.947,0,0,1-5.058-.117,4.947,4.947,0,0,1-10-5.058,4.947,4.947,0,0,1-5.058-10Zm0,7.06A2.12,2.12,0,0,0-2.94-5.058,2.12,2.12,0,0,0-5.058-7.176,2.12,2.12,0,0,0-7.176-5.058,2.12,2.12,0,0,0-5.058-2.94Z" transform="translate(86 66.194)"/>
      <path id="Línea_689" data-name="Línea 689" d="M9.061-7.176H8.906A1.412,1.412,0,0,1,7.494-8.588,1.412,1.412,0,0,1,8.906-10h.155a1.412,1.412,0,0,1,1.412,1.412A1.412,1.412,0,0,1,9.061-7.176Zm-6.509,0H-8.588A1.412,1.412,0,0,1-10-8.588,1.412,1.412,0,0,1-8.588-10H2.552A1.412,1.412,0,0,1,3.964-8.588,1.412,1.412,0,0,1,2.552-7.176Z" transform="translate(104.355 22.566)"/>
      <path id="Línea_690" data-name="Línea 690" d="M15.415-7.176H6.661A1.412,1.412,0,0,1,5.249-8.588,1.412,1.412,0,0,1,6.661-10h8.754a1.412,1.412,0,0,1,1.412,1.412A1.412,1.412,0,0,1,15.415-7.176Zm-15.108,0h-8.9A1.412,1.412,0,0,1-10-8.588,1.412,1.412,0,0,1-8.588-10h8.9A1.412,1.412,0,0,1,1.719-8.588,1.412,1.412,0,0,1,.307-7.176Z" transform="translate(104.355 16.918)"/>
      <path id="Línea_691" data-name="Línea 691" d="M9.061-7.176H8.906A1.412,1.412,0,0,1,7.494-8.588,1.412,1.412,0,0,1,8.906-10h.155a1.412,1.412,0,0,1,1.412,1.412A1.412,1.412,0,0,1,9.061-7.176Zm-6.509,0H-8.588A1.412,1.412,0,0,1-10-8.588,1.412,1.412,0,0,1-8.588-10H2.552A1.412,1.412,0,0,1,3.964-8.588,1.412,1.412,0,0,1,2.552-7.176Z" transform="translate(104.355 47.557)"/>
      <path id="Línea_692" data-name="Línea 692" d="M15.415-7.176H6.661A1.412,1.412,0,0,1,5.249-8.588,1.412,1.412,0,0,1,6.661-10h8.754a1.412,1.412,0,0,1,1.412,1.412A1.412,1.412,0,0,1,15.415-7.176Zm-15.108,0h-8.9A1.412,1.412,0,0,1-10-8.588,1.412,1.412,0,0,1-8.588-10h8.9A1.412,1.412,0,0,1,1.719-8.588,1.412,1.412,0,0,1,.307-7.176Z" transform="translate(104.355 41.909)"/>
      <path id="Línea_693" data-name="Línea 693" d="M9.061-7.176H8.906A1.412,1.412,0,0,1,7.494-8.588,1.412,1.412,0,0,1,8.906-10h.155a1.412,1.412,0,0,1,1.412,1.412A1.412,1.412,0,0,1,9.061-7.176Zm-6.509,0H-8.588A1.412,1.412,0,0,1-10-8.588,1.412,1.412,0,0,1-8.588-10H2.552A1.412,1.412,0,0,1,3.964-8.588,1.412,1.412,0,0,1,2.552-7.176Z" transform="translate(104.355 72.548)"/>
      <path id="Línea_694" data-name="Línea 694" d="M15.415-7.176H6.661A1.412,1.412,0,0,1,5.249-8.588,1.412,1.412,0,0,1,6.661-10h8.754a1.412,1.412,0,0,1,1.412,1.412A1.412,1.412,0,0,1,15.415-7.176Zm-15.108,0h-8.9A1.412,1.412,0,0,1-10-8.588,1.412,1.412,0,0,1-8.588-10h8.9A1.412,1.412,0,0,1,1.719-8.588,1.412,1.412,0,0,1,.307-7.176Z" transform="translate(104.355 66.9)"/>
      <path id="Línea_695" data-name="Línea 695" d="M-2.94-7.176H-8.588A1.412,1.412,0,0,1-10-8.588,1.412,1.412,0,0,1-8.588-10H-2.94A1.412,1.412,0,0,1-1.528-8.588,1.412,1.412,0,0,1-2.94-7.176Z" transform="translate(93.06 19.742)"/>
      <path id="Línea_696" data-name="Línea 696" d="M-2.94-7.176H-8.588A1.412,1.412,0,0,1-10-8.588,1.412,1.412,0,0,1-8.588-10H-2.94A1.412,1.412,0,0,1-1.528-8.588,1.412,1.412,0,0,1-2.94-7.176Z" transform="translate(93.06 44.733)"/>
      <path id="Línea_697" data-name="Línea 697" d="M-2.94-7.176H-8.588A1.412,1.412,0,0,1-10-8.588,1.412,1.412,0,0,1-8.588-10H-2.94A1.412,1.412,0,0,1-1.528-8.588,1.412,1.412,0,0,1-2.94-7.176Z" transform="translate(93.06 69.724)"/>
      <path id="Línea_698" data-name="Línea 698" d="M-8.588-.964A1.412,1.412,0,0,1-10-2.376V-8.588A1.412,1.412,0,0,1-8.588-10,1.412,1.412,0,0,1-7.176-8.588v6.212A1.412,1.412,0,0,1-8.588-.964Z" transform="translate(89.53 73.254)"/>
      <path id="Línea_699" data-name="Línea 699" d="M-8.588-.964A1.412,1.412,0,0,1-10-2.376V-8.588A1.412,1.412,0,0,1-8.588-10,1.412,1.412,0,0,1-7.176-8.588v6.212A1.412,1.412,0,0,1-8.588-.964Z" transform="translate(89.53 10)"/>
      <path id="Línea_700" data-name="Línea 700" d="M-8.588,10.755A1.412,1.412,0,0,1-10,9.343V-8.588A1.412,1.412,0,0,1-8.588-10,1.412,1.412,0,0,1-7.176-8.588V9.343A1.412,1.412,0,0,1-8.588,10.755Z" transform="translate(89.53 23.272)"/>
      <path id="Línea_701" data-name="Línea 701" d="M-8.588,10.755A1.412,1.412,0,0,1-10,9.343V-8.588A1.412,1.412,0,0,1-8.588-10,1.412,1.412,0,0,1-7.176-8.588V9.343A1.412,1.412,0,0,1-8.588,10.755Z" transform="translate(89.53 48.263)"/>
    </g>
  </g>
</svg>
