<svg xmlns="http://www.w3.org/2000/svg" width="90.914" height="90.914" viewBox="0 0 90.914 90.914">
  <g id="Grupo_1106672" data-name="Grupo 1106672" transform="translate(4127 6408)">
    <g id="Grupo_1106122" data-name="Grupo 1106122" transform="translate(-4127 -6408)">
      <rect id="Rect치ngulo_400898" data-name="Rect치ngulo 400898" width="90.914" height="90.914" rx="45.457" transform="translate(0 0)" fill="#febdaf" opacity="0.859"/>
      <rect id="Rect치ngulo_400907" data-name="Rect치ngulo 400907" width="90.914" height="90.914" rx="45.457" transform="translate(0 0)" fill="none"/>
    </g>
    <g id="grupo-de-edad" transform="translate(-4119 -6420.172)">
      <g id="Grupo_1106670" data-name="Grupo 1106670" transform="translate(1.082 25.254)">
        <path id="Trazado_877454" data-name="Trazado 877454" d="M28.021,253.295a8.657,8.657,0,0,0-8.657-8.657H16.157A8.657,8.657,0,0,0,7.5,253.295v6.919a2.885,2.885,0,0,0,2.886,2.886h.37v15.723H23.74V263.1h1.4a2.885,2.885,0,0,0,2.886-2.886Z" transform="translate(-7.5 -213.912)" fill="#f96491"/>
        <path id="Trazado_877455" data-name="Trazado 877455" d="M72.622,244.637H69.736a8.657,8.657,0,0,1,8.657,8.657v6.919H74.111v18.609H77V263.1h1.4a2.885,2.885,0,0,0,2.886-2.886v-6.919A8.657,8.657,0,0,0,72.622,244.637Z" transform="translate(-60.757 -213.911)" fill="#f93a79"/>
        <circle id="Elipse_11648" data-name="Elipse 11648" cx="7.359" cy="7.359" r="7.359" transform="translate(2.884 15.871)" fill="#f96491"/>
        <path id="Trazado_877456" data-name="Trazado 877456" d="M69.943,141.673a7.392,7.392,0,0,0-1.443.142,7.36,7.36,0,0,1,0,14.434,7.36,7.36,0,1,0,1.443-14.576Z" transform="translate(-59.699 -125.803)" fill="#f93a79"/>
        <path id="Trazado_877457" data-name="Trazado 877457" d="M205.758,203.295a8.657,8.657,0,0,0-8.657-8.657h-3.208a8.657,8.657,0,0,0-8.657,8.657v10.814a2.885,2.885,0,0,0,2.886,2.886h.687v19.041h12.985V216.994h1.078a2.885,2.885,0,0,0,2.886-2.886Z" transform="translate(-159.594 -171.126)" fill="#fff08a"/>
        <path id="Trazado_877458" data-name="Trazado 877458" d="M250.359,194.637h-2.886a8.657,8.657,0,0,1,8.657,8.657v10.814h-3.964v21.927h2.886V216.993h1.078a2.885,2.885,0,0,0,2.886-2.886V203.294A8.657,8.657,0,0,0,250.359,194.637Z" transform="translate(-212.85 -171.125)" fill="#ffc472"/>
        <circle id="Elipse_11649" data-name="Elipse 11649" cx="7.359" cy="7.359" r="7.359" transform="translate(28.528 8.657)" fill="#fff08a"/>
        <path id="Trazado_877459" data-name="Trazado 877459" d="M247.679,91.673a7.392,7.392,0,0,0-1.443.142,7.36,7.36,0,0,1,0,14.434,7.36,7.36,0,1,0,1.443-14.576Z" transform="translate(-211.792 -83.016)" fill="#ffc472"/>
        <path id="Trazado_877460" data-name="Trazado 877460" d="M384.027,143.295a8.657,8.657,0,0,0-8.657-8.657h-3.208a8.657,8.657,0,0,0-8.657,8.657v15.431a2.885,2.885,0,0,0,2.886,2.886h.928v23.081H380.3V161.611h.838a2.885,2.885,0,0,0,2.886-2.886V143.295Z" transform="translate(-312.142 -119.782)" fill="#8ae897"/>
        <path id="Trazado_877461" data-name="Trazado 877461" d="M428.628,134.637h-2.886a8.657,8.657,0,0,1,8.657,8.657v15.431h-3.723v25.967h2.886V161.61h.838a2.885,2.885,0,0,0,2.886-2.886V143.294A8.657,8.657,0,0,0,428.628,134.637Z" transform="translate(-365.399 -119.782)" fill="#69bdc6"/>
        <circle id="Elipse_11650" data-name="Elipse 11650" cx="7.359" cy="7.359" r="7.359" transform="translate(54.248)" fill="#8ae897"/>
        <path id="Trazado_877462" data-name="Trazado 877462" d="M425.948,31.673a7.392,7.392,0,0,0-1.443.142,7.36,7.36,0,0,1,0,14.434,7.36,7.36,0,1,0,1.443-14.576Z" transform="translate(-364.341 -31.673)" fill="#69bdc6"/>
      </g>
      <g id="Grupo_1106671" data-name="Grupo 1106671" transform="translate(0 24.172)">
        <path id="Trazado_877463" data-name="Trazado 877463" d="M372.121,39.559a8.439,8.439,0,0,0,2.743-10.76l-1.93.979a6.208,6.208,0,0,1,.675,2.835,6.277,6.277,0,1,1-1.793-4.392l1.546-1.514a8.44,8.44,0,1,0-10.809,12.861,9.754,9.754,0,0,0-6.547,9.2V64.2a3.973,3.973,0,0,0,3.814,3.965V91.246h15.149V68.158a3.973,3.973,0,0,0,3.723-3.96V48.766a9.754,9.754,0,0,0-6.571-9.207ZM376.527,64.2a1.805,1.805,0,0,1-1.8,1.8H372.8V89.082h-4.373v-19.2h-2.164v19.2h-4.283V66h-2.01a1.805,1.805,0,0,1-1.8-1.8V48.766a7.583,7.583,0,0,1,7.575-7.575h3.208a7.583,7.583,0,0,1,7.575,7.575V64.2Z" transform="translate(-304.642 -24.172)"/>
        <path id="Trazado_877464" data-name="Trazado 877464" d="M193.852,99.56a8.441,8.441,0,1,0-9.567.008,9.754,9.754,0,0,0-6.547,9.2v10.814a3.973,3.973,0,0,0,3.573,3.948V142.59h15.149V123.549a3.972,3.972,0,0,0,3.964-3.968v-6.209h-2.164v6.209a1.805,1.805,0,0,1-1.8,1.8h-2.16v19.041h-4.337v-14.87h-2.164v14.87h-4.319V121.385H181.7a1.805,1.805,0,0,1-1.8-1.8V108.767a7.583,7.583,0,0,1,7.575-7.575h3.208a7.583,7.583,0,0,1,7.575,7.575v2.45h2.164v-2.45a9.753,9.753,0,0,0-6.571-9.207Zm-11.066-6.946a6.277,6.277,0,1,1,6.277,6.277A6.284,6.284,0,0,1,182.785,92.614Z" transform="translate(-152.094 -75.516)"/>
        <path id="Trazado_877465" data-name="Trazado 877465" d="M16.115,149.56a8.441,8.441,0,1,0-9.568.008,9.761,9.761,0,0,0-5.306,4.439l1.887,1.059a7.59,7.59,0,0,1,6.611-3.874h3.208a7.583,7.583,0,0,1,7.575,7.575v6.919a1.805,1.805,0,0,1-1.8,1.8H16.24v15.723H11.912v-11.9H9.748v11.9H5.419V167.489H3.968a1.805,1.805,0,0,1-1.8-1.8v-6.919a7.6,7.6,0,0,1,.254-1.954l-2.091-.557A9.764,9.764,0,0,0,0,158.767v6.919a3.974,3.974,0,0,0,3.255,3.9v15.787H18.4V169.653h.314a3.972,3.972,0,0,0,3.968-3.968v-6.919A9.754,9.754,0,0,0,16.115,149.56ZM5.048,142.614a6.277,6.277,0,1,1,6.277,6.277,6.284,6.284,0,0,1-6.277-6.277Z" transform="translate(0 -118.302)"/>
        <path id="Trazado_877466" data-name="Trazado 877466" d="M67.562,316.559h2.164v2.173H67.562Z" transform="translate(-57.814 -274.374)"/>
        <path id="Trazado_877467" data-name="Trazado 877467" d="M67.562,286.621h2.164v2.164H67.562Z" transform="translate(-57.814 -248.756)"/>
        <path id="Trazado_877468" data-name="Trazado 877468" d="M247.5,241.621h2.164v2.164H247.5Z" transform="translate(-211.791 -210.248)"/>
        <path id="Trazado_877469" data-name="Trazado 877469" d="M247.5,271.621h2.164v2.164H247.5Z" transform="translate(-211.791 -235.92)"/>
        <path id="Trazado_877470" data-name="Trazado 877470" d="M429.169,192.5h-2.164V190.34h2.164Zm0-4.319h-2.164v-2.164h2.164Zm0-4.328h-2.164v-2.164h2.164Z" transform="translate(-365.398 -158.959)" fill="#fff"/>
      </g>
    </g>
  </g>
</svg>
