<svg xmlns="http://www.w3.org/2000/svg" width="90" height="90" viewBox="0 0 90 90">
  <g id="Grupo_1106676" data-name="Grupo 1106676" transform="translate(-597.051 -5735)">
    <g id="Grupo_1106132" data-name="Grupo 1106132" transform="translate(597.051 5735)">
      <g id="Rect치ngulo_400898" data-name="Rect치ngulo 400898" transform="translate(0)" fill="#fff" stroke="#fff" stroke-width="3" opacity="0.859">
        <rect width="90" height="90" rx="45" stroke="none"/>
        <rect x="1.5" y="1.5" width="87" height="87" rx="43.5" fill="none"/>
      </g>
      <g id="Rect치ngulo_400907" data-name="Rect치ngulo 400907" transform="translate(0)" fill="none" stroke="#fff" stroke-width="3">
        <rect width="90" height="90" rx="45" stroke="none"/>
        <rect x="1.5" y="1.5" width="87" height="87" rx="43.5" fill="none"/>
      </g>
    </g>
    <g id="ideaa" transform="translate(547.671 5746)">
      <g id="Grupo_1106674" data-name="Grupo 1106674" transform="translate(72.469 0.989)">
        <path id="Trazado_877471" data-name="Trazado 877471" d="M168.231,19.514a12.013,12.013,0,1,0-19.2,9.626,4.34,4.34,0,0,1,1.728,3.479v4.349h10.921V32.619a4.342,4.342,0,0,1,1.729-3.48,12,12,0,0,0,4.824-9.625Z" transform="translate(-136.559 -7.501)" fill="#ffdd40"/>
        <path id="Trazado_877472" data-name="Trazado 877472" d="M225.186,7.5a11.981,11.981,0,0,0-1.342.095,12.014,12.014,0,0,1,5.67,21.542,4.342,4.342,0,0,0-1.729,3.48v4.349h3.032V32.619a4.341,4.341,0,0,1,1.729-3.48A12.014,12.014,0,0,0,225.186,7.5Z" transform="translate(-205.699 -7.501)" fill="#ffb332"/>
        <path id="Trazado_877473" data-name="Trazado 877473" d="M86.221,225.051a2.184,2.184,0,0,1,2.184-2.184h34.947a2.184,2.184,0,0,1,2.184,2.184v2.728a2.183,2.183,0,0,0,.259,1.032l5.775,10.767a4.368,4.368,0,0,1,.519,2.065v.882a2.184,2.184,0,0,1-2.184,2.184h-3.314a1.055,1.055,0,0,0-1.055,1.055v5.5a4.368,4.368,0,0,1-4.368,4.368h-3.313a1.055,1.055,0,0,0-1.055,1.055v2.222A1.092,1.092,0,0,1,115.708,260H97.142a1.092,1.092,0,0,1-1.092-1.092v-3.273a4.4,4.4,0,0,0-2.338-3.867,14.2,14.2,0,0,1-7.492-12.517v-14.2Z" transform="translate(-86.221 -194.472)" fill="#fab991"/>
        <g id="Grupo_1106673" data-name="Grupo 1106673" transform="translate(26.455 28.395)">
          <path id="Trazado_877474" data-name="Trazado 877474" d="M332.679,389.591v5.5a4.368,4.368,0,0,1-4.364,4.368h3.028a4.368,4.368,0,0,0,4.368-4.368v-5.5a1.055,1.055,0,0,1,1.055-1.055h-3.032A1.055,1.055,0,0,0,332.679,389.591Z" transform="translate(-322.851 -366.694)" fill="#fd995b"/>
          <path id="Trazado_877475" data-name="Trazado 877475" d="M289.018,471.365a1.055,1.055,0,0,0-1.055,1.055v2.222a1.092,1.092,0,0,1-1.092,1.092H289.9A1.092,1.092,0,0,0,291,474.642V472.42a1.055,1.055,0,0,1,1.053-1.055Z" transform="translate(-286.871 -438.602)" fill="#fd995b"/>
          <path id="Trazado_877476" data-name="Trazado 877476" d="M356.1,239.58l-5.775-10.767a2.184,2.184,0,0,1-.259-1.032v-2.728a2.184,2.184,0,0,0-2.184-2.184h-3.032a2.184,2.184,0,0,1,2.184,2.184v2.728a2.183,2.183,0,0,0,.259,1.032l5.775,10.767a4.368,4.368,0,0,1,.519,2.065v.882a2.184,2.184,0,0,1-2.184,2.184h3.032a2.184,2.184,0,0,0,2.184-2.184v-.882A4.368,4.368,0,0,0,356.1,239.58Z" transform="translate(-337.207 -222.868)" fill="#fd995b"/>
        </g>
      </g>
      <g id="Grupo_1106675" data-name="Grupo 1106675" transform="translate(70.38 0)">
        <path id="Trazado_877477" data-name="Trazado 877477" d="M125.931,45.628l-5.775-10.767a1.2,1.2,0,0,1-.142-.565V31.569a3.176,3.176,0,0,0-3.173-3.173H105.817V26.108a3.366,3.366,0,0,1,1.332-2.688A13,13,0,0,0,108.5,3.745,12.974,12.974,0,0,0,93.35,1.486a.989.989,0,1,0,.922,1.75A10.824,10.824,0,0,1,99.21,1.979h.158a11.025,11.025,0,0,1,6.6,19.858,5.352,5.352,0,0,0-2.125,4.272V28.4h-3.483V18.463a.989.989,0,1,0-1.978,0V28.4H94.9V26.108a5.352,5.352,0,0,0-2.125-4.271,11,11,0,0,1-1.417-16.38A.989.989,0,1,0,89.914,4.1,12.975,12.975,0,0,0,91.587,23.42a3.364,3.364,0,0,1,1.331,2.687V28.4H81.894a3.177,3.177,0,0,0-3.173,3.173v14.2a15.177,15.177,0,0,0,8.013,13.388,3.408,3.408,0,0,1,1.816,3v3.274A2.083,2.083,0,0,0,90.631,67.5H93.7a.989.989,0,1,0,0-1.978h-3.07a.1.1,0,0,1-.1-.1V62.151a5.383,5.383,0,0,0-2.859-4.739A13.2,13.2,0,0,1,80.7,45.766v-14.2a1.2,1.2,0,0,1,1.2-1.2h34.947a1.2,1.2,0,0,1,1.2,1.2V34.3a3.185,3.185,0,0,0,.377,1.5l5.775,10.767a3.391,3.391,0,0,1,.4,1.6v.882a1.2,1.2,0,0,1-1.2,1.2h-6.553a1.2,1.2,0,0,1-1.2-1.2V47.95a.1.1,0,0,1,.1-.1h2.457a.989.989,0,0,0,0-1.978h-2.457a2.083,2.083,0,0,0-2.081,2.081v1.092a3.176,3.176,0,0,0,3.173,3.173h1.2v5.564a3.383,3.383,0,0,1-3.379,3.38h-4.372a6,6,0,0,1-5.822-4.549l-.86-3.439a.989.989,0,1,0-1.919.48l.86,3.439a7.97,7.97,0,0,0,6.755,5.985v2.349a.1.1,0,0,1-.1.1H97.656a.989.989,0,0,0,0,1.978H109.2a2.083,2.083,0,0,0,2.081-2.081V63.136h3.379a5.363,5.363,0,0,0,5.357-5.357V52.215h3.38a3.177,3.177,0,0,0,3.173-3.173V48.16a5.371,5.371,0,0,0-.636-2.532Z" transform="translate(-77.621 0)"/>
        <path id="Trazado_877478" data-name="Trazado 877478" d="M179.564,248.5H175.2a5.363,5.363,0,0,0-5.357,5.357v6.553a7.55,7.55,0,0,0,7.542,7.541h2.184a.989.989,0,0,0,0-1.978H177.38a5.57,5.57,0,0,1-5.564-5.564v-6.553a3.383,3.383,0,0,1,3.38-3.38h4.368a.989.989,0,0,0,0-1.978Z" transform="translate(-156.725 -215.737)"/>
        <path id="Trazado_877479" data-name="Trazado 877479" d="M206.144,283.612h2.184a.989.989,0,1,0,0-1.978h-2.184a3.177,3.177,0,0,0-3.173,3.173v4.369a3.176,3.176,0,0,0,3.173,3.173h2.184a.989.989,0,1,0,0-1.978h-2.184a1.2,1.2,0,0,1-1.2-1.2v-4.369A1.2,1.2,0,0,1,206.144,283.612Z" transform="translate(-185.49 -244.502)"/>
        <path id="Trazado_877480" data-name="Trazado 877480" d="M170.082,84.473l3,3.429a2.081,2.081,0,0,0,3.132,0l2.178-2.49a.1.1,0,0,1,.155,0l2.179,2.49a2.081,2.081,0,0,0,1.566.711h0a2.081,2.081,0,0,0,1.566-.711l3-3.429a.989.989,0,0,0-1.488-1.3l-3,3.429a.1.1,0,0,1-.156,0l-2.179-2.49a2.081,2.081,0,0,0-3.132,0l-2.179,2.49a.1.1,0,0,1-.155,0l-3-3.429a.989.989,0,1,0-1.488,1.3Z" transform="translate(-156.724 -71.912)"/>
        <path id="Trazado_877481" data-name="Trazado 877481" d="M352.071,92.107a.989.989,0,0,0,.989.989h4.368a.989.989,0,0,0,0-1.978H353.06A.989.989,0,0,0,352.071,92.107Z" transform="translate(-314.931 -79.105)"/>
        <path id="Trazado_877482" data-name="Trazado 877482" d="M336.378,16.459a.984.984,0,0,0,.493-.133l3.783-2.184a.989.989,0,1,0-.989-1.713l-3.783,2.184a.989.989,0,0,0,.5,1.845Z" transform="translate(-300.448 -10.675)"/>
        <path id="Trazado_877483" data-name="Trazado 877483" d="M91.994,14.141l3.783,2.184a.989.989,0,0,0,.989-1.713l-3.783-2.184a.989.989,0,0,0-.989,1.713Z" transform="translate(-88.715 -10.675)"/>
        <path id="Trazado_877484" data-name="Trazado 877484" d="M76.726,92.107a.989.989,0,0,0-.989-.989H71.369a.989.989,0,0,0,0,1.978h4.368A.989.989,0,0,0,76.726,92.107Z" transform="translate(-70.38 -79.105)"/>
        <path id="Trazado_877485" data-name="Trazado 877485" d="M95.777,153.5l-3.783,2.184a.989.989,0,1,0,.989,1.713l3.783-2.184a.989.989,0,0,0-.989-1.713Z" transform="translate(-88.715 -133.15)"/>
        <path id="Trazado_877486" data-name="Trazado 877486" d="M335.883,155.216l3.783,2.184a.989.989,0,0,0,.989-1.713l-3.783-2.184a.989.989,0,0,0-.989,1.713Z" transform="translate(-300.448 -133.15)"/>
      </g>
    </g>
  </g>
</svg>
