<svg xmlns="http://www.w3.org/2000/svg" width="90" height="90" viewBox="0 0 90 90">
  <g id="Grupo_1106682" data-name="Grupo 1106682" transform="translate(-912.051 -5735)">
    <g id="Grupo_1106133" data-name="Grupo 1106133" transform="translate(912.051 5735)">
      <g id="Rect치ngulo_400898" data-name="Rect치ngulo 400898" transform="translate(0)" fill="#fff" stroke="#fff" stroke-width="3" opacity="0.859">
        <rect width="90" height="90" rx="45" stroke="none"/>
        <rect x="1.5" y="1.5" width="87" height="87" rx="43.5" fill="none"/>
      </g>
      <g id="Rect치ngulo_400907" data-name="Rect치ngulo 400907" transform="translate(0)" fill="none" stroke="#fff" stroke-width="3">
        <rect width="90" height="90" rx="45" stroke="none"/>
        <rect x="1.5" y="1.5" width="87" height="87" rx="43.5" fill="none"/>
      </g>
    </g>
    <g id="idioma" transform="translate(921.051 5745)">
      <g id="Grupo_1106678" data-name="Grupo 1106678" transform="translate(19.749 7.123)">
        <path id="Trazado_877487" data-name="Trazado 877487" d="M58.217,37.679l2.436,9.732-7-3.772-3.166-1.706a11.638,11.638,0,0,0,.067-1.257c0-9.923-10.552-17.961-23.573-17.961a29.625,29.625,0,0,0-8.947,1.347,13.755,13.755,0,0,1,.752-3.7C21.443,12.669,30.636,7,41.57,7c13.021,0,23.573,8.037,23.573,17.961C65.143,29.922,62.494,34.423,58.217,37.679Z" transform="translate(-18.03 -7)" fill="#c9a4ff"/>
        <path id="Trazado_877488" data-name="Trazado 877488" d="M53.917,39.328a15.428,15.428,0,0,1-.09,1.616c-.045.449-.1.909-.18,1.347l-3.166-1.706a11.637,11.637,0,0,0,.067-1.257C50.55,29.4,40,21.368,26.977,21.368a29.625,29.625,0,0,0-8.947,1.347,13.755,13.755,0,0,1,.752-3.7A32.842,32.842,0,0,1,26.977,18C41.828,18,53.917,27.564,53.917,39.328Z" transform="translate(-18.03 -5.652)" opacity="0.1"/>
        <g id="Grupo_1106677" data-name="Grupo 1106677" transform="translate(5.987 3.368)" opacity="0.2">
          <path id="Trazado_877489" data-name="Trazado 877489" d="M24.482,18.98a1.116,1.116,0,0,1-.853-1.841C27.322,12.739,33.945,10,40.916,10a1.123,1.123,0,0,1,0,2.245c-6.32,0-12.292,2.425-15.581,6.331a1.089,1.089,0,0,1-.853.4Z" transform="translate(-23.364 -10)" fill="#fff"/>
        </g>
      </g>
      <g id="Grupo_1106681" data-name="Grupo 1106681" transform="translate(5.123 22.838)">
        <path id="Trazado_877490" data-name="Trazado 877490" d="M52.146,38.961a11.637,11.637,0,0,1-.067,1.257c-.842,9.339-11.046,16.7-23.506,16.7A29.7,29.7,0,0,1,20.087,55.7L9.49,61.411l2.436-9.732C7.649,48.423,5,43.922,5,38.961c0-7.51,6.039-13.942,14.627-16.613A29.625,29.625,0,0,1,28.573,21C41.595,21,52.146,29.037,52.146,38.961Z" transform="translate(-5 -21)" fill="#99e2ff"/>
        <g id="Grupo_1106679" data-name="Grupo 1106679" transform="translate(6.021 3.368)" opacity="0.2">
          <path id="Trazado_877491" data-name="Trazado 877491" d="M11.482,32.98a1.116,1.116,0,0,1-.853-1.841C14.322,26.739,20.945,24,27.916,24a1.123,1.123,0,1,1,0,2.245c-6.32,0-12.292,2.425-15.581,6.331A1.089,1.089,0,0,1,11.482,32.98Z" transform="translate(-10.364 -24)" fill="#fff"/>
        </g>
        <g id="Grupo_1106680" data-name="Grupo 1106680" transform="translate(3.368 16.838)" opacity="0.2">
          <path id="Trazado_877492" data-name="Trazado 877492" d="M14.275,47.382a1.155,1.155,0,0,1-.674-.225C9.987,44.408,8,40.849,8,37.123a1.123,1.123,0,0,1,2.245,0c0,3.008,1.673,5.938,4.7,8.251a1.114,1.114,0,0,1,.213,1.572A1.09,1.09,0,0,1,14.275,47.382Z" transform="translate(-8 -36)" fill="#fff"/>
        </g>
      </g>
      <path id="Trazado_877493" data-name="Trazado 877493" d="M11.543,34.916a1.122,1.122,0,0,1-.135-1.583C15.1,28.945,21.725,26.206,28.7,26.206a1.123,1.123,0,1,1,0,2.245c-6.32,0-12.292,2.425-15.581,6.331a1.111,1.111,0,0,1-.864.4A1.073,1.073,0,0,1,11.543,34.916ZM43.289,10.49c-6.971,0-13.594,2.739-17.3,7.128a1.129,1.129,0,0,0,.864,1.852,1.111,1.111,0,0,0,.864-.4c3.278-3.906,9.25-6.331,15.57-6.331a1.123,1.123,0,0,0,0-2.245ZM10.735,40.8a1.123,1.123,0,0,0-2.245,0c0,3.727,1.987,7.285,5.59,10.035a1.081,1.081,0,0,0,.674.225,1.16,1.16,0,0,0,.9-.438,1.124,1.124,0,0,0-.213-1.572C12.408,46.737,10.735,43.807,10.735,40.8Zm52.725,6.466a1.125,1.125,0,0,1-1.089,1.392,1.085,1.085,0,0,1-.528-.135l-8.756-4.715C51.214,52.9,40.987,59.882,28.7,59.882a31.284,31.284,0,0,1-8.352-1.134l-10.2,5.489a1.085,1.085,0,0,1-.528.135,1.1,1.1,0,0,1-.685-.236,1.14,1.14,0,0,1-.4-1.156l2.256-9.036C6.4,50.385,4,45.749,4,40.8c0-7.779,6.062-14.492,14.728-17.455C19.873,13.566,30.458,6,43.289,6c13.616,0,24.7,8.565,24.7,19.083,0,4.939-2.4,9.586-6.78,13.156ZM51.146,40.8c0-9.283-10.069-16.838-22.451-16.838a28.931,28.931,0,0,0-8.565,1.28c-.011,0-.034.011-.045.011C11.97,27.788,6.245,33.805,6.245,40.8c0,4.445,2.3,8.644,6.477,11.82a1.136,1.136,0,0,1,.415,1.167L11.319,61.06l8.363-4.5a1.124,1.124,0,0,1,.853-.09A28.976,28.976,0,0,0,28.7,57.637C41.077,57.637,51.146,50.082,51.146,40.8Zm8.1-3.9c4.187-3.177,6.488-7.375,6.488-11.82,0-9.283-10.069-16.838-22.451-16.838-11.259,0-20.632,6.208-22.215,14.4a31.158,31.158,0,0,1,7.622-.932c13.616,0,24.7,8.565,24.7,19.083,0,.2-.011.4-.022.606l7.3,3.929-1.819-7.263A1.137,1.137,0,0,1,59.251,36.9ZM37.676,32.941H19.715a1.123,1.123,0,1,0,0,2.245H37.676a1.123,1.123,0,1,0,0-2.245Zm0,4.49H19.715a1.123,1.123,0,1,0,0,2.245H37.676a1.123,1.123,0,1,0,0-2.245Zm0,4.49H19.715a1.123,1.123,0,1,0,0,2.245H37.676a1.123,1.123,0,1,0,0-2.245Zm0,4.49H19.715a1.123,1.123,0,1,0,0,2.245H37.676a1.123,1.123,0,1,0,0-2.245Z" transform="translate(0 0)"/>
    </g>
  </g>
</svg>
