<svg xmlns="http://www.w3.org/2000/svg" xmlns:xlink="http://www.w3.org/1999/xlink" width="366" height="386" viewBox="0 0 366 386">
  <defs>
    <clipPath id="clip-path">
      <rect id="Rectángulo_403307" data-name="Rectángulo 403307" width="366" height="386" rx="6" transform="translate(319.051 6211)" fill="#ae9dcc"/>
    </clipPath>
    <clipPath id="clip-path-2">
      <rect id="Rectángulo_403297" data-name="Rectángulo 403297" width="346.781" height="565.749" fill="none"/>
    </clipPath>
  </defs>
  <g id="Grupo_1106274" data-name="Grupo 1106274" transform="translate(-319.051 -6211)">
    <rect id="Rectángulo_403040" data-name="Rectángulo 403040" width="366" height="386" rx="6" transform="translate(319.051 6211)" fill="#ae9dcc"/>
    <g id="Enmascarar_grupo_1099791" data-name="Enmascarar grupo 1099791" clip-path="url(#clip-path)">
      <path id="Trazado_876257" data-name="Trazado 876257" d="M728.939,616.3c-23.229,49.267-65.461,89.206-115.5,104.966s-107.171,5.952-147.316-28.32-60.959-92.889-49.146-146.321c5.943-26.869,19.294-51.424,26.466-77.981s6.853-58.12-11.255-77.738c-31.283-33.893-92.695-11.668-125.774-43.625-32.992-31.872-20.1-101.373-60.341-122.25-18.958-9.836-41.581-3.542-62.746-1.216C128.878,229.8,72.606,205.839,37.922,161.9S-8.863,55.3,6.656,0L795.231,101.556Z" transform="translate(117.505 6055.878) rotate(-7)" fill="#340b81" fill-rule="evenodd"/>
      <g id="Grupo_1106270" data-name="Grupo 1106270" transform="translate(-352.39 16.626)">
        <g id="Grupo_1106269" data-name="Grupo 1106269" transform="translate(681.051 6239)">
          <g id="Grupo_1106266" data-name="Grupo 1106266">
            <g id="Grupo_1106265" data-name="Grupo 1106265" clip-path="url(#clip-path-2)">
              <path id="Trazado_876133" data-name="Trazado 876133" d="M67.1,253.634C67,256.273,61.267,403.5,51.519,435.37H22.692s-7.311-98.564,7.038-132.309c-18.09-57.5-18.649-97.562-15.381-122.176,10.48,1.578,71.732,10.121,105.06-.272l.015.028s7.84,179.8-2.939,256.851H83.4s-4.244-74.656,0-116.9Zm-1.362-5.562L54.172,200.524l-24.442-7.4Z" transform="translate(6.324 89.208)" fill="#29273a"/>
              <path id="Trazado_876134" data-name="Trazado 876134" d="M110.789,391.611H76.127l-3.984-22.448-3.727,22.448H64.429l-2.393-39.048H87.079l6.581,18.994c16.012,2.065,17.129,20.054,17.129,20.054" transform="translate(30.641 174.138)" fill="#ffad36"/>
              <path id="Trazado_876135" data-name="Trazado 876135" d="M69.638,392.312H34.963l-3.971-22.448-3.727,22.448H23.279l-2.522-41.169H45.2l7.31,21.115c16,2.065,17.131,20.054,17.131,20.054" transform="translate(10.252 173.436)" fill="#ffad36"/>
              <path id="Trazado_876136" data-name="Trazado 876136" d="M60.144,243.935,24.134,188.99l24.442,7.4Z" transform="translate(11.92 93.346)" fill="#11111c"/>
              <path id="Trazado_876137" data-name="Trazado 876137" d="M79.22,31.424A169.477,169.477,0,0,1,75.3,51.407c-.057.258-.1.5-.17.76A108.14,108.14,0,0,1,68.483,72.02c-1.189,2.638-2.38,5.605-5.705,5.749-3.284.143-5.705-2.336-8.314-3.914a.705.705,0,0,1-.273-.315l-.33-.172c.747-2.595,1.636-5.175,2.453-7.74,1.991-6.236,3.641-12.988,2.078-19.252l.055-.015a17.23,17.23,0,0,1-.7-6.164,8.079,8.079,0,0,1,1.821-4.988,5.185,5.185,0,0,1,8.972,3.541,63.3,63.3,0,0,0,10.68-7.325" transform="translate(26.603 15.521)" fill="#fcb6bf"/>
              <path id="Trazado_876138" data-name="Trazado 876138" d="M117.993,28.068c-1.147-1.619-3.569-1.261-5.548-1.146-5.073.315-9.948-2.108-14-5.175-3.27-2.484-6.2-5.389-9.37-7.989A35.379,35.379,0,0,0,85.5,8.386a14.521,14.521,0,0,0-8.2-5.229,12.59,12.59,0,0,0-9.64,2.018,12.823,12.823,0,0,0-5.208,8.883.574.574,0,0,0,.124.454c-4.564-.979-9.449-1.2-13.861.4-5.244,1.9-8.578,6.248-10.236,11.448-1.96,6.143-1.54,12.683-2.782,18.959-1.2,6.041-4.253,11.44-8.027,16.242C20.2,71.081,9.967,78.472,4.114,89.253a31.113,31.113,0,0,0-4.06,16.641c.373,5.617,2.93,10.319,6.6,14.475,3.538,4.01,7.777,7.513,10.478,12.195,2.493,4.325,3.206,10.2,7.326,13.344a13.27,13.27,0,0,0,3.315,4.624c4.588,4,11.7,3.44,17.288.989s10.378-6.437,15.927-8.974c3.9-1.791,8.127-2.838,12.069-4.544s7.77-4.258,9.7-8.1c2.295-4.5,1.591-9.935.143-14.779s-3.584-9.518-4.1-14.549a35.093,35.093,0,0,1,1.663-13.132c.745-2.593,1.634-5.175,2.452-7.74,1.993-6.236,3.641-12.988,2.078-19.252l.058-.013a17.24,17.24,0,0,1-.7-6.164,8.107,8.107,0,0,1,1.821-4.99,5.187,5.187,0,0,1,8.974,3.541A63.14,63.14,0,0,0,105.822,45.5a63.992,63.992,0,0,0,11.154-12.2c1.074-1.563,2.106-3.686,1.017-5.233M48.369,19.64c-3.971,3.827-6.207,9.146-7.555,14.493s-1.906,10.88-3.125,16.255a68.367,68.367,0,0,1-15.6,30.361c-4.459,4.988-9.676,9.361-13.318,14.98s-5.49,13.06-2.422,19.009c2.882,5.577,9.274,8.544,12.556,13.89,2.236,3.641,2.9,8.17,3.942,12.385l.574,1.764c-.128-.176-.261-.351-.379-.532-1.612-2.477-2.354-5.4-3.523-8.085-2.078-4.782-5.817-8.438-9.377-12.134-3.636-3.774-7.05-7.789-8.218-13.037C.69,103.426,1.854,97.5,4.165,92.37c4.89-10.85,14.694-18.3,22.306-27.109a49.986,49.986,0,0,0,8.99-14.037c2.348-5.928,2.3-12.246,3.116-18.478.692-5.3,2.363-11.107,6.838-14.469a17.659,17.659,0,0,1,11.237-3.086,17.378,17.378,0,0,0-8.284,4.449m24.2-12.256a11.585,11.585,0,0,0-8.5,5.7A11.157,11.157,0,0,1,77.9,4.771C81.5,5.785,84,8.414,86.032,11.446c-3.977-2.717-8.7-4.685-13.466-4.062" transform="translate(0 1.445)" fill="#29273a"/>
              <path id="Trazado_876139" data-name="Trazado 876139" d="M48.478,70.671c-.547-5.218.172-10.941,3.787-14.994.613-.687-.4-1.7-1.014-1.013-3.742,4.2-4.731,10-4.259,15.455.578,6.675,3.2,12.949,4.382,19.511.164.907,1.546.523,1.383-.381C51.624,83,49.141,77.009,48.478,70.671" transform="translate(23.156 26.885)" fill="#fff"/>
              <path id="Trazado_876140" data-name="Trazado 876140" d="M50.284,82.621a9.651,9.651,0,0,1-5.118,8.055c-.817.43-.093,1.667.723,1.238a11.109,11.109,0,0,0,5.829-9.294c.036-.923-1.4-.92-1.434,0" transform="translate(22.131 40.466)" fill="#fff"/>
              <path id="Trazado_876141" data-name="Trazado 876141" d="M13.2,64.182A20.46,20.46,0,0,0,8.761,85.311c.323.856,1.709.484,1.382-.381A19.045,19.045,0,0,1,14.215,65.2c.644-.659-.368-1.675-1.013-1.013" transform="translate(3.713 31.595)" fill="#fff"/>
              <path id="Trazado_876142" data-name="Trazado 876142" d="M19.1,59.907a.722.722,0,0,0-.98-.257L13.073,63.5a.739.739,0,0,0-.257.98.721.721,0,0,0,.98.257l5.048-3.853a.739.739,0,0,0,.257-.98" transform="translate(6.282 29.41)" fill="#fff"/>
              <path id="Trazado_876143" data-name="Trazado 876143" d="M18.926,63.73a.722.722,0,0,0-.98-.257,18.221,18.221,0,0,0-5.039,5.039.716.716,0,0,0,1.237.723,16.68,16.68,0,0,1,4.525-4.525.734.734,0,0,0,.257-.98" transform="translate(6.325 31.301)" fill="#fff"/>
              <path id="Trazado_876144" data-name="Trazado 876144" d="M61.075,42.308a4.636,4.636,0,0,0,1.854-.548,3.69,3.69,0,0,0,1.238-1.37c1.364-2.632-.716-5.393-3.366-5.952a2.792,2.792,0,0,0-3.376,2.65c-.043.922,1.389.92,1.434,0a1.344,1.344,0,0,1,.849-1.206,2.267,2.267,0,0,1,1.664.248,2.951,2.951,0,0,1,1.808,2.44A2.247,2.247,0,0,1,61.568,40.8c-.656.149-1.292.084-1.787.63A1.92,1.92,0,0,0,59.4,43.2c.459,1.7,2.432,1.855,3.877,1.715a.736.736,0,0,0,.717-.716.722.722,0,0,0-.717-.717,3.253,3.253,0,0,1-2.15-.221c-.324-.223-.6-.846-.048-.953" transform="translate(28.363 16.978)" fill="#f490a2"/>
              <path id="Trazado_876145" data-name="Trazado 876145" d="M73.292,58.778c2.236.172,4.286,7.526,4.286,7.526s.86-3.786,4.243-1.993c3.01,1.591,3.814,18.32,3.957,22.089l-8.2,1.821-.474.33c-1.734-2.61-3.1-4.531-3.812-5.377-2.093-2.465-7.67-3.325-12.83-3.541v-.013a45.725,45.725,0,0,1-2.423-9.7c-.859-8.372,4.043-7.47,4.043-7.47s-1.318-11.911.417-16.1a2.156,2.156,0,0,1,1.261-1.406c2.365-.6,4.545,7.254,5.72,12.486.587,2.552.917,4.486.917,4.486s.674-3.325,2.9-3.139" transform="translate(28.617 22.183)" fill="#fcb6bf"/>
              <path id="Trazado_876146" data-name="Trazado 876146" d="M140.081,164.968a8.334,8.334,0,0,1-5.734,2.953c-5.1.572-10.393-1.908-14.421-4.816a45.76,45.76,0,0,1-6.451-5.777c1.247,4.171,2.38,8.442,3.4,12.758.717,2.98,1.376,5.977,1.993,8.959a454.862,454.862,0,0,1,7.568,54.458,58.435,58.435,0,0,1-7.024,2.68c-33.328,10.393-94.58,1.849-105.058.272l-1.549-.244c0-24.569,21.187-73.91,21.187-73.91L18.12,113.692a13.278,13.278,0,0,0,3.325,4.645c4.588,4,11.7,3.44,17.289.989s10.378-6.436,15.925-8.972c3.9-1.793,8.128-2.838,12.069-4.545s7.77-4.258,9.7-8.1c2.295-4.5,1.591-9.933.143-14.778S73,73.412,72.478,68.38a85.749,85.749,0,0,1,10.278-.2c5.16.215,10.737,1.076,12.83,3.541.717.846,2.078,2.767,3.812,5.375l.474-.33,8.2-1.82,1.362-.3s10.608,21.56,19.5,44.151a271.822,271.822,0,0,1,9.016,26.075q.818,2.6,1.549,5.247a66.529,66.529,0,0,1,1.891,8.185c.315,2.308.187,4.76-1.3,6.666" transform="translate(6.323 33.639)" fill="#9359d8"/>
              <path id="Trazado_876147" data-name="Trazado 876147" d="M122.7,134.2c.76,1.117-.143,2.595-1.076,3.6a43.018,43.018,0,0,1-37.17,13.073c-.615-2.98-1.276-5.977-1.991-8.959a12.1,12.1,0,0,1,6.077-3.827c-.172-.616-.344-1.246-.5-1.863,4.516,3.182,8.946,5.2,13.017,5.347,4.888.187,6.121-4.816,5.118-12.615A29.212,29.212,0,0,1,109.987,126c.932-.615,2.15-1.189,3.139-.63a2.95,2.95,0,0,1,1.032,2.81,14.019,14.019,0,0,1-3.354,8.485,28.322,28.322,0,0,1,8.744-3.154c1.117-.215,2.508-.257,3.154.689" transform="translate(40.731 61.811)" fill="#fcb6bf"/>
              <path id="Trazado_876148" data-name="Trazado 876148" d="M104.748,128.661c1,7.8-.23,12.8-5.118,12.615-4.071-.143-8.5-2.165-13.015-5.347-.359-1.291-.717-2.567-1.061-3.856a2.4,2.4,0,0,1,.2-2.337,2.082,2.082,0,0,1,2.165-.13,7.7,7.7,0,0,1,4.386,4.344,16.629,16.629,0,0,1,2.336-6.479,3.487,3.487,0,0,1,1.734-1.634c1.519-.5,3.01,1.032,3.427,2.565.429,1.549.285,3.24.889,4.716a28.417,28.417,0,0,1,4.056-4.458" transform="translate(42.158 62.105)" fill="#fcb6bf"/>
              <path id="Trazado_876149" data-name="Trazado 876149" d="M101.412,126.538Q91.042,106.1,79.353,86.36q-3.337-5.634-6.781-11.2c-.484-.783-1.725-.064-1.238.725q12.047,19.5,22.808,39.756,3.072,5.786,6.032,11.624c.418.823,1.655.1,1.238-.723" transform="translate(35.178 36.954)" fill="#29273a"/>
              <path id="Trazado_876150" data-name="Trazado 876150" d="M92.025,139.816Q76.856,125.12,62.3,109.811q-4.09-4.3-8.128-8.65c-.629-.677-1.64.338-1.013,1.014q14.375,15.471,29.376,30.347,4.215,4.179,8.478,8.308c.662.641,1.678-.371,1.013-1.014" transform="translate(26.158 49.855)" fill="#29273a"/>
              <path id="Trazado_876151" data-name="Trazado 876151" d="M67.057,116.465l-16.411-9.4a.717.717,0,0,0-.723,1.237L66.334,117.7a.717.717,0,0,0,.723-1.238" transform="translate(24.486 52.829)" fill="#29273a"/>
              <path id="Trazado_876152" data-name="Trazado 876152" d="M39.167,141.39q-4.246-7.31-8.49-14.618a.717.717,0,0,0-1.238.723l8.488,14.618a.718.718,0,0,0,1.24-.723" transform="translate(14.49 62.444)" fill="#29273a"/>
              <path id="Trazado_876153" data-name="Trazado 876153" d="M35.608,142.864a34.43,34.43,0,0,1-6-8.621c-.406-.829-1.643-.1-1.238.723a35.705,35.705,0,0,0,6.224,8.911c.638.669,1.649-.345,1.013-1.013" transform="translate(13.974 66.124)" fill="#29273a"/>
              <path id="Trazado_876154" data-name="Trazado 876154" d="M78.064,74.962a2.082,2.082,0,0,0-2.354.987,1.95,1.95,0,0,0,.3,2.129,1.849,1.849,0,0,0,2.205.859,1.978,1.978,0,0,0,1.424-2,2.194,2.194,0,0,0-1.579-1.976" transform="translate(37.302 36.994)" fill="#fff"/>
              <path id="Trazado_876155" data-name="Trazado 876155" d="M70.757,60.7a71.6,71.6,0,0,0-2.541-7.71,25.1,25.1,0,0,0-3.264-6.407A4.132,4.132,0,0,0,62.5,44.73a1.762,1.762,0,0,0-1.963,1.418,13.511,13.511,0,0,0-.1,3.576q.065,1.97.312,3.928a44.3,44.3,0,0,0,1.849,8.23.67.67,0,0,0-.527.2,14.711,14.711,0,0,0-3.9,6.552.717.717,0,0,0,1.382.381A13.254,13.254,0,0,1,63.1,63.1a.735.735,0,0,0,.149-.22c.493.151,1.129-.208.917-.831a42.856,42.856,0,0,1-1.97-8.4c-.172-1.355-.276-2.72-.317-4.086q-.027-.946-.013-1.893c.007-.523-.143-1.857.771-1.416a4.71,4.71,0,0,1,1.4,1.463,13.807,13.807,0,0,1,.983,1.575,34.539,34.539,0,0,1,1.646,3.633,71.376,71.376,0,0,1,2.719,8.154.717.717,0,0,0,1.382-.381" transform="translate(28.721 22.086)" fill="#29273a"/>
              <path id="Trazado_876156" data-name="Trazado 876156" d="M91.008,132.373a.733.733,0,0,0-.717.717,12.935,12.935,0,0,1-1.37,4.683.734.734,0,0,0,.258.98.723.723,0,0,0,.98-.257,14.678,14.678,0,0,0,1.566-5.406.723.723,0,0,0-.717-.717" transform="translate(43.876 65.382)" fill="#29273a"/>
              <path id="Trazado_876157" data-name="Trazado 876157" d="M97.174,132.111a.723.723,0,0,0-.98.257,40.98,40.98,0,0,1-3.963,6.391.722.722,0,0,0,.258.982.734.734,0,0,0,.98-.257,40.985,40.985,0,0,0,3.962-6.392.733.733,0,0,0-.257-.98" transform="translate(45.503 65.206)" fill="#29273a"/>
              <path id="Trazado_876158" data-name="Trazado 876158" d="M105.008,132.671a.729.729,0,0,0-1.013,0l-6.769,5.983a.717.717,0,0,0,1.013,1.014q3.384-2.992,6.769-5.985a.724.724,0,0,0,0-1.013" transform="translate(47.919 65.428)" fill="#29273a"/>
              <path id="Trazado_876159" data-name="Trazado 876159" d="M121.529,173.219A167.251,167.251,0,0,1,81.15,180.06a404.488,404.488,0,0,1-41.376-.246q-12.251-.562-24.484-1.458c-.92-.067-.916,1.367,0,1.434,14.285,1.043,28.607,1.832,42.929,2.075a252.174,252.174,0,0,0,41.156-2.193,148.692,148.692,0,0,0,22.534-5.07c.878-.273.5-1.657-.381-1.382" transform="translate(7.212 85.538)" fill="#a981e2"/>
              <path id="Trazado_876160" data-name="Trazado 876160" d="M120.441,165.341a307.246,307.246,0,0,1-40.47,6.31,308.861,308.861,0,0,1-40.8.88q-11.534-.513-23.006-1.9c-.913-.109-.905,1.325,0,1.434a308.637,308.637,0,0,0,41.095,2.171,310.046,310.046,0,0,0,40.7-3.269q11.509-1.69,22.864-4.249c.9-.2.518-1.584-.381-1.382" transform="translate(7.649 81.655)" fill="#a981e2"/>
              <path id="Trazado_876161" data-name="Trazado 876161" d="M282.343,150.743c-2.387.429-4.709-.563-6.8-1.61-.469-.241-.938-.5-1.409-.736l-.027-.012c-1.716-.9-3.42-1.826-5.124-2.764q-6.64-3.666-13.106-7.7a288.637,288.637,0,0,1-23.785-16.608l-14.461,44.081s8.934,11.376,15.883,36.931c-22.591,4.28-40.675,5.835-54.854,5.929-18.835.148-30.8-2.254-37.361-4.186a359.963,359.963,0,0,1,12.543-69.756,15.777,15.777,0,0,1-7-8.453q-9.338,7.426-18.687,14.85c-3.085,2.455-6.533,5.073-10.531,5.731a9.857,9.857,0,0,1-9.525-3.7c-5.245-6.64-2.253-16.072.993-22.926C114.9,107.546,125.012,98.466,135.7,90.4c6.8-6.548,14.327-12.852,20.391-15.507a68.032,68.032,0,0,1,18.271-5.285l5.781,25.3,8.116-7.338.027.028a15.013,15.013,0,0,0,13.577.306l.094-.12,6.908,5.728,8.224-25.205c7.123,1.192,21.92,4.089,26.9,8.329,4.2,3.584,10.611,12.034,14.757,17.763,2.549,2.937,5.057,5.9,7.485,8.934q4.751,5.918,9.229,12.02a102.045,102.045,0,0,1,7.9,12.166c2.2,4.159,4.213,8.814,4.7,13.538.4,3.969-1.261,8.905-5.714,9.684" transform="translate(51.982 33.74)" fill="#ffad36"/>
              <path id="Trazado_876162" data-name="Trazado 876162" d="M183.575,67.9s1.53.215,3.944.617L179.295,93.72l-6.908-5.728-7.271-6.023Z" transform="translate(81.554 33.535)" fill="#fff"/>
              <path id="Trazado_876163" data-name="Trazado 876163" d="M167.016,163.37v.013c-12.341,10.342-24.523,11.282-31.7,10.6a28.45,28.45,0,0,1-6.506-1.247q.28-6.781.844-13.55c6.561,1.932,18.526,4.334,37.361,4.186" transform="translate(63.622 78.624)" fill="#fff"/>
              <path id="Trazado_876164" data-name="Trazado 876164" d="M214.471,183.653l-1.972.269c-2.133.146-4.213.214-6.239.214-34.825,0-51.875-20.175-51.875-20.175v-.013c14.179-.094,32.263-1.651,54.854-5.929a214.4,214.4,0,0,1,5.232,25.636" transform="translate(76.254 78.048)" fill="#fff"/>
              <path id="Trazado_876165" data-name="Trazado 876165" d="M174.511,83.339l-.094.121a15,15,0,0,1-13.575-.309l-.027-.027,6.425-5.808Z" transform="translate(79.43 38.188)" fill="#fff"/>
              <path id="Trazado_876166" data-name="Trazado 876166" d="M171.835,81.449l-6.425,5.808L157.293,94.6l-5.781-25.3a32.487,32.487,0,0,1,6.277-.308Z" transform="translate(74.835 34.055)" fill="#fff"/>
              <path id="Trazado_876167" data-name="Trazado 876167" d="M153.4,82.148c-1.046-1.049-2.05-2.139-3-3.273q-.347-.412-.686-.834c-.12-.148-.238-.3-.356-.447l-.063-.081c.054.07.088.118-.012-.013l-.013-.019c-.022-.028-.045-.058-.069-.087l.058.073c-.453-.6-.9-1.2-1.325-1.811a2.15,2.15,0,0,0-1.2-.925,2.012,2.012,0,0,0-2.272,2.955,54.834,54.834,0,0,0,6.1,7.307,2.012,2.012,0,1,0,2.846-2.846" transform="translate(71.207 36.878)" fill="#f48b00"/>
              <path id="Trazado_876168" data-name="Trazado 876168" d="M147.61,76.587l-.036-.046.009.013.027.033" transform="translate(72.89 37.805)" fill="#f48b00"/>
              <path id="Trazado_876169" data-name="Trazado 876169" d="M142.695,80.92a2.052,2.052,0,0,0-2.753.722l-3.357,5.595a2.013,2.013,0,1,0,3.476,2.03q1.676-2.8,3.355-5.593a2.035,2.035,0,0,0-.722-2.753" transform="translate(67.331 39.842)" fill="#f48b00"/>
              <path id="Trazado_876170" data-name="Trazado 876170" d="M128.624,94.022a2.2,2.2,0,0,0-.59-1.422,2.009,2.009,0,0,0-2.844,0,1.928,1.928,0,0,0-.59,1.422q.466,3.729.934,7.458a2.2,2.2,0,0,0,.589,1.424,2.014,2.014,0,0,0,2.846,0,1.935,1.935,0,0,0,.59-1.424q-.468-3.729-.934-7.458" transform="translate(61.538 45.445)" fill="#f48b00"/>
              <path id="Trazado_876171" data-name="Trazado 876171" d="M153.189,106.836l-5.211-4.114a2.189,2.189,0,0,0-1.424-.59,2.045,2.045,0,0,0-1.422.59,2.025,2.025,0,0,0-.59,1.422,1.945,1.945,0,0,0,.59,1.424l5.211,4.114a2.195,2.195,0,0,0,1.424.589,2.012,2.012,0,0,0,2.012-2.012,1.944,1.944,0,0,0-.59-1.422" transform="translate(71.392 50.445)" fill="#f48b00"/>
              <path id="Trazado_876172" data-name="Trazado 876172" d="M166.062,92.517a2.054,2.054,0,0,0-2.753-.72l-8.018,4.288a2.028,2.028,0,0,0-.722,2.752,2.057,2.057,0,0,0,2.753.725l8.018-4.291a2.03,2.03,0,0,0,.722-2.753" transform="translate(76.209 45.212)" fill="#f48b00"/>
              <path id="Trazado_876173" data-name="Trazado 876173" d="M147.557,89.407a2.153,2.153,0,0,0-.59-1.422,2.011,2.011,0,0,0-3.435,1.422q.267,3.171.535,6.342a2.151,2.151,0,0,0,.589,1.424,2.013,2.013,0,0,0,3.436-1.424q-.269-3.171-.535-6.342" transform="translate(70.891 43.165)" fill="#f48b00"/>
              <path id="Trazado_876174" data-name="Trazado 876174" d="M143.374,101.967a2.013,2.013,0,0,0-3.678-.481l-2.983,6.34a2.17,2.17,0,0,0-.2,1.551,2.013,2.013,0,0,0,3.678.481l2.983-6.34a2.17,2.17,0,0,0,.2-1.551" transform="translate(67.391 49.647)" fill="#f48b00"/>
              <path id="Trazado_876175" data-name="Trazado 876175" d="M154.09,116.5a2.064,2.064,0,0,0-2.753-.722l-7.272,3.542a2.025,2.025,0,0,0-.722,2.753,2.064,2.064,0,0,0,2.753.722l7.272-3.542a2.023,2.023,0,0,0,.722-2.753" transform="translate(70.666 57.06)" fill="#f48b00"/>
              <path id="Trazado_876176" data-name="Trazado 876176" d="M162.845,111.426q-1.3-2.151-2.587-4.3a2.1,2.1,0,0,0-1.2-.925,2.065,2.065,0,0,0-1.551.2,2.032,2.032,0,0,0-.925,1.2,2.087,2.087,0,0,0,.2,1.551l2.589,4.3a2.094,2.094,0,0,0,1.2.925,2.066,2.066,0,0,0,1.551-.2,2.033,2.033,0,0,0,.925-1.2,2.081,2.081,0,0,0-.2-1.551" transform="translate(77.306 52.421)" fill="#f48b00"/>
              <path id="Trazado_876177" data-name="Trazado 876177" d="M177.562,98.867a2.043,2.043,0,0,0-2.475-1.406l-7.833,2.422a2.012,2.012,0,1,0,1.07,3.88l7.833-2.42a2.044,2.044,0,0,0,1.406-2.475" transform="translate(81.874 48.098)" fill="#f48b00"/>
              <path id="Trazado_876178" data-name="Trazado 876178" d="M182.108,96.228l-4.1-5.593a2.179,2.179,0,0,0-1.2-.925,2.059,2.059,0,0,0-1.551.2,2.038,2.038,0,0,0-.925,1.2,1.961,1.961,0,0,0,.2,1.551q2.05,2.8,4.1,5.595a2.193,2.193,0,0,0,1.2.925,2.066,2.066,0,0,0,1.551-.2,2.038,2.038,0,0,0,.925-1.2,1.973,1.973,0,0,0-.2-1.551" transform="translate(86.07 44.276)" fill="#f48b00"/>
              <path id="Trazado_876179" data-name="Trazado 876179" d="M171.572,87.014a2.051,2.051,0,0,0-1.2-.925,2.014,2.014,0,0,0-2.475,1.406q-.466,1.956-.932,3.916a2.109,2.109,0,0,0,.2,1.551,2.013,2.013,0,0,0,3.678-.481l.932-3.916a2.116,2.116,0,0,0-.2-1.551" transform="translate(82.435 42.489)" fill="#f48b00"/>
              <path id="Trazado_876180" data-name="Trazado 876180" d="M190.8,82.508a2.043,2.043,0,0,0-2.475-1.406l-4.848,1.492a2.105,2.105,0,0,0-1.2.925,2.012,2.012,0,0,0,2.272,2.955q2.425-.744,4.848-1.491a2.111,2.111,0,0,0,1.2-.925,2.053,2.053,0,0,0,.2-1.551" transform="translate(89.891 40.018)" fill="#f48b00"/>
              <path id="Trazado_876181" data-name="Trazado 876181" d="M198.719,78.685a1.963,1.963,0,0,0-.925-1.2l-6.153-2.8a2.178,2.178,0,0,0-1.551-.2,2.057,2.057,0,0,0-1.2.925,2.034,2.034,0,0,0-.2,1.551,1.963,1.963,0,0,0,.925,1.2l6.153,2.8a2.179,2.179,0,0,0,1.551.2,2.014,2.014,0,0,0,1.406-2.475" transform="translate(93.157 36.755)" fill="#f48b00"/>
              <path id="Trazado_876182" data-name="Trazado 876182" d="M205.388,90.423l-2.8-5.78a2.036,2.036,0,0,0-1.2-.925,2.058,2.058,0,0,0-1.551.2,2.031,2.031,0,0,0-.925,1.2,2.244,2.244,0,0,0,.2,1.549l2.8,5.781a2.032,2.032,0,0,0,1.2.925,2.066,2.066,0,0,0,1.551-.2,2.038,2.038,0,0,0,.925-1.2,2.249,2.249,0,0,0-.2-1.551" transform="translate(98.218 41.317)" fill="#f48b00"/>
              <path id="Trazado_876183" data-name="Trazado 876183" d="M196.53,92.376a2.013,2.013,0,0,0-3.678.481q-.652,3.449-1.306,6.9a2.162,2.162,0,0,0,.2,1.551,2.013,2.013,0,0,0,3.678-.481q.652-3.449,1.306-6.9a2.161,2.161,0,0,0-.2-1.551" transform="translate(94.581 45.144)" fill="#f48b00"/>
              <path id="Trazado_876184" data-name="Trazado 876184" d="M208.7,102.246q-2.983.186-5.967.373a2.134,2.134,0,0,0-1.424.589,2.013,2.013,0,0,0,1.424,3.436q2.983-.188,5.967-.373a2.121,2.121,0,0,0,1.422-.59,2.011,2.011,0,0,0-1.422-3.435" transform="translate(99.138 50.5)" fill="#f48b00"/>
              <path id="Trazado_876185" data-name="Trazado 876185" d="M211.213,100.331q-.652-2.983-1.306-5.967a2.027,2.027,0,0,0-2.475-1.406,2.058,2.058,0,0,0-1.4,2.475l1.3,5.967a2.028,2.028,0,0,0,2.475,1.406,2.059,2.059,0,0,0,1.406-2.475" transform="translate(101.733 45.875)" fill="#f48b00"/>
              <path id="Trazado_876186" data-name="Trazado 876186" d="M185.559,113.806l-2.015-10.076a2.026,2.026,0,0,0-2.475-1.406,2.064,2.064,0,0,0-1.406,2.475q1.008,5.04,2.015,10.076a2.025,2.025,0,0,0,2.475,1.406,2.063,2.063,0,0,0,1.406-2.475" transform="translate(88.714 50.501)" fill="#f48b00"/>
              <path id="Trazado_876187" data-name="Trazado 876187" d="M177.26,111.952a2.013,2.013,0,0,0-3.678-.481,48.932,48.932,0,0,1-4.289,7.459,2.024,2.024,0,0,0,.723,2.753,2.065,2.065,0,0,0,2.753-.722,49.194,49.194,0,0,0,4.288-7.459,2.17,2.17,0,0,0,.2-1.551" transform="translate(83.477 54.579)" fill="#f48b00"/>
              <path id="Trazado_876188" data-name="Trazado 876188" d="M181.239,127.063q-1.306-2.05-2.61-4.1a2.115,2.115,0,0,0-1.2-.925,2.051,2.051,0,0,0-1.551.2,2.023,2.023,0,0,0-.925,1.2,2.05,2.05,0,0,0,.2,1.551q1.306,2.05,2.611,4.1a2.122,2.122,0,0,0,1.2.925,2.066,2.066,0,0,0,1.551-.2,2.012,2.012,0,0,0,.722-2.753" transform="translate(86.38 60.243)" fill="#f48b00"/>
              <path id="Trazado_876189" data-name="Trazado 876189" d="M171.567,128.029a2.041,2.041,0,0,0-2.475,1.406q-.724,3.547-1.446,7.095a2.013,2.013,0,0,0,3.881,1.07q.722-3.547,1.446-7.095a2.054,2.054,0,0,0-1.406-2.475" transform="translate(82.78 63.21)" fill="#f48b00"/>
              <path id="Trazado_876190" data-name="Trazado 876190" d="M163.645,130.431q-1.118-2.425-2.238-4.848a2.012,2.012,0,0,0-1.2-.925,2.014,2.014,0,0,0-2.475,1.406l-.072.535a2.01,2.01,0,0,0,.275,1.016q1.118,2.422,2.238,4.848a2.027,2.027,0,0,0,1.2.925,2.066,2.066,0,0,0,1.551-.2,2.038,2.038,0,0,0,.925-1.2l.072-.535a2.005,2.005,0,0,0-.275-1.016" transform="translate(77.87 61.538)" fill="#f48b00"/>
              <path id="Trazado_876191" data-name="Trazado 876191" d="M155.355,131.6l-8.018-2.425a2.013,2.013,0,0,0-1.07,3.881l8.018,2.425a2.033,2.033,0,0,0,2.475-1.406,2.055,2.055,0,0,0-1.406-2.475" transform="translate(71.522 63.765)" fill="#f48b00"/>
              <path id="Trazado_876192" data-name="Trazado 876192" d="M141.233,136.191a2.055,2.055,0,0,0-1.2-.925,2.029,2.029,0,0,0-1.551.2,2.321,2.321,0,0,0-.925,1.2,5.157,5.157,0,0,1-.4.98c.109-.257.133-.317.075-.176l-.079.182c-.07.161-.142.323-.214.484q-.392.874-.822,1.731-.876,1.743-1.9,3.4a2.013,2.013,0,0,0,3.476,2.032,47.45,47.45,0,0,0,3.745-7.567,2.02,2.02,0,0,0-.2-1.551" transform="translate(66.159 66.778)" fill="#f48b00"/>
              <path id="Trazado_876193" data-name="Trazado 876193" d="M148.244,149.005q-.748-3.357-1.494-6.712a2.027,2.027,0,0,0-2.474-1.406,2.058,2.058,0,0,0-1.406,2.475q.748,3.357,1.491,6.712a2.028,2.028,0,0,0,2.475,1.406,2.06,2.06,0,0,0,1.407-2.475" transform="translate(70.539 69.548)" fill="#f48b00"/>
              <path id="Trazado_876194" data-name="Trazado 876194" d="M144.067,158.892q-1.853-2.062-3.708-4.122a2.012,2.012,0,0,0-3.435,1.424,2.188,2.188,0,0,0,.589,1.422q1.855,2.062,3.708,4.122a2.014,2.014,0,0,0,2.846,0,2.026,2.026,0,0,0,.59-1.424,2.2,2.2,0,0,0-.59-1.422" transform="translate(67.629 76.154)" fill="#f48b00"/>
              <path id="Trazado_876195" data-name="Trazado 876195" d="M163.439,147.926a2.051,2.051,0,0,0-2.753-.722l-7.272,4.1a2.013,2.013,0,0,0,2.032,3.475l7.272-4.1a2.034,2.034,0,0,0,.722-2.753" transform="translate(75.281 72.576)" fill="#f48b00"/>
              <path id="Trazado_876196" data-name="Trazado 876196" d="M173.11,146.859q-3.263-3.357-6.527-6.712a2.012,2.012,0,0,0-2.844,2.846q3.263,3.355,6.525,6.712a2.012,2.012,0,1,0,2.846-2.846" transform="translate(80.59 68.934)" fill="#f48b00"/>
              <path id="Trazado_876197" data-name="Trazado 876197" d="M177.3,154.767a2.055,2.055,0,0,0-2.475-1.406l-10.814,2.611a2.03,2.03,0,0,0-1.406,2.475,2.054,2.054,0,0,0,2.475,1.4l10.814-2.61a2.03,2.03,0,0,0,1.406-2.475" transform="translate(80.271 75.718)" fill="#f48b00"/>
              <path id="Trazado_876198" data-name="Trazado 876198" d="M184.879,153.937q-1.212-3.637-2.423-7.272a2.013,2.013,0,1,0-3.881,1.07q1.212,3.637,2.423,7.272a2.013,2.013,0,1,0,3.881-1.07" transform="translate(88.158 71.704)" fill="#f48b00"/>
              <path id="Trazado_876199" data-name="Trazado 876199" d="M142.04,88.134a144.949,144.949,0,0,0-10.18,24.381c-.26.826,1.035,1.179,1.292.357A143.09,143.09,0,0,1,143.2,88.811c.4-.762-.753-1.442-1.158-.677" transform="translate(65.111 43.365)" fill="#29273a"/>
              <path id="Trazado_876200" data-name="Trazado 876200" d="M191.394,105.252q-1.8-7.173-3.6-14.345a.671.671,0,0,0-1.294.357L190.1,105.61a.672.672,0,0,0,1.3-.357" transform="translate(92.107 44.665)" fill="#29273a"/>
              <path id="Trazado_876201" data-name="Trazado 876201" d="M189.611,102.327l-4.848-7.086a.687.687,0,0,0-.917-.241.676.676,0,0,0-.242.917L188.453,103a.686.686,0,0,0,.917.241.676.676,0,0,0,.241-.917" transform="translate(90.639 46.878)" fill="#29273a"/>
              <path id="Trazado_876202" data-name="Trazado 876202" d="M183.781,88.583A57.62,57.62,0,0,0,170.73,77.447a.573.573,0,0,0-.589-.036.557.557,0,0,0-.593.04,65.79,65.79,0,0,0-14.107,12.622c-.55.659.394,1.613.949.949a64.565,64.565,0,0,1,13.756-12.355,56.423,56.423,0,0,1,12.686,10.864c.566.653,1.512-.3.949-.949" transform="translate(76.693 38.202)" fill="#29273a"/>
              <path id="Trazado_876203" data-name="Trazado 876203" d="M227.675,216.473c-.229,40.2-1.838,142.816-1.838,142.816H185.566L172.1,182.171l-38.93-9.566v-.013c7.177.684,19.358-.254,31.7-10.6,0,0,17.05,20.177,51.876,20.177,2.024,0,4.1-.067,6.237-.215l1.972-.267a279.579,279.579,0,0,1,2.723,34.784" transform="translate(65.774 80.012)" fill="#9359d8"/>
              <path id="Trazado_876204" data-name="Trazado 876204" d="M175.106,179.079l-7.794,179.358h-35.43c-9.324-81.858-2.212-190.185-2.212-190.185Z" transform="translate(62.765 83.103)" fill="#9359d8"/>
              <path id="Trazado_876205" data-name="Trazado 876205" d="M174.248,179.079l-.832,19.022-44.6-29.848a28.454,28.454,0,0,0,6.506,1.247v.013Z" transform="translate(63.623 83.103)" fill="#29273a"/>
              <path id="Trazado_876206" data-name="Trazado 876206" d="M205.752,338.3c.188,8.854-10.262,18.647-10.262,18.647h-9.875s-10.168-8.4-10.262-13.617,4.292-22.188,4.292-22.188h19.762s6.156,8.3,6.345,17.158" transform="translate(86.61 158.618)" fill="#29273a"/>
              <path id="Trazado_876207" data-name="Trazado 876207" d="M167.9,322.767l-.55,22.188H114.2c-1.207-14.823,32.263-22.188,32.263-22.188Z" transform="translate(56.391 159.421)" fill="#29273a"/>
              <path id="Trazado_876208" data-name="Trazado 876208" d="M159.711,295.559,158.4,336.207H136.959l-3.541-40.648Z" transform="translate(65.898 145.982)" fill="#fcb6bf"/>
              <path id="Trazado_876209" data-name="Trazado 876209" d="M203.058,294.059l-1.864,40.46h-19.76l-9.7-40.46Z" transform="translate(84.823 145.242)" fill="#fcb6bf"/>
              <path id="Trazado_876210" data-name="Trazado 876210" d="M192.979,216.1q-.5-18.593-1.4-37.173c-.042-.861-1.383-.865-1.342,0q1.6,33.1,1.944,66.252t-.6,66.278q-.527,18.595-1.454,37.172c-.043.863,1.3.861,1.342,0q1.649-33.1,2.032-66.249t-.514-66.279" transform="translate(93.903 88.054)" fill="#29273a"/>
              <path id="Trazado_876211" data-name="Trazado 876211" d="M196.841,47.8c0,.323-.013.63-.04.953a15.215,15.215,0,0,1-7.338,11.711,19.781,19.781,0,0,1-.992,5.057v.013a21.439,21.439,0,0,1-40.554.913c-2-5.46-1.716-11.5-.859-17.252.523-3.461,1.234-6.923,1.745-10.383.079-.551.16-1.1.214-1.664.081-.563.148-1.126.188-1.69.081-.725.134-1.449.175-2.174a38.038,38.038,0,0,1,24.656-13.844,28.126,28.126,0,0,0,12.222,24.146,12.284,12.284,0,0,1,2.71-1.824,5.675,5.675,0,0,1,5.111-.081c2.053,1.141,2.791,3.771,2.764,6.118" transform="translate(72.312 9.603)" fill="#fcb6bf"/>
              <path id="Trazado_876212" data-name="Trazado 876212" d="M176.05,61.028A21.607,21.607,0,0,0,183.682,50.3c-.067.725-2.4,22.47-27.582,22.927l1.034-8.868a21.774,21.774,0,0,0,18.916-3.327" transform="translate(77.101 24.842)" fill="#29273a"/>
              <path id="Trazado_876213" data-name="Trazado 876213" d="M216.734,17.447a15.908,15.908,0,0,0-1.247-2.266,14.811,14.811,0,0,0-8.759-10.062c-5.891-2.335-13.281.148-15.791,6.17a11.138,11.138,0,0,0-.429,7.165c-.309-.04-.63-.094-.94-.134a34.843,34.843,0,0,0-14.823-2.133c-.35.027-.684.067-1.034.094a91.1,91.1,0,0,0-15.534-.161c-4.105.35-8.478,1.047-11.939,3.461a12.369,12.369,0,0,0-5.2,10.584c.121,4.668,2.629,8.854,6.023,11.913.725.872,3.783,1.784,4.615,2.576.081-.563.148-1.126.187-1.69.081-.725.134-1.449.175-2.174a38.038,38.038,0,0,1,24.657-13.844,28.124,28.124,0,0,0,12.22,24.146,12.319,12.319,0,0,1,2.71-1.824,5.673,5.673,0,0,1,5.112-.081c2.053,1.14,2.789,3.769,2.762,6.118,0,.321-.013.63-.04.953a15.219,15.219,0,0,1-7.337,11.711,19.781,19.781,0,0,1-.993,5.057v.013l2.227,13.469a10.024,10.024,0,0,0,8.451-4.28,19.077,19.077,0,0,0,3.206-9.846c.282-3.488.054-6.989.269-10.49.094-1.57.281-3.125.5-4.7.792-5.66,2.053-11.3,1.489-16.9l.644-.067a8.533,8.533,0,0,0,5.822-2.643,14.875,14.875,0,0,0,3.3-5.622,20.138,20.138,0,0,0-.3-14.515m-68.563,7.526c-2.133,1.005-4.413,2.16-5.433,4.292a4.482,4.482,0,0,0-.335.926,10.962,10.962,0,0,1,4.521-9.458c3.26-2.266,7.378-2.937,11.255-3.273a84.009,84.009,0,0,1,9.7-.188c-6.814,1.624-13.335,4.682-19.706,7.7M205.748,8.3a12.857,12.857,0,0,0-13,5.245,9.847,9.847,0,0,0-1.261,2.791,9.7,9.7,0,0,1,.362-3.609,10.019,10.019,0,0,1,5.393-6.089c5.42-2.59,11.926-.2,15.132,4.694.121.188.215.376.321.551A14.7,14.7,0,0,0,205.748,8.3" transform="translate(69.657 2.1)" fill="#29273a"/>
              <path id="Trazado_876214" data-name="Trazado 876214" d="M169.067,40.49a5.427,5.427,0,1,1-5.433,5.433,5.437,5.437,0,0,1,5.433-5.433" transform="translate(80.822 19.999)" fill="#f490a2"/>
              <path id="Trazado_876215" data-name="Trazado 876215" d="M159.487,37.859l2.187,10.813c-8.76,5.526-12.033,2.266-9.512-.255s7.325-10.558,7.325-10.558" transform="translate(74.748 18.699)" fill="#f490a2"/>
              <path id="Trazado_876216" data-name="Trazado 876216" d="M186.1,63.764l2.12,12.827L169.761,90.662,155.715,78.2l.577-4.976c25.18-.457,27.514-22.2,27.581-22.927Z" transform="translate(76.911 24.842)" fill="#fcb6bf"/>
              <path id="Trazado_876217" data-name="Trazado 876217" d="M157.562,31.1a1.924,1.924,0,0,0-2.307-1.309,40.867,40.867,0,0,0-6.089,1.619,2,2,0,0,0-1.12.86,1.876,1.876,0,0,0,2.117,2.755,40.839,40.839,0,0,1,6.091-1.619,1.888,1.888,0,0,0,1.119-.862,1.907,1.907,0,0,0,.19-1.445" transform="translate(72.996 14.694)" fill="#29273a"/>
              <path id="Trazado_876218" data-name="Trazado 876218" d="M171.895,31.23a59.267,59.267,0,0,0-8.251-2.136,1.874,1.874,0,1,0-.633,3.694q1.936.35,3.845.832.914.231,1.823.5c.3.088.607.172.9.272-.447-.149.106.034.2.064l.523.172a2.046,2.046,0,0,0,1.455.058,1.874,1.874,0,0,0,.139-3.452" transform="translate(79.75 14.357)" fill="#29273a"/>
              <path id="Trazado_876219" data-name="Trazado 876219" d="M153.984,17.917a.687.687,0,0,0-.917-.241,39.054,39.054,0,0,0-5.418,2.871.686.686,0,0,0-.241.917.678.678,0,0,0,.919.241,38.951,38.951,0,0,1,5.417-2.871.675.675,0,0,0,.241-.917" transform="translate(72.764 8.692)" fill="#fff"/>
              <path id="Trazado_876220" data-name="Trazado 876220" d="M191.351,14.514c-.353-.784-1.509-.1-1.158.677a14.219,14.219,0,0,1-2.044,14.655c-.551.657.393,1.61.949.947a15.615,15.615,0,0,0,2.253-16.279" transform="translate(92.848 6.997)" fill="#fff"/>
              <path id="Trazado_876221" data-name="Trazado 876221" d="M188.375,20.891a.685.685,0,0,0-.671.671,7.011,7.011,0,0,1-2.432,4.649.677.677,0,0,0,0,.949.686.686,0,0,0,.949,0,8.335,8.335,0,0,0,2.825-5.6.676.676,0,0,0-.671-.671" transform="translate(91.414 10.318)" fill="#fff"/>
              <path id="Trazado_876222" data-name="Trazado 876222" d="M154.531,37.06a2.431,2.431,0,1,1-4.787,0,2.431,2.431,0,1,1,4.787,0" transform="translate(73.961 16.895)" fill="#29273a"/>
              <path id="Trazado_876223" data-name="Trazado 876223" d="M167.7,36.488a2.431,2.431,0,1,1-4.788,0,2.431,2.431,0,1,1,4.788,0" transform="translate(80.468 16.612)" fill="#29273a"/>
              <path id="Trazado_876224" data-name="Trazado 876224" d="M164.077,51.6a3.93,3.93,0,0,0-1.82-2.493,2.608,2.608,0,0,0-2.906.291,3.7,3.7,0,0,0-1.224,2.841.224.224,0,0,0,0,.031,3.551,3.551,0,0,0,1,3.479,3.192,3.192,0,0,0,2.649.814,3.045,3.045,0,0,0,2.132-1.709,4.612,4.612,0,0,0,.167-3.255" transform="translate(78.055 24.099)" fill="#f490a2"/>
              <path id="Trazado_876225" data-name="Trazado 876225" d="M164.213,49.3a14.9,14.9,0,0,1-6.6,3.747.67.67,0,0,0,.356,1.292,16.247,16.247,0,0,0,7.2-4.09c.618-.605-.33-1.554-.949-.949" transform="translate(77.611 24.253)" fill="#29273a"/>
              <path id="Trazado_876226" data-name="Trazado 876226" d="M178.7,36.854c.811.3,1.161-1,.357-1.294-1.407-.521-2.629.575-3.118,1.811a13.144,13.144,0,0,0-.747,5.082,5.254,5.254,0,0,0,.3,2.248c.394.7.986.378,1.594.511.887.19.875,1.3.584,1.954a5.842,5.842,0,0,1-1.663,1.875c-.653.566.3,1.512.949.95,1.079-.937,2.195-2.042,2.248-3.567a2.431,2.431,0,0,0-2.118-2.564,1.368,1.368,0,0,0-.42.015c-.019-.149-.067-.342-.075-.424-.021-.206-.037-.415-.048-.621a14.529,14.529,0,0,1,.078-2.5c.117-.97.468-4.072,2.074-3.478" transform="translate(86.526 17.498)" fill="#f490a2"/>
              <path id="Trazado_876227" data-name="Trazado 876227" d="M146.353,21.608a.686.686,0,0,0-.917.242,6.782,6.782,0,0,0-.217,7.589c.471.72,1.633.048,1.158-.677a5.482,5.482,0,0,1,.217-6.236.676.676,0,0,0-.241-.919" transform="translate(71.205 10.628)" fill="#fff"/>
              <path id="Trazado_876228" data-name="Trazado 876228" d="M122.229,208.5H252.367V0H122.229ZM239.718,108.246H133.526V7.674H239.718Z" transform="translate(60.371)" fill="#fff"/>
            </g>
          </g>
          <text id="CV" transform="translate(195.14 133.643)" fill="#ffad36" font-size="24" font-family="Montserrat-ExtraBold, Montserrat" font-weight="800"><tspan x="0" y="0" letter-spacing="-0.001em">C</tspan><tspan y="0">V</tspan></text>
          <g id="Grupo_1106268" data-name="Grupo 1106268">
            <g id="Grupo_1106267" data-name="Grupo 1106267" clip-path="url(#clip-path-2)">
              <rect id="Rectángulo_403298" data-name="Rectángulo 403298" width="60.16" height="5.347" transform="translate(238.887 117.943)" fill="#b3b3ec"/>
              <rect id="Rectángulo_403299" data-name="Rectángulo 403299" width="60.16" height="5.347" transform="translate(238.887 127.9)" fill="#b3b3ec"/>
              <path id="Trazado_876229" data-name="Trazado 876229" d="M150.587,111.693H133.151V94.257h17.436Zm-15.538-1.9h13.639V96.156H135.048Z" transform="translate(65.766 46.555)" fill="#b3b3ec"/>
              <path id="Trazado_876230" data-name="Trazado 876230" d="M150.587,126.5H133.151V109.067h17.436Zm-15.538-1.9h13.639V110.964H135.048Z" transform="translate(65.766 53.87)" fill="#b3b3ec"/>
              <path id="Trazado_876231" data-name="Trazado 876231" d="M150.587,140.757H133.151V123.321h17.436Zm-15.538-1.9h13.639V125.218H135.048Z" transform="translate(65.766 60.911)" fill="#b3b3ec"/>
              <rect id="Rectángulo_403300" data-name="Rectángulo 403300" width="79.318" height="2.58" transform="translate(219.684 143.521)" fill="#b3b3ec"/>
              <rect id="Rectángulo_403301" data-name="Rectángulo 403301" width="62.198" height="2.58" transform="translate(219.682 148.24)" fill="#b3b3ec"/>
              <rect id="Rectángulo_403302" data-name="Rectángulo 403302" width="79.318" height="2.58" transform="translate(219.684 166.681)" fill="#b3b3ec"/>
              <rect id="Rectángulo_403303" data-name="Rectángulo 403303" width="62.198" height="2.58" transform="translate(219.682 171.4)" fill="#b3b3ec"/>
              <rect id="Rectángulo_403304" data-name="Rectángulo 403304" width="79.318" height="2.58" transform="translate(219.684 188.552)" fill="#b3b3ec"/>
              <rect id="Rectángulo_403305" data-name="Rectángulo 403305" width="62.198" height="2.58" transform="translate(219.682 193.273)" fill="#b3b3ec"/>
              <path id="Trazado_876232" data-name="Trazado 876232" d="M141.275,108.224l-5.923-5.925,2.951-2.95,2.973,2.971,8.484-8.484,2.952,2.952Z" transform="translate(66.853 46.347)" fill="#ffc257"/>
              <path id="Trazado_876233" data-name="Trazado 876233" d="M141.275,123.454l-5.923-5.925,2.951-2.951,2.973,2.971,8.484-8.484,2.952,2.952Z" transform="translate(66.853 53.87)" fill="#ffc257"/>
              <path id="Trazado_876234" data-name="Trazado 876234" d="M141.275,136.949l-5.923-5.925,2.951-2.951,2.973,2.971,8.484-8.484,2.952,2.952Z" transform="translate(66.853 60.535)" fill="#ffc257"/>
              <path id="Trazado_876235" data-name="Trazado 876235" d="M241.742,135.047c-1.878,5.474-6.842,10.25-12.624,10.25a12.052,12.052,0,0,1-6.829-2.254,17.6,17.6,0,0,1-5.607-6.533c-2.387-4.776-2.939-10.236-3.448-15.562q-1.268-13.259-2.535-26.535c-.161-1.717-.336-3.433-.5-5.164L228.77,79.121c5.432,12.583,10.557,25.34,13.146,38.755,1.1,5.687,1.716,11.7-.175,17.171" transform="translate(103.824 39.079)" fill="#ffad36"/>
              <path id="Trazado_876236" data-name="Trazado 876236" d="M224.546,76.531l2.241-.886c.75,1.731,1.515,3.461,2.253,5.191L210.473,90.965c-.267-2.856-.55-5.728-.817-8.586l.683-.267Z" transform="translate(103.553 37.363)" fill="#fff"/>
              <path id="Trazado_876237" data-name="Trazado 876237" d="M213.44,80.349a36.94,36.94,0,0,1-8.157.456,2.436,2.436,0,0,1-2.012-.8c-.509-.805.054-1.866.684-2.6A16.858,16.858,0,0,1,206.4,75.05a32.835,32.835,0,0,1-5.823-.617,2.144,2.144,0,0,1-1.194-.509,1.524,1.524,0,0,1-.134-1.678,4.146,4.146,0,0,1,1.222-1.288,29.746,29.746,0,0,1,3.287-2.212,18.95,18.95,0,0,1-2.885-.457,1.934,1.934,0,0,1-1.126-.6,1.335,1.335,0,0,1-.027-1.4,3.333,3.333,0,0,1,1.005-1.073,22.2,22.2,0,0,1,6.977-3.69c-1.02.175-4.267-.71-4.521-1.38A2.2,2.2,0,0,1,203.661,58a5.331,5.331,0,0,1,1.918-1.274,25.17,25.17,0,0,1,10.665-2.254c2.777.027,5.768.563,7.713,2.562s2.414,4.937,2.791,7.674q1.508,11.146,3.031,22.282L215.574,92.57a16.238,16.238,0,0,1-2.508-10.425,7.568,7.568,0,0,1,.375-1.8" transform="translate(98.32 26.904)" fill="#fcb6bf"/>
              <path id="Trazado_876238" data-name="Trazado 876238" d="M217.5,90.458a2.047,2.047,0,0,0-2.477,1.406,26.6,26.6,0,0,0-.714,8.366,2.012,2.012,0,1,0,4.025,0,24.946,24.946,0,0,1,0-3.868c.025-.3.052-.593.087-.889.006-.057.013-.112.022-.167.022-.16.046-.318.072-.478.106-.636.241-1.268.393-1.894a2.044,2.044,0,0,0-1.4-2.475" transform="translate(105.813 44.652)" fill="#f48b00"/>
              <path id="Trazado_876239" data-name="Trazado 876239" d="M231.023,99.377a47.125,47.125,0,0,0-5.78-6.153,2.127,2.127,0,0,0-1.424-.589A2.012,2.012,0,0,0,222.4,96.07a47.127,47.127,0,0,1,5.78,6.153,2.014,2.014,0,0,0,1.424.589,2.012,2.012,0,0,0,2.012-2.012,2.36,2.36,0,0,0-.59-1.422" transform="translate(109.56 45.754)" fill="#f48b00"/>
              <path id="Trazado_876240" data-name="Trazado 876240" d="M222.854,103.311a2.053,2.053,0,0,0-2.475,1.406l-1.864,6.339a2.013,2.013,0,0,0,3.881,1.071q.932-3.171,1.864-6.34a2.034,2.034,0,0,0-1.406-2.475" transform="translate(107.893 50.999)" fill="#f48b00"/>
              <path id="Trazado_876241" data-name="Trazado 876241" d="M225.188,118.777q-1.961-2.048-3.923-4.095a2.011,2.011,0,0,0-2.846,0,2.025,2.025,0,0,0-.59,1.422,2.141,2.141,0,0,0,.59,1.424q1.961,2.048,3.923,4.095a2.014,2.014,0,0,0,2.846,0,2.025,2.025,0,0,0,.59-1.424,2.14,2.14,0,0,0-.59-1.422" transform="translate(107.589 56.352)" fill="#f48b00"/>
              <path id="Trazado_876242" data-name="Trazado 876242" d="M214.762,66.318l-9.981,1.839c-.847.155-.488,1.449.357,1.294l9.981-1.839c.847-.157.489-1.449-.357-1.294" transform="translate(100.906 32.749)" fill="#29273a"/>
              <path id="Trazado_876243" data-name="Trazado 876243" d="M213.085,61.792l-9.991,2.262c-.841.191-.486,1.485.357,1.294l9.991-2.262c.841-.191.486-1.485-.357-1.294" transform="translate(100.075 30.511)" fill="#29273a"/>
              <path id="Trazado_876244" data-name="Trazado 876244" d="M212.336,57.912q-3.8.368-7.55,1.1c-.847.166-.489,1.458.357,1.294q3.57-.7,7.193-1.05a.69.69,0,0,0,.671-.671.675.675,0,0,0-.671-.671" transform="translate(100.909 28.603)" fill="#29273a"/>
              <path id="Trazado_876245" data-name="Trazado 876245" d="M132.206,86.042c-.242,2.495-.483,4.978-.725,7.473q-1.309,13.844-2.643,27.688c-.509,5.326-1.059,10.786-3.448,15.561a17.994,17.994,0,0,1-3.541,4.857c-.013.013-.027.013-.027.027l-3.556,2.562a11.536,11.536,0,0,1-5.3,1.342c-5.795,0-10.759-4.776-12.637-10.248s-1.274-11.484-.175-17.173c2.764-14.34,8.426-27.915,14.261-41.344Z" transform="translate(48.958 37.926)" fill="#ffad36"/>
              <path id="Trazado_876246" data-name="Trazado 876246" d="M111.938,122.765l3.556-2.562a15.386,15.386,0,0,1-3.556,2.562" transform="translate(55.288 59.371)" fill="#ffad36"/>
              <path id="Trazado_876247" data-name="Trazado 876247" d="M140.681,64.616a3.348,3.348,0,0,1,1.005,1.073,1.368,1.368,0,0,1-.012,1.4,1.974,1.974,0,0,1-1.141.6,18.5,18.5,0,0,1-2.87.457,30.247,30.247,0,0,1,3.287,2.213,4.114,4.114,0,0,1,1.207,1.288,1.5,1.5,0,0,1-.134,1.678,2.144,2.144,0,0,1-1.194.509,32.533,32.533,0,0,1-5.822.617,16.952,16.952,0,0,1,2.455,2.348c.617.737,1.194,1.8.671,2.6a2.466,2.466,0,0,1-2,.8,36.97,36.97,0,0,1-8.17-.456,7.532,7.532,0,0,1,.39,1.8,16.34,16.34,0,0,1-2.523,10.425l-14.206-5.581q1.528-11.148,3.045-22.282c.376-2.75.846-5.689,2.777-7.674s4.937-2.549,7.727-2.562a25.362,25.362,0,0,1,10.665,2.241,5.617,5.617,0,0,1,1.9,1.288,2.176,2.176,0,0,1,.5,2.147c-.255.63-4.415,1.126-5.916.979-.161-.04-.323-.081-.484-.108a1.168,1.168,0,0,0,.484.108,22.218,22.218,0,0,1,8.357,4.092" transform="translate(55.133 26.607)" fill="#fcb6bf"/>
              <path id="Trazado_876248" data-name="Trazado 876248" d="M126.948,81.51l.684.269c-.161,1.7-.323,3.42-.483,5.124l-17.788-9.256c.375-.872.75-1.731,1.14-2.6l2.239.884Z" transform="translate(54.016 37.066)" fill="#fff"/>
              <path id="Trazado_876249" data-name="Trazado 876249" d="M117.669,90.105l-5.029-5.973a2.012,2.012,0,0,0-3.435,1.424,2.258,2.258,0,0,0,.59,1.422q2.512,2.987,5.027,5.973a2.013,2.013,0,0,0,3.436-1.424,2.266,2.266,0,0,0-.59-1.422" transform="translate(53.938 41.264)" fill="#f48b00"/>
              <path id="Trazado_876250" data-name="Trazado 876250" d="M115.417,96.727a2.013,2.013,0,0,0-3.678-.481q-1.3,2.331-2.61,4.663a2.091,2.091,0,0,0-.2,1.549,2.012,2.012,0,0,0,3.678.481l2.61-4.661a2.1,2.1,0,0,0,.2-1.551" transform="translate(53.767 47.056)" fill="#f48b00"/>
              <path id="Trazado_876251" data-name="Trazado 876251" d="M109.185,110.628q-1.118-3.263-2.238-6.527a2.012,2.012,0,1,0-3.88,1.071L105.3,111.7a2.013,2.013,0,0,0,3.881-1.07" transform="translate(50.862 50.681)" fill="#f48b00"/>
              <path id="Trazado_876252" data-name="Trazado 876252" d="M116.325,112.946a2.025,2.025,0,0,0-1.422-.59l-.536.073a2.007,2.007,0,0,0-.887.517l-5.035,4.1a2.019,2.019,0,0,0-.589,1.422,2.01,2.01,0,0,0,2.012,2.012l.535-.072a2.008,2.008,0,0,0,.887-.517l5.035-4.1a2.015,2.015,0,0,0,.59-1.424,2.045,2.045,0,0,0-.59-1.422" transform="translate(53.272 55.494)" fill="#f48b00"/>
              <path id="Trazado_876253" data-name="Trazado 876253" d="M123.725,90.329c-.043-.859-1.385-.865-1.342,0a91.428,91.428,0,0,1-6.2,37.878c-.315.8.982,1.152,1.294.356a92.4,92.4,0,0,0,6.245-38.234" transform="translate(57.362 44.296)" fill="#29273a"/>
              <path id="Trazado_876254" data-name="Trazado 876254" d="M130.683,68.2l-10.141-2.825a.671.671,0,0,0-.357,1.294L130.326,69.5a.671.671,0,0,0,.357-1.294" transform="translate(59.128 32.278)" fill="#29273a"/>
              <path id="Trazado_876255" data-name="Trazado 876255" d="M133.518,64.342q-5.858-1.179-11.6-2.837a.671.671,0,0,0-.357,1.294q5.741,1.658,11.6,2.837c.844.169,1.2-1.123.359-1.294" transform="translate(59.807 30.364)" fill="#29273a"/>
              <path id="Trazado_876256" data-name="Trazado 876256" d="M128.2,58.328l-6.031-1.173a.688.688,0,0,0-.825.469.675.675,0,0,0,.469.825l6.029,1.173a.689.689,0,0,0,.826-.469.678.678,0,0,0-.469-.825" transform="translate(59.922 28.223)" fill="#29273a"/>
            </g>
          </g>
        </g>
      </g>
    </g>
  </g>
</svg>
