<svg xmlns="http://www.w3.org/2000/svg" width="90.914" height="90.914" viewBox="0 0 90.914 90.914">
  <g id="Grupo_1106695" data-name="Grupo 1106695" transform="translate(-387.051 -6924)">
    <g id="Grupo_1106143" data-name="Grupo 1106143" transform="translate(387.051 6924)">
      <rect id="Rect치ngulo_400898" data-name="Rect치ngulo 400898" width="90.914" height="90.914" rx="45.457" transform="translate(0.001)" fill="#febdaf" opacity="0.859"/>
      <rect id="Rect치ngulo_400907" data-name="Rect치ngulo 400907" width="90.914" height="90.914" rx="45.457" transform="translate(0)" fill="none"/>
    </g>
    <g id="lista-de-verificacion_3_" data-name="lista-de-verificacion (3)" transform="translate(360.977 6933.959)">
      <path id="Trazado_877535" data-name="Trazado 877535" d="M90.88,9.149l12.969,50.218a3.8,3.8,0,0,1-2.717,4.618L66.105,73.033a3.789,3.789,0,0,1-4.618-2.717L48.518,20.084a3.789,3.789,0,0,1,2.717-4.618L86.262,6.419a3.786,3.786,0,0,1,4.618,2.73Z" transform="translate(-4.611 -4.554)" fill="#e77c6a"/>
      <path id="Trazado_877536" data-name="Trazado 877536" d="M90.793,9.149l.241.937a7.942,7.942,0,0,1-1.3,6.706l-1.472,1.994a7.908,7.908,0,0,1-4.4,2.971L60.6,27.767a7.909,7.909,0,0,1-5.287-.468l-2.262-1.031a7.967,7.967,0,0,1-4.39-5.233l-.241-.937a3.789,3.789,0,0,1,2.717-4.618l35.04-9.061a3.786,3.786,0,0,1,4.618,2.73Z" transform="translate(-4.525 -4.554)" fill="#f1b2a3"/>
      <path id="Trazado_877537" data-name="Trazado 877537" d="M167.71,9.149,180.68,59.367a3.8,3.8,0,0,1-2.717,4.618l-35.027,9.048a3.789,3.789,0,0,1-4.618-2.717l-1.218-4.7a43.751,43.751,0,0,0,27.6-52.132l-1.794-7.013.2-.054a3.779,3.779,0,0,1,4.6,2.73Z" transform="translate(-81.442 -4.554)" opacity="0.1"/>
      <path id="Trazado_877538" data-name="Trazado 877538" d="M137.572,37.293V90.148a3.29,3.29,0,0,1-3.293,3.293H97.593A3.29,3.29,0,0,1,94.3,90.148V37.293A3.29,3.29,0,0,1,97.593,34h36.687A3.29,3.29,0,0,1,137.572,37.293Z" transform="translate(-44.37 -28.548)" fill="#e8f1f8"/>
      <path id="Trazado_877539" data-name="Trazado 877539" d="M137.672,37.206V90.061a3.29,3.29,0,0,1-3.293,3.293H97.693A3.29,3.29,0,0,1,94.4,90.061V88.053a39.978,39.978,0,0,0,36.031-39.778V33.9h3.948A3.31,3.31,0,0,1,137.672,37.206Z" transform="translate(-44.457 -28.462)" opacity="0.1"/>
      <path id="Trazado_877540" data-name="Trazado 877540" d="M146.714,93.557a6.157,6.157,0,1,1-6.157-6.157A6.158,6.158,0,0,1,146.714,93.557Z" transform="translate(-79.103 -74.801)" fill="#f14f4a"/>
      <path id="Trazado_877541" data-name="Trazado 877541" d="M146.714,216.157A6.157,6.157,0,1,1,140.557,210,6.158,6.158,0,0,1,146.714,216.157Z" transform="translate(-79.103 -180.992)" fill="#0e9c4a"/>
      <path id="Trazado_877542" data-name="Trazado 877542" d="M146.714,338.657a6.157,6.157,0,1,1-6.157-6.157A6.158,6.158,0,0,1,146.714,338.657Z" transform="translate(-79.103 -287.096)" fill="#f78721"/>
      <g id="Grupo_1106694" data-name="Grupo 1106694" transform="translate(43.074 1.04)">
        <path id="Trazado_877543" data-name="Trazado 877543" d="M99.934,54.626l-6.01-23.262V8.744a4,4,0,0,0-4-4H87.045l-.08-.321a4.508,4.508,0,0,0-5.488-3.239L67.691,4.742H53.236a4.007,4.007,0,0,0-4.015,4v.763l-2.771.723a4.531,4.531,0,0,0-3.239,5.488l6.01,23.249V61.6a4,4,0,0,0,4,4H56.1l.08.321a4.5,4.5,0,0,0,5.488,3.239l13.759-3.547H89.909a4,4,0,0,0,4-4v-.776l2.771-.723A4.54,4.54,0,0,0,99.934,54.626ZM85.573,4.742H73.379l8.459-2.182A3.078,3.078,0,0,1,85.573,4.742ZM44.59,15.356A3.106,3.106,0,0,1,46.811,11.6l2.409-.616V21.232l-.388-.187a7.719,7.719,0,0,1-4.243-5.688Zm1.432,5.514a8.3,8.3,0,0,0,2.222,1.459l.99.455v10.48Zm15.285,46.9a3.061,3.061,0,0,1-3.734-2.182H69.739ZM92.492,61.6a2.585,2.585,0,0,1-2.583,2.583H53.223A2.593,2.593,0,0,1,50.639,61.6V8.744a2.585,2.585,0,0,1,2.583-2.583c41.826.013,36.165.013,36.687,0a2.585,2.585,0,0,1,2.583,2.583Zm3.841-2.864-2.423.629V37.052l4.644,17.922A3.106,3.106,0,0,1,96.334,58.735Z" transform="translate(-43.074 -1.04)"/>
        <path id="Trazado_877544" data-name="Trazado 877544" d="M161.236,119.749a.7.7,0,0,0,0,1l1.031,1.031a.7.7,0,0,0,1,0l2.744-2.744a.71.71,0,1,0-1-1l-2.249,2.249-.522-.522A.692.692,0,0,0,161.236,119.749Z" transform="translate(-145.238 -102.194)"/>
        <path id="Trazado_877545" data-name="Trazado 877545" d="M268.811,110.9h-16.1a.709.709,0,0,0,0,1.419h16.1a.714.714,0,0,0,.709-.709A.705.705,0,0,0,268.811,110.9Z" transform="translate(-224.036 -96.196)"/>
        <path id="Trazado_877546" data-name="Trazado 877546" d="M252.709,146.819h10.2a.709.709,0,1,0,0-1.419h-10.2a.709.709,0,0,0,0,1.419Z" transform="translate(-224.036 -126.078)"/>
        <path id="Trazado_877547" data-name="Trazado 877547" d="M165,240.636l-2.235,2.235-.522-.522a.71.71,0,0,0-1,1l1.031,1.031a.7.7,0,0,0,1,0l2.744-2.744a.7.7,0,0,0,0-1A.719.719,0,0,0,165,240.636Z" transform="translate(-145.238 -208.385)"/>
        <path id="Trazado_877548" data-name="Trazado 877548" d="M268.811,233.4h-16.1a.709.709,0,0,0,0,1.419h16.1a.714.714,0,0,0,.709-.709A.705.705,0,0,0,268.811,233.4Z" transform="translate(-224.036 -202.3)"/>
        <path id="Trazado_877549" data-name="Trazado 877549" d="M252.709,269.419h10.2a.709.709,0,1,0,0-1.419h-10.2a.709.709,0,0,0,0,1.419Z" transform="translate(-224.036 -232.269)"/>
        <path id="Trazado_877550" data-name="Trazado 877550" d="M165,363.236l-2.235,2.235-.522-.522a.71.71,0,0,0-1,1l1.031,1.031a.7.7,0,0,0,1,0l2.744-2.744a.7.7,0,0,0,0-1A.719.719,0,0,0,165,363.236Z" transform="translate(-145.238 -314.576)"/>
        <path id="Trazado_877551" data-name="Trazado 877551" d="M268.811,356h-16.1a.709.709,0,0,0,0,1.419h16.1a.714.714,0,0,0,.709-.709A.705.705,0,0,0,268.811,356Z" transform="translate(-224.036 -308.491)"/>
        <path id="Trazado_877552" data-name="Trazado 877552" d="M262.908,390.5h-10.2a.709.709,0,0,0,0,1.419h10.2a.709.709,0,1,0,0-1.419Z" transform="translate(-224.036 -338.373)"/>
        <path id="Trazado_877553" data-name="Trazado 877553" d="M135.866,95.832A6.866,6.866,0,1,0,129,88.966h0a6.872,6.872,0,0,0,6.866,6.866Zm0-12.314a5.447,5.447,0,1,1-5.434,5.447,5.452,5.452,0,0,1,5.434-5.447Z" transform="translate(-117.499 -71.251)"/>
        <path id="Trazado_877554" data-name="Trazado 877554" d="M135.966,204.7a6.873,6.873,0,1,0,6.88,6.866A6.872,6.872,0,0,0,135.966,204.7Zm0,12.314a5.447,5.447,0,1,1,5.447-5.447A5.461,5.461,0,0,1,135.966,217.014Z" transform="translate(-117.586 -177.441)"/>
        <path id="Trazado_877555" data-name="Trazado 877555" d="M135.966,327.2a6.873,6.873,0,1,0,6.88,6.866A6.872,6.872,0,0,0,135.966,327.2Zm0,12.327a5.447,5.447,0,1,1,5.447-5.447A5.461,5.461,0,0,1,135.966,339.527Z" transform="translate(-117.586 -283.546)"/>
      </g>
    </g>
  </g>
</svg>
