<svg xmlns="http://www.w3.org/2000/svg" width="90.914" height="90.914" viewBox="0 0 90.914 90.914">
  <g id="Grupo_1106693" data-name="Grupo 1106693" transform="translate(-697.051 -6912)">
    <g id="Grupo_1106144" data-name="Grupo 1106144" transform="translate(697.051 6912)">
      <rect id="Rectángulo_400898" data-name="Rectángulo 400898" width="90.914" height="90.914" rx="45.457" transform="translate(0.001)" fill="#febdaf" opacity="0.859"/>
      <rect id="Rectángulo_400907" data-name="Rectángulo 400907" width="90.914" height="90.914" rx="45.457" transform="translate(0)" fill="none"/>
    </g>
    <g id="innovacion" transform="translate(706.051 6922)">
      <path id="Trazado_877507" data-name="Trazado 877507" d="M55.362,24.508c0,5.728-2.311,13.566-6.1,20.27-2.28,4.036-7.251,9.219-7.251,13.846H32V3C44.9,3,55.362,12.317,55.362,24.508Z" transform="translate(3.374 0.112)" fill="#dbe6fd"/>
      <path id="Trazado_877508" data-name="Trazado 877508" d="M32,20H42.012V33.35H32Z" transform="translate(3.374 2.025)" fill="#17afdc"/>
      <path id="Trazado_877509" data-name="Trazado 877509" d="M11,24.508c0,5.728,2.311,13.566,6.1,20.27C19.378,48.813,24.35,54,24.35,58.624H34.362V3C21.46,3,11,12.317,11,24.508Z" transform="translate(1.012 0.112)" fill="#fccc38"/>
      <path id="Trazado_877510" data-name="Trazado 877510" d="M42.323,57.442H23.981a2.225,2.225,0,0,1-2.225-2.225v-.078a2.1,2.1,0,0,1,2.225-2.069H42.323a2.1,2.1,0,0,1,2.225,2.069v.078A2.225,2.225,0,0,1,42.323,57.442Z" transform="translate(2.222 5.744)" fill="#5358a1"/>
      <rect id="Rectángulo_403529" data-name="Rectángulo 403529" width="23.362" height="4.528" rx="2" transform="translate(23.693 63.186)" fill="#5358a1"/>
      <path id="Trazado_877511" data-name="Trazado 877511" d="M31.678,12.127l-.488,2.323a13.222,13.222,0,0,0-2.117.571l-1.594-1.78a15.535,15.535,0,0,0-3.266,1.909l.737,2.245A13.421,13.421,0,0,0,23.4,18.949l-2.245-.738a15.534,15.534,0,0,0-1.91,3.267l1.78,1.594a13.215,13.215,0,0,0-.571,2.117l-2.323.488a14.245,14.245,0,0,0,0,3.794l2.323.488a13.213,13.213,0,0,0,.571,2.117l-1.78,1.594a15.537,15.537,0,0,0,1.909,3.266L23.4,36.2a13.421,13.421,0,0,0,1.553,1.553L24.211,40a15.534,15.534,0,0,0,3.267,1.91l1.594-1.78a13.225,13.225,0,0,0,2.117.571l.488,2.323a15.66,15.66,0,0,0,1.9.127V12a15.657,15.657,0,0,0-1.9.127Z" transform="translate(1.8 1.125)" fill="#f4393d"/>
      <path id="Trazado_877512" data-name="Trazado 877512" d="M32.9,35.8a8.9,8.9,0,0,1,0-17.8" transform="translate(2.475 1.8)" fill="#f7edd3"/>
      <circle id="Elipse_11652" data-name="Elipse 11652" cx="2.225" cy="2.225" r="2.225" transform="translate(39.824 9.787)" fill="#fccc38"/>
      <circle id="Elipse_11653" data-name="Elipse 11653" cx="2.225" cy="2.225" r="2.225" transform="translate(48.724 15.35)" fill="#fccc38"/>
      <circle id="Elipse_11654" data-name="Elipse 11654" cx="2.225" cy="2.225" r="2.225" transform="translate(54.287 29.812)" fill="#fccc38"/>
      <circle id="Elipse_11655" data-name="Elipse 11655" cx="2.225" cy="2.225" r="2.225" transform="translate(42.049 43.162)" fill="#fccc38"/>
      <path id="Trazado_877513" data-name="Trazado 877513" d="M42.778,50.738l-2.068-.819a18.841,18.841,0,0,1,1.039-2.173L43.7,48.822a16.654,16.654,0,0,0-.919,1.916Z" transform="translate(4.354 5.146)"/>
      <path id="Trazado_877514" data-name="Trazado 877514" d="M44.6,47.344l-1.868-1.208c.417-.645.853-1.284,1.291-1.912l1.826,1.271c-.423.608-.845,1.225-1.249,1.849Z" transform="translate(4.582 4.749)"/>
      <path id="Trazado_877515" data-name="Trazado 877515" d="M46.888,44.009,45.061,42.74c.438-.632.857-1.248,1.232-1.844l1.883,1.184C47.784,42.7,47.347,43.349,46.888,44.009Z" transform="translate(4.844 4.375)"/>
      <path id="Trazado_877516" data-name="Trazado 877516" d="M49.108,40.439l-1.962-1.049q.521-.976,1-1.978l2.008.958Q49.654,39.416,49.108,40.439Z" transform="translate(5.078 3.983)"/>
      <path id="Trazado_877517" data-name="Trazado 877517" d="M50.913,36.672,48.865,35.8c.291-.683.567-1.372.825-2.06l2.083.782Q51.369,35.6,50.913,36.672Z" transform="translate(5.271 3.57)"/>
      <path id="Trazado_877518" data-name="Trazado 877518" d="M54.14,24.535l-2.217-.187c.058-.678.086-1.337.086-1.958v-.2l2.225-.017v.222C54.234,23.074,54.2,23.8,54.14,24.535Z" transform="translate(5.615 2.269)"/>
      <path id="Trazado_877519" data-name="Trazado 877519" d="M51.913,20.527a19.235,19.235,0,0,0-.37-2.109l2.166-.506a21.558,21.558,0,0,1,.414,2.352Z" transform="translate(5.573 1.79)"/>
      <path id="Trazado_877520" data-name="Trazado 877520" d="M51.084,16.82a19.435,19.435,0,0,0-.83-1.975l2-.973a21.431,21.431,0,0,1,.926,2.2Z" transform="translate(5.428 1.335)"/>
      <path id="Trazado_877521" data-name="Trazado 877521" d="M49.442,13.383A20.256,20.256,0,0,0,48.2,11.634l1.743-1.384a22.467,22.467,0,0,1,1.382,1.945Z" transform="translate(5.196 0.928)"/>
      <path id="Trazado_877522" data-name="Trazado 877522" d="M47.079,10.367a21.03,21.03,0,0,0-1.586-1.455L46.911,7.2a23.3,23.3,0,0,1,1.754,1.609Z" transform="translate(4.892 0.585)"/>
      <path id="Trazado_877523" data-name="Trazado 877523" d="M44.127,7.889c-.591-.4-1.213-.774-1.849-1.117l1.058-1.958c.7.378,1.382.791,2.032,1.228Z" transform="translate(4.531 0.317)"/>
      <path id="Trazado_877524" data-name="Trazado 877524" d="M40.731,6.024C40.079,5.747,39.4,5.5,38.7,5.276l.674-2.121c.759.241,1.507.517,2.224.822Z" transform="translate(4.129 0.13)"/>
      <path id="Trazado_877525" data-name="Trazado 877525" d="M37.039,4.818c-.7-.155-1.417-.28-2.134-.373l.285-2.208c.783.1,1.568.239,2.331.407Z" transform="translate(3.701 0.027)"/>
      <path id="Trazado_877526" data-name="Trazado 877526" d="M55.612,28.7a3.332,3.332,0,0,0-3.132,2.225H45.6v-4.45h4.45a1.112,1.112,0,0,0,1.112-1.112V20.7a3.338,3.338,0,1,0-2.225,0v3.543H45.6V22.021a1.112,1.112,0,0,0-1.112-1.112H42.262V15.141a3.338,3.338,0,1,0-2.225,0v5.767h-4.45V3.148a1.112,1.112,0,0,0-1.112-1.112C20.751,2.035,10,11.971,10,24.655c0,6.025,2.392,14,6.242,20.818.691,1.223,1.594,2.51,2.549,3.872,2.019,2.878,4.266,6.115,4.511,8.933a3.162,3.162,0,0,0-1.336,2.641,3.3,3.3,0,0,0,.736,2.065,3.43,3.43,0,0,0-1.021,2.463,3.341,3.341,0,0,0,3.337,3.337H43.931a3.359,3.359,0,0,0,3.337-3.416,3.322,3.322,0,0,0-1.024-2.4,3.435,3.435,0,0,0,.739-2.132,3.19,3.19,0,0,0-3.337-3.181H35.587V36.483h2.225V39.82a1.112,1.112,0,0,0,1.112,1.112h3.337V42.25a3.337,3.337,0,1,0,2.225,0V39.82a1.112,1.112,0,0,0-1.112-1.112H40.037V36.483h4.45A1.112,1.112,0,0,0,45.6,35.37V33.146h6.88a3.332,3.332,0,1,0,3.132-4.45ZM50.049,16.458a1.112,1.112,0,1,1-1.112,1.112A1.112,1.112,0,0,1,50.049,16.458ZM20.613,48.067c-.923-1.317-1.8-2.56-2.434-3.689-3.617-6.4-5.955-14.144-5.955-19.723,0-11.094,9.2-19.857,21.137-20.371v7.772c-.3.022-.6.049-.919.088a1.112,1.112,0,0,0-.954.875l-.339,1.612q-.419.1-.835.225L29.206,13.62a1.111,1.111,0,0,0-1.265-.281,16.738,16.738,0,0,0-3.5,2.044,1.113,1.113,0,0,0-.387,1.235l.511,1.556c-.21.2-.415.4-.613.613L22.4,18.275a1.119,1.119,0,0,0-1.235.387,16.7,16.7,0,0,0-2.045,3.5,1.112,1.112,0,0,0,.281,1.265l1.237,1.108q-.125.412-.223.827l-1.73.345a1.112,1.112,0,0,0-.895,1.091v3.794a1.112,1.112,0,0,0,.895,1.091l1.73.345q.1.414.223.827L19.4,33.964a1.114,1.114,0,0,0-.281,1.265,16.7,16.7,0,0,0,2.045,3.5,1.118,1.118,0,0,0,1.235.387l1.554-.511c.2.21.4.415.613.613l-.511,1.554a1.113,1.113,0,0,0,.387,1.235,16.7,16.7,0,0,0,3.5,2.046,1.114,1.114,0,0,0,1.265-.281l1.109-1.236q.416.125.835.225l.338,1.611a1.112,1.112,0,0,0,.954.876c.323.04.624.066.92.088V57.659H25.479c-.455-3.279-2.777-6.614-4.866-9.592ZM24.462,28.7a10.024,10.024,0,0,0,8.9,9.947v3.826l-.184-.876a1.113,1.113,0,0,0-.891-.867,12.063,12.063,0,0,1-1.938-.523,1.13,1.13,0,0,0-.376-.065,1.111,1.111,0,0,0-.828.37L28.1,41.675a14.416,14.416,0,0,1-1.675-.983l.483-1.47a1.114,1.114,0,0,0-.338-1.2A12.19,12.19,0,0,1,25.143,36.6a1.118,1.118,0,0,0-1.2-.337l-1.469.483a14.458,14.458,0,0,1-.984-1.675l1.168-1.046a1.115,1.115,0,0,0,.3-1.2,12.1,12.1,0,0,1-.523-1.938,1.112,1.112,0,0,0-.877-.893l-1.555-.311V27.711l1.555-.311a1.112,1.112,0,0,0,.877-.893,12.143,12.143,0,0,1,.523-1.939,1.113,1.113,0,0,0-.305-1.2L21.5,22.318a14.606,14.606,0,0,1,.983-1.675l1.47.483a1.119,1.119,0,0,0,1.2-.337,12.442,12.442,0,0,1,1.425-1.426,1.111,1.111,0,0,0,.337-1.194l-.482-1.47a14.5,14.5,0,0,1,1.674-.983l1.046,1.167a1.117,1.117,0,0,0,1.2.305,12.031,12.031,0,0,1,1.938-.523,1.112,1.112,0,0,0,.891-.866l.184-.876v3.825a10.024,10.024,0,0,0-8.9,9.947Zm8.9-7.7v15.4a7.777,7.777,0,0,1,0-15.4ZM43.931,66.559H25.018a1.133,1.133,0,0,1-1.112-1.191,1.114,1.114,0,0,1,1.112-1.112H43.931a1.133,1.133,0,0,1,1.112,1.191,1.114,1.114,0,0,1-1.112,1.112Zm-.285-6.675a1.019,1.019,0,0,1,1.112,1.034,1.114,1.114,0,0,1-1.112,1.112H25.3a1.133,1.133,0,0,1-1.112-1.191,1.005,1.005,0,0,1,1.112-.956ZM43.374,44.27a1.112,1.112,0,1,1-1.112,1.112A1.112,1.112,0,0,1,43.374,44.27ZM41.149,10.9a1.112,1.112,0,1,1-1.112,1.112A1.112,1.112,0,0,1,41.149,10.9Zm2.225,23.362H35.587V23.133h7.787Zm12.237-1.112a1.112,1.112,0,1,1,1.112-1.112A1.112,1.112,0,0,1,55.612,33.146Z" transform="translate(0.9 0.004)"/>
      <g id="Grupo_1106692" data-name="Grupo 1106692" transform="translate(2 2)">
        <path id="Trazado_877527" data-name="Trazado 877527" d="M4,56H6.225v2.225H4Z" transform="translate(-1.775 4.074)" fill="#fccc38"/>
        <path id="Trazado_877528" data-name="Trazado 877528" d="M4,60H6.225v2.225H4Z" transform="translate(-1.775 4.524)" fill="#fccc38"/>
        <path id="Trazado_877529" data-name="Trazado 877529" d="M6,58H8.225v2.225H6Z" transform="translate(-1.55 4.299)" fill="#fccc38"/>
        <path id="Trazado_877530" data-name="Trazado 877530" d="M2,58H4.225v2.225H2Z" transform="translate(-2 4.299)" fill="#fccc38"/>
        <path id="Trazado_877531" data-name="Trazado 877531" d="M59,2h2.225V4.225H59Z" transform="translate(4.411 -2)" fill="#fccc38"/>
        <path id="Trazado_877532" data-name="Trazado 877532" d="M59,6h2.225V8.225H59Z" transform="translate(4.411 -1.55)" fill="#fccc38"/>
        <path id="Trazado_877533" data-name="Trazado 877533" d="M61,4h2.225V6.225H61Z" transform="translate(4.636 -1.775)" fill="#fccc38"/>
        <path id="Trazado_877534" data-name="Trazado 877534" d="M57,4h2.225V6.225H57Z" transform="translate(4.186 -1.775)" fill="#fccc38"/>
      </g>
    </g>
  </g>
</svg>
