<svg xmlns="http://www.w3.org/2000/svg" width="90.914" height="90.914" viewBox="0 0 90.914 90.914">
  <g id="Grupo_1106707" data-name="Grupo 1106707" transform="translate(6691 4019)">
    <g id="Grupo_1106149" data-name="Grupo 1106149" transform="translate(-6691 -4019)">
      <rect id="Rect치ngulo_400898" data-name="Rect치ngulo 400898" width="90.914" height="90.914" rx="45.457" transform="translate(0.001)" fill="#febdaf" opacity="0.859"/>
      <rect id="Rect치ngulo_400907" data-name="Rect치ngulo 400907" width="90.914" height="90.914" rx="45.457" transform="translate(0)" fill="none"/>
    </g>
    <g id="lista-de-verificacion" transform="translate(-6710.02 -4008)">
      <g id="Grupo_1106703" data-name="Grupo 1106703" transform="translate(35.041 1.021)">
        <g id="Grupo_1106702" data-name="Grupo 1106702" transform="translate(0)">
          <g id="Grupo_1106699" data-name="Grupo 1106699">
            <g id="Grupo_1106696" data-name="Grupo 1106696">
              <path id="Trazado_877556" data-name="Trazado 877556" d="M87.13,110.505H44.015a2.5,2.5,0,0,1-2.5-2.5V50.891a2.5,2.5,0,0,1,2.5-2.5H87.13a2.5,2.5,0,0,1,2.5,2.5V108A2.5,2.5,0,0,1,87.13,110.505Z" transform="translate(-41.515 -42.822)" fill="#ffc250"/>
              <path id="Trazado_877557" data-name="Trazado 877557" d="M323.394,48.39h-8.368a2.5,2.5,0,0,1,2.5,2.5V108a2.5,2.5,0,0,1-2.5,2.5h8.368a2.5,2.5,0,0,0,2.5-2.5V50.89A2.5,2.5,0,0,0,323.394,48.39Z" transform="translate(-277.779 -42.821)" fill="#eab14d"/>
              <path id="Trazado_877558" data-name="Trazado 877558" d="M71.522,131.445V79.292a.894.894,0,0,1,.894-.894h38.155a.894.894,0,0,1,.894.894v52.154a.894.894,0,0,1-.894.894H72.416A.894.894,0,0,1,71.522,131.445Z" transform="translate(-67.436 -68.743)" fill="#f5f5f5"/>
              <path id="Trazado_877559" data-name="Trazado 877559" d="M305.184,78.4h-8.368a.894.894,0,0,1,.894.894v52.154a.894.894,0,0,1-.894.894h8.368a.894.894,0,0,0,.894-.894V79.292A.894.894,0,0,0,305.184,78.4Z" transform="translate(-262.048 -68.743)" fill="#eaeaea"/>
              <path id="Trazado_877560" data-name="Trazado 877560" d="M155.391,10.611V9.3a1.8,1.8,0,0,0-1.8-1.8h-7.032a1.8,1.8,0,0,0-1.8,1.8v1.316a.734.734,0,0,1-.734.734h-2.927a1.763,1.763,0,0,0-1.763,1.763v4.046h21.471V13.109a1.763,1.763,0,0,0-1.763-1.763h-2.927A.734.734,0,0,1,155.391,10.611Z" transform="translate(-126.021 -7.5)" fill="#c2d0da"/>
            </g>
            <g id="Grupo_1106698" data-name="Grupo 1106698" transform="translate(9.285 14.714)">
              <g id="Grupo_1106697" data-name="Grupo 1106697">
                <path id="Trazado_877561" data-name="Trazado 877561" d="M109.694,125v-7.871a1.579,1.579,0,0,1,1.579-1.579h7.871a1.579,1.579,0,0,1,1.579,1.579V125a1.579,1.579,0,0,1-1.579,1.579h-7.871A1.579,1.579,0,0,1,109.694,125Z" transform="translate(-109.694 -115.548)" fill="#66b49d"/>
                <path id="Trazado_877562" data-name="Trazado 877562" d="M109.694,245.4v-7.871a1.579,1.579,0,0,1,1.579-1.579h7.871a1.579,1.579,0,0,1,1.579,1.579V245.4a1.579,1.579,0,0,1-1.579,1.579h-7.871A1.579,1.579,0,0,1,109.694,245.4Z" transform="translate(-109.694 -219.558)" fill="#66b49d"/>
                <path id="Trazado_877563" data-name="Trazado 877563" d="M109.694,365.809v-7.871a1.579,1.579,0,0,1,1.579-1.579h7.871a1.579,1.579,0,0,1,1.579,1.579v7.871a1.579,1.579,0,0,1-1.579,1.579h-7.871A1.579,1.579,0,0,1,109.694,365.809Z" transform="translate(-109.694 -323.566)" fill="#66b49d"/>
              </g>
            </g>
          </g>
          <g id="Grupo_1106701" data-name="Grupo 1106701" transform="translate(26.351 15.869)">
            <g id="Grupo_1106700" data-name="Grupo 1106700" transform="translate(1.677)">
              <path id="Trazado_877564" data-name="Trazado 877564" d="M273.746,178.415l-1-1.321-3.752-2.376-1.442-.227-19.214,30.361a7.909,7.909,0,0,0-1.007,2.378,6.189,6.189,0,0,1,5.485,3.473,7.907,7.907,0,0,0,1.719-1.927Z" transform="translate(-247.328 -167.618)" fill="#fc8086"/>
              <path id="Trazado_877565" data-name="Trazado 877565" d="M417.813,125.474l-1.621-1.027a2.708,2.708,0,0,0-3.737.84l-1.487,2.35.474.956,4.512,2.857,1.211.111,1.488-2.351A2.708,2.708,0,0,0,417.813,125.474Z" transform="translate(-388.682 -124.027)" fill="#8c9ba6"/>
            </g>
            <path id="Trazado_877566" data-name="Trazado 877566" d="M0,0H3.861V7.336H0Z" transform="matrix(0.535, -0.845, 0.845, 0.535, 21.9, 6.863)" fill="#c9e2e7"/>
            <path id="Trazado_877567" data-name="Trazado 877567" d="M242.174,418.368l-5.471,4.409a1.038,1.038,0,0,1-1.661-1.052l1.646-6.831A6.189,6.189,0,0,1,242.174,418.368Z" transform="translate(-235.011 -375.284)" fill="#7c8b96"/>
          </g>
        </g>
      </g>
      <g id="Grupo_1106706" data-name="Grupo 1106706" transform="translate(34.02 0)">
        <g id="Grupo_1106705" data-name="Grupo 1106705" transform="translate(0 0)">
          <g id="Grupo_1106704" data-name="Grupo 1106704">
            <path id="Trazado_877568" data-name="Trazado 877568" d="M132.665,135.538a1.021,1.021,0,0,0-1.428.217l-2.022,2.747-.691-.949a1.022,1.022,0,1,0-1.652,1.2l1.193,1.638a1.425,1.425,0,0,0,1.144.584h0a1.425,1.425,0,0,0,1.144-.578l2.526-3.432A1.022,1.022,0,0,0,132.665,135.538Z" transform="translate(-114.058 -116.908)"/>
            <path id="Trazado_877569" data-name="Trazado 877569" d="M132.664,258.565a1.021,1.021,0,0,0-1.428.217l-2.022,2.747-.691-.949a1.022,1.022,0,1,0-1.652,1.2l1.193,1.638a1.424,1.424,0,0,0,1.144.584h0a1.425,1.425,0,0,0,1.144-.578l2.526-3.432A1.022,1.022,0,0,0,132.664,258.565Z" transform="translate(-114.057 -223.181)"/>
            <path id="Trazado_877570" data-name="Trazado 877570" d="M132.664,376.349a1.021,1.021,0,0,0-1.428.217l-2.022,2.747-.691-.949a1.022,1.022,0,1,0-1.652,1.2l1.193,1.638a1.425,1.425,0,0,0,1.144.584h0a1.425,1.425,0,0,0,1.144-.578l2.526-3.432A1.022,1.022,0,0,0,132.664,376.349Z" transform="translate(-114.057 -324.925)"/>
            <path id="Trazado_877571" data-name="Trazado 877571" d="M221.547,134.91h12.626a1.022,1.022,0,0,0,0-2.043H221.547a1.022,1.022,0,0,0,0,2.043Z" transform="translate(-195.126 -114.773)"/>
            <path id="Trazado_877572" data-name="Trazado 877572" d="M221.547,166.251h6.313a1.022,1.022,0,0,0,0-2.043h-6.313a1.022,1.022,0,0,0,0,2.043Z" transform="translate(-195.126 -141.846)"/>
            <path id="Trazado_877573" data-name="Trazado 877573" d="M221.547,255.315h8.472a1.022,1.022,0,1,0,0-2.043h-8.472a1.022,1.022,0,1,0,0,2.043Z" transform="translate(-195.126 -218.781)"/>
            <path id="Trazado_877574" data-name="Trazado 877574" d="M227.86,286.657a1.022,1.022,0,0,0,0-2.043h-6.313a1.022,1.022,0,0,0,0,2.043Z" transform="translate(-195.126 -245.855)"/>
            <path id="Trazado_877575" data-name="Trazado 877575" d="M112.668,108.047H104.8a2.6,2.6,0,0,0-2.6,2.6v7.871a2.6,2.6,0,0,0,2.6,2.6h7.871a2.6,2.6,0,0,0,2.6-2.6v-7.871a2.6,2.6,0,0,0-2.6-2.6Zm.557,10.471a.558.558,0,0,1-.557.557H104.8a.558.558,0,0,1-.557-.557v-7.871a.558.558,0,0,1,.557-.557h7.871a.558.558,0,0,1,.557.557Z" transform="translate(-92.912 -93.333)"/>
            <path id="Trazado_877576" data-name="Trazado 877576" d="M112.668,228.453H104.8a2.6,2.6,0,0,0-2.6,2.6v7.871a2.6,2.6,0,0,0,2.6,2.6h7.871a2.6,2.6,0,0,0,2.6-2.6v-7.871A2.6,2.6,0,0,0,112.668,228.453Zm.557,10.471a.558.558,0,0,1-.557.557H104.8a.558.558,0,0,1-.557-.557v-7.871a.558.558,0,0,1,.557-.557h7.871a.558.558,0,0,1,.557.557Z" transform="translate(-92.912 -197.342)"/>
            <path id="Trazado_877577" data-name="Trazado 877577" d="M112.668,348.857H104.8a2.6,2.6,0,0,0-2.6,2.6v7.871a2.6,2.6,0,0,0,2.6,2.6h7.871a2.6,2.6,0,0,0,2.6-2.6v-7.871A2.6,2.6,0,0,0,112.668,348.857Zm.557,10.471a.558.558,0,0,1-.557.557H104.8a.558.558,0,0,1-.557-.557v-7.871a.558.558,0,0,1,.557-.557h7.871a.558.558,0,0,1,.557.557Z" transform="translate(-92.912 -301.349)"/>
            <path id="Trazado_877578" data-name="Trazado 877578" d="M92.746,17.475l-1.621-1.027A3.73,3.73,0,0,0,85.978,17.6l-1.487,2.349-2.065,3.262-2.335,3.689V11.57a1.917,1.917,0,0,0-1.915-1.915H70.856V7.612h9.8A1.48,1.48,0,0,1,82.135,9.09v8.848a1.022,1.022,0,0,0,2.043,0V9.09a3.526,3.526,0,0,0-3.522-3.522H70.645a2.788,2.788,0,0,0-2.573-1.723H65.432V2.817A2.82,2.82,0,0,0,62.615,0H55.583a2.82,2.82,0,0,0-2.817,2.817V3.846H50.127a2.788,2.788,0,0,0-2.573,1.723H37.542A3.526,3.526,0,0,0,34.02,9.09V66.2a3.526,3.526,0,0,0,3.522,3.522H80.657A3.526,3.526,0,0,0,84.178,66.2V43.3a1.022,1.022,0,0,0-2.043,0V66.2a1.48,1.48,0,0,1-1.479,1.479H37.542A1.48,1.48,0,0,1,36.063,66.2V9.09a1.48,1.48,0,0,1,1.479-1.479h9.8V9.655H40.022a1.917,1.917,0,0,0-1.915,1.915V63.724a1.917,1.917,0,0,0,1.915,1.915H78.177a1.917,1.917,0,0,0,1.915-1.915V44.444L90.351,28.233h0l2.064-3.261L93.9,22.62a3.734,3.734,0,0,0-1.156-5.146Zm-3.987.479a1.673,1.673,0,0,1,1.272.221L91.653,19.2a1.688,1.688,0,0,1,.523,2.327l-.941,1.487-4.471-2.831L87.7,18.7a1.675,1.675,0,0,1,1.055-.744ZM69.411,57.5a6.877,6.877,0,0,1-.647.863A7.182,7.182,0,0,0,67.678,57.2L86.714,27.14,88.078,28Zm-6.976,6.093a.137.137,0,0,0-.019-.007h0l1.443-5.994A5.143,5.143,0,0,1,67.23,59.73c-5.409,4.359-4.719,3.795-4.8,3.865ZM85.671,21.91l4.471,2.831-.972,1.536L84.7,23.446ZM49.385,6.653c0-.013,0-.025,0-.038s0-.009,0-.013a.742.742,0,0,1,.74-.714h2.927a1.758,1.758,0,0,0,1.756-1.756V2.817a.775.775,0,0,1,.774-.774h7.032a.775.775,0,0,1,.774.774V4.133a1.758,1.758,0,0,0,1.756,1.756h2.927a.742.742,0,0,1,.74.714s0,.009,0,.013,0,.025,0,.037v3H49.385ZM40.15,11.7h37.9V30.134l-10.692,16.9a1.022,1.022,0,1,0,1.727,1.093L83.607,25.172l1.381.875L65.951,56.109a7.174,7.174,0,0,0-1.515-.485,6.908,6.908,0,0,1,.5-.954l1.588-2.509A1.022,1.022,0,1,0,64.8,51.068l-1.588,2.509a8.913,8.913,0,0,0-1.137,2.685h0l-1.646,6.83a2.121,2.121,0,0,0-.059.5H40.15Zm37.9,51.9H65.69L69.2,60.77a8.91,8.91,0,0,0,1.941-2.176l6.912-10.922Z" transform="translate(-34.02 0)"/>
          </g>
        </g>
      </g>
    </g>
  </g>
</svg>
