<svg xmlns="http://www.w3.org/2000/svg" width="90.915" height="90.914" viewBox="0 0 90.915 90.914">
  <g id="Grupo_1106726" data-name="Grupo 1106726" transform="translate(6381 4031)">
    <g id="Grupo_1106148" data-name="Grupo 1106148" transform="translate(-6381 -4031)">
      <rect id="Rect치ngulo_400898" data-name="Rect치ngulo 400898" width="90.914" height="90.914" rx="45.457" transform="translate(0.001)" fill="#febdaf" opacity="0.859"/>
      <rect id="Rect치ngulo_400907" data-name="Rect치ngulo 400907" width="90.914" height="90.914" rx="45.457" transform="translate(0)" fill="none"/>
    </g>
    <g id="lista-de-verificacion_2_" data-name="lista-de-verificacion (2)" transform="translate(-6367 -4018)">
      <g id="Grupo_1106724" data-name="Grupo 1106724">
        <g id="Grupo_1106708" data-name="Grupo 1106708">
          <path id="Trazado_877579" data-name="Trazado 877579" d="M48,32V58a4,4,0,0,1-4,4H6a4,4,0,0,1-4-4V8A4,4,0,0,1,6,4h8V8H7A1,1,0,0,0,6,9V57a1,1,0,0,0,1,1H36l8-8V36Z" fill="#f5e0cd"/>
        </g>
        <g id="Grupo_1106709" data-name="Grupo 1106709">
          <path id="Trazado_877580" data-name="Trazado 877580" d="M20,4H30V8H20Z" fill="#f5e0cd"/>
        </g>
        <g id="Grupo_1106710" data-name="Grupo 1106710">
          <path id="Trazado_877581" data-name="Trazado 877581" d="M48,11.52a8.962,8.962,0,0,0-3.95,6.54L44,18.05V9a1,1,0,0,0-1-1H36V4h8a4,4,0,0,1,4,4Z" fill="#f5e0cd"/>
        </g>
        <g id="Grupo_1106711" data-name="Grupo 1106711">
          <path id="Trazado_877582" data-name="Trazado 877582" d="M43,8H7A1,1,0,0,0,6,9V57a1,1,0,0,0,1,1H36V50h8V9A1,1,0,0,0,43,8Z" fill="#e6e9ed"/>
        </g>
        <g id="Grupo_1106712" data-name="Grupo 1106712">
          <path id="Trazado_877583" data-name="Trazado 877583" d="M36,8V9a1,1,0,0,1-1,1H31a1,1,0,0,1-1-1V3a1,1,0,0,1,1-1h4a1,1,0,0,1,1,1V8Z" fill="#b4dd7f"/>
        </g>
        <g id="Grupo_1106713" data-name="Grupo 1106713">
          <path id="Trazado_877584" data-name="Trazado 877584" d="M20,8V9a1,1,0,0,1-1,1H15a1,1,0,0,1-1-1V3a1,1,0,0,1,1-1h4a1,1,0,0,1,1,1V8Z" fill="#b4dd7f"/>
        </g>
        <g id="Grupo_1106714" data-name="Grupo 1106714">
          <path id="Trazado_877585" data-name="Trazado 877585" d="M44,50l-8,8V50Z" fill="#ff826e"/>
        </g>
        <g id="Grupo_1106715" data-name="Grupo 1106715">
          <path id="Trazado_877586" data-name="Trazado 877586" d="M10,46h4v4H10Z" fill="#fcd770"/>
        </g>
        <g id="Grupo_1106716" data-name="Grupo 1106716">
          <path id="Trazado_877587" data-name="Trazado 877587" d="M10,38h4v4H10Z" fill="#fcd770"/>
        </g>
        <g id="Grupo_1106717" data-name="Grupo 1106717">
          <path id="Trazado_877588" data-name="Trazado 877588" d="M10,30h4v4H10Z" fill="#fcd770"/>
        </g>
        <g id="Grupo_1106718" data-name="Grupo 1106718">
          <path id="Trazado_877589" data-name="Trazado 877589" d="M10,22h4v4H10Z" fill="#fcd770"/>
        </g>
        <g id="Grupo_1106719" data-name="Grupo 1106719">
          <path id="Trazado_877590" data-name="Trazado 877590" d="M10,14h4v4H10Z" fill="#fcd770"/>
        </g>
        <g id="Grupo_1106720" data-name="Grupo 1106720">
          <path id="Trazado_877591" data-name="Trazado 877591" d="M29,51l-8.74,2.91a1.611,1.611,0,0,1-.54.09A1.72,1.72,0,0,1,18,52.28a1.611,1.611,0,0,1,.09-.54L21,43l4,4Z" fill="#aab2bd"/>
        </g>
        <g id="Grupo_1106721" data-name="Grupo 1106721">
          <path id="Trazado_877592" data-name="Trazado 877592" d="M52.05,27.95,48,32l-4,4L29,51l-4-4L46.64,25.36A8.945,8.945,0,0,0,52.05,27.95Z" fill="#b4dd7f"/>
        </g>
        <g id="Grupo_1106722" data-name="Grupo 1106722">
          <path id="Trazado_877593" data-name="Trazado 877593" d="M46.64,25.36,25,47l-4-4L44.05,19.95A8.945,8.945,0,0,0,46.64,25.36Z" fill="#fcd770"/>
        </g>
        <g id="Grupo_1106723" data-name="Grupo 1106723">
          <path id="Trazado_877594" data-name="Trazado 877594" d="M53,10a9,9,0,0,1,0,18c-.32,0-.64-.02-.95-.05a9.021,9.021,0,0,1-8-8c-.03-.31-.05-.63-.05-.95s.02-.63.05-.94A9.007,9.007,0,0,1,53,10Z" fill="#ff826e"/>
        </g>
      </g>
      <g id="Grupo_1106725" data-name="Grupo 1106725">
        <path id="Trazado_877595" data-name="Trazado 877595" d="M57.293,15.293,51,21.586l-1.293-1.293-1.414,1.414L51,24.414l7.707-7.707Z"/>
        <path id="Trazado_877596" data-name="Trazado 877596" d="M53,9a9.929,9.929,0,0,0-4,.841V8a5.006,5.006,0,0,0-5-5H37a2,2,0,0,0-2-2H31a2,2,0,0,0-2,2H21a2,2,0,0,0-2-2H15a2,2,0,0,0-2,2H6A5.006,5.006,0,0,0,1,8V58a5.006,5.006,0,0,0,5,5H44a5.006,5.006,0,0,0,5-5V32.414l3.442-3.442c.186.01.37.028.558.028A10,10,0,1,0,53,9ZM44,5a3,3,0,0,1,3,3v3.019a10.057,10.057,0,0,0-2,2.006V9a2,2,0,0,0-2-2H37V5ZM21.437,44.851l5.712,5.712-7.2,2.4A.73.73,0,0,1,19,52.279a.765.765,0,0,1,.036-.228ZM22.414,43,43.449,21.965a9.978,9.978,0,0,0,1.813,3.359L25,45.586ZM31,3h4V9H31ZM29,5V7H21V5ZM15,3h4V9H15Zm4,8a2,2,0,0,0,2-2h8a2,2,0,0,0,2,2h4a2,2,0,0,0,2-2h6v9.045h.048c-.03.315-.048.633-.048.955,0,.188.018.372.028.558l-22.9,22.9-2.988,8.962a2.72,2.72,0,0,0,3.443,3.438l8.959-2.986L43,38.414V49H35v8H7V9h6a2,2,0,0,0,2,2ZM41.586,51,37,55.586V51ZM47,58a3,3,0,0,1-3,3H6a3,3,0,0,1-3-3V8A3,3,0,0,1,6,5h7V7H7A2,2,0,0,0,5,9V57a2,2,0,0,0,2,2H36.414L45,50.414v-14l2-2ZM29,49.586,26.414,47,46.675,26.738a10,10,0,0,0,3.359,1.813ZM53,27a8,8,0,1,1,8-8A8.009,8.009,0,0,1,53,27Z"/>
        <path id="Trazado_877597" data-name="Trazado 877597" d="M9,19h6V13H9Zm2-4h2v2H11Z"/>
        <path id="Trazado_877598" data-name="Trazado 877598" d="M9,27h6V21H9Zm2-4h2v2H11Z"/>
        <path id="Trazado_877599" data-name="Trazado 877599" d="M9,35h6V29H9Zm2-4h2v2H11Z"/>
        <path id="Trazado_877600" data-name="Trazado 877600" d="M9,43h6V37H9Zm2-4h2v2H11Z"/>
        <path id="Trazado_877601" data-name="Trazado 877601" d="M9,51h6V45H9Zm2-4h2v2H11Z"/>
        <path id="Trazado_877602" data-name="Trazado 877602" d="M17,13H41v2H17Z"/>
        <path id="Trazado_877603" data-name="Trazado 877603" d="M17,17H41v2H17Z"/>
        <path id="Trazado_877604" data-name="Trazado 877604" d="M17,21H29v2H17Z"/>
        <path id="Trazado_877605" data-name="Trazado 877605" d="M17,25H29v2H17Z"/>
        <path id="Trazado_877606" data-name="Trazado 877606" d="M17,29H27v2H17Z"/>
        <path id="Trazado_877607" data-name="Trazado 877607" d="M17,33H27v2H17Z"/>
      </g>
    </g>
  </g>
</svg>
