<svg xmlns="http://www.w3.org/2000/svg" xmlns:xlink="http://www.w3.org/1999/xlink" width="90.914" height="90.914" viewBox="0 0 90.914 90.914">
  <defs>
    <clipPath id="clip-path">
      <path id="path6700" d="M0-682.665H64.78v64.78H0Z" transform="translate(0 682.665)"/>
    </clipPath>
  </defs>
  <g id="Grupo_1106741" data-name="Grupo 1106741" transform="translate(6047 4013)">
    <g id="Grupo_1106150" data-name="Grupo 1106150" transform="translate(-6047 -4013)">
      <rect id="Rect치ngulo_400898" data-name="Rect치ngulo 400898" width="90.913" height="90.914" rx="45.457" transform="translate(0)" fill="#febdaf" opacity="0.859"/>
      <rect id="Rect치ngulo_400907" data-name="Rect치ngulo 400907" width="90.913" height="90.914" rx="45.457" transform="translate(0.001)" fill="none"/>
    </g>
    <g id="g6690" transform="translate(-6034 -3317.335)">
      <g id="g6692" transform="translate(3.733 -678.932)">
        <path id="path6694" d="M-87.8-184.738-77.636-194.9l-9.2-9.205L-97-193.943Z" transform="translate(97.004 204.106)" fill="#a2e62e"/>
      </g>
      <g id="g6696" transform="translate(0 -682.665)">
        <g id="g6698" clip-path="url(#clip-path)">
          <g id="g6704" transform="translate(2.581 11.897)">
            <path id="path6706" d="M-117.855-141.371h0a3.972,3.972,0,0,1-5.617,0l-5-5a5.952,5.952,0,0,1,0-8.418l1.408-1.408,9.2,9.2a3.972,3.972,0,0,1,0,5.617" transform="translate(130.212 156.193)" fill="#bbec6c"/>
          </g>
          <g id="g6708" transform="translate(2.581 11.897)">
            <path id="path6710" d="M-126.057-129.128a3.954,3.954,0,0,1-.859,1.284,3.972,3.972,0,0,1-5.618,0l-5-5a5.95,5.95,0,0,1,0-8.418l1.407-1.408.066.066a5.95,5.95,0,0,0,.673,7.614l5,5a3.975,3.975,0,0,0,4.331.862" transform="translate(139.273 142.666)" fill="#a2e62e"/>
          </g>
          <g id="g6712" transform="translate(3.733 41.679)">
            <path id="path6714" d="M-184.738-96.938-194.9-107.1l-9.205,9.2,10.163,10.163Z" transform="translate(204.106 107.101)" fill="#5f99d7"/>
          </g>
          <g id="g6716" transform="translate(11.897 48.68)">
            <path id="path6718" d="M-141.371-11.095h0a3.971,3.971,0,0,1,0,5.617l-5,5a5.952,5.952,0,0,1-8.418,0l-1.408-1.408,9.2-9.2a3.972,3.972,0,0,1,5.617,0" transform="translate(156.193 12.258)" fill="#7bacdf"/>
          </g>
          <g id="g6720" transform="translate(11.897 48.68)">
            <path id="path6722" d="M-148.389-20.766a3.968,3.968,0,0,0-4.605.733l-9.192,9.191c-.12-.1-.238-.21-.352-.324l-1.408-1.408,9.2-9.206a3.975,3.975,0,0,1,5.618,0,3.922,3.922,0,0,1,.735,1.015" transform="translate(163.946 22.943)" fill="#5f99d7"/>
          </g>
          <g id="g6724" transform="translate(41.679 3.733)">
            <path id="path6726" d="M0-87.8,10.163-77.636l9.205-9.2L9.2-97Z" transform="translate(0 97.004)" fill="#dedbee"/>
          </g>
          <g id="g6728" transform="translate(36.898 2.581)">
            <path id="path6730" d="M-11.1-117.855h0a3.971,3.971,0,0,1,0-5.617l5-5a5.952,5.952,0,0,1,8.418,0l1.408,1.408-9.2,9.2a3.972,3.972,0,0,1-5.617,0" transform="translate(12.259 130.212)" fill="#faf7f7"/>
          </g>
          <g id="g6732" transform="translate(36.898 2.58)">
            <path id="path6734" d="M-23.346-126.057a3.954,3.954,0,0,1-1.284-.859,3.972,3.972,0,0,1,0-5.618l5-5a5.95,5.95,0,0,1,8.418,0l1.408,1.407-.066.066a5.95,5.95,0,0,0-7.614.673l-5,5a3.975,3.975,0,0,0-.862,4.331" transform="translate(25.793 139.273)" fill="#dedbee"/>
          </g>
          <g id="g6736" transform="translate(41.679 41.679)">
            <path id="path6738" d="M-96.938,0-107.1,10.163l9.2,9.205L-87.733,9.2Z" transform="translate(107.101)" fill="#fd4755"/>
          </g>
          <g id="g6740" transform="translate(48.68 36.898)">
            <path id="path6742" d="M-11.095-11.1h0a3.971,3.971,0,0,1,5.617,0l5,5a5.952,5.952,0,0,1,0,8.418L-1.89,3.726l-9.2-9.2a3.972,3.972,0,0,1,0-5.617" transform="translate(12.258 12.259)" fill="#fe646f"/>
          </g>
          <g id="g6744" transform="translate(48.68 37.326)">
            <path id="path6746" d="M-20.766,0a3.968,3.968,0,0,0,.733,4.605l9.191,9.192c-.1.12-.21.238-.324.352l-1.408,1.408-9.206-9.2a3.975,3.975,0,0,1,0-5.618A3.922,3.922,0,0,1-20.766,0" transform="translate(22.943)" fill="#fd4755"/>
          </g>
          <g id="g6748" transform="translate(2.533 2.533)">
            <path id="path6750" d="M-262.525-9.218-289.083,17.34a3.3,3.3,0,0,0,0,4.666l26.557,26.557a3.3,3.3,0,0,0,4.666,0L-231.3,22.006a3.3,3.3,0,0,0,0-4.666L-257.859-9.218a3.3,3.3,0,0,0-4.666,0" transform="translate(290.049 10.184)" fill="#b98080"/>
          </g>
          <g id="g6752" transform="translate(2.534 2.533)">
            <path id="path6754" d="M-63.617-307.026l26.039,26.039-.519.519a3.3,3.3,0,0,1-4.666,0L-69.32-307.026a3.3,3.3,0,0,1,0-4.665l26.557-26.557a3.3,3.3,0,0,1,4.666,0l.519.519-26.039,26.038a3.3,3.3,0,0,0,0,4.665" transform="translate(70.286 339.215)" fill="#ae6c6c"/>
          </g>
          <g id="g6756" transform="translate(22.561 27.451)">
            <path id="path6758" d="M-73.106-170.722l-7.665-7.665,10.234-10.234,7.665,7.664Z" transform="translate(80.77 188.621)" fill="#dedbee"/>
          </g>
          <g id="g6760" transform="translate(25.474 26.502)">
            <path id="path6762" d="M-11.582-51.016a.946.946,0,0,1-.671-.278l-3.8-3.8a.949.949,0,0,1,0-1.342.949.949,0,0,1,1.342,0l3.131,3.131L-2.69-62.2l-6.323-6.323-5.1,5.1a.949.949,0,0,1-1.342,0,.949.949,0,0,1,0-1.342l5.771-5.771a.949.949,0,0,1,1.342,0L-.677-62.87A.949.949,0,0,1-.4-62.2a.949.949,0,0,1-.278.671L-10.911-51.294A.946.946,0,0,1-11.582-51.016Z" transform="translate(16.333 70.813)"/>
          </g>
          <g id="g6764" transform="translate(12.987 29.42)">
            <path id="path6766" d="M-73.106-170.723l-7.665-7.665,10.234-10.234,7.665,7.665Z" transform="translate(80.77 188.622)" fill="#faf7f7"/>
          </g>
          <g id="g6768" transform="translate(15.025 28.47)">
            <path id="path6770" d="M-4.373-129.536a.946.946,0,0,1-.671-.278l-4.678-4.678a.949.949,0,0,1,0-1.342.949.949,0,0,1,1.342,0l4.007,4.007,5.1-5.1,3.792-3.793L-1.8-147.042-7.842-141a.949.949,0,0,1-1.342,0,.949.949,0,0,1,0-1.342l6.711-6.711a.949.949,0,0,1,.671-.278h0a.949.949,0,0,1,.671.278l7.664,7.665a.949.949,0,0,1,0,1.342L2.07-135.585-3.7-129.814A.946.946,0,0,1-4.373-129.536Z" transform="translate(10 149.333)"/>
          </g>
          <g id="g6772" transform="translate(43.971 24.529)">
            <path id="path6774" d="M-133.211,17.505a.946.946,0,0,1-.671-.278.949.949,0,0,1,0-1.342L-117.521-.477a2.335,2.335,0,0,0,.688-1.662,2.335,2.335,0,0,0-.688-1.662L-122.1-8.38a.949.949,0,0,1,0-1.342.949.949,0,0,1,1.342,0l4.579,4.579a4.22,4.22,0,0,1,1.244,3,4.22,4.22,0,0,1-1.244,3L-132.54,17.227A.946.946,0,0,1-133.211,17.505Z" transform="translate(134.16 10)"/>
          </g>
          <g id="g6776" transform="translate(1.585 12.747)">
            <path id="path6778" d="M-61.939-252.336a.946.946,0,0,1-.671-.278l-4.579-4.579a4.22,4.22,0,0,1-1.244-3,4.221,4.221,0,0,1,1.244-3l16.362-16.361a.949.949,0,0,1,1.342,0,.949.949,0,0,1,0,1.342l-16.362,16.361a2.335,2.335,0,0,0-.688,1.662,2.335,2.335,0,0,0,.688,1.662l4.579,4.579a.949.949,0,0,1,0,1.342A.946.946,0,0,1-61.939-252.336Z" transform="translate(68.433 279.839)"/>
          </g>
          <g id="g6780" transform="translate(12.747 43.971)">
            <path id="path6782" d="M9.643,9.225a4.22,4.22,0,0,1-3-1.244L-9.722-8.38a.949.949,0,0,1,0-1.342.949.949,0,0,1,1.342,0L7.981,6.639a2.351,2.351,0,0,0,3.324,0L15.884,2.06A.949.949,0,0,1,17.226,3.4L12.647,7.981A4.22,4.22,0,0,1,9.643,9.225Z" transform="translate(10 10)"/>
          </g>
          <g id="g6784" transform="translate(24.529 1.585)">
            <path id="path6786" d="M16.556-49.207a.946.946,0,0,1-.671-.278L-.477-65.847a2.335,2.335,0,0,0-1.662-.688,2.335,2.335,0,0,0-1.662.688L-8.38-61.268a.949.949,0,0,1-1.342,0,.949.949,0,0,1,0-1.342l4.579-4.579a4.22,4.22,0,0,1,3-1.244,4.22,4.22,0,0,1,3,1.244L17.227-50.827a.949.949,0,0,1,0,1.342A.946.946,0,0,1,16.556-49.207Z" transform="translate(10 68.433)"/>
          </g>
          <g id="g6788" transform="translate(55.752 38.353)">
            <path id="path6790" d="M-4.383,2.9a.944.944,0,0,1-.483-.133.949.949,0,0,1-.332-1.3,5,5,0,0,0-.769-6.088L-9.722-8.38a.949.949,0,0,1,0-1.342.949.949,0,0,1,1.342,0l3.756,3.756a6.9,6.9,0,0,1,1.059,8.4A.949.949,0,0,1-4.383,2.9Z" transform="translate(10 10)"/>
          </g>
          <g id="g6792" transform="translate(50.135 43.97)">
            <path id="path6794" d="M-5.657-4.708a.946.946,0,0,1-.671-.278L-9.722-8.38a.949.949,0,0,1,0-1.342.949.949,0,0,1,1.342,0l3.394,3.394a.949.949,0,0,1,0,1.342A.946.946,0,0,1-5.657-4.708Z" transform="translate(10 10)"/>
          </g>
          <g id="g6796" transform="translate(35.139 46.921)">
            <path id="path6798" d="M-11.095-11.1h0a3.972,3.972,0,0,0,0,5.617l6.756,6.756a5.952,5.952,0,0,0,8.418,0L5.486-.131-5.478-11.1a3.971,3.971,0,0,0-5.617,0" transform="translate(12.258 12.259)" fill="#fe646f"/>
          </g>
          <g id="g6800" transform="translate(35.139 47.35)">
            <path id="path6802" d="M-20.751,0a3.969,3.969,0,0,0,.734,4.6l6.755,6.755a5.95,5.95,0,0,0,8.066.325l.014.014L-6.59,13.107a5.953,5.953,0,0,1-8.418,0L-21.763,6.35a3.971,3.971,0,0,1,0-5.616A3.913,3.913,0,0,1-20.751,0" transform="translate(22.927 0)" fill="#fd4755"/>
          </g>
          <g id="g6804" transform="translate(34.192 45.972)">
            <path id="path6806" d="M-156.676-145.093a6.9,6.9,0,0,1-4.883-2.024l-6.756-6.756a4.926,4.926,0,0,1,0-6.958,4.89,4.89,0,0,1,3.48-1.442h0a4.887,4.887,0,0,1,3.478,1.441l6.395,6.395a.949.949,0,0,1,0,1.342.949.949,0,0,1-1.342,0l-6.395-6.395a3,3,0,0,0-2.137-.885,3,3,0,0,0-2.138.886,3.026,3.026,0,0,0,0,4.274l6.756,6.756a5,5,0,0,0,6.088.769.949.949,0,0,1,1.3.332.949.949,0,0,1-.332,1.3A6.878,6.878,0,0,1-156.676-145.093Z" transform="translate(169.753 162.273)"/>
          </g>
          <g id="g6808" transform="translate(48.166 48.166)">
            <path id="path6810" d="M-21.883-127.537a7.832,7.832,0,0,1,0-11.077,7.832,7.832,0,0,1,11.077,0c.118.119.233.241.341.365-1.041,1.634,0,6.794-2.129,8.924s-7.225.828-8.925,2.128c-.124-.108-.245-.222-.364-.34" transform="translate(24.177 140.909)" fill="#ffdfcf"/>
          </g>
          <g id="g6812" transform="translate(48.166 49.153)">
            <path id="path6814" d="M-93.365-110.4c-2.437.7-5.809.139-7.131,1.15-.124-.109-.245-.223-.363-.34a7.832,7.832,0,0,1,0-11.077,7.847,7.847,0,0,1,1.726-1.307,7.832,7.832,0,0,0,1.3,9.354c.119.119.239.233.363.34a7.785,7.785,0,0,0,4.1,1.88" transform="translate(103.153 121.973)" fill="#ffcebf"/>
          </g>
          <g id="g6816" transform="translate(50.824 50.825)">
            <path id="path6818" d="M0-105.419a11.55,11.55,0,0,1,3.384-7.67,11.54,11.54,0,0,1,7.671-3.383,7.831,7.831,0,0,1-.341,10.712A7.832,7.832,0,0,1,0-105.419" transform="translate(0 116.472)" fill="#ffd15b"/>
          </g>
          <g id="g6820" transform="translate(50.823 56.852)">
            <path id="path6822" d="M-114.647-28.227a7.8,7.8,0,0,1-1.306,1.726,7.833,7.833,0,0,1-10.714.34,11.58,11.58,0,0,1,1.4-5.026A7.781,7.781,0,0,0-124-29.532c.119.119.239.233.363.34a7.835,7.835,0,0,0,8.991.964" transform="translate(126.666 31.187)" fill="#ffc344"/>
          </g>
          <g id="g6824" transform="translate(47.221 47.217)">
            <path id="path6826" d="M-25.355-133.347a8.724,8.724,0,0,1-6.21-2.572,8.792,8.792,0,0,1,0-12.419,8.724,8.724,0,0,1,6.21-2.572,8.724,8.724,0,0,1,6.21,2.572,8.724,8.724,0,0,1,2.572,6.21,8.724,8.724,0,0,1-2.572,6.21A8.724,8.724,0,0,1-25.355-133.347Zm0-15.666A6.839,6.839,0,0,0-30.223-147a6.892,6.892,0,0,0,0,9.735,6.839,6.839,0,0,0,4.868,2.016,6.839,6.839,0,0,0,4.868-2.016,6.839,6.839,0,0,0,2.016-4.868A6.839,6.839,0,0,0-20.488-147,6.839,6.839,0,0,0-25.355-149.012Z" transform="translate(34.133 150.91)"/>
          </g>
          <g id="g6828" transform="translate(49.876 49.876)">
            <path id="path6830" d="M-125.534,2.951h-.043a.949.949,0,0,1-.906-.99,12.5,12.5,0,0,1,3.66-8.3,12.5,12.5,0,0,1,8.3-3.66.949.949,0,0,1,.99.906.949.949,0,0,1-.906.99A10.605,10.605,0,0,0-121.481-5a10.605,10.605,0,0,0-3.106,7.042A.949.949,0,0,1-125.534,2.951Z" transform="translate(126.484 10)"/>
          </g>
          <g id="g6832" transform="translate(38.353 1.628)">
            <path id="path6834" d="M-9.051-60.58a.946.946,0,0,1-.671-.278.949.949,0,0,1,0-1.342l3.756-3.756a6.9,6.9,0,0,1,8.4-1.059.949.949,0,0,1,.332,1.3.949.949,0,0,1-1.3.332,5,5,0,0,0-6.088.768L-8.38-60.858A.946.946,0,0,1-9.051-60.58Z" transform="translate(10 67.98)"/>
          </g>
          <g id="g6836" transform="translate(43.97 9.353)">
            <path id="path6838" d="M-9.051-40.478a.946.946,0,0,1-.671-.278.949.949,0,0,1,0-1.342l3.395-3.394a.949.949,0,0,1,1.342,0,.949.949,0,0,1,0,1.342L-8.38-40.756A.946.946,0,0,1-9.051-40.478Z" transform="translate(10 45.771)"/>
          </g>
          <g id="g6840" transform="translate(46.921 11.897)">
            <path id="path6842" d="M-11.095-158.152h0a3.972,3.972,0,0,0,5.617,0l6.756-6.756a5.952,5.952,0,0,0,0-8.417L-.13-174.733l-10.964,10.964a3.972,3.972,0,0,0,0,5.617" transform="translate(12.258 174.733)" fill="#faf7f7"/>
          </g>
          <g id="g6844" transform="translate(46.921 11.896)">
            <path id="path6846" d="M-23.358-166.358a3.964,3.964,0,0,1-1.285-.86,3.971,3.971,0,0,1,0-5.616L-13.679-183.8l1.408,1.408a5.9,5.9,0,0,1,.673.8l-10.9,10.9a3.971,3.971,0,0,0-.86,4.331" transform="translate(25.807 183.8)" fill="#dedbee"/>
          </g>
          <g id="g6848" transform="translate(45.972 13.531)">
            <path id="path6850" d="M-157.352,7.056a4.9,4.9,0,0,1-3.479-1.439,4.89,4.89,0,0,1-1.442-3.48,4.887,4.887,0,0,1,1.441-3.479l6.395-6.395a.949.949,0,0,1,1.342,0,.949.949,0,0,1,0,1.342L-159.49,0a3,3,0,0,0-.885,2.137,3,3,0,0,0,.886,2.138,3.026,3.026,0,0,0,4.274,0l6.756-6.756a5,5,0,0,0,.769-6.088.949.949,0,0,1,.332-1.3.949.949,0,0,1,1.3.332,6.9,6.9,0,0,1-1.059,8.4l-6.756,6.756A4.9,4.9,0,0,1-157.352,7.056Z" transform="translate(162.273 10.002)"/>
          </g>
          <g id="g6852" transform="translate(48.166 2.902)">
            <path id="path6854" d="M-127.537-108.911a7.832,7.832,0,0,1-11.077,0,7.832,7.832,0,0,1,0-11.077c.119-.118.241-.233.365-.341,1.634,1.041,6.794,0,8.924,2.129s.828,7.225,2.128,8.925c-.108.124-.222.245-.34.364" transform="translate(140.909 120.329)" fill="#d78878"/>
          </g>
          <g id="g6856" transform="translate(48.166 2.901)">
            <path id="path6858" d="M-36.379-120.222a7.833,7.833,0,0,1-1.52-1.186,7.832,7.832,0,0,1,0-11.077c.119-.119.24-.234.364-.342,1.134.722,3.96.443,6.3.913a7.778,7.778,0,0,0-3.592,1.792c-.125.109-.247.224-.366.342a7.833,7.833,0,0,0-1.186,9.558" transform="translate(40.193 132.826)" fill="#ca6e59"/>
          </g>
          <g id="g6860" transform="translate(50.825 0.949)">
            <path id="path6862" d="M-105.419-124.068a11.55,11.55,0,0,1-7.67-3.384,11.54,11.54,0,0,1-3.383-7.671,7.831,7.831,0,0,1,10.712.341,7.832,7.832,0,0,1,.34,10.713" transform="translate(116.472 137.076)" fill="#7a6d79"/>
          </g>
          <g id="g6864" transform="translate(50.824 0.949)">
            <path id="path6866" d="M-11.054-62.117a11.546,11.546,0,0,1-1.159-4.56A7.832,7.832,0,0,1-1.5-66.335a7.833,7.833,0,0,1,1.186,1.52,7.833,7.833,0,0,0-9.192.844c-.125.109-.247.224-.366.342a7.786,7.786,0,0,0-1.182,1.513" transform="translate(12.213 68.629)" fill="#685e68"/>
          </g>
          <g id="g6868" transform="translate(47.217 0)">
            <path id="path6870" d="M-142.128-133.347a8.724,8.724,0,0,1-6.21-2.572,8.724,8.724,0,0,1-2.572-6.21,8.724,8.724,0,0,1,2.572-6.21,8.724,8.724,0,0,1,6.21-2.572,8.724,8.724,0,0,1,6.21,2.572,8.792,8.792,0,0,1,0,12.419A8.724,8.724,0,0,1-142.128-133.347Zm0-15.666A6.839,6.839,0,0,0-147-147a6.839,6.839,0,0,0-2.016,4.868A6.839,6.839,0,0,0-147-137.261a6.839,6.839,0,0,0,4.868,2.016,6.839,6.839,0,0,0,4.868-2.016,6.892,6.892,0,0,0,0-9.735A6.839,6.839,0,0,0-142.128-149.012Z" transform="translate(150.91 150.91)"/>
          </g>
          <g id="g6872" transform="translate(49.876 1.953)">
            <path id="path6874" d="M2,2.951H1.96a12.5,12.5,0,0,1-8.3-3.66A12.5,12.5,0,0,1-10-9.009.949.949,0,0,1-9.093-10a.949.949,0,0,1,.99.906A10.605,10.605,0,0,0-5-2.051,10.605,10.605,0,0,0,2.045,1.054.949.949,0,0,1,2,2.951Z" transform="translate(10 10)"/>
          </g>
          <g id="g6876" transform="translate(13.531 55.752)">
            <path id="path6878" d="M-121.925-2.6a6.877,6.877,0,0,1-3.515-.965.949.949,0,0,1-.332-1.3.949.949,0,0,1,1.3-.332,5,5,0,0,0,6.088-.768l3.756-3.756a.949.949,0,0,1,1.342,0,.949.949,0,0,1,0,1.342l-3.756,3.756A6.9,6.9,0,0,1-121.925-2.6Z" transform="translate(125.905 10)"/>
          </g>
          <g id="g6880" transform="translate(15.518 50.135)">
            <path id="path6882" d="M-44.823-4.708a.946.946,0,0,1-.671-.278.949.949,0,0,1,0-1.342L-42.1-9.722a.949.949,0,0,1,1.342,0,.949.949,0,0,1,0,1.342l-3.395,3.395A.946.946,0,0,1-44.823-4.708Z" transform="translate(45.772 10)"/>
          </g>
          <g id="g6884" transform="translate(2.581 35.139)">
            <path id="path6886" d="M-134.636-11.095h0a3.972,3.972,0,0,0-5.617,0l-6.756,6.756a5.952,5.952,0,0,0,0,8.418l1.408,1.408,10.964-10.964a3.972,3.972,0,0,0,0-5.617" transform="translate(148.752 12.258)" fill="#7bacdf"/>
          </g>
          <g id="g6888" transform="translate(2.58 35.139)">
            <path id="path6890" d="M-141.64-20.751a3.969,3.969,0,0,0-4.6.734L-153-13.262a5.95,5.95,0,0,0-.325,8.066l-.014.014-1.408-1.408a5.953,5.953,0,0,1,0-8.418l6.756-6.755a3.971,3.971,0,0,1,5.616,0,3.913,3.913,0,0,1,.734,1.012" transform="translate(156.49 22.927)" fill="#5f99d7"/>
          </g>
          <g id="g6892" transform="translate(1.628 34.192)">
            <path id="path6894" d="M-16.992-152.7a.948.948,0,0,1-.817-.465,6.9,6.9,0,0,1,1.059-8.4l6.756-6.756a4.926,4.926,0,0,1,6.958,0,4.89,4.89,0,0,1,1.442,3.48,4.887,4.887,0,0,1-1.441,3.479l-6.395,6.395a.949.949,0,0,1-1.342,0,.949.949,0,0,1,0-1.342l6.395-6.395a3,3,0,0,0,.885-2.137,3,3,0,0,0-.886-2.138,3.026,3.026,0,0,0-4.274,0l-6.756,6.756a5,5,0,0,0-.769,6.088.949.949,0,0,1-.332,1.3A.945.945,0,0,1-16.992-152.7Z" transform="translate(18.774 169.753)"/>
          </g>
          <g id="g6896" transform="translate(2.903 48.166)">
            <path id="path6898" d="M-3.244-21.883a7.832,7.832,0,0,1,11.077,0,7.832,7.832,0,0,1,0,11.077c-.119.118-.241.233-.365.341-1.634-1.041-6.794,0-8.924-2.129s-.828-7.225-2.128-8.925c.108-.124.222-.245.34-.364" transform="translate(3.584 24.177)" fill="#ffdfcf"/>
          </g>
          <g id="g6900" transform="translate(2.903 48.165)">
            <path id="path6902" d="M-10.97-93.365c-.7-2.437-.139-5.809-1.15-7.131.109-.124.223-.245.34-.363a7.832,7.832,0,0,1,11.077,0A7.847,7.847,0,0,1,.6-99.133a7.832,7.832,0,0,0-9.354,1.3c-.119.119-.233.239-.34.363a7.785,7.785,0,0,0-1.88,4.1" transform="translate(12.12 103.153)" fill="#ffcebf"/>
          </g>
          <g id="g6904" transform="translate(0.949 50.824)">
            <path id="path6906" d="M-18.636,0a11.55,11.55,0,0,1,7.67,3.384,11.54,11.54,0,0,1,3.383,7.671A7.831,7.831,0,0,1-18.3,10.713,7.832,7.832,0,0,1-18.636,0" transform="translate(20.59)" fill="#7a6d79"/>
          </g>
          <g id="g6908" transform="translate(0.949 50.823)">
            <path id="path6910" d="M-38.341-114.647a7.8,7.8,0,0,1-1.726-1.306,7.833,7.833,0,0,1-.34-10.714,11.577,11.577,0,0,1,5.026,1.4A7.781,7.781,0,0,0-37.037-124c-.119.119-.233.239-.34.363a7.835,7.835,0,0,0-.964,8.991" transform="translate(42.361 126.666)" fill="#685e68"/>
          </g>
          <g id="g6912" transform="translate(0.004 47.217)">
            <path id="path6914" d="M-25.355-34.176a8.724,8.724,0,0,1,6.21,2.572,8.724,8.724,0,0,1,2.572,6.21,8.724,8.724,0,0,1-2.572,6.21,8.724,8.724,0,0,1-6.21,2.572,8.724,8.724,0,0,1-6.21-2.572,8.792,8.792,0,0,1,0-12.419A8.724,8.724,0,0,1-25.355-34.176Zm0,15.666a6.839,6.839,0,0,0,4.868-2.016,6.839,6.839,0,0,0,2.016-4.868,6.839,6.839,0,0,0-2.016-4.868,6.839,6.839,0,0,0-4.868-2.016,6.839,6.839,0,0,0-4.868,2.016,6.892,6.892,0,0,0,0,9.735A6.839,6.839,0,0,0-25.355-18.51Z" transform="translate(34.133 34.176)"/>
          </g>
          <g id="g6916" transform="translate(1.953 49.876)">
            <path id="path6918" d="M-114.482-113.532a.949.949,0,0,1-.947-.907,10.605,10.605,0,0,0-3.106-7.042,10.605,10.605,0,0,0-7.042-3.106.949.949,0,0,1-.906-.99.949.949,0,0,1,.99-.906,12.5,12.5,0,0,1,8.3,3.66,12.5,12.5,0,0,1,3.66,8.3.949.949,0,0,1-.906.99Z" transform="translate(126.484 126.484)"/>
          </g>
          <g id="g6920" transform="translate(1.628 13.531)">
            <path id="path6922" d="M-61.529-113.009a.946.946,0,0,1-.671-.278l-3.756-3.756a6.9,6.9,0,0,1-1.059-8.4.949.949,0,0,1,1.3-.332.949.949,0,0,1,.332,1.3,5,5,0,0,0,.769,6.088l3.756,3.756a.949.949,0,0,1,0,1.342A.946.946,0,0,1-61.529-113.009Z" transform="translate(67.98 125.905)"/>
          </g>
          <g id="g6924" transform="translate(9.353 15.518)">
            <path id="path6926" d="M-41.427-40.48a.946.946,0,0,1-.671-.278l-3.394-3.395a.949.949,0,0,1,0-1.342.949.949,0,0,1,1.342,0l3.394,3.395a.949.949,0,0,1,0,1.342A.946.946,0,0,1-41.427-40.48Z" transform="translate(45.771 45.772)"/>
          </g>
          <g id="g6928" transform="translate(11.897 2.581)">
            <path id="path6930" d="M-158.152-134.636h0a3.972,3.972,0,0,0,0-5.617l-6.756-6.756a5.952,5.952,0,0,0-8.417,0l-1.408,1.408,10.964,10.964a3.972,3.972,0,0,0,5.617,0" transform="translate(174.733 148.752)" fill="#bbec6c"/>
          </g>
          <g id="g6932" transform="translate(11.897 3.65)">
            <path id="path6934" d="M-166.358-112.173a3.964,3.964,0,0,1-.86,1.285,3.971,3.971,0,0,1-5.616,0L-183.8-121.852l1.408-1.408a5.89,5.89,0,0,1,.8-.673l10.9,10.9a3.971,3.971,0,0,0,4.331.86" transform="translate(183.8 123.933)" fill="#a2e62e"/>
          </g>
          <g id="g6936" transform="translate(13.531 1.628)">
            <path id="path6938" d="M2.137-1.594A4.886,4.886,0,0,1-1.342-3.035L-7.737-9.43a.949.949,0,0,1,0-1.342.949.949,0,0,1,1.342,0L0-4.377a3,3,0,0,0,2.137.885,3,3,0,0,0,2.138-.886,3.026,3.026,0,0,0,0-4.274l-6.756-6.756a5,5,0,0,0-6.088-.769.949.949,0,0,1-1.3-.332.949.949,0,0,1,.332-1.3,6.9,6.9,0,0,1,8.4,1.059L5.617-9.994a4.926,4.926,0,0,1,0,6.958,4.89,4.89,0,0,1-3.48,1.442Z" transform="translate(10.002 18.774)"/>
          </g>
          <g id="g6940" transform="translate(2.902 2.903)">
            <path id="path6942" d="M-108.911-3.244a7.832,7.832,0,0,1,0,11.077,7.832,7.832,0,0,1-11.077,0c-.118-.118-.233-.24-.341-.365,1.041-1.634,0-6.794,2.129-8.924s7.225-.827,8.925-2.128c.124.108.245.222.364.34" transform="translate(120.329 3.584)" fill="#ffdfcf"/>
          </g>
          <g id="g6944" transform="translate(2.902 7.658)">
            <path id="path6946" d="M-120.222-49.055a7.833,7.833,0,0,1-1.186,1.52,7.832,7.832,0,0,1-11.077,0c-.119-.119-.234-.24-.342-.364.722-1.134.443-3.96.913-6.3a7.777,7.777,0,0,0,1.792,3.592c.109.125.224.247.342.366a7.833,7.833,0,0,0,9.558,1.186" transform="translate(132.826 54.199)" fill="#ffcebf"/>
          </g>
          <g id="g6948" transform="translate(0.949 0.949)">
            <path id="path6950" d="M-124.068-18.636a11.55,11.55,0,0,1-3.384,7.67,11.54,11.54,0,0,1-7.671,3.383,7.831,7.831,0,0,1,.341-10.712,7.832,7.832,0,0,1,10.713-.34" transform="translate(137.076 20.59)" fill="#b98080"/>
          </g>
          <g id="g6952" transform="translate(0.949 2.058)">
            <path id="path6954" d="M-62.117-102.434a11.546,11.546,0,0,1-4.56,1.159,7.832,7.832,0,0,1,.342-10.713,7.834,7.834,0,0,1,1.52-1.186,7.833,7.833,0,0,0,.844,9.192c.109.125.224.247.342.366a7.786,7.786,0,0,0,1.513,1.182" transform="translate(68.629 113.173)" fill="#ae6c6c"/>
          </g>
          <g id="g6956" transform="translate(0 0)">
            <path id="path6958" d="M-142.128-34.176a8.724,8.724,0,0,1,6.21,2.572,8.792,8.792,0,0,1,0,12.419,8.724,8.724,0,0,1-6.21,2.572,8.724,8.724,0,0,1-6.21-2.572,8.724,8.724,0,0,1-2.572-6.21,8.724,8.724,0,0,1,2.572-6.21A8.724,8.724,0,0,1-142.128-34.176Zm0,15.666a6.839,6.839,0,0,0,4.868-2.016,6.892,6.892,0,0,0,0-9.735,6.839,6.839,0,0,0-4.868-2.016A6.839,6.839,0,0,0-147-30.262a6.839,6.839,0,0,0-2.016,4.868A6.839,6.839,0,0,0-147-20.527,6.839,6.839,0,0,0-142.128-18.51Z" transform="translate(150.91 34.176)"/>
          </g>
          <g id="g6960" transform="translate(1.953 1.953)">
            <path id="path6962" d="M-9.052-113.532a.949.949,0,0,1-.947-.907.949.949,0,0,1,.906-.99,10.605,10.605,0,0,0,7.042-3.106,10.605,10.605,0,0,0,3.106-7.042.949.949,0,0,1,.99-.906.949.949,0,0,1,.906.99,12.5,12.5,0,0,1-3.66,8.3,12.5,12.5,0,0,1-8.3,3.66Z" transform="translate(10 126.484)"/>
          </g>
        </g>
      </g>
    </g>
  </g>
</svg>
