<svg id="Grupo_1106740" data-name="Grupo 1106740" xmlns="http://www.w3.org/2000/svg" width="90.914" height="90.914" viewBox="0 0 90.914 90.914">
  <g id="Grupo_1106151" data-name="Grupo 1106151" transform="translate(0)">
    <rect id="Rect치ngulo_400898" data-name="Rect치ngulo 400898" width="90.914" height="90.914" rx="45.457" transform="translate(0.001)" fill="#febdaf" opacity="0.859"/>
    <rect id="Rect치ngulo_400907" data-name="Rect치ngulo 400907" width="90.914" height="90.914" rx="45.457" transform="translate(0)" fill="none"/>
  </g>
  <g id="lista-de-verificacion_1_" data-name="lista-de-verificacion (1)" transform="translate(14 14)">
    <g id="Grupo_1106738" data-name="Grupo 1106738" transform="translate(1 1)">
      <g id="Grupo_1106727" data-name="Grupo 1106727" transform="translate(0)">
        <path id="Trazado_877608" data-name="Trazado 877608" d="M12.58,12.63l-5.2,2.31A4.011,4.011,0,0,0,5,18.6V23H4a2.888,2.888,0,0,0-1.21.26L1.54,18.89A14.033,14.033,0,0,1,15.03,1h7.94A14.034,14.034,0,0,1,36.46,18.89l-1.25,4.37A2.888,2.888,0,0,0,34,23H33V19a4,4,0,0,0-4-4H20.21a13.479,13.479,0,0,1-7.63-2.37Z" transform="translate(-1 -1)" fill="#b27946"/>
      </g>
      <g id="Grupo_1106728" data-name="Grupo 1106728" transform="translate(4 38.11)">
        <path id="Trazado_877609" data-name="Trazado 877609" d="M33,46.7a6.3,6.3,0,0,0-3.24-5.5l-3.74-2.09h-.01A13.68,13.68,0,0,1,22,40.68V41h2a1,1,0,0,1,1,1v5H23v6h2v3a1,1,0,0,1-1,1H14a1,1,0,0,1-1-1V42a1,1,0,0,1,1-1h2v-.32a13.68,13.68,0,0,1-4.01-1.57h-.01L8.53,41.04l-.29.16A6.285,6.285,0,0,0,9.91,52.84L9,61H29l-.91-8.16A6.261,6.261,0,0,0,33,46.7Z" transform="translate(-5 -39.11)" fill="#fcd770"/>
      </g>
      <g id="Grupo_1106729" data-name="Grupo 1106729" transform="translate(42 26)">
        <path id="Trazado_877610" data-name="Trazado 877610" d="M57,29.58V40a1,1,0,0,1-1,1H44a1,1,0,0,1-1-1V28a1,1,0,0,1,1-1H56a1,1,0,0,1,1,1Z" transform="translate(-43 -27)" fill="#ff826e"/>
      </g>
      <g id="Grupo_1106730" data-name="Grupo 1106730" transform="translate(42 6)">
        <path id="Trazado_877611" data-name="Trazado 877611" d="M57,9.58V20a1,1,0,0,1-1,1H44a1,1,0,0,1-1-1V8a1,1,0,0,1,1-1H56a1,1,0,0,1,1,1Z" transform="translate(-43 -7)" fill="#ff826e"/>
      </g>
      <g id="Grupo_1106731" data-name="Grupo 1106731" transform="translate(12 40)">
        <path id="Trazado_877612" data-name="Trazado 877612" d="M25,53v3a1,1,0,0,1-1,1H14a1,1,0,0,1-1-1V42a1,1,0,0,1,1-1h2v1a1,1,0,0,0,1,1h4a1,1,0,0,0,1-1V41h2a1,1,0,0,1,1,1v5H20a3,3,0,0,0,0,6h5Z" transform="translate(-13 -41)" fill="#e6e9ed"/>
      </g>
      <g id="Grupo_1106732" data-name="Grupo 1106732" transform="translate(15 38)">
        <path id="Trazado_877613" data-name="Trazado 877613" d="M22,40.68V42a1,1,0,0,1-1,1H17a1,1,0,0,1-1-1V40a1,1,0,0,1,1-1h4a1,1,0,0,1,1,1Z" transform="translate(-16 -39)" fill="#b4dd7f"/>
      </g>
      <g id="Grupo_1106733" data-name="Grupo 1106733" transform="translate(16 46)">
        <path id="Trazado_877614" data-name="Trazado 877614" d="M23,47v6H20a3,3,0,0,1,0-6Z" transform="translate(-17 -47)" fill="#f0d0b4"/>
      </g>
      <g id="Grupo_1106734" data-name="Grupo 1106734" transform="translate(31.86 22)">
        <path id="Trazado_877615" data-name="Trazado 877615" d="M35.21,23.26A3,3,0,0,1,34,29H32.86A14.6,14.6,0,0,0,33,27V23h1A2.888,2.888,0,0,1,35.21,23.26Z" transform="translate(-32.86 -23)" fill="#f0d0b4"/>
      </g>
      <g id="Grupo_1106735" data-name="Grupo 1106735" transform="translate(4 11.63)">
        <path id="Trazado_877616" data-name="Trazado 877616" d="M33,23v4a14.6,14.6,0,0,1-.14,2,14.018,14.018,0,0,1-6.84,10.11h-.01A13.68,13.68,0,0,1,22,40.68V40a1,1,0,0,0-1-1H17a1,1,0,0,0-1,1v.68a13.68,13.68,0,0,1-4.01-1.57h-.01A14.018,14.018,0,0,1,5.14,29,14.6,14.6,0,0,1,5,27V18.6a4.011,4.011,0,0,1,2.38-3.66l5.2-2.31A13.479,13.479,0,0,0,20.21,15H29a4,4,0,0,1,4,4Z" transform="translate(-5 -12.63)" fill="#f0d0b4"/>
      </g>
      <g id="Grupo_1106736" data-name="Grupo 1106736" transform="translate(0 22)">
        <path id="Trazado_877617" data-name="Trazado 877617" d="M5,23v4a14.6,14.6,0,0,0,.14,2H4a3,3,0,0,1-1.21-5.74A2.888,2.888,0,0,1,4,23Z" transform="translate(-1 -23)" fill="#f0d0b4"/>
      </g>
      <g id="Grupo_1106737" data-name="Grupo 1106737" transform="translate(14 30)">
        <path id="Trazado_877618" data-name="Trazado 877618" d="M23,31l-.27,1.09a3.846,3.846,0,0,1-7.46,0L15,31Z" transform="translate(-15 -31)" fill="#ff826e"/>
      </g>
    </g>
    <g id="Grupo_1106739" data-name="Grupo 1106739">
      <path id="Trazado_877619" data-name="Trazado 877619" d="M14.3,32.332a4.843,4.843,0,0,0,9.4,0L24.281,30H13.719ZM21.715,32a2.843,2.843,0,0,1-5.43,0Z" transform="translate(0)"/>
      <path id="Trazado_877620" data-name="Trazado 877620" d="M16,24a4,4,0,1,0-8,0h2a2,2,0,0,1,4,0Z" transform="translate(0)"/>
      <path id="Trazado_877621" data-name="Trazado 877621" d="M26,20a4,4,0,0,0-4,4h2a2,2,0,1,1,4,0h2A4,4,0,0,0,26,20Z" transform="translate(0)"/>
      <path id="Trazado_877622" data-name="Trazado 877622" d="M44,22H56a2,2,0,0,0,2-2V10.023l4.676-4.286L61.324,4.262,57.9,7.4A2,2,0,0,0,56,6H44a2,2,0,0,0-2,2V20A2,2,0,0,0,44,22ZM44,8H56V9.143l-5.97,5.473-2.323-2.323-1.414,1.414,3.677,3.677L56,11.856V20H44Z" transform="translate(0)"/>
      <path id="Trazado_877623" data-name="Trazado 877623" d="M61.324,24.263,57.9,27.4A2,2,0,0,0,56,26H44a2,2,0,0,0-2,2V40a2,2,0,0,0,2,2H56a2,2,0,0,0,2-2V30.023l4.676-4.286ZM56,40H44V28H56v1.143l-5.97,5.473-2.323-2.323-1.414,1.414,3.677,3.677L56,31.856Z" transform="translate(0)"/>
      <path id="Trazado_877624" data-name="Trazado 877624" d="M42,46h6v2H42Z" transform="translate(0)"/>
      <path id="Trazado_877625" data-name="Trazado 877625" d="M50,46h8v2H50Z" transform="translate(0)"/>
      <path id="Trazado_877626" data-name="Trazado 877626" d="M42,50H58v2H42Z" transform="translate(0)"/>
      <path id="Trazado_877627" data-name="Trazado 877627" d="M42,54h2v2H42Z" transform="translate(0)"/>
      <path id="Trazado_877628" data-name="Trazado 877628" d="M46,54h2v2H46Z" transform="translate(0)"/>
      <path id="Trazado_877629" data-name="Trazado 877629" d="M50,54h2v2H50Z" transform="translate(0)"/>
      <path id="Trazado_877630" data-name="Trazado 877630" d="M38,15.034A15.051,15.051,0,0,0,22.966,0H15.034A15.032,15.032,0,0,0,.579,19.164l1.04,3.641A3.987,3.987,0,0,0,4,30h.32a15.151,15.151,0,0,0,5.754,9.037l-1.267.7L7.8,38.4,6.2,39.6l.875,1.166A7.278,7.278,0,0,0,8.821,53.559L7.883,62H30.117l-.938-8.441a7.289,7.289,0,0,0,1.069-13.232l-2.321-1.29A15.159,15.159,0,0,0,33.681,30H34a3.987,3.987,0,0,0,2.381-7.195l1.04-3.641A15.018,15.018,0,0,0,38,15.034ZM4,28a2,2,0,0,1,0-4v3c0,.336.021.668.044,1Zm8,12.255c.2.108.411.206.62.305A1.989,1.989,0,0,0,12,42v2l-1.983-2.644ZM21,44a2,2,0,0,0,2-2h1v4H20a4,4,0,0,0,0,8h4v2H14V42h1a2,2,0,0,0,2,2Zm-4-2V40h4v2Zm3,10a2,2,0,0,1,0-4h2v4ZM6,46.7a5.29,5.29,0,0,1,2.275-4.338l2.754,3.672a4.367,4.367,0,0,0-2.736,1.255l1.415,1.414A2.394,2.394,0,0,1,11.414,48H12v4h-.7A5.3,5.3,0,0,1,6,46.7ZM27.883,60H10.117l.669-6.026c.169.012.338.026.509.026H12v2a2,2,0,0,0,2,2H24a2,2,0,0,0,2-2V54h.7c.172,0,.34-.014.509-.026Zm1.393-17.925A5.3,5.3,0,0,1,26.7,52H24V48h2.586a2.4,2.4,0,0,1,1.707.707l1.415-1.414A4.385,4.385,0,0,0,26.586,46H26V42a1.989,1.989,0,0,0-.619-1.44c.208-.1.417-.2.62-.305ZM32,27a13.082,13.082,0,0,1-9.1,12.4A2,2,0,0,0,21,38H17a2,2,0,0,0-1.9,1.4A13.082,13.082,0,0,1,6,27V18.6a3,3,0,0,1,1.782-2.741l4.73-2.1A14.438,14.438,0,0,0,20.211,16H29a3,3,0,0,1,3,3Zm2,1h-.044c.023-.332.044-.664.044-1V24a2,2,0,1,1,0,4Zm0-6V19a5.006,5.006,0,0,0-5-5H20.211A12.448,12.448,0,0,1,9.832,8.445L8.168,9.555A14.5,14.5,0,0,0,10.66,12.39L6.97,14.03A5.005,5.005,0,0,0,4,18.6V22a3.973,3.973,0,0,0-.516.052L2.5,18.615A13.033,13.033,0,0,1,15.034,2h7.932A13.036,13.036,0,0,1,35.5,18.615l-.982,3.437A4.006,4.006,0,0,0,34,22Z" transform="translate(0)"/>
    </g>
  </g>
</svg>
