<svg xmlns="http://www.w3.org/2000/svg" xmlns:xlink="http://www.w3.org/1999/xlink" width="90.915" height="90.914" viewBox="0 0 90.915 90.914">
  <defs>
    <clipPath id="clip-path">
      <path id="path6636" d="M0-682.665H59.76v59.76H0Z" transform="translate(0 682.665)"/>
    </clipPath>
  </defs>
  <g id="Grupo_1106742" data-name="Grupo 1106742" transform="translate(5101 4031)">
    <g id="Grupo_1106152" data-name="Grupo 1106152" transform="translate(-5101 -4031)">
      <rect id="Rect치ngulo_400898" data-name="Rect치ngulo 400898" width="90.914" height="90.914" rx="45.457" transform="translate(0.001)" fill="#febdaf" opacity="0.859"/>
      <rect id="Rect치ngulo_400907" data-name="Rect치ngulo 400907" width="90.914" height="90.914" rx="45.457" transform="translate(0)" fill="none"/>
    </g>
    <g id="g6630" transform="translate(-5085.727 -3333.061)">
      <g id="g6632" transform="translate(0 -682.665)">
        <g id="g6634" transform="translate(0 0)" clip-path="url(#clip-path)">
          <g id="g6640" transform="translate(9.975 0.875)">
            <path id="path6642" d="M0-105.6V-76.7H27.585V-105.6a10.13,10.13,0,0,0-11.049-10.089l-1.932.176a8.955,8.955,0,0,1-1.623,0l-1.932-.176A10.13,10.13,0,0,0,0-105.6" transform="translate(0 115.733)" fill="#fdbd37"/>
          </g>
          <g id="g6644" transform="translate(23.904 0.875)">
            <path id="path6646" d="M-27.175-.444l-1.932.176c-.225.021-.45.03-.676.034a10.136,10.136,0,0,1,7.872,9.879V38.551h5.785V9.644A10.13,10.13,0,0,0-27.175-.444" transform="translate(29.783 0.487)" fill="#fa9a39"/>
          </g>
          <g id="g6648" transform="translate(3.187 26.257)">
            <path id="path6650" d="M-389.985-121.08h0a37.158,37.158,0,0,0-10.089-3.411,2.832,2.832,0,0,1-2.316-2.787V-132.7h-8.856v5.418a2.832,2.832,0,0,1-2.316,2.787,37.154,37.154,0,0,0-10.089,3.411h0a6.847,6.847,0,0,0-3.748,6.105v13.542a1.363,1.363,0,0,0,1.363,1.363h39.8v-14.906a6.847,6.847,0,0,0-3.748-6.105" transform="translate(427.399 132.696)" fill="#fed6a6"/>
          </g>
          <g id="g6652" transform="translate(22.444 26.257)">
            <path id="path6654" d="M-189.255-121.08h0a37.158,37.158,0,0,0-10.089-3.411,2.832,2.832,0,0,1-2.316-2.787V-132.7h-5.751v9.124a2.832,2.832,0,0,0,2.316,2.787,37.159,37.159,0,0,1,10.089,3.411,6.847,6.847,0,0,1,3.747,6.105v11.2h5.751v-14.906a6.847,6.847,0,0,0-3.748-6.105" transform="translate(207.411 132.696)" fill="#efc79c"/>
          </g>
          <g id="g6656" transform="translate(3.187 33.669)">
            <path id="path6658" d="M-389.985-43.825h0a37.158,37.158,0,0,0-10.089-3.411,2.817,2.817,0,0,1-1.5-.793h0l-2.225,7.941a6.153,6.153,0,0,1-6.043,0l-2.225-7.941a2.819,2.819,0,0,1-1.5.793,37.156,37.156,0,0,0-10.089,3.411A6.847,6.847,0,0,0-427.4-37.72v13.542a1.363,1.363,0,0,0,1.363,1.363h39.8V-37.761a6.779,6.779,0,0,0-3.748-6.064" transform="translate(427.399 48.029)" fill="#51a1c8"/>
          </g>
          <g id="g6660" transform="translate(27.575 33.669)">
            <path id="path6662" d="M-135.769-43.825h0a37.158,37.158,0,0,0-10.089-3.411,2.817,2.817,0,0,1-1.5-.793h0l-1.438,5.133a37.16,37.16,0,0,1,7.274,2.777,6.847,6.847,0,0,1,3.747,6.105v11.2h5.751V-37.72a6.847,6.847,0,0,0-3.748-6.105" transform="translate(148.794 48.029)" fill="#4497b7"/>
          </g>
          <g id="g6664" transform="translate(9.975 13.748)">
            <path id="path6666" d="M-42.553,0h-1.61a2.473,2.473,0,0,0-2.472,2.474v1.17a2.473,2.473,0,0,0,2.472,2.474h1.61Z" transform="translate(46.636)" fill="#fed6a6"/>
          </g>
          <g id="g6668" transform="translate(33.478 13.748)">
            <path id="path6670" d="M0,0H1.61A2.473,2.473,0,0,1,4.082,2.474v1.17A2.473,2.473,0,0,1,1.61,6.118H0Z" fill="#fed6a6"/>
          </g>
          <g id="g6672" transform="translate(13.337 7.736)">
            <path id="path6674" d="M-105.838-1.152a18.3,18.3,0,0,1-9.8,4.6.4.4,0,0,0-.352.4l.032,8.385c0,6.913,7.257,10.168,10.4,10.235,3.142-.067,10.4-3.322,10.4-10.235l.032-8.385a.4.4,0,0,0-.352-.4,18.3,18.3,0,0,1-9.8-4.6.4.4,0,0,0-.554,0" transform="translate(115.992 1.262)" fill="#ffe3c2"/>
          </g>
          <g id="g6676" transform="translate(20.876 10.804)">
            <path id="path6678" d="M-135.2-17.143a18.9,18.9,0,0,1-5.45-1.645l-.014,10.433c0,5.215-4.13,8.348-7.507,9.6a9.312,9.312,0,0,0,2.892.634c3.142-.067,10.4-3.322,10.4-10.235l.032-8.385a.4.4,0,0,0-.352-.4" transform="translate(148.172 18.788)" fill="#f7d6b5"/>
          </g>
          <g id="g6680" transform="translate(22.686 17.645)">
            <path id="path6682" d="M-7.993-5.558h-.766A1.243,1.243,0,0,1-10-6.8V-9.125A.875.875,0,0,1-9.125-10a.875.875,0,0,1,.875.875v1.816h.256a.875.875,0,0,1,.875.875A.875.875,0,0,1-7.993-5.558Z" transform="translate(10 10)"/>
          </g>
          <g id="g6684" transform="translate(19.415 23.692)">
            <path id="path6686" d="M-5.649-6.561a4.946,4.946,0,0,1-4.217-2.1.875.875,0,0,1,.272-1.208.875.875,0,0,1,1.208.272A3.241,3.241,0,0,0-5.649-8.312,3.241,3.241,0,0,0-2.911-9.594.875.875,0,0,1-1.7-9.866a.875.875,0,0,1,.272,1.208A4.946,4.946,0,0,1-5.649-6.561Z" transform="translate(10.001 10.001)"/>
          </g>
          <g id="g6688" transform="translate(28.215 15.482)">
            <path id="path6690" d="M-9.125-7.19A.875.875,0,0,1-10-8.065V-9.125A.875.875,0,0,1-9.125-10a.875.875,0,0,1,.875.875v1.059A.875.875,0,0,1-9.125-7.19Z" transform="translate(10 10)"/>
          </g>
          <g id="g6692" transform="translate(17.569 15.482)">
            <path id="path6694" d="M-9.125-7.19A.875.875,0,0,1-10-8.065V-9.125A.875.875,0,0,1-9.125-10a.875.875,0,0,1,.875.875v1.059A.875.875,0,0,1-9.125-7.19Z" transform="translate(10 10)"/>
          </g>
          <g id="g6696" transform="translate(8.833 50.181)">
            <path id="path6698" d="M-9.125-89.847A.875.875,0,0,1-10-90.723v-7.828a.875.875,0,0,1,.875-.875.875.875,0,0,1,.875.875v7.828A.875.875,0,0,1-9.125-89.847Z" transform="translate(10 99.426)"/>
          </g>
          <g id="g6700" transform="translate(11.267 33.669)">
            <path id="path6702" d="M-130.3-195.179l-5.246-18.725a14.414,14.414,0,0,0-2.97.516,3.066,3.066,0,0,0-1.365.867l-2.821,3.206a.394.394,0,0,0,.159.629l4.224,1.565a.394.394,0,0,1,.2.579l-1.094,1.737a.394.394,0,0,0,.05.484Z" transform="translate(142.804 213.903)" fill="#3990b2"/>
          </g>
          <g id="g6704" transform="translate(23.768 33.669)">
            <path id="path6706" d="M0-195.179,5.246-213.9a14.415,14.415,0,0,1,2.97.516,3.066,3.066,0,0,1,1.365.867l2.821,3.206a.394.394,0,0,1-.159.629l-4.224,1.565a.394.394,0,0,0-.2.579L8.917-204.8a.394.394,0,0,1-.05.484Z" transform="translate(0 213.903)" fill="#3990b2"/>
          </g>
          <g id="g6708" transform="translate(20.746 41.609)">
            <path id="path6710" d="M0,0,3.021,10.784,6.043,0A6.152,6.152,0,0,1,0,0" fill="#fc6a58"/>
          </g>
          <g id="g6712" transform="translate(38.571 36.771)">
            <path id="path6714" d="M-96.142-48.5a.875.875,0,0,1-.875-.875v-2.571c0-.225-.258-.415-.563-.415h-5.471c-.305,0-.563.19-.563.415v2.571a.875.875,0,0,1-.875.875.875.875,0,0,1-.875-.875v-2.571a2.246,2.246,0,0,1,2.314-2.165h5.471a2.246,2.246,0,0,1,2.314,2.165v2.571A.875.875,0,0,1-96.142-48.5Z" transform="translate(105.365 54.108)"/>
          </g>
          <g id="g6716" transform="translate(30.667 41.507)">
            <path id="path6718" d="M-242.055,0h-20.538a2.684,2.684,0,0,0-2.684,2.683v12.01a2.684,2.684,0,0,0,2.684,2.683h20.538a2.683,2.683,0,0,0,2.683-2.683V2.683A2.683,2.683,0,0,0-242.055,0" transform="translate(265.277)" fill="#d08f61"/>
          </g>
          <g id="g6720" transform="translate(48.477 41.507)">
            <path id="path6722" d="M-56.412,0h-5.412a2.311,2.311,0,0,1,2.311,2.311V15.066a2.311,2.311,0,0,1-2.311,2.311h5.412a2.683,2.683,0,0,0,2.683-2.683V2.683A2.683,2.683,0,0,0-56.412,0" transform="translate(61.824)" fill="#c67f4f"/>
          </g>
          <g id="g6724" transform="translate(30.67 41.507)">
            <path id="path6726" d="M-269.967-27.391a2.682,2.682,0,0,0-2.681-2.628h-20.538a2.682,2.682,0,0,0-2.681,2.628,5.641,5.641,0,0,0,5.639,5.53h14.622a5.641,5.641,0,0,0,5.639-5.53" transform="translate(295.867 30.019)" fill="#8b5f46"/>
          </g>
          <g id="g6728" transform="translate(48.477 41.507)">
            <path id="path6730" d="M-84.355-27.391c0-.011,0-.024,0-.035a2.683,2.683,0,0,0-2.681-2.593h-5.412a2.311,2.311,0,0,1,2.311,2.311v5.847h.143a5.641,5.641,0,0,0,5.639-5.53" transform="translate(92.448 30.019)" fill="#844535"/>
          </g>
          <g id="g6732" transform="translate(40.81 48.249)">
            <path id="path6734" d="M-53.645-29.528h-4.672A.474.474,0,0,1-58.792-30v-1.884a.474.474,0,0,1,.474-.474h4.672a.474.474,0,0,1,.474.474V-30a.474.474,0,0,1-.474.474" transform="translate(58.792 32.361)" fill="#e4ebf0"/>
          </g>
          <g id="g6736" transform="translate(17.646 29.281)">
            <path id="path6738" d="M-18.471-4.737a.872.872,0,0,1-.615-.252.875.875,0,0,1-.008-1.238,1.951,1.951,0,0,0,.566-1.379V-9.125A.875.875,0,0,1-17.653-10a.875.875,0,0,1,.875.875v1.518A3.692,3.692,0,0,1-17.848-5,.873.873,0,0,1-18.471-4.737Z" transform="translate(19.347 10)"/>
          </g>
          <g id="g6740" transform="translate(27.32 29.281)">
            <path id="path6742" d="M-18.276-45.118a3.692,3.692,0,0,1-1.07-2.608v-1.519a.875.875,0,0,1,.875-.875.875.875,0,0,1,.875.875v1.519a1.951,1.951,0,0,0,.566,1.379Z" transform="translate(19.347 50.12)"/>
          </g>
          <g id="g6744" transform="translate(10.391 32.793)">
            <path id="path6746" d="M-139.426-203.428a.875.875,0,0,1-.629-.266l-8.867-9.14a1.266,1.266,0,0,1-.163-1.56l.778-1.235-3.668-1.359a1.269,1.269,0,0,1-.79-.879,1.269,1.269,0,0,1,.277-1.149l2.821-3.206a3.933,3.933,0,0,1,1.754-1.122,15.188,15.188,0,0,1,3.186-.557.875.875,0,0,1,.9.638l5.246,18.725a.875.875,0,0,1-.407,1A.874.874,0,0,1-139.426-203.428Zm-7.975-10.353,6.2,6.393-4.118-14.7a11.542,11.542,0,0,0-2.056.408,2.186,2.186,0,0,0-.977.613l-2.358,2.68,3.567,1.322a1.264,1.264,0,0,1,.761.782,1.264,1.264,0,0,1-.128,1.084Z" transform="translate(152.802 223.904)"/>
          </g>
          <g id="g6748" transform="translate(19.871 40.734)">
            <path id="path6750" d="M-9.125-10a.874.874,0,0,1,.43.113,5.288,5.288,0,0,0,2.592.68,5.287,5.287,0,0,0,2.591-.68.875.875,0,0,1,.97.074.875.875,0,0,1,.3.925L-5.261,1.9a.875.875,0,0,1-.843.639A.875.875,0,0,1-6.946,1.9L-9.968-8.888a.875.875,0,0,1,.3-.925A.875.875,0,0,1-9.125-10ZM-6.1-7.456a7.029,7.029,0,0,1-1.7-.21l1.7,6.081,1.7-6.081A7.029,7.029,0,0,1-6.1-7.456Z" transform="translate(10 10)"/>
          </g>
          <g id="g6752" transform="translate(22.892 32.793)">
            <path id="path6754" d="M-104.182-82.668a.873.873,0,0,1-.436-.116.875.875,0,0,1-.407-1l5.246-18.725a.875.875,0,0,1,.9-.638,15.18,15.18,0,0,1,3.186.557,3.931,3.931,0,0,1,1.754,1.122l2.821,3.206a1.269,1.269,0,0,1,.278,1.149,1.269,1.269,0,0,1-.79.879L-95.3-94.87l.182.288a.875.875,0,0,1-.274,1.207.875.875,0,0,1-1.207-.274l-.5-.79a1.264,1.264,0,0,1-.128-1.085,1.264,1.264,0,0,1,.761-.782l3.567-1.322-2.358-2.68a2.184,2.184,0,0,0-.977-.612,11.508,11.508,0,0,0-2.056-.409l-4.118,14.7,4.5-4.636a.875.875,0,0,1,1.238-.019.875.875,0,0,1,.019,1.238l-6.9,7.112A.875.875,0,0,1-104.182-82.668Z" transform="translate(105.057 103.144)"/>
          </g>
          <g id="g6756" transform="translate(2.311 50.832)">
            <path id="path6758" d="M21.039-1.073h-28.8A2.241,2.241,0,0,1-10-3.311V-9.125A.875.875,0,0,1-9.125-10a.875.875,0,0,1,.875.875v5.813a.488.488,0,0,0,.488.488h28.8a.875.875,0,0,1,.875.875A.875.875,0,0,1,21.039-1.073Z" transform="translate(10 10)"/>
          </g>
          <g id="g6760" transform="translate(2.311 34.242)">
            <path id="path6762" d="M-134.111,4.263a.875.875,0,0,1-.875-.875V-.266a7.687,7.687,0,0,1,4.227-6.886,38.127,38.127,0,0,1,7.363-2.82.875.875,0,0,1,1.072.619.875.875,0,0,1-.619,1.072,36.372,36.372,0,0,0-7.024,2.69,5.944,5.944,0,0,0-3.268,5.325V3.387A.875.875,0,0,1-134.111,4.263Z" transform="translate(134.986 10.002)"/>
          </g>
          <g id="g6764" transform="translate(32.532 34.242)">
            <path id="path6766" d="M-118.353-74.851a.876.876,0,0,1-.817-.56,5.963,5.963,0,0,0-2.865-3.17,36.371,36.371,0,0,0-7.024-2.69.875.875,0,0,1-.619-1.072.875.875,0,0,1,1.072-.619,38.126,38.126,0,0,1,7.363,2.82,7.712,7.712,0,0,1,3.705,4.1.875.875,0,0,1-.5,1.132A.873.873,0,0,1-118.353-74.851Z" transform="translate(129.708 82.992)"/>
          </g>
          <g id="g6768" transform="translate(39.934 47.374)">
            <path id="path6770" d="M-62.77-37.778h-4.672a1.351,1.351,0,0,1-1.35-1.35v-1.884a1.351,1.351,0,0,1,1.35-1.35h4.672a1.351,1.351,0,0,1,1.35,1.35v1.884A1.351,1.351,0,0,1-62.77-37.778Zm-4.271-1.751h3.87V-40.61h-3.87Z" transform="translate(68.792 42.361)"/>
          </g>
          <g id="g6772" transform="translate(29.795 40.632)">
            <path id="path6774" d="M-271.687-10h20.538a3.577,3.577,0,0,1,3.556,3.485,6.556,6.556,0,0,1-6.514,6.424h-4.5a.875.875,0,0,1-.875-.875v-.541h-3.87v.541a.875.875,0,0,1-.875.875h-4.5a6.549,6.549,0,0,1-6.514-6.389A3.584,3.584,0,0,1-271.687-10Zm17.58,8.158a4.789,4.789,0,0,0,4.764-4.672,1.811,1.811,0,0,0-1.806-1.735h-20.538a1.817,1.817,0,0,0-1.806,1.77,4.783,4.783,0,0,0,4.764,4.637h3.625v-.067a1.351,1.351,0,0,1,1.35-1.35h4.672a1.351,1.351,0,0,1,1.35,1.35v.067Z" transform="translate(275.243 10)"/>
          </g>
          <g id="g6776" transform="translate(29.792 49.155)">
            <path id="path6778" d="M14.1.6H-6.441A3.563,3.563,0,0,1-10-2.955v-6.17A.875.875,0,0,1-9.125-10a.875.875,0,0,1,.875.875v6.17A1.81,1.81,0,0,0-6.441-1.146H14.1a1.81,1.81,0,0,0,1.808-1.808v-6.17A.875.875,0,0,1,16.781-10a.875.875,0,0,1,.875.875v6.17A3.563,3.563,0,0,1,14.1.6Z" transform="translate(10 10)"/>
          </g>
          <g id="g6780" transform="translate(12.461 6.861)">
            <path id="path6782" d="M-114.685-11.262a1.272,1.272,0,0,1,.88.352,17.377,17.377,0,0,0,9.312,4.369,1.283,1.283,0,0,1,1.114,1.275l-.032,8.385c0,7.133-7.327,11.023-11.256,11.107-3.966-.084-11.293-3.974-11.293-11.111l-.032-8.381a1.282,1.282,0,0,1,1.114-1.275,17.377,17.377,0,0,0,9.312-4.369A1.272,1.272,0,0,1-114.685-11.262Zm9.554,6.4a19.275,19.275,0,0,1-9.554-4.474,19.275,19.275,0,0,1-9.554,4.474l.03,7.977c0,6.436,6.826,9.306,9.542,9.364,2.678-.058,9.5-2.928,9.5-9.36Z" transform="translate(125.992 11.262)"/>
          </g>
          <g id="g6784" transform="translate(9.1 12.872)">
            <path id="path6786" d="M-44.176-2.131h-.916A3.352,3.352,0,0,1-48.44-5.481v-1.17A3.352,3.352,0,0,1-45.092-10h.893a.875.875,0,0,1,.875.875.875.875,0,0,1-.875.875h-.893a1.6,1.6,0,0,0-1.6,1.6v1.17a1.6,1.6,0,0,0,1.6,1.6h.916a.875.875,0,0,1,.875.875A.875.875,0,0,1-44.176-2.131Z" transform="translate(48.44 10)"/>
          </g>
          <g id="g6788" transform="translate(33.296 12.872)">
            <path id="path6790" d="M-8.208-72.019h-.916A.875.875,0,0,1-10-72.895a.875.875,0,0,1,.875-.875h.916a1.6,1.6,0,0,0,1.6-1.6v-1.17a1.6,1.6,0,0,0-1.6-1.6H-9.1a.875.875,0,0,1-.875-.875.875.875,0,0,1,.875-.875h.893a3.352,3.352,0,0,1,3.348,3.349v1.17A3.352,3.352,0,0,1-8.208-72.019Z" transform="translate(10 79.888)"/>
          </g>
          <g id="g6792" transform="translate(36.673 16.517)">
            <path id="path6794" d="M-8.934-207.268a.875.875,0,0,1-.329-.064.894.894,0,0,1-.547-.97v-18.947a.875.875,0,0,1,.875-.875.875.875,0,0,1,.875.875v19.106a.875.875,0,0,1-.386.726A.875.875,0,0,1-8.934-207.268Z" transform="translate(9.822 228.125)"/>
          </g>
          <g id="g6796" transform="translate(9.1 0.001)">
            <path id="path6798" d="M-324.244-168.2a.875.875,0,0,1-.875-.875v-5.215a11.03,11.03,0,0,1,3.585-8.128,11.03,11.03,0,0,1,8.419-2.833l1.932.176a8.12,8.12,0,0,0,1.464,0l1.931-.176a11.03,11.03,0,0,1,8.419,2.833,11.03,11.03,0,0,1,3.585,8.128v5.215a.875.875,0,0,1-.875.875.875.875,0,0,1-.875-.875v-5.215a9.275,9.275,0,0,0-3.015-6.835,9.275,9.275,0,0,0-7.08-2.382l-1.932.176a9.876,9.876,0,0,1-1.782,0l-1.932-.176a9.275,9.275,0,0,0-7.08,2.382,9.275,9.275,0,0,0-3.015,6.835v5.215A.875.875,0,0,1-324.244-168.2Z" transform="translate(325.119 185.291)"/>
          </g>
          <g id="g6800" transform="translate(9.1 16.516)">
            <path id="path6802" d="M-9.125,10.859A.875.875,0,0,1-10,9.984V-9.125A.875.875,0,0,1-9.125-10a.875.875,0,0,1,.875.875V9.984A.875.875,0,0,1-9.125,10.859Z" transform="translate(10 10)"/>
          </g>
        </g>
      </g>
    </g>
  </g>
</svg>
