<svg xmlns="http://www.w3.org/2000/svg" xmlns:xlink="http://www.w3.org/1999/xlink" width="90.915" height="90.914" viewBox="0 0 90.915 90.914">
  <defs>
    <clipPath id="clip-path">
      <path id="path1509" d="M0-682.665H62.456v62.456H0Z" transform="translate(0 682.665)"/>
    </clipPath>
  </defs>
  <g id="Grupo_1106743" data-name="Grupo 1106743" transform="translate(4772 4031)">
    <g id="Grupo_1106154" data-name="Grupo 1106154" transform="translate(-4772 -4031)">
      <rect id="Rect치ngulo_400898" data-name="Rect치ngulo 400898" width="90.914" height="90.914" rx="45.457" transform="translate(0.001)" fill="#febdaf" opacity="0.859"/>
      <rect id="Rect치ngulo_400907" data-name="Rect치ngulo 400907" width="90.914" height="90.914" rx="45.457" transform="translate(0)" fill="none"/>
    </g>
    <g id="g1503" transform="translate(-4758 -3334.335)">
      <g id="g1505" transform="translate(0 -682.665)">
        <g id="g1507" transform="translate(0 0)" clip-path="url(#clip-path)">
          <g id="g1513" transform="translate(15.712 9.585)">
            <path id="path1515" d="M0-45.972V-32.61a6.057,6.057,0,0,0,6.057,6.057H16.681a6.057,6.057,0,0,0,6.057-6.057V-45.972A4.629,4.629,0,0,0,18.108-50.6H4.629A4.63,4.63,0,0,0,0-45.972" transform="translate(0 50.601)" fill="#fa9801"/>
          </g>
          <g id="g1517" transform="translate(28.042 9.585)">
            <path id="path1519" d="M-57.377,0H-57.5a10.437,10.437,0,0,1,.4,2.872V17.991a6.057,6.057,0,0,1-6.056,6.057H-58.8a6.057,6.057,0,0,0,6.057-6.057V4.629A4.629,4.629,0,0,0-57.377,0" transform="translate(63.155)" fill="#f88604"/>
          </g>
          <g id="g1521" transform="translate(9.007 43.24)">
            <path id="path1523" d="M-320.614,0h-29.041L-352.9,3.091v8.964h36.147V3.091Z" transform="translate(352.9)" fill="#fff0dc"/>
          </g>
          <g id="g1525" transform="translate(40.803 43.24)">
            <path id="path1527" d="M-4.867,0h-.49V12.054h4.351V3.09Z" transform="translate(5.357)" fill="#ffddce"/>
          </g>
          <g id="g1529" transform="translate(9.007 23.273)">
            <path id="path1531" d="M-306.533-78.915l-8.407-1.975v-5.972h-8.775v5.972l-8.407,1.975a6.608,6.608,0,0,0-5.279,6.5v8.609h5.482a2.22,2.22,0,0,1,2.22,2.22v6.744h20.745v-6.744a2.22,2.22,0,0,1,2.22-2.22h5.482v-8.609a6.608,6.608,0,0,0-5.279-6.5" transform="translate(337.402 86.862)" fill="#fff0dc"/>
          </g>
          <g id="g1533" transform="translate(27.117 23.273)">
            <path id="path1535" d="M-126.692-78.915l-8.407-1.975v-5.972h-4.351V-80.4a2.6,2.6,0,0,0,2.006,2.532l6.4,1.5a6.608,6.608,0,0,1,5.279,6.5v6.057h4.351v-8.609a6.608,6.608,0,0,0-5.279-6.5" transform="translate(139.45 86.862)" fill="#ffddce"/>
          </g>
          <g id="g1537" transform="translate(9.007 30.204)">
            <path id="path1539" d="M-306.533-10.092l-4.326-1.016a9.495,9.495,0,0,1-8.469,4.664,9.495,9.495,0,0,1-8.469-4.664l-4.326,1.016a6.608,6.608,0,0,0-5.279,6.5V5.018h5.482a2.22,2.22,0,0,1,2.22,2.22v6.744h20.745V7.238a2.22,2.22,0,0,1,2.22-2.22h5.482V-3.591a6.608,6.608,0,0,0-5.279-6.5" transform="translate(337.402 11.108)" fill="#fc90d2"/>
          </g>
          <g id="g1541" transform="translate(32.856 30.204)">
            <path id="path1543" d="M-69.7-10.093l-4.326-1.016a8.321,8.321,0,0,1-2.693,2.942l2.668.627a6.608,6.608,0,0,1,5.279,6.5V5.017h4.351V-3.592a6.608,6.608,0,0,0-5.279-6.5" transform="translate(76.722 11.109)" fill="#fb74c4"/>
          </g>
          <g id="g1545" transform="translate(18.894 8.166)">
            <path id="path1547" d="M-.9-106.877a7.573,7.573,0,0,0,2.567,5.593c1.307,1.125,3.143,3.228,5.569,3.255,2.426-.027,4.263-2.13,5.569-3.255a7.573,7.573,0,0,0,2.567-5.593l.012-10.763H-.993Z" transform="translate(0.993 117.64)" fill="#fff0dc"/>
          </g>
          <g id="g1549" transform="translate(27.124 8.166)">
            <path id="path1551" d="M-37.653,0l-.009,12.917A7.572,7.572,0,0,1-40.23,18.51c-.364.313-.769.7-1.215,1.1,2.425-.029,4.26-2.131,5.566-3.255a7.573,7.573,0,0,0,2.567-5.593L-33.3,0Z" transform="translate(41.445)" fill="#ffddce"/>
          </g>
          <g id="g1553" transform="translate(15.712 2.022)">
            <path id="path1555" d="M-225.787-122.769a6.733,6.733,0,0,1-4.68-2.731,1.284,1.284,0,0,0-1.788-.367c-2.786,1.878-10.035,8.262-16.269,5.35v-4.18a10.436,10.436,0,0,1,10.436-10.436h1.866A10.436,10.436,0,0,1-225.787-124.7Z" transform="translate(248.525 135.132)" fill="#fba615"/>
          </g>
          <g id="g1557" transform="translate(24.905 2.022)">
            <path id="path1559" d="M-30.869,0h-1.866a10.52,10.52,0,0,0-1.242.076,10.434,10.434,0,0,1,9.184,9.989,6.855,6.855,0,0,0,4.36,2.3V10.436A10.436,10.436,0,0,0-30.869,0" transform="translate(33.977)" fill="#fa9801"/>
          </g>
          <g id="g1561" transform="translate(44.508 8.815)">
            <path id="path1563" d="M-168.916-84.459a8.505,8.505,0,0,1-8.505,8.505,8.505,8.505,0,0,1-8.505-8.505,8.505,8.505,0,0,1,8.505-8.505,8.505,8.505,0,0,1,8.505,8.505" transform="translate(185.926 92.964)" fill="#fbd307"/>
          </g>
          <g id="g1565" transform="translate(50.837 8.815)">
            <path id="path1567" d="M-21.6,0a8.516,8.516,0,0,0-2.175.282,8.508,8.508,0,0,1,6.33,8.223,8.508,8.508,0,0,1-6.33,8.223,8.511,8.511,0,0,0,2.175.282A8.505,8.505,0,0,0-13.1,8.505,8.505,8.505,0,0,0-21.6,0" transform="translate(23.779)" fill="#f9c301"/>
          </g>
          <g id="g1569" transform="translate(52.098 12.253)">
            <path id="path1571" d="M-6.873-1.806a.912.912,0,0,1-.647-.268L-9.732-4.286A.915.915,0,0,1-10-4.932V-9.085A.915.915,0,0,1-9.085-10a.915.915,0,0,1,.915.915v3.774l1.944,1.944a.915.915,0,0,1,0,1.294A.912.912,0,0,1-6.873-1.806Z" transform="translate(10 10)"/>
          </g>
          <g id="g1573" transform="translate(3.723 33.641)">
            <path id="path1575" d="M-273.024-191.161h-27.494v-17.528a1.722,1.722,0,0,1,1.722-1.722h24.05a1.722,1.722,0,0,1,1.722,1.722Z" transform="translate(300.518 210.411)" fill="#eff3f5"/>
          </g>
          <g id="g1577" transform="translate(25.167 33.641)">
            <path id="path1579" d="M-42.982,0h-4.328a1.722,1.722,0,0,1,1.722,1.722V19.25h4.328V1.722A1.722,1.722,0,0,0-42.982,0" transform="translate(47.311)" fill="#e5ecf1"/>
          </g>
          <g id="g1581" transform="translate(0.915 51.446)">
            <path id="path1583" d="M-314.991,0h-30.33a1.391,1.391,0,0,0-1.391,1.391,2.458,2.458,0,0,0,2.458,2.458h28.2A2.458,2.458,0,0,0-313.6,1.391,1.391,1.391,0,0,0-314.991,0" transform="translate(346.711)" fill="#e5ecf1"/>
          </g>
          <g id="g1585" transform="translate(0.915 54.734)">
            <path id="path1587" d="M-592.16-56.611H-650.8a1,1,0,0,1-.995-.995v-3.711a1,1,0,0,1,.995-.995h58.637a1,1,0,0,1,.995.995v3.711a1,1,0,0,1-.995.995" transform="translate(651.792 62.312)" fill="#f9c36e"/>
          </g>
          <g id="g1589" transform="translate(56.196 54.734)">
            <path id="path1591" d="M-43.205,0h-3.356V4.706a1,1,0,0,1-.995.995h4.351a1,1,0,0,0,.995-.995V.995A1,1,0,0,0-43.205,0" transform="translate(47.556)" fill="#e7b467"/>
          </g>
          <g id="g1593" transform="translate(15.643 39.761)">
            <path id="path1595" d="M-47.823-23.911A2.408,2.408,0,0,1-50.231-21.5a2.408,2.408,0,0,1-2.408-2.408,2.408,2.408,0,0,1,2.408-2.408,2.408,2.408,0,0,1,2.408,2.408" transform="translate(52.639 26.319)" fill="#557981"/>
          </g>
          <g id="g1597" transform="translate(0 53.819)">
            <path id="path1599" d="M-601.245-64.781h-58.637a1.912,1.912,0,0,1-1.91-1.91V-70.4a1.912,1.912,0,0,1,1.91-1.91h58.637a1.912,1.912,0,0,1,1.91,1.91v3.711A1.912,1.912,0,0,1-601.245-64.781Zm-58.637-5.7a.08.08,0,0,0-.08.08v3.711a.08.08,0,0,0,.08.08h58.637a.08.08,0,0,0,.08-.08V-70.4a.08.08,0,0,0-.08-.08Z" transform="translate(661.792 72.312)"/>
          </g>
          <g id="g1601" transform="translate(14.728 38.846)">
            <path id="path1603" d="M-59.316-36.319A3.327,3.327,0,0,1-55.993-33a3.327,3.327,0,0,1-3.323,3.323A3.327,3.327,0,0,1-62.639-33,3.327,3.327,0,0,1-59.316-36.319Zm0,4.816A1.5,1.5,0,0,0-57.823-33a1.5,1.5,0,0,0-1.493-1.493A1.5,1.5,0,0,0-60.809-33,1.5,1.5,0,0,0-59.316-31.5Z" transform="translate(62.639 36.319)"/>
          </g>
          <g id="g1605" transform="translate(2.808 32.726)">
            <path id="path1607" d="M-309.6-64.491a.915.915,0,0,1-.915-.915V-81.488a2.64,2.64,0,0,1,2.637-2.637h24.05a2.64,2.64,0,0,1,2.637,2.637v5.059a.915.915,0,0,1-.915.915.915.915,0,0,1-.915-.915v-5.059a.808.808,0,0,0-.807-.807h-24.05a.808.808,0,0,0-.807.807v16.082A.915.915,0,0,1-309.6-64.491Z" transform="translate(310.518 84.125)"/>
          </g>
          <g id="g1609" transform="translate(30.303 43.793)">
            <path id="path1611" d="M-9.085-75.08A.915.915,0,0,1-10-75.995v-6.738a.915.915,0,0,1,.915-.915.915.915,0,0,1,.915.915v6.738A.915.915,0,0,1-9.085-75.08Z" transform="translate(10 83.648)"/>
          </g>
          <g id="g1613" transform="translate(0 50.531)">
            <path id="path1615" d="M-360.3-40.821a.911.911,0,0,1-.579-.207,3.362,3.362,0,0,1-1.238-2.61,2.308,2.308,0,0,1,2.306-2.306h30.33a2.308,2.308,0,0,1,2.306,2.306,3.364,3.364,0,0,1-1.229,2.6.915.915,0,0,1-1.288-.124.915.915,0,0,1,.124-1.288,1.54,1.54,0,0,0,.563-1.192.476.476,0,0,0-.476-.476h-30.33a.476.476,0,0,0-.476.476,1.539,1.539,0,0,0,.567,1.194.915.915,0,0,1,.128,1.287A.913.913,0,0,1-360.3-40.821Z" transform="translate(362.12 45.944)"/>
          </g>
          <g id="g1617" transform="translate(29.86 29.289)">
            <path id="path1619" d="M-75.394-251.76a.915.915,0,0,1-.915-.915v-6.184a3.138,3.138,0,0,1,3.135-3.135h4.567v-7.695a5.672,5.672,0,0,0-4.55-5.6l-3.694-.867a9.857,9.857,0,0,1-4.9,3.823.915.915,0,0,1-1.176-.539.915.915,0,0,1,.539-1.176,7.88,7.88,0,0,0,4.285-3.583.915.915,0,0,1,1.017-.46l4.326,1.016a7.479,7.479,0,0,1,5.984,7.391v8.609a.915.915,0,0,1-.915.915h-5.482a1.306,1.306,0,0,0-1.3,1.3v6.184A.915.915,0,0,1-75.394-251.76Z" transform="translate(82.987 278.12)"/>
          </g>
          <g id="g1621" transform="translate(9.48 29.289)">
            <path id="path1623" d="M-125.527-42.3a.911.911,0,0,1-.434-.11,9.565,9.565,0,0,1-3.52-3.2l-3.671.862a5.759,5.759,0,0,0-3.379,2.093.915.915,0,0,1-1.284.159.915.915,0,0,1-.159-1.284,7.573,7.573,0,0,1,4.426-2.754l4.3-1.011a.915.915,0,0,1,1.017.46,7.589,7.589,0,0,0,3.137,3.063.915.915,0,0,1,.37,1.24A.915.915,0,0,1-125.527-42.3Z" transform="translate(138.167 47.571)"/>
          </g>
          <g id="g1625" transform="translate(30.553 24.714)">
            <path id="path1627" d="M-49.61-53.605a.917.917,0,0,1-.21-.024l-4.081-.959a.915.915,0,0,1-.706-.891V-59.1a.915.915,0,0,1,.915-.915.915.915,0,0,1,.915.915V-56.2l3.375.793a.915.915,0,0,1,.681,1.1A.915.915,0,0,1-49.61-53.605Z" transform="translate(54.607 60.011)"/>
          </g>
          <g id="g1629" transform="translate(17.696 24.641)">
            <path id="path1631" d="M-53.7-3.521a.915.915,0,0,1-.89-.706.915.915,0,0,1,.681-1.1l3.375-.793V-9.085A.915.915,0,0,1-49.614-10a.915.915,0,0,1,.915.915V-5.4A.915.915,0,0,1-49.4-4.5l-4.081.959A.918.918,0,0,1-53.7-3.521Z" transform="translate(54.61 10)"/>
          </g>
          <g id="g1633" transform="translate(18.057 12.26)">
            <path id="path1635" d="M-.925-39.575c-2.415-.027-4.222-1.689-5.541-2.9-.225-.207-.437-.4-.636-.573a8.489,8.489,0,0,1-2.885-6.266L-10-50.875a.915.915,0,0,1,.907-.923.915.915,0,0,1,.923.907l.013,1.544a6.651,6.651,0,0,0,2.249,4.907c.213.183.44.392.681.613,1.163,1.07,2.609,2.4,4.3,2.42,1.672-.019,3.119-1.35,4.281-2.42.241-.221.468-.43.681-.614a6.657,6.657,0,0,0,2.249-4.919l.006-5.735a.915.915,0,0,1,.916-.914.915.915,0,0,1,.914.916l-.006,5.754a8.5,8.5,0,0,1-2.885,6.285c-.2.171-.411.367-.636.573C3.276-41.265,1.469-39.6-.925-39.575Z" transform="translate(10 56.007)"/>
          </g>
          <g id="g1637" transform="translate(14.797 1.107)">
            <path id="path1639" d="M-42.628-22.769a8.977,8.977,0,0,1-3.845-.841A.915.915,0,0,1-47-24.439v-4.18a11.276,11.276,0,0,1,.918-4.478.915.915,0,0,1,1.2-.479.915.915,0,0,1,.479,1.2,9.456,9.456,0,0,0-.769,3.756v3.572c4.839,1.789,10.47-2.326,13.546-4.573.5-.364.935-.683,1.3-.927a2.17,2.17,0,0,1,1.644-.332,2.206,2.206,0,0,1,1.417.95,5.468,5.468,0,0,0,3,2.113v-.8a9.531,9.531,0,0,0-9.521-9.521h-1.866a9.494,9.494,0,0,0-6.432,2.5.915.915,0,0,1-1.293-.056.915.915,0,0,1,.056-1.293,11.319,11.319,0,0,1,7.669-2.982h1.866a11.363,11.363,0,0,1,11.35,11.35v1.928a.915.915,0,0,1-.294.672.915.915,0,0,1-.693.24,7.632,7.632,0,0,1-5.369-3.136.389.389,0,0,0-.249-.169.348.348,0,0,0-.267.054c-.346.233-.763.538-1.24.887C-33.293-26.136-37.9-22.769-42.628-22.769Z" transform="translate(47.001 39.969)"/>
          </g>
          <g id="g1641" transform="translate(14.797 15.722)">
            <path id="path1643" d="M-8.226,5.876a.914.914,0,0,1-.786-.445A6.963,6.963,0,0,1-10,1.854V-9.085A.915.915,0,0,1-9.085-10a.915.915,0,0,1,.915.915V1.854a5.133,5.133,0,0,0,.728,2.637.915.915,0,0,1-.315,1.255A.911.911,0,0,1-8.226,5.876Z" transform="translate(10 10)"/>
          </g>
          <g id="g1645" transform="translate(36.676 13.47)">
            <path id="path1647" d="M-9.087-170.024a.91.91,0,0,1-.469-.13.915.915,0,0,1-.315-1.255,5.133,5.133,0,0,0,.728-2.637v-13.192a.915.915,0,0,1,.915-.915.915.915,0,0,1,.915.915v13.192a6.963,6.963,0,0,1-.988,3.578A.914.914,0,0,1-9.087-170.024Z" transform="translate(10.001 188.153)"/>
          </g>
          <g id="g1649" transform="translate(44.239 45.416)">
            <path id="path1651" d="M-9.085-91.62A.915.915,0,0,1-10-92.535v-8.4a.915.915,0,0,1,.915-.915.915.915,0,0,1,.915.915v8.4A.915.915,0,0,1-9.085-91.62Z" transform="translate(10 101.853)"/>
          </g>
          <g id="g1653" transform="translate(43.593 7.9)">
            <path id="path1655" d="M-186.506-102.964a9.431,9.431,0,0,1,9.42,9.42,9.431,9.431,0,0,1-9.42,9.42,9.431,9.431,0,0,1-9.42-9.42A9.431,9.431,0,0,1-186.506-102.964Zm0,17.01a7.6,7.6,0,0,0,7.59-7.59,7.6,7.6,0,0,0-7.59-7.59,7.6,7.6,0,0,0-7.59,7.59A7.6,7.6,0,0,0-186.506-85.953Z" transform="translate(195.926 102.964)"/>
          </g>
        </g>
      </g>
    </g>
  </g>
</svg>
