<svg xmlns="http://www.w3.org/2000/svg" width="90" height="90" viewBox="0 0 90 90">
  <g id="Grupo_1106753" data-name="Grupo 1106753" transform="translate(-282.051 -1502)">
    <g id="Grupo_1106036" data-name="Grupo 1106036" transform="translate(-921.269 1113.258)">
      <g id="Rect치ngulo_400898" data-name="Rect치ngulo 400898" transform="translate(1203.32 388.742)" fill="#fff" stroke="#fff" stroke-width="3" opacity="0.859">
        <rect width="90" height="90" rx="45" stroke="none"/>
        <rect x="1.5" y="1.5" width="87" height="87" rx="43.5" fill="none"/>
      </g>
      <g id="Rect치ngulo_400907" data-name="Rect치ngulo 400907" transform="translate(1203.32 388.742)" fill="none" stroke="#fff" stroke-width="3">
        <rect width="90" height="90" rx="45" stroke="none"/>
        <rect x="1.5" y="1.5" width="87" height="87" rx="43.5" fill="none"/>
      </g>
    </g>
    <g id="Layer_2" data-name="Layer 2" transform="translate(292.295 1509.123)">
      <g id="Layer_1" data-name="Layer 1" transform="translate(0)">
        <g id="teamwork">
          <path id="Trazado_877677" data-name="Trazado 877677" d="M40.542,38.766a9.284,9.284,0,0,0-9.284-9.3c-10.407.179-12.8,14.338-3.226,18.006v3.811h6.452V47.476A9.284,9.284,0,0,0,40.542,38.766Z" transform="translate(4.287 5.741)" fill="#ffbc41"/>
          <path id="Trazado_877678" data-name="Trazado 877678" d="M27.05,49.93H33.5c-1.1,4.552-5.317,4.015-6.452,0Z" transform="translate(5.27 9.727)" fill="#a7a7a8"/>
          <path id="Trazado_877679" data-name="Trazado 877679" d="M30.227,9.636A4.134,4.134,0,0,1,26.081,5.5a4.146,4.146,0,1,1,8.28,0A4.134,4.134,0,0,1,30.227,9.636Z" transform="translate(5.08 0.221)" fill="#ffdc7c"/>
          <path id="Trazado_877680" data-name="Trazado 877680" d="M33.567,10.66l-2.688,2.688-2.7-2.688a5.472,5.472,0,0,0-5.448,5.448v4.349H39.015V16.108a5.448,5.448,0,0,0-5.448-5.448Z" transform="translate(4.428 2.077)" fill="#2edef4"/>
          <path id="Trazado_877681" data-name="Trazado 877681" d="M34.5,10.73a4.887,4.887,0,0,1,2.091,4.015v3.9H22.73v1.8H39.015V16.095A5.448,5.448,0,0,0,34.5,10.73Z" transform="translate(4.428 2.09)" fill="#24b2d6"/>
          <path id="Trazado_877682" data-name="Trazado 877682" d="M8.277,39.822a4.268,4.268,0,1,1,4.134-4.11,4.134,4.134,0,0,1-4.134,4.11Z" transform="translate(0.804 6.106)" fill="#ffdc7c"/>
          <path id="Trazado_877683" data-name="Trazado 877683" d="M11.617,40.85,8.929,43.538,6.24,40.85A5.484,5.484,0,0,0,.78,46.3v4.349H17.065V46.3A5.448,5.448,0,0,0,11.617,40.85Z" transform="translate(0.152 7.958)" fill="#ad71d8"/>
          <path id="Trazado_877684" data-name="Trazado 877684" d="M12.549,40.92a4.875,4.875,0,0,1,2.1,4.015v3.9H.78v1.8H17.065V46.285a5.448,5.448,0,0,0-4.516-5.365Z" transform="translate(0.152 7.972)" fill="#9358c6"/>
          <path id="Trazado_877685" data-name="Trazado 877685" d="M55.517,40.85l-2.7,2.688L50.128,40.85A5.448,5.448,0,0,0,44.68,46.3v4.349H60.965V46.3A5.448,5.448,0,0,0,55.517,40.85Z" transform="translate(8.704 7.958)" fill="#ff651d"/>
          <path id="Trazado_877686" data-name="Trazado 877686" d="M56.449,40.92a4.863,4.863,0,0,1,2.091,4.015v3.9H44.68v1.8H60.965V46.285a5.448,5.448,0,0,0-4.516-5.365Z" transform="translate(8.704 7.972)" fill="#ff4a22"/>
          <path id="Trazado_877687" data-name="Trazado 877687" d="M51.06,32.64s1.577,3.584,5.066,2.258c.06,2.545-.908,5.831-3.991,5.771-2.664-.621-6.81-4.935-1.075-8.029" transform="translate(9.386 6.359)" fill="#ffdc7c"/>
          <g id="Grupo_1106752" data-name="Grupo 1106752">
            <path id="Trazado_877688" data-name="Trazado 877688" d="M47.221,34.586s1.362-4.373,5.114-4.134A5.1,5.1,0,0,1,57.185,36.7c-1.195-1.374-1.123-1.494-1.123-1.494s-4.409.514-4.779-2.139C49.61,33.785,47.113,36.067,47.221,34.586Z" transform="translate(9.199 5.931)" fill="#022432"/>
            <path id="Trazado_877689" data-name="Trazado 877689" d="M33.082,62.328A27.8,27.8,0,0,1,11.575,52.2.944.944,0,0,1,13.021,51c10.168,12.761,30.79,12.486,40.624-.574a.952.952,0,1,1,1.482,1.195A27.72,27.72,0,0,1,33.082,62.328Z" transform="translate(2.225 9.755)" fill="#022432"/>
            <path id="Trazado_877690" data-name="Trazado 877690" d="M31.167,10.909H29.577A4.277,4.277,0,0,1,25.3,6.631V4.242A4.277,4.277,0,0,1,29.577,0h1.589a4.277,4.277,0,0,1,4.277,4.277v2.39a4.277,4.277,0,0,1-4.277,4.242ZM29.577,1.876a2.39,2.39,0,0,0-2.39,2.39v2.39a2.39,2.39,0,0,0,2.39,2.39h1.589a2.39,2.39,0,0,0,2.39-2.39V4.265a2.39,2.39,0,0,0-2.39-2.39Z" transform="translate(4.929 0)" fill="#022432"/>
            <path id="Trazado_877691" data-name="Trazado 877691" d="M39.167,21.541H22.882a.932.932,0,0,1-.932-.932V16.26a6.392,6.392,0,0,1,6.38-6.38.944.944,0,0,1,.669.275l2.031,2.019,2.019-2.019a.944.944,0,0,1,.669-.275,6.38,6.38,0,0,1,6.38,6.38v4.349a.932.932,0,0,1-.932.932ZM23.814,19.677H38.235V16.26a4.5,4.5,0,0,0-4.146-4.493c-3.644,3.584-2.5,3.584-6.129,0a4.5,4.5,0,0,0-4.146,4.493Z" transform="translate(4.276 1.925)" fill="#022432"/>
            <path id="Trazado_877692" data-name="Trazado 877692" d="M9.228,41.025h-1.6A4.277,4.277,0,0,1,3.35,36.747v-2.39A4.289,4.289,0,0,1,7.627,30.08h1.6a4.289,4.289,0,0,1,4.277,4.277v2.39a4.277,4.277,0,0,1-4.277,4.277Zm-1.6-9.033a2.39,2.39,0,0,0-2.39,2.39v2.39a2.39,2.39,0,0,0,2.39,2.39h1.6a2.39,2.39,0,0,0,2.39-2.39v-2.39a2.39,2.39,0,0,0-2.39-2.39Z" transform="translate(0.653 5.86)" fill="#022432"/>
            <path id="Trazado_877693" data-name="Trazado 877693" d="M17.217,51.649H.932a.932.932,0,0,1-.932-.9V46.368A6.392,6.392,0,0,1,6.392,40a.932.932,0,0,1,.657.275l2.031,2.019,2.031-2.019A.9.9,0,0,1,11.769,40a6.392,6.392,0,0,1,6.392,6.38v4.373a.932.932,0,0,1-.944.9ZM1.876,49.786H16.285V46.368a4.516,4.516,0,0,0-4.146-4.493c-3.584,3.584-2.485,3.584-6.129,0a4.516,4.516,0,0,0-4.134,4.493Z" transform="translate(0 7.793)" fill="#022432"/>
            <path id="Trazado_877694" data-name="Trazado 877694" d="M61.117,51.613H44.832a.944.944,0,0,1-.932-.944V46.32a6.392,6.392,0,0,1,6.38-6.38.944.944,0,0,1,.669.275l2.019,2.031L55,40.215a.944.944,0,0,1,.669-.275,6.392,6.392,0,0,1,6.38,6.38v4.349a.944.944,0,0,1-.932.944ZM45.764,49.737H60.185V46.32a4.516,4.516,0,0,0-4.146-4.493c-3.644,3.584-2.5,3.584-6.129,0a4.516,4.516,0,0,0-4.146,4.493Z" transform="translate(8.552 7.781)" fill="#022432"/>
            <path id="Trazado_877695" data-name="Trazado 877695" d="M52.36,31.115a.956.956,0,0,1-.86-.562A26.143,26.143,0,0,0,39.324,17.829a.935.935,0,0,1,.836-1.673A27.983,27.983,0,0,1,53.208,29.789a.944.944,0,0,1-.848,1.326Z" transform="translate(7.56 3.128)" fill="#022432"/>
            <path id="Trazado_877696" data-name="Trazado 877696" d="M8.847,31.794a.944.944,0,0,1-.836-1.29A27.8,27.8,0,0,1,21.369,16.166a.935.935,0,1,1,.836,1.673,26.107,26.107,0,0,0-12.5,13.37.908.908,0,0,1-.86.585Z" transform="translate(1.548 3.13)" fill="#022432"/>
            <path id="Trazado_877697" data-name="Trazado 877697" d="M34.642,52.37H28.19a.932.932,0,0,1-.944-.932V48.259a10.228,10.228,0,1,1,8.364,0v3.178a.932.932,0,0,1-.968.932Zm-5.52-1.876H33.7V47.626a.944.944,0,0,1,.621-.872c8.639-3.334,6.38-16.07-2.9-16.19-9.26.119-11.542,12.832-2.9,16.19a.932.932,0,0,1,.609.872Z" transform="translate(4.13 5.591)" fill="#022432"/>
            <path id="Trazado_877698" data-name="Trazado 877698" d="M30.432,54.283a4.158,4.158,0,0,1-4.158-4.158.98.98,0,0,1,.932-1.195h6.452a.98.98,0,0,1,.932,1.195,4.158,4.158,0,0,1-4.158,4.158Zm-2.187-3.465a2.294,2.294,0,0,0,4.361,0Z" transform="translate(5.114 9.532)" fill="#022432"/>
            <path id="Trazado_877699" data-name="Trazado 877699" d="M29.7,27.561a.932.932,0,0,1-.944-.932V25.171a.944.944,0,1,1,1.876,0v1.494A.932.932,0,0,1,29.7,27.561Z" transform="translate(5.602 4.699)" fill="#022432"/>
            <path id="Trazado_877700" data-name="Trazado 877700" d="M24.735,29c-.812,0-1.195-1.195-1.553-1.756a.92.92,0,0,1,.346-1.278.932.932,0,0,1,1.278.335l.741,1.3a.932.932,0,0,1-.812,1.4Z" transform="translate(4.491 5.033)" fill="#022432"/>
            <path id="Trazado_877701" data-name="Trazado 877701" d="M21.153,32.709c-.37.06-1.446-.729-1.768-.86a.944.944,0,0,1,.944-1.625l1.29.741a.944.944,0,0,1-.466,1.744Z" transform="translate(3.7 5.871)" fill="#022432"/>
            <path id="Trazado_877702" data-name="Trazado 877702" d="M38.652,32.419a.944.944,0,0,1-.466-1.756l1.29-.741a.932.932,0,0,1,.968,1.565C40.085,31.63,39.022,32.419,38.652,32.419Z" transform="translate(7.349 5.815)" fill="#022432"/>
            <path id="Trazado_877703" data-name="Trazado 877703" d="M34.831,28.788a.956.956,0,0,1-.812-1.41l.753-1.314a.944.944,0,0,1,1.625.944C36,27.57,35.644,28.836,34.831,28.788Z" transform="translate(6.605 5.001)" fill="#022432"/>
            <path id="Trazado_877704" data-name="Trazado 877704" d="M52.282,41.553A4.935,4.935,0,0,1,50.371,32.1a.934.934,0,1,1,.729,1.721,3.047,3.047,0,1,0,4.242,2.808c0-.765-.514-1.685.5-2.019s1.374,1.195,1.362,2.019a4.935,4.935,0,0,1-4.923,4.923Z" transform="translate(9.239 6.24)" fill="#022432"/>
            <path id="Trazado_877705" data-name="Trazado 877705" d="M55.954,40.013a.944.944,0,0,1-.812-1.4,3.107,3.107,0,0,0,.358-1.96,4.684,4.684,0,0,1-4.552-2.163,3.071,3.071,0,0,0-1.123,4.122.932.932,0,0,1-.227,1.195c-1.721,1.087-3.322-3.166-3.166-4.481.167-7.5,10.873-8.2,12.044-.812a6.105,6.105,0,0,1-1.888,5.257.968.968,0,0,1-.633.239ZM51.4,32.354a.92.92,0,0,1,.884.621,2.784,2.784,0,0,0,2.617,1.84c.574,0,1.195-.418,1.709-.084a4.182,4.182,0,0,0-8.2-.382A4.7,4.7,0,0,1,51.4,32.354Z" transform="translate(9.044 5.713)" fill="#022432"/>
          </g>
        </g>
      </g>
    </g>
  </g>
</svg>
