<svg xmlns="http://www.w3.org/2000/svg" width="90" height="90" viewBox="0 0 90 90">
  <g id="Grupo_1106756" data-name="Grupo 1106756" transform="translate(-912.051 -1502)">
    <g id="Grupo_1106041" data-name="Grupo 1106041" transform="translate(912.051 1502)">
      <g id="Rect치ngulo_400898" data-name="Rect치ngulo 400898" transform="translate(0)" fill="#fff" stroke="#fff" stroke-width="3" opacity="0.859">
        <rect width="90" height="90" rx="45" stroke="none"/>
        <rect x="1.5" y="1.5" width="87" height="87" rx="43.5" fill="none"/>
      </g>
      <g id="Rect치ngulo_400907" data-name="Rect치ngulo 400907" transform="translate(0)" fill="none" stroke="#fff" stroke-width="3">
        <rect width="90" height="90" rx="45" stroke="none"/>
        <rect x="1.5" y="1.5" width="87" height="87" rx="43.5" fill="none"/>
      </g>
    </g>
    <g id="verificar" transform="translate(917.051 1516)">
      <g id="Grupo_1106754" data-name="Grupo 1106754" transform="translate(11.214 1.214)">
        <path id="Trazado_877706" data-name="Trazado 877706" d="M330.946,250.4a2.33,2.33,0,0,0-2.339,2.308v-8.261a2.476,2.476,0,0,0-4.952,0v13.663l-.516.294a2.065,2.065,0,0,0-1.112,1.582,4.34,4.34,0,0,0,.175,1.7l.914,3.164,1.307,4.522v2.564a1.645,1.645,0,0,0,1.651,1.629h12.381a1.645,1.645,0,0,0,1.651-1.629v-2.564l1.5-1.96a4.812,4.812,0,0,0,1.037-3.556v-8.073a2.339,2.339,0,0,0-4.677,0v-1.509a2.324,2.324,0,0,0-1.8-2.247,2.342,2.342,0,0,0-2.874,2.247v-1.569a2.336,2.336,0,0,0-2.339-2.308Z" transform="translate(-285.336 -213.838)" fill="#ffdcd5" fill-rule="evenodd"/>
        <path id="Trazado_877707" data-name="Trazado 877707" d="M56.691,56.149a21.854,21.854,0,1,1,9.488-9.516,2.323,2.323,0,0,1,1.77,2.239v1.569a2.341,2.341,0,0,1,2.874-2.247A26.71,26.71,0,1,0,57.779,61.016l-.914-3.164a4.339,4.339,0,0,1-.174-1.7Z" transform="translate(-20 -10)" fill="#9de3d1" fill-rule="evenodd"/>
        <path id="Trazado_877708" data-name="Trazado 877708" d="M81.853,93.706a21.851,21.851,0,0,0,9.981-2.413,2.065,2.065,0,0,1,1.112-1.582l.516-.294V75.754a2.476,2.476,0,0,1,4.952,0v8.261a2.331,2.331,0,0,1,2.339-2.308,2.356,2.356,0,0,1,.569.069,21.853,21.853,0,1,0-19.47,11.929Z" transform="translate(-55.144 -45.144)" fill="#b8ecbc" fill-rule="evenodd"/>
        <path id="Trazado_877709" data-name="Trazado 877709" d="M151.517,173.4a3.035,3.035,0,0,1,4.292-4.292l3.5,3.5,7.837-7.837a3.035,3.035,0,0,1,4.292,4.292l-9.983,9.983a3.035,3.035,0,0,1-4.292,0Z" transform="translate(-134.77 -145.206)" fill="#fff" fill-rule="evenodd"/>
      </g>
      <g id="Grupo_1106755" data-name="Grupo 1106755" transform="translate(10 0)">
        <path id="Trazado_877710" data-name="Trazado 877710" d="M66.179,39.641a3.557,3.557,0,0,0-1.546.351,3.554,3.554,0,0,0-1.01-1.159,28.119,28.119,0,0,0,2.223-10.911,27.808,27.808,0,0,0-4.573-15.315,1.214,1.214,0,0,0-2.029,1.334,25.384,25.384,0,0,1,4.175,13.981A25.668,25.668,0,0,1,61.28,38.14a3.551,3.551,0,0,0-1.3.332,3.552,3.552,0,0,0-.986-1.17,23.065,23.065,0,1,0-40.919,2.379,1.214,1.214,0,0,0,2.088-1.24,20.642,20.642,0,1,1,36.5-1.871,3.564,3.564,0,0,0-.961.174v-4.92a3.69,3.69,0,0,0-7.38,0V44.783a3.236,3.236,0,0,0-1.456,1.74,20.641,20.641,0,0,1-19.457-.84,1.214,1.214,0,0,0-1.239,2.088,23.056,23.056,0,0,0,20.692,1.414c.016.066.03.131.049.2l.005.019.617,2.134A25.494,25.494,0,1,1,37.923,2.428,25.381,25.381,0,0,1,51.905,6.6a1.214,1.214,0,0,0,1.334-2.029A27.924,27.924,0,0,0,18.179,47.668a27.918,27.918,0,0,0,30.028,6.215l.879,3.042v2.392a2.857,2.857,0,0,0,2.865,2.843H64.332A2.857,2.857,0,0,0,67.2,59.316V57.163l1.248-1.634a5.994,5.994,0,0,0,1.286-4.293V43.164A3.542,3.542,0,0,0,66.179,39.641Zm1.125,11.6a3.652,3.652,0,0,1-.787,2.819l-1.5,1.96a1.214,1.214,0,0,0-.249.737v2.564a.432.432,0,0,1-.437.415H51.951a.432.432,0,0,1-.437-.415V56.752a1.211,1.211,0,0,0-.048-.337l-2.218-7.677c-.4-1.466.046-1.718.369-1.9l.516-.294a1.214,1.214,0,0,0,.613-1.055V31.824a1.263,1.263,0,0,1,2.524,0V42.612a1.214,1.214,0,1,0,2.428,0V40.086a1.125,1.125,0,0,1,2.249,0v1.569a1.214,1.214,0,1,0,2.428,0,1.125,1.125,0,0,1,2.249,0v1.509a1.214,1.214,0,0,0,2.428,0,1.125,1.125,0,0,1,2.249,0Z" transform="translate(-10 0)"/>
        <path id="Trazado_877711" data-name="Trazado 877711" d="M386.781,66.866a1.214,1.214,0,0,0,.858-2.073h0a1.214,1.214,0,1,0-.858,2.073Z" transform="translate(-339.971 -56.615)"/>
        <path id="Trazado_877712" data-name="Trazado 877712" d="M103.939,349.71a1.214,1.214,0,0,0,.932-1.991h0a1.214,1.214,0,1,0-.931,1.992Z" transform="translate(-91.467 -305.12)"/>
        <path id="Trazado_877713" data-name="Trazado 877713" d="M147.522,171.139a4.249,4.249,0,0,0,6.009,0l9.983-9.983a4.249,4.249,0,0,0-6.009-6.009l-6.978,6.979-2.643-2.643a4.249,4.249,0,0,0-6.009,6.009Zm-3.931-9.94a1.823,1.823,0,0,1,2.575,0l3.5,3.5a1.214,1.214,0,0,0,1.717,0l7.837-7.837a1.821,1.821,0,1,1,2.575,2.575l-9.983,9.983a1.823,1.823,0,0,1-2.575,0l-5.648-5.648A1.823,1.823,0,0,1,143.591,161.2Z" transform="translate(-124.771 -135.22)"/>
      </g>
    </g>
  </g>
</svg>
