<svg xmlns="http://www.w3.org/2000/svg" width="90.914" height="90.914" viewBox="0 0 90.914 90.914">
  <g id="Grupo_1106625" data-name="Grupo 1106625" transform="translate(5060 10024)">
    <g id="Grupo_1106092" data-name="Grupo 1106092" transform="translate(-5060 -10024)">
      <rect id="Rect치ngulo_400898" data-name="Rect치ngulo 400898" width="90.914" height="90.914" rx="45.457" transform="translate(0 0)" fill="#febdaf" opacity="0.859"/>
      <rect id="Rect치ngulo_400907" data-name="Rect치ngulo 400907" width="90.914" height="90.914" rx="45.457" transform="translate(0 0)" fill="none"/>
    </g>
    <g id="barra-grafica" transform="translate(-5040 -10026.055)">
      <path id="Trazado_877230" data-name="Trazado 877230" d="M51.387,106.64H.967a.869.869,0,1,1,0-1.739h49.55V64.913a.869.869,0,0,1,1.739,0v40.857A.869.869,0,0,1,51.387,106.64Z" transform="translate(-0.088 -35.644)" fill="#5a6470"/>
      <path id="Trazado_877231" data-name="Trazado 877231" d="M48.1,240.044H58.53v19.125H48.1Z" transform="translate(-42.872 -192.519)" fill="#fdbd40"/>
      <path id="Trazado_877232" data-name="Trazado 877232" d="M192.1,144.044H202.53V173.6H192.1Z" transform="translate(-171.224 -106.951)" fill="#e9686a"/>
      <path id="Trazado_877233" data-name="Trazado 877233" d="M336.1,64.044H346.53v38.249H336.1Z" transform="translate(-299.577 -35.644)" fill="#238892"/>
      <path id="Trazado_877234" data-name="Trazado 877234" d="M18.266,32.913l2.863,2.863-7.209,7.209-1.993-1.993a.869.869,0,0,0-1.229,0L.265,51.423a.869.869,0,0,0,1.208,1.251l.021-.021,9.817-9.817L13.3,44.829a.869.869,0,0,0,1.229,0l7.824-7.824,2.863,2.863.869-7.824Z" transform="translate(0 -7.121)" fill="#e9686a"/>
      <g id="Grupo_1106624" data-name="Grupo 1106624" transform="translate(7.834 39.701)">
        <path id="Trazado_877235" data-name="Trazado 877235" d="M72.967,363.521a.869.869,0,0,1-.869-.869v-1.739a.869.869,0,0,1,1.739,0v1.739A.869.869,0,0,1,72.967,363.521Z" transform="translate(-72.098 -339.181)" fill="#fff"/>
        <path id="Trazado_877236" data-name="Trazado 877236" d="M72.967,301.26a.869.869,0,0,1-.869-.869v-3.477a.869.869,0,1,1,1.739,0v3.477A.869.869,0,0,1,72.967,301.26Z" transform="translate(-72.098 -282.135)" fill="#fff"/>
        <path id="Trazado_877237" data-name="Trazado 877237" d="M216.967,363.521a.869.869,0,0,1-.869-.869v-1.739a.869.869,0,0,1,1.739,0v1.739A.869.869,0,0,1,216.967,363.521Z" transform="translate(-200.451 -339.181)" fill="#fff"/>
        <path id="Trazado_877238" data-name="Trazado 877238" d="M216.967,258.476a.869.869,0,0,1-.869-.869v-8.693a.869.869,0,0,1,1.739,0v8.693A.869.869,0,0,1,216.967,258.476Z" transform="translate(-200.451 -239.351)" fill="#fff"/>
        <path id="Trazado_877239" data-name="Trazado 877239" d="M360.967,363.521a.869.869,0,0,1-.869-.869v-1.739a.869.869,0,0,1,1.739,0v1.739A.869.869,0,0,1,360.967,363.521Z" transform="translate(-328.803 -339.181)" fill="#fff"/>
        <path id="Trazado_877240" data-name="Trazado 877240" d="M360.967,187.169a.869.869,0,0,1-.869-.869V168.913a.869.869,0,0,1,1.739,0V186.3A.869.869,0,0,1,360.967,187.169Z" transform="translate(-328.803 -168.044)" fill="#fff"/>
      </g>
      <path id="Trazado_877241" data-name="Trazado 877241" d="M51.387,64.044a.869.869,0,0,0-.869.869V104.9H.967a.869.869,0,1,0,0,1.739h50.42a.869.869,0,0,0,.869-.869V64.913A.869.869,0,0,0,51.387,64.044Z" transform="translate(-0.088 -35.644)"/>
      <path id="Trazado_877242" data-name="Trazado 877242" d="M40.967,232.044a.869.869,0,0,0-.869.869v19.125a.869.869,0,0,0,.869.869H51.4a.869.869,0,0,0,.869-.869V232.913a.869.869,0,0,0-.869-.869Zm9.562,19.125H41.837V233.783H50.53Z" transform="translate(-35.741 -185.388)"/>
      <path id="Trazado_877243" data-name="Trazado 877243" d="M184.967,136.044a.869.869,0,0,0-.869.869V166.47a.869.869,0,0,0,.869.869H195.4a.869.869,0,0,0,.869-.869V136.913a.869.869,0,0,0-.869-.869ZM194.53,165.6h-8.693V137.783h8.693Z" transform="translate(-164.094 -99.82)"/>
      <path id="Trazado_877244" data-name="Trazado 877244" d="M328.967,96.032H339.4a.869.869,0,0,0,.869-.869V56.913a.869.869,0,0,0-.869-.869H328.967a.869.869,0,0,0-.869.869V95.163A.869.869,0,0,0,328.967,96.032Zm.869-38.249h8.693V94.293h-8.693Z" transform="translate(-292.446 -28.513)"/>
      <path id="Trazado_877245" data-name="Trazado 877245" d="M.354,45.532a.869.869,0,0,0,1.229,0L11.4,35.715l1.993,1.993a.869.869,0,0,0,1.229,0L21.832,30.5l2.863,2.863a.869.869,0,0,0,1.478-.522l.869-7.824a.869.869,0,0,0-.956-.956l-7.824.869a.869.869,0,0,0-.522,1.478L20.6,29.27l-6.595,6.595-1.993-1.993a.869.869,0,0,0-1.229,0L.354,44.3a.869.869,0,0,0,0,1.229Zm24.84-19.624-.549,4.945-4.4-4.4Z" transform="translate(-0.089 0)"/>
      <path id="Trazado_877246" data-name="Trazado 877246" d="M72.967,363.521a.869.869,0,0,0,.869-.869v-1.739a.869.869,0,0,0-1.739,0v1.739A.869.869,0,0,0,72.967,363.521Z" transform="translate(-64.264 -299.48)"/>
      <path id="Trazado_877247" data-name="Trazado 877247" d="M72.967,301.26a.869.869,0,0,0,.869-.869v-3.477a.869.869,0,1,0-1.739,0v3.477A.869.869,0,0,0,72.967,301.26Z" transform="translate(-64.264 -242.434)"/>
      <path id="Trazado_877248" data-name="Trazado 877248" d="M216.967,363.521a.869.869,0,0,0,.869-.869v-1.739a.869.869,0,0,0-1.739,0v1.739A.869.869,0,0,0,216.967,363.521Z" transform="translate(-192.617 -299.48)"/>
      <path id="Trazado_877249" data-name="Trazado 877249" d="M216.967,258.476a.869.869,0,0,0,.869-.869v-8.693a.869.869,0,0,0-1.739,0v8.693A.869.869,0,0,0,216.967,258.476Z" transform="translate(-192.617 -199.65)"/>
      <path id="Trazado_877250" data-name="Trazado 877250" d="M360.967,360.044a.869.869,0,0,0-.869.869v1.739a.869.869,0,0,0,1.739,0v-1.739A.869.869,0,0,0,360.967,360.044Z" transform="translate(-320.969 -299.48)"/>
      <path id="Trazado_877251" data-name="Trazado 877251" d="M360.967,168.044a.869.869,0,0,0-.869.869V186.3a.869.869,0,1,0,1.739,0V168.913A.869.869,0,0,0,360.967,168.044Z" transform="translate(-320.969 -128.343)"/>
    </g>
  </g>
</svg>
